<svg width="12" height="12" viewBox="0 0 12 12" fill="none" xmlns="http://www.w3.org/2000/svg">
<g id="Download Button">
<path id="Vector" d="M11.5816 8.37207C11.4706 8.37207 11.3642 8.41618 11.2856 8.49466C11.2071 8.57315 11.163 8.67958 11.163 8.79068V10.4651C11.1627 10.65 11.0891 10.8273 10.9583 10.9581C10.8275 11.0888 10.6503 11.1625 10.4654 11.1627H1.53484C1.34992 11.1625 1.17265 11.0888 1.04186 10.9581C0.911134 10.8273 0.837502 10.65 0.837222 10.4651V8.79068C0.837222 8.64108 0.757425 8.50289 0.627916 8.42814C0.498408 8.35339 0.338812 8.35339 0.209305 8.42814C0.0797968 8.50289 0 8.64109 0 8.79068V10.4651C0.000280326 10.8721 0.162117 11.2624 0.449827 11.5501C0.737616 11.8378 1.12793 11.9997 1.53484 12H10.4654C10.8723 11.9997 11.2626 11.8379 11.5504 11.5501C11.8381 11.2624 11.9999 10.872 12.0002 10.4651V8.79068C12.0002 8.67958 11.9561 8.57315 11.8776 8.49466C11.7991 8.41618 11.6927 8.37207 11.5816 8.37207Z" fill="#FAFBFB"/>
<path id="Vector_2" d="M5.99416 0C5.88315 0 5.77663 0.0441048 5.69814 0.122593C5.61965 0.201082 5.57555 0.307512 5.57555 0.418611V7.33956L2.91318 5.12038C2.79788 5.0289 2.64305 5.0047 2.50531 5.05656C2.36768 5.10851 2.26732 5.22886 2.24106 5.3737C2.2149 5.51853 2.26657 5.66644 2.37739 5.76334L5.72628 8.55416C5.74655 8.56873 5.76823 8.58125 5.79103 8.59153C5.80748 8.60228 5.82467 8.612 5.84233 8.62059C5.93941 8.66152 6.04892 8.66152 6.146 8.62059C6.16366 8.612 6.18085 8.60228 6.1973 8.59153C6.2201 8.58125 6.24178 8.56873 6.26205 8.55416L9.61094 5.76334C9.72176 5.66644 9.77343 5.51854 9.74727 5.3737C9.72101 5.22886 9.62066 5.10851 9.48302 5.05656C9.34529 5.0047 9.19047 5.0289 9.07515 5.12038L6.41278 7.33956V0.418611C6.41278 0.307512 6.36868 0.201082 6.29019 0.122593C6.2117 0.0441048 6.10517 0 5.99416 0Z" fill="#FAFBFB"/>
</g>
</svg>
