<svg width="12" height="12" viewBox="0 0 12 12" fill="none" xmlns="http://www.w3.org/2000/svg">
<g id="Icon / Info Tool Tip">
<path id="Vector" d="M6 0C4.40863 0 2.88249 0.632254 1.75744 1.75744C0.632254 2.88263 0 4.40877 0 6C0 7.59123 0.632254 9.11751 1.75744 10.2426C2.88263 11.3677 4.40877 12 6 12C7.59123 12 9.11751 11.3677 10.2426 10.2426C11.3677 9.11737 12 7.59123 12 6C12 4.40877 11.3677 2.88249 10.2426 1.75744C9.11738 0.632254 7.59123 0 6 0ZM6 10.8388C4.71672 10.8388 3.48599 10.329 2.57844 9.42163C1.67103 8.51408 1.16123 7.28334 1.16123 6.00007C1.16123 4.71679 1.67103 3.48605 2.57844 2.57851C3.48599 1.6711 4.71672 1.1613 6 1.1613C7.28328 1.1613 8.51402 1.6711 9.42156 2.57851C10.329 3.48605 10.8388 4.71679 10.8388 6.00007C10.8388 7.28334 10.329 8.51408 9.42156 9.42163C8.51402 10.329 7.28328 10.8388 6 10.8388Z" fill="#B5BECA"/>
<path id="Vector_2" d="M5.41797 5.80664H6.57934V8.90352H5.41797V5.80664Z" fill="#B5BECA"/>
<path id="Vector_3" d="M6.57934 3.67737C6.57934 3.99801 6.31931 4.25805 5.99866 4.25805C5.678 4.25805 5.41797 3.99802 5.41797 3.67737C5.41797 3.35672 5.678 3.09668 5.99866 3.09668C6.31931 3.09668 6.57934 3.35671 6.57934 3.67737Z" fill="#B5BECA"/>
</g>
</svg>
