<svg fill="none"
  xmlns="http://www.w3.org/2000/svg" viewBox="0 0 189.18 24">
  <path d="M120.877 0.543828H111.84V23.4986H120.817C127.134 23.4986 131.91 19.2637 131.91 12.0212C131.91 4.77881 127.195 0.543828 120.877 0.543828ZM120.877 3.67403C125.29 3.67403 128.313 6.52804 128.313 12.0212C128.313 17.5144 125.23 20.3684 120.847 20.3684H115.407V3.67403H120.877Z" fill="white"></path>
  <path d="M141.768 7.47938C137.143 7.47938 133.667 10.6403 133.667 15.6425C133.667 20.614 137.143 23.8055 141.768 23.8055C146.362 23.8055 149.838 20.614 149.838 15.6425C149.838 10.6403 146.362 7.47938 141.768 7.47938ZM141.768 10.4254C144.428 10.4254 146.422 12.3588 146.422 15.6425C146.422 18.8954 144.428 20.8288 141.768 20.8288C139.078 20.8288 137.113 18.8954 137.113 15.6425C137.113 12.3588 139.078 10.4254 141.768 10.4254Z" fill="white"></path>
  <path d="M155.757 0.317383H152.372V23.4986H155.757V0.317383Z" fill="white"></path>
  <path d="M162.416 0.317383H159.031V23.4986H162.416V0.317383Z" fill="white"></path>
  <path d="M171.861 7.47938C167.992 7.47938 165.695 10.272 165.695 13.0339L169.111 13.1567C169.111 11.745 169.957 10.4868 171.891 10.4868C173.796 10.4868 174.642 11.745 174.642 13.7705V14.2308L170.954 14.4456C167.781 14.6297 165.272 15.8266 165.272 19.2023C165.272 22.1484 167.357 23.8055 170.441 23.8055C172.163 23.8055 173.554 23.1304 174.642 22.087V23.4986H178.058V13.7091C178.058 9.68893 175.851 7.47938 171.861 7.47938ZM174.672 16.9007V17.4531C174.672 19.8467 173.161 20.9208 171.015 20.9208C169.655 20.9208 168.687 20.4605 168.687 19.1409C168.687 17.7293 169.836 17.2076 171.438 17.1155L174.672 16.9007Z" fill="white"></path>
  <path d="M189.175 7.57144C186.696 7.57144 185.336 8.73759 184.762 9.96512V7.75557H181.467V23.4986H184.853V14.9366C184.853 12.635 186.515 10.9165 189.175 10.9165V7.57144Z" fill="white"></path>
  <path d="M36.0513 23.4652L31.5074 15.6522C31.4033 15.6522 31.3382 15.6522 31.247 15.6522H27.7838V23.4652H23.253V0.573913H31.247C36.8585 0.573913 40.2175 3.61304 40.2175 8.21739C40.2175 11.3609 38.6812 13.6435 35.908 14.7913L41.1289 23.4522H36.0513V23.4652ZM27.7968 11.5957H31.8459C34.3587 11.5957 35.5305 9.96522 35.5305 8.23043C35.5305 6.43043 34.3197 4.82609 31.8459 4.82609H27.7968V11.5957ZM43.212 23.4652V0.573913H47.7429V23.4522H43.212V23.4652ZM68.7565 21.0783C67.5196 22.487 64.8115 23.9217 61.8431 23.9217C55.2812 23.9217 49.9952 18.9261 49.9952 12.0261C49.9952 5.12609 55.2812 0.130435 61.8431 0.130435C66.3739 0.169565 70.1626 2.51739 72.2197 6.18261L67.5847 7.39565C66.3478 5.7 64.0955 4.61739 61.8431 4.61739C57.5726 4.61739 54.7344 7.69565 54.7344 12.0391C54.7344 16.5783 57.8721 19.487 62.1035 19.487C66.0224 19.487 68.0795 17.3348 68.7955 15.5609V14.5826H62.468V10.8783H72.6754V23.4652H68.7565C68.7565 21.5739 68.7955 21.1174 68.7955 21.0783H68.7565ZM75.8652 23.4652V0.573913H80.396V23.4522H75.8652V23.4652ZM103.792 0.573913V23.4522H99.5218L93.025 14.6217C90.9679 11.8043 88.4551 8.21739 88.4291 8.21739H88.39C88.364 8.21739 88.4291 11.5174 88.4291 16.0565V23.4391H83.8983V0.573913H88.1687L94.7957 9.49565C96.358 11.5565 99.2354 15.6391 99.2614 15.6391H99.3004C99.3395 15.6391 99.2614 11.9087 99.2614 8.06087V0.573913H103.792ZM20.0111 5.89565L16.3136 9.6C16.4568 10.3304 16.5349 11.1391 16.5349 12.013C16.5349 16.6957 14.3346 19.5 10.65 19.5C9.11372 19.5 7.82478 19.0043 6.84831 18.0652L19.6596 5.23043C19.3211 4.61739 18.9305 4.05652 18.4878 3.53478C18.3055 3.31304 18.1103 3.11739 17.915 2.9087C17.8889 2.88261 17.8629 2.85652 17.8368 2.83043C17.7717 2.77826 17.7197 2.71304 17.6546 2.66087C15.7797 0.913043 13.3972 0 10.65 0C7.48627 0 4.77819 1.21304 2.83827 3.52174C1.00251 5.7 0 8.71304 0 12.013C0 14.2043 0.442666 16.2652 1.27592 18.0391L4.99952 14.3087C4.86933 13.6043 4.80423 12.8348 4.80423 12C4.80423 9.84783 5.2469 8.1 6.10619 6.8087C7.12172 5.3087 8.69709 4.51304 10.65 4.51304C12.1733 4.51304 13.4492 4.99565 14.4127 5.89565L1.62745 18.7043C1.97898 19.3435 2.38259 19.9435 2.83827 20.4783C2.92941 20.5826 3.02055 20.687 3.1247 20.7913C3.22886 20.9087 3.34604 21.0261 3.46321 21.1435C3.47623 21.1565 3.48925 21.1696 3.50227 21.1826C3.54133 21.2217 3.56737 21.2609 3.60643 21.287C5.46823 23.0609 7.87686 24 10.65 24C13.8268 24 16.5349 22.787 18.4878 20.4783C20.3236 18.3 21.3391 15.3 21.3391 12C21.3391 9.78261 20.8704 7.68261 20.0111 5.89565Z" fill="#0074F0"></path>
</svg>