<svg xmlns="http://www.w3.org/2000/svg" width="215" height="24" viewBox="0 0 215 24" fill="none">
  <g clip-path="url(#clip0_308_14877)">
    <path d="M5.74839 8.0869C8.83235 8.0869 10.6607 9.80065 10.6607 12.3788C10.6607 14.9569 8.83235 16.6519 5.74839 16.6519H2.92996V21.075H0.511719V8.08502H5.74839V8.0869ZM2.92996 14.4506H5.67252C7.2714 14.4506 8.16662 13.6219 8.16662 12.3806C8.16662 11.1394 7.2714 10.2919 5.67252 10.2919H2.92996V14.4525V14.4506Z" fill="white"/>
    <path d="M24.7667 14.5838C24.7667 18.5175 22.0621 21.4181 18.1587 21.4181C14.2554 21.4181 11.5508 18.5194 11.5508 14.5838C11.5508 10.6481 14.2554 7.74939 18.1587 7.74939C22.0621 7.74939 24.7667 10.6481 24.7667 14.5838ZM14.0847 14.5838C14.0847 17.2181 15.7803 19.1775 18.1606 19.1775C20.5409 19.1775 22.2365 17.22 22.2365 14.5838C22.2365 11.9475 20.5409 9.99001 18.1606 9.99001C15.7803 9.99001 14.0847 11.9475 14.0847 14.5838Z" fill="white"/>
    <path d="M25.5078 8.0869H27.8691L29.6027 16.5956C29.7734 17.4244 29.9081 18.2325 29.9839 19.1925H30.3272C30.422 18.2513 30.5757 17.4225 30.7653 16.5956L32.6127 8.72627H35.8313L37.6218 16.5956C37.7925 17.4038 37.9461 18.2513 38.0409 19.1925H38.4032C38.479 18.2325 38.6308 17.4413 38.7844 16.575L40.5179 8.08502H42.8414V8.87627L40.1766 21.075H36.4819L34.8261 13.7513C34.6345 12.9038 34.4828 12.1331 34.388 11.1356H34.0257C33.9309 12.1331 33.7791 12.8869 33.5876 13.7138L31.873 21.075H28.1973L25.5116 8.87627V8.08502L25.5078 8.0869Z" fill="white"/>
    <path d="M44.5117 8.08691H53.5V10.2713H46.93V13.3407H52.6806V15.5063H46.93V18.8757H53.6327V21.0788H44.5117V8.08879V8.08691Z" fill="white"/>
    <path d="M55.6484 8.08691H61.6855C64.4091 8.08691 65.9511 9.66754 65.9511 11.7207C65.9511 13.2075 65.1697 14.3175 63.7434 14.8088V15.1482C65.1905 15.4875 65.6286 16.485 65.6286 17.9157V21.0788H63.1914V17.8594C63.1914 16.5788 62.6016 16.0519 61.4389 16.0519H58.0686V21.0788H55.6503V8.08879L55.6484 8.08691ZM58.0667 10.29V13.9238H61.2853C62.7135 13.9238 63.438 13.17 63.438 12.1163C63.438 11.0625 62.7154 10.29 61.2853 10.29H58.0667Z" fill="white"/>
    <path d="M67.9102 8.08691H76.8984V10.2713H70.3284V13.3407H76.0791V15.5063H70.3284V18.8757H77.0312V21.0788H67.9102V8.08879V8.08691Z" fill="white"/>
    <path d="M79.0469 8.08691H83.6557C88.0162 8.08691 90.1689 10.7419 90.1689 14.5819C90.1689 18.4219 88.0162 21.0769 83.6557 21.0769H79.0469V8.08691ZM81.4651 18.8738H83.7696C86.5121 18.8738 87.616 17.0288 87.616 14.5819C87.616 12.135 86.5121 10.29 83.7696 10.29H81.4651V18.8738Z" fill="white"/>
    <path d="M96.332 8.08691H102.35C104.825 8.08691 106.291 9.46129 106.291 11.3438C106.291 12.6057 105.624 13.6219 104.387 14.055V14.3757C105.929 14.79 106.824 15.9188 106.824 17.5013C106.824 19.44 105.51 21.0788 102.369 21.0788H96.332V8.08879V8.08691ZM98.7503 10.2338V13.4157H101.874C103.113 13.4157 103.797 12.7763 103.797 11.8163C103.797 10.8563 103.13 10.2357 101.874 10.2357H98.7503V10.2338ZM98.7503 15.3169V18.9132H102.159C103.568 18.9132 104.292 18.2532 104.292 17.1244C104.292 15.9957 103.57 15.3169 102.159 15.3169H98.7503Z" fill="white"/>
    <path d="M107.07 8.08691H109.47L111.639 11.8332C112.077 12.6057 112.402 13.3013 112.61 14.1113H112.897C113.088 13.3032 113.43 12.5869 113.868 11.8519L116.078 8.08691H118.363V8.84066L113.944 16.1832V21.0769H111.526V16.1832L107.07 8.84066V8.08691Z" fill="white"/>
    <path d="M171.923 11.2012C171.06 10.8581 170.007 10.5731 168.763 10.3444H168.737C167.528 10.1344 166.622 9.94124 166.017 9.76499C165.412 9.58874 164.938 9.35248 164.591 9.05248C164.243 8.75436 164.071 8.33998 164.071 7.81311C164.071 7.04061 164.365 6.45186 164.951 6.04686C165.537 5.64374 166.311 5.44124 167.271 5.44124C168.319 5.44124 169.167 5.70561 169.818 6.23249C170.4 6.70686 170.757 7.30686 170.887 8.03624C170.914 8.18061 171.037 8.28936 171.187 8.28936L174.136 8.31186C174.317 8.31186 174.463 8.15999 174.444 7.98186C174.345 7.00686 174.019 6.11999 173.469 5.32311C172.856 4.43624 172.012 3.74624 170.937 3.25499C169.861 2.76374 168.64 2.51624 167.271 2.51624C165.973 2.51624 164.805 2.75436 163.764 3.22874C162.724 3.70311 161.914 4.36123 161.338 5.20498C160.759 6.04873 160.471 6.99749 160.471 8.05124C160.471 9.21186 160.729 10.1419 161.245 10.845C161.761 11.5481 162.436 12.0787 163.27 12.4387C164.105 12.7987 165.11 13.0837 166.282 13.2956L166.415 13.3219C167.659 13.5506 168.589 13.7531 169.201 13.9275C169.814 14.1037 170.298 14.3494 170.654 14.6662C171.009 14.9831 171.187 15.4125 171.187 15.9581C171.187 16.7306 170.867 17.3381 170.227 17.7769C169.588 18.2156 168.761 18.435 167.748 18.435C166.54 18.435 165.562 18.1312 164.816 17.5256C164.137 16.9744 163.737 16.2656 163.618 15.4012C163.597 15.2512 163.472 15.1387 163.318 15.1369L160.37 15.0937C160.192 15.0919 160.046 15.24 160.059 15.4181C160.143 16.4812 160.479 17.4394 161.068 18.2925C161.717 19.2319 162.61 19.9706 163.748 20.5069C164.886 21.0431 166.193 21.3112 167.667 21.3112C169.036 21.3112 170.262 21.0656 171.346 20.5725C172.431 20.0812 173.279 19.3987 173.892 18.5306C174.504 17.6606 174.812 16.6819 174.812 15.5925C174.812 14.4319 174.544 13.4962 174.011 12.7856C173.478 12.0731 172.78 11.5462 171.919 11.205L171.923 11.2012Z" fill="white"/>
    <path d="M190.038 18.3056H189.578C189.31 18.3056 189.101 18.2362 188.952 18.0956C188.8 17.955 188.724 17.7262 188.724 17.4112V12.3769C188.724 10.7775 188.208 9.56062 187.178 8.72625C186.147 7.89187 184.933 7.46625 183.032 7.46625C181.236 7.46625 179.834 7.8525 178.732 8.60812C177.727 9.29625 177.122 10.2412 176.915 11.4394C176.883 11.625 177.025 11.7975 177.217 11.7975H179.927C180.064 11.7975 180.185 11.7094 180.221 11.58C180.345 11.1356 180.618 10.7737 181.041 10.4925C181.53 10.1681 182.11 10.005 182.875 10.005C184.316 10.005 185.342 10.8844 185.342 12.1931V12.6019C185.342 12.7687 185.206 12.9037 185.037 12.9037H182.583C180.591 12.9037 179.081 13.29 178.05 14.0625C177.018 14.8369 176.504 15.9337 176.504 17.3569C176.504 18.5869 176.974 19.5544 177.917 20.2556C178.624 20.7825 179.468 21.0862 180.339 21.2194C181.003 21.3206 181.686 21.3581 182.353 21.2531C183.051 21.1425 183.618 20.8575 184.185 20.4525C184.696 20.0887 185.12 19.6219 185.507 19.0537C185.697 18.7331 186.192 18.8606 186.192 19.2337V19.68C186.192 20.4919 186.858 21.15 187.679 21.15H190.042C190.211 21.15 190.348 21.015 190.348 20.8481V18.6075C190.348 18.4406 190.211 18.3056 190.042 18.3056H190.038ZM185.339 15.5906C185.339 16.2412 185.2 16.8075 184.925 17.2912C184.348 18.3037 183.315 18.8325 182.152 18.8325C181.477 18.8325 180.935 18.675 180.525 18.3581C180.115 18.0412 179.912 17.6194 179.912 17.0925C179.912 16.4962 180.14 16.035 180.591 15.7087C181.045 15.3844 181.689 15.2212 182.524 15.2212H185.031C185.2 15.2212 185.337 15.3562 185.337 15.5231V15.5887L185.339 15.5906Z" fill="white"/>
    <path d="M199.916 2.70935H196.39C194.529 2.70935 193.022 4.19998 193.022 6.03935V7.50185C193.022 7.66873 192.885 7.80373 192.716 7.80373H190.704C190.535 7.80373 190.398 7.93873 190.398 8.1056V10.3725C190.398 10.5394 190.535 10.6743 190.704 10.6743H192.716C192.885 10.6743 193.022 10.8094 193.022 10.9762V20.8462C193.022 21.0131 193.158 21.1481 193.327 21.1481H196.073C196.242 21.1481 196.379 21.0131 196.379 20.8462V10.9762C196.379 10.8094 196.515 10.6743 196.684 10.6743H199.886C200.054 10.6743 200.191 10.5394 200.191 10.3725V8.1056C200.191 7.93873 200.054 7.80373 199.886 7.80373H196.684C196.515 7.80373 196.379 7.66873 196.379 7.50185V6.18748C196.379 5.85373 196.654 5.58185 196.991 5.58185H199.914C200.083 5.58185 200.219 5.44685 200.219 5.27998V3.0131C200.219 2.84623 200.083 2.71123 199.914 2.71123L199.916 2.70935Z" fill="white"/>
    <path d="M213.374 10.53C212.779 9.54561 211.965 8.78998 210.935 8.26311C209.904 7.73623 208.712 7.46436 207.362 7.46436C206.012 7.46436 204.847 7.75686 203.815 8.32873C202.783 8.90061 201.985 9.70873 201.416 10.7531C200.847 11.7994 200.562 13.0237 200.562 14.43C200.562 15.8362 200.856 17.0081 201.443 18.0544C202.029 19.1006 202.869 19.9031 203.961 20.4656C205.054 21.0281 206.338 21.3094 207.813 21.3094C208.951 21.3094 209.968 21.1031 210.867 20.6906C211.764 20.2781 212.489 19.7119 213.041 18.99C213.513 18.3731 213.835 17.6981 214.006 16.965C214.051 16.7737 213.905 16.5919 213.708 16.5919H210.949C210.816 16.5919 210.7 16.6762 210.658 16.8C210.463 17.3681 210.12 17.8162 209.629 18.1462C209.077 18.5156 208.394 18.6994 207.576 18.6994C206.901 18.6994 206.309 18.5587 205.803 18.2775C205.297 17.9962 204.896 17.6006 204.602 17.0906C204.487 16.89 204.392 16.6762 204.316 16.4569C204.234 16.2206 204.178 15.9787 204.136 15.7331C204.123 15.6469 204.109 15.5606 204.1 15.4744C204.079 15.2962 204.223 15.1387 204.405 15.1387H213.923C214.076 15.1387 214.209 15.0262 214.226 14.8744C214.239 14.7637 214.249 14.6494 214.253 14.5331C214.262 14.3231 214.266 14.13 214.266 13.9537C214.266 12.6544 213.968 11.5125 213.373 10.5281L213.374 10.53ZM210.514 12.8494H204.553C204.358 12.8494 204.21 12.6694 204.253 12.4819C204.348 12.0694 204.513 11.6944 204.748 11.3606C205.05 10.9294 205.441 10.6012 205.921 10.3725C206.4 10.1437 206.924 10.0294 207.493 10.0294C208.417 10.0294 209.181 10.275 209.786 10.7681C210.304 11.19 210.647 11.7619 210.812 12.48C210.856 12.6694 210.71 12.8494 210.512 12.8494H210.514Z" fill="white"/>
    <path d="M153.205 11.925H150.592C149.812 11.925 149.179 12.5494 149.179 13.3219V17.07C149.179 17.8406 148.547 18.4669 147.766 18.4669H137.37C136.591 18.4669 135.957 19.0912 135.957 19.8637V22.4475C135.957 23.2181 136.589 23.8444 137.37 23.8444H148.367C149.146 23.8444 149.77 23.22 149.77 22.4475V20.3756C149.77 19.605 150.402 19.0575 151.183 19.0575H153.203C153.983 19.0575 154.616 18.4331 154.616 17.6606V13.3069C154.616 12.5362 153.985 11.9269 153.203 11.9269L153.205 11.925Z" fill="white"/>
    <path d="M135.959 6.79501C135.959 6.02438 136.591 5.39813 137.372 5.39813H147.76C148.54 5.39813 149.173 4.77375 149.173 4.00125V1.4175C149.173 0.646879 148.542 0.0206299 147.76 0.0206299H136.769C135.989 0.0206299 135.356 0.645004 135.356 1.4175V3.40688C135.356 4.1775 134.724 4.80375 133.943 4.80375H131.933C131.153 4.80375 130.52 5.42813 130.52 6.20063V10.5581C130.52 11.3288 131.155 11.9231 131.934 11.9231H134.548C135.328 11.9231 135.961 11.2988 135.961 10.5263V6.79313L135.959 6.79501Z" fill="white"/>
    <path d="M143.852 9.21002H141.341C140.523 9.21002 139.859 9.86564 139.859 10.6744V13.1569C139.859 13.9656 140.523 14.6213 141.341 14.6213H143.852C144.67 14.6213 145.333 13.9656 145.333 13.1569V10.6744C145.333 9.86564 144.67 9.21002 143.852 9.21002Z" fill="white"/>
  </g>
  <defs>
    <clipPath id="clip0_308_14877">
      <rect width="213.943" height="24" fill="white" transform="translate(0.5)"/>
    </clipPath>
  </defs>
</svg>
