<svg width="16" height="16" viewBox="0 0 16 16" fill="none" xmlns="http://www.w3.org/2000/svg">
<g id="Sml Txn Icon / Received">
<g clip-path="url(#clip0_2434_32050)">
<circle id="Ellipse 87" cx="8" cy="8" r="8" fill="#1E1F25"/>
<path id="Arrow 1" d="M11.5 8.5C11.7761 8.5 12 8.27614 12 8C12 7.72386 11.7761 7.5 11.5 7.5V8.5ZM4.14645 7.64645C3.95118 7.84171 3.95118 8.15829 4.14645 8.35355L7.32843 11.5355C7.52369 11.7308 7.84027 11.7308 8.03553 11.5355C8.2308 11.3403 8.2308 11.0237 8.03553 10.8284L5.20711 8L8.03553 5.17157C8.2308 4.97631 8.2308 4.65973 8.03553 4.46447C7.84027 4.2692 7.52369 4.2692 7.32843 4.46447L4.14645 7.64645ZM11.5 7.5L4.5 7.5V8.5H11.5V7.5Z" fill="white"/>
</g>
<rect x="0.5" y="0.5" width="15" height="15" rx="7.5" stroke="#1E1F25"/>
</g>
<defs>
<clipPath id="clip0_2434_32050">
<rect width="16" height="16" rx="8" fill="white"/>
</clipPath>
</defs>
</svg>
