<svg viewBox="0 0 36 36" fill="none"
  xmlns="http://www.w3.org/2000/svg">
  <path d="M35.5 18C35.5 27.665 27.665 35.5 18 35.5C8.33502 35.5 0.5 27.665 0.5 18C0.5 8.33502 8.33502 0.5 18 0.5C27.665 0.5 35.5 8.33502 35.5 18Z" fill="white" stroke="#E5E5E7"/>
  <g clip-path="url(#clip0_1133_44792)">
    <path d="M17.9978 6L17.834 6.54676V22.4125L17.9978 22.5731L25.4955 18.2199L17.9978 6Z" fill="#343434"/>
    <path d="M17.9978 6L10.5 18.2199L17.9978 22.5732V14.8724V6Z" fill="#8C8C8C"/>
    <path d="M17.9985 23.9673L17.9062 24.0778V29.7295L17.9985 29.9943L25.5008 19.6162L17.9985 23.9673Z" fill="#3C3C3B"/>
    <path d="M17.9978 29.9943V23.9673L10.5 19.6162L17.9978 29.9943Z" fill="#8C8C8C"/>
    <path d="M17.998 22.5737L25.4957 18.2205L17.998 14.873V22.5737Z" fill="#141414"/>
    <path d="M10.5 18.2205L17.9977 22.5737V14.873L10.5 18.2205Z" fill="#393939"/>
  </g>
  <defs>
    <clipPath id="clip0_1133_44792">
      <rect width="15" height="24" fill="none" transform="translate(10.5 6)"/>
    </clipPath>
  </defs>
</svg>
