<svg viewBox="0 0 48 48" fill="none"
  xmlns="http://www.w3.org/2000/svg">
  <mask id="mask0_2085_54489" style="mask-type:luminance" maskUnits="userSpaceOnUse" x="0" y="0" width="48" height="48">
    <path fill-rule="evenodd" clip-rule="evenodd" d="M0 0H48V48H0V0Z" fill="white"/>
  </mask>
  <g mask="url(#mask0_2085_54489)">
    <mask id="path-2-inside-1_2085_54489" fill="white">
      <path fill-rule="evenodd" clip-rule="evenodd" d="M23.9196 0.000137447C37.1744 -0.0442434 47.9555 10.6648 47.9999 23.9195C48.0442 37.1743 37.3352 47.9554 24.0805 47.9999C10.8257 48.0442 0.0445773 37.3352 0.000137447 24.0804C-0.0442434 10.8257 10.6648 0.0445183 23.9196 0.000137447Z"/>
    </mask>
    <path fill-rule="evenodd" clip-rule="evenodd" d="M23.9196 0.000137447C37.1744 -0.0442434 47.9555 10.6648 47.9999 23.9195C48.0442 37.1743 37.3352 47.9554 24.0805 47.9999C10.8257 48.0442 0.0445773 37.3352 0.000137447 24.0804C-0.0442434 10.8257 10.6648 0.0445183 23.9196 0.000137447Z" fill="#030C17"/>
    <path d="M47.9999 23.9195L48.9999 23.9162L47.9999 23.9195ZM24.0805 47.9999L24.0838 48.9999H24.0838L24.0805 47.9999ZM0.000137447 24.0804L-0.999857 24.0837V24.0837L0.000137447 24.0804ZM23.923 1.00013C36.6254 0.9576 46.9573 11.2204 46.9999 23.9229L48.9999 23.9162C48.9536 10.1092 37.7233 -1.04609 23.9163 -0.999857L23.923 1.00013ZM46.9999 23.9229C47.0424 36.6254 36.7796 46.9573 24.0771 46.9999L24.0838 48.9999C37.8908 48.9536 49.0461 37.7233 48.9999 23.9162L46.9999 23.9229ZM24.0771 46.9999C11.3746 47.0424 1.04272 36.7796 1.00013 24.077L-0.999857 24.0837C-0.953565 37.8908 10.2767 49.0461 24.0838 48.9999L24.0771 46.9999ZM1.00013 24.077C0.9576 11.3746 11.2204 1.04266 23.923 1.00013L23.9163 -0.999857C10.1092 -0.953627 -1.04609 10.2767 -0.999857 24.0837L1.00013 24.077Z" fill="#FAFBFB" mask="url(#path-2-inside-1_2085_54489)"/>
  </g>
  <path opacity="0.1" fill-rule="evenodd" clip-rule="evenodd" d="M38.9998 38.902C47.2277 30.6152 47.1864 17.2302 38.8996 9.00238C30.6129 0.77453 17.2279 0.815787 9 9.10258L38.9998 38.902Z" fill="white"/>
  <path fill-rule="evenodd" clip-rule="evenodd" d="M36.9722 16.8496L34.2433 14.0971L32.7581 15.606C32.7522 15.6001 32.7463 15.5942 32.7404 15.5883L31.5321 16.8083L24.1 24.3407L19.3966 19.5725C18.4241 20.5863 17.7817 21.9183 17.6403 23.3918L24.1 29.9399L31.4084 22.5313C31.5027 23.0028 31.5498 23.492 31.5498 23.9929C31.5498 28.154 28.1608 31.543 23.9998 31.543C19.8387 31.543 16.4497 28.154 16.4497 23.9929C16.4497 19.8319 19.8387 16.4429 23.9998 16.4429C25.709 16.4429 27.2885 17.0146 28.5557 17.9753L31.7915 14.6924C29.6814 12.9242 26.9644 11.8516 23.9998 11.8516C17.3102 11.8516 11.8643 17.2975 11.8643 23.9871C11.8643 30.6825 17.3102 36.1225 23.9998 36.1225C30.6893 36.1225 36.1352 30.6766 36.1352 23.9871C36.1352 22.1482 35.7227 20.4095 34.9918 18.8476L36.9722 16.8496Z" fill="white"/>
  <mask id="mask1_2085_54489" style="mask-type:luminance" maskUnits="userSpaceOnUse" x="17" y="19" width="8" height="11">
    <path fill-rule="evenodd" clip-rule="evenodd" d="M17.6465 23.3896L24.1003 29.9377H24.1062V24.3385L19.4029 19.5703C18.4304 20.5841 17.7879 21.9102 17.6465 23.3896Z" fill="white"/>
  </mask>
  <g mask="url(#mask1_2085_54489)">
    <path fill-rule="evenodd" clip-rule="evenodd" d="M17.6465 23.3896L24.1003 29.9377H24.1062V24.3385L19.4029 19.5703C18.4304 20.5841 17.7879 21.9102 17.6465 23.3896Z" fill="url(#paint0_linear_2085_54489)"/>
  </g>
  <defs>
    <linearGradient id="paint0_linear_2085_54489" x1="14.4126" y1="24.2588" x2="21.1779" y2="26.6145" gradientUnits="userSpaceOnUse">
      <stop stop-color="#1C313F"/>
      <stop offset="1" stop-color="white"/>
    </linearGradient>
  </defs>
</svg>
