<svg viewBox="0 0 48 48" fill="none"
  xmlns="http://www.w3.org/2000/svg">
  <g clip-path="url(#clip0_176_42924)">
    <path d="M24 48C37.2548 48 48 37.2548 48 24C48 10.7452 37.2548 0 24 0C10.7452 0 0 10.7452 0 24C0 37.2548 10.7452 48 24 48Z" fill="#FF1D1D"/>
    <path fill-rule="evenodd" clip-rule="evenodd" d="M32.9612 36.5132C33.4984 35.2938 33.1138 33.9282 32.7453 32.6199C32.3749 31.3047 32.0208 30.0474 32.6357 29.0546C32.9644 28.524 33.4254 27.9709 33.93 27.3655L33.93 27.3655C35.3085 25.7116 37.0117 23.6681 37.2272 20.6299C37.3357 19.0895 37.1136 18.0941 35.9828 16.4053C32.1688 10.7051 20.1584 6.16326 15.2458 9.53246C14.4418 10.0834 13.87 10.5148 12.9221 11.3802C11.0006 13.1338 10.5655 14.9381 11.0163 17.0491C11.0391 17.1557 11.0645 17.2781 11.093 17.4156C11.6283 19.9976 13.2637 27.885 19.6804 36.1753C23.6362 40.87 24.8443 40.593 25.853 40.3617L25.8531 40.3616L25.8531 40.3616L25.8531 40.3616C25.9413 40.3414 26.028 40.3215 26.1148 40.3054C27.195 40.1043 31.8834 38.9596 32.9615 36.515L32.9612 36.5132ZM30.5459 35.6826C28.5916 37.3308 26.6747 36.468 23.6648 32.8943C20.655 29.3207 11.4707 16.1448 16.4847 11.9169C21.5005 7.6886 30.9365 13.7544 33.8765 17.2422C36.8159 20.7311 33.3934 24.2794 31.3787 25.9775C30.3636 26.833 30.656 28.871 30.946 30.8936C31.2318 32.8857 31.5154 34.863 30.5456 35.6809L30.5459 35.6826ZM19.1616 24.0629L25.1458 27.4672L31.0971 23.9936L25.1705 32.2295L19.1616 24.0629ZM18.8304 22.3401L25.1823 12.7373L31.4055 22.2672L25.1369 25.9292L18.8304 22.3401ZM29.3469 34.1689C30.7377 33.2919 29.1151 28.9235 29.1151 28.9235L29.1148 28.9218L26.1715 33.054C26.1715 33.054 27.9561 35.0459 29.3469 34.1689ZM23.9095 12.2686C23.9095 12.2686 18.1322 11.2704 16.8837 13.4768C15.3758 16.1424 17.8133 21.1603 17.8133 21.1603L23.9095 12.2686ZM33.6152 19.3711C33.5393 17.6111 27.7907 13.9677 27.7907 13.9677L32.5351 21.581C32.5351 21.581 33.6912 21.131 33.6152 19.3711Z" fill="white"/>
    <path opacity="0.2" d="M39.0016 38.9014C47.2305 30.6161 47.1866 17.2286 38.9013 8.99963C30.616 0.770668 17.2285 0.814628 8.99951 9.09992L39.0016 38.9014Z" fill="white"/>
  </g>
  <defs>
    <clipPath id="clip0_176_42924">
      <rect width="48" height="48" fill="white"/>
    </clipPath>
  </defs>
</svg>
