<svg viewBox="0 0 32 32" fill="none"
  xmlns="http://www.w3.org/2000/svg">
  <g clip-path="url(#clip0_1_2)">
    <mask id="mask0_1_2" style="mask-type:luminance" maskUnits="userSpaceOnUse" x="0" y="0" width="32" height="32">
      <path d="M32 0H0V32H32V0Z" fill="white"/>
    </mask>
    <g mask="url(#mask0_1_2)">
      <path d="M32 16C32 7.16344 24.8365 0 16 0C7.16344 0 0 7.16344 0 16C0 24.8365 7.16344 32 16 32C24.8365 32 32 24.8365 32 16Z" fill="#141416"/>
      <path d="M18.4491 18.9112C13.9129 20.272 10.1605 22.2568 7.81169 24.5824L7.70798 24.6856C8.33258 25.276 9.01746 25.804 9.75781 26.2528L9.91697 26.0584C10.5584 25.276 11.2457 24.52 11.9619 23.8072C13.8839 21.8944 16.0833 20.2384 18.4515 18.9088L18.4491 18.9112Z" fill="#F5F5F5"/>
      <path d="M3.99902 16.8952C4.17988 19.3216 5.08181 21.5464 6.49738 23.356L6.5625 23.2912C8.01666 21.8584 9.90974 20.5552 12.1934 19.42C14.1951 18.424 16.4932 17.5696 18.9699 16.8952H3.99902Z" fill="#F5F5F5"/>
      <path d="M13.2304 6.9232C17.2891 10.9624 22.3967 13.6336 27.9988 14.6464C27.3235 8.6584 22.2207 4 16.0207 4C14.3831 4 12.8229 4.3264 11.3976 4.9144C11.9764 5.6104 12.5938 6.2872 13.2304 6.9232Z" fill="#F5F5F5"/>
      <path d="M7.81169 7.41761C10.1605 9.74561 13.9129 11.728 18.4491 13.0912C16.0809 11.7592 13.8815 10.1056 11.9595 8.19281C11.2457 7.48241 10.5584 6.72641 9.91456 5.94161L9.7554 5.74721C9.01505 6.19601 8.33017 6.72401 7.70798 7.31441L7.81169 7.41761Z" fill="#F5F5F5"/>
      <path d="M13.2304 25.0768C12.5914 25.7128 11.974 26.3896 11.3976 27.0856C12.8205 27.6736 14.3831 28 16.0207 28C22.2207 28 27.3235 23.3416 28.0012 17.3512C22.3991 18.364 17.2915 21.0352 13.2328 25.0744L13.2304 25.0768Z" fill="#F5F5F5"/>
      <path d="M12.1934 12.58C9.90974 11.4448 8.01666 10.1416 6.5625 8.7088L6.49738 8.644C5.08181 10.4536 4.17988 12.6784 3.99902 15.1048H18.9675C16.4908 14.4304 14.1951 13.576 12.191 12.5776L12.1934 12.58Z" fill="#F5F5F5"/>
    </g>
  </g>
  <defs>
    <clipPath id="clip0_1_2">
      <rect width="32" height="32" fill="white"/>
    </clipPath>
  </defs>
</svg>
