<svg viewBox="0 0 40 40" fill="none" xmlns="http://www.w3.org/2000/svg">
  <mask id="mask0_3903_437540" style="mask-type:alpha" maskUnits="userSpaceOnUse" x="0" y="0"
    width="40" height="40">
    <path fill-rule="evenodd" clip-rule="evenodd"
      d="M28 22H35.4187C35.7249 20.6765 35.8846 19.2971 35.8799 17.8799C35.8467 7.97195 27.7878 -0.0330985 17.8799 0.000102906C7.97195 0.0333044 -0.0330985 8.09218 0.000102906 18.0001C0.0333044 27.908 8.09218 35.9131 18.0001 35.8799C19.3755 35.8753 20.7143 35.716 22 35.4186V28C22 24.6863 24.6863 22 28 22ZM24 28C24 25.7909 25.7909 24 28 24H36C38.2091 24 40 25.7909 40 28V36C40 38.2091 38.2091 40 36 40H28C25.7909 40 24 38.2091 24 36V28Z"
      fill="white" />
  </mask>
  <g mask="url(#mask0_3903_437540)">
    <g clip-path="url(#clip0_3903_437540)">
      <path
        d="M18 36C27.9411 36 36 27.9411 36 18C36 8.05887 27.9411 0 18 0C8.05887 0 0 8.05887 0 18C0 27.9411 8.05887 36 18 36Z"
        fill="url(#paint0_linear_3903_437540)" />
      <path opacity="0.2"
        d="M29.2136 29.1418C35.3647 22.9496 35.3339 12.9373 29.1417 6.78623C22.9495 0.635124 12.9372 0.665931 6.78613 6.85812L29.2136 29.1418Z"
        fill="white" />
      <path
        d="M17.2674 10.9146C17.5082 10.89 17.7526 10.8774 17.9999 10.8774C21.9322 10.8774 25.1199 14.0651 25.1199 17.9974C25.1199 21.0638 23.1815 23.6774 20.4632 24.6798L18.0473 28.0773C23.5926 28.0517 28.0799 23.5486 28.0799 17.9974C28.0799 12.7847 24.1232 8.4962 19.0493 7.97135L17.2674 10.9146Z"
        fill="white" />
      <path
        d="M17.7712 7.91992C12.3098 8.04152 7.91992 12.5068 7.91992 17.9974C7.91992 23.1341 11.7621 27.3734 16.7294 27.9981L18.8102 25.0718C18.5442 25.1019 18.2739 25.1174 17.9999 25.1174C14.0677 25.1174 10.8799 21.9296 10.8799 17.9974C10.8799 14.8463 12.9269 12.1733 15.7637 11.2356L17.7712 7.91992Z"
        fill="white" />
      <path
        d="M20.4632 24.6804C23.1815 23.6781 25.1199 21.0644 25.1199 17.998H28.0799C28.0799 23.5493 23.5926 28.0524 18.0474 28.0779L20.4632 24.6804Z"
        fill="url(#paint1_linear_3903_437540)" />
      <path
        d="M17.7712 7.91992C12.3098 8.04152 7.91992 12.5068 7.91992 17.9974C7.91992 17.9974 10.8799 18.0399 10.8799 17.9974C10.8799 14.8463 12.9269 12.1733 15.7637 11.2356L17.7712 7.91992Z"
        fill="url(#paint2_linear_3903_437540)" />
      <path d="M17.9818 26.2387L23.0431 19.1113L17.9818 22.0982L12.9233 19.1113L17.9818 26.2387Z"
        fill="white" />
      <path opacity="0.1" d="M17.9819 26.2387L23.0432 19.1113L17.9819 22.0982V26.2387Z"
        fill="#4C52F9" />
      <path d="M17.9663 21.1514L23.0527 18.159L17.9663 9.75781L12.8799 18.159L17.9663 21.1514Z"
        fill="url(#paint3_linear_3903_437540)" />
      <path d="M17.9663 21.1514L23.0527 18.159L17.9663 9.75781L12.8799 18.159L17.9663 21.1514Z"
        fill="white" />
      <path opacity="0.1" d="M17.9663 21.1511L12.8799 18.159L17.9663 9.75781L17.9663 21.1511Z"
        fill="#4C52F9" />
      <path opacity="0.1" d="M17.9663 21.1504V15.7734L12.8799 18.158L17.9663 21.1504Z"
        fill="#4C52F9" />
      <path opacity="0.1" d="M17.9663 21.1504V15.7734L23.0527 18.158L17.9663 21.1504Z"
        fill="#4C52F9" />
    </g>
    <path
      d="M24 28C24 25.7909 25.7909 24 28 24H36C38.2091 24 40 25.7909 40 28V36C40 38.2091 38.2091 40 36 40H28C25.7909 40 24 38.2091 24 36V28Z"
      fill="#FF3D00" />
    <path fill-rule="evenodd" clip-rule="evenodd"
      d="M27.75 27.75V31.105L28.9475 32.305V28.95L32.285 28.96L31.0875 27.76L27.75 27.75ZM33.8225 30.435V33.465L32.625 32.265V29.235L33.8225 30.435ZM30.485 33.7775H33.51L32.3125 32.5775H29.2875L30.485 33.7775ZM35.525 35.1525V32.1375L34.3275 30.9375V34.2925L30.99 34.2825L32.1875 35.4825L35.2075 35.4925L35.845 36.13L36.2525 36.1875L36.175 35.7975L35.5275 35.15L35.525 35.1525Z"
      fill="white" />
  </g>
  <defs>
    <linearGradient id="paint0_linear_3903_437540" x1="0" y1="18" x2="36" y2="18"
      gradientUnits="userSpaceOnUse">
      <stop offset="0.25" stop-color="#1A82FF" />
      <stop offset="0.5" stop-color="#7A26F3" />
      <stop offset="0.74" stop-color="#D6453B" />
    </linearGradient>
    <linearGradient id="paint1_linear_3903_437540" x1="11.3633" y1="30.628" x2="22.4646"
      y2="23.3561" gradientUnits="userSpaceOnUse">
      <stop stop-color="#4C52F9" stop-opacity="0.5" />
      <stop offset="1" stop-color="white" />
    </linearGradient>
    <linearGradient id="paint2_linear_3903_437540" x1="23.4399" y1="3.28008" x2="12.8182"
      y2="10.9546" gradientUnits="userSpaceOnUse">
      <stop stop-color="#4C52F9" stop-opacity="0.5" />
      <stop offset="1" stop-color="white" />
    </linearGradient>
    <linearGradient id="paint3_linear_3903_437540" x1="7.14508" y1="12.8001" x2="16.0561"
      y2="18.2381" gradientUnits="userSpaceOnUse">
      <stop stop-color="#1C313F" />
      <stop offset="1" stop-color="white" />
    </linearGradient>
    <clipPath id="clip0_3903_437540">
      <rect width="36" height="36" fill="white" />
    </clipPath>
  </defs>
</svg>
  