<svg viewBox="0 0 40 40" fill="none"
  xmlns="http://www.w3.org/2000/svg">
  <mask id="mask0_3803_21303" style="mask-type:alpha" maskUnits="userSpaceOnUse" x="0" y="0" width="40" height="40">
    <path fill-rule="evenodd" clip-rule="evenodd" d="M28 22H35.4187C35.7249 20.6765 35.8846 19.2971 35.8799 17.8799C35.8467 7.97195 27.7878 -0.0330985 17.8799 0.000102906C7.97195 0.0333044 -0.0330985 8.09218 0.000102906 18.0001C0.0333044 27.908 8.09218 35.9131 18.0001 35.8799C19.3755 35.8753 20.7143 35.716 22 35.4186V28C22 24.6863 24.6863 22 28 22ZM24 28C24 25.7909 25.7909 24 28 24H36C38.2091 24 40 25.7909 40 28V36C40 38.2091 38.2091 40 36 40H28C25.7909 40 24 38.2091 24 36V28Z" fill="white"/>
  </mask>
  <g mask="url(#mask0_3803_21303)">
    <g clip-path="url(#clip0_3803_21303)">
      <path d="M18 36C27.9411 36 36 27.9411 36 18C36 8.05887 27.9411 0 18 0C8.05887 0 0 8.05887 0 18C0 27.9411 8.05887 36 18 36Z" fill="url(#paint0_linear_3803_21303)"/>
      <path opacity="0.2" d="M29.2136 29.1418C35.3647 22.9496 35.3339 12.9373 29.1417 6.78623C22.9495 0.635124 12.9372 0.665931 6.78613 6.85812L29.2136 29.1418Z" fill="white"/>
      <path d="M17.2674 10.9145C17.5082 10.8899 17.7526 10.8773 17.9999 10.8773C21.9322 10.8773 25.1199 14.065 25.1199 17.9973C25.1199 21.0636 23.1815 23.6773 20.4632 24.6796L18.0473 28.0771C23.5926 28.0516 28.0799 23.5485 28.0799 17.9973C28.0799 12.7846 24.1232 8.49608 19.0493 7.97122L17.2674 10.9145Z" fill="white"/>
      <path d="M17.7712 7.9198C12.3098 8.0414 7.91992 12.5067 7.91992 17.9973C7.91992 23.1339 11.7621 27.3732 16.7294 27.9979L18.8102 25.0717C18.5442 25.1018 18.2739 25.1173 17.9999 25.1173C14.0677 25.1173 10.8799 21.9295 10.8799 17.9973C10.8799 14.8462 12.9269 12.1732 15.7637 11.2355L17.7712 7.9198Z" fill="white"/>
      <path d="M20.4632 24.6797C23.1815 23.6773 25.1199 21.0637 25.1199 17.9973H28.0799C28.0799 23.5485 23.5926 28.0517 18.0474 28.0772L20.4632 24.6797Z" fill="url(#paint1_linear_3803_21303)"/>
      <path d="M17.7712 7.9198C12.3098 8.0414 7.91992 12.5067 7.91992 17.9973C7.91992 17.9973 10.8799 18.0398 10.8799 17.9973C10.8799 14.8462 12.9269 12.1732 15.7637 11.2355L17.7712 7.9198Z" fill="url(#paint2_linear_3803_21303)"/>
      <path d="M17.9818 26.2375L23.0431 19.1101L17.9818 22.097L12.9233 19.1101L17.9818 26.2375Z" fill="white"/>
      <path opacity="0.1" d="M17.9819 26.2375L23.0432 19.1101L17.9819 22.097V26.2375Z" fill="#4C52F9"/>
      <path d="M17.9663 21.1511L23.0527 18.1587L17.9663 9.75757L12.8799 18.1587L17.9663 21.1511Z" fill="url(#paint3_linear_3803_21303)"/>
      <path d="M17.9663 21.1511L23.0527 18.1587L17.9663 9.75757L12.8799 18.1587L17.9663 21.1511Z" fill="white"/>
      <path opacity="0.1" d="M17.9663 21.1509L12.8799 18.1587L17.9663 9.75757L17.9663 21.1509Z" fill="#4C52F9"/>
      <path opacity="0.1" d="M17.9663 21.1511V15.7742L12.8799 18.1588L17.9663 21.1511Z" fill="#4C52F9"/>
      <path opacity="0.1" d="M17.9663 21.1511V15.7742L23.0527 18.1588L17.9663 21.1511Z" fill="#4C52F9"/>
    </g>
    <path fill-rule="evenodd" clip-rule="evenodd" d="M28 22H36C39.3137 22 42 24.6863 42 28V36C42 39.3137 39.3137 42 36 42H28C24.6863 42 22 39.3137 22 36V28C22 24.6863 24.6863 22 28 22ZM28 24C25.7909 24 24 25.7909 24 28V36C24 38.2091 25.7909 40 28 40H36C38.2091 40 40 38.2091 40 36V28C40 25.7909 38.2091 24 36 24H28Z" fill="#05FF00"/>
    <path d="M24 28C24 25.7909 25.7909 24 28 24H36C38.2091 24 40 25.7909 40 28V36C40 38.2091 38.2091 40 36 40H28C25.7909 40 24 38.2091 24 36V28Z" fill="#FF0420"/>
    <g clip-path="url(#clip1_3803_21303)">
      <g clip-path="url(#clip2_3803_21303)">
        <path d="M32 40C36.4183 40 40 36.4183 40 32C40 27.5817 36.4183 24 32 24C27.5817 24 24 27.5817 24 32C24 36.4183 27.5817 40 32 40Z" fill="#FF0420"/>
        <path d="M29.6673 34.1248C29.1905 34.1248 28.8001 34.0128 28.4961 33.7888C28.1953 33.5616 28.0449 33.2352 28.0449 32.816C28.0449 32.7264 28.0545 32.6208 28.0737 32.4928C28.1249 32.2048 28.1985 31.8592 28.2945 31.4528C28.5665 30.352 29.2705 29.8016 30.4033 29.8016C30.7105 29.8016 30.9889 29.8528 31.2321 29.9584C31.4753 30.0576 31.6673 30.2112 31.8081 30.416C31.9489 30.6176 32.0193 30.8576 32.0193 31.136C32.0193 31.2192 32.0097 31.3248 31.9905 31.4528C31.9297 31.808 31.8593 32.1568 31.7729 32.4928C31.6321 33.04 31.3921 33.4528 31.0465 33.7248C30.7041 33.9936 30.2433 34.1248 29.6673 34.1248ZM29.7537 33.2608C29.9777 33.2608 30.1665 33.1936 30.3233 33.0624C30.4833 32.9312 30.5985 32.7296 30.6657 32.4544C30.7585 32.0768 30.8289 31.7504 30.8769 31.4688C30.8929 31.3856 30.9025 31.2992 30.9025 31.2096C30.9025 30.8448 30.7137 30.6624 30.3329 30.6624C30.1089 30.6624 29.9169 30.7296 29.7569 30.8608C29.6001 30.992 29.4881 31.1936 29.4209 31.4688C29.3473 31.7376 29.2769 32.064 29.2033 32.4544C29.1873 32.5344 29.1777 32.6176 29.1777 32.7072C29.1745 33.0784 29.3697 33.2608 29.7537 33.2608Z" fill="white"/>
        <path d="M32.2978 34.0672C32.253 34.0672 32.221 34.0544 32.1954 34.0256C32.1762 33.9936 32.1698 33.9584 32.1762 33.9168L33.005 30.0128C33.0114 29.968 33.0338 29.9328 33.0722 29.904C33.1074 29.8752 33.1458 29.8624 33.1874 29.8624H34.7842C35.229 29.8624 35.5842 29.9552 35.853 30.1376C36.125 30.3232 36.2626 30.5888 36.2626 30.9376C36.2626 31.0368 36.2498 31.1424 36.2274 31.2512C36.1282 31.712 35.9266 32.0512 35.6194 32.272C35.3186 32.4928 34.9058 32.6016 34.381 32.6016H33.5714L33.2962 33.9168C33.2866 33.9616 33.2674 33.9968 33.229 34.0256C33.1938 34.0544 33.1554 34.0672 33.1138 34.0672H32.2978ZM34.4226 31.7728C34.5922 31.7728 34.7362 31.728 34.861 31.6352C34.989 31.5424 35.0722 31.4112 35.1138 31.2384C35.1266 31.1712 35.133 31.1104 35.133 31.0592C35.133 30.944 35.0978 30.8544 35.0306 30.7936C34.9634 30.7296 34.845 30.6976 34.6818 30.6976H33.9618L33.7346 31.7728H34.4226Z" fill="white"/>
      </g>
    </g>
  </g>
  <defs>
    <linearGradient id="paint0_linear_3803_21303" x1="0" y1="18" x2="36" y2="18" gradientUnits="userSpaceOnUse">
      <stop offset="0.25" stop-color="#1A82FF"/>
      <stop offset="0.5" stop-color="#7A26F3"/>
      <stop offset="0.74" stop-color="#D6453B"/>
    </linearGradient>
    <linearGradient id="paint1_linear_3803_21303" x1="11.3633" y1="30.6273" x2="22.4646" y2="23.3554" gradientUnits="userSpaceOnUse">
      <stop stop-color="#4C52F9" stop-opacity="0.5"/>
      <stop offset="1" stop-color="white"/>
    </linearGradient>
    <linearGradient id="paint2_linear_3803_21303" x1="23.4399" y1="3.27996" x2="12.8182" y2="10.9545" gradientUnits="userSpaceOnUse">
      <stop stop-color="#4C52F9" stop-opacity="0.5"/>
      <stop offset="1" stop-color="white"/>
    </linearGradient>
    <linearGradient id="paint3_linear_3803_21303" x1="7.14508" y1="12.7998" x2="16.0561" y2="18.2378" gradientUnits="userSpaceOnUse">
      <stop stop-color="#1C313F"/>
      <stop offset="1" stop-color="white"/>
    </linearGradient>
    <clipPath id="clip0_3803_21303">
      <rect width="36" height="36" fill="white"/>
    </clipPath>
    <clipPath id="clip1_3803_21303">
      <rect width="16" height="16" fill="white" transform="translate(24 24)"/>
    </clipPath>
    <clipPath id="clip2_3803_21303">
      <rect width="16" height="16" fill="white" transform="translate(24 24)"/>
    </clipPath>
  </defs>
</svg>
