<svg viewBox="0 0 40 40" fill="none"
  xmlns="http://www.w3.org/2000/svg">
  <mask id="mask0_3803_3077" style="mask-type:alpha" maskUnits="userSpaceOnUse" x="0" y="0" width="40" height="40">
    <path fill-rule="evenodd" clip-rule="evenodd" d="M28 22H35.4187C35.7249 20.6765 35.8846 19.2971 35.8799 17.8799C35.8467 7.97195 27.7878 -0.0330985 17.8799 0.000102906C7.97195 0.0333044 -0.0330985 8.09218 0.000102906 18.0001C0.0333044 27.908 8.09218 35.9131 18.0001 35.8799C19.3755 35.8753 20.7143 35.716 22 35.4186V28C22 24.6863 24.6863 22 28 22ZM24 28C24 25.7909 25.7909 24 28 24H36C38.2091 24 40 25.7909 40 28V36C40 38.2091 38.2091 40 36 40H28C25.7909 40 24 38.2091 24 36V28Z" fill="white"/>
  </mask>
  <g mask="url(#mask0_3803_3077)">
    <g clip-path="url(#clip0_3803_3077)">
      <path d="M18 36C27.9411 36 36 27.9411 36 18C36 8.05887 27.9411 0 18 0C8.05887 0 0 8.05887 0 18C0 27.9411 8.05887 36 18 36Z" fill="url(#paint0_linear_3803_3077)"/>
      <path opacity="0.2" d="M29.2136 29.1418C35.3647 22.9496 35.3339 12.9373 29.1417 6.78623C22.9495 0.635124 12.9372 0.665931 6.78613 6.85812L29.2136 29.1418Z" fill="white"/>
      <path d="M17.2674 10.9145C17.5082 10.8899 17.7526 10.8773 17.9999 10.8773C21.9322 10.8773 25.1199 14.065 25.1199 17.9973C25.1199 21.0636 23.1815 23.6773 20.4632 24.6796L18.0473 28.0771C23.5926 28.0516 28.0799 23.5485 28.0799 17.9973C28.0799 12.7846 24.1232 8.49608 19.0493 7.97122L17.2674 10.9145Z" fill="white"/>
      <path d="M17.7712 7.9198C12.3098 8.0414 7.91992 12.5067 7.91992 17.9973C7.91992 23.1339 11.7621 27.3732 16.7294 27.9979L18.8102 25.0717C18.5442 25.1018 18.2739 25.1173 17.9999 25.1173C14.0677 25.1173 10.8799 21.9295 10.8799 17.9973C10.8799 14.8462 12.9269 12.1732 15.7637 11.2355L17.7712 7.9198Z" fill="white"/>
      <path d="M20.4632 24.6797C23.1815 23.6773 25.1199 21.0637 25.1199 17.9973H28.0799C28.0799 23.5485 23.5926 28.0517 18.0474 28.0772L20.4632 24.6797Z" fill="url(#paint1_linear_3803_3077)"/>
      <path d="M17.7712 7.9198C12.3098 8.0414 7.91992 12.5067 7.91992 17.9973C7.91992 17.9973 10.8799 18.0398 10.8799 17.9973C10.8799 14.8462 12.9269 12.1732 15.7637 11.2355L17.7712 7.9198Z" fill="url(#paint2_linear_3803_3077)"/>
      <path d="M17.9818 26.2375L23.0431 19.1101L17.9818 22.097L12.9233 19.1101L17.9818 26.2375Z" fill="white"/>
      <path opacity="0.1" d="M17.9819 26.2375L23.0432 19.1101L17.9819 22.097V26.2375Z" fill="#4C52F9"/>
      <path d="M17.9663 21.1511L23.0527 18.1587L17.9663 9.75757L12.8799 18.1587L17.9663 21.1511Z" fill="url(#paint3_linear_3803_3077)"/>
      <path d="M17.9663 21.1511L23.0527 18.1587L17.9663 9.75757L12.8799 18.1587L17.9663 21.1511Z" fill="white"/>
      <path opacity="0.1" d="M17.9663 21.1509L12.8799 18.1587L17.9663 9.75757L17.9663 21.1509Z" fill="#4C52F9"/>
      <path opacity="0.1" d="M17.9663 21.1511V15.7742L12.8799 18.1588L17.9663 21.1511Z" fill="#4C52F9"/>
      <path opacity="0.1" d="M17.9663 21.1511V15.7742L23.0527 18.1588L17.9663 21.1511Z" fill="#4C52F9"/>
    </g>
    <path d="M24 28C24 25.7909 25.7909 24 28 24H36C38.2091 24 40 25.7909 40 28V36C40 38.2091 38.2091 40 36 40H28C25.7909 40 24 38.2091 24 36V28Z" fill="#0052FF"/>
    <path d="M31.0239 24.0467C31.0933 24.0387 31.24 24.024 31.3507 24.0133C31.4868 24.0027 31.7176 23.9973 32.0711 24.0013C32.434 24.004 32.6515 24.012 32.7915 24.0267C32.9009 24.0387 33.0904 24.064 33.2118 24.0827C33.3332 24.1014 33.5186 24.1347 33.6253 24.1561C33.7321 24.1787 33.9122 24.2201 34.0256 24.2494C34.139 24.2788 34.3644 24.3468 34.5258 24.4015C34.6873 24.4549 34.9007 24.5322 34.9994 24.5722C35.0982 24.6123 35.2729 24.6883 35.3863 24.7403C35.4997 24.7937 35.6771 24.8817 35.7799 24.9377C35.8826 24.9938 36.0413 25.0831 36.1334 25.1392C36.2254 25.1939 36.3842 25.2952 36.4869 25.3659C36.5896 25.4353 36.7311 25.5353 36.8004 25.5874C36.8698 25.6394 36.9992 25.7408 37.0873 25.8128C37.1753 25.8848 37.3407 26.0302 37.4541 26.1343C37.5675 26.2383 37.749 26.4197 37.857 26.5371C37.9651 26.6532 38.1172 26.8266 38.1945 26.9226C38.2732 27.0187 38.3893 27.1681 38.4533 27.2561C38.5174 27.3441 38.6121 27.4789 38.6641 27.5562C38.7148 27.6336 38.7989 27.7657 38.8509 27.8497C38.9016 27.9337 38.9923 28.0925 39.0523 28.2032C39.1124 28.3126 39.2071 28.502 39.2631 28.6234C39.3178 28.7448 39.4019 28.9395 39.4486 29.0569C39.4953 29.1743 39.5686 29.3811 39.6127 29.5171C39.6567 29.6532 39.714 29.8453 39.7407 29.944C39.7674 30.0427 39.8061 30.2094 39.8288 30.3135C39.8501 30.4188 39.8835 30.5923 39.9008 30.7003C39.9195 30.8097 39.9435 30.9764 39.9542 31.0711C39.9648 31.1658 39.9809 31.3406 39.9902 31.458C39.9995 31.5927 40.0022 31.8421 39.9982 32.1316C39.9942 32.4144 39.9835 32.6692 39.9702 32.7919C39.9582 32.9013 39.9328 33.0907 39.9142 33.2121C39.8955 33.3335 39.8595 33.5336 39.8328 33.659C39.8074 33.7843 39.7621 33.9724 39.7327 34.0791C39.7047 34.1859 39.6393 34.3953 39.5886 34.546C39.5393 34.6967 39.4646 34.9008 39.4245 34.9995C39.3845 35.0983 39.3085 35.273 39.2565 35.3864C39.2031 35.4998 39.115 35.6772 39.059 35.7799C39.003 35.8826 38.9136 36.0413 38.8576 36.1334C38.8029 36.2254 38.7015 36.3842 38.6308 36.4869C38.5614 36.5896 38.4547 36.7403 38.3946 36.8204C38.3333 36.9004 38.2279 37.0338 38.1612 37.1138C38.0945 37.1939 37.9637 37.3446 37.8704 37.446C37.777 37.5487 37.6049 37.7208 37.4875 37.8315C37.3701 37.9409 37.1846 38.1036 37.0766 38.1916C36.9672 38.281 36.7858 38.4211 36.6737 38.5011C36.5603 38.5811 36.3909 38.6972 36.2975 38.7559C36.2041 38.8159 36.052 38.908 35.96 38.96C35.8679 39.0133 35.6798 39.112 35.5397 39.1814C35.3997 39.2494 35.1902 39.3468 35.0728 39.3948C34.9554 39.4442 34.7179 39.5309 34.5458 39.5883C34.3737 39.6456 34.139 39.7176 34.0256 39.747C33.9122 39.7763 33.7134 39.8217 33.5853 39.8484C33.4572 39.8737 33.2705 39.9071 33.1717 39.9204C33.073 39.9351 32.9049 39.9578 32.7982 39.9698C32.6728 39.9831 32.4353 39.9938 32.1245 39.9978C31.751 40.0031 31.5842 39.9991 31.3774 39.9831C31.2307 39.9711 31.0052 39.9457 30.8771 39.9284C30.7491 39.9097 30.5383 39.8737 30.4102 39.847C30.2821 39.8217 30.0834 39.7763 29.97 39.747C29.8566 39.7176 29.6311 39.6496 29.4697 39.5949C29.3083 39.5416 29.0948 39.4642 28.9961 39.4242C28.8974 39.3842 28.7226 39.3081 28.6092 39.2561C28.4958 39.2028 28.3184 39.1147 28.2157 39.0587C28.1129 39.0027 27.9542 38.9133 27.8621 38.8573C27.7701 38.8026 27.6113 38.7012 27.5086 38.6305C27.4059 38.5611 27.2645 38.4611 27.1951 38.4091C27.1257 38.357 26.9963 38.2557 26.9083 38.1836C26.8202 38.1116 26.6615 37.9729 26.5561 37.8768C26.4507 37.7795 26.2746 37.6047 26.1652 37.4873C26.0545 37.3699 25.8917 37.1845 25.8037 37.0765C25.7143 36.9671 25.5742 36.7857 25.4942 36.6736C25.4141 36.5602 25.2981 36.3908 25.2394 36.2975C25.1793 36.2041 25.0873 36.052 25.0352 35.96C24.9819 35.8679 24.8832 35.6799 24.8138 35.5398C24.7457 35.3997 24.6484 35.1903 24.6003 35.0729C24.551 34.9555 24.4683 34.7301 24.4149 34.5727C24.3615 34.4153 24.2895 34.1805 24.2561 34.0525C24.2215 33.9244 24.1734 33.7176 24.1481 33.5923C24.1227 33.4669 24.0894 33.2815 24.0747 33.1787C24.06 33.076 24.0374 32.8986 24.024 32.7852C24.0053 32.6198 24.0013 32.4638 24 32.0049C24 31.5473 24.0053 31.3873 24.024 31.2179C24.0374 31.1005 24.0627 30.9057 24.0814 30.7843C24.1001 30.663 24.1334 30.4775 24.1548 30.3708C24.1774 30.2641 24.2188 30.084 24.2481 29.9706C24.2775 29.8573 24.3455 29.6318 24.4002 29.4704C24.4536 29.309 24.531 29.0956 24.571 28.9969C24.611 28.8982 24.687 28.7234 24.7391 28.61C24.7924 28.4967 24.8805 28.3192 24.9365 28.2165C24.9926 28.1138 25.0819 27.9551 25.138 27.863C25.1927 27.771 25.2941 27.6123 25.3648 27.5096C25.4341 27.4068 25.5342 27.2654 25.5862 27.1961C25.6382 27.1267 25.7396 26.9973 25.8117 26.9093C25.8837 26.8212 26.0225 26.6625 26.1185 26.5571C26.2159 26.4518 26.3907 26.2757 26.5081 26.1663C26.6255 26.0556 26.8109 25.8928 26.919 25.8048C27.0283 25.7154 27.2098 25.5754 27.3218 25.4953C27.4352 25.4153 27.6047 25.2992 27.698 25.2405C27.7914 25.1805 27.9435 25.0885 28.0356 25.0365C28.1276 24.9831 28.3171 24.8844 28.4558 24.815C28.5945 24.747 28.8053 24.6496 28.9227 24.6016C29.0401 24.5522 29.2776 24.4655 29.4497 24.4082C29.6218 24.3508 29.8446 24.2815 29.9433 24.2561C30.042 24.2294 30.2088 24.1907 30.3142 24.1681C30.4182 24.1467 30.5917 24.1134 30.6997 24.096C30.8091 24.0774 30.9545 24.056 31.0239 24.0467Z" fill="#0052FF"/>
    <path d="M31.3573 26.3957C31.4347 26.3864 31.5814 26.3757 31.6841 26.3704C31.7869 26.3637 31.9043 26.3584 31.9443 26.3584C31.9843 26.357 32.1257 26.3624 32.2578 26.369C32.3899 26.377 32.5726 26.3917 32.6647 26.4037C32.7567 26.4144 32.9128 26.4397 33.0115 26.4571C33.1103 26.4757 33.281 26.5131 33.3918 26.5424C33.5012 26.5705 33.6666 26.6185 33.7586 26.6492C33.8507 26.6798 34.0068 26.7372 34.1055 26.7785C34.2042 26.8186 34.379 26.8973 34.4924 26.9546C34.6058 27.0106 34.7765 27.1054 34.8726 27.1627C34.9673 27.2201 35.094 27.3001 35.1527 27.3401C35.2114 27.3815 35.3075 27.4508 35.3662 27.4949C35.4249 27.5389 35.5263 27.6203 35.593 27.6749C35.6597 27.731 35.7704 27.8297 35.8398 27.895C35.9092 27.9617 36.0292 28.0818 36.1053 28.1632C36.1813 28.2432 36.3067 28.3886 36.3828 28.4833C36.4601 28.578 36.5815 28.7434 36.6522 28.8501C36.7243 28.9568 36.8217 29.1089 36.8684 29.1903C36.9137 29.2717 37.0018 29.4384 37.0618 29.5638C37.1218 29.6892 37.2045 29.8773 37.2446 29.984C37.2859 30.0907 37.3406 30.2494 37.3673 30.3375C37.394 30.4255 37.4327 30.5696 37.454 30.6576C37.4754 30.7456 37.5087 30.899 37.5261 30.9978C37.5447 31.0965 37.5701 31.2645 37.5834 31.3713C37.6021 31.5207 37.6074 31.6621 37.6074 31.9982C37.6074 32.3343 37.6021 32.4757 37.5834 32.6251C37.5701 32.7319 37.5447 32.8999 37.5261 32.9986C37.5087 33.0974 37.4727 33.2654 37.446 33.3721C37.4193 33.4789 37.366 33.6616 37.3273 33.779C37.2886 33.8964 37.2192 34.0791 37.1739 34.1858C37.1298 34.2926 37.0431 34.4753 36.9817 34.5927C36.9217 34.7101 36.831 34.8728 36.7803 34.9528C36.7296 35.0329 36.6429 35.1663 36.5855 35.2463C36.5282 35.3263 36.4361 35.4504 36.3801 35.5198C36.3241 35.5891 36.2147 35.7185 36.1359 35.8052C36.0572 35.8919 35.9238 36.028 35.8398 36.1054C35.7544 36.1827 35.6223 36.2988 35.5463 36.3615C35.4689 36.4242 35.3435 36.5215 35.2661 36.5762C35.1888 36.6323 35.0594 36.719 34.9793 36.771C34.8993 36.8217 34.7485 36.9097 34.6458 36.9644C34.5431 37.0204 34.375 37.1031 34.2722 37.1485C34.1695 37.1938 34.0134 37.2565 33.9254 37.2899C33.8373 37.3219 33.6746 37.3753 33.5652 37.4073C33.4545 37.4393 33.293 37.4806 33.205 37.5006C33.1169 37.5207 32.9515 37.55 32.8381 37.5673C32.7247 37.5847 32.5566 37.606 32.4646 37.6154C32.3725 37.6234 32.1537 37.63 31.9776 37.63C31.8015 37.63 31.5828 37.6234 31.4907 37.6154C31.3987 37.606 31.2279 37.5847 31.1105 37.566C30.9931 37.5487 30.8037 37.5127 30.6903 37.486C30.5769 37.4593 30.3688 37.4006 30.23 37.3552C30.0899 37.3086 29.9018 37.2392 29.8098 37.2005C29.7177 37.1632 29.5443 37.0805 29.4229 37.0204C29.3015 36.9591 29.1187 36.8564 29.016 36.7937C28.9133 36.7296 28.7665 36.6323 28.6892 36.5762C28.6118 36.5202 28.4917 36.4282 28.4223 36.3708C28.353 36.3148 28.2276 36.2067 28.1449 36.1307C28.0635 36.0547 27.9314 35.9239 27.854 35.8399C27.7766 35.7559 27.6579 35.6171 27.5899 35.5331C27.5218 35.4491 27.4178 35.3103 27.3577 35.2263C27.2991 35.1423 27.2017 34.9915 27.1416 34.8928C27.0816 34.7941 26.9869 34.6194 26.9295 34.506C26.8735 34.3926 26.7894 34.2058 26.7454 34.0925C26.7001 33.9791 26.6387 33.807 26.608 33.7123C26.5773 33.6176 26.532 33.4575 26.5079 33.3588C26.4839 33.2601 26.4492 33.092 26.4292 32.9853C26.4106 32.8786 26.3865 32.7199 26.3599 32.4717L34.7192 32.4651V31.5313H26.3612L26.3719 31.4086C26.3785 31.3406 26.3972 31.1952 26.4159 31.0845C26.4346 30.9751 26.4719 30.7883 26.4999 30.6709C26.5293 30.5536 26.5773 30.3788 26.608 30.2841C26.6387 30.1894 26.6974 30.0267 26.7374 29.9239C26.7774 29.8212 26.8575 29.6412 26.9148 29.5238C26.9722 29.4064 27.0749 29.217 27.1443 29.1036C27.2123 28.9902 27.3137 28.8341 27.3684 28.7568C27.4231 28.6794 27.5272 28.542 27.6006 28.45C27.6739 28.3579 27.854 28.1632 28.0008 28.0151C28.1489 27.8684 28.3503 27.6829 28.449 27.6042C28.5477 27.5242 28.7305 27.3922 28.8559 27.3094C28.9813 27.2281 29.1307 27.1334 29.1894 27.1C29.2481 27.0667 29.3695 27.0026 29.4602 26.9573C29.5496 26.9133 29.703 26.8426 29.7991 26.8012C29.8965 26.7599 30.0819 26.6905 30.21 26.6478C30.3381 26.6065 30.5302 26.5504 30.6369 26.5238C30.7436 26.4971 30.9171 26.4611 31.0238 26.4437C31.1305 26.4251 31.2799 26.4037 31.3573 26.3957Z" fill="white"/>
  </g>
  <defs>
    <linearGradient id="paint0_linear_3803_3077" x1="0" y1="18" x2="36" y2="18" gradientUnits="userSpaceOnUse">
      <stop offset="0.25" stop-color="#1A82FF"/>
      <stop offset="0.5" stop-color="#7A26F3"/>
      <stop offset="0.74" stop-color="#D6453B"/>
    </linearGradient>
    <linearGradient id="paint1_linear_3803_3077" x1="11.3633" y1="30.6273" x2="22.4646" y2="23.3554" gradientUnits="userSpaceOnUse">
      <stop stop-color="#4C52F9" stop-opacity="0.5"/>
      <stop offset="1" stop-color="white"/>
    </linearGradient>
    <linearGradient id="paint2_linear_3803_3077" x1="23.4399" y1="3.27996" x2="12.8182" y2="10.9545" gradientUnits="userSpaceOnUse">
      <stop stop-color="#4C52F9" stop-opacity="0.5"/>
      <stop offset="1" stop-color="white"/>
    </linearGradient>
    <linearGradient id="paint3_linear_3803_3077" x1="7.14508" y1="12.7998" x2="16.0561" y2="18.2378" gradientUnits="userSpaceOnUse">
      <stop stop-color="#1C313F"/>
      <stop offset="1" stop-color="white"/>
    </linearGradient>
    <clipPath id="clip0_3803_3077">
      <rect width="36" height="36" fill="white"/>
    </clipPath>
  </defs>
</svg>
