<svg viewBox="0 0 33 32" fill="none"
  xmlns="http://www.w3.org/2000/svg">
  <path d="M17.6803 0.500093L17.6805 0.500092C25.5602 0.47205 31.9715 6.83755 31.9995 14.7211C32.0276 22.6044 25.6585 29.0157 17.7749 29.0438L17.7744 29.0438C16.4232 29.0499 15.1152 28.8659 13.8758 28.52C14.2204 27.6472 14.4091 26.697 14.4091 25.7052C14.4091 21.4672 10.9635 18.0216 6.72545 18.0216C5.74849 18.0216 4.81375 18.2067 3.95447 18.5395C3.63038 17.3545 3.45527 16.1086 3.45222 14.8197L3.45222 14.8193C3.42768 6.93578 9.7969 0.52463 17.6803 0.500093ZM17.6787" fill="#030C17" stroke="#FAFBFB"/>
  <path opacity="0.2" d="M26.9602 23.9447C32.0251 18.8435 31.9997 10.6041 26.8985 5.53928C21.7974 0.47444 13.558 0.499837 8.49316 5.60095L26.9602 23.9447Z" fill="white"/>
  <path d="M25.7116 10.3735L24.0318 8.67918L23.1175 9.60798C23.1139 9.60435 23.1102 9.60072 23.1066 9.59709L22.3628 10.3481L17.7878 14.9848L14.8926 12.0497C14.2939 12.6737 13.8985 13.4937 13.8114 14.4007L17.7878 18.4315L22.2867 13.871C22.3447 14.1613 22.3737 14.4624 22.3737 14.7708C22.3737 17.3322 20.2876 19.4184 17.7261 19.4184C15.1647 19.4184 13.0785 17.3322 13.0785 14.7708C13.0785 12.2093 15.1647 10.1232 17.7261 10.1232C18.7783 10.1232 19.7506 10.4751 20.5307 11.0665L22.5225 9.04562C21.2236 7.95719 19.5511 7.29688 17.7261 7.29688C13.6082 7.29688 10.2559 10.6492 10.2559 14.7671C10.2559 18.8887 13.6082 22.2374 17.7261 22.2374C21.844 22.2374 25.1964 18.885 25.1964 14.7671C25.1964 13.6352 24.9424 12.5649 24.4925 11.6034L25.7116 10.3735Z" fill="white"/>
  <path d="M17.7882 18.4287L13.8154 14.3979C13.9025 13.4872 14.298 12.6709 14.8966 12.0469L17.7918 14.982V18.4287H17.7882Z" fill="url(#paint0_linear_2290_34588)"/>
  <path d="M6.72583 19.4766C3.29364 19.4766 0.5 22.2702 0.5 25.7024C0.5 29.1346 3.29364 31.9282 6.72583 31.9282C10.158 31.9282 12.9517 29.1346 12.9517 25.7024C12.9517 22.2702 10.1616 19.4766 6.72583 19.4766Z" fill="#00C483"/>
  <path d="M3.79419 23.5156L4.79192 26.8426L5.7824 23.5156H7.39327L5.76426 28.3519H3.80508L2.17969 23.5156H3.79419Z" fill="white"/>
  <path d="M9.24757 24.7165V25.3188H10.7532V26.458H9.2512V27.1401H10.96V28.3519H7.73828V23.5156H10.96V24.7165H9.24757Z" fill="white"/>
  <defs>
    <linearGradient id="paint0_linear_2290_34588" x1="12.8182" y1="12.0785" x2="16.3764" y2="15.2699" gradientUnits="userSpaceOnUse">
      <stop stop-color="#1D313F"/>
      <stop offset="1" stop-color="white"/>
    </linearGradient>
  </defs>
</svg>
