<svg viewBox="0 0 40 40" fill="none"
  xmlns="http://www.w3.org/2000/svg">
  <circle cx="20" cy="20" r="20" fill="#797C8F"/>
  <path fill-rule="evenodd" clip-rule="evenodd" d="M16.0767 7.14071C21.8258 12.86 29.0593 16.6486 36.9938 18.0814C36.0396 9.59964 28.8119 3 20.0292 3C17.7084 3 15.4994 3.46143 13.479 4.29321C14.2978 5.27679 15.1755 6.23607 16.0767 7.14071ZM6.54018 30.4246C4.53271 27.8579 3.2548 24.7091 3.00045 21.275H24.2116C20.7009 22.2282 17.4435 23.4425 14.6101 24.8511C11.3763 26.46 8.6961 28.3057 6.63443 30.3336L6.54018 30.4246ZM3.00045 21.275H3V21.2689L3.00045 21.275ZM8.40166 32.155C11.7298 28.8643 17.043 26.0532 23.4695 24.1225H23.4754C20.1178 26.0046 17.0018 28.3543 14.2804 31.0621C13.2672 32.07 12.2894 33.1386 11.3822 34.2496L11.1584 34.5229C10.1099 33.8854 9.13797 33.1386 8.25439 32.3007L8.40166 32.155ZM8.40166 7.83896C11.7298 11.1357 17.043 13.9468 23.4695 15.8775C20.1178 13.9893 17.0018 11.6457 14.2745 8.93789C13.2613 7.93003 12.2894 6.86146 11.3763 5.75039L11.1525 5.47717C10.104 6.11467 9.13208 6.86146 8.25439 7.69932L8.40166 7.84503V7.83896ZM16.0767 32.8593C15.1696 33.7579 14.2978 34.7172 13.479 35.7068C15.4935 36.5386 17.7084 37 20.0292 37C28.8119 37 36.0395 30.4004 36.9997 21.9125C29.0652 23.3454 21.8317 27.134 16.0826 32.8533L16.0767 32.8593ZM14.6101 15.155C11.3763 13.5461 8.6961 11.7003 6.63443 9.67249L6.54018 9.58142C4.53153 12.1436 3.25329 15.2946 3 18.7311H24.2057C20.695 17.7778 17.4435 16.5636 14.6042 15.1489L14.6101 15.155Z" fill="white"/>
</svg>
