<svg viewBox="0 0 40 40" fill="none"
  xmlns="http://www.w3.org/2000/svg">
  <mask id="mask0_3835_7887" style="mask-type:alpha" maskUnits="userSpaceOnUse" x="0" y="0"
    width="40" height="40">
    <path fill-rule="evenodd" clip-rule="evenodd"
      d="M28 22H35.4187C35.7249 20.6765 35.8846 19.2971 35.8799 17.8799C35.8467 7.97195 27.7878 -0.0330985 17.8799 0.000102906C7.97195 0.0333044 -0.0330985 8.09218 0.000102906 18.0001C0.0333044 27.908 8.09218 35.9131 18.0001 35.8799C19.3755 35.8753 20.7143 35.716 22 35.4186V28C22 24.6863 24.6863 22 28 22ZM24 28C24 25.7909 25.7909 24 28 24H36C38.2091 24 40 25.7909 40 28V36C40 38.2091 38.2091 40 36 40H28C25.7909 40 24 38.2091 24 36V28Z"
      fill="white" />
  </mask>
  <g mask="url(#mask0_3835_7887)">
    <path
      d="M18.0601 35.9399C27.968 35.9067 35.9731 27.8478 35.9399 17.9399C35.9067 8.03197 27.8478 0.0269213 17.9399 0.0601227C8.03196 0.0933242 0.0269151 8.1522 0.0601165 18.0601C0.093318 27.968 8.15219 35.9731 18.0601 35.9399Z"
      fill="url(#paint0_linear_3835_7887)" />
    <path
      d="M18.0469 33.8316C14.687 33.8316 11.3405 32.7372 8.62553 30.7502L9.4601 29.6137C11.935 31.4249 14.9848 32.4225 18.0469 32.4225C19.4729 32.4225 20.8876 32.2106 22.2517 31.7931L22.6659 33.1404C21.1678 33.5991 19.6141 33.8316 18.048 33.8316H18.0469ZM24.3021 32.5398L23.7437 31.2459C23.8261 31.2109 23.9075 31.1749 23.9889 31.1379C28.0845 29.2866 31.0343 25.7095 32.0822 21.325L33.4546 21.6521C32.3058 26.4634 29.0674 30.3881 24.57 32.4215C24.4804 32.4616 24.3907 32.5017 24.3021 32.5398ZM7.27681 29.6445C5.70555 28.2036 4.45884 26.4829 3.57275 24.5298C2.63514 22.4635 2.16016 20.2728 2.16016 18.0184C2.16016 17.4619 2.19004 16.8983 2.2498 16.344L3.65312 16.4931C3.59954 16.9981 3.57172 17.5113 3.57172 18.0184C3.57172 20.0712 4.00446 22.0665 4.85861 23.9487C5.6664 25.728 6.8008 27.2954 8.23194 28.6068L7.27681 29.6445ZM33.7658 19.9386L32.3655 19.7637C32.4397 19.1713 32.4778 18.5696 32.4778 17.9731C32.4778 15.9202 32.0451 13.9249 31.191 12.0428C30.4213 10.3478 29.3528 8.84208 28.0134 7.56674L28.9871 6.5475C30.4584 7.94728 31.6319 9.60111 32.4768 11.4617C33.4144 13.5279 33.8894 15.7186 33.8894 17.9731C33.8894 18.6272 33.8482 19.2886 33.7668 19.9386H33.7658ZM3.90761 14.9277L2.52902 14.6264C3.04728 12.266 4.11368 10.0207 5.61488 8.13344C7.18924 6.15358 9.1613 4.61906 11.4785 3.57102C11.6568 3.48976 11.8381 3.41263 12.0174 3.3396L12.5521 4.64271C12.3883 4.70956 12.2235 4.78053 12.0607 4.85458C9.95054 5.80903 8.15363 7.20677 6.72043 9.00973C5.35317 10.7294 4.38053 12.7761 3.90761 14.9287V14.9277ZM26.8027 6.53721C24.2867 4.62317 21.1606 3.56896 18.0016 3.56896C16.6663 3.56896 15.3371 3.75512 14.0533 4.12229L13.6649 2.76776C15.0754 2.36458 16.5344 2.15991 18.0016 2.15991C21.4677 2.15991 24.8966 3.31698 27.6579 5.41614L26.8027 6.53618V6.53721Z"
      fill="white" />
    <path opacity="0.2"
      d="M29.2136 29.1418C35.3647 22.9496 35.3339 12.9373 29.1417 6.78623C22.9495 0.635124 12.9372 0.665931 6.78613 6.85812L29.2136 29.1418Z"
      fill="white" />
    <path
      d="M17.2674 10.9145C17.5082 10.8899 17.7526 10.8773 17.9999 10.8773C21.9322 10.8773 25.1199 14.065 25.1199 17.9973C25.1199 21.0636 23.1815 23.6773 20.4632 24.6796L18.0473 28.0771C23.5926 28.0516 28.0799 23.5485 28.0799 17.9973C28.0799 12.7846 24.1232 8.49608 19.0493 7.97122L17.2674 10.9145Z"
      fill="white" />
    <path
      d="M17.7712 7.9198C12.3098 8.0414 7.91992 12.5067 7.91992 17.9973C7.91992 23.1339 11.7621 27.3732 16.7294 27.9979L18.8102 25.0717C18.5442 25.1018 18.2739 25.1173 17.9999 25.1173C14.0677 25.1173 10.8799 21.9295 10.8799 17.9973C10.8799 14.8462 12.9269 12.1732 15.7637 11.2355L17.7712 7.9198Z"
      fill="white" />
    <path
      d="M20.4632 24.6797C23.1815 23.6773 25.1199 21.0637 25.1199 17.9973H28.0799C28.0799 23.5485 23.5926 28.0517 18.0474 28.0772L20.4632 24.6797Z"
      fill="url(#paint1_linear_3835_7887)" />
    <path
      d="M17.7712 7.9198C12.3098 8.0414 7.91992 12.5067 7.91992 17.9973C7.91992 17.9973 10.8799 18.0398 10.8799 17.9973C10.8799 14.8462 12.9269 12.1732 15.7637 11.2355L17.7712 7.9198Z"
      fill="url(#paint2_linear_3835_7887)" />
    <path d="M17.9818 26.2375L23.0431 19.1101L17.9818 22.097L12.9233 19.1101L17.9818 26.2375Z"
      fill="white" />
    <path opacity="0.1" d="M17.9819 26.2375L23.0432 19.1101L17.9819 22.097V26.2375Z" fill="#4C52F9" />
    <path d="M17.9663 21.1511L23.0527 18.1587L17.9663 9.75757L12.8799 18.1587L17.9663 21.1511Z"
      fill="url(#paint3_linear_3835_7887)" />
    <path d="M17.9663 21.1511L23.0527 18.1587L17.9663 9.75757L12.8799 18.1587L17.9663 21.1511Z"
      fill="white" />
    <path opacity="0.1" d="M17.9663 21.1509L12.8799 18.1587L17.9663 9.75757L17.9663 21.1509Z"
      fill="#4C52F9" />
    <path opacity="0.1" d="M17.9663 21.1511V15.7742L12.8799 18.1588L17.9663 21.1511Z" fill="#4C52F9" />
    <path opacity="0.1" d="M17.9663 21.1511V15.7742L23.0527 18.1588L17.9663 21.1511Z" fill="#4C52F9" />
    <path
      d="M24 28C24 25.7909 25.7909 24 28 24H36C38.2091 24 40 25.7909 40 28V36C40 38.2091 38.2091 40 36 40H28C25.7909 40 24 38.2091 24 36V28Z"
      fill="#FF3D00" />
    <path fill-rule="evenodd" clip-rule="evenodd"
      d="M27.75 27.75V31.105L28.9475 32.305V28.95L32.285 28.96L31.0875 27.76L27.75 27.75ZM33.8225 30.435V33.465L32.625 32.265V29.235L33.8225 30.435ZM30.485 33.7775H33.51L32.3125 32.5775H29.2875L30.485 33.7775ZM35.525 35.1525V32.1375L34.3275 30.9375V34.2925L30.99 34.2825L32.1875 35.4825L35.2075 35.4925L35.845 36.13L36.2525 36.1875L36.175 35.7975L35.5275 35.15L35.525 35.1525Z"
      fill="white" />
  </g>
  <defs>
    <linearGradient id="paint0_linear_3835_7887" x1="0.0601165" y1="18.0601" x2="35.9399"
      y2="17.9399" gradientUnits="userSpaceOnUse">
      <stop offset="0.25" stop-color="#1A82FF" />
      <stop offset="0.5" stop-color="#7A26F3" />
      <stop offset="0.74" stop-color="#D6453B" />
    </linearGradient>
    <linearGradient id="paint1_linear_3835_7887" x1="11.3633" y1="30.6273" x2="22.4646" y2="23.3554"
      gradientUnits="userSpaceOnUse">
      <stop stop-color="#4C52F9" stop-opacity="0.5" />
      <stop offset="1" stop-color="white" />
    </linearGradient>
    <linearGradient id="paint2_linear_3835_7887" x1="23.4399" y1="3.27996" x2="12.8182" y2="10.9545"
      gradientUnits="userSpaceOnUse">
      <stop stop-color="#4C52F9" stop-opacity="0.5" />
      <stop offset="1" stop-color="white" />
    </linearGradient>
    <linearGradient id="paint3_linear_3835_7887" x1="7.14508" y1="12.7998" x2="16.0561" y2="18.2378"
      gradientUnits="userSpaceOnUse">
      <stop stop-color="#1C313F" />
      <stop offset="1" stop-color="white" />
    </linearGradient>
  </defs>
</svg>