<svg viewBox="0 0 25 24" fill="none"
  xmlns="http://www.w3.org/2000/svg">
  <g clip-path="url(#clip0_2257_61529)">
    <path fill-rule="evenodd" clip-rule="evenodd" d="M12.5 0C19.1278 0 24.5 5.37267 24.5 12C24.5 18.6278 19.1278 24 12.5 24C5.87313 24 0.5 18.6278 0.5 12C0.5 5.37313 5.87267 0 12.5 0Z" fill="#FFFFFF"/>
    <path fill-rule="evenodd" clip-rule="evenodd" d="M15.8821 10.5502C15.9703 10.991 16.0167 11.4744 16.0167 11.9964C16.0167 14.8072 14.698 16.4854 12.4895 16.4854C11.5685 16.4854 10.7913 16.1903 10.2053 15.628L17.8935 7.92965C17.6874 7.5645 17.4527 7.22301 17.1882 6.91122C17.0769 6.78038 16.9599 6.65742 16.8407 6.53865L16.8416 6.53725C16.8258 6.52194 16.8091 6.5071 16.7938 6.49178C16.7581 6.45699 16.7242 6.4208 16.688 6.38739L16.6857 6.38878C15.5699 5.34669 14.1343 4.79688 12.4895 4.79688C10.5886 4.79688 8.96699 5.5281 7.80055 6.91122C6.70371 8.21221 6.09961 10.0185 6.09961 11.9964C6.09961 13.3113 6.36779 14.5483 6.86842 15.6126L9.09922 13.3791C9.02174 12.9559 8.9823 12.4947 8.9823 11.9964C8.9823 10.7028 9.24538 9.65657 9.7641 8.8873C10.3719 7.98486 11.3147 7.50743 12.4895 7.50743C13.404 7.50743 14.1654 7.79649 14.7444 8.33331L7.07164 16.0168C7.28275 16.4 7.52634 16.7568 7.80009 17.0821C7.8553 17.147 7.91191 17.2097 7.96897 17.2718L7.97037 17.2732C8.03625 17.3451 8.10353 17.4147 8.17173 17.4825L8.19772 17.5085C8.21952 17.5298 8.2404 17.5525 8.26267 17.5734L8.26499 17.5716C9.38179 18.6355 10.828 19.1969 12.489 19.1969C14.3914 19.1969 16.0157 18.4656 17.1877 17.0821C18.2906 15.7797 18.8984 13.9734 18.8984 11.9969C18.8984 10.662 18.62 9.40603 18.1004 8.32913L15.8816 10.5507L15.8821 10.5502Z" fill="#0074F0"/>
  </g>
  <defs>
    <clipPath id="clip0_2257_61529">
      <rect width="24" height="24" fill="white" transform="translate(0.5)"/>
    </clipPath>
  </defs>
</svg>
