<svg viewBox="0 0 25 25" fill="none"
  xmlns="http://www.w3.org/2000/svg">
  <g clip-path="url(#clip0_695_47486)">
    <path d="M12.5 1C18.8516 1 24 6.1488 24 12.5C24 18.8517 18.8517 24 12.5 24C6.14925 24 1 18.8516 1 12.5C1 6.14926 6.14883 1 12.5 1Z" fill="white" stroke="#E5E5E7"/>
    <path fill-rule="evenodd" clip-rule="evenodd" d="M15.8821 11.0541C15.9703 11.4949 16.0167 11.9783 16.0167 12.5003C16.0167 15.3111 14.698 16.9893 12.4895 16.9893C11.5685 16.9893 10.7913 16.6942 10.2053 16.1319L17.8935 8.43356C17.6874 8.06841 17.4527 7.72692 17.1882 7.41513C17.0769 7.28428 16.9599 7.16133 16.8407 7.04255L16.8416 7.04116C16.8258 7.02585 16.8091 7.011 16.7938 6.99569C16.7581 6.96089 16.7242 6.9247 16.688 6.8913L16.6857 6.89269C15.5699 5.85059 14.1343 5.30078 12.4895 5.30078C10.5886 5.30078 8.96699 6.03201 7.80055 7.41513C6.70371 8.71612 6.09961 10.5224 6.09961 12.5003C6.09961 13.8152 6.36779 15.0522 6.86842 16.1166L9.09922 13.883C9.02174 13.4598 8.9823 12.9986 8.9823 12.5003C8.9823 11.2067 9.24538 10.1605 9.7641 9.3912C10.3719 8.48877 11.3147 8.01134 12.4895 8.01134C13.404 8.01134 14.1654 8.30039 14.7444 8.83722L7.07164 16.5207C7.28275 16.9039 7.52634 17.2607 7.80009 17.586C7.8553 17.6509 7.91191 17.7136 7.96897 17.7757L7.97037 17.7771C8.03625 17.849 8.10353 17.9186 8.17173 17.9864L8.19772 18.0124C8.21952 18.0337 8.2404 18.0564 8.26267 18.0773L8.26499 18.0755C9.38179 19.1394 10.828 19.7008 12.489 19.7008C14.3914 19.7008 16.0157 18.9696 17.1877 17.586C18.2906 16.2836 18.8984 14.4773 18.8984 12.5008C18.8984 11.1659 18.62 9.90993 18.1004 8.83304L15.8816 11.0546L15.8821 11.0541Z" fill="#0074F0"/>
  </g>
  <defs>
    <clipPath id="clip0_695_47486">
      <rect width="24" height="24" fill="white" transform="translate(0.5 0.5)"/>
    </clipPath>
  </defs>
</svg>
