<svg viewBox="0 0 33 33" fill="none"
  xmlns="http://www.w3.org/2000/svg">
  <path d="M31.5534 16.8944C31.5821 25.4547 24.6658 32.4175 16.1055 32.4462C7.5451 32.4749 0.582299 25.5586 0.553613 16.9982C0.524927 8.43787 7.44122 1.47507 16.0016 1.44638C24.562 1.4177 31.5248 8.33399 31.5534 16.8944Z" fill="#141214" stroke="#F6F8FE"/>
  <path fill-rule="evenodd" clip-rule="evenodd" d="M14.7473 6.90143C14.7473 6.8007 14.825 6.71436 14.9167 6.71436H17.0763C17.168 6.71436 17.2457 6.8007 17.2457 6.90143V11.7799C17.2457 11.9669 17.4574 12.0389 17.5491 11.8806L20.0051 7.65694C20.0545 7.5706 20.1604 7.54182 20.238 7.60658L22.0094 9.00247C22.08 9.06003 22.1012 9.17516 22.0518 9.2615L19.9839 12.8232C19.9134 12.9455 19.991 13.111 20.1251 13.111H24.9735C25.0653 13.111 25.1429 13.1973 25.1429 13.2981V15.7301C25.1429 15.8308 25.0653 15.9172 24.9735 15.9172H23.0398C21.6848 15.9172 20.485 15.0178 19.2994 14.1255C18.8265 13.773 18.3537 13.4132 17.8808 13.1254C17.3233 12.78 16.6811 12.5857 16.0036 12.5857C15.3261 12.5857 14.6838 12.78 14.1263 13.1254C13.6464 13.4204 13.1806 13.773 12.7078 14.1255C11.5221 15.0178 10.3294 15.9172 8.96734 15.9172H7.02656C6.93481 15.9172 6.85718 15.8308 6.85718 15.7301V13.2981C6.85718 13.1973 6.93481 13.111 7.02656 13.111H11.875C12.0091 13.111 12.0867 12.9455 12.0161 12.8232L9.94832 9.2615C9.89892 9.17516 9.92009 9.06723 9.99066 9.00247L11.7621 7.60658C11.8397 7.54901 11.9456 7.5706 11.995 7.65694L14.4439 11.8806C14.5356 12.0389 14.7473 11.9669 14.7473 11.7799V6.90143ZM12.6936 19.8818C11.508 18.9968 10.3153 18.0902 8.95322 18.0902H7.02656C6.93481 18.0902 6.85718 18.1765 6.85718 18.2772V20.7093C6.85718 20.81 6.93481 20.8963 7.02656 20.8963H11.875C12.0091 20.8963 12.0867 21.0618 12.0161 21.1841L9.94832 24.7458C9.89892 24.8322 9.92009 24.9401 9.99066 25.0049L11.7621 26.4008C11.8397 26.4583 11.9456 26.4367 11.995 26.3504L14.4439 22.1267C14.5356 21.9684 14.7473 22.0404 14.7473 22.2275V27.0987C14.7473 27.1994 14.825 27.2858 14.9167 27.2858H17.0763C17.168 27.2858 17.2457 27.1994 17.2457 27.0987V22.2203C17.2457 22.0332 17.4574 21.9612 17.5491 22.1195L20.0051 26.3432C20.0545 26.4295 20.1604 26.4583 20.238 26.3936L22.0094 24.9977C22.08 24.9401 22.1012 24.825 22.0518 24.7386L19.9839 21.177C19.9134 21.0546 19.991 20.8891 20.1251 20.8891H24.9735C25.0653 20.8891 25.1429 20.8028 25.1429 20.7021V18.27C25.1429 18.1693 25.0653 18.083 24.9735 18.083H23.0398C21.6848 18.083 20.485 18.9824 19.2994 19.8746C18.8265 20.2272 18.3537 20.5869 17.8808 20.8748C17.3233 21.2201 16.6811 21.4144 16.0036 21.4144C15.3261 21.4144 14.6838 21.2201 14.1263 20.8748C13.6464 20.5797 13.1806 20.2272 12.7078 19.8746L12.6936 19.8818ZM15.9965 20.6517C17.7679 20.6517 19.2076 19.0184 19.2076 17.0037C19.2076 14.989 17.7679 13.3556 15.9965 13.3556C14.2251 13.3556 12.7854 14.989 12.7854 17.0037C12.7854 19.0184 14.2251 20.6517 15.9965 20.6517Z" fill="white"/>
</svg>
