<svg viewBox="0 0 59 16" fill="none"
  xmlns="http://www.w3.org/2000/svg">
  <path d="M36.144 14.7782L30.7083 1.59492C30.6654 1.47465 30.6428 1.34807 30.6414 1.22037C30.6307 0.950016 30.7266 0.686259 30.9083 0.485829C31.0016 0.390473 31.1141 0.316155 31.2384 0.267863C31.3627 0.219571 31.4959 0.19842 31.6291 0.205829C31.8309 0.20815 32.0269 0.2735 32.1898 0.392738C32.3609 0.519699 32.4947 0.690234 32.5774 0.886556L37.7462 13.7898L42.9156 0.886556C42.9978 0.690138 43.1315 0.519535 43.3025 0.392738C43.4654 0.2735 43.6614 0.20815 43.8632 0.205829C43.9965 0.198314 44.1299 0.219414 44.2543 0.267709C44.3787 0.316005 44.4914 0.390377 44.5847 0.485829C44.7665 0.686259 44.8623 0.950016 44.8516 1.22037C44.8502 1.34783 44.8276 1.47417 44.7847 1.59419L39.3491 14.7782C39.0429 15.4596 38.5876 15.7964 37.9869 15.7964H37.5062C36.9054 15.7935 36.4509 15.4596 36.144 14.7782Z" fill="white"/>
  <path d="M47.16 15.3927C47.0677 15.2998 46.9953 15.1891 46.947 15.0673C46.8987 14.9456 46.8757 14.8153 46.8793 14.6844V1.32729C46.8744 1.05947 46.9753 0.800522 47.16 0.606559C47.2504 0.510478 47.3603 0.434822 47.4824 0.384652C47.6044 0.334483 47.7358 0.310957 47.8676 0.31565H56.696C56.8208 0.312161 56.9449 0.335332 57.06 0.383616C57.1751 0.4319 57.2787 0.504186 57.3636 0.59565C57.4542 0.68149 57.526 0.78524 57.5743 0.900304C57.6226 1.01537 57.6465 1.13923 57.6444 1.26401C57.6476 1.38692 57.6242 1.50907 57.5758 1.62207C57.5273 1.73506 57.4549 1.83622 57.3636 1.91856C57.1846 2.09113 56.9446 2.18579 56.696 2.18183H48.8829V7.0451H55.9076C56.0325 7.04175 56.1566 7.06506 56.2717 7.11347C56.3868 7.16188 56.4903 7.23427 56.5753 7.32583C56.665 7.4122 56.7361 7.51595 56.7844 7.63074C56.8327 7.74553 56.857 7.86895 56.856 7.99347C56.8593 8.11637 56.8359 8.23853 56.7874 8.35152C56.7389 8.46452 56.6666 8.56567 56.5753 8.64801C56.4871 8.73441 56.3828 8.80249 56.2682 8.8483C56.1536 8.89411 56.031 8.91676 55.9076 8.91492H48.8829V13.8036H56.696C56.8209 13.7999 56.9451 13.8231 57.0603 13.8715C57.1755 13.9199 57.2789 13.9925 57.3636 14.0844C57.4543 14.17 57.5261 14.2736 57.5744 14.3886C57.6227 14.5036 57.6466 14.6273 57.6444 14.752C57.6476 14.8749 57.6242 14.9971 57.5758 15.1101C57.5273 15.2231 57.4549 15.3242 57.3636 15.4066C57.1852 15.5805 56.9451 15.6764 56.696 15.6735H47.8676C47.7361 15.6832 47.6042 15.663 47.4816 15.6143C47.359 15.5657 47.2491 15.4899 47.16 15.3927Z" fill="white"/>
  <path d="M31.9362 14.4044L26.5013 1.22036C26.1952 0.539629 25.7377 0.205811 25.1392 0.205811H24.6577C24.0562 0.205811 23.6024 0.539629 23.2955 1.22399L20.9312 6.96945H19.1421C18.8839 6.97097 18.6367 7.07422 18.4541 7.25678C18.2716 7.43935 18.1683 7.68653 18.1668 7.94472V7.95781C18.1681 8.21606 18.2713 8.46335 18.4539 8.64596C18.6365 8.82856 18.8838 8.93175 19.1421 8.93308H20.1035L17.849 14.4094C17.8061 14.5295 17.7835 14.6558 17.7821 14.7833C17.7713 15.0536 17.8672 15.3174 18.049 15.5178C18.1423 15.6134 18.2549 15.6878 18.3793 15.7363C18.5038 15.7847 18.6371 15.8059 18.7704 15.7985C18.9721 15.7955 19.168 15.7303 19.3312 15.6116C19.5021 15.4842 19.6359 15.3135 19.7188 15.1171L22.2024 8.93527H23.9108C24.169 8.93374 24.4162 8.8305 24.5987 8.64793C24.7813 8.46536 24.8845 8.21818 24.8861 7.95999V7.92727C24.8847 7.66902 24.7815 7.42173 24.5989 7.23912C24.4163 7.05651 24.169 6.95333 23.9108 6.95199H22.9872L24.8977 2.21017L30.0664 15.1134C30.1486 15.3099 30.2823 15.4805 30.4533 15.6073C30.6164 15.7266 30.8127 15.792 31.0148 15.7942C31.1479 15.8016 31.2811 15.7804 31.4054 15.7321C31.5298 15.6838 31.6423 15.6095 31.7355 15.5142C31.9174 15.3135 32.0132 15.0495 32.0024 14.7789C32.0082 14.6507 31.9856 14.5228 31.9362 14.4044Z" fill="white"/>
  <path d="M15.6948 14.4041L10.2599 1.22011C9.95445 0.539385 9.49772 0.205566 8.89627 0.205566H8.41554C7.81481 0.205566 7.36099 0.539385 7.05336 1.22375L4.68972 6.9692H2.8999C2.64177 6.97092 2.39471 7.07422 2.21218 7.25675C2.02965 7.43928 1.92635 7.68634 1.92463 7.94447V7.95756C1.92767 8.21481 2.03156 8.46058 2.21395 8.64201C2.39634 8.82345 2.64265 8.92605 2.8999 8.92775H3.86136L1.60681 14.4041C1.56394 14.5241 1.54133 14.6505 1.5399 14.7779C1.52898 15.0483 1.62485 15.3122 1.80681 15.5125C1.90009 15.608 2.01272 15.6825 2.13716 15.7309C2.26159 15.7793 2.39495 15.8006 2.52827 15.7932C2.72998 15.7902 2.92583 15.7249 3.08899 15.6063C3.25994 15.4789 3.39376 15.3082 3.47663 15.1117L5.96027 8.92993H7.68099C7.93918 8.9284 8.18636 8.82516 8.36893 8.64259C8.5515 8.46002 8.65474 8.21284 8.65627 7.95466V7.92702C8.65493 7.66877 8.55175 7.42148 8.36914 7.23887C8.18653 7.05626 7.93924 6.95308 7.68099 6.95175H6.75954L8.65627 2.2092L13.825 15.1117C13.9074 15.3085 14.0413 15.4793 14.2126 15.6063C14.3758 15.7249 14.5716 15.7902 14.7734 15.7932C14.9067 15.8004 15.04 15.7791 15.1644 15.7307C15.2888 15.6822 15.4014 15.6079 15.4948 15.5125C15.6766 15.312 15.7724 15.0483 15.7617 14.7779C15.7666 14.65 15.7438 14.5224 15.6948 14.4041Z" fill="white"/>
</svg>
