<svg viewBox="0 0 20 20" fill="none"
  xmlns="http://www.w3.org/2000/svg">
  <path d="M18.8276 4.09818C18.2806 2.77574 17.231 1.7254 15.9092 1.17704C12.1289 -0.390499 7.88043 -0.392576 4.09867 1.1722C2.77623 1.71917 1.72589 2.76882 1.17753 4.09056C-0.390011 7.87094 -0.392088 12.1194 1.17268 15.9011C1.71966 17.2236 2.76931 18.2739 4.09105 18.8223C7.87143 20.3898 12.1199 20.3919 15.9016 18.8271C17.2241 18.2801 18.2744 17.2305 18.8228 15.9087C20.3903 12.1284 20.3924 7.87994 18.8276 4.09818Z" fill="url(#paint0_linear_2022_2117)"/>
  <g style="mix-blend-mode:soft-light" opacity="0.5">
    <path d="M1.38477 9.99586C1.38546 8.14167 1.74619 6.33318 2.45657 4.62094C2.86714 3.63153 3.63776 2.86091 4.62786 2.45172C6.33942 1.74411 8.14583 1.38477 9.99794 1.38477C11.85 1.38477 13.6648 1.74549 15.3791 2.45657C16.3685 2.86714 17.1391 3.63845 17.5483 4.62786C18.2573 6.3408 18.616 8.14998 18.6153 10.0035L1.38477 9.99586Z" fill="white"/>
  </g>
  <path d="M13.1539 5.11936C14.2645 5.92806 15.0711 7.17364 15.5571 8.82773C15.859 6.75268 15.877 4.82925 15.8777 4.72955L13.1179 4.70947C13.1179 4.7157 13.1165 4.85349 13.1089 5.0882C13.1241 5.09859 13.1394 5.10897 13.1539 5.11936Z" fill="white"/>
  <path d="M12.2402 10.9201C11.8247 11.949 11.1012 12.7238 9.60498 12.7238V15.4836C10.7668 15.4836 11.779 15.2101 12.6265 14.6707C12.5933 13.8482 12.4998 12.3374 12.2402 10.9194V10.9201Z" fill="white"/>
  <path d="M9.60492 15.4843C6.58062 15.4843 4.12061 13.0242 4.12061 9.99994C4.12061 6.97564 6.58062 4.51562 9.60492 4.51562C11.6814 4.51562 14.3539 5.41572 15.2935 9.7043C15.8495 12.2419 15.8765 15.1478 15.8772 15.2703L13.1174 15.2897C13.1174 15.2627 13.0903 12.5451 12.5974 10.2956C12.0158 7.64171 10.8152 7.27613 9.60492 7.27613C8.10316 7.27613 6.88111 8.49818 6.88111 9.99994C6.88111 11.5017 8.10316 12.7238 9.60492 12.7238V15.4836V15.4843Z" fill="white"/>
  <path d="M9.60498 4.51562C11.6814 4.51562 14.354 5.41572 15.2936 9.7043C15.8495 12.2419 15.8765 15.1478 15.8772 15.2703L13.1174 15.2897C13.1174 15.2627 13.0904 12.5451 12.5974 10.2956C12.0158 7.64171 10.8153 7.27613 9.60498 7.27613V4.51632V4.51562Z" fill="white"/>
  <defs>
    <linearGradient id="paint0_linear_2022_2117" x1="-5.79813" y1="9.99966" x2="28.9936" y2="9.99966" gradientUnits="userSpaceOnUse">
      <stop stop-color="#BD5AE1"/>
      <stop offset="1" stop-color="#7240F9"/>
    </linearGradient>
  </defs>
</svg>
