<svg viewBox="0 0 86 16" fill="none"
  xmlns="http://www.w3.org/2000/svg">
  <g clip-path="url(#clip0_4754_82263)">
    <path d="M14.6232 9.7736C17.6448 10.3312 19.7 11.4288 19.7 12.692C19.7 14.52 15.4016 16 10.1 16C4.7984 16 0.5 14.5192 0.5 12.692C0.5 11.4288 2.556 10.3312 5.5768 9.7736C6.8896 10.1144 8.44 10.3104 10.1 10.3104C11.76 10.3104 13.3104 10.1144 14.6232 9.7744V9.7736ZM13.4664 4.416C16.0328 4.8432 17.8008 5.7416 17.8008 6.7824C17.8008 8.2344 14.3528 9.412 10.1 9.412C5.8472 9.412 2.3992 8.2344 2.3992 6.7824C2.3992 5.7424 4.1672 4.8432 6.7336 4.416C7.72 4.6664 8.8704 4.8096 10.1 4.8096C11.3296 4.8096 12.48 4.6656 13.4664 4.416ZM10.1352 0C13.32 0 15.9024 0.8912 15.9024 1.9912C15.9024 3.0904 13.32 3.9816 10.1352 3.9816C6.9504 3.9816 4.368 3.0904 4.368 1.9912C4.368 0.8912 6.9504 0 10.1352 0ZM31.9392 13.192C32.74 13.192 33.4048 13.068 33.9336 12.8192C34.4616 12.5712 34.8576 12.2304 35.12 11.7992C35.385 11.3588 35.5213 10.8531 35.5136 10.3392C35.5136 9.8072 35.4048 9.3544 35.1864 8.9792C34.9849 8.62145 34.6952 8.32125 34.3448 8.1072C34.0213 7.90703 33.6533 7.79021 33.2736 7.7672V7.664C33.6041 7.58672 33.9178 7.44981 34.1992 7.26C34.4752 7.0728 34.6952 6.828 34.8592 6.5264C35.0224 6.2248 35.1048 5.8608 35.1048 5.4344C35.1048 4.916 34.9792 4.4528 34.7288 4.044C34.4784 3.6344 34.1016 3.3112 33.5984 3.0744C33.096 2.8376 32.4656 2.7192 31.7088 2.7192H27.7V13.1912L31.9392 13.192ZM31.4736 7.1736H29.5968V4.2848H31.5144C32.0744 4.2848 32.496 4.416 32.78 4.6784C33.0648 4.9408 33.2072 5.2752 33.2072 5.6808C33.2072 5.988 33.1312 6.2528 32.98 6.476C32.828 6.7 32.6208 6.8712 32.3584 6.9928C32.0802 7.11687 31.7782 7.17857 31.4736 7.1736ZM31.6376 11.6072H29.5976V8.5392H31.6888C32.0808 8.5392 32.4184 8.6112 32.7008 8.7568C32.984 8.9008 33.2024 9.0992 33.356 9.3496C33.5088 9.6 33.5856 9.8808 33.5856 10.1912C33.5856 10.6072 33.4336 10.9472 33.128 11.2112C32.8232 11.4752 32.3264 11.6072 31.6376 11.6072ZM38.944 13.3512C39.3528 13.3512 39.7096 13.2944 40.0152 13.18C40.32 13.0656 40.5744 12.9144 40.7768 12.7248C40.98 12.536 41.1368 12.332 41.2504 12.1136H41.3112V13.1928H43.0912V7.936C43.0912 7.4144 42.996 6.98 42.8072 6.632C42.6306 6.29827 42.3728 6.01435 42.0576 5.8064C41.7434 5.60168 41.3957 5.45358 41.0304 5.3688C40.66 5.28075 40.2807 5.23618 39.9 5.236C39.3512 5.236 38.8496 5.3168 38.396 5.4792C37.962 5.62913 37.5685 5.87748 37.2464 6.2048C36.9242 6.54183 36.6921 6.9545 36.5712 7.4048L38.2992 7.6496C38.3912 7.38 38.5696 7.1464 38.8336 6.9488C39.0976 6.7512 39.4568 6.6528 39.9104 6.6528C40.34 6.6528 40.6688 6.7584 40.8968 6.9696C41.1256 7.1808 41.24 7.4792 41.24 7.864V7.8952C41.24 8.072 41.1744 8.2024 41.0432 8.2864C40.912 8.3696 40.7032 8.4304 40.4168 8.4704C40.1304 8.5096 39.7568 8.5528 39.2968 8.6008C38.9235 8.64015 38.5536 8.70591 38.1896 8.7976C37.8516 8.88017 37.5282 9.0137 37.2304 9.1936C36.951 9.36402 36.7203 9.60378 36.5608 9.8896C36.3968 10.1792 36.3152 10.5456 36.3152 10.9888C36.3152 11.5032 36.4304 11.9368 36.6608 12.288C36.8904 12.6384 37.2048 12.904 37.6016 13.0824C37.9984 13.2616 38.4464 13.3512 38.944 13.3512ZM39.424 11.9912C39.0392 11.9912 38.7224 11.904 38.4736 11.7304C38.2248 11.556 38.1 11.2984 38.1 10.9584C38.1 10.7192 38.1632 10.524 38.2896 10.3728C38.4152 10.2208 38.5872 10.1024 38.8056 10.0168C39.0447 9.92636 39.2936 9.86459 39.5472 9.8328L39.9816 9.772C40.1496 9.748 40.3176 9.7208 40.488 9.6896C40.6584 9.6592 40.8128 9.6232 40.9512 9.5824C41.0888 9.5416 41.1872 9.4976 41.2448 9.4496V10.3752C41.2448 10.6648 41.1704 10.9328 41.0224 11.1776C40.869 11.4281 40.6506 11.6324 40.3904 11.7688C40.1184 11.9168 39.7952 11.9912 39.424 11.9912ZM46.408 13.1928V2.72H44.5576V13.192H46.4088L46.408 13.1928ZM50.1712 13.3512C50.58 13.3512 50.9376 13.2944 51.2424 13.18C51.5472 13.0656 51.8016 12.9144 52.004 12.7248C52.2072 12.536 52.3648 12.332 52.4776 12.1136H52.5384V13.1928H54.3184V7.936C54.3184 7.4144 54.2232 6.98 54.0344 6.632C53.858 6.29836 53.6005 6.01446 53.2856 5.8064C52.9711 5.6016 52.6232 5.45349 52.2576 5.3688C51.8872 5.28075 51.5079 5.23618 51.1272 5.236C50.5784 5.236 50.0776 5.3168 49.6232 5.4792C49.1892 5.62913 48.7957 5.87748 48.4736 6.2048C48.1514 6.54183 47.9193 6.9545 47.7984 7.4048L49.5264 7.6496C49.6184 7.38 49.7968 7.1464 50.0608 6.9488C50.3248 6.7512 50.6848 6.6528 51.1376 6.6528C51.5672 6.6528 51.896 6.7584 52.1248 6.9696C52.3528 7.1808 52.4672 7.4792 52.4672 7.864V7.8952C52.4672 8.072 52.4016 8.2024 52.2704 8.2864C52.1392 8.3696 51.9304 8.4304 51.644 8.4704C51.3576 8.5096 50.984 8.5528 50.524 8.6008C50.1507 8.64015 49.7808 8.70591 49.4168 8.7976C49.0788 8.88017 48.7554 9.0137 48.4576 9.1936C48.1782 9.36402 47.9475 9.60378 47.788 9.8896C47.6248 10.1792 47.5424 10.5456 47.5424 10.9888C47.5424 11.5032 47.6576 11.9368 47.888 12.288C48.1176 12.6384 48.432 12.904 48.8288 13.0824C49.2256 13.2616 49.6736 13.3512 50.1712 13.3512ZM50.6512 11.9912C50.2672 11.9912 49.9496 11.904 49.7008 11.7304C49.452 11.556 49.3272 11.2984 49.3272 10.9584C49.3272 10.7192 49.3904 10.524 49.5168 10.3728C49.6424 10.2208 49.8144 10.1024 50.0328 10.0168C50.2719 9.92636 50.5208 9.86459 50.7744 9.8328L51.2088 9.772C51.3768 9.748 51.5448 9.7208 51.7152 9.6896C51.8856 9.6592 52.04 9.6232 52.1784 9.5824C52.316 9.5416 52.4144 9.4976 52.472 9.4496V10.3752C52.472 10.6648 52.3984 10.9328 52.2496 11.1776C52.0962 11.4281 51.8778 11.6324 51.6176 11.7688C51.3456 11.9168 51.0224 11.9912 50.6512 11.9912ZM57.6352 13.1928V8.5904C57.6352 8.212 57.7072 7.8896 57.848 7.624C57.9896 7.3584 58.1856 7.1544 58.436 7.0128C58.6997 6.86807 58.9968 6.79497 59.2976 6.8008C59.7752 6.8008 60.1488 6.9488 60.42 7.2456C60.6912 7.5416 60.8264 7.9528 60.8264 8.4776V13.1928H62.6776V8.1912C62.6816 7.564 62.5712 7.0312 62.348 6.5912C62.124 6.1512 61.8112 5.8152 61.4072 5.5832C61.0032 5.3512 60.5304 5.236 59.988 5.236C59.4016 5.236 58.9096 5.3656 58.5128 5.6248C58.1224 5.87592 57.8196 6.24213 57.6464 6.6728H57.5536V5.3384H55.7848V13.1928H57.6352ZM67.5912 13.3464C68.2488 13.3464 68.8216 13.2264 69.3088 12.9856C69.7775 12.7618 70.1769 12.4155 70.4648 11.9832C70.748 11.5552 70.9112 11.0632 70.956 10.508H69.1864C69.1415 10.7679 69.0384 11.0144 68.8848 11.2288C68.7384 11.4272 68.5568 11.5776 68.3408 11.6816C68.1232 11.7856 67.8792 11.8376 67.6064 11.8376C67.2208 11.8376 66.8864 11.7344 66.6016 11.528C66.3168 11.3216 66.096 11.0272 65.9392 10.6432C65.7824 10.26 65.704 9.8008 65.704 9.2656C65.704 8.7376 65.7832 8.284 65.9416 7.9056C66.1 7.5272 66.3224 7.236 66.6088 7.0336C66.8952 6.8304 67.228 6.7296 67.6064 6.7296C68.0528 6.7296 68.4096 6.856 68.6776 7.1104C68.9448 7.364 69.1144 7.68 69.1864 8.0584H70.956C70.9144 7.4928 70.748 6.9976 70.4544 6.5728C70.1567 6.14473 69.7498 5.80415 69.276 5.5864C68.7832 5.3528 68.2184 5.236 67.58 5.236C66.8136 5.236 66.1496 5.4072 65.5888 5.7496C65.0272 6.09297 64.5756 6.58986 64.2872 7.1816C63.9808 7.7936 63.8272 8.4984 63.8272 9.296C63.8272 10.0904 63.9784 10.792 64.28 11.4C64.5816 12.0088 65.0128 12.4856 65.5736 12.8296C66.1344 13.1736 66.8072 13.3464 67.5912 13.3464ZM75.5568 13.3464C76.1672 13.3464 76.7088 13.2536 77.1832 13.0672C77.6568 12.8816 78.0464 12.6192 78.3512 12.28C78.6568 11.9408 78.8632 11.5424 78.9728 11.0856L77.2448 10.8912C77.1624 11.1128 77.0416 11.2992 76.8816 11.4488C76.7216 11.5992 76.532 11.7128 76.3136 11.7888C76.0782 11.8683 75.8309 11.9073 75.5824 11.904C75.18 11.904 74.8288 11.8184 74.5288 11.6456C74.227 11.4712 73.9835 11.2116 73.8288 10.8992C73.6608 10.5736 73.5776 10.1824 73.5776 9.7256L73.5784 9.772H79.0496V9.204C79.0496 8.516 78.9536 7.9216 78.7632 7.4216C78.572 6.9224 78.3104 6.5112 77.9784 6.1872C77.653 5.86774 77.2621 5.62264 76.8328 5.4688C76.3922 5.31205 75.9277 5.23327 75.46 5.236C74.7096 5.236 74.0568 5.4072 73.5008 5.7496C72.9425 6.09526 72.4932 6.59167 72.2048 7.1816C71.896 7.7936 71.7424 8.5032 71.7424 9.3112C71.7424 10.1328 71.8952 10.8464 72.2024 11.4512C72.5088 12.0568 72.948 12.5232 73.5192 12.8528C74.0904 13.1816 74.7696 13.3464 75.5568 13.3464ZM73.5864 8.4632C73.6104 8.1784 73.6888 7.9128 73.8208 7.6672C73.9792 7.3728 74.2016 7.1336 74.488 6.9512C74.787 6.76522 75.1336 6.67016 75.4856 6.6776C75.84 6.6776 76.1512 6.7576 76.4184 6.9176C76.6864 7.0784 76.8952 7.2976 77.0448 7.5752C77.1952 7.8536 77.2712 8.1696 77.2752 8.524H73.5824L73.5864 8.4632ZM82.0656 13.1928V8.5752C82.0656 8.2408 82.1424 7.9464 82.2952 7.6904C82.4488 7.4344 82.6592 7.2344 82.9272 7.0896C83.2064 6.9418 83.5185 6.86695 83.8344 6.872C83.9912 6.872 84.1544 6.8832 84.3224 6.9056C84.492 6.928 84.6152 6.952 84.6936 6.98V5.2768C84.5879 5.25721 84.481 5.24439 84.3736 5.2384C84.2591 5.23037 84.1444 5.2261 84.0296 5.2256C83.5792 5.2256 83.1792 5.3496 82.8296 5.5968C82.48 5.8432 82.2344 6.1936 82.0912 6.6472H82.0088V5.3384H80.2144V13.1928H82.0656Z" fill="white"/>
  </g>
  <defs>
    <clipPath id="clip0_4754_82263">
      <rect width="84.8" height="16" fill="white" transform="translate(0.5)"/>
    </clipPath>
  </defs>
</svg>
