<svg viewBox="0 0 73 16" fill="none"
  xmlns="http://www.w3.org/2000/svg">
  <g clip-path="url(#clip0_4302_90094)">
    <path d="M70.89 9.08623C70.89 8.15156 70.3388 7.44456 69.464 7.44456C68.5893 7.44456 68.038 8.15156 68.038 9.08623C68.038 10.0209 68.5893 10.7279 69.464 10.7279C70.3388 10.7279 70.89 10.0209 70.89 9.08623ZM70.8421 6.82145V4.36493C70.8421 4.19717 70.9499 4.06536 71.1057 4.01743L72.3998 3.66992V11.9622H70.9619V11.2552C70.6024 11.7824 69.9433 12.094 69.1285 12.094C67.4509 12.094 66.4803 10.7519 66.4803 9.07425C66.4803 7.39663 67.4629 6.05454 69.1285 6.05454C69.9553 6.06652 70.5425 6.41402 70.8421 6.82145ZM61.9746 6.19833V6.90533C62.2383 6.41403 62.8374 6.06652 63.6882 6.06652C65.0782 6.06652 65.8092 6.98921 65.8092 8.36725V11.9741H64.2514V8.547C64.2514 7.87595 63.9638 7.40862 63.2688 7.40862C62.5139 7.40862 62.0945 7.88794 62.0945 8.66683V11.9741H60.5367V6.21032H61.9746V6.19833ZM56.8819 12.1059C55.1923 12.1059 54.2576 11.375 54.2576 9.50564V6.19833H55.8154V9.5296C55.8154 10.3325 56.1749 10.7039 56.8699 10.7039C57.5649 10.7039 57.9244 10.3325 57.9244 9.5296V6.19833H59.4822V9.50564C59.4942 11.375 58.5595 12.1059 56.8819 12.1059ZM49.0929 9.08623C49.0929 10.1168 49.728 10.7279 50.5549 10.7279C51.3817 10.7279 52.0168 10.1168 52.0168 9.08623C52.0168 8.0557 51.3817 7.44456 50.5549 7.44456C49.74 7.44456 49.0929 8.04371 49.0929 9.08623ZM50.5549 12.1059C48.7095 12.1059 47.5232 10.7279 47.5232 9.08623C47.5232 7.44456 48.6975 6.06652 50.5549 6.06652C52.4002 6.06652 53.5866 7.44456 53.5866 9.08623C53.5866 10.7279 52.4122 12.1059 50.5549 12.1059ZM42.7659 9.08623C42.7659 10.0209 43.3171 10.7279 44.1919 10.7279C45.0667 10.7279 45.6179 10.0209 45.6179 9.08623C45.6179 8.15156 45.0667 7.44456 44.1919 7.44456C43.3171 7.44456 42.7659 8.15156 42.7659 9.08623ZM42.8139 11.351V13.7476C42.8139 13.9154 42.706 14.0472 42.5502 14.0951L41.2561 14.4306V6.19833H42.694V6.90533C43.0535 6.37808 43.7126 6.06652 44.5274 6.06652C46.205 6.06652 47.1757 7.40862 47.1757 9.08623C47.1757 10.7639 46.1931 12.1059 44.5274 12.1059C43.7006 12.1059 43.1134 11.7465 42.8139 11.351ZM36.6067 8.69079V11.9741H35.0489V8.547C35.0489 7.9119 34.8212 7.40862 34.1262 7.40862C33.3952 7.40862 32.9998 7.87595 32.9998 8.65485V11.9741H31.442V6.19833H32.88V6.90533C33.1436 6.41403 33.7188 6.06652 34.5456 6.06652C35.3245 6.06652 35.8877 6.37808 36.2232 6.88136C36.7265 6.31816 37.3137 6.06652 38.1405 6.06652C39.5305 6.06652 40.2375 7.02516 40.2375 8.36725V11.9741H38.6797V8.547C38.6797 7.9119 38.452 7.40862 37.757 7.40862C36.9901 7.40862 36.6067 7.88793 36.6067 8.69079ZM26.2174 9.08623C26.2174 10.1168 26.8525 10.7279 27.6793 10.7279C28.5062 10.7279 29.1413 10.1168 29.1413 9.08623C29.1413 8.0557 28.5062 7.44456 27.6793 7.44456C26.8525 7.44456 26.2174 8.04371 26.2174 9.08623ZM27.6793 12.1059C25.834 12.1059 24.6476 10.7279 24.6476 9.08623C24.6476 7.44456 25.822 6.06652 27.6793 6.06652C29.5367 6.06652 30.711 7.44456 30.711 9.08623C30.711 10.7279 29.5247 12.1059 27.6793 12.1059ZM16.5352 8.04371C16.5352 5.59918 18.2248 3.98148 20.4656 3.98148C22.4188 3.98148 23.9526 5.13185 24.2522 7.03714H22.5386C22.311 6.05454 21.5201 5.50332 20.4656 5.50332C19.0396 5.50332 18.2248 6.49791 18.2248 8.03173C18.2248 9.57753 19.0276 10.5601 20.4656 10.5601C21.5081 10.5601 22.299 10.0089 22.5386 9.02632H24.2522C23.9526 10.9316 22.4188 12.082 20.4656 12.082C18.2248 12.1179 16.5352 10.4882 16.5352 8.04371Z" fill="white"/>
    <path d="M1.14708 12.4535C0.751643 12.2138 0.5 11.7704 0.5 11.3151V8.71476C0.5 8.6189 0.523966 8.52304 0.571898 8.43915C0.727677 8.17553 1.07518 8.07967 1.33881 8.23545L7.21047 11.6626C7.55798 11.8663 7.76169 12.2258 7.76169 12.6332V15.3294C7.76169 15.4492 7.72574 15.569 7.66583 15.6769C7.4741 15.9884 7.0547 16.0963 6.74314 15.9046L1.14708 12.4535ZM9.90665 7.51647C10.2542 7.72018 10.4579 8.07967 10.4579 8.48709V13.9633C10.4579 14.1311 10.374 14.2749 10.2302 14.3588L8.94801 15.0777C8.93603 15.0897 8.91206 15.0897 8.90008 15.1017V12.07C8.90008 11.6746 8.69637 11.3151 8.36084 11.1114L3.20816 8.03173V4.56865C3.20816 4.47279 3.23212 4.37692 3.28005 4.29304C3.43583 4.02942 3.78334 3.93355 4.04697 4.08933L9.90665 7.51647ZM12.471 3.46621C12.8185 3.66992 13.0222 4.02941 13.0222 4.43684V12.4295C13.0222 12.5973 12.9264 12.741 12.7826 12.8249L11.5603 13.484V7.92389C11.5603 7.52845 11.3566 7.16896 11.0211 6.96525L5.74855 3.80174V0.554348C5.74855 0.458484 5.77252 0.362621 5.82045 0.27874C5.97623 0.0151145 6.32373 -0.0807508 6.58736 0.075028L12.471 3.46621Z" fill="white"/>
  </g>
  <defs>
    <clipPath id="clip0_4302_90094">
      <rect width="71.8979" height="16" fill="white" transform="translate(0.5)"/>
    </clipPath>
  </defs>
</svg>
