<svg viewBox="0 0 131 16" fill="none"
  xmlns="http://www.w3.org/2000/svg">
  <g clip-path="url(#clip0_4754_82264)">
    <path d="M73.6519 2.99851V0.657715H70.2873V1.63051H69.3036V4.53452H67.8281V6.38572H69.3036V14.6097H71.6862V6.38572H73.6535V4.53612H71.6862V2.99851H73.6519ZM71.481 4.93772H73.2431V5.98571H71.481H71.2774V6.18572V14.2097H69.7124V5.98412H68.2369V4.93612H69.7124V2.03211H70.4908H70.6944V1.83211V1.05931H73.2415V2.59691H71.4794H71.2758V2.79691V4.73611V4.93612H71.481V4.93772Z" fill="white"/>
    <path d="M74.7305 1.14746V3.48026H77.1049V1.14746H74.7305ZM76.6978 3.08026H75.1392V1.54906H76.6978V3.08026Z" fill="white"/>
    <path d="M74.7305 4.53613V14.6113H77.1049V4.53613H74.7305ZM76.6978 14.2097H75.1392V4.93773H76.6978V14.2097Z" fill="white"/>
    <path d="M86.4639 6.46747V5.50107H85.4738V4.53467H81.6173V5.50107H81.0424V4.53467H78.668V14.6099H81.0424V7.83547H82.0261V6.86907H84.083V7.83547H85.0666V14.6115H87.4492V6.46747H86.4639ZM87.0388 14.2099H85.4738V7.43387H84.4901V6.46747H81.6173V7.43387H80.6337V14.2099H79.0751V4.93787H80.6337V5.90427H82.0261V4.93787H85.065V5.90427H86.0552V6.87067H87.0388V14.2099Z" fill="white"/>
    <path d="M97.2989 6.46747V5.50107H96.3152V4.53467H90.9768V5.50107H89.9931V6.46747H89.0094V7.83547H92.3676V6.86907H94.9146V7.83547H95.9048V8.40667H91.9588V9.37307H89.9915V10.3395H89.0078V12.6803H89.9915V13.6467H90.9751V14.6131H95.3234V13.6467H95.9048V14.6131H98.2793V6.46747H97.2989ZM97.8721 14.2099H96.3136V13.2435H94.9146V14.2099H91.3839V13.2435H90.4002V12.2771H89.4182V10.7395H90.4019V9.77307H92.3692V8.80667H96.3152V7.43227H95.325V6.46587H91.9588V7.43227H89.4182V6.86747H90.4019V5.90107H91.3855V4.93467H95.9064V5.90107H96.8901V6.86747H97.8738V14.2099H97.8721Z" fill="white"/>
    <path d="M94.9164 9.37305V10.3394H91.4688V12.6802H95.3252V11.7122H96.3154V9.37305H94.9164ZM95.9066 11.3106H94.9164V12.277H91.8775V10.7394H95.3252V9.77305H95.9066V11.3106Z" fill="white"/>
    <path d="M107.636 6.46747V5.50107H106.646V4.53467H102.789V5.50107H102.214V4.53467H99.8398V14.6099H102.214V7.83547H103.198V6.86907H105.255V7.83547H106.239V14.6115H108.621V6.46747H107.636ZM108.211 14.2099H106.646V7.43387H105.662V6.46747H102.789V7.43387H101.806V14.2099H100.247V4.93787H101.806V5.90427H103.198V4.93787H106.237V5.90427H107.227V6.87067H108.211V14.2099Z" fill="white"/>
    <path d="M118.473 6.46747V5.50107H117.489V4.53467H112.151V5.50107H111.167V6.46747H110.184V12.6787H111.167V13.6451H112.151V14.6115H117.489V13.6451H118.473V12.6787H119.457V10.3379H117.082V11.3107H116.092V12.2771H113.545V11.3107H112.561V7.83547H113.545V6.86907H116.092V7.83547H117.082V8.80827H119.457V6.46747H118.473ZM119.048 8.40667H117.489V7.43387H116.499V6.46747H113.135V7.43387H112.151V11.7123H113.135V12.6787H116.499V11.7123H117.489V10.7395H119.048V12.2771H118.064V13.2435H117.081V14.2099H112.56V13.2435H111.576V12.2771H110.592V6.86907H111.576V5.90267H112.56V4.93627H117.081V5.90267H118.064V6.86907H119.048V8.40667Z" fill="white"/>
    <path d="M129.301 6.46747V5.50107H128.317V4.53467H122.979V5.50107H121.995V6.46747H121.012V12.6787H121.995V13.6451H122.979V14.6115H128.317V13.6451H129.301V12.6787H130.285V11.3107H126.92V12.2771H124.373V11.3107H123.389V10.2563H130.286V6.46747H129.301ZM129.876 9.85467H122.979V11.7123H123.963V12.6787H127.327V11.7123H129.874V12.2771H128.891V13.2435H127.907V14.2099H123.386V13.2435H122.403V12.2771H121.419V6.86907H122.403V5.90267H123.386V4.93627H127.907V5.90267H128.891V6.86907H129.874V9.85467H129.876Z" fill="white"/>
    <path d="M127.329 7.43369V6.46729H123.964V7.43369H122.98V8.80808H128.319V7.43369H127.329ZM127.91 8.40649H123.389V7.83529H124.373V6.86889H126.92V7.83529H127.91V8.40649Z" fill="white"/>
    <path d="M10.8134 8.31507V5.79987H9.53331V4.54227H6.97645V3.28467H4.42122V4.54227H1.86437V5.79987H0.585938V13.3455H1.86437V14.6031H4.4196V15.8607H6.97645V14.6031H9.53331V13.3455H10.8134V10.8303H8.25488V12.0847H6.97645V13.3423H4.42122V12.0847H3.14279V7.05747H4.42122V5.79987H6.97645V7.05747H8.25488V8.31507H10.8134Z" fill="white"/>
    <path d="M17.74 4.53564C20.6861 4.53564 22.8114 6.58045 22.8114 9.58365C22.8114 12.5868 20.6942 14.6092 17.74 14.6092C14.7858 14.6092 12.6914 12.5644 12.6914 9.58365C12.6914 6.60285 14.8167 4.53564 17.74 4.53564ZM17.74 6.38525C16.1016 6.38525 14.9046 7.62525 14.9046 9.58525C14.9046 11.5452 16.1016 12.7612 17.74 12.7612C19.4239 12.7612 20.5965 11.5212 20.5965 9.58525C20.5965 7.64925 19.4239 6.38525 17.74 6.38525Z" fill="white"/>
    <path d="M24.6055 5.36466C26.0435 4.83346 27.5662 4.55346 29.102 4.53906C31.6051 4.53906 33.1994 5.47346 33.1994 8.19346V14.3919H31.0286V8.38706C31.0286 6.99346 30.1426 6.49426 28.9244 6.49426C28.2062 6.48946 27.4897 6.58386 26.7975 6.77586V14.3919H24.6055V5.36466Z" fill="white"/>
    <path d="M38.3802 14.3918L34.5938 4.75342H36.9194L39.6879 12.3038L42.4402 4.75342H44.699L40.8833 14.3918H38.3802Z" fill="white"/>
    <path d="M47.5957 10.0621V10.1053C47.7276 11.8253 49.234 12.7597 50.7632 12.7597C52.1133 12.7597 53.0888 12.4557 54.0627 11.8253V13.7181C53.1768 14.3277 51.8707 14.6093 50.6085 14.6093C47.5517 14.6093 45.4688 12.6893 45.4688 9.6493C45.4688 6.6093 47.5077 4.5293 50.2095 4.5293C53.066 4.5293 54.4178 6.3341 54.4178 8.9677V10.0557L47.5957 10.0621ZM47.6624 8.6701H52.3576C52.3136 7.1677 51.5596 6.3405 50.1428 6.3405C48.8806 6.3405 47.9507 7.2109 47.6624 8.6701Z" fill="white"/>
    <path d="M61.8018 9.43182L65.4351 14.3918H62.932L60.5185 11.019L58.1033 14.3918H55.7109L59.3443 9.45262L55.9243 4.75342H58.4502L60.6195 7.84302L62.7545 4.75342H65.2413L61.8018 9.43182Z" fill="white"/>
  </g>
  <defs>
    <clipPath id="clip0_4754_82264">
      <rect width="130.286" height="16" fill="white" transform="translate(0.5)"/>
    </clipPath>
  </defs>
</svg>
