<svg viewBox="0 0 49 16" fill="none"
  xmlns="http://www.w3.org/2000/svg">
  <g clip-path="url(#clip0_4302_90082)">
    <path fill-rule="evenodd" clip-rule="evenodd" d="M1.56633 8C1.56633 4.17084 4.66952 1.06667 8.49748 1.06667H14.3623V0H8.49748C4.0806 0 0.5 3.58172 0.5 8V11.7296C0.800576 11.1675 1.15864 10.6408 1.56633 10.1573V8ZM3.699 8C3.699 5.34904 5.84736 3.2 8.49748 3.2H14.3623V2.13333H8.49748C5.25844 2.13333 2.63266 4.75992 2.63266 8V9.08696C2.96799 8.80204 3.32432 8.54104 3.699 8.30672V8ZM8.49748 5.33332C7.2658 5.33332 6.22924 6.16884 5.92332 7.3042C5.5286 7.42092 5.14512 7.56384 4.77488 7.73088C4.91276 5.79464 6.52672 4.26668 8.49748 4.26668H14.3623V5.33332H8.49748ZM1.56633 16C1.56633 12.1708 4.66952 9.06668 8.49748 9.06668H14.3623V8H8.49748C6.69708 8 5.03564 8.59512 3.699 9.5994L3.69822 9.6C1.75615 11.0596 0.5 13.383 0.5 16H1.56633ZM8.49748 11.2C5.84736 11.2 3.699 13.349 3.699 16H2.63266C2.63266 12.7599 5.25844 10.1333 8.49748 10.1333H14.3623V11.2H8.49748ZM8.49748 13.3333C7.0252 13.3333 5.83164 14.5272 5.83164 16H4.76532C4.76532 13.9381 6.43628 12.2667 8.49748 12.2667H14.3623V13.3333H8.49748ZM30.1583 13.3397H28.1999V1.97334H30.1583V13.3397ZM20.7104 13.3397H18.6276V2.1423H26.6323V3.92406H20.7104V7.01144H26.0106V8.7164H20.7104V13.3397ZM39.8654 5.1836H37.8914V9.46904C37.8914 10.8822 37.1143 11.8498 35.8553 11.8498C34.8295 11.8498 34.2699 11.2662 34.2699 10.022V5.1836H32.2804V10.3138C32.2804 12.2799 33.2441 13.4934 35.0315 13.4934C36.3527 13.4934 37.2852 12.8482 37.7516 11.8345H37.8914L38.1557 13.3397H39.8654V5.1836ZM42.9144 13.3397H40.8628L43.6604 9.254L40.956 5.1836H43.0388L44.7952 7.99448H44.904L46.6448 5.1836H48.6964L46.054 9.23864L48.7896 13.3397H46.6756L44.8728 10.5596H44.764L42.9144 13.3397Z" fill="white"/>
  </g>
  <defs>
    <clipPath id="clip0_4302_90082">
      <rect width="48.4" height="16" fill="white" transform="translate(0.5)"/>
    </clipPath>
  </defs>
</svg>
