<svg viewBox="0 0 61 16" fill="none"
  xmlns="http://www.w3.org/2000/svg">
  <g clip-path="url(#clip0_4754_82261)">
    <path d="M8.5 16C7.4202 16 6.37257 15.7883 5.38591 15.3712C4.43311 14.9682 3.57797 14.3913 2.84305 13.657C2.10869 12.9226 1.53182 12.0669 1.1288 11.1141C0.71167 10.1274 0.5 9.0798 0.5 8C0.5 6.9202 0.71167 5.87257 1.1288 4.88591C1.53182 3.93311 2.10869 3.07797 2.84305 2.34305C3.57797 1.60869 4.43311 1.03182 5.38591 0.628801C6.37257 0.21167 7.4202 0 8.5 0C9.5798 0 10.6274 0.21167 11.6141 0.628801C12.5669 1.03182 13.422 1.60869 14.157 2.34305C14.8913 3.0774 15.4682 3.93311 15.8712 4.88591C16.2883 5.87257 16.5 6.9202 16.5 8C16.5 9.0798 16.2883 10.1274 15.8712 11.1141C15.4682 12.0669 14.8913 12.922 14.157 13.657C13.4226 14.3913 12.5669 14.9682 11.6141 15.3712C10.6274 15.7889 9.5798 16 8.5 16Z" fill="white"/>
    <path d="M8.50188 15.576C12.686 15.576 16.078 12.1841 16.078 7.99992C16.078 3.81576 12.686 0.423828 8.50188 0.423828C4.31771 0.423828 0.925781 3.81576 0.925781 7.99992C0.925781 12.1841 4.31771 15.576 8.50188 15.576Z" fill="black"/>
    <path d="M12.4924 7.99976C12.4924 7.18808 12.2486 6.43284 11.8309 5.80178L13.0698 4.56281L11.9556 3.44857L10.72 4.68416C10.0856 4.258 9.32243 4.00908 8.50228 4.00908C7.6906 4.00908 6.93536 4.25292 6.3043 4.67062L5.06476 3.43164L3.95053 4.54587L5.18612 5.78146C4.75995 6.41591 4.51103 7.17905 4.51103 7.9992C4.51103 8.81088 4.75487 9.56612 5.17257 10.1972L3.93359 11.4367L5.04783 12.551L6.28341 11.3154C6.91786 11.7415 7.681 11.9904 8.50115 11.9904C9.31284 11.9904 10.0681 11.7466 10.6991 11.3289L11.9387 12.5684L13.0529 11.4542L11.8173 10.2186C12.2435 9.58306 12.4924 8.81991 12.4924 7.99976ZM6.08755 7.99976C6.08755 6.66822 7.17074 5.58503 8.50228 5.58503C9.83383 5.58503 10.917 6.66822 10.917 7.99976C10.917 9.33131 9.83383 10.4145 8.50228 10.4145C7.17074 10.4145 6.08755 9.33131 6.08755 7.99976Z" fill="white"/>
  </g>
  <path d="M28.0679 2.49316H21V13.5072H23.2823V8.88369H27.1844V6.88113H23.2823V4.49572H28.0679V2.49316Z" fill="white"/>
  <path d="M38.4051 13.5072L36.0638 9.17818C37.1535 8.64809 37.8308 7.55846 37.8308 6.02709C37.8308 3.75949 36.3731 2.49316 34.2821 2.49316H29.5702V13.5072H31.8526V9.5463H33.6932L35.843 13.5072H38.4051ZM31.8378 7.52902V4.49572H34.0024C34.8859 4.49572 35.519 5.02581 35.519 6.02709C35.519 6.99893 34.8859 7.52902 34.0024 7.52902H31.8378Z" fill="white"/>
  <path d="M45.5491 2.49316H43.6349L38.9082 13.5072H41.3967L42.3096 11.3869H46.889L47.7872 13.5072H50.2904L45.5491 2.49316ZM44.6067 6.01237L46.0939 9.53158H43.1195L44.6067 6.01237Z" fill="white"/>
  <path d="M60.5713 2.49316H57.9503L55.6827 6.39521L53.4003 2.49316H50.7793L53.9893 7.91186L50.5879 13.5072H53.2236L55.6827 9.41378L58.127 13.5072H60.7627L57.3613 7.91186L60.5713 2.49316Z" fill="white"/>
  <defs>
    <clipPath id="clip0_4754_82261">
      <rect width="16" height="16" fill="white" transform="translate(0.5)"/>
    </clipPath>
  </defs>
</svg>
