<svg viewBox="0 0 72 16" fill="none"
  xmlns="http://www.w3.org/2000/svg">
  <g clip-path="url(#clip0_4754_82259)">
    <path d="M22.2383 3.27496H24.0383V10.9998H28.4631V12.7246H22.2383V3.27496ZM36.3319 3.27496H38.1319V12.7246H36.3319V3.27496ZM46.7487 3.27496H49.7487C50.3679 3.27496 50.9583 3.40456 51.5183 3.66456C52.0783 3.91496 52.5735 4.25496 53.0031 4.68456C53.4342 5.11616 53.7802 5.62501 54.0231 6.18456C54.2735 6.75496 54.3983 7.35976 54.3983 7.99976C54.3983 8.63976 54.2735 9.24456 54.0231 9.81496C53.7802 10.3745 53.4342 10.8834 53.0031 11.315C52.5731 11.7447 52.0704 12.0949 51.5183 12.3494C50.9583 12.5998 50.3679 12.7254 49.7487 12.7254H46.7487V3.27496ZM49.7487 10.9998C50.1183 10.9998 50.4735 10.9198 50.8127 10.7598C51.1631 10.5998 51.4687 10.3846 51.7279 10.115C51.9983 9.84456 52.2079 9.52936 52.3583 9.17016C52.5183 8.79976 52.5983 8.41016 52.5983 7.99976C52.5983 7.59016 52.5183 7.20456 52.3583 6.84456C52.2152 6.48524 52.0007 6.15866 51.7279 5.88456C51.4666 5.61371 51.1563 5.3949 50.8135 5.23976C50.4809 5.08142 50.1171 4.99942 49.7487 4.99976H48.5487V10.9998H49.7487ZM66.5471 12.7998C65.9385 12.8021 65.336 12.6796 64.7767 12.4398C64.2324 12.1936 63.7391 11.8476 63.3223 11.4198C62.9063 10.9709 62.5712 10.4534 62.3319 9.89016C62.0882 9.29001 61.9661 8.64746 61.9727 7.99976C61.9727 7.32936 62.0927 6.70456 62.3327 6.12456C62.5672 5.55879 62.9028 5.04046 63.3231 4.59496C63.7346 4.16088 64.2292 3.814 64.7775 3.57496C65.334 3.32565 65.9373 3.19774 66.5471 3.19976C67.1524 3.19664 67.7512 3.32464 68.3023 3.57496C68.8623 3.81496 69.3471 4.15496 69.7567 4.59496C70.1836 5.03525 70.52 5.5549 70.7471 6.12456C70.9967 6.70456 71.1223 7.32936 71.1223 7.99976C71.1223 8.67976 70.9967 9.30936 70.7463 9.89016C70.5146 10.4572 70.179 10.976 69.7567 11.4198C69.3436 11.852 68.8494 12.1986 68.3023 12.4398C67.7519 12.6798 67.1663 12.7998 66.5471 12.7998ZM66.5471 11.075C66.9167 11.075 67.2719 10.9998 67.6119 10.8502C67.9472 10.7034 68.2485 10.4888 68.4967 10.2198C68.7519 9.93209 68.955 9.60207 69.0967 9.24456C69.2471 8.86456 69.3223 8.45016 69.3223 7.99976C69.3223 7.54936 69.2471 7.13976 69.0967 6.77016C68.9594 6.41021 68.7559 6.07917 68.4967 5.79416C68.2514 5.51987 67.9509 5.30053 67.6149 5.15052C67.2789 5.00052 66.915 4.92324 66.5471 4.92376C66.1753 4.92285 65.8074 4.99969 65.4671 5.14936C65.1348 5.30104 64.8382 5.52102 64.5967 5.79496C64.3375 6.07972 64.134 6.41049 63.9967 6.77016C63.8431 7.16165 63.767 7.57925 63.7727 7.99976C63.7727 8.45016 63.8471 8.86456 63.9967 9.24456C64.1471 9.61496 64.3471 9.93976 64.5967 10.2198C64.8471 10.4902 65.1367 10.6998 65.4671 10.8494C65.8072 10.9998 66.1752 11.0767 66.5471 11.075Z" fill="white"/>
    <path fill-rule="evenodd" clip-rule="evenodd" d="M6.10293 0L10.0621 6.1984L6.10293 8.5056L2.14453 6.1984L6.10293 0ZM3.35653 5.9048L6.10293 1.604L8.85013 5.9048L6.10293 7.5064L3.35653 5.9048Z" fill="white"/>
    <path d="M6.0984 9.86789L1.5064 7.19189L1.3808 7.38789C0.840142 8.23413 0.537016 9.21019 0.50318 10.2138C0.469344 11.2175 0.706044 12.2117 1.18848 13.0924C1.67092 13.9732 2.38134 14.7079 3.24531 15.2198C4.10928 15.7316 5.095 16.0017 6.0992 16.0017C7.1034 16.0017 8.08912 15.7316 8.95309 15.2198C9.81706 14.7079 10.5275 13.9732 11.0099 13.0924C11.4924 12.2117 11.7291 11.2175 11.6952 10.2138C11.6614 9.21019 11.3583 8.23413 10.8176 7.38789L10.692 7.19189L6.0984 9.8687V9.86789Z" fill="white"/>
  </g>
  <defs>
    <clipPath id="clip0_4754_82259">
      <rect width="71.2" height="16" fill="white" transform="translate(0.5)"/>
    </clipPath>
  </defs>
</svg>
