<?xml version="1.0" encoding="UTF-8"?>
<svg xmlns="http://www.w3.org/2000/svg" viewBox="0 0 175 36" fill="none">
  <path opacity="0.62" d="M7.16104 28.2194L11.6036 22.7571C12.0675 22.1868 12.9408 22.1868 13.4046 22.7571L17.8472 28.2194C18.1928 28.6445 18.1928 29.2519 17.8472 29.677L13.4046 35.1393C12.9408 35.7096 12.0675 35.7096 11.6036 35.1393L7.16104 29.677C6.81546 29.2519 6.81546 28.6445 7.16104 28.2194Z" fill="#2DB1FF"></path>
  <path d="M14.0634 14.8617L18.506 9.39941C18.9699 8.8291 19.8431 8.8291 20.307 9.39941L24.7496 14.8617C25.0951 15.2868 25.0951 15.8942 24.7496 16.3193L20.307 21.7816C19.8431 22.3519 18.9699 22.3519 18.506 21.7816L14.0634 16.3193C13.7178 15.8942 13.7178 15.2868 14.0634 14.8617Z" fill="#2DB1FF"></path>
  <path d="M0.25918 14.8617L4.70179 9.39941C5.16566 8.8291 6.0389 8.8291 6.50276 9.39941L10.9454 14.8617C11.2909 15.2868 11.2909 15.8942 10.9454 16.3193L6.50276 21.7816C6.0389 22.3519 5.16566 22.3519 4.70179 21.7816L0.25918 16.3193C-0.0863933 15.8942 -0.0863933 15.2868 0.25918 14.8617Z" fill="#2DB1FF"></path>
  <path d="M7.16104 6.32382L11.6036 0.860834C12.0675 0.290529 12.9408 0.290529 13.4046 0.860834L17.8472 6.32316C18.1928 6.74823 18.1928 7.35567 17.8472 7.78075L13.4046 13.2431C12.9408 13.8134 12.0675 13.8134 11.6036 13.2431L7.16104 7.78141C6.81546 7.35633 6.81546 6.74823 7.16104 6.32382Z" fill="#2DB1FF"></path>
  <path d="M168.627 18.1834L175 25.084H171.136L166.017 19.137V25.084H163.156V6.51514H166.017V17.3052L171.035 11.2577H175L168.627 18.1834Z" fill="#0E0E52"></path>
  <path d="M156.607 13.2653C157.025 12.5627 157.577 12.019 158.263 11.6342C158.966 11.2327 159.794 11.032 160.748 11.032V13.993H160.02C158.899 13.993 158.046 14.2774 157.46 14.8461C156.892 15.4149 156.607 16.4019 156.607 17.8071V25.0841H153.747V11.2578H156.607V13.2653Z" fill="#0E0E52"></path>
  <path d="M143.963 25.31C142.658 25.31 141.479 25.0172 140.425 24.4317C139.371 23.8295 138.543 22.993 137.941 21.9224C137.339 20.835 137.038 19.5804 137.038 18.1584C137.038 16.7532 137.347 15.5069 137.966 14.4196C138.585 13.3322 139.43 12.4957 140.5 11.9102C141.571 11.3247 142.767 11.032 144.089 11.032C145.41 11.032 146.606 11.3247 147.677 11.9102C148.748 12.4957 149.593 13.3322 150.211 14.4196C150.83 15.5069 151.14 16.7532 151.14 18.1584C151.14 19.5636 150.822 20.8099 150.186 21.8973C149.551 22.9847 148.681 23.8295 147.577 24.4317C146.489 25.0172 145.285 25.31 143.963 25.31ZM143.963 22.8257C144.699 22.8257 145.385 22.6501 146.021 22.2988C146.673 21.9475 147.2 21.4205 147.602 20.7179C148.003 20.0153 148.204 19.1621 148.204 18.1584C148.204 17.1547 148.012 16.3099 147.627 15.624C147.242 14.9214 146.732 14.3945 146.096 14.0432C145.461 13.6919 144.775 13.5162 144.039 13.5162C143.303 13.5162 142.617 13.6919 141.981 14.0432C141.362 14.3945 140.868 14.9214 140.5 15.624C140.132 16.3099 139.948 17.1547 139.948 18.1584C139.948 19.6473 140.325 20.8016 141.078 21.6213C141.847 22.4243 142.809 22.8257 143.963 22.8257Z" fill="#0E0E52"></path>
  <path d="M136.049 11.2578L131.758 25.0841H128.747L125.962 14.8712L123.176 25.0841H120.165L115.849 11.2578H118.76L121.646 22.3741L124.582 11.2578H127.568L130.378 22.3239L133.239 11.2578H136.049Z" fill="#0E0E52"></path>
  <path d="M111.702 13.5915V21.2449C111.702 21.7635 111.819 22.1399 112.054 22.3741C112.305 22.5915 112.723 22.7003 113.308 22.7003H115.065V25.0841H112.806C111.518 25.0841 110.531 24.783 109.845 24.1808C109.16 23.5785 108.817 22.5999 108.817 21.2449V13.5915H107.186V11.2578H108.817V7.82007H111.702V11.2578H115.065V13.5915H111.702Z" fill="#0E0E52"></path>
  <path d="M105.771 17.8322C105.771 18.3508 105.738 18.8192 105.671 19.2374H95.1065C95.1901 20.3415 95.6 21.2281 96.3361 21.8973C97.0721 22.5664 97.9755 22.901 99.0461 22.901C100.585 22.901 101.673 22.257 102.308 20.9689H105.395C104.976 22.2402 104.215 23.2858 103.111 24.1055C102.024 24.9085 100.669 25.31 99.0461 25.31C97.7245 25.31 96.5368 25.0172 95.4829 24.4317C94.4457 23.8295 93.626 22.993 93.0238 21.9224C92.4383 20.835 92.1455 19.5804 92.1455 18.1584C92.1455 16.7365 92.4299 15.4902 92.9987 14.4196C93.5842 13.3322 94.3955 12.4957 95.4327 11.9102C96.4866 11.3247 97.6911 11.032 99.0461 11.032C100.351 11.032 101.514 11.3164 102.534 11.8851C103.555 12.4539 104.349 13.2569 104.918 14.2941C105.487 15.3145 105.771 16.4939 105.771 17.8322ZM102.785 16.9289C102.768 15.875 102.392 15.0302 101.656 14.3945C100.92 13.7588 100.008 13.4409 98.9207 13.4409C97.9337 13.4409 97.0889 13.7588 96.3862 14.3945C95.6836 15.0134 95.2654 15.8582 95.1316 16.9289H102.785Z" fill="#0E0E52"></path>
  <path d="M84.0003 11.032C85.0877 11.032 86.0579 11.2578 86.9111 11.7095C87.781 12.1612 88.4585 12.8303 88.9436 13.7169C89.4288 14.6036 89.6713 15.6742 89.6713 16.9289V25.0841H86.8358V17.3554C86.8358 16.1175 86.5263 15.1723 85.9074 14.5199C85.2884 13.8508 84.4436 13.5162 83.373 13.5162C82.3023 13.5162 81.4492 13.8508 80.8135 14.5199C80.1945 15.1723 79.885 16.1175 79.885 17.3554V25.0841H77.0244V11.2578H79.885V12.8387C80.3534 12.2699 80.9473 11.8266 81.6666 11.5088C82.4027 11.1909 83.1806 11.032 84.0003 11.032Z" fill="#0E0E52"></path>
  <path d="M72.7761 25.2595C72.2575 25.2595 71.8226 25.0839 71.4713 24.7326C71.12 24.3813 70.9443 23.9463 70.9443 23.4277C70.9443 22.9092 71.12 22.4742 71.4713 22.1229C71.8226 21.7716 72.2575 21.5959 72.7761 21.5959C73.278 21.5959 73.7046 21.7716 74.0559 22.1229C74.4072 22.4742 74.5828 22.9092 74.5828 23.4277C74.5828 23.9463 74.4072 24.3813 74.0559 24.7326C73.7046 25.0839 73.278 25.2595 72.7761 25.2595Z" fill="#2DB1FF"></path>
  <path d="M65.5159 22.5246L69.4304 11.2578H72.4667L67.1972 25.0841H63.7845L58.54 11.2578H61.6014L65.5159 22.5246Z" fill="#0E0E52"></path>
  <path d="M52.0068 25.31C50.9194 25.31 49.9408 25.1176 49.0709 24.7328C48.2177 24.3313 47.5402 23.796 47.0383 23.1269C46.5365 22.441 46.2688 21.6798 46.2354 20.8434H49.1963C49.2465 21.4289 49.5225 21.9224 50.0244 22.3239C50.543 22.7086 51.1871 22.901 51.9566 22.901C52.7596 22.901 53.3785 22.7505 53.8135 22.4493C54.2651 22.1315 54.491 21.73 54.491 21.2449C54.491 20.7263 54.2401 20.3415 53.7382 20.0906C53.2531 19.8397 52.4752 19.5636 51.4045 19.2625C50.3674 18.9781 49.5225 18.7021 48.8701 18.4344C48.2177 18.1668 47.6489 17.7569 47.1638 17.2049C46.6954 16.6528 46.4612 15.9251 46.4612 15.0218C46.4612 14.2857 46.6787 13.6166 47.1136 13.0143C47.5486 12.3954 48.1675 11.9102 48.9705 11.5589C49.7902 11.2076 50.727 11.032 51.7809 11.032C53.3534 11.032 54.6165 11.4335 55.57 12.2365C56.5403 13.0227 57.0588 14.1017 57.1258 15.4735H54.2651C54.215 14.8545 53.964 14.361 53.5124 13.993C53.0607 13.6249 52.4501 13.4409 51.6806 13.4409C50.9278 13.4409 50.3506 13.5831 49.9491 13.8675C49.5476 14.1519 49.3469 14.5283 49.3469 14.9967C49.3469 15.3647 49.4807 15.6742 49.7484 15.9251C50.016 16.1761 50.3423 16.3768 50.727 16.5274C51.1118 16.6612 51.6806 16.8369 52.4334 17.0543C53.4371 17.322 54.2568 17.598 54.8925 17.8824C55.5449 18.1501 56.1053 18.5516 56.5737 19.0869C57.0421 19.6222 57.2847 20.3332 57.3014 21.2198C57.3014 22.006 57.0839 22.7086 56.649 23.3276C56.214 23.9466 55.5951 24.4317 54.7921 24.783C54.0059 25.1343 53.0774 25.31 52.0068 25.31Z" fill="#0E0E52"></path>
  <path d="M38.8237 25.31C37.7363 25.31 36.7577 25.1176 35.8878 24.7328C35.0346 24.3313 34.3571 23.796 33.8552 23.1269C33.3534 22.441 33.0857 21.6798 33.0522 20.8434H36.0132C36.0634 21.4289 36.3394 21.9224 36.8413 22.3239C37.3599 22.7086 38.004 22.901 38.7735 22.901C39.5765 22.901 40.1954 22.7505 40.6304 22.4493C41.082 22.1315 41.3079 21.73 41.3079 21.2449C41.3079 20.7263 41.0569 20.3415 40.5551 20.0906C40.07 19.8397 39.2921 19.5636 38.2214 19.2625C37.1842 18.9781 36.3394 18.7021 35.687 18.4344C35.0346 18.1668 34.4658 17.7569 33.9807 17.2049C33.5123 16.6528 33.2781 15.9251 33.2781 15.0218C33.2781 14.2857 33.4956 13.6166 33.9305 13.0143C34.3655 12.3954 34.9844 11.9102 35.7874 11.5589C36.6071 11.2076 37.5439 11.032 38.5978 11.032C40.1703 11.032 41.4333 11.4335 42.3869 12.2365C43.3571 13.0227 43.8757 14.1017 43.9427 15.4735H41.082C41.0319 14.8545 40.7809 14.361 40.3292 13.993C39.8776 13.6249 39.267 13.4409 38.4975 13.4409C37.7447 13.4409 37.1675 13.5831 36.766 13.8675C36.3645 14.1519 36.1638 14.5283 36.1638 14.9967C36.1638 15.3647 36.2976 15.6742 36.5653 15.9251C36.8329 16.1761 37.1592 16.3768 37.5439 16.5274C37.9287 16.6612 38.4975 16.8369 39.2502 17.0543C40.254 17.322 41.0737 17.598 41.7094 17.8824C42.3618 18.1501 42.9222 18.5516 43.3906 19.0869C43.859 19.6222 44.1016 20.3332 44.1183 21.2198C44.1183 22.006 43.9008 22.7086 43.4659 23.3276C43.0309 23.9466 42.412 24.4317 41.609 24.783C40.8227 25.1343 39.8943 25.31 38.8237 25.31Z" fill="#0E0E52"></path>
</svg>
