<svg viewBox="0 0 44 49" fill="none"
  xmlns="http://www.w3.org/2000/svg">
  <path fill-rule="evenodd" clip-rule="evenodd" d="M18.9922 0.441818C18.9922 0.203916 19.1791 0 19.4 0H24.5999C24.8208 0 25.0077 0.203916 25.0077 0.441818V11.9631C25.0077 12.4049 25.5175 12.5748 25.7384 12.201L31.652 2.22608C31.7709 2.02217 32.0258 1.9542 32.2128 2.10713L36.478 5.40378C36.6479 5.53972 36.6989 5.81161 36.58 6.01552L31.601 14.4271C31.4311 14.7159 31.618 15.1068 31.9409 15.1068H43.6151C43.836 15.1068 44.0229 15.3107 44.0229 15.5486V21.2922C44.0229 21.5301 43.836 21.7341 43.6151 21.7341H38.959C35.6963 21.7341 32.8075 19.6099 29.9527 17.5028C28.8142 16.6701 27.6756 15.8205 26.5371 15.1408C25.1947 14.3251 23.6483 13.8663 22.017 13.8663C20.3856 13.8663 18.8393 14.3251 17.4968 15.1408C16.3413 15.8375 15.2198 16.6701 14.0812 17.5028C11.2264 19.6099 8.35458 21.7341 5.07493 21.7341H0.401851C0.180942 21.7341 -0.00598145 21.5301 -0.00598145 21.2922V15.5486C-0.00598145 15.3107 0.180942 15.1068 0.401851 15.1068H12.076C12.3989 15.1068 12.5858 14.7159 12.4159 14.4271L7.43696 6.01552C7.31801 5.81161 7.36898 5.55671 7.53891 5.40378L11.8042 2.10713C11.9911 1.97119 12.246 2.02217 12.3649 2.22608L18.2615 12.201C18.4824 12.5748 18.9922 12.4049 18.9922 11.9631V0.441818ZM14.0472 31.0972C11.1924 29.0071 8.32059 26.8659 5.04094 26.8659H0.401851C0.180942 26.8659 -0.00598145 27.0699 -0.00598145 27.3078V33.0514C-0.00598145 33.2893 0.180942 33.4932 0.401851 33.4932H12.076C12.3989 33.4932 12.5858 33.8841 12.4159 34.1729L7.43696 42.5845C7.31801 42.7884 7.36898 43.0433 7.53891 43.1962L11.8042 46.4929C11.9911 46.6288 12.246 46.5778 12.3649 46.3739L18.2615 36.399C18.4824 36.0252 18.9922 36.1951 18.9922 36.6369V48.1412C18.9922 48.3791 19.1791 48.583 19.4 48.583H24.5999C24.8208 48.583 25.0077 48.3791 25.0077 48.1412V36.6199C25.0077 36.1781 25.5175 36.0082 25.7384 36.382L31.652 46.3569C31.7709 46.5608 32.0258 46.6288 32.2128 46.4759L36.478 43.1792C36.6479 43.0433 36.6989 42.7714 36.58 42.5675L31.601 34.1559C31.4311 33.8671 31.618 33.4762 31.9409 33.4762H43.6151C43.836 33.4762 44.0229 33.2723 44.0229 33.0344V27.2908C44.0229 27.0529 43.836 26.8489 43.6151 26.8489H38.959C35.6963 26.8489 32.8075 28.9731 29.9527 31.0802C28.8142 31.9129 27.6756 32.7625 26.5371 33.4422C25.1947 34.2579 23.6483 34.7167 22.017 34.7167C20.3856 34.7167 18.8393 34.2579 17.4968 33.4422C16.3413 32.7455 15.2198 31.9129 14.0812 31.0802L14.0472 31.0972ZM22 32.9155C26.2652 32.9155 29.7318 29.058 29.7318 24.3C29.7318 19.542 26.2652 15.6845 22 15.6845C17.7347 15.6845 14.2681 19.542 14.2681 24.3C14.2681 29.058 17.7347 32.9155 22 32.9155Z" fill="currentColor"/>
</svg>
