<svg viewBox="0 0 635 350" fill="none"
  xmlns="http://www.w3.org/2000/svg">
  <g opacity="0.9">
    <circle cx="367.171" cy="176.713" r="186.687" stroke="#5168FF"/>
    <circle cx="367.172" cy="176.713" r="208.581" stroke="#5168FF"/>
    <circle opacity="0.6" cx="367.172" cy="176.713" r="236.312" stroke="#5168FF"/>
    <circle opacity="0.4" cx="367.171" cy="176.711" r="268.422" stroke="#5168FF"/>
    <circle opacity="0.2" cx="367.171" cy="176.712" r="308.56" stroke="#5168FF"/>
    <circle opacity="0.1" cx="367.171" cy="176.712" r="366.212" stroke="#5168FF"/>
  </g>
  <path d="M219.33 14.4637C219.422 41.9688 197.263 64.3408 169.837 64.433C142.41 64.5252 120.102 42.3026 120.01 14.7975C119.918 -12.7076 142.077 -35.0796 169.504 -35.1718C196.93 -35.2639 219.238 -13.0414 219.33 14.4637Z" fill="#030C17"/>
  <path opacity="0.2" d="M200.727 45.5696C217.762 28.3622 217.68 0.606844 200.521 -16.4765C183.363 -33.5599 155.687 -33.4772 138.652 -16.2697L200.727 45.5696Z" fill="white"/>
  <path d="M174.33 10.1616C173.835 10.0788 173.381 9.95475 172.927 9.87202C166.823 8.6311 162.41 7.76245 162.41 3.50195C162.41 0.854647 165.008 -1.25492 169.669 -1.25492C173.835 -1.25492 177.134 0.441008 179.279 3.62604L179.609 3.70877L186.25 -3.11631L186.209 -3.36449C183.569 -6.50816 180.228 -8.70046 176.392 -9.85865C175.856 -10.0241 175.361 -10.1482 174.825 -10.2723H174.783C174.577 -10.3137 174.412 -10.355 174.206 -10.3964V-16.4355H165.132V-10.3964C164.843 -10.355 164.554 -10.2723 164.266 -10.2309H164.224C159.935 -9.19683 156.182 -6.96317 153.253 -3.52995C152.016 -1.46174 151.397 1.0201 151.397 3.87423C151.397 13.6362 158.739 16.7385 165.916 18.4758C167.235 18.8067 168.555 19.0549 169.834 19.2617C174.33 20.089 178.207 20.7921 178.207 24.8458C178.207 27.369 175.443 30.5127 169.669 30.5127C166.246 30.5127 163.441 29.3545 161.378 27.2449C161.255 27.1209 161.09 26.9968 160.966 26.8727L153.129 32.3327V32.6223C154.243 33.9459 155.48 35.1041 156.8 36.0969C157.254 36.4278 157.708 36.7173 158.161 37.0069C158.161 37.0069 158.161 37.0069 158.203 37.0069C158.656 37.2964 159.151 37.5446 159.605 37.7928C159.605 37.7928 159.646 37.7928 159.646 37.8342C160.141 38.0823 160.595 38.2892 161.09 38.496C161.131 38.496 161.131 38.496 161.172 38.5373C161.667 38.7442 162.162 38.9096 162.657 39.0751C162.698 39.0751 162.74 39.0751 162.74 39.1164C162.987 39.1992 163.193 39.2405 163.441 39.3233C163.482 39.3233 163.482 39.3233 163.523 39.3233C163.771 39.406 164.018 39.4474 164.307 39.5301C164.348 39.5301 164.389 39.5301 164.431 39.5714C164.637 39.6128 164.884 39.6542 165.091 39.6955V45.7347H174.165V39.6955C174.33 39.6542 174.495 39.6542 174.66 39.6128C174.701 39.6128 174.701 39.6128 174.742 39.6128C175.361 39.4887 175.98 39.3233 176.598 39.1164C176.887 39.0337 177.217 38.9096 177.506 38.8269C180.847 37.586 183.775 35.5178 186.167 32.705C187.075 31.6295 187.858 30.5127 188.56 29.2718C188.931 27.9481 189.096 26.459 189.096 24.8872C189.137 14.3807 181.218 11.5266 174.33 10.1616Z" fill="#FAFBFC"/>
  <path d="M153.171 32.5812C152.717 32.0435 152.305 31.5058 151.933 30.9267C151.768 30.6785 151.603 30.4303 151.439 30.2235C151.397 30.1821 151.356 30.0994 151.315 30.058C151.191 29.8512 151.026 29.603 150.902 29.3548C150.861 29.2721 150.82 29.1894 150.779 29.1067C150.655 28.8998 150.531 28.6517 150.407 28.4448C150.366 28.3621 150.325 28.2794 150.284 28.1966C150.16 27.9898 150.036 27.7416 149.954 27.4935C149.912 27.4107 149.871 27.2866 149.83 27.2039C149.706 26.9557 149.624 26.7489 149.5 26.5007C149.459 26.418 149.417 26.3353 149.376 26.2112C149.294 25.963 149.17 25.7148 149.087 25.4666C149.087 25.4253 149.046 25.3425 149.046 25.3012C148.84 24.7221 148.634 24.143 148.469 23.5639C148.469 23.5225 148.428 23.4811 148.428 23.3984C148.386 23.1916 148.304 22.9848 148.263 22.778C148.221 22.6125 148.18 22.447 148.139 22.2816C148.098 22.0748 148.056 21.9093 148.015 21.7025C147.974 21.537 147.933 21.3302 147.891 21.1648C147.85 20.9579 147.809 20.7925 147.768 20.5857C147.726 20.3788 147.685 20.172 147.644 19.9652C147.603 19.7997 147.603 19.5929 147.561 19.4275C147.52 19.2206 147.479 19.0138 147.479 18.7656C147.438 18.6002 147.438 18.4347 147.396 18.2279C147.355 17.9797 147.355 17.7729 147.314 17.5247C147.314 17.3593 147.273 17.1938 147.273 17.0283C147.273 16.7388 147.231 16.4906 147.231 16.2011C147.231 16.077 147.231 15.9529 147.19 15.7874C147.19 15.3738 147.149 14.9601 147.149 14.5465C147.149 14.1329 147.149 13.7606 147.19 13.3469C147.19 13.2228 147.19 13.0987 147.19 12.9747C147.19 12.6851 147.231 12.4369 147.231 12.1474C147.231 12.0233 147.273 11.8578 147.273 11.7337C147.314 11.4855 147.314 11.196 147.355 10.9478C147.355 10.8237 147.396 10.6996 147.396 10.5755C147.438 10.2446 147.479 9.95508 147.52 9.66553C147.52 9.5828 147.52 9.50007 147.561 9.45871C147.603 9.08643 147.685 8.71415 147.768 8.34188C147.809 8.21778 147.809 8.09369 147.85 8.01096C147.891 7.76278 147.974 7.51459 148.015 7.26641C148.056 7.14232 148.098 6.97686 148.098 6.85277C148.139 6.60458 148.221 6.39776 148.263 6.14958C148.304 6.02549 148.345 5.86003 148.386 5.73594C148.469 5.48775 148.551 5.23957 148.593 4.99138C148.634 4.86729 148.675 4.78456 148.716 4.66047C148.84 4.32956 148.964 3.99864 149.087 3.66773C149.129 3.54364 149.17 3.46091 149.211 3.33682C149.294 3.08863 149.376 2.88181 149.5 2.63363C149.541 2.50954 149.624 2.38544 149.665 2.21999C149.747 2.01317 149.83 1.84771 149.954 1.64089C150.036 1.5168 150.077 1.35134 150.16 1.22725C150.242 1.02043 150.366 0.854971 150.449 0.64815C150.531 0.524058 150.572 0.399965 150.655 0.275873C150.82 -0.0136759 150.985 -0.303225 151.15 -0.592773C150.779 0.772242 150.614 2.26135 150.614 3.83319C150.614 9.21052 152.882 13.3056 157.378 16.077C157.625 20.9166 159.028 24.7221 161.42 27.1625L153.171 32.5812Z" fill="url(#paint0_linear_337_9040)"/>
  <path d="M179.321 3.62635C180.723 5.73592 181.631 8.38322 181.961 11.5683C183.115 12.106 184.105 12.7264 185.013 13.4296C188.354 16.0356 190.045 19.8411 190.045 24.6807C190.045 25.2598 190.003 25.8389 189.962 26.418V26.3766C190.127 26.0043 190.292 25.5907 190.416 25.177C190.457 25.053 190.498 24.9702 190.54 24.8461C190.622 24.5566 190.746 24.267 190.828 23.9775C190.87 23.8534 190.911 23.6879 190.952 23.5638C190.993 23.3984 191.076 23.1916 191.117 23.0261C191.2 22.7779 191.241 22.5711 191.323 22.3229C191.365 22.1575 191.406 21.9506 191.447 21.7852C191.488 21.5784 191.53 21.3715 191.571 21.1647C191.612 21.0406 191.612 20.8752 191.653 20.7511C191.695 20.4615 191.777 20.1306 191.818 19.8411C191.818 19.717 191.86 19.5929 191.86 19.4688C191.901 19.1379 191.942 18.807 191.983 18.4761C191.983 18.3933 191.983 18.352 192.025 18.2692C192.066 17.9383 192.107 17.6488 192.107 17.3179C192.107 17.2351 192.107 17.1524 192.148 17.0697C192.19 16.6974 192.19 16.3251 192.231 15.9529C192.231 15.8701 192.231 15.7874 192.231 15.7047C192.231 15.3324 192.272 14.9187 192.272 14.5465C192.272 14.1328 192.272 13.7192 192.231 13.2642C192.231 13.1401 192.231 13.016 192.19 12.8505C192.19 12.561 192.148 12.2714 192.148 12.0233C192.148 11.8578 192.107 11.6923 192.107 11.5269C192.066 11.2787 192.066 11.0305 192.025 10.7823C192.025 10.6169 191.983 10.4514 191.942 10.2446C191.901 9.99642 191.901 9.7896 191.86 9.54141C191.818 9.37596 191.818 9.16914 191.777 9.00368C191.736 8.79686 191.695 8.54868 191.653 8.34186C191.612 8.1764 191.571 7.96958 191.53 7.80412C191.488 7.5973 191.447 7.39048 191.406 7.18366C191.365 7.0182 191.323 6.81138 191.282 6.64593C191.241 6.43911 191.158 6.23228 191.117 6.02546C191.076 5.86001 191.035 5.65319 190.952 5.48773C190.911 5.28091 190.828 5.11545 190.787 4.90863C190.746 4.74318 190.663 4.53636 190.622 4.3709C190.54 4.16408 190.498 3.99862 190.416 3.83317C190.333 3.66771 190.292 3.46089 190.21 3.29543C190.127 3.12998 190.086 2.92316 190.003 2.7577C189.921 2.59224 189.839 2.38542 189.797 2.21997C189.715 2.05451 189.632 1.88905 189.55 1.7236C189.467 1.55814 189.385 1.39268 189.302 1.18586C189.22 1.02041 189.137 0.85495 189.055 0.689494C188.972 0.524037 188.89 0.358581 188.766 0.193125C188.684 0.0276682 188.601 -0.137788 188.477 -0.26188C188.395 -0.427337 188.271 -0.592793 188.189 -0.75825C188.106 -0.923706 187.982 -1.0478 187.9 -1.21325C187.611 -1.66826 187.281 -2.12327 186.951 -2.57827C186.704 -2.90918 186.456 -3.19873 186.209 -3.48828L179.321 3.62635Z" fill="url(#paint1_linear_337_9040)"/>
  <path d="M606.387 367.764C645.094 367.633 676.367 336.06 676.238 297.241C676.108 258.423 644.624 227.06 605.917 227.19C567.21 227.32 535.936 258.894 536.066 297.712C536.196 336.531 567.679 367.894 606.387 367.764Z" fill="#0074F0"/>
  <path opacity="0.2" d="M649.96 341.13C673.99 316.87 673.87 277.643 649.679 253.543C625.488 229.444 586.373 229.565 562.342 253.825L649.96 341.13Z" fill="white"/>
  <path d="M603.29 269.717C604.231 269.621 605.185 269.571 606.152 269.571C621.514 269.571 633.967 282.061 633.967 297.467C633.967 309.481 626.394 319.721 615.775 323.648L606.337 336.959C628 336.859 645.531 319.216 645.531 297.467C645.531 277.044 630.073 260.242 610.251 258.186L603.29 269.717Z" fill="white"/>
  <path d="M605.258 257.984C583.922 258.461 566.772 275.955 566.772 297.467C566.772 317.592 581.782 334.201 601.188 336.649L609.317 325.184C608.278 325.302 607.222 325.362 606.152 325.362C590.789 325.362 578.336 312.873 578.336 297.467C578.336 285.121 586.333 274.649 597.415 270.975L605.258 257.984Z" fill="white"/>
  <path d="M615.775 323.648C626.395 319.721 633.968 309.481 633.968 297.467H645.532C645.532 319.216 628.001 336.859 606.337 336.959L615.775 323.648Z" fill="url(#paint2_linear_337_9040)"/>
  <path d="M605.258 257.984C583.922 258.461 566.772 275.955 566.772 297.467C566.772 297.467 578.336 297.634 578.336 297.467C578.336 285.121 586.333 274.649 597.415 270.975L605.258 257.984Z" fill="url(#paint3_linear_337_9040)"/>
  <path d="M606.081 329.752L625.854 301.827L606.081 313.529L586.319 301.827L606.081 329.752Z" fill="white"/>
  <path opacity="0.1" d="M606.081 329.752L625.853 301.827L606.081 313.529V329.752Z" fill="#0074F0"/>
  <path d="M606.021 309.823L625.892 298.099L606.021 265.185L586.15 298.099L606.021 309.823Z" fill="url(#paint4_linear_337_9040)"/>
  <path d="M606.021 309.823L625.892 298.099L606.021 265.185L586.15 298.099L606.021 309.823Z" fill="white"/>
  <path opacity="0.1" d="M606.021 309.822L586.149 298.099L606.021 265.185L606.021 309.822Z" fill="#0074F0"/>
  <path opacity="0.1" d="M606.02 309.823V288.757L586.149 298.099L606.02 309.823Z" fill="#0074F0"/>
  <path opacity="0.1" d="M606.021 309.823V288.757L625.892 298.099L606.021 309.823Z" fill="#0074F0"/>
  <path d="M195.084 334.36C208.496 334.36 219.368 323.488 219.368 310.076C219.368 296.664 208.496 285.792 195.084 285.792C181.673 285.792 170.8 296.664 170.8 310.076C170.8 323.488 181.673 334.36 195.084 334.36Z" fill="#FF1D1D"/>
  <path fill-rule="evenodd" clip-rule="evenodd" d="M204.152 322.738C204.695 321.504 204.306 320.122 203.933 318.798C203.558 317.467 203.2 316.195 203.822 315.191C204.155 314.654 204.621 314.094 205.132 313.482L205.132 313.482L205.132 313.482L205.132 313.482C206.527 311.808 208.25 309.74 208.468 306.666C208.578 305.108 208.353 304.1 207.209 302.392C203.35 296.624 191.197 292.028 186.226 295.437C185.413 295.995 184.834 296.431 183.875 297.307C181.931 299.081 181.491 300.907 181.947 303.043C181.97 303.151 181.996 303.275 182.025 303.414C182.566 306.026 184.221 314.007 190.714 322.396C194.716 327.146 195.939 326.866 196.959 326.632C197.049 326.611 197.136 326.591 197.224 326.575C198.317 326.371 203.061 325.213 204.152 322.739L204.152 322.738ZM201.708 321.897C199.73 323.565 197.791 322.692 194.745 319.076C191.7 315.46 182.407 302.128 187.48 297.85C192.555 293.572 202.103 299.709 205.078 303.238C208.052 306.769 204.589 310.359 202.55 312.077C201.523 312.943 201.819 315.005 202.113 317.051C202.402 319.067 202.689 321.068 201.707 321.895L201.708 321.897ZM190.189 310.14L196.244 313.584L202.265 310.07L196.269 318.403L190.189 310.14ZM189.854 308.397L196.281 298.68L202.577 308.323L196.235 312.028L189.854 308.397ZM200.494 320.365C201.902 319.478 200.26 315.058 200.26 315.058L200.26 315.056L197.282 319.237C197.282 319.237 199.087 321.253 200.494 320.365ZM194.993 298.206C194.993 298.206 189.147 297.196 187.884 299.428C186.358 302.126 188.824 307.203 188.824 307.203L194.993 298.206ZM204.813 305.392C204.737 303.612 198.92 299.925 198.92 299.925L203.72 307.629C203.72 307.629 204.89 307.173 204.813 305.392Z" fill="white"/>
  <path opacity="0.2" d="M210.263 325.154C218.59 316.77 218.545 303.224 210.162 294.898C201.779 286.572 188.233 286.616 179.906 295L210.263 325.154Z" fill="white"/>
  <path fill-rule="evenodd" clip-rule="evenodd" d="M367.454 47.5049C438.553 47.5049 496.183 105.305 496.183 176.603C496.183 247.906 438.553 305.701 367.454 305.701C296.365 305.701 238.725 247.906 238.725 176.603C238.725 105.31 296.36 47.5049 367.454 47.5049Z" fill="#0074F0"/>
  <path fill-rule="evenodd" clip-rule="evenodd" d="M403.739 161.04C404.685 165.782 405.183 170.983 405.183 176.598C405.183 206.837 391.037 224.892 367.346 224.892C357.466 224.892 349.129 221.717 342.842 215.667L425.316 132.847C423.106 128.919 420.588 125.245 417.75 121.891C416.556 120.483 415.302 119.161 414.023 117.883L414.032 117.868C413.863 117.703 413.684 117.543 413.52 117.379C413.137 117.004 412.773 116.615 412.385 116.256L412.36 116.271C400.39 105.06 384.99 99.1445 367.346 99.1445C346.954 99.1445 329.558 107.011 317.045 121.891C305.279 135.887 298.798 155.319 298.798 176.598C298.798 190.744 301.675 204.052 307.046 215.502L330.976 191.473C330.145 186.921 329.722 181.959 329.722 176.598C329.722 162.682 332.544 151.426 338.109 143.15C344.629 133.441 354.743 128.305 367.346 128.305C377.156 128.305 385.323 131.415 391.535 137.19L309.226 219.85C311.49 223.973 314.103 227.812 317.04 231.311C317.632 232.009 318.24 232.683 318.852 233.352L318.867 233.367C319.574 234.141 320.295 234.89 321.027 235.618L321.306 235.898C321.54 236.128 321.764 236.372 322.002 236.597L322.027 236.577C334.008 248.022 349.522 254.062 367.341 254.062C387.747 254.062 405.173 246.195 417.746 231.311C429.577 217.299 436.097 197.867 436.097 176.603C436.097 162.243 433.11 148.731 427.536 137.145L403.734 161.045L403.739 161.04Z" fill="white"/>
  <defs>
    <linearGradient id="paint0_linear_337_9040" x1="161.498" y1="17.0143" x2="142.105" y2="2.61753" gradientUnits="userSpaceOnUse">
      <stop offset="0.00058093" stop-color="white"/>
      <stop offset="1" stop-color="#1E313F"/>
    </linearGradient>
    <linearGradient id="paint1_linear_337_9040" x1="178.379" y1="9.73972" x2="196.29" y2="23.664" gradientUnits="userSpaceOnUse">
      <stop offset="0.00058093" stop-color="white"/>
      <stop offset="0.9967" stop-color="#4E5A64"/>
    </linearGradient>
    <linearGradient id="paint2_linear_337_9040" x1="580.225" y1="346.95" x2="623.669" y2="318.573" gradientUnits="userSpaceOnUse">
      <stop stop-color="#1A82FF" stop-opacity="0.5"/>
      <stop offset="1" stop-color="white"/>
    </linearGradient>
    <linearGradient id="paint3_linear_337_9040" x1="627.404" y1="239.806" x2="585.827" y2="269.761" gradientUnits="userSpaceOnUse">
      <stop stop-color="#1A82FF" stop-opacity="0.5"/>
      <stop offset="1" stop-color="white"/>
    </linearGradient>
    <linearGradient id="paint4_linear_337_9040" x1="563.746" y1="277.104" x2="598.612" y2="298.321" gradientUnits="userSpaceOnUse">
      <stop stop-color="#1C313F"/>
      <stop offset="1" stop-color="white"/>
    </linearGradient>
  </defs>
</svg>
