<svg viewBox="0 0 33 40" fill="none"
  xmlns="http://www.w3.org/2000/svg">
  <path fill-rule="evenodd" clip-rule="evenodd" d="M27.5599 35.0706C28.2295 33.5504 27.7501 31.848 27.2908 30.2171C26.829 28.5776 26.3876 27.0103 27.1542 25.7727C27.5639 25.1112 28.1386 24.4217 28.7676 23.6671C30.486 21.6054 32.6093 19.0579 32.8779 15.2704C33.0132 13.3502 32.7362 12.1094 31.3266 10.0041C26.5721 2.89825 11.6 -2.76353 5.47594 1.43649C4.47371 2.12333 3.76095 2.66101 2.57932 3.73984C0.18397 5.92584 -0.358473 8.17509 0.203509 10.8067C0.231955 10.9396 0.263593 11.0922 0.299117 11.2635C0.96649 14.4823 3.00511 24.3146 11.0042 34.6493C15.9354 40.5016 17.4415 40.1563 18.6989 39.868L18.699 39.8679L18.699 39.8679L18.6991 39.8679C18.809 39.8427 18.917 39.818 19.0252 39.7978C20.3718 39.5471 26.2163 38.1201 27.5603 35.0727L27.5599 35.0706ZM24.5491 34.035C22.1128 36.0897 19.7232 35.0141 15.9711 30.5592C12.2191 26.1044 0.769937 9.67939 7.02043 4.40888C13.2731 -0.862048 25.036 6.69949 28.701 11.0474C32.3651 15.3967 28.0987 19.8199 25.5871 21.9368C24.3218 23.0032 24.6862 25.5437 25.0478 28.0651C25.404 30.5485 25.7575 33.0134 24.5486 34.0329L24.5491 34.035ZM10.3573 19.5506L17.8172 23.7943L25.2361 19.4642L17.8479 29.731L10.3573 19.5506ZM9.94442 17.403L17.8626 5.4322L25.6204 17.312L17.806 21.8771L9.94442 17.403ZM23.0545 32.1485C24.7883 31.0552 22.7656 25.6097 22.7656 25.6097L22.7652 25.6075L19.0961 30.7587C19.0961 30.7587 21.3207 33.2418 23.0545 32.1485ZM16.2761 4.84806C16.2761 4.84806 9.0742 3.60376 7.51786 6.35416C5.63803 9.67713 8.67664 15.9324 8.67664 15.9324L16.2761 4.84806ZM28.3754 13.7017C28.2808 11.5078 21.1146 6.96588 21.1146 6.96588L27.0289 16.4566C27.0289 16.4566 28.4701 15.8956 28.3754 13.7017Z" fill="#FF1D1D"/>
</svg>
