<svg viewBox="0 0 356 76" fill="none"
  xmlns="http://www.w3.org/2000/svg">
  <path d="M13.4922 -40.6196V116.92C13.4922 126.946 18.8339 136.233 27.545 141.246L163.964 219.974C172.676 224.987 183.359 224.987 192.07 219.974L328.49 141.246C337.201 136.233 342.542 126.946 342.542 116.92V-40.6196C342.542 -50.6456 337.201 -59.932 328.49 -64.945L192.07 -143.674C183.359 -148.687 172.676 -148.687 163.964 -143.674L27.545 -64.945C18.9161 -59.932 13.4922 -50.6456 13.4922 -40.6196Z" fill="#21314730"/>
  <path d="M207.814 68.6759L188.338 122.011C187.762 123.49 187.762 125.134 188.338 126.613L221.785 218.409L260.492 196.055L214.06 68.6759C212.992 65.7174 208.883 65.7174 207.814 68.6759Z" fill="#12AAFF30"/>
  <path d="M246.763 -21.0702C245.695 -24.0287 241.586 -24.0287 240.518 -21.0702L221.041 32.2649C220.466 33.7441 220.466 35.3877 221.041 36.867L275.855 187.175L314.562 164.822L246.763 -21.0702Z" fill="#12AAFF30"/>
  <path d="M177.995 -137.842C178.981 -137.842 179.885 -137.595 180.789 -137.102L328.385 -51.8808C330.111 -50.8947 331.179 -49.0867 331.179 -47.1144V123.328C331.179 125.3 330.111 127.108 328.385 128.094L180.789 213.397C179.967 213.891 178.981 214.137 177.995 214.137C177.009 214.137 176.105 213.891 175.201 213.397L27.687 128.176C25.9612 127.19 24.8928 125.382 24.8928 123.41V-47.1144C24.8928 -49.0867 25.9612 -50.8947 27.687 -51.8808L175.283 -137.102C176.105 -137.595 177.091 -137.842 177.995 -137.842ZM177.995 -162.742C172.735 -162.742 167.476 -161.345 162.792 -158.633L15.1956 -73.4121C5.827 -67.9882 -0.0078125 -57.9622 -0.0078125 -47.1144V123.328C-0.0078125 134.176 5.827 144.284 15.1956 149.708L162.792 234.929C167.476 237.641 172.735 239.038 177.995 239.038C183.254 239.038 188.514 237.641 193.198 234.929L340.794 149.708C350.245 144.284 355.998 134.258 355.998 123.328V-47.1144C355.998 -57.9622 350.163 -68.0704 340.794 -73.4943L193.28 -158.633C188.514 -161.345 183.254 -162.742 177.995 -162.742Z" fill="#9DCCED30"/>
  <path d="M165.596 -59.2891H128.204C125.41 -59.2891 122.862 -57.5633 121.958 -54.9335L41.75 164.981L80.457 187.334L168.801 -54.8513C169.54 -56.988 167.979 -59.2891 165.596 -59.2891Z" fill="#ffffff30"/>
  <path d="M231.074 -59.2891H193.682C190.887 -59.2891 188.34 -57.5633 187.436 -54.9335L95.8047 196.21L134.512 218.563L234.196 -54.7691C235.018 -56.988 233.375 -59.2891 231.074 -59.2891Z" fill="#ffffff30"/>
</svg>
