<svg viewBox="0 0 516 229" fill="none"
  xmlns="http://www.w3.org/2000/svg">
  <g clip-path="url(#clip0_3362_135844)">
    <mask id="mask0_3362_135844" style="mask-type:luminance" maskUnits="userSpaceOnUse" x="66" y="-30" width="472" height="290">
      <rect x="66" y="-30" width="472" height="290" fill="url(#paint0_linear_3362_135844)"/>
    </mask>
    <g mask="url(#mask0_3362_135844)">
      <path d="M1436.01 1455.43C911.306 1455.43 485.948 1030 485.948 505.199C485.948 -19.5993 911.306 -445.032 1436.01 -445.032C1960.72 -445.032 2386.08 -19.5995 2386.08 505.198C2386.08 1030 1960.72 1455.43 1436.01 1455.43Z" stroke="url(#paint1_linear_3362_135844)" stroke-miterlimit="10"/>
      <path d="M1390.2 1514.42C860.396 1514.42 430.902 1084.85 430.902 554.95C430.902 25.0487 860.396 -404.521 1390.2 -404.521C1920.01 -404.521 2349.51 25.0485 2349.51 554.95C2349.51 1084.85 1920.01 1514.42 1390.2 1514.42Z" stroke="url(#paint2_linear_3362_135844)" stroke-miterlimit="10"/>
      <path d="M1341.67 1574.6C806.743 1574.6 373.103 1140.88 373.103 605.866C373.103 70.8494 806.743 -362.867 1341.67 -362.867C1876.59 -362.867 2310.23 70.8492 2310.23 605.866C2310.23 1140.88 1876.59 1574.6 1341.67 1574.6Z" stroke="url(#paint3_linear_3362_135844)" stroke-miterlimit="10"/>
      <path d="M1290.45 1635.64C750.423 1635.64 312.646 1197.79 312.646 657.667C312.646 117.547 750.423 -320.307 1290.45 -320.307C1830.47 -320.307 2268.25 117.547 2268.25 657.667C2268.25 1197.79 1830.47 1635.64 1290.45 1635.64Z" stroke="url(#paint4_linear_3362_135844)" stroke-miterlimit="10"/>
      <path d="M1236.56 1697.25C691.43 1697.25 249.517 1255.26 249.517 710.033C249.517 164.809 691.43 -277.182 1236.56 -277.182C1781.68 -277.182 2223.6 164.809 2223.6 710.032C2223.6 1255.26 1781.69 1697.25 1236.56 1697.25Z" stroke="url(#paint5_linear_3362_135844)" stroke-miterlimit="10"/>
      <path d="M1180.09 1759.2C629.851 1759.2 183.793 1313.07 183.793 762.728C183.793 212.389 629.851 -233.748 1180.09 -233.748C1730.33 -233.748 2176.39 212.389 2176.39 762.727C2176.39 1313.07 1730.33 1759.2 1180.09 1759.2Z" stroke="url(#paint6_linear_3362_135844)" stroke-miterlimit="10"/>
      <path d="M1121.1 1821.13C565.752 1821.13 115.557 1370.85 115.556 815.41C115.556 259.968 565.752 -190.307 1121.1 -190.307C1676.44 -190.307 2126.64 259.968 2126.64 815.41C2126.64 1370.85 1676.44 1821.13 1121.1 1821.13Z" stroke="url(#paint7_linear_3362_135844)" stroke-miterlimit="10"/>
      <path d="M1059.59 1882.75C499.148 1882.75 44.8157 1428.34 44.8156 867.791C44.8156 307.246 499.148 -147.166 1059.59 -147.166C1620.04 -147.166 2074.37 307.246 2074.37 867.791C2074.37 1428.34 1620.04 1882.75 1059.59 1882.75Z" stroke="url(#paint8_linear_3362_135844)" stroke-miterlimit="10"/>
      <path d="M995.679 1943.83C430.119 1943.83 -28.3589 1485.27 -28.3589 919.613C-28.359 353.953 430.118 -104.605 995.679 -104.605C1561.24 -104.605 2019.72 353.953 2019.72 919.613C2019.72 1485.27 1561.24 1943.83 995.679 1943.83Z" stroke="url(#paint9_linear_3362_135844)" stroke-miterlimit="10"/>
      <path d="M929.382 2004.01C358.719 2004.01 -103.895 1541.32 -103.895 970.553C-103.895 399.789 358.719 -62.9061 929.382 -62.9062C1500.05 -62.9062 1962.66 399.789 1962.66 970.553C1962.66 1541.32 1500.05 2004.01 929.382 2004.01Z" stroke="url(#paint10_linear_3362_135844)" stroke-miterlimit="10"/>
      <path d="M860.758 2063.02C284.992 2063.02 -181.759 1596.19 -181.759 1020.32C-181.759 444.454 284.992 -22.3788 860.758 -22.3788C1436.52 -22.3789 1903.27 444.453 1903.27 1020.32C1903.27 1596.19 1436.52 2063.02 860.758 2063.02Z" stroke="url(#paint11_linear_3362_135844)" stroke-miterlimit="10"/>
      <path d="M789.871 2120.58C208.991 2120.58 -261.905 1649.6 -261.905 1068.62C-261.905 487.639 208.991 16.6603 789.871 16.6602C1370.75 16.6602 1841.65 487.639 1841.65 1068.62C1841.65 1649.6 1370.75 2120.58 789.871 2120.58Z" stroke="url(#paint12_linear_3362_135844)" stroke-miterlimit="10"/>
      <path d="M716.76 2176.4C130.777 2176.4 -344.255 1701.28 -344.255 1115.19C-344.255 529.109 130.777 53.9923 716.76 53.9923C1302.74 53.9922 1777.77 529.108 1777.77 1115.19C1777.77 1701.28 1302.74 2176.4 716.76 2176.4Z" stroke="url(#paint13_linear_3362_135844)" stroke-miterlimit="10"/>
      <path d="M641.489 2230.15C50.4035 2230.15 -428.766 1750.9 -428.766 1159.71C-428.766 568.523 50.4033 89.2697 641.488 89.2696C1232.57 89.2696 1711.74 568.523 1711.74 1159.71C1711.74 1750.9 1232.57 2230.15 641.489 2230.15Z" stroke="url(#paint14_linear_3362_135844)" stroke-miterlimit="10"/>
      <path d="M564.095 2281.6C-32.1043 2281.6 -515.419 1798.2 -515.419 1201.9C-515.419 605.595 -32.1045 122.195 564.095 122.195C1160.29 122.195 1643.61 605.595 1643.61 1201.9C1643.61 1798.2 1160.29 2281.6 564.095 2281.6Z" stroke="url(#paint15_linear_3362_135844)" stroke-miterlimit="10"/>
      <path d="M484.626 2330.41C-116.676 2330.41 -604.127 1842.87 -604.127 1241.47C-604.127 640.059 -116.676 152.522 484.626 152.522C1085.93 152.522 1573.38 640.059 1573.38 1241.47C1573.38 1842.87 1085.93 2330.41 484.626 2330.41Z" stroke="url(#paint16_linear_3362_135844)" stroke-miterlimit="10"/>
      <path d="M403.184 2376.3C-203.22 2376.3 -694.808 1884.62 -694.808 1278.11C-694.808 671.6 -203.22 179.926 403.184 179.926C1009.59 179.926 1501.18 671.6 1501.18 1278.11C1501.18 1884.62 1009.59 2376.3 403.184 2376.3Z" stroke="url(#paint17_linear_3362_135844)" stroke-miterlimit="10"/>
      <path d="M319.768 2419C-291.75 2419 -787.484 1923.18 -787.484 1311.56C-787.484 699.93 -291.75 204.11 319.768 204.109C931.286 204.109 1427.02 699.93 1427.02 1311.56C1427.02 1923.18 931.287 2419 319.768 2419Z" stroke="url(#paint18_linear_3362_135844)" stroke-miterlimit="10"/>
      <path d="M234.454 2458.19C-382.167 2458.19 -882.037 1958.24 -882.037 1341.51C-882.037 724.778 -382.167 224.82 234.454 224.82C851.075 224.82 1350.94 724.778 1350.94 1341.51C1350.94 1958.24 851.075 2458.19 234.454 2458.19Z" stroke="url(#paint19_linear_3362_135844)" stroke-miterlimit="10"/>
      <path d="M-527.163 2608C-1184.64 2608 -1717.63 2074.91 -1717.63 1417.32C-1717.63 759.73 -1184.64 226.647 -527.163 226.647C130.312 226.647 663.302 759.73 663.302 1417.32C663.302 2074.91 130.313 2608 -527.163 2608Z" stroke="url(#paint20_linear_3362_135844)" stroke-miterlimit="10"/>
      <path d="M-626.737 2600.32C-1289.32 2600.32 -1826.44 2063.1 -1826.44 1400.41C-1826.44 737.713 -1289.32 200.492 -626.737 200.492C35.8412 200.492 572.967 737.713 572.967 1400.41C572.967 2063.1 35.8414 2600.32 -626.737 2600.32Z" stroke="url(#paint21_linear_3362_135844)" stroke-miterlimit="10"/>
      <path d="M-721.781 2586.63C-1389.47 2586.63 -1930.75 2045.26 -1930.75 1377.45C-1930.75 709.639 -1389.47 168.272 -721.782 168.272C-54.0891 168.272 487.183 709.638 487.183 1377.45C487.183 2045.26 -54.0889 2586.63 -721.781 2586.63Z" stroke="url(#paint22_linear_3362_135844)" stroke-miterlimit="10"/>
      <path d="M-812.404 2567.33C-1485.2 2567.33 -2030.61 2021.83 -2030.61 1348.91C-2030.61 675.998 -1485.2 130.494 -812.405 130.494C-139.609 130.494 405.799 675.998 405.799 1348.91C405.799 2021.83 -139.609 2567.33 -812.404 2567.33Z" stroke="url(#paint23_linear_3362_135844)" stroke-miterlimit="10"/>
      <path d="M-898.704 2542.9C-1576.6 2542.9 -2126.15 1993.26 -2126.15 1315.24C-2126.15 637.226 -1576.6 87.5841 -898.705 87.5841C-220.807 87.584 328.738 637.225 328.738 1315.24C328.738 1993.26 -220.806 2542.9 -898.704 2542.9Z" stroke="url(#paint24_linear_3362_135844)" stroke-miterlimit="10"/>
      <path d="M-980.748 2513.77C-1663.76 2513.77 -2217.45 1959.98 -2217.45 1276.85C-2217.45 593.718 -1663.76 39.9298 -980.748 39.9298C-297.736 39.9297 255.954 593.717 255.954 1276.85C255.954 1959.98 -297.736 2513.77 -980.748 2513.77Z" stroke="url(#paint25_linear_3362_135844)" stroke-miterlimit="10"/>
      <path d="M-1058.63 2480.39C-1746.74 2480.39 -2304.57 1922.47 -2304.57 1234.23C-2304.57 545.997 -1746.75 -11.9276 -1058.63 -11.9276C-370.516 -11.9277 187.311 545.997 187.311 1234.23C187.311 1922.47 -370.516 2480.39 -1058.63 2480.39Z" stroke="url(#paint26_linear_3362_135844)" stroke-miterlimit="10"/>
      <path d="M-1132.42 2443.2C-1825.64 2443.2 -2387.6 1881.14 -2387.6 1187.8C-2387.6 494.465 -1825.64 -67.5975 -1132.42 -67.5976C-439.203 -67.5976 122.761 494.465 122.761 1187.8C122.761 1881.14 -439.202 2443.2 -1132.42 2443.2Z" stroke="url(#paint27_linear_3362_135844)" stroke-miterlimit="10"/>
    </g>
  </g>
  <defs>
    <linearGradient id="paint0_linear_3362_135844" x1="538" y1="115" x2="66" y2="115" gradientUnits="userSpaceOnUse">
      <stop stop-color="white"/>
      <stop offset="0.765"/>
    </linearGradient>
    <linearGradient id="paint1_linear_3362_135844" x1="2386.59" y1="505.199" x2="485.433" y2="505.199" gradientUnits="userSpaceOnUse">
      <stop stop-color="#1A82FF"/>
      <stop offset="1" stop-color="#7A26F3"/>
    </linearGradient>
    <linearGradient id="paint2_linear_3362_135844" x1="2350.04" y1="554.95" x2="430.387" y2="554.95" gradientUnits="userSpaceOnUse">
      <stop stop-color="#1A82FF"/>
      <stop offset="1" stop-color="#7A26F3"/>
    </linearGradient>
    <linearGradient id="paint3_linear_3362_135844" x1="2310.74" y1="605.865" x2="372.609" y2="605.866" gradientUnits="userSpaceOnUse">
      <stop stop-color="#1A82FF"/>
      <stop offset="1" stop-color="#7A26F3"/>
    </linearGradient>
    <linearGradient id="paint4_linear_3362_135844" x1="2268.74" y1="657.667" x2="312.132" y2="657.667" gradientUnits="userSpaceOnUse">
      <stop stop-color="#1A82FF"/>
      <stop offset="1" stop-color="#7A26F3"/>
    </linearGradient>
    <linearGradient id="paint5_linear_3362_135844" x1="2224.11" y1="710.032" x2="249.002" y2="710.033" gradientUnits="userSpaceOnUse">
      <stop stop-color="#1A82FF"/>
      <stop offset="1" stop-color="#7A26F3"/>
    </linearGradient>
    <linearGradient id="paint6_linear_3362_135844" x1="2176.91" y1="762.727" x2="183.278" y2="762.728" gradientUnits="userSpaceOnUse">
      <stop stop-color="#1A82FF"/>
      <stop offset="1" stop-color="#7A26F3"/>
    </linearGradient>
    <linearGradient id="paint7_linear_3362_135844" x1="2127.15" y1="815.41" x2="115.042" y2="815.41" gradientUnits="userSpaceOnUse">
      <stop stop-color="#1A82FF"/>
      <stop offset="1" stop-color="#7A26F3"/>
    </linearGradient>
    <linearGradient id="paint8_linear_3362_135844" x1="2074.91" y1="867.791" x2="44.3012" y2="867.791" gradientUnits="userSpaceOnUse">
      <stop stop-color="#1A82FF"/>
      <stop offset="1" stop-color="#7A26F3"/>
    </linearGradient>
    <linearGradient id="paint9_linear_3362_135844" x1="2020.23" y1="919.613" x2="-28.8734" y2="919.613" gradientUnits="userSpaceOnUse">
      <stop stop-color="#1A82FF"/>
      <stop offset="1" stop-color="#7A26F3"/>
    </linearGradient>
    <linearGradient id="paint10_linear_3362_135844" x1="1963.17" y1="970.553" x2="-104.41" y2="970.553" gradientUnits="userSpaceOnUse">
      <stop stop-color="#1A82FF"/>
      <stop offset="1" stop-color="#7A26F3"/>
    </linearGradient>
    <linearGradient id="paint11_linear_3362_135844" x1="1903.81" y1="1020.32" x2="-182.273" y2="1020.32" gradientUnits="userSpaceOnUse">
      <stop stop-color="#1A82FF"/>
      <stop offset="1" stop-color="#7A26F3"/>
    </linearGradient>
    <linearGradient id="paint12_linear_3362_135844" x1="1842.16" y1="1068.62" x2="-262.42" y2="1068.62" gradientUnits="userSpaceOnUse">
      <stop stop-color="#1A82FF"/>
      <stop offset="1" stop-color="#7A26F3"/>
    </linearGradient>
    <linearGradient id="paint13_linear_3362_135844" x1="1778.29" y1="1115.19" x2="-344.77" y2="1115.19" gradientUnits="userSpaceOnUse">
      <stop stop-color="#1A82FF"/>
      <stop offset="1" stop-color="#7A26F3"/>
    </linearGradient>
    <linearGradient id="paint14_linear_3362_135844" x1="1712.26" y1="1159.71" x2="-429.301" y2="1159.71" gradientUnits="userSpaceOnUse">
      <stop stop-color="#1A82FF"/>
      <stop offset="1" stop-color="#7A26F3"/>
    </linearGradient>
    <linearGradient id="paint15_linear_3362_135844" x1="1644.1" y1="1201.9" x2="-515.934" y2="1201.9" gradientUnits="userSpaceOnUse">
      <stop stop-color="#1A82FF"/>
      <stop offset="1" stop-color="#7A26F3"/>
    </linearGradient>
    <linearGradient id="paint16_linear_3362_135844" x1="1573.89" y1="1241.47" x2="-604.641" y2="1241.47" gradientUnits="userSpaceOnUse">
      <stop stop-color="#1A82FF"/>
      <stop offset="1" stop-color="#7A26F3"/>
    </linearGradient>
    <linearGradient id="paint17_linear_3362_135844" x1="1501.69" y1="1278.11" x2="-695.343" y2="1278.11" gradientUnits="userSpaceOnUse">
      <stop stop-color="#1A82FF"/>
      <stop offset="1" stop-color="#7A26F3"/>
    </linearGradient>
    <linearGradient id="paint18_linear_3362_135844" x1="1427.53" y1="1311.56" x2="-787.998" y2="1311.56" gradientUnits="userSpaceOnUse">
      <stop stop-color="#1A82FF"/>
      <stop offset="1" stop-color="#7A26F3"/>
    </linearGradient>
    <linearGradient id="paint19_linear_3362_135844" x1="1351.46" y1="1341.51" x2="-882.572" y2="1341.51" gradientUnits="userSpaceOnUse">
      <stop stop-color="#1A82FF"/>
      <stop offset="1" stop-color="#7A26F3"/>
    </linearGradient>
    <linearGradient id="paint20_linear_3362_135844" x1="663.816" y1="1417.32" x2="-1718.14" y2="1417.32" gradientUnits="userSpaceOnUse">
      <stop stop-color="#1A82FF"/>
      <stop offset="1" stop-color="#7A26F3"/>
    </linearGradient>
    <linearGradient id="paint21_linear_3362_135844" x1="573.502" y1="1400.41" x2="-1826.96" y2="1400.41" gradientUnits="userSpaceOnUse">
      <stop stop-color="#1A82FF"/>
      <stop offset="1" stop-color="#7A26F3"/>
    </linearGradient>
    <linearGradient id="paint22_linear_3362_135844" x1="487.697" y1="1377.45" x2="-1931.26" y2="1377.45" gradientUnits="userSpaceOnUse">
      <stop stop-color="#1A82FF"/>
      <stop offset="1" stop-color="#7A26F3"/>
    </linearGradient>
    <linearGradient id="paint23_linear_3362_135844" x1="406.313" y1="1348.91" x2="-2031.12" y2="1348.91" gradientUnits="userSpaceOnUse">
      <stop stop-color="#1A82FF"/>
      <stop offset="1" stop-color="#7A26F3"/>
    </linearGradient>
    <linearGradient id="paint24_linear_3362_135844" x1="329.252" y1="1315.24" x2="-2126.68" y2="1315.24" gradientUnits="userSpaceOnUse">
      <stop stop-color="#1A82FF"/>
      <stop offset="1" stop-color="#7A26F3"/>
    </linearGradient>
    <linearGradient id="paint25_linear_3362_135844" x1="256.448" y1="1276.85" x2="-2217.96" y2="1276.85" gradientUnits="userSpaceOnUse">
      <stop stop-color="#1A82FF"/>
      <stop offset="1" stop-color="#7A26F3"/>
    </linearGradient>
    <linearGradient id="paint26_linear_3362_135844" x1="187.825" y1="1234.23" x2="-2305.09" y2="1234.23" gradientUnits="userSpaceOnUse">
      <stop stop-color="#1A82FF"/>
      <stop offset="1" stop-color="#7A26F3"/>
    </linearGradient>
    <linearGradient id="paint27_linear_3362_135844" x1="123.275" y1="1187.8" x2="-2388.11" y2="1187.8" gradientUnits="userSpaceOnUse">
      <stop stop-color="#1A82FF"/>
      <stop offset="1" stop-color="#7A26F3"/>
    </linearGradient>
    <clipPath id="clip0_3362_135844">
      <rect width="376.717" height="599.61" fill="white" transform="translate(424.881 -168.123) rotate(45)"/>
    </clipPath>
  </defs>
</svg>
