<svg fill="none"
  xmlns="http://www.w3.org/2000/svg" viewBox="5.9 5.9 28.12 28.18">
  <path d="M18.3935 5.98928C18.5869 5.96593 18.9538 5.93925 19.2106 5.92591C19.4674 5.90924 19.7609 5.8959 19.861 5.8959C19.961 5.89257 20.3146 5.9059 20.6447 5.92258C20.9749 5.94259 21.4318 5.97927 21.662 6.00928C21.8921 6.03596 22.2823 6.09932 22.5291 6.14268C22.7759 6.18936 23.2028 6.28274 23.4796 6.3561C23.7531 6.42614 24.1667 6.54619 24.3968 6.62289C24.6269 6.69959 25.0172 6.84299 25.264 6.94637C25.5108 7.04641 25.9477 7.24317 26.2312 7.38656C26.5147 7.52662 26.9416 7.7634 27.1817 7.90679C27.4185 8.05019 27.7353 8.25028 27.8821 8.35032C28.0288 8.4537 28.269 8.62711 28.4157 8.73716C28.5625 8.84721 28.8159 9.05064 28.9827 9.18736C29.1495 9.32743 29.4263 9.5742 29.5997 9.73761C29.7731 9.90435 30.0733 10.2045 30.2634 10.4079C30.4535 10.608 30.767 10.9715 30.9571 11.2083C31.1506 11.445 31.4541 11.8586 31.6308 12.1253C31.8109 12.3921 32.0544 12.7723 32.1711 12.9757C32.2845 13.1791 32.5046 13.596 32.6547 13.9095C32.8048 14.2229 33.0116 14.6931 33.1116 14.9599C33.215 15.2267 33.3518 15.6236 33.4185 15.8437C33.4852 16.0638 33.5819 16.4239 33.6353 16.644C33.6886 16.8641 33.772 17.2476 33.8154 17.4944C33.8621 17.7412 33.9254 18.1614 33.9588 18.4281C34.0055 18.8016 34.0188 19.1551 34.0188 19.9955C34.0188 20.8359 34.0055 21.1894 33.9588 21.5629C33.9254 21.8296 33.8621 22.2498 33.8154 22.4966C33.772 22.7434 33.682 23.1636 33.6153 23.4304C33.5486 23.6971 33.4151 24.154 33.3184 24.4475C33.2217 24.7409 33.0483 25.1978 32.9349 25.4646C32.8248 25.7314 32.608 26.1883 32.4546 26.4817C32.3045 26.7752 32.0777 27.182 31.951 27.3821C31.8243 27.5822 31.6075 27.9157 31.4641 28.1158C31.3207 28.3159 31.0905 28.626 30.9504 28.7994C30.8104 28.9728 30.5369 29.2963 30.3401 29.5131C30.1433 29.7298 29.8098 30.07 29.5997 30.2634C29.3862 30.4568 29.0561 30.7469 28.866 30.9037C28.6725 31.0604 28.359 31.3039 28.1656 31.4406C27.9721 31.5806 27.6486 31.7974 27.4485 31.9275C27.2484 32.0542 26.8715 32.2743 26.6147 32.411C26.3579 32.5511 25.9377 32.7578 25.6809 32.8712C25.4241 32.9846 25.0338 33.1413 24.8137 33.2247C24.5936 33.3047 24.1867 33.4381 23.9132 33.5182C23.6364 33.5982 23.2328 33.7016 23.0127 33.7516C22.7926 33.8016 22.379 33.875 22.0955 33.9184C21.8121 33.9617 21.3918 34.0151 21.1617 34.0384C20.9316 34.0584 20.3846 34.0751 19.9444 34.0751C19.5041 34.0751 18.9571 34.0584 18.727 34.0384C18.4969 34.0151 18.07 33.9617 17.7765 33.915C17.483 33.8717 17.0094 33.7816 16.7259 33.7149C16.4424 33.6482 15.9221 33.5015 15.5753 33.3881C15.2251 33.2714 14.7548 33.098 14.5247 33.0013C14.2946 32.9079 13.861 32.7011 13.5575 32.5511C13.254 32.3977 12.7971 32.1409 12.5402 31.9842C12.2834 31.8241 11.9166 31.5806 11.7231 31.4406C11.5297 31.3005 11.2295 31.0704 11.0561 30.927C10.8827 30.787 10.5692 30.5168 10.3624 30.3268C10.1589 30.1367 9.82875 29.8099 9.63531 29.5998C9.44186 29.3897 9.14503 29.0429 8.97494 28.8328C8.80485 28.6227 8.5447 28.2758 8.39462 28.0658C8.24787 27.8557 8.0044 27.4788 7.85432 27.232C7.70424 26.9853 7.46744 26.5484 7.32402 26.265C7.18395 25.9815 6.97383 25.5146 6.86377 25.2312C6.75037 24.9477 6.59696 24.5175 6.52025 24.2807C6.44354 24.044 6.33014 23.6438 6.27011 23.397C6.21007 23.1502 6.12336 22.73 6.07333 22.4633C6.02664 22.1965 5.96661 21.7996 5.8999 21.1794L26.7981 21.1627V18.8283H5.90324L5.92992 18.5215C5.94659 18.3514 5.99329 17.9879 6.03998 17.7112C6.08667 17.4377 6.18006 16.9708 6.2501 16.6774C6.32347 16.3839 6.44354 15.947 6.52025 15.7103C6.59696 15.4735 6.7437 15.0666 6.84376 14.8099C6.94381 14.5531 7.14392 14.1029 7.28734 13.8094C7.43075 13.516 7.68756 13.0424 7.86099 12.759C8.03108 12.4755 8.28456 12.0853 8.4213 11.8919C8.55804 11.6985 8.81819 11.355 9.00162 11.1249C9.18506 10.8948 9.63531 10.4079 10.0022 10.0377C10.3724 9.67091 10.876 9.20737 11.1228 9.01062C11.3696 8.81053 11.8265 8.48038 12.14 8.27362C12.4535 8.0702 12.8271 7.83343 12.9738 7.75006C13.1206 7.66669 13.4241 7.50662 13.6509 7.39323C13.8743 7.28318 14.2579 7.10644 14.498 7.00306C14.7415 6.89968 15.2051 6.72627 15.5252 6.61956C15.8454 6.51618 16.3257 6.37611 16.5925 6.30942C16.8593 6.24272 17.2929 6.15268 17.5597 6.10933C17.8265 6.06264 18.2001 6.00928 18.3935 5.98928Z" fill="#0B59A6af"></path>
</svg>
