<svg viewBox="0 0 479 630" fill="none" xmlns="http://www.w3.org/2000/svg">
<path d="M1125 724.368C1075.22 710.974 1036.57 670.524 1025.84 619.795C1020.19 592.801 996.214 572.534 967.5 572.534C965.192 572.534 962.905 572.659 960.659 572.929C957.457 573.344 954.193 573.551 950.866 573.551C909.344 573.551 875.661 539.933 875.661 498.444C875.661 489.827 877.116 481.563 879.778 473.859C881.649 468.792 882.668 463.289 882.668 457.579C882.668 431.581 861.564 410.505 835.532 410.505C835.678 408.947 835.74 407.369 835.74 405.791C835.74 388.39 827.423 372.941 814.532 363.181C791.224 345.801 774.84 319.658 770.266 289.652C765.712 256.262 752.572 225.592 733.173 199.906C690.362 144.754 664.871 75.5236 664.871 0.33353M1116.54 726.212C1112.32 724.759 1108.16 723.077 1104.06 721.187C1071.75 706.299 1043.43 679.533 1026.53 648.302C1023.97 643.588 1021.7 638.75 1019.75 633.829C1018.13 629.759 1016.67 625.564 1015.45 621.266C1015.07 619.937 1014.66 618.629 1014.18 617.341C1005.53 593.628 982.054 575.126 955.44 573.527C953.174 573.403 950.949 573.403 948.724 573.527C945.564 573.756 942.341 573.797 939.056 573.652C923.982 573.008 909.656 568.294 897.43 560.902C895.392 559.656 893.417 558.348 891.525 556.957C888.24 554.548 885.163 551.89 882.314 549.004C869.714 536.337 861.668 519.227 860.732 500.289C860.295 491.838 861.273 483.656 863.456 475.952C864.994 470.886 865.743 465.404 865.556 459.693C864.849 438.866 851.438 420.884 833.39 413.782C828.962 412.038 824.242 410.958 819.314 410.667C819.439 409.089 819.481 407.49 819.46 405.891C819.273 388.324 811.039 372.667 798.335 362.472C775.339 344.302 758.58 318.014 752.821 288.361C747.269 255.677 733.734 225.36 714.439 199.653C683.812 159.909 662.292 112.835 652.957 61.5038C649.339 41.5694 647.551 21.0743 647.759 0.143164M1108.07 728.063C1104.12 726.36 1100.21 724.429 1096.33 722.311C1065.64 705.45 1036.53 677.832 1017.75 648.159C1014.92 643.674 1012.37 639.126 1010.12 634.558C1008.25 630.779 1006.57 626.854 1005.05 622.784C1004.59 621.538 1004.09 620.292 1003.55 619.067C993.467 596.495 969.39 577.786 943.379 574.568C941.175 574.319 938.971 574.194 936.809 574.194C933.711 574.235 930.509 574.09 927.245 573.799C912.316 572.491 897.803 567.632 885.245 560.593C883.165 559.43 881.128 558.184 879.194 556.876C875.826 554.633 872.645 552.1 869.651 549.38C856.489 537.315 847.715 520.766 845.781 502.202C844.929 493.896 845.407 485.797 847.091 478.135C848.297 473.068 848.775 467.607 848.38 461.897C846.966 441.132 833.763 422.838 816.506 414.802C812.285 412.829 807.752 411.5 803.012 410.898C803.095 409.299 803.137 407.7 803.095 406.06C802.721 388.326 794.57 372.441 782.053 361.83C759.39 342.872 742.257 316.438 735.271 287.138C728.722 255.16 714.77 225.196 695.579 199.448C665.202 159.683 643.994 112.567 635.116 61.2567C631.664 41.3223 630.084 20.848 630.521 0.0207362M1099.61 729.89C1095.95 727.938 1092.27 725.758 1088.57 723.391C1059.48 704.557 1029.61 676.088 1008.96 647.972C1005.84 643.716 1003.01 639.479 1000.5 635.243C998.397 631.755 996.463 628.1 994.675 624.259C994.134 623.075 993.573 621.912 992.949 620.749C981.368 599.341 956.771 580.403 931.342 575.586C929.2 575.212 927.038 574.942 924.896 574.817C921.84 574.672 918.68 574.36 915.457 573.924C900.694 571.952 885.994 566.947 873.083 560.24C870.941 559.14 868.862 557.956 866.866 556.752C863.393 554.654 860.108 552.287 857.01 549.692C843.267 538.229 833.765 522.24 830.875 504.029C829.585 495.869 829.585 487.874 830.771 480.212C831.644 475.166 831.852 469.705 831.249 463.994C829.086 443.292 816.112 424.707 799.686 415.716C795.653 413.515 791.328 411.916 786.795 411.023C786.858 409.403 786.879 407.784 786.816 406.122C786.255 388.223 778.187 372.13 765.858 361.083C743.527 341.336 725.999 314.736 717.828 285.789C710.28 254.517 695.913 224.927 676.826 199.137C646.677 159.351 625.802 112.214 617.381 60.9041C614.117 40.949 612.745 20.5162 613.389 -0.207264M1091.15 731.741C1087.76 729.54 1084.33 727.131 1080.84 724.514C1053.37 703.708 1022.7 674.367 1000.19 647.829C996.797 643.822 993.678 639.855 990.892 635.952C988.564 632.754 986.36 629.369 984.301 625.756C983.677 624.655 983.033 623.555 982.326 622.454C969.227 602.208 944.11 583.042 919.284 576.605C917.184 576.107 915.084 575.712 912.984 575.442C909.99 575.089 906.871 574.612 903.649 574.03C889.032 571.393 874.186 566.223 860.879 559.889C858.696 558.851 856.554 557.751 854.517 556.629C850.961 554.677 847.572 552.456 844.349 550.005C830.024 539.166 819.773 523.696 815.948 505.88C814.222 497.885 813.744 489.953 814.451 482.311C814.991 477.265 814.929 471.825 814.118 466.115C811.248 445.474 798.482 426.599 782.846 416.673C779.021 414.244 774.883 412.375 770.538 411.191C770.579 409.551 770.579 407.91 770.517 406.249C769.768 388.184 761.784 371.862 749.621 360.421C727.623 339.884 709.721 313.139 700.323 284.545C691.798 253.979 676.994 224.742 658.031 198.911C628.112 159.125 607.548 111.926 599.626 60.6364C596.549 40.6604 595.385 20.2692 596.237 -0.35047M1082.69 733.587C1079.57 731.137 1076.37 728.479 1073.1 725.613C1047.2 702.896 1015.8 672.642 991.41 647.661C987.751 643.882 984.341 640.227 981.264 636.656C978.706 633.749 976.253 630.613 973.903 627.27C973.217 626.232 972.469 625.194 971.699 624.176C957.103 605.072 931.446 585.678 907.223 577.663C905.186 577.019 903.127 576.52 901.069 576.126C898.116 575.586 895.039 574.942 891.858 574.216C877.386 570.935 862.375 565.577 848.714 559.597C846.469 558.621 844.285 557.604 842.185 556.565C838.547 554.759 835.033 552.682 831.685 550.398C816.757 540.182 805.779 525.252 800.996 507.809C798.834 499.96 797.877 492.132 798.085 484.511C798.293 479.486 797.94 474.045 796.942 468.335C793.366 447.757 780.786 428.591 765.962 417.71C762.323 415.052 758.393 412.934 754.256 411.439C754.276 409.777 754.256 408.116 754.172 406.434C753.237 388.203 745.315 371.674 733.36 359.796C711.673 338.47 693.397 311.559 682.814 283.339C673.291 253.479 658.071 224.595 639.213 198.743C609.543 158.936 589.291 111.717 581.827 60.4062C578.937 40.4095 577.959 20.0598 579.02 -0.455991M1074.23 735.432C1071.4 732.732 1068.43 729.825 1065.37 726.71C1041.08 702.021 1008.9 670.915 982.637 647.492C978.686 643.941 975.006 640.577 971.659 637.359C968.873 634.742 966.149 631.877 963.55 628.762C962.78 627.807 961.97 626.831 961.096 625.875C944.982 607.935 918.805 588.312 895.185 578.677C893.21 577.908 891.193 577.265 889.156 576.745C886.245 576.019 883.209 575.188 880.049 574.316C865.744 570.391 850.545 564.847 836.531 559.241C834.244 558.327 831.998 557.372 829.836 556.437C826.093 554.776 822.496 552.845 819.024 550.706C803.513 541.113 791.807 526.702 786.068 509.654C783.469 501.95 782.035 494.205 781.764 486.605C781.66 481.579 781.016 476.16 779.831 470.449C775.527 449.934 763.176 430.456 749.142 418.641C745.711 415.754 741.968 413.366 738.018 411.581C738.018 409.899 737.976 408.217 737.872 406.514C736.77 388.095 728.911 371.359 717.143 359.066C695.789 336.951 677.139 309.894 665.349 282.028C654.829 252.874 639.214 224.363 620.459 198.449C591.018 158.621 571.099 111.36 564.092 60.0706C561.368 40.0531 560.62 19.745 561.888 -0.667033M1065.76 737.284C1063.21 734.335 1060.48 731.2 1057.63 727.836C1034.95 701.194 1001.97 669.195 973.841 647.33C969.62 644.028 965.649 640.934 962.011 638.048C958.996 635.722 956.022 633.127 953.132 630.24C952.28 629.347 951.386 628.454 950.45 627.561C932.818 610.783 906.142 590.932 883.105 579.698C881.171 578.805 879.216 578.037 877.22 577.393C874.372 576.48 871.378 575.483 868.217 574.465C854.058 569.876 838.713 564.187 824.304 558.933C821.955 558.082 819.668 557.21 817.464 556.358C813.638 554.863 809.937 553.057 806.34 551.063C790.247 542.093 777.793 528.201 771.118 511.547C768.083 503.989 766.17 496.347 765.4 488.747C764.964 483.722 764.049 478.303 762.656 472.613C757.645 452.159 745.502 432.391 732.258 419.641C729.014 416.506 725.48 413.869 721.737 411.813C721.737 410.11 721.654 408.408 721.529 406.684C720.24 388.099 712.464 371.155 700.862 358.426C679.841 335.543 660.795 308.32 647.8 280.807C636.281 252.359 620.251 224.201 601.6 198.266C572.387 158.418 552.801 111.136 546.272 59.8462C543.736 39.8287 543.195 19.5413 544.671 -0.7669M1057.3 739.128C1055.01 735.951 1052.54 732.546 1049.88 728.933C1028.79 700.319 995.049 667.468 965.046 647.16C960.534 644.087 956.314 641.304 952.384 638.75C949.12 636.715 945.897 634.39 942.736 631.732C941.801 630.922 940.823 630.071 939.805 629.24C920.634 613.625 893.459 593.545 871.024 580.691C869.153 579.674 867.24 578.781 865.265 577.992C862.458 576.891 859.506 575.729 856.387 574.566C842.394 569.333 826.862 563.456 812.1 558.556C809.709 557.767 807.359 556.978 805.093 556.209C801.163 554.86 797.358 553.219 793.636 551.351C776.94 543.003 763.758 529.651 756.127 513.351C752.655 505.937 750.264 498.379 748.996 490.82C748.226 485.816 747.041 480.396 745.44 474.707C739.722 454.316 727.767 434.257 715.333 420.552C712.277 417.188 708.95 414.301 705.395 411.934C705.353 410.211 705.27 408.487 705.124 406.764C703.648 388.013 695.955 370.84 684.54 357.696C663.831 334.024 644.432 306.635 630.231 279.495C617.714 251.753 601.268 223.949 582.721 197.972C553.737 158.103 534.484 110.8 528.412 59.4898C526.063 39.4516 525.709 19.2057 527.414 -0.998669M1048.84 740.979C1046.82 737.552 1044.6 733.898 1042.14 730.056C1022.68 699.469 988.147 665.768 956.272 647.017C951.49 644.193 946.978 641.68 942.778 639.479C939.285 637.735 935.813 635.679 932.361 633.25C931.343 632.502 930.303 631.734 929.201 630.966C908.492 616.534 880.818 596.205 858.986 581.732C857.177 580.59 855.285 579.551 853.372 578.659C850.628 577.371 847.696 576.021 844.598 574.713C830.75 568.837 815.052 562.773 799.937 558.247C797.483 557.52 795.113 556.793 792.784 556.128C788.771 554.924 784.841 553.429 781.016 551.726C763.717 544.022 749.807 531.169 741.24 515.263C737.331 508.016 734.462 500.541 732.716 492.982C731.614 487.978 730.158 482.579 728.349 476.889C721.925 456.56 710.177 436.19 698.554 421.55C695.706 417.958 692.566 414.802 689.219 412.144C689.156 410.4 689.052 408.655 688.907 406.911C687.243 387.994 679.633 370.614 668.406 357.054C648.029 332.593 628.235 305.059 612.849 278.272C599.355 251.236 582.472 223.805 564.05 197.787C535.315 157.918 516.374 110.553 510.76 59.2634C508.577 39.2045 508.452 19.0209 510.365 -1.10042M1040.37 742.827C1038.65 739.152 1036.65 735.248 1034.41 731.157C1016.55 698.598 981.242 664.024 947.496 646.851C942.444 644.256 937.641 642.034 933.15 640.165C929.428 638.711 925.685 636.905 921.984 634.724C920.882 634.06 919.76 633.354 918.574 632.648C896.327 619.379 868.154 598.801 846.925 582.75C845.158 581.483 843.328 580.32 841.456 579.282C838.754 577.787 835.863 576.292 832.807 574.838C819.105 568.318 803.261 562.047 787.751 557.915C785.255 557.25 782.823 556.606 780.432 556.025C776.336 554.966 772.302 553.616 768.351 552.059C750.47 544.978 735.791 532.664 726.31 517.132C721.964 510.03 718.617 502.638 716.371 495.1C714.937 490.117 713.211 484.718 711.215 479.028C704.083 458.762 692.543 438.101 681.711 422.527C679.049 418.706 676.118 415.28 672.957 412.331C672.874 410.566 672.749 408.801 672.583 407.036C670.733 387.953 663.206 370.344 652.165 356.369C632.122 331.119 611.953 303.419 595.34 277.006C580.848 250.676 563.549 223.598 545.231 197.538C516.725 157.648 498.117 110.263 492.96 58.973C490.964 38.8933 491.047 18.7512 493.168 -1.26624M1031.91 744.675C1030.46 740.751 1028.71 736.598 1026.67 732.258C1010.44 697.705 974.341 662.301 938.724 646.685C933.381 644.318 928.307 642.408 923.546 640.871C919.596 639.708 915.603 638.172 911.611 636.24C910.426 635.638 909.22 635.015 907.973 634.372C884.187 622.286 855.514 601.459 834.888 583.788C833.184 582.397 831.395 581.109 829.545 579.926C826.884 578.244 824.056 576.562 820.999 574.963C807.464 567.799 791.433 561.341 775.569 557.562C773.011 556.96 770.537 556.378 768.104 555.901C763.904 554.987 759.767 553.803 755.712 552.371C737.228 545.934 721.821 534.118 711.383 518.981C706.601 512.024 702.775 504.736 700.031 497.219C698.264 492.235 696.268 486.857 694.064 481.167C686.246 460.963 674.872 440.011 664.851 423.482C662.397 419.433 659.653 415.758 656.7 412.498C656.596 410.712 656.451 408.926 656.264 407.14C654.226 387.891 646.782 370.075 635.908 355.664C616.197 329.624 595.634 301.779 577.836 275.698C562.346 250.074 544.652 223.349 526.438 197.268C498.16 157.358 479.863 109.931 475.206 58.6412C473.397 38.5407 473.667 18.4401 475.996 -1.47351M1023.43 746.524C1022.25 742.35 1020.75 737.948 1018.92 733.379C1004.3 696.854 967.417 660.598 929.908 646.54C924.294 644.422 918.93 642.782 913.877 641.598C909.698 640.726 905.436 639.459 901.173 637.757C899.905 637.238 898.616 636.656 897.285 636.095C871.96 625.215 842.81 604.117 822.766 584.847C821.124 583.332 819.377 581.899 817.568 580.611C814.969 578.742 812.162 576.894 809.147 575.15C795.757 567.342 779.581 560.698 763.322 557.292C760.723 556.752 758.186 556.254 755.691 555.859C751.408 555.112 747.166 554.053 742.966 552.786C723.879 546.972 707.723 535.697 696.371 520.933C691.131 514.122 686.848 506.937 683.625 499.42C681.525 494.437 679.259 489.079 676.847 483.39C668.322 463.248 657.157 442.005 647.925 424.521C645.659 420.243 643.122 416.298 640.357 412.747C640.232 410.94 640.066 409.134 639.858 407.327C637.633 387.912 630.273 369.867 619.586 355.041C600.187 328.213 579.27 300.221 560.245 274.494C543.757 249.576 525.647 223.204 507.537 197.082C479.489 157.151 461.524 109.703 457.324 58.413C455.702 38.3124 456.181 18.2327 458.717 -1.57715M1014.97 748.374C1014.08 743.951 1012.81 739.3 1011.19 734.482C998.253 695.963 960.515 658.856 921.135 646.376C915.23 644.487 909.595 643.137 904.272 642.286C899.844 641.704 895.353 640.707 890.82 639.233C889.468 638.776 888.117 638.278 886.703 637.78C859.819 628.082 830.19 606.736 810.75 585.846C809.149 584.206 807.464 582.648 805.697 581.216C803.14 579.16 800.374 577.146 797.38 575.235C784.136 566.805 767.793 559.952 751.18 556.921C748.519 556.443 745.941 556.028 743.404 555.716C739.017 555.114 734.671 554.2 730.367 553.079C710.677 547.909 693.773 537.152 681.506 522.741C675.83 516.097 671.068 508.974 667.346 501.478C664.914 496.515 662.377 491.158 659.757 485.468C650.526 465.389 639.547 443.834 631.127 425.437C629.068 420.931 626.719 416.715 624.161 412.874C624.016 411.047 623.829 409.219 623.6 407.413C621.188 387.81 613.911 369.558 603.411 354.337C584.344 326.72 563.032 298.562 542.823 273.208C525.357 248.996 506.811 222.999 488.825 196.835C461.026 156.883 443.374 109.414 439.631 58.1244C438.176 38.0031 438.883 17.9649 441.627 -1.74108M1006.51 750.219C1005.88 745.547 1004.86 740.667 1003.43 735.6C992.119 695.108 953.57 657.15 912.339 646.227C906.164 644.566 900.238 643.528 894.645 643.009C889.988 642.718 885.227 641.971 880.424 640.746C878.989 640.372 877.554 639.936 876.078 639.5C847.655 631.007 817.527 609.39 798.711 586.902C797.172 585.116 795.529 583.455 793.783 581.897C791.288 579.655 788.543 577.474 785.591 575.419C772.492 566.344 756.004 559.284 739.016 556.626C736.313 556.211 733.673 555.858 731.074 555.651C726.604 555.194 722.154 554.446 717.725 553.449C697.453 548.923 679.801 538.685 666.577 524.648C660.464 518.149 655.224 511.13 651.024 503.634C648.259 498.671 645.452 493.314 642.624 487.645C632.706 467.628 621.915 445.783 614.285 426.43C612.413 421.695 610.272 417.231 607.901 413.078C607.735 411.23 607.527 409.403 607.278 407.554C604.679 387.786 597.464 369.326 587.151 353.669C568.417 325.263 546.731 296.96 525.315 271.959C506.852 248.453 487.889 222.808 470.008 196.603C442.438 156.651 425.118 109.12 421.854 57.8302C420.585 37.6882 421.479 17.6915 424.453 -1.91067M998.042 752.046C997.689 747.125 996.919 741.996 995.693 736.68C986.003 694.216 946.665 655.406 903.563 646.041C897.117 644.629 890.9 643.861 885.016 643.694C880.13 643.694 875.119 643.217 870.025 642.22C868.528 641.909 866.989 641.556 865.43 641.182C835.469 633.893 804.842 612.007 786.628 587.899C785.152 585.988 783.551 584.203 781.846 582.5C779.392 580.05 776.689 577.703 773.758 575.502C760.804 565.784 744.15 558.537 726.788 556.253C724.023 555.9 721.341 555.63 718.7 555.505C714.147 555.194 709.573 554.592 705.019 553.761C684.144 549.878 665.743 540.16 651.604 526.497C645.034 520.163 639.337 513.207 634.638 505.752C631.54 500.81 628.463 495.453 625.448 489.784C614.823 469.829 604.24 447.694 597.42 427.385C595.757 422.402 593.802 417.688 591.64 413.244C591.453 411.376 591.224 409.527 590.974 407.659C588.188 387.724 581.057 369.036 570.931 352.964C552.509 323.768 530.449 295.32 507.827 270.672C488.365 247.872 468.987 222.58 451.21 196.354C423.868 156.381 406.881 108.829 404.074 57.5398C402.993 37.377 404.095 17.4219 407.276 -2.07649M989.58 753.893C989.518 748.722 988.977 743.344 987.958 737.779C979.87 693.363 939.762 653.66 894.789 645.852C888.052 644.669 881.565 644.212 875.411 644.357C870.296 644.648 865.015 644.44 859.671 643.672C858.091 643.444 856.469 643.153 854.847 642.841C823.347 636.757 792.222 614.58 774.611 588.894C773.176 586.859 771.617 584.928 769.953 583.121C767.562 580.484 764.901 577.972 761.99 575.625C749.182 565.284 732.382 557.809 714.646 555.919C711.839 555.608 709.095 555.442 706.392 555.4C701.734 555.255 697.077 554.798 692.399 554.092C670.92 550.853 651.771 541.654 636.717 528.364C629.711 522.176 623.535 515.324 618.337 507.869C614.907 502.927 611.559 497.59 608.336 491.921C597.025 472.008 586.608 449.602 580.6 428.36C579.123 423.148 577.377 418.164 575.402 413.43C575.194 411.54 574.944 409.671 574.674 407.782C571.701 387.681 564.652 368.785 554.713 352.277C536.624 322.292 514.19 293.678 490.362 269.404C469.902 247.31 450.129 222.392 432.456 196.103C405.343 156.11 388.688 108.516 386.339 57.2476C385.424 37.064 386.755 17.1503 390.144 -2.24419M981.118 755.745C981.326 750.346 981.035 744.698 980.224 738.905C973.758 692.516 932.86 651.961 886.015 645.711C879.008 644.777 872.23 644.59 865.784 645.088C860.441 645.67 854.91 645.732 849.275 645.213C847.612 645.047 845.928 644.839 844.202 644.569C811.163 639.71 779.559 617.242 762.531 589.936C761.158 587.777 759.641 585.721 758.019 583.769C755.669 580.945 753.049 578.266 750.159 575.754C737.497 564.769 720.531 557.107 702.441 555.57C699.593 555.321 696.786 555.217 694.041 555.28C689.301 555.28 684.519 554.968 679.736 554.407C657.655 551.812 637.757 543.132 621.768 530.216C614.325 524.194 607.671 517.404 601.995 509.97C598.231 505.028 594.614 499.712 591.183 494.044C579.165 474.192 568.956 451.475 563.737 429.298C562.448 423.858 560.91 418.625 559.142 413.579C558.914 411.669 558.643 409.779 558.352 407.89C555.213 387.623 548.226 368.498 538.475 351.575C520.718 320.801 497.889 292.042 472.855 268.12C451.418 246.732 431.208 222.167 413.639 195.858C386.776 155.844 370.412 108.23 368.562 56.9402C367.834 36.7566 369.352 16.8845 372.949 -2.42697M972.656 757.589C973.135 751.941 973.093 746.044 972.49 740.002C967.645 691.64 925.957 650.234 877.221 645.542C869.923 644.836 862.874 644.939 856.158 645.791C850.565 646.663 844.785 646.995 838.88 646.704C837.133 646.621 835.366 646.455 833.578 646.268C799.021 642.614 766.898 619.876 750.472 590.971C749.162 588.687 747.686 586.507 746.105 584.409C743.798 581.398 741.219 578.533 738.371 575.896C725.854 564.288 708.742 556.356 690.258 555.255C687.347 555.068 684.499 555.048 681.692 555.193C676.847 555.338 671.982 555.193 667.054 554.757C644.391 552.805 623.723 544.644 606.819 532.102C598.918 526.226 591.807 519.539 585.632 512.126C581.536 507.205 577.669 501.868 574.009 496.22C561.326 476.411 551.283 453.424 546.855 430.291C545.774 424.623 544.422 419.12 542.842 413.804C542.592 411.873 542.301 409.963 541.989 408.052C538.663 387.619 531.76 368.287 522.175 350.948C504.73 319.386 481.547 290.46 455.307 266.892C432.872 246.21 412.247 221.998 394.802 195.647C368.167 155.612 352.137 107.956 350.744 56.6875C350.203 36.4831 351.929 16.6525 355.734 -2.5551M964.194 759.44C964.943 753.543 965.151 747.417 964.756 741.125C961.533 690.791 919.055 648.534 868.447 645.398C860.878 644.921 853.539 645.336 846.553 646.499C840.731 647.662 834.701 648.243 828.505 648.202C826.675 648.202 824.825 648.098 822.954 647.973C786.858 645.606 754.236 622.515 738.413 591.991C737.145 589.582 735.731 587.256 734.171 585.055C731.926 581.857 729.368 578.826 726.541 576.023C714.149 563.792 696.891 555.652 678.053 554.904C675.101 554.78 672.19 554.842 669.342 555.071C664.414 555.361 659.424 555.382 654.392 555.071C631.126 553.804 609.71 546.162 591.891 533.932C583.533 528.242 575.964 521.597 569.29 514.205C564.861 509.284 560.724 503.968 556.877 498.32C543.508 478.572 533.631 455.295 530.014 431.228C529.12 425.331 527.976 419.558 526.604 413.952C526.333 412 526.022 410.069 525.689 408.137C522.175 387.539 515.355 367.978 505.957 350.224C488.845 317.893 465.267 288.801 437.842 265.586C414.41 245.61 393.368 221.771 376.027 195.379C349.621 155.344 333.923 107.647 332.988 56.3782C332.634 36.1531 334.568 16.364 338.581 -2.73976M955.732 761.288C956.772 755.142 957.209 748.767 957.001 742.226C955.379 689.919 912.11 646.79 859.652 645.232C851.793 645.004 844.183 645.689 836.905 647.205C830.855 648.659 824.555 649.51 818.109 649.697C816.196 649.738 814.263 649.738 812.329 649.697C774.695 648.513 741.574 625.173 726.354 593.05C725.148 590.517 723.776 588.066 722.258 585.72C720.054 582.335 717.538 579.137 714.752 576.189C702.526 563.314 685.102 554.988 665.89 554.614C662.876 554.552 659.923 554.676 657.012 555.009C652.001 555.445 646.907 555.611 641.751 555.465C617.902 554.822 595.717 547.72 576.963 535.863C568.167 530.319 560.121 523.778 552.968 516.386C548.207 511.485 543.799 506.169 539.745 500.521C525.668 480.815 516 457.247 513.193 432.246C512.507 426.12 511.551 420.078 510.365 414.18C510.074 412.208 509.742 410.256 509.409 408.304C505.708 387.539 498.971 367.77 489.76 349.58C472.981 316.46 449.029 287.223 420.377 264.361C395.946 245.091 374.489 221.606 357.252 195.172C331.096 155.116 315.71 107.398 315.252 56.1293C315.065 35.8834 317.207 16.1359 321.448 -2.86412M304.231 -3.07328C299.781 15.8229 297.432 35.5496 297.432 55.7955C297.432 140.932 338.933 216.371 402.827 263.051C455.389 302.671 490.881 363.699 496.287 433.179C501.61 501.766 559.017 555.755 629.045 555.755C634.326 555.755 639.524 555.443 644.618 554.862C647.571 554.467 650.586 554.26 653.642 554.26C680.797 554.26 704.125 570.643 714.251 594.045C728.868 627.768 762.509 651.378 801.661 651.378C810.518 651.378 819.106 650.173 827.256 647.91C834.804 646.062 842.705 645.065 850.834 645.065C905.164 645.065 949.223 689.066 949.223 743.325C949.223 750.115 948.536 756.739 947.226 763.135M871.688 525.235C865.056 543.197 847.757 556.009 827.443 556.009C801.411 556.009 780.307 534.932 780.307 508.935C780.307 482.937 801.411 461.86 827.443 461.86C853.474 461.86 874.578 482.937 874.578 508.935C874.578 514.666 873.56 520.148 871.688 525.214M834.769 348.16C828.136 366.122 810.837 378.934 790.523 378.934C764.491 378.934 743.387 357.857 743.387 331.86C743.387 305.862 764.491 284.785 790.523 284.785C816.555 284.785 837.659 305.862 837.659 331.86C837.659 337.591 836.64 343.073 834.769 348.139M167.378 672.536C167.378 718.421 130.133 755.617 84.1892 755.617C38.2451 755.617 1 718.421 1 672.536C1 626.652 38.2451 589.456 84.1892 589.456C130.133 589.456 167.378 626.652 167.378 672.536ZM210.814 651.897C210.814 691.152 178.95 722.975 139.643 722.975C100.336 722.975 68.4714 691.152 68.4714 651.897C68.4714 612.641 100.336 580.818 139.643 580.818C178.95 580.818 210.814 612.641 210.814 651.897ZM254.248 631.279C254.248 663.906 227.764 690.356 195.094 690.356C162.425 690.356 135.941 663.906 135.941 631.279C135.941 598.652 162.425 572.203 195.094 572.203C227.764 572.203 254.248 598.652 254.248 631.279ZM297.684 610.638C297.684 636.636 276.58 657.712 250.548 657.712C224.516 657.712 203.412 636.636 203.412 610.638C203.412 584.639 224.516 563.563 250.548 563.563C276.58 563.563 297.684 584.639 297.684 610.638ZM679.343 690.168C679.343 716.167 658.24 737.243 632.208 737.243C606.175 737.243 585.072 716.167 585.072 690.168C585.072 664.17 606.175 643.094 632.208 643.094C658.24 643.094 679.343 664.17 679.343 690.168ZM1089.36 519.117C1089.36 537.5 1074.44 552.403 1056.03 552.403C1037.62 552.403 1022.7 537.5 1022.7 519.117C1022.7 500.733 1037.62 485.83 1056.03 485.83C1074.44 485.83 1089.36 500.733 1089.36 519.117ZM762.759 127.934C762.759 139.242 753.581 148.408 742.258 148.408C730.936 148.408 721.757 139.242 721.757 127.934C721.757 116.626 730.936 107.46 742.258 107.46C753.581 107.46 762.759 116.626 762.759 127.934ZM965.766 8.49535C965.766 52.8773 929.741 88.8559 885.301 88.8559C840.861 88.8559 804.835 52.8773 804.835 8.49535C804.835 -35.8866 840.861 -71.8652 885.301 -71.8652C929.741 -71.8652 965.766 -35.8866 965.766 8.49535ZM82.3598 -3.46531C82.3598 12.5443 69.3645 25.5226 53.334 25.5226C37.3035 25.5226 24.3083 12.5443 24.3083 -3.46531C24.3083 -19.4749 37.3035 -32.4533 53.334 -32.4533C69.3645 -32.4533 82.3598 -19.4749 82.3598 -3.46531ZM674.31 121.142C674.31 203.289 641.673 269.882 601.413 269.882C561.153 269.882 528.515 203.289 528.515 121.142C528.515 38.9956 561.153 -27.5974 601.413 -27.5974C641.673 -27.5974 674.31 38.9956 674.31 121.142ZM680.069 114.125C680.069 185.881 649.052 244.052 610.79 244.052C572.528 244.052 541.51 185.881 541.51 114.125C541.51 42.3684 572.528 -15.8017 610.79 -15.8017C649.052 -15.8017 680.069 42.3684 680.069 114.125ZM685.828 107.104C685.828 168.47 656.44 218.217 620.187 218.217C583.935 218.217 554.547 168.47 554.547 107.104C554.547 45.7375 583.935 -4.00978 620.187 -4.00978C656.44 -4.00978 685.828 45.7375 685.828 107.104ZM691.608 100.088C691.608 151.076 663.84 192.41 629.585 192.41C595.331 192.41 567.562 151.076 567.562 100.088C567.562 49.1007 595.331 7.76709 629.585 7.76709C663.84 7.76709 691.608 49.1007 691.608 100.088ZM697.369 93.0709C697.369 133.668 671.22 166.579 638.964 166.579C606.708 166.579 580.559 133.668 580.559 93.0709C580.559 52.4735 606.708 19.5628 638.964 19.5628C671.22 19.5628 697.369 52.4735 697.369 93.0709ZM703.149 86.0498C703.149 116.268 678.62 140.766 648.362 140.766C618.104 140.766 593.575 116.268 593.575 86.0498C593.575 55.8311 618.104 31.334 648.362 31.334C678.62 31.334 703.149 55.8311 703.149 86.0498ZM703.149 86.0517C703.149 116.27 678.62 140.767 648.362 140.767C618.104 140.767 593.575 116.27 593.575 86.0517C593.575 55.833 618.104 31.3359 648.362 31.3359C678.62 31.3359 703.149 55.833 703.149 86.0517Z" stroke="url(#paint0_linear_2931_111403)" stroke-miterlimit="10"/>
<defs>
<linearGradient id="paint0_linear_2931_111403" x1="561.805" y1="86.0517" x2="752.425" y2="86.0517" gradientUnits="userSpaceOnUse">
<stop stop-color="#6690FC"/>
<stop offset="1" stop-color="white"/>
</linearGradient>
</defs>
</svg>
