<svg viewBox="0 0 1032 321" fill="none"
  xmlns="http://www.w3.org/2000/svg">
  <path d="M1178.78 -4.909C1096.08 42.8396 990.321 14.4917 942.564 -68.2258C894.807 -150.943 923.136 -256.707 1005.84 -304.456C1088.54 -352.204 1194.3 -323.856 1242.06 -241.139C1289.81 -158.421 1261.49 -52.6576 1178.78 -4.909Z" stroke="url(#paint0_linear_2547_122710)" stroke-miterlimit="10"/>
  <path d="M1179.72 -2.5416C1096.09 45.7446 989.136 17.0775 940.841 -66.5713C892.546 -150.22 921.195 -257.175 1004.83 -305.461C1088.46 -353.747 1195.41 -325.08 1243.71 -241.431C1292 -157.782 1263.35 -50.8278 1179.72 -2.5416Z" stroke="url(#paint1_linear_2547_122710)" stroke-miterlimit="10"/>
  <path d="M1180.58 1.15777C1096.01 49.9827 987.869 20.9958 939.035 -63.5864C890.201 -148.169 919.169 -256.316 1003.74 -305.141C1088.3 -353.966 1196.45 -324.979 1245.28 -240.397C1294.11 -155.815 1265.15 -47.6672 1180.58 1.15777Z" stroke="url(#paint2_linear_2547_122710)" stroke-miterlimit="10"/>
  <path d="M1181.33 6.12286C1095.83 55.4854 986.5 26.1793 937.129 -59.3342C887.758 -144.848 917.044 -254.186 1002.54 -303.549C1088.04 -352.911 1197.37 -323.605 1246.75 -238.092C1296.12 -152.578 1266.83 -43.2397 1181.33 6.12286Z" stroke="url(#paint3_linear_2547_122710)" stroke-miterlimit="10"/>
  <path d="M1181.96 12.2949C1095.53 62.1951 985.003 32.5698 935.094 -53.875C885.185 -140.32 914.791 -250.849 1001.22 -300.749C1087.65 -350.65 1198.17 -321.024 1248.08 -234.579C1297.99 -148.135 1268.39 -37.6052 1181.96 12.2949Z" stroke="url(#paint4_linear_2547_122710)" stroke-miterlimit="10"/>
  <path d="M1182.44 19.6213C1095.08 70.0602 983.364 40.115 932.917 -47.2631C882.469 -134.641 912.394 -246.364 999.757 -296.803C1087.12 -347.242 1198.84 -317.297 1249.29 -229.919C1299.73 -142.541 1269.81 -30.8177 1182.44 19.6213Z" stroke="url(#paint5_linear_2547_122710)" stroke-miterlimit="10"/>
  <path d="M1182.76 28.0394C1094.46 79.0159 981.554 48.7516 930.569 -39.5578C879.583 -127.867 909.828 -240.781 998.122 -291.757C1086.42 -342.734 1199.32 -312.47 1250.31 -224.16C1301.3 -135.851 1271.05 -22.9371 1182.76 28.0394Z" stroke="url(#paint6_linear_2547_122710)" stroke-miterlimit="10"/>
  <path d="M1182.89 37.485C1093.66 88.9991 979.561 58.4157 928.038 -30.8251C876.515 -120.066 907.078 -234.17 996.303 -285.684C1085.53 -337.199 1199.63 -306.615 1251.15 -217.374C1302.67 -128.133 1272.11 -14.0291 1182.89 37.485Z" stroke="url(#paint7_linear_2547_122710)" stroke-miterlimit="10"/>
  <path d="M1182.8 47.9089C1092.64 99.9618 977.348 69.0584 925.286 -21.1157C873.224 -111.29 904.107 -226.588 994.266 -278.641C1084.42 -330.693 1199.72 -299.79 1251.78 -209.616C1303.84 -119.442 1272.96 -4.14399 1182.8 47.9089Z" stroke="url(#paint8_linear_2547_122710)" stroke-miterlimit="10"/>
  <path d="M1182.49 59.247C1091.4 111.838 974.914 80.615 922.314 -10.4905C869.714 -101.596 900.916 -218.084 992.006 -270.675C1083.09 -323.265 1199.58 -292.043 1252.18 -200.937C1304.78 -109.832 1273.58 6.65652 1182.49 59.247Z" stroke="url(#paint9_linear_2547_122710)" stroke-miterlimit="10"/>
  <path d="M1181.92 71.4367C1089.9 124.565 972.225 93.0231 919.087 0.986362C865.95 -91.0504 897.471 -208.73 989.491 -261.858C1081.51 -314.986 1199.19 -283.444 1252.32 -191.407C1305.46 -99.3707 1273.94 18.3086 1181.92 71.4367Z" stroke="url(#paint10_linear_2547_122710)" stroke-miterlimit="10"/>
  <path d="M1181.08 84.429C1088.13 138.096 969.262 106.234 915.586 13.2642C861.91 -79.7059 893.75 -198.579 986.704 -252.245C1079.66 -305.912 1198.52 -274.051 1252.2 -181.081C1305.88 -88.1106 1274.04 30.7621 1181.08 84.429Z" stroke="url(#paint11_linear_2547_122710)" stroke-miterlimit="10"/>
  <path d="M1179.95 98.1558C1086.07 152.36 966.011 120.18 911.797 26.2782C857.583 -67.6232 889.743 -187.687 983.627 -241.891C1077.51 -296.096 1197.57 -263.915 1251.78 -170.014C1306 -76.1122 1273.84 43.9514 1179.95 98.1558Z" stroke="url(#paint12_linear_2547_122710)" stroke-miterlimit="10"/>
  <path d="M1178.5 112.566C1083.69 167.309 962.435 134.809 907.682 39.974C852.929 -54.8608 885.409 -176.118 980.227 -230.861C1075.04 -285.604 1196.3 -253.104 1251.05 -158.269C1305.8 -63.4341 1273.32 57.8229 1178.5 112.566Z" stroke="url(#paint13_linear_2547_122710)" stroke-miterlimit="10"/>
  <path d="M1176.72 127.596C1080.97 182.876 958.531 150.057 903.241 54.2906C847.95 -41.4754 880.749 -163.923 976.498 -219.204C1072.25 -274.485 1194.69 -241.665 1249.98 -145.899C1305.27 -50.1329 1272.47 72.3148 1176.72 127.596Z" stroke="url(#paint14_linear_2547_122710)" stroke-miterlimit="10"/>
  <path d="M1174.58 143.186C1077.9 199.004 954.265 165.865 898.436 69.1678C842.608 -27.5296 875.725 -151.168 972.406 -206.986C1069.09 -262.805 1192.72 -229.666 1248.55 -132.969C1304.38 -36.2713 1271.26 87.3672 1174.58 143.186Z" stroke="url(#paint15_linear_2547_122710)" stroke-miterlimit="10"/>
  <path d="M1172.06 159.281C1074.45 215.639 949.622 182.18 893.255 84.5492C836.888 -13.0815 870.325 -137.913 967.939 -194.271C1065.55 -250.628 1190.38 -217.169 1246.75 -119.538C1303.11 -21.9077 1269.68 102.924 1172.06 159.281Z" stroke="url(#paint16_linear_2547_122710)" stroke-miterlimit="10"/>
  <path d="M1169.15 175.815C1070.6 232.71 944.586 198.932 887.681 100.37C830.776 1.8077 864.532 -124.215 963.077 -181.11C1061.62 -238.005 1187.64 -204.227 1244.54 -105.665C1301.45 -7.10257 1267.69 118.92 1169.15 175.815Z" stroke="url(#paint17_linear_2547_122710)" stroke-miterlimit="10"/>
  <path d="M1165.8 192.737C1066.33 250.169 939.12 216.072 881.677 116.579C824.235 17.0856 858.31 -110.128 957.785 -167.56C1057.26 -224.993 1184.47 -190.896 1241.91 -91.4022C1299.35 8.09118 1265.28 135.305 1165.8 192.737Z" stroke="url(#paint18_linear_2547_122710)" stroke-miterlimit="10"/>
  <path d="M1162.03 209.991C1061.62 267.962 933.216 233.545 875.235 133.119C817.253 32.6919 851.648 -95.715 952.057 -153.686C1052.47 -211.657 1180.87 -177.24 1238.85 -76.8137C1296.83 23.613 1262.43 152.02 1162.03 209.991Z" stroke="url(#paint19_linear_2547_122710)" stroke-miterlimit="10"/>
  <path d="M1157.79 227.507C1056.45 286.016 926.855 251.28 868.336 149.922C809.817 48.5636 844.53 -81.0341 945.871 -139.543C1047.21 -198.052 1176.8 -163.316 1235.32 -61.9575C1293.84 39.4005 1259.13 168.998 1157.79 227.507Z" stroke="url(#paint20_linear_2547_122710)" stroke-miterlimit="10"/>
  <path d="M1153.05 245.23C1050.78 304.276 919.998 269.221 860.942 166.932C801.885 64.6422 836.917 -66.1462 939.189 -125.193C1041.46 -184.239 1172.24 -149.184 1231.3 -46.8943C1290.36 55.395 1255.32 186.183 1153.05 245.23Z" stroke="url(#paint21_linear_2547_122710)" stroke-miterlimit="10"/>
  <path d="M1147.83 263.111C1044.62 322.696 912.645 287.321 853.05 184.098C793.454 80.8754 828.806 -51.1064 932.011 -110.692C1035.22 -170.277 1167.19 -134.902 1226.79 -31.6789C1286.38 71.5438 1251.03 203.526 1147.83 263.111Z" stroke="url(#paint22_linear_2547_122710)" stroke-miterlimit="10"/>
  <path d="M1142.07 281.078C1037.93 341.201 904.765 305.506 844.632 201.352C784.498 97.1982 820.169 -35.9744 924.305 -96.0971C1028.44 -156.22 1161.61 -120.525 1221.74 -16.3715C1281.87 87.7824 1246.2 220.955 1142.07 281.078Z" stroke="url(#paint23_linear_2547_122710)" stroke-miterlimit="10"/>
  <path d="M1135.76 299.074C1030.7 359.734 896.338 323.721 835.667 218.636C774.996 113.55 810.986 -20.813 916.053 -81.4733C1021.12 -142.134 1155.48 -106.12 1216.15 -1.03489C1276.82 104.05 1240.83 238.414 1135.76 299.074Z" stroke="url(#paint24_linear_2547_122710)" stroke-miterlimit="10"/>
  <path d="M1128.89 317.049C1022.89 378.248 887.34 341.915 826.131 235.896C764.921 129.877 801.23 -5.67949 907.23 -66.8786C1013.23 -128.078 1148.78 -91.7443 1209.99 14.2743C1271.2 120.293 1234.89 255.85 1128.89 317.049Z" stroke="url(#paint25_linear_2547_122710)" stroke-miterlimit="10"/>
  <path d="M1121.43 334.936C1014.5 396.672 877.757 360.02 816.009 253.07C754.262 146.12 790.89 9.3725 897.822 -52.3642C1004.75 -114.101 1141.49 -77.4484 1203.24 29.5016C1264.99 136.452 1228.36 273.199 1121.43 334.936Z" stroke="url(#paint26_linear_2547_122710)" stroke-miterlimit="10"/>
  <path d="M1113.36 352.674C1005.5 414.949 867.564 377.977 805.279 270.096C742.994 162.214 779.941 24.2761 887.804 -37.9982C995.666 -100.273 1133.6 -63.3009 1195.88 44.5804C1258.17 152.462 1221.22 290.4 1113.36 352.674Z" stroke="url(#paint27_linear_2547_122710)" stroke-miterlimit="10"/>
  <path d="M1104.66 370.219C995.86 433.032 856.735 395.741 793.911 286.926C731.086 178.112 768.354 38.9799 877.149 -23.8332C985.944 -86.6463 1125.07 -49.3548 1187.89 59.4599C1250.72 168.274 1213.45 307.406 1104.66 370.219Z" stroke="url(#paint28_linear_2547_122710)" stroke-miterlimit="10"/>
  <path d="M1095.3 387.499C985.573 450.85 845.257 413.239 781.895 303.493C718.533 193.747 756.119 53.4245 865.846 -9.92623C975.572 -73.2769 1115.89 -35.6662 1179.25 74.0798C1242.61 183.826 1205.03 324.148 1095.3 387.499Z" stroke="url(#paint29_linear_2547_122710)" stroke-miterlimit="10"/>
  <path d="M1085.27 404.45C974.61 468.339 833.103 430.409 769.204 319.731C705.304 209.054 743.209 67.5409 853.867 3.65261C964.525 -60.2357 1106.03 -22.3057 1169.93 88.3715C1233.83 199.049 1195.93 340.562 1085.27 404.45Z" stroke="url(#paint30_linear_2547_122710)" stroke-miterlimit="10"/>
  <path d="M1074.54 421.032C962.954 485.459 820.254 447.21 755.816 335.599C691.377 223.988 729.602 81.2818 841.193 16.8547C952.784 -47.5723 1095.48 -9.32254 1159.92 102.288C1224.36 213.899 1186.14 356.605 1074.54 421.032Z" stroke="url(#paint31_linear_2547_122710)" stroke-miterlimit="10"/>
  <path d="M1063.11 437.171C950.585 502.136 806.694 463.567 741.718 351.025C676.742 238.483 715.285 94.5858 827.808 29.6211C940.33 -35.3435 1084.22 3.22542 1149.2 115.767C1214.17 228.309 1175.63 372.207 1063.11 437.171Z" stroke="url(#paint32_linear_2547_122710)" stroke-miterlimit="10"/>
  <path d="M1050.93 452.814C937.476 518.317 792.392 479.429 726.877 365.953C661.362 252.478 700.225 107.387 813.68 41.8838C927.136 -23.6197 1072.22 15.2691 1137.73 128.744C1203.25 242.22 1164.39 387.311 1050.93 452.814Z" stroke="url(#paint33_linear_2547_122710)" stroke-miterlimit="10"/>
  <path d="M1037.99 467.9C923.607 533.941 777.332 494.733 711.279 380.327C645.226 265.92 684.409 119.638 798.795 53.5974C913.182 -12.4436 1059.46 26.7644 1125.51 141.171C1191.56 255.577 1152.38 401.859 1037.99 467.9Z" stroke="url(#paint34_linear_2547_122710)" stroke-miterlimit="10"/>
  <path d="M1024.28 482.369C908.96 548.948 761.495 509.421 694.904 394.083C628.314 278.745 667.815 131.272 783.133 64.6939C898.45 -1.88476 1045.92 37.6424 1112.51 152.98C1179.1 268.318 1139.6 415.791 1024.28 482.369Z" stroke="url(#paint35_linear_2547_122710)" stroke-miterlimit="10"/>
  <path d="M1009.77 496.17C893.515 563.288 744.856 523.44 677.727 407.169C610.598 290.898 650.419 142.232 766.67 75.1147C882.92 7.99729 1031.58 47.8443 1098.71 164.116C1165.84 280.387 1126.02 429.053 1009.77 496.17Z" stroke="url(#paint36_linear_2547_122710)" stroke-miterlimit="10"/>
  <path d="M994.425 509.233C877.244 576.888 727.394 536.722 659.727 419.519C592.06 302.317 632.2 152.46 749.382 84.8049C866.564 17.1499 1016.41 57.3161 1084.08 174.519C1151.75 291.721 1111.61 441.578 994.425 509.233Z" stroke="url(#paint37_linear_2547_122710)" stroke-miterlimit="10"/>
  <path d="M978.249 521.501C860.136 589.693 709.096 549.208 640.891 431.074C572.687 312.94 613.145 161.893 731.259 93.7002C849.372 25.5076 1000.41 65.9929 1068.62 184.127C1136.82 302.261 1096.36 453.308 978.249 521.501Z" stroke="url(#paint38_linear_2547_122710)" stroke-miterlimit="10"/>
  <path d="M959.038 533.995C839.992 602.726 687.758 561.921 619.015 442.854C550.271 323.787 591.05 171.546 710.096 102.814C829.142 34.083 981.376 74.8883 1050.12 193.955C1118.86 313.023 1078.08 465.263 959.038 533.995Z" stroke="url(#paint39_linear_2547_122710)" stroke-miterlimit="10"/>
  <path d="M939.909 544.749C819.931 614.018 666.507 572.893 597.226 452.895C527.945 332.896 569.042 179.465 689.02 110.196C808.997 40.927 962.421 82.0514 1031.7 202.05C1100.98 322.048 1059.89 475.48 939.909 544.749Z" stroke="url(#paint40_linear_2547_122710)" stroke-miterlimit="10"/>
  <path d="M920.928 553.839C800.019 623.646 645.404 582.202 575.585 461.272C505.766 340.342 547.183 185.72 668.091 115.914C789 46.107 943.615 87.5506 1013.43 208.48C1083.25 329.41 1041.84 484.033 920.928 553.839Z" stroke="url(#paint41_linear_2547_122710)" stroke-miterlimit="10"/>
  <path d="M902.143 561.355C780.301 631.7 624.492 589.937 554.135 468.074C483.777 346.21 525.513 190.395 647.355 120.049C769.197 49.7039 925.005 91.4673 995.363 213.33C1065.72 335.194 1023.98 491.009 902.143 561.355Z" stroke="url(#paint42_linear_2547_122710)" stroke-miterlimit="10"/>
  <path d="M883.572 567.378C760.799 638.261 603.8 596.179 532.904 473.384C462.009 350.59 504.064 193.583 626.837 122.7C749.61 51.8174 906.609 93.9 977.504 216.694C1048.4 339.489 1006.34 496.496 883.572 567.378Z" stroke="url(#paint43_linear_2547_122710)" stroke-miterlimit="10"/>
  <path d="M865.251 572.013C741.547 643.434 583.357 601.032 511.924 477.306C440.491 353.581 482.865 195.383 606.569 123.963C730.273 52.5423 888.463 94.9441 959.896 218.67C1031.33 342.396 988.955 500.593 865.251 572.013Z" stroke="url(#paint44_linear_2547_122710)" stroke-miterlimit="10"/>
  <path d="M847.212 575.344C722.575 647.303 563.191 604.581 491.219 479.922C419.247 355.263 461.941 195.872 586.578 123.913C711.215 51.9537 870.599 94.6753 942.571 219.334C1014.54 343.994 971.849 503.384 847.212 575.344Z" stroke="url(#paint45_linear_2547_122710)" stroke-miterlimit="10"/>
  <path d="M829.481 577.457C703.913 649.954 543.339 606.913 470.829 481.323C398.319 355.732 441.332 195.151 566.9 122.654C692.468 50.1571 853.042 93.1979 925.552 218.788C998.062 344.379 955.049 504.96 829.481 577.457Z" stroke="url(#paint46_linear_2547_122710)" stroke-miterlimit="10"/>
  <path d="M812.097 578.444C685.598 651.478 523.833 608.118 450.786 481.597C377.739 355.075 421.07 193.303 547.57 120.268C674.069 47.2335 835.834 90.5935 908.881 217.115C981.928 343.637 938.597 505.409 812.097 578.444Z" stroke="url(#paint47_linear_2547_122710)" stroke-miterlimit="10"/>
  <path d="M795.09 578.405C667.657 651.978 504.699 608.298 431.113 480.843C357.527 353.388 401.178 190.422 528.61 116.849C656.043 43.2757 819.001 86.9556 892.587 214.411C966.174 341.866 922.522 504.831 795.09 578.405Z" stroke="url(#paint48_linear_2547_122710)" stroke-miterlimit="10"/>
  <path d="M778.495 577.415C650.132 651.526 485.983 607.527 411.859 479.14C337.735 350.754 381.705 186.597 510.069 112.486C638.433 38.3756 802.582 82.3746 876.705 210.761C950.829 339.147 906.859 503.304 778.495 577.415Z" stroke="url(#paint49_linear_2547_122710)" stroke-miterlimit="10"/>
  <path d="M762.343 575.579C633.046 650.229 467.704 605.91 393.041 476.59C318.378 347.27 362.668 181.92 491.965 107.271C621.262 32.621 786.604 76.9398 861.267 206.26C935.93 335.579 891.64 500.929 762.343 575.579Z" stroke="url(#paint50_linear_2547_122710)" stroke-miterlimit="10"/>
  <path d="M746.651 572.978C616.423 648.165 449.89 603.527 374.69 473.276C299.489 343.025 344.098 176.484 474.326 101.297C604.554 26.1095 771.087 70.7475 846.288 200.999C921.488 331.25 876.879 497.79 746.651 572.978Z" stroke="url(#paint51_linear_2547_122710)" stroke-miterlimit="10"/>
  <path d="M731.467 569.704C600.308 645.429 432.584 600.472 356.846 469.29C281.108 338.107 326.035 170.376 457.195 94.651C588.354 18.9262 756.078 63.8834 831.816 195.066C907.554 326.248 862.626 493.98 731.467 569.704Z" stroke="url(#paint52_linear_2547_122710)" stroke-miterlimit="10"/>
  <path d="M716.822 565.851C584.73 642.115 415.813 596.838 339.536 464.722C263.259 332.606 308.506 163.681 440.599 87.4176C572.691 11.154 741.608 56.431 817.885 188.547C894.162 320.663 848.915 489.587 716.822 565.851Z" stroke="url(#paint53_linear_2547_122710)" stroke-miterlimit="10"/>
  <path d="M702.74 561.502C569.716 638.303 399.608 592.707 322.794 459.66C245.979 326.613 291.545 156.497 424.569 79.6957C557.593 2.89449 727.7 48.4907 804.515 181.538C881.33 314.585 835.763 484.7 702.74 561.502Z" stroke="url(#paint54_linear_2547_122710)" stroke-miterlimit="10"/>
  <path d="M689.255 556.756C555.3 634.095 384.002 588.179 306.649 454.201C229.297 320.222 275.182 148.916 409.137 71.5773C543.092 -5.76154 714.39 40.1539 791.743 174.132C869.095 308.111 823.21 479.417 689.255 556.756Z" stroke="url(#paint55_linear_2547_122710)" stroke-miterlimit="10"/>
  <path d="M676.407 551.699C541.519 629.577 369.028 583.342 291.136 448.43C213.245 313.518 259.45 141.018 394.338 63.1407C529.226 -14.7369 701.718 31.4984 779.609 166.41C857.5 301.322 811.295 473.822 676.407 551.699Z" stroke="url(#paint56_linear_2547_122710)" stroke-miterlimit="10"/>
  <path d="M664.215 546.424C528.396 624.839 354.714 578.285 276.285 442.442C197.856 306.599 244.38 132.908 380.199 54.493C516.018 -23.9222 689.7 22.6323 768.129 158.475C846.558 294.318 800.034 468.009 664.215 546.424Z" stroke="url(#paint57_linear_2547_122710)" stroke-miterlimit="10"/>
  <path d="M652.723 541.014C515.972 619.967 341.099 573.093 262.133 436.319C183.166 299.545 230.009 124.663 366.759 45.7106C503.509 -33.2422 678.382 13.6314 757.349 150.406C836.316 287.18 789.473 462.061 652.723 541.014Z" stroke="url(#paint58_linear_2547_122710)" stroke-miterlimit="10"/>
  <path d="M641.953 535.569C504.27 615.061 328.203 567.867 248.698 430.159C169.192 292.452 216.355 116.377 354.038 36.8853C491.721 -42.6062 667.788 4.58724 747.293 142.295C826.799 280.003 779.637 456.077 641.953 535.569Z" stroke="url(#paint59_linear_2547_122710)" stroke-miterlimit="10"/>
  <path d="M631.937 530.173C493.322 610.202 316.065 562.689 236.022 424.05C155.979 285.411 203.46 108.146 342.075 28.1165C480.689 -51.9126 657.946 -4.39998 737.99 134.239C818.033 272.878 770.552 450.143 631.937 530.173Z" stroke="url(#paint60_linear_2547_122710)" stroke-miterlimit="10"/>
  <path d="M622.714 524.919C483.168 605.486 304.72 557.654 224.139 418.084C143.558 278.513 191.359 100.057 330.904 19.4904C470.45 -61.0764 648.898 -13.2446 729.479 126.326C810.06 265.896 762.259 444.352 622.714 524.919Z" stroke="url(#paint61_linear_2547_122710)" stroke-miterlimit="10"/>
  <path d="M614.307 519.902C473.829 601.007 294.187 552.855 213.067 412.352C131.948 271.848 180.068 92.1984 320.547 11.0929C461.026 -70.0127 640.667 -21.861 721.787 118.643C802.906 259.146 754.786 438.796 614.307 519.902Z" stroke="url(#paint62_linear_2547_122710)" stroke-miterlimit="10"/>
  <path d="M606.756 515.203C465.346 596.846 284.514 548.375 202.857 406.94C121.199 265.505 169.638 84.6645 311.048 3.02133C452.458 -78.6218 633.29 -30.151 714.948 111.284C796.605 252.719 748.166 433.559 606.756 515.203Z" stroke="url(#paint63_linear_2547_122710)" stroke-miterlimit="10"/>
  <path d="M600.091 510.914C457.75 593.094 275.728 544.304 193.532 401.938C111.337 259.572 160.095 77.5407 302.436 -4.64C444.778 -86.8207 626.8 -38.0308 708.995 104.335C791.191 246.702 742.433 428.733 600.091 510.914Z" stroke="url(#paint64_linear_2547_122710)" stroke-miterlimit="10"/>
  <path d="M594.342 507.135C451.067 589.854 267.851 540.744 185.117 397.445C102.383 254.145 151.461 70.9203 294.735 -11.7992C438.009 -94.5188 621.225 -45.4089 703.96 97.8907C786.694 241.19 737.616 424.415 594.342 507.135Z" stroke="url(#paint65_linear_2547_122710)" stroke-miterlimit="10"/>
  <path d="M589.536 503.945C445.331 587.202 260.924 537.773 177.652 393.543C94.3805 249.312 143.777 64.8961 287.983 -18.361C432.188 -101.618 616.595 -52.1891 699.867 92.0419C783.138 236.273 733.742 420.688 589.536 503.945Z" stroke="url(#paint66_linear_2547_122710)" stroke-miterlimit="10"/>
  <path d="M585.712 501.44C440.575 585.234 254.977 535.486 171.168 390.324C87.3585 245.162 137.074 59.5555 282.211 -24.2392C427.347 -108.034 612.945 -58.2857 696.754 86.8765C780.564 232.039 730.848 417.645 585.712 501.44Z" stroke="url(#paint67_linear_2547_122710)" stroke-miterlimit="10"/>
  <path d="M582.899 499.707C436.829 584.041 250.038 533.973 165.69 387.877C81.3417 241.782 131.377 54.982 277.447 -29.3515C423.517 -113.685 610.308 -63.6169 694.656 82.4787C779.004 228.574 728.969 415.374 582.899 499.707Z" stroke="url(#paint68_linear_2547_122710)" stroke-miterlimit="10"/>
  <path d="M581.129 498.842C434.128 583.714 246.146 533.326 161.26 386.299C76.3744 239.272 126.729 51.282 273.73 -33.589C420.731 -118.46 608.712 -68.0729 693.598 78.954C778.484 225.981 728.13 413.971 581.129 498.842Z" stroke="url(#paint69_linear_2547_122710)" stroke-miterlimit="10"/>
  <path d="M580.434 498.934C432.499 584.344 243.325 533.637 157.9 385.677C72.4747 237.717 123.148 48.5327 271.083 -36.8771C419.017 -122.287 608.192 -71.5799 693.617 76.3804C779.042 224.341 728.368 413.525 580.434 498.934Z" stroke="url(#paint70_linear_2547_122710)" stroke-miterlimit="10"/>
  <path d="M580.843 500.069C431.978 586.017 241.612 534.99 155.65 386.099C69.6871 237.207 120.68 46.8328 269.545 -39.1147C418.411 -125.062 608.776 -74.0359 694.739 74.8557C780.701 223.747 729.709 414.122 580.843 500.069Z" stroke="url(#paint71_linear_2547_122710)" stroke-miterlimit="10"/>
  <defs>
    <linearGradient id="paint0_linear_2547_122710" x1="1242.15" y1="-241.193" x2="942.47" y2="-68.1716" gradientUnits="userSpaceOnUse">
      <stop stop-color="#1A82FF"/>
      <stop offset="1" stop-color="#7A26F3"/>
    </linearGradient>
    <linearGradient id="paint1_linear_2547_122710" x1="1243.8" y1="-241.487" x2="940.747" y2="-66.5171" gradientUnits="userSpaceOnUse">
      <stop stop-color="#1A82FF"/>
      <stop offset="1" stop-color="#7A26F3"/>
    </linearGradient>
    <linearGradient id="paint2_linear_2547_122710" x1="1245.37" y1="-240.451" x2="938.945" y2="-63.5344" gradientUnits="userSpaceOnUse">
      <stop stop-color="#1A82FF"/>
      <stop offset="1" stop-color="#7A26F3"/>
    </linearGradient>
    <linearGradient id="paint3_linear_2547_122710" x1="1246.84" y1="-238.146" x2="937.035" y2="-59.28" gradientUnits="userSpaceOnUse">
      <stop stop-color="#1A82FF"/>
      <stop offset="1" stop-color="#7A26F3"/>
    </linearGradient>
    <linearGradient id="paint4_linear_2547_122710" x1="1248.18" y1="-234.636" x2="935" y2="-53.8208" gradientUnits="userSpaceOnUse">
      <stop stop-color="#1A82FF"/>
      <stop offset="1" stop-color="#7A26F3"/>
    </linearGradient>
    <linearGradient id="paint5_linear_2547_122710" x1="1249.38" y1="-229.973" x2="932.823" y2="-47.209" gradientUnits="userSpaceOnUse">
      <stop stop-color="#1A82FF"/>
      <stop offset="1" stop-color="#7A26F3"/>
    </linearGradient>
    <linearGradient id="paint6_linear_2547_122710" x1="1250.4" y1="-224.214" x2="930.475" y2="-39.5036" gradientUnits="userSpaceOnUse">
      <stop stop-color="#1A82FF"/>
      <stop offset="1" stop-color="#7A26F3"/>
    </linearGradient>
    <linearGradient id="paint7_linear_2547_122710" x1="1251.24" y1="-217.428" x2="927.944" y2="-30.7709" gradientUnits="userSpaceOnUse">
      <stop stop-color="#1A82FF"/>
      <stop offset="1" stop-color="#7A26F3"/>
    </linearGradient>
    <linearGradient id="paint8_linear_2547_122710" x1="1251.87" y1="-209.67" x2="925.196" y2="-21.0637" gradientUnits="userSpaceOnUse">
      <stop stop-color="#1A82FF"/>
      <stop offset="1" stop-color="#7A26F3"/>
    </linearGradient>
    <linearGradient id="paint9_linear_2547_122710" x1="1252.28" y1="-200.994" x2="922.22" y2="-10.4363" gradientUnits="userSpaceOnUse">
      <stop stop-color="#1A82FF"/>
      <stop offset="1" stop-color="#7A26F3"/>
    </linearGradient>
    <linearGradient id="paint10_linear_2547_122710" x1="1252.42" y1="-191.464" x2="918.993" y2="1.04056" gradientUnits="userSpaceOnUse">
      <stop stop-color="#1A82FF"/>
      <stop offset="1" stop-color="#7A26F3"/>
    </linearGradient>
    <linearGradient id="paint11_linear_2547_122710" x1="1252.3" y1="-181.135" x2="915.492" y2="13.3184" gradientUnits="userSpaceOnUse">
      <stop stop-color="#1A82FF"/>
      <stop offset="1" stop-color="#7A26F3"/>
    </linearGradient>
    <linearGradient id="paint12_linear_2547_122710" x1="1251.88" y1="-170.068" x2="911.699" y2="26.3345" gradientUnits="userSpaceOnUse">
      <stop stop-color="#1A82FF"/>
      <stop offset="1" stop-color="#7A26F3"/>
    </linearGradient>
    <linearGradient id="paint13_linear_2547_122710" x1="1251.14" y1="-158.323" x2="907.592" y2="40.026" gradientUnits="userSpaceOnUse">
      <stop stop-color="#1A82FF"/>
      <stop offset="1" stop-color="#7A26F3"/>
    </linearGradient>
    <linearGradient id="paint14_linear_2547_122710" x1="1250.07" y1="-145.953" x2="903.147" y2="54.3448" gradientUnits="userSpaceOnUse">
      <stop stop-color="#1A82FF"/>
      <stop offset="1" stop-color="#7A26F3"/>
    </linearGradient>
    <linearGradient id="paint15_linear_2547_122710" x1="1248.64" y1="-133.025" x2="898.342" y2="69.222" gradientUnits="userSpaceOnUse">
      <stop stop-color="#1A82FF"/>
      <stop offset="1" stop-color="#7A26F3"/>
    </linearGradient>
    <linearGradient id="paint16_linear_2547_122710" x1="1246.84" y1="-119.593" x2="893.165" y2="84.6012" gradientUnits="userSpaceOnUse">
      <stop stop-color="#1A82FF"/>
      <stop offset="1" stop-color="#7A26F3"/>
    </linearGradient>
    <linearGradient id="paint17_linear_2547_122710" x1="1244.63" y1="-105.717" x2="887.587" y2="100.424" gradientUnits="userSpaceOnUse">
      <stop stop-color="#1A82FF"/>
      <stop offset="1" stop-color="#7A26F3"/>
    </linearGradient>
    <linearGradient id="paint18_linear_2547_122710" x1="1242.01" y1="-91.4564" x2="881.583" y2="116.633" gradientUnits="userSpaceOnUse">
      <stop stop-color="#1A82FF"/>
      <stop offset="1" stop-color="#7A26F3"/>
    </linearGradient>
    <linearGradient id="paint19_linear_2547_122710" x1="1238.94" y1="-76.8679" x2="875.141" y2="133.173" gradientUnits="userSpaceOnUse">
      <stop stop-color="#1A82FF"/>
      <stop offset="1" stop-color="#7A26F3"/>
    </linearGradient>
    <linearGradient id="paint20_linear_2547_122710" x1="1235.42" y1="-62.0117" x2="868.242" y2="149.976" gradientUnits="userSpaceOnUse">
      <stop stop-color="#1A82FF"/>
      <stop offset="1" stop-color="#7A26F3"/>
    </linearGradient>
    <linearGradient id="paint21_linear_2547_122710" x1="1231.4" y1="-46.9506" x2="860.848" y2="166.986" gradientUnits="userSpaceOnUse">
      <stop stop-color="#1A82FF"/>
      <stop offset="1" stop-color="#7A26F3"/>
    </linearGradient>
    <linearGradient id="paint22_linear_2547_122710" x1="1226.88" y1="-31.7331" x2="852.956" y2="184.152" gradientUnits="userSpaceOnUse">
      <stop stop-color="#1A82FF"/>
      <stop offset="1" stop-color="#7A26F3"/>
    </linearGradient>
    <linearGradient id="paint23_linear_2547_122710" x1="1221.83" y1="-16.4257" x2="844.538" y2="201.406" gradientUnits="userSpaceOnUse">
      <stop stop-color="#1A82FF"/>
      <stop offset="1" stop-color="#7A26F3"/>
    </linearGradient>
    <linearGradient id="paint24_linear_2547_122710" x1="1216.25" y1="-1.09124" x2="835.573" y2="218.69" gradientUnits="userSpaceOnUse">
      <stop stop-color="#1A82FF"/>
      <stop offset="1" stop-color="#7A26F3"/>
    </linearGradient>
    <linearGradient id="paint25_linear_2547_122710" x1="1210.08" y1="14.2201" x2="826.037" y2="235.95" gradientUnits="userSpaceOnUse">
      <stop stop-color="#1A82FF"/>
      <stop offset="1" stop-color="#7A26F3"/>
    </linearGradient>
    <linearGradient id="paint26_linear_2547_122710" x1="1203.34" y1="29.4474" x2="815.916" y2="253.124" gradientUnits="userSpaceOnUse">
      <stop stop-color="#1A82FF"/>
      <stop offset="1" stop-color="#7A26F3"/>
    </linearGradient>
    <linearGradient id="paint27_linear_2547_122710" x1="1195.98" y1="44.5262" x2="805.181" y2="270.152" gradientUnits="userSpaceOnUse">
      <stop stop-color="#1A82FF"/>
      <stop offset="1" stop-color="#7A26F3"/>
    </linearGradient>
    <linearGradient id="paint28_linear_2547_122710" x1="1187.98" y1="59.4078" x2="793.817" y2="286.98" gradientUnits="userSpaceOnUse">
      <stop stop-color="#1A82FF"/>
      <stop offset="1" stop-color="#7A26F3"/>
    </linearGradient>
    <linearGradient id="paint29_linear_2547_122710" x1="1179.34" y1="74.0255" x2="781.801" y2="303.547" gradientUnits="userSpaceOnUse">
      <stop stop-color="#1A82FF"/>
      <stop offset="1" stop-color="#7A26F3"/>
    </linearGradient>
    <linearGradient id="paint30_linear_2547_122710" x1="1170.02" y1="88.3173" x2="769.106" y2="319.788" gradientUnits="userSpaceOnUse">
      <stop stop-color="#1A82FF"/>
      <stop offset="1" stop-color="#7A26F3"/>
    </linearGradient>
    <linearGradient id="paint31_linear_2547_122710" x1="1160.02" y1="102.234" x2="755.722" y2="335.653" gradientUnits="userSpaceOnUse">
      <stop stop-color="#1A82FF"/>
      <stop offset="1" stop-color="#7A26F3"/>
    </linearGradient>
    <linearGradient id="paint32_linear_2547_122710" x1="1149.29" y1="115.713" x2="741.62" y2="351.081" gradientUnits="userSpaceOnUse">
      <stop stop-color="#1A82FF"/>
      <stop offset="1" stop-color="#7A26F3"/>
    </linearGradient>
    <linearGradient id="paint33_linear_2547_122710" x1="1137.82" y1="128.692" x2="726.783" y2="366.008" gradientUnits="userSpaceOnUse">
      <stop stop-color="#1A82FF"/>
      <stop offset="1" stop-color="#7A26F3"/>
    </linearGradient>
    <linearGradient id="paint34_linear_2547_122710" x1="1125.6" y1="141.117" x2="711.185" y2="380.381" gradientUnits="userSpaceOnUse">
      <stop stop-color="#1A82FF"/>
      <stop offset="1" stop-color="#7A26F3"/>
    </linearGradient>
    <linearGradient id="paint35_linear_2547_122710" x1="1112.6" y1="152.926" x2="694.81" y2="394.137" gradientUnits="userSpaceOnUse">
      <stop stop-color="#1A82FF"/>
      <stop offset="1" stop-color="#7A26F3"/>
    </linearGradient>
    <linearGradient id="paint36_linear_2547_122710" x1="1098.8" y1="164.061" x2="677.633" y2="407.223" gradientUnits="userSpaceOnUse">
      <stop stop-color="#1A82FF"/>
      <stop offset="1" stop-color="#7A26F3"/>
    </linearGradient>
    <linearGradient id="paint37_linear_2547_122710" x1="1084.17" y1="174.464" x2="659.633" y2="419.573" gradientUnits="userSpaceOnUse">
      <stop stop-color="#1A82FF"/>
      <stop offset="1" stop-color="#7A26F3"/>
    </linearGradient>
    <linearGradient id="paint38_linear_2547_122710" x1="1068.71" y1="184.073" x2="640.794" y2="431.13" gradientUnits="userSpaceOnUse">
      <stop stop-color="#1A82FF"/>
      <stop offset="1" stop-color="#7A26F3"/>
    </linearGradient>
    <linearGradient id="paint39_linear_2547_122710" x1="1050.21" y1="193.903" x2="618.921" y2="442.908" gradientUnits="userSpaceOnUse">
      <stop stop-color="#1A82FF"/>
      <stop offset="1" stop-color="#7A26F3"/>
    </linearGradient>
    <linearGradient id="paint40_linear_2547_122710" x1="1031.8" y1="201.996" x2="597.132" y2="452.949" gradientUnits="userSpaceOnUse">
      <stop stop-color="#1A82FF"/>
      <stop offset="1" stop-color="#7A26F3"/>
    </linearGradient>
    <linearGradient id="paint41_linear_2547_122710" x1="1013.53" y1="208.424" x2="575.491" y2="461.326" gradientUnits="userSpaceOnUse">
      <stop stop-color="#1A82FF"/>
      <stop offset="1" stop-color="#7A26F3"/>
    </linearGradient>
    <linearGradient id="paint42_linear_2547_122710" x1="995.457" y1="213.276" x2="554.041" y2="468.128" gradientUnits="userSpaceOnUse">
      <stop stop-color="#1A82FF"/>
      <stop offset="1" stop-color="#7A26F3"/>
    </linearGradient>
    <linearGradient id="paint43_linear_2547_122710" x1="977.598" y1="216.64" x2="532.81" y2="473.439" gradientUnits="userSpaceOnUse">
      <stop stop-color="#1A82FF"/>
      <stop offset="1" stop-color="#7A26F3"/>
    </linearGradient>
    <linearGradient id="paint44_linear_2547_122710" x1="959.99" y1="218.616" x2="511.826" y2="477.363" gradientUnits="userSpaceOnUse">
      <stop stop-color="#1A82FF"/>
      <stop offset="1" stop-color="#7A26F3"/>
    </linearGradient>
    <linearGradient id="paint45_linear_2547_122710" x1="942.661" y1="219.282" x2="491.126" y2="479.976" gradientUnits="userSpaceOnUse">
      <stop stop-color="#1A82FF"/>
      <stop offset="1" stop-color="#7A26F3"/>
    </linearGradient>
    <linearGradient id="paint46_linear_2547_122710" x1="925.646" y1="218.734" x2="470.735" y2="481.377" gradientUnits="userSpaceOnUse">
      <stop stop-color="#1A82FF"/>
      <stop offset="1" stop-color="#7A26F3"/>
    </linearGradient>
    <linearGradient id="paint47_linear_2547_122710" x1="908.975" y1="217.061" x2="450.692" y2="481.651" gradientUnits="userSpaceOnUse">
      <stop stop-color="#1A82FF"/>
      <stop offset="1" stop-color="#7A26F3"/>
    </linearGradient>
    <linearGradient id="paint48_linear_2547_122710" x1="892.681" y1="214.356" x2="431.019" y2="480.897" gradientUnits="userSpaceOnUse">
      <stop stop-color="#1A82FF"/>
      <stop offset="1" stop-color="#7A26F3"/>
    </linearGradient>
    <linearGradient id="paint49_linear_2547_122710" x1="876.799" y1="210.707" x2="411.765" y2="479.194" gradientUnits="userSpaceOnUse">
      <stop stop-color="#1A82FF"/>
      <stop offset="1" stop-color="#7A26F3"/>
    </linearGradient>
    <linearGradient id="paint50_linear_2547_122710" x1="861.357" y1="206.208" x2="392.947" y2="476.644" gradientUnits="userSpaceOnUse">
      <stop stop-color="#1A82FF"/>
      <stop offset="1" stop-color="#7A26F3"/>
    </linearGradient>
    <linearGradient id="paint51_linear_2547_122710" x1="846.381" y1="200.944" x2="374.6" y2="473.328" gradientUnits="userSpaceOnUse">
      <stop stop-color="#1A82FF"/>
      <stop offset="1" stop-color="#7A26F3"/>
    </linearGradient>
    <linearGradient id="paint52_linear_2547_122710" x1="831.913" y1="195.009" x2="356.752" y2="469.344" gradientUnits="userSpaceOnUse">
      <stop stop-color="#1A82FF"/>
      <stop offset="1" stop-color="#7A26F3"/>
    </linearGradient>
    <linearGradient id="paint53_linear_2547_122710" x1="817.979" y1="188.493" x2="339.446" y2="464.774" gradientUnits="userSpaceOnUse">
      <stop stop-color="#1A82FF"/>
      <stop offset="1" stop-color="#7A26F3"/>
    </linearGradient>
    <linearGradient id="paint54_linear_2547_122710" x1="804.609" y1="181.484" x2="322.7" y2="459.714" gradientUnits="userSpaceOnUse">
      <stop stop-color="#1A82FF"/>
      <stop offset="1" stop-color="#7A26F3"/>
    </linearGradient>
    <linearGradient id="paint55_linear_2547_122710" x1="791.84" y1="174.076" x2="306.556" y2="454.255" gradientUnits="userSpaceOnUse">
      <stop stop-color="#1A82FF"/>
      <stop offset="1" stop-color="#7A26F3"/>
    </linearGradient>
    <linearGradient id="paint56_linear_2547_122710" x1="779.699" y1="166.358" x2="291.042" y2="448.484" gradientUnits="userSpaceOnUse">
      <stop stop-color="#1A82FF"/>
      <stop offset="1" stop-color="#7A26F3"/>
    </linearGradient>
    <linearGradient id="paint57_linear_2547_122710" x1="768.223" y1="158.421" x2="276.191" y2="442.496" gradientUnits="userSpaceOnUse">
      <stop stop-color="#1A82FF"/>
      <stop offset="1" stop-color="#7A26F3"/>
    </linearGradient>
    <linearGradient id="paint58_linear_2547_122710" x1="757.443" y1="150.352" x2="262.035" y2="436.375" gradientUnits="userSpaceOnUse">
      <stop stop-color="#1A82FF"/>
      <stop offset="1" stop-color="#7A26F3"/>
    </linearGradient>
    <linearGradient id="paint59_linear_2547_122710" x1="747.384" y1="142.243" x2="248.604" y2="430.214" gradientUnits="userSpaceOnUse">
      <stop stop-color="#1A82FF"/>
      <stop offset="1" stop-color="#7A26F3"/>
    </linearGradient>
    <linearGradient id="paint60_linear_2547_122710" x1="738.084" y1="134.185" x2="235.928" y2="424.104" gradientUnits="userSpaceOnUse">
      <stop stop-color="#1A82FF"/>
      <stop offset="1" stop-color="#7A26F3"/>
    </linearGradient>
    <linearGradient id="paint61_linear_2547_122710" x1="729.573" y1="126.271" x2="224.045" y2="418.138" gradientUnits="userSpaceOnUse">
      <stop stop-color="#1A82FF"/>
      <stop offset="1" stop-color="#7A26F3"/>
    </linearGradient>
    <linearGradient id="paint62_linear_2547_122710" x1="721.881" y1="118.588" x2="212.977" y2="412.404" gradientUnits="userSpaceOnUse">
      <stop stop-color="#1A82FF"/>
      <stop offset="1" stop-color="#7A26F3"/>
    </linearGradient>
    <linearGradient id="paint63_linear_2547_122710" x1="715.042" y1="111.23" x2="202.763" y2="406.994" gradientUnits="userSpaceOnUse">
      <stop stop-color="#1A82FF"/>
      <stop offset="1" stop-color="#7A26F3"/>
    </linearGradient>
    <linearGradient id="paint64_linear_2547_122710" x1="709.089" y1="104.281" x2="193.435" y2="401.995" gradientUnits="userSpaceOnUse">
      <stop stop-color="#1A82FF"/>
      <stop offset="1" stop-color="#7A26F3"/>
    </linearGradient>
    <linearGradient id="paint65_linear_2547_122710" x1="704.053" y1="97.8365" x2="185.023" y2="397.499" gradientUnits="userSpaceOnUse">
      <stop stop-color="#1A82FF"/>
      <stop offset="1" stop-color="#7A26F3"/>
    </linearGradient>
    <linearGradient id="paint66_linear_2547_122710" x1="699.964" y1="91.9855" x2="177.558" y2="393.597" gradientUnits="userSpaceOnUse">
      <stop stop-color="#1A82FF"/>
      <stop offset="1" stop-color="#7A26F3"/>
    </linearGradient>
    <linearGradient id="paint67_linear_2547_122710" x1="696.852" y1="86.8202" x2="171.074" y2="390.378" gradientUnits="userSpaceOnUse">
      <stop stop-color="#1A82FF"/>
      <stop offset="1" stop-color="#7A26F3"/>
    </linearGradient>
    <linearGradient id="paint68_linear_2547_122710" x1="694.75" y1="82.4245" x2="165.596" y2="387.931" gradientUnits="userSpaceOnUse">
      <stop stop-color="#1A82FF"/>
      <stop offset="1" stop-color="#7A26F3"/>
    </linearGradient>
    <linearGradient id="paint69_linear_2547_122710" x1="693.692" y1="78.8998" x2="161.163" y2="386.356" gradientUnits="userSpaceOnUse">
      <stop stop-color="#1A82FF"/>
      <stop offset="1" stop-color="#7A26F3"/>
    </linearGradient>
    <linearGradient id="paint70_linear_2547_122710" x1="693.711" y1="76.3262" x2="157.809" y2="385.729" gradientUnits="userSpaceOnUse">
      <stop stop-color="#1A82FF"/>
      <stop offset="1" stop-color="#7A26F3"/>
    </linearGradient>
    <linearGradient id="paint71_linear_2547_122710" x1="694.833" y1="74.8015" x2="155.56" y2="386.151" gradientUnits="userSpaceOnUse">
      <stop stop-color="#1A82FF"/>
      <stop offset="1" stop-color="#7A26F3"/>
    </linearGradient>
  </defs>
</svg>
