<svg viewBox="0 0 142 148" fill="none"
  xmlns="http://www.w3.org/2000/svg">
  <g opacity="0.6">
    <g clip-path="url(#clip0_302_5571)">
      <path d="M114.435 86.7537C142.577 86.7537 165.391 64.0169 165.391 35.9696C165.391 7.92235 142.577 -14.8145 114.435 -14.8145C86.2928 -14.8145 63.479 7.92235 63.479 35.9696C63.479 64.0169 86.2928 86.7537 114.435 86.7537Z" stroke="#0074F0" stroke-miterlimit="10"/>
      <path opacity="0.75" d="M105.158 68.2619C129.639 68.2619 149.485 48.4828 149.485 24.0841C149.485 -0.314667 129.639 -20.0938 105.158 -20.0938C80.6761 -20.0938 60.8301 -0.314667 60.8301 24.0841C60.8301 48.4828 80.6761 68.2619 105.158 68.2619Z" stroke="#0074F0" stroke-miterlimit="10"/>
      <path opacity="0.5" d="M95.8805 49.7701C116.701 49.7701 133.579 32.9487 133.579 12.1985C133.579 -8.55169 116.701 -25.373 95.8805 -25.373C75.06 -25.373 58.1816 -8.55169 58.1816 12.1985C58.1816 32.9487 75.06 49.7701 95.8805 49.7701Z" stroke="#0074F0" stroke-miterlimit="10"/>
      <path opacity="0.25" d="M86.6034 31.2783C103.763 31.2783 117.674 17.4146 117.674 0.312958C117.674 -16.7887 103.763 -30.6523 86.6034 -30.6523C69.4438 -30.6523 55.5332 -16.7887 55.5332 0.312958C55.5332 17.4146 69.4438 31.2783 86.6034 31.2783Z" stroke="#0074F0" stroke-miterlimit="10"/>
      <path opacity="0.25" d="M85.3458 12.7335C96.855 12.7335 106.185 3.43482 106.185 -8.03562C106.185 -19.5061 96.855 -28.8047 85.3458 -28.8047C73.8365 -28.8047 64.5063 -19.5061 64.5063 -8.03562C64.5063 3.43482 73.8365 12.7335 85.3458 12.7335Z" stroke="#0074F0" stroke-miterlimit="10"/>
      <path opacity="0.5" d="M93.3661 12.6734C102.884 12.6734 110.6 4.98365 110.6 -4.50216C110.6 -13.988 102.884 -21.6777 93.3661 -21.6777C83.8481 -21.6777 76.1323 -13.988 76.1323 -4.50216C76.1323 4.98365 83.8481 12.6734 93.3661 12.6734Z" stroke="#0074F0" stroke-miterlimit="10"/>
      <path opacity="0.75" d="M101.386 12.6134C108.912 12.6134 115.014 6.53247 115.014 -0.968707C115.014 -8.46988 108.912 -14.5508 101.386 -14.5508C93.8593 -14.5508 87.7578 -8.46988 87.7578 -0.968707C87.7578 6.53247 93.8593 12.6134 101.386 12.6134Z" stroke="#0074F0" stroke-miterlimit="10"/>
      <path d="M109.406 12.5553C114.941 12.5553 119.429 8.08325 119.429 2.5667C119.429 -2.94984 114.941 -7.42188 109.406 -7.42188C103.871 -7.42188 99.3838 -2.94984 99.3838 2.5667C99.3838 8.08325 103.871 12.5553 109.406 12.5553Z" stroke="#0074F0" stroke-miterlimit="10"/>
      <path d="M139.004 103.45C150.539 103.45 159.889 94.1308 159.889 82.6351C159.889 71.1394 150.539 61.8203 139.004 61.8203C127.469 61.8203 118.119 71.1394 118.119 82.6351C118.119 94.1308 127.469 103.45 139.004 103.45Z" stroke="#0074F0" stroke-miterlimit="10"/>
      <path opacity="0.75" d="M149.093 109.305C159.764 109.305 168.414 100.684 168.414 90.0496C168.414 79.415 159.764 70.7939 149.093 70.7939C138.423 70.7939 129.772 79.415 129.772 90.0496C129.772 100.684 138.423 109.305 149.093 109.305Z" stroke="#0074F0" stroke-miterlimit="10"/>
      <path opacity="0.5" d="M159.186 115.161C168.991 115.161 176.939 107.24 176.939 97.4683C176.939 87.6968 168.991 79.7754 159.186 79.7754C149.382 79.7754 141.434 87.6968 141.434 97.4683C141.434 107.24 149.382 115.161 159.186 115.161Z" stroke="#0074F0" stroke-miterlimit="10"/>
      <path opacity="0.25" d="M163.138 116.841C176.229 116.841 186.842 106.264 186.842 93.2172C186.842 80.1703 176.229 69.5938 163.138 69.5938C150.047 69.5938 139.435 80.1703 139.435 93.2172C139.435 106.264 150.047 116.841 163.138 116.841Z" stroke="#0074F0" stroke-miterlimit="10"/>
      <path opacity="0.5" d="M146.904 106.81C165.011 106.81 179.69 92.1802 179.69 74.1338C179.69 56.0875 165.011 41.458 146.904 41.458C128.796 41.458 114.117 56.0875 114.117 74.1338C114.117 92.1802 128.796 106.81 146.904 106.81Z" stroke="#0074F0" stroke-miterlimit="10"/>
      <path opacity="0.75" d="M130.669 96.7857C153.795 96.7857 172.542 78.1018 172.542 55.054C172.542 32.0062 153.795 13.3223 130.669 13.3223C107.544 13.3223 88.7964 32.0062 88.7964 55.054C88.7964 78.1018 107.544 96.7857 130.669 96.7857Z" stroke="#0074F0" stroke-miterlimit="10"/>
      <path d="M114.435 86.7556C142.577 86.7556 165.391 64.0188 165.391 35.9716C165.391 7.9243 142.577 -14.8125 114.435 -14.8125C86.2928 -14.8125 63.479 7.9243 63.479 35.9716C63.479 64.0188 86.2928 86.7556 114.435 86.7556Z" stroke="#0074F0" stroke-miterlimit="10"/>
      <path d="M14.3063 116.059C22.1098 116.059 28.4359 109.755 28.4359 101.977C28.4359 94.2002 22.1098 87.8955 14.3063 87.8955C6.50277 87.8955 0.176758 94.2002 0.176758 101.977C0.176758 109.755 6.50277 116.059 14.3063 116.059Z" stroke="#0074F0" stroke-miterlimit="10"/>
      <path opacity="0.67" d="M23.7251 110.527C30.4013 110.527 35.8134 105.133 35.8134 98.4792C35.8134 91.8255 30.4013 86.4316 23.7251 86.4316C17.0489 86.4316 11.6367 91.8255 11.6367 98.4792C11.6367 105.133 17.0489 110.527 23.7251 110.527Z" stroke="#0074F0" stroke-miterlimit="10"/>
      <path opacity="0.33" d="M33.1433 104.992C38.6922 104.992 43.1905 100.509 43.1905 94.979C43.1905 89.4489 38.6922 84.9658 33.1433 84.9658C27.5944 84.9658 23.0962 89.4489 23.0962 94.979C23.0962 100.509 27.5944 104.992 33.1433 104.992Z" stroke="#0074F0" stroke-miterlimit="10"/>
      <path d="M107.386 112.943C111.807 112.943 115.392 109.371 115.392 104.964C115.392 100.558 111.807 96.9854 107.386 96.9854C102.964 96.9854 99.3799 100.558 99.3799 104.964C99.3799 109.371 102.964 112.943 107.386 112.943Z" stroke="#0074F0" stroke-miterlimit="10"/>
    </g>
  </g>
  <defs>
    <clipPath id="clip0_302_5571">
      <rect width="336" height="226.154" fill="white" transform="translate(0 -79.0762)"/>
    </clipPath>
  </defs>
</svg>
