<svg viewBox="0 0 125 128" fill="none"
  xmlns="http://www.w3.org/2000/svg">
  <g opacity="0.3" clip-path="url(#clip0_302_8288)">
    <path opacity="0.1" d="M0.108398 -110.961C57.3736 -168.143 150.215 -168.143 207.48 -110.961C253.291 -65.2167 253.291 8.95189 207.48 54.6963C170.83 91.2937 111.41 91.2937 74.7625 54.6963C45.4426 25.419 45.4426 -22.0472 74.7625 -51.3245C98.219 -74.747 136.247 -74.747 159.701 -51.3245C178.464 -32.5884 178.464 -2.20754 159.701 16.5286C144.689 31.5181 120.351 31.5181 105.339 16.5286C93.3308 4.53758 93.3308 -14.9064 105.339 -26.8974C114.945 -36.4896 130.523 -36.4896 140.129 -26.8974C147.816 -19.2218 147.816 -6.77952 140.129 0.89607C133.981 7.03531 124.013 7.03531 117.862 0.89607" stroke="#FF1D1D" stroke-miterlimit="10"/>
    <path opacity="0.18" d="M23.543 -93.149C70.3941 -139.932 146.358 -139.932 193.212 -93.149C230.695 -55.7201 230.695 4.96133 193.212 42.3872C163.226 72.3291 114.611 72.3291 84.6253 42.3872C60.6363 18.433 60.6363 -20.4024 84.6253 -44.3566C103.816 -63.5193 134.931 -63.5193 154.122 -44.3566C169.474 -29.027 169.474 -4.17022 154.122 11.1593C141.841 23.4223 121.926 23.4223 109.645 11.1593C99.8192 1.34767 99.8192 -14.5599 109.645 -24.3716C117.505 -32.2203 130.25 -32.2203 138.111 -24.3716C144.398 -18.0933 144.398 -7.91065 138.111 -1.63231C133.08 3.39099 124.923 3.39099 119.892 -1.63231" stroke="#FF1D1D" stroke-miterlimit="10"/>
    <path opacity="0.26" d="M46.978 -75.3366C83.4181 -111.724 142.501 -111.724 178.941 -75.3366C208.093 -46.2262 208.093 0.97115 178.941 30.0815C155.617 53.3711 117.806 53.3711 94.4823 30.0815C75.8242 11.4505 75.8242 -18.7542 94.4823 -37.3852C109.407 -52.2881 133.61 -52.2881 148.534 -37.3852C160.474 -25.4622 160.474 -6.12947 148.534 5.79351C138.981 15.3331 123.493 15.3331 113.939 5.79351C106.296 -1.83881 106.296 -14.21 113.939 -21.8423C120.053 -27.9476 129.966 -27.9476 136.08 -21.8423C140.971 -16.9581 140.971 -9.04143 136.08 -4.15724C132.167 -0.249891 125.824 -0.249891 121.911 -4.15724" stroke="#FF1D1D" stroke-miterlimit="10"/>
    <path opacity="0.35" d="M70.4131 -57.528C96.4422 -83.5193 138.643 -83.5193 164.673 -57.528C185.495 -36.7362 185.495 -3.02295 164.673 17.7719C148.014 34.406 121.004 34.406 104.346 17.7719C91.0184 4.46408 91.0184 -17.1129 104.346 -30.4177C115.007 -41.064 132.294 -41.064 142.956 -30.4177C151.485 -21.9013 151.485 -8.09261 142.956 0.423805C136.133 7.23694 125.069 7.23694 118.246 0.423805C112.788 -5.02608 112.788 -13.864 118.246 -19.3139C122.614 -23.6756 129.694 -23.6756 134.059 -19.3139C137.554 -15.8238 137.554 -10.1699 134.059 -6.6799C131.263 -3.88849 126.731 -3.88849 123.939 -6.6799" stroke="#FF1D1D" stroke-miterlimit="10"/>
    <path opacity="0.43" d="M93.8477 -39.7156C109.466 -55.311 134.786 -55.311 150.404 -39.7156C162.898 -27.2392 162.898 -7.01316 150.404 5.46316C140.408 15.4448 124.205 15.4448 114.208 5.46316C106.212 -2.52156 106.212 -15.4677 114.208 -23.4525C120.604 -29.839 130.978 -29.839 137.374 -23.4525C142.491 -18.3426 142.491 -10.058 137.374 -4.94819C133.281 -0.861545 126.641 -0.861545 122.548 -4.94819C119.273 -8.21874 119.273 -13.5203 122.548 -16.7908C125.167 -19.406 129.418 -19.406 132.037 -16.7908C134.133 -14.698 134.133 -11.3038 132.037 -9.21103C130.359 -7.53557 127.641 -7.53557 125.963 -9.21103" stroke="#FF1D1D" stroke-miterlimit="10"/>
    <path opacity="0.59" d="M140.717 -4.09514C135.51 1.10436 127.071 1.10436 121.864 -4.09514C117.7 -8.25288 117.7 -14.9949 121.864 -19.1557C125.195 -22.4819 130.597 -22.4819 133.928 -19.1557C136.594 -16.4942 136.594 -12.1788 133.928 -9.5172C131.795 -7.38732 128.337 -7.38732 126.207 -9.5172C124.502 -11.2205 124.502 -13.981 126.207 -15.6843C127.573 -17.0475 129.786 -17.0475 131.148 -15.6843C132.241 -14.593 132.241 -12.8279 131.148 -11.7367C130.275 -10.865 128.857 -10.865 127.984 -11.7367C127.285 -12.4354 127.285 -13.5667 127.984 -14.2623C128.545 -14.8218 129.449 -14.8218 130.009 -14.2623" stroke="#FF1D1D" stroke-miterlimit="10"/>
    <path opacity="0.67" d="M164.152 13.7158C148.534 29.3112 123.214 29.3112 107.596 13.7158C95.1015 1.23945 95.1015 -18.9866 107.596 -31.463C117.592 -41.4446 133.795 -41.4446 143.791 -31.463C151.788 -23.4782 151.788 -10.5321 143.791 -2.54734C137.396 3.8392 127.022 3.8392 120.626 -2.54734C115.509 -7.65719 115.509 -15.9418 120.626 -21.0516C124.719 -25.1383 131.359 -25.1383 135.452 -21.0516C138.727 -17.7811 138.727 -12.4795 135.452 -9.20899C132.833 -6.59379 128.582 -6.59379 125.963 -9.20899C123.867 -11.3018 123.867 -14.696 125.963 -16.7888C127.641 -18.4642 130.359 -18.4642 132.037 -16.7888" stroke="#FF1D1D" stroke-miterlimit="10"/>
    <path opacity="0.75" d="M187.587 31.5275C161.558 57.5188 119.357 57.5188 93.3275 31.5275C72.5054 10.7357 72.5054 -22.9776 93.3275 -43.7725C109.986 -60.4066 136.996 -60.4066 153.654 -43.7725C166.982 -30.4646 166.982 -8.88766 153.654 4.41712C142.993 15.0634 125.706 15.0634 115.044 4.41712C106.515 -4.0993 106.515 -17.9079 115.044 -26.4244C121.867 -33.2375 132.931 -33.2375 139.754 -26.4244C145.212 -20.9745 145.212 -12.1366 139.754 -6.68668C135.386 -2.32491 128.306 -2.32491 123.941 -6.68668C120.446 -10.1767 120.446 -15.8306 123.941 -19.3206C126.737 -22.1121 131.269 -22.1121 134.061 -19.3206" stroke="#FF1D1D" stroke-miterlimit="10"/>
    <path opacity="0.84" d="M211.022 49.3364C174.582 85.7236 115.499 85.7236 79.0593 49.3364C49.9067 20.226 49.9067 -26.9713 79.0593 -56.0817C102.383 -79.3712 140.194 -79.3712 163.518 -56.0817C182.176 -37.4507 182.176 -7.24598 163.518 11.385C148.593 26.288 124.39 26.288 109.466 11.385C97.5255 -0.537954 97.5255 -19.8707 109.466 -31.7937C119.019 -41.3333 134.507 -41.3333 144.061 -31.7937C151.704 -24.1614 151.704 -11.7901 144.061 -4.15782C137.947 1.94742 128.034 1.94742 121.92 -4.15782C117.029 -9.042 117.029 -16.9587 121.92 -21.8429C125.833 -25.7503 132.176 -25.7503 136.089 -21.8429" stroke="#FF1D1D" stroke-miterlimit="10"/>
    <path opacity="0.92" d="M234.454 67.1489C187.603 113.932 111.639 113.932 64.7849 67.1489C27.3015 29.7199 27.3015 -30.9614 64.7849 -68.3873C94.7703 -98.3292 143.386 -98.3292 173.372 -68.3873C197.36 -44.4332 197.36 -5.59769 173.372 18.3565C154.181 37.5192 123.066 37.5192 103.875 18.3565C88.5231 3.02692 88.5231 -21.8299 103.875 -37.1594C116.156 -49.4224 136.071 -49.4224 148.352 -37.1594C158.178 -27.3478 158.178 -11.4402 148.352 -1.62851C140.492 6.22019 127.746 6.22019 119.886 -1.62851C113.599 -7.90685 113.599 -18.0895 119.886 -24.3678C124.917 -29.3911 133.074 -29.3911 138.105 -24.3678" stroke="#FF1D1D" stroke-miterlimit="10"/>
    <path d="M257.888 84.9609C200.623 142.143 107.782 142.143 50.5164 84.9609C4.70547 39.2165 4.70547 -34.952 50.5164 -80.6965C87.167 -117.294 146.587 -117.294 183.234 -80.6965C212.554 -51.4192 212.554 -3.95292 183.234 25.3244C159.778 48.7468 121.75 48.7468 98.2962 25.3244C79.5329 6.58827 79.5329 -23.7926 98.2962 -42.5287C113.308 -57.5182 137.646 -57.5182 152.658 -42.5287C164.666 -30.5377 164.666 -11.0937 152.658 0.897267C143.052 10.4894 127.474 10.4894 117.868 0.897267C110.181 -6.77833 110.181 -19.2206 117.868 -26.8962C124.016 -33.0355 133.984 -33.0355 140.135 -26.8962" stroke="#FF1D1D" stroke-miterlimit="10"/>
  </g>
  <defs>
    <clipPath id="clip0_302_8288">
      <rect width="258" height="282" fill="white" transform="translate(0 -154)"/>
    </clipPath>
  </defs>
</svg>
