<svg viewBox="0 0 602 229" fill="none"
  xmlns="http://www.w3.org/2000/svg">
  <path d="M1125 724.233C1075.22 710.84 1036.57 670.389 1025.84 619.66C1020.19 592.666 996.214 572.399 967.5 572.399C965.192 572.399 962.905 572.524 960.659 572.794C957.457 573.209 954.193 573.417 950.866 573.417C909.344 573.417 875.661 539.798 875.661 498.31C875.661 489.692 877.116 481.428 879.778 473.724C881.649 468.657 882.668 463.155 882.668 457.444C882.668 431.446 861.564 410.37 835.532 410.37C835.678 408.813 835.74 407.234 835.74 405.656C835.74 388.255 827.423 372.806 814.532 363.046C791.224 345.666 774.84 319.523 770.266 289.518C765.712 256.127 752.572 225.458 733.173 199.771C690.362 144.619 664.871 75.3889 664.871 0.198764M1116.54 726.078C1112.32 724.624 1108.16 722.942 1104.06 721.052C1071.75 706.164 1043.43 679.398 1026.53 648.167C1023.97 643.454 1021.7 638.615 1019.75 633.694C1018.13 629.624 1016.67 625.43 1015.45 621.131C1015.07 619.802 1014.66 618.494 1014.18 617.207C1005.53 593.493 982.054 574.991 955.44 573.392C953.174 573.268 950.949 573.268 948.724 573.392C945.564 573.621 942.341 573.662 939.056 573.517C923.982 572.873 909.656 568.16 897.43 560.767C895.392 559.521 893.417 558.213 891.525 556.822C888.24 554.413 885.163 551.755 882.314 548.869C869.714 536.202 861.668 519.092 860.732 500.154C860.295 491.703 861.273 483.522 863.456 475.818C864.994 470.751 865.743 465.269 865.556 459.559C864.849 438.731 851.438 420.749 833.39 413.647C828.962 411.903 824.242 410.823 819.314 410.533C819.439 408.954 819.481 407.356 819.46 405.757C819.273 388.189 811.039 372.533 798.335 362.337C775.339 344.168 758.58 317.879 752.821 288.227C747.269 255.543 733.734 225.226 714.439 199.519C683.812 159.774 662.292 112.7 652.957 61.369C649.339 41.4346 647.551 20.9395 647.759 0.00839845M1108.07 727.928C1104.12 726.225 1100.21 724.294 1096.33 722.176C1065.64 705.315 1036.53 677.697 1017.75 648.024C1014.92 643.539 1012.37 638.991 1010.12 634.423C1008.25 630.644 1006.57 626.719 1005.05 622.649C1004.59 621.403 1004.09 620.157 1003.55 618.932C993.467 596.361 969.39 577.652 943.379 574.433C941.175 574.184 938.971 574.059 936.809 574.059C933.711 574.101 930.509 573.955 927.245 573.665C912.316 572.356 897.803 567.497 885.245 560.458C883.165 559.295 881.128 558.049 879.194 556.741C875.826 554.498 872.645 551.965 869.651 549.245C856.489 537.18 847.715 520.631 845.781 502.067C844.929 493.761 845.407 485.663 847.091 478C848.297 472.934 848.775 467.472 848.38 461.762C846.966 440.997 833.763 422.703 816.506 414.667C812.285 412.694 807.752 411.365 803.012 410.763C803.095 409.164 803.137 407.565 803.095 405.925C802.721 388.192 794.57 372.306 782.053 361.695C759.39 342.737 742.257 316.303 735.271 287.004C728.722 255.026 714.77 225.062 695.579 199.313C665.202 159.548 643.994 112.432 635.116 61.122C631.664 41.1876 630.084 20.7133 630.521 -0.114029M1099.61 729.756C1095.95 727.804 1092.27 725.623 1088.57 723.256C1059.48 704.422 1029.61 675.953 1008.96 647.838C1005.84 643.581 1003.01 639.345 1000.5 635.109C998.397 631.62 996.463 627.966 994.675 624.124C994.134 622.94 993.573 621.778 992.949 620.615C981.368 599.206 956.771 580.268 931.342 575.451C929.2 575.077 927.038 574.807 924.896 574.683C921.84 574.537 918.68 574.226 915.457 573.79C900.694 571.817 885.994 566.813 873.083 560.105C870.941 559.005 868.862 557.821 866.866 556.617C863.393 554.52 860.108 552.152 857.01 549.557C843.267 538.095 833.765 522.106 830.875 503.895C829.585 495.734 829.585 487.739 830.771 480.077C831.644 475.031 831.852 469.57 831.249 463.86C829.086 443.157 816.112 424.572 799.686 415.581C795.653 413.38 791.328 411.781 786.795 410.888C786.858 409.269 786.879 407.649 786.816 405.988C786.255 388.088 778.187 371.995 765.858 360.948C743.527 341.201 725.999 314.601 717.828 285.654C710.28 254.382 695.913 224.792 676.826 199.002C646.677 159.216 625.802 112.08 617.381 60.7694C614.117 40.8142 612.745 20.3814 613.389 -0.342029M1091.15 731.606C1087.76 729.405 1084.33 726.996 1080.84 724.38C1053.37 703.573 1022.7 674.232 1000.19 647.694C996.797 643.687 993.678 639.721 990.892 635.817C988.564 632.619 986.36 629.234 984.301 625.621C983.677 624.521 983.033 623.42 982.326 622.32C969.227 602.074 944.11 582.908 919.284 576.47C917.184 575.972 915.084 575.578 912.984 575.308C909.99 574.955 906.871 574.477 903.649 573.896C889.032 571.258 874.186 566.088 860.879 559.755C858.696 558.716 856.554 557.616 854.517 556.495C850.961 554.543 847.572 552.321 844.349 549.87C830.024 539.031 819.773 523.561 815.948 505.745C814.222 497.75 813.744 489.818 814.451 482.177C814.991 477.131 814.929 471.69 814.118 465.98C811.248 445.339 798.482 426.464 782.846 416.538C779.021 414.109 774.883 412.24 770.538 411.056C770.579 409.416 770.579 407.776 770.517 406.114C769.768 388.049 761.784 371.727 749.621 360.286C727.623 339.749 709.721 313.004 700.323 284.411C691.798 253.845 676.994 224.607 658.031 198.776C628.112 158.99 607.548 111.791 599.626 60.5016C596.549 40.5257 595.385 20.1344 596.237 -0.485236M1082.69 733.452C1079.57 731.002 1076.37 728.344 1073.1 725.478C1047.2 702.762 1015.8 672.507 991.41 647.527C987.751 643.747 984.341 640.093 981.264 636.521C978.706 633.614 976.253 630.479 973.903 627.135C973.217 626.097 972.469 625.059 971.699 624.041C957.103 604.938 931.446 585.543 907.223 577.528C905.186 576.884 903.127 576.386 901.069 575.991C898.116 575.451 895.039 574.808 891.858 574.081C877.386 570.8 862.375 565.443 848.714 559.462C846.469 558.486 844.285 557.469 842.185 556.431C838.547 554.624 835.033 552.547 831.685 550.263C816.757 540.047 805.779 525.117 800.996 507.674C798.834 499.825 797.877 491.997 798.085 484.376C798.293 479.351 797.94 473.91 796.942 468.2C793.366 447.622 780.786 428.456 765.962 417.575C762.323 414.917 758.393 412.799 754.256 411.304C754.276 409.643 754.256 407.981 754.172 406.3C753.237 388.068 745.315 371.539 733.36 359.661C711.673 338.336 693.397 311.424 682.814 283.205C673.291 253.345 658.071 224.46 639.213 198.608C609.543 158.801 589.291 111.582 581.827 60.2715C578.937 40.2748 577.959 19.9251 579.02 -0.590757M1074.23 735.297C1071.4 732.597 1068.43 729.69 1065.37 726.576C1041.08 701.886 1008.9 670.78 982.637 647.357C978.686 643.806 975.006 640.442 971.659 637.224C968.873 634.607 966.149 631.742 963.55 628.627C962.78 627.672 961.97 626.696 961.096 625.741C944.982 607.8 918.805 588.177 895.185 578.542C893.21 577.774 891.193 577.13 889.156 576.611C886.245 575.884 883.209 575.053 880.049 574.181C865.744 570.257 850.545 564.712 836.531 559.106C834.244 558.192 831.998 557.237 829.836 556.303C826.093 554.641 822.496 552.71 819.024 550.571C803.513 540.978 791.807 526.567 786.068 509.519C783.469 501.815 782.035 494.07 781.764 486.47C781.66 481.445 781.016 476.025 779.831 470.315C775.527 449.799 763.176 430.321 749.142 418.506C745.711 415.62 741.968 413.232 738.018 411.446C738.018 409.764 737.976 408.082 737.872 406.379C736.77 387.961 728.911 371.224 717.143 358.931C695.789 336.816 677.139 309.76 665.349 281.893C654.829 252.739 639.214 224.229 620.459 198.314C591.018 158.487 571.099 111.225 564.092 59.9358C561.368 39.9184 560.62 19.6102 561.888 -0.801798M1065.76 737.149C1063.21 734.2 1060.48 731.065 1057.63 727.701C1034.95 701.059 1001.97 669.061 973.841 647.195C969.62 643.893 965.649 640.799 962.011 637.913C958.996 635.587 956.022 632.992 953.132 630.105C952.28 629.213 951.386 628.32 950.45 627.427C932.818 610.649 906.142 590.797 883.105 579.563C881.171 578.67 879.216 577.902 877.22 577.258C874.372 576.345 871.378 575.348 868.217 574.331C854.058 569.741 838.713 564.052 824.304 558.798C821.955 557.947 819.668 557.075 817.464 556.223C813.638 554.728 809.937 552.922 806.34 550.928C790.247 541.958 777.793 528.066 771.118 511.413C768.083 503.854 766.17 496.213 765.4 488.613C764.964 483.588 764.049 478.168 762.656 472.478C757.645 452.025 745.502 432.256 732.258 419.507C729.014 416.371 725.48 413.734 721.737 411.678C721.737 409.976 721.654 408.273 721.529 406.549C720.24 387.965 712.464 371.02 700.862 358.291C679.841 335.408 660.795 308.185 647.8 280.672C636.281 252.224 620.251 224.066 601.6 198.131C572.387 158.283 552.801 111.001 546.272 59.7114C543.736 39.6939 543.195 19.4065 544.671 -0.901666M1057.3 738.994C1055.01 735.817 1052.54 732.411 1049.88 728.798C1028.79 700.184 995.049 667.334 965.046 647.025C960.534 643.952 956.314 641.17 952.384 638.616C949.12 636.581 945.897 634.255 942.736 631.597C941.801 630.787 940.823 629.936 939.805 629.105C920.634 613.49 893.459 593.41 871.024 580.557C869.153 579.539 867.24 578.646 865.265 577.857C862.458 576.757 859.506 575.594 856.387 574.431C842.394 569.198 826.862 563.322 812.1 558.421C809.709 557.632 807.359 556.843 805.093 556.075C801.163 554.725 797.358 553.085 793.636 551.216C776.94 542.868 763.758 529.516 756.127 513.216C752.655 505.803 750.264 498.244 748.996 490.686C748.226 485.681 747.041 480.262 745.44 474.572C739.722 454.181 727.767 434.122 715.333 420.417C712.277 417.053 708.95 414.167 705.395 411.799C705.353 410.076 705.27 408.353 705.124 406.629C703.648 387.878 695.955 370.706 684.54 357.561C663.831 333.889 644.432 306.5 630.231 279.36C617.714 251.618 601.268 223.814 582.721 197.837C553.737 157.968 534.484 110.665 528.412 59.355C526.063 39.3168 525.709 19.0709 527.414 -1.13343M1048.84 740.844C1046.82 737.418 1044.6 733.763 1042.14 729.921C1022.68 699.335 988.147 665.633 956.272 646.882C951.49 644.058 946.978 641.546 942.778 639.344C939.285 637.6 935.813 635.544 932.361 633.115C931.343 632.367 930.303 631.599 929.201 630.831C908.492 616.399 880.818 596.07 858.986 581.597C857.177 580.455 855.285 579.417 853.372 578.524C850.628 577.236 847.696 575.887 844.598 574.578C830.75 568.702 815.052 562.639 799.937 558.112C797.483 557.385 795.113 556.658 792.784 555.994C788.771 554.789 784.841 553.294 781.016 551.592C763.717 543.888 749.807 531.034 741.24 515.128C737.331 507.881 734.462 500.406 732.716 492.847C731.614 487.843 730.158 482.444 728.349 476.754C721.925 456.426 710.177 436.055 698.554 421.416C695.706 417.823 692.566 414.667 689.219 412.009C689.156 410.265 689.052 408.521 688.907 406.776C687.243 387.859 679.633 370.479 668.406 356.92C648.029 332.458 628.235 304.924 612.849 278.137C599.355 251.101 582.472 223.671 564.05 197.652C535.315 157.783 516.374 110.418 510.76 59.1287C508.577 39.0697 508.452 18.8861 510.365 -1.23519M1040.37 742.692C1038.65 739.017 1036.65 735.113 1034.41 731.022C1016.55 698.463 981.242 663.889 947.496 646.716C942.444 644.121 937.641 641.899 933.15 640.03C929.428 638.577 925.685 636.77 921.984 634.59C920.882 633.925 919.76 633.219 918.574 632.513C896.327 619.244 868.154 598.666 846.925 582.615C845.158 581.348 843.328 580.185 841.456 579.147C838.754 577.652 835.863 576.157 832.807 574.703C819.105 568.183 803.261 561.912 787.751 557.78C785.255 557.115 782.823 556.472 780.432 555.89C776.336 554.831 772.302 553.481 768.351 551.924C750.47 544.843 735.791 532.53 726.31 516.997C721.964 509.896 718.617 502.503 716.371 494.966C714.937 489.982 713.211 484.583 711.215 478.894C704.083 458.627 692.543 437.966 681.711 422.392C679.049 418.571 676.118 415.145 672.957 412.196C672.874 410.431 672.749 408.666 672.583 406.901C670.733 387.818 663.206 370.21 652.165 356.235C632.122 330.984 611.953 303.284 595.34 276.871C580.848 250.541 563.549 223.463 545.231 197.403C516.725 157.514 498.117 110.128 492.96 58.8383C490.964 38.7585 491.047 18.6165 493.168 -1.401M1031.91 744.541C1030.46 740.616 1028.71 736.463 1026.67 732.123C1010.44 697.57 974.341 662.166 938.724 646.551C933.381 644.183 928.307 642.273 923.546 640.736C919.596 639.573 915.603 638.037 911.611 636.106C910.426 635.504 909.22 634.881 907.973 634.237C884.187 622.152 855.514 601.324 834.888 583.653C833.184 582.262 831.395 580.975 829.545 579.791C826.884 578.109 824.056 576.427 820.999 574.828C807.464 567.664 791.433 561.206 775.569 557.427C773.011 556.825 770.537 556.244 768.104 555.766C763.904 554.852 759.767 553.669 755.712 552.236C737.228 545.799 721.821 533.983 711.383 518.846C706.601 511.89 702.775 504.601 700.031 497.084C698.264 492.1 696.268 486.722 694.064 481.033C686.246 460.828 674.872 439.877 664.851 423.348C662.397 419.298 659.653 415.623 656.7 412.363C656.596 410.577 656.451 408.791 656.264 407.005C654.226 387.756 646.782 369.94 635.908 355.529C616.197 329.49 595.634 301.644 577.836 275.563C562.346 249.939 544.652 223.214 526.438 197.134C498.16 157.223 479.863 109.796 475.206 58.5064C473.397 38.4059 473.667 18.3054 475.996 -1.60828M1023.43 746.389C1022.25 742.215 1020.75 737.813 1018.92 733.245C1004.3 696.719 967.417 660.463 929.908 646.405C924.294 644.287 918.93 642.647 913.877 641.463C909.698 640.591 905.436 639.325 901.173 637.622C899.905 637.103 898.616 636.521 897.285 635.961C871.96 625.08 842.81 603.983 822.766 584.713C821.124 583.197 819.377 581.764 817.568 580.477C814.969 578.608 812.162 576.76 809.147 575.015C795.757 567.208 779.581 560.563 763.322 557.157C760.723 556.618 758.186 556.119 755.691 555.725C751.408 554.977 747.166 553.918 742.966 552.651C723.879 546.837 707.723 535.562 696.371 520.798C691.131 513.987 686.848 506.802 683.625 499.285C681.525 494.302 679.259 488.944 676.847 483.255C668.322 463.113 657.157 441.87 647.925 424.386C645.659 420.108 643.122 416.163 640.357 412.612C640.232 410.806 640.066 408.999 639.858 407.193C637.633 387.777 630.273 369.733 619.586 354.906C600.187 328.078 579.27 300.087 560.245 274.359C543.757 249.441 525.647 223.069 507.537 196.947C479.489 157.016 461.524 109.568 457.324 58.2782C455.702 38.1777 456.181 18.0979 458.717 -1.71191M1014.97 748.239C1014.08 743.816 1012.81 739.165 1011.19 734.347C998.253 695.828 960.515 658.721 921.135 646.241C915.23 644.352 909.595 643.002 904.272 642.151C899.844 641.569 895.353 640.573 890.82 639.098C889.468 638.642 888.117 638.143 886.703 637.645C859.819 627.948 830.19 606.601 810.75 585.712C809.149 584.071 807.464 582.514 805.697 581.081C803.14 579.025 800.374 577.011 797.38 575.101C784.136 566.67 767.793 559.818 751.18 556.786C748.519 556.308 745.941 555.893 743.404 555.581C739.017 554.979 734.671 554.066 730.367 552.944C710.677 547.774 693.773 537.018 681.506 522.607C675.83 515.962 671.068 508.839 667.346 501.343C664.914 496.38 662.377 491.023 659.757 485.333C650.526 465.254 639.547 443.7 631.127 425.302C629.068 420.796 626.719 416.581 624.161 412.739C624.016 410.912 623.829 409.084 623.6 407.278C621.188 387.676 613.911 369.423 603.411 354.202C584.344 326.585 563.032 298.428 542.823 273.074C525.357 248.862 506.811 222.864 488.825 196.7C461.026 156.748 443.374 109.279 439.631 57.9897C438.176 37.8684 438.883 17.8301 441.627 -1.87585M1006.51 750.084C1005.88 745.412 1004.86 740.532 1003.43 735.465C992.119 694.974 953.57 657.015 912.339 646.093C906.164 644.431 900.238 643.393 894.645 642.874C889.988 642.583 885.227 641.836 880.424 640.611C878.989 640.237 877.554 639.801 876.078 639.365C847.655 630.872 817.527 609.256 798.711 586.767C797.172 584.981 795.529 583.32 793.783 581.763C791.288 579.52 788.543 577.34 785.591 575.284C772.492 566.21 756.004 559.15 739.016 556.492C736.313 556.076 733.673 555.723 731.074 555.516C726.604 555.059 722.154 554.311 717.725 553.315C697.453 548.788 679.801 538.551 666.577 524.514C660.464 518.014 655.224 510.996 651.024 503.499C648.259 498.537 645.452 493.179 642.624 487.51C632.706 467.493 621.915 445.648 614.285 426.295C612.413 421.561 610.272 417.096 607.901 412.943C607.735 411.095 607.527 409.268 607.278 407.42C604.679 387.651 597.464 369.191 587.151 353.535C568.417 325.128 546.731 296.825 525.315 271.824C506.852 248.318 487.889 222.673 470.008 196.468C442.438 156.516 425.118 108.985 421.854 57.6955C420.585 37.5534 421.479 17.5567 424.453 -2.04543M998.042 751.911C997.689 746.99 996.919 741.861 995.693 736.545C986.003 694.081 946.665 655.271 903.563 645.906C897.117 644.494 890.9 643.726 885.016 643.56C880.13 643.56 875.119 643.082 870.025 642.085C868.528 641.774 866.989 641.421 865.43 641.047C835.469 633.759 804.842 611.872 786.628 587.764C785.152 585.854 783.551 584.068 781.846 582.365C779.392 579.915 776.689 577.568 773.758 575.367C760.804 565.649 744.15 558.402 726.788 556.118C724.023 555.765 721.341 555.495 718.7 555.371C714.147 555.059 709.573 554.457 705.019 553.626C684.144 549.743 665.743 540.025 651.604 526.362C645.034 520.029 639.337 513.072 634.638 505.618C631.54 500.676 628.463 495.318 625.448 489.649C614.823 469.694 604.24 447.559 597.42 427.251C595.757 422.267 593.802 417.553 591.64 413.11C591.453 411.241 591.224 409.393 590.974 407.524C588.188 387.589 581.057 368.901 570.931 352.829C552.509 323.633 530.449 295.185 507.827 270.537C488.365 247.737 468.987 222.445 451.21 196.219C423.868 156.247 406.881 108.695 404.074 57.4051C402.993 37.2423 404.095 17.2871 407.276 -2.21125M989.58 753.758C989.518 748.588 988.977 743.209 987.958 737.644C979.87 693.228 939.762 653.525 894.789 645.718C888.052 644.534 881.565 644.077 875.411 644.223C870.296 644.513 865.015 644.306 859.671 643.537C858.091 643.309 856.469 643.018 854.847 642.707C823.347 636.623 792.222 614.446 774.611 588.759C773.176 586.724 771.617 584.793 769.953 582.987C767.562 580.349 764.901 577.837 761.99 575.49C749.182 565.149 732.382 557.674 714.646 555.784C711.839 555.473 709.095 555.307 706.392 555.265C701.734 555.12 697.077 554.663 692.399 553.957C670.92 550.718 651.771 541.519 636.717 528.229C629.711 522.041 623.535 515.189 618.337 507.734C614.907 502.792 611.559 497.455 608.336 491.787C597.025 471.873 586.608 449.468 580.6 428.225C579.123 423.013 577.377 418.029 575.402 413.295C575.194 411.405 574.944 409.536 574.674 407.647C571.701 387.546 564.652 368.65 554.713 352.142C536.624 322.157 514.19 293.543 490.362 269.269C469.902 247.175 450.129 222.257 432.456 195.968C405.343 155.975 388.688 108.382 386.339 57.1128C385.424 36.9292 386.755 17.0156 390.144 -2.37896M981.118 755.61C981.326 750.211 981.035 744.563 980.224 738.77C973.758 692.381 932.86 651.827 886.015 645.576C879.008 644.642 872.23 644.455 865.784 644.954C860.441 645.535 854.91 645.597 849.275 645.078C847.612 644.912 845.928 644.704 844.202 644.434C811.163 639.575 779.559 617.108 762.531 589.802C761.158 587.642 759.641 585.586 758.019 583.634C755.669 580.81 753.049 578.132 750.159 575.619C737.497 564.634 720.531 556.972 702.441 555.436C699.593 555.186 696.786 555.083 694.041 555.145C689.301 555.145 684.519 554.833 679.736 554.273C657.655 551.677 637.757 542.997 621.768 530.081C614.325 524.06 607.671 517.269 601.995 509.836C598.231 504.893 594.614 499.578 591.183 493.909C579.165 474.057 568.956 451.34 563.737 429.163C562.448 423.723 560.91 418.49 559.142 413.444C558.914 411.534 558.643 409.644 558.352 407.755C555.213 387.488 548.226 368.364 538.475 351.44C520.718 320.666 497.889 291.907 472.855 267.986C451.418 246.598 431.208 222.033 413.639 195.723C386.776 155.709 370.412 108.095 368.562 56.8054C367.834 36.6218 369.352 16.7497 372.949 -2.56173M972.656 757.455C973.135 751.807 973.093 745.909 972.49 739.867C967.645 691.505 925.957 650.1 877.221 645.407C869.923 644.701 862.874 644.805 856.158 645.656C850.565 646.528 844.785 646.86 838.88 646.57C837.133 646.487 835.366 646.32 833.578 646.133C799.021 642.479 766.898 619.741 750.472 590.836C749.162 588.552 747.686 586.372 746.105 584.275C743.798 581.264 741.219 578.398 738.371 575.761C725.854 564.153 708.742 556.221 690.258 555.12C687.347 554.934 684.499 554.913 681.692 555.058C676.847 555.204 671.982 555.058 667.054 554.622C644.391 552.67 623.723 544.51 606.819 531.968C598.918 526.091 591.807 519.405 585.632 511.992C581.536 507.07 577.669 501.734 574.009 496.086C561.326 476.276 551.283 453.289 546.855 430.157C545.774 424.488 544.422 418.985 542.842 413.669C542.592 411.738 542.301 409.828 541.989 407.917C538.663 387.485 531.76 368.152 522.175 350.814C504.73 319.251 481.547 290.325 455.307 266.757C432.872 246.075 412.247 221.863 394.802 195.512C368.167 155.477 352.137 107.822 350.744 56.5527C350.203 36.3484 351.929 16.5178 355.734 -2.68986M964.194 759.305C964.943 753.408 965.151 747.282 964.756 740.99C961.533 690.656 919.055 648.399 868.447 645.264C860.878 644.786 853.539 645.201 846.553 646.364C840.731 647.527 834.701 648.108 828.505 648.067C826.675 648.067 824.825 647.963 822.954 647.838C786.858 645.471 754.236 622.381 738.413 591.856C737.145 589.447 735.731 587.122 734.171 584.921C731.926 581.723 729.368 578.691 726.541 575.888C714.149 563.657 696.891 555.517 678.053 554.77C675.101 554.645 672.19 554.707 669.342 554.936C664.414 555.227 659.424 555.247 654.392 554.936C631.126 553.669 609.71 546.028 591.891 533.797C583.533 528.107 575.964 521.463 569.29 514.07C564.861 509.149 560.724 503.833 556.877 498.185C543.508 478.438 533.631 455.16 530.014 431.093C529.12 425.196 527.976 419.423 526.604 413.817C526.333 411.865 526.022 409.934 525.689 408.003C522.175 387.404 515.355 367.843 505.957 350.089C488.845 317.758 465.267 288.666 437.842 265.451C414.41 245.475 393.368 221.637 376.027 195.244C349.621 155.209 333.923 107.512 332.988 56.2434C332.634 36.0183 334.568 16.2293 338.581 -2.87453M955.732 761.153C956.772 755.007 957.209 748.632 957.001 742.091C955.379 689.784 912.11 646.655 859.652 645.098C851.793 644.869 844.183 645.555 836.905 647.07C830.855 648.524 824.555 649.375 818.109 649.562C816.196 649.604 814.263 649.604 812.329 649.562C774.695 648.379 741.574 625.039 726.354 592.915C725.148 590.382 723.776 587.932 722.258 585.585C720.054 582.201 717.538 579.003 714.752 576.054C702.526 563.18 685.102 554.853 665.89 554.479C662.876 554.417 659.923 554.542 657.012 554.874C652.001 555.31 646.907 555.476 641.751 555.331C617.902 554.687 595.717 547.585 576.963 535.728C568.167 530.184 560.121 523.643 552.968 516.251C548.207 511.35 543.799 506.034 539.745 500.386C525.668 480.68 516 457.112 513.193 432.111C512.507 425.985 511.551 419.943 510.365 414.045C510.074 412.073 509.742 410.121 509.409 408.169C505.708 387.404 498.971 367.636 489.76 349.446C472.981 316.325 449.029 287.088 420.377 264.226C395.946 244.956 374.489 221.471 357.252 195.037C331.096 154.981 315.71 107.263 315.252 55.9945C315.065 35.7486 317.207 16.0011 321.448 -2.99889M304.231 -3.20805C299.781 15.6881 297.432 35.4149 297.432 55.6608C297.432 140.797 338.933 216.237 402.827 262.916C455.389 302.536 490.881 363.564 496.287 433.044C501.61 501.631 559.017 555.62 629.045 555.62C634.326 555.62 639.524 555.308 644.618 554.727C647.571 554.332 650.586 554.125 653.642 554.125C680.797 554.125 704.125 570.508 714.251 593.911C728.868 627.633 762.509 651.243 801.661 651.243C810.518 651.243 819.106 650.038 827.256 647.775C834.804 645.927 842.705 644.93 850.834 644.93C905.164 644.93 949.223 688.931 949.223 743.19C949.223 749.98 948.536 756.604 947.226 763M871.688 525.1C865.056 543.062 847.757 555.874 827.443 555.874C801.411 555.874 780.307 534.798 780.307 508.8C780.307 482.802 801.411 461.726 827.443 461.726C853.474 461.726 874.578 482.802 874.578 508.8C874.578 514.531 873.56 520.013 871.688 525.08M834.769 348.025C828.136 365.987 810.837 378.799 790.523 378.799C764.491 378.799 743.387 357.723 743.387 331.725C743.387 305.727 764.491 284.651 790.523 284.651C816.555 284.651 837.659 305.727 837.659 331.725C837.659 337.456 836.64 342.938 834.769 348.005M167.378 672.402C167.378 718.286 130.133 755.482 84.1892 755.482C38.2451 755.482 1 718.286 1 672.402C1 626.517 38.2451 589.321 84.1892 589.321C130.133 589.321 167.378 626.517 167.378 672.402ZM210.814 651.762C210.814 691.017 178.95 722.84 139.643 722.84C100.336 722.84 68.4714 691.017 68.4714 651.762C68.4714 612.506 100.336 580.683 139.643 580.683C178.95 580.683 210.814 612.506 210.814 651.762ZM254.248 631.145C254.248 663.772 227.764 690.221 195.094 690.221C162.425 690.221 135.941 663.772 135.941 631.145C135.941 598.518 162.425 572.068 195.094 572.068C227.764 572.068 254.248 598.518 254.248 631.145ZM297.684 610.503C297.684 636.501 276.58 657.577 250.548 657.577C224.516 657.577 203.412 636.501 203.412 610.503C203.412 584.505 224.516 563.429 250.548 563.429C276.58 563.429 297.684 584.505 297.684 610.503ZM679.343 690.034C679.343 716.032 658.24 737.108 632.208 737.108C606.175 737.108 585.072 716.032 585.072 690.034C585.072 664.035 606.175 642.959 632.208 642.959C658.24 642.959 679.343 664.035 679.343 690.034ZM1089.36 518.982C1089.36 537.365 1074.44 552.268 1056.03 552.268C1037.62 552.268 1022.7 537.365 1022.7 518.982C1022.7 500.598 1037.62 485.696 1056.03 485.696C1074.44 485.696 1089.36 500.598 1089.36 518.982ZM762.759 127.799C762.759 139.107 753.581 148.273 742.258 148.273C730.936 148.273 721.757 139.107 721.757 127.799C721.757 116.492 730.936 107.325 742.258 107.325C753.581 107.325 762.759 116.492 762.759 127.799ZM965.766 8.36059C965.766 52.7425 929.741 88.7212 885.301 88.7212C840.861 88.7212 804.835 52.7425 804.835 8.36059C804.835 -36.0213 840.861 -72 885.301 -72C929.741 -72 965.766 -36.0213 965.766 8.36059ZM82.3598 -3.60008C82.3598 12.4095 69.3645 25.3879 53.334 25.3879C37.3035 25.3879 24.3083 12.4095 24.3083 -3.60008C24.3083 -19.6097 37.3035 -32.588 53.334 -32.588C69.3645 -32.588 82.3598 -19.6097 82.3598 -3.60008ZM674.31 121.008C674.31 203.154 641.673 269.747 601.413 269.747C561.153 269.747 528.515 203.154 528.515 121.008C528.515 38.8609 561.153 -27.7322 601.413 -27.7322C641.673 -27.7322 674.31 38.8609 674.31 121.008ZM680.069 113.99C680.069 185.747 649.052 243.917 610.79 243.917C572.528 243.917 541.51 185.747 541.51 113.99C541.51 42.2337 572.528 -15.9365 610.79 -15.9365C649.052 -15.9365 680.069 42.2337 680.069 113.99ZM685.828 106.969C685.828 168.335 656.44 218.083 620.187 218.083C583.935 218.083 554.547 168.335 554.547 106.969C554.547 45.6027 583.935 -4.14454 620.187 -4.14454C656.44 -4.14454 685.828 45.6027 685.828 106.969ZM691.608 99.9535C691.608 150.941 663.84 192.275 629.585 192.275C595.331 192.275 567.562 150.941 567.562 99.9535C567.562 48.9659 595.331 7.63232 629.585 7.63232C663.84 7.63232 691.608 48.9659 691.608 99.9535ZM697.369 92.9361C697.369 133.534 671.22 166.444 638.964 166.444C606.708 166.444 580.559 133.534 580.559 92.9361C580.559 52.3387 606.708 19.428 638.964 19.428C671.22 19.428 697.369 52.3387 697.369 92.9361ZM703.149 85.915C703.149 116.134 678.62 140.631 648.362 140.631C618.104 140.631 593.575 116.134 593.575 85.915C593.575 55.6963 618.104 31.1992 648.362 31.1992C678.62 31.1992 703.149 55.6963 703.149 85.915ZM703.149 85.9169C703.149 116.136 678.62 140.633 648.362 140.633C618.104 140.633 593.575 116.136 593.575 85.9169C593.575 55.6982 618.104 31.2011 648.362 31.2011C678.62 31.2011 703.149 55.6982 703.149 85.9169Z" stroke="url(#paint0_linear_2757_8022)" stroke-miterlimit="10"/>
  <defs>
    <linearGradient id="paint0_linear_2757_8022" x1="561.805" y1="85.9169" x2="752.425" y2="85.9169" gradientUnits="userSpaceOnUse">
      <stop stop-color="#6690FC"/>
      <stop offset="1" stop-color="white"/>
    </linearGradient>
  </defs>
</svg>
