<svg viewBox="0 0 1350 392" fill="none"
  xmlns="http://www.w3.org/2000/svg">
  <g clip-path="url(#clip0_946_67461)">
    <g opacity="0.9">
      <circle cx="1097" cy="181.713" r="186.687" stroke="#3170F5"/>
      <circle cx="1097" cy="181.712" r="208.581" stroke="#3170F5"/>
      <circle opacity="0.6" cx="1097" cy="181.713" r="236.312" stroke="#3170F5"/>
      <circle opacity="0.4" cx="1097" cy="181.711" r="268.422" stroke="#3170F5"/>
      <circle opacity="0.2" cx="1097" cy="181.712" r="308.56" stroke="#3170F5"/>
      <circle opacity="0.1" cx="1097" cy="181.712" r="366.212" stroke="#3170F5"/>
    </g>
    <path d="M949.159 19.4625C949.251 46.9676 927.092 69.3396 899.665 69.4318C872.239 69.524 849.931 47.3014 849.839 19.7963C849.747 -7.70879 871.906 -30.0808 899.333 -30.173C926.759 -30.2651 949.067 -8.04256 949.159 19.4625Z" fill="#030C17"/>
    <path opacity="0.2" d="M930.556 50.5685C947.591 33.361 947.508 5.60571 930.35 -11.4777C913.191 -28.561 885.515 -28.4783 868.481 -11.2708L930.556 50.5685Z" fill="white"/>
    <path d="M904.159 15.1608C903.664 15.078 903.21 14.954 902.756 14.8712C896.652 13.6303 892.238 12.7617 892.238 8.50116C892.238 5.85385 894.837 3.74429 899.498 3.74429C903.664 3.74429 906.963 5.44021 909.108 8.62525L909.438 8.70798L916.079 1.8829L916.037 1.63472C913.398 -1.50896 910.057 -3.70125 906.221 -4.85945C905.685 -5.0249 905.19 -5.149 904.654 -5.27309H904.612C904.406 -5.31445 904.241 -5.35582 904.035 -5.39718V-11.4363H894.961V-5.39718C894.672 -5.35582 894.383 -5.27309 894.095 -5.23172H894.053C889.764 -4.19762 886.01 -1.96396 883.082 1.46926C881.845 3.53747 881.226 6.01931 881.226 8.87343C881.226 18.6354 888.568 21.7377 895.744 23.475C897.064 23.8059 898.384 24.0541 899.663 24.2609C904.159 25.0882 908.036 25.7914 908.036 29.845C908.036 32.3682 905.272 35.5119 899.498 35.5119C896.074 35.5119 893.27 34.3537 891.207 32.2442C891.084 32.1201 890.919 31.996 890.795 31.8719L882.958 37.3319V37.6215C884.072 38.9451 885.309 40.1033 886.629 41.0961C887.083 41.427 887.536 41.7165 887.99 42.0061C887.99 42.0061 887.99 42.0061 888.031 42.0061C888.485 42.2956 888.98 42.5438 889.434 42.792C889.434 42.792 889.475 42.792 889.475 42.8334C889.97 43.0816 890.424 43.2884 890.919 43.4952C890.96 43.4952 890.96 43.4952 891.001 43.5366C891.496 43.7434 891.991 43.9088 892.486 44.0743C892.527 44.0743 892.568 44.0743 892.568 44.1156C892.816 44.1984 893.022 44.2397 893.27 44.3225C893.311 44.3225 893.311 44.3225 893.352 44.3225C893.6 44.4052 893.847 44.4466 894.136 44.5293C894.177 44.5293 894.218 44.5293 894.26 44.5707C894.466 44.612 894.713 44.6534 894.919 44.6947V50.7339H903.994V44.6947C904.159 44.6534 904.324 44.6534 904.489 44.612C904.53 44.612 904.53 44.612 904.571 44.612C905.19 44.4879 905.808 44.3225 906.427 44.1156C906.716 44.0329 907.046 43.9088 907.335 43.8261C910.675 42.5852 913.604 40.517 915.996 37.7042C916.904 36.6287 917.687 35.5119 918.388 34.271C918.76 32.9473 918.925 31.4582 918.925 29.8864C918.966 19.3799 911.047 16.5258 904.159 15.1608Z" fill="#FAFBFC"/>
    <path d="M883 37.5801C882.546 37.0424 882.133 36.5047 881.762 35.9256C881.597 35.6774 881.432 35.4292 881.267 35.2224C881.226 35.181 881.185 35.0983 881.143 35.0569C881.02 34.8501 880.855 34.6019 880.731 34.3537C880.69 34.271 880.649 34.1883 880.607 34.1056C880.484 33.8987 880.36 33.6506 880.236 33.4437C880.195 33.361 880.154 33.2783 880.112 33.1956C879.989 32.9887 879.865 32.7405 879.782 32.4924C879.741 32.4096 879.7 32.2855 879.659 32.2028C879.535 31.9546 879.452 31.7478 879.329 31.4996C879.287 31.4169 879.246 31.3342 879.205 31.2101C879.122 30.9619 878.999 30.7137 878.916 30.4655C878.916 30.4242 878.875 30.3414 878.875 30.3001C878.669 29.721 878.463 29.1419 878.298 28.5628C878.298 28.5214 878.256 28.48 878.256 28.3973C878.215 28.1905 878.133 27.9837 878.091 27.7769C878.05 27.6114 878.009 27.4459 877.968 27.2805C877.926 27.0737 877.885 26.9082 877.844 26.7014C877.803 26.5359 877.761 26.3291 877.72 26.1637C877.679 25.9568 877.638 25.7914 877.596 25.5846C877.555 25.3777 877.514 25.1709 877.473 24.9641C877.431 24.7986 877.431 24.5918 877.39 24.4264C877.349 24.2195 877.308 24.0127 877.308 23.7645C877.266 23.5991 877.266 23.4336 877.225 23.2268C877.184 22.9786 877.184 22.7718 877.143 22.5236C877.143 22.3582 877.101 22.1927 877.101 22.0272C877.101 21.7377 877.06 21.4895 877.06 21.2C877.06 21.0759 877.06 20.9518 877.019 20.7863C877.019 20.3727 876.978 19.959 876.978 19.5454C876.978 19.1318 876.978 18.7595 877.019 18.3458C877.019 18.2217 877.019 18.0977 877.019 17.9736C877.019 17.684 877.06 17.4358 877.06 17.1463C877.06 17.0222 877.101 16.8567 877.101 16.7326C877.143 16.4844 877.143 16.1949 877.184 15.9467C877.184 15.8226 877.225 15.6985 877.225 15.5744C877.266 15.2435 877.308 14.954 877.349 14.6644C877.349 14.5817 877.349 14.499 877.39 14.4576C877.431 14.0853 877.514 13.7131 877.596 13.3408C877.638 13.2167 877.638 13.0926 877.679 13.0099C877.72 12.7617 877.803 12.5135 877.844 12.2653C877.885 12.1412 877.926 11.9758 877.926 11.8517C877.968 11.6035 878.05 11.3967 878.091 11.1485C878.133 11.0244 878.174 10.8589 878.215 10.7348C878.298 10.4867 878.38 10.2385 878.421 9.99028C878.463 9.86619 878.504 9.78346 878.545 9.65937C878.669 9.32846 878.792 8.99754 878.916 8.66663C878.957 8.54254 878.999 8.45981 879.04 8.33572C879.122 8.08753 879.205 7.88071 879.329 7.63253C879.37 7.50844 879.452 7.38434 879.494 7.21889C879.576 7.01207 879.659 6.84661 879.782 6.63979C879.865 6.5157 879.906 6.35024 879.989 6.22615C880.071 6.01933 880.195 5.85387 880.277 5.64705C880.36 5.52296 880.401 5.39887 880.484 5.27477C880.649 4.98523 880.814 4.69568 880.979 4.40613C880.607 5.77114 880.442 7.26025 880.442 8.83209C880.442 14.2094 882.711 18.3045 887.207 21.0759C887.454 25.9155 888.856 29.721 891.249 32.1614L883 37.5801Z" fill="url(#paint0_linear_946_67461)"/>
    <path d="M909.15 8.62525C910.552 10.7348 911.459 13.3821 911.789 16.5672C912.944 17.1049 913.934 17.7254 914.841 18.4285C918.182 21.0345 919.873 24.84 919.873 29.6796C919.873 30.2587 919.832 30.8378 919.791 31.4169V31.3755C919.956 31.0032 920.121 30.5896 920.245 30.1759C920.286 30.0519 920.327 29.9691 920.368 29.845C920.451 29.5555 920.575 29.2659 920.657 28.9764C920.698 28.8523 920.74 28.6868 920.781 28.5627C920.822 28.3973 920.905 28.1905 920.946 28.025C921.028 27.7768 921.07 27.57 921.152 27.3218C921.193 27.1564 921.235 26.9495 921.276 26.7841C921.317 26.5773 921.358 26.3705 921.4 26.1636C921.441 26.0395 921.441 25.8741 921.482 25.75C921.523 25.4604 921.606 25.1295 921.647 24.84C921.647 24.7159 921.688 24.5918 921.688 24.4677C921.73 24.1368 921.771 23.8059 921.812 23.475C921.812 23.3922 921.812 23.3509 921.853 23.2681C921.895 22.9372 921.936 22.6477 921.936 22.3168C921.936 22.234 921.936 22.1513 921.977 22.0686C922.018 21.6963 922.018 21.324 922.06 20.9518C922.06 20.869 922.06 20.7863 922.06 20.7036C922.06 20.3313 922.101 19.9177 922.101 19.5454C922.101 19.1317 922.101 18.7181 922.06 18.2631C922.06 18.139 922.06 18.0149 922.018 17.8494C922.018 17.5599 921.977 17.2703 921.977 17.0222C921.977 16.8567 921.936 16.6912 921.936 16.5258C921.895 16.2776 921.895 16.0294 921.853 15.7812C921.853 15.6158 921.812 15.4503 921.771 15.2435C921.73 14.9953 921.73 14.7885 921.688 14.5403C921.647 14.3749 921.647 14.168 921.606 14.0026C921.565 13.7958 921.523 13.5476 921.482 13.3408C921.441 13.1753 921.4 12.9685 921.358 12.803C921.317 12.5962 921.276 12.3894 921.235 12.1826C921.193 12.0171 921.152 11.8103 921.111 11.6448C921.07 11.438 920.987 11.2312 920.946 11.0244C920.905 10.8589 920.863 10.6521 920.781 10.4866C920.74 10.2798 920.657 10.1144 920.616 9.90753C920.575 9.74208 920.492 9.53526 920.451 9.3698C920.368 9.16298 920.327 8.99752 920.245 8.83207C920.162 8.66661 920.121 8.45979 920.038 8.29433C919.956 8.12888 919.915 7.92206 919.832 7.7566C919.75 7.59114 919.667 7.38432 919.626 7.21887C919.544 7.05341 919.461 6.88795 919.379 6.7225C919.296 6.55704 919.214 6.39159 919.131 6.18476C919.049 6.01931 918.966 5.85385 918.884 5.6884C918.801 5.52294 918.719 5.35748 918.595 5.19203C918.512 5.02657 918.43 4.86111 918.306 4.73702C918.224 4.57156 918.1 4.40611 918.017 4.24065C917.935 4.0752 917.811 3.9511 917.729 3.78565C917.44 3.33064 917.11 2.87564 916.78 2.42063C916.533 2.08972 916.285 1.80017 916.038 1.51062L909.15 8.62525Z" fill="url(#paint1_linear_946_67461)"/>
    <path d="M1336.22 372.764C1374.92 372.634 1406.2 341.06 1406.07 302.242C1405.94 263.423 1374.45 232.061 1335.75 232.191C1297.04 232.321 1265.76 263.895 1265.89 302.713C1266.02 341.531 1297.51 372.894 1336.22 372.764Z" fill="#0074F0"/>
    <path opacity="0.2" d="M1379.79 346.13C1403.82 321.869 1403.7 282.642 1379.51 258.543C1355.32 234.443 1316.2 234.564 1292.17 258.825L1379.79 346.13Z" fill="white"/>
    <path d="M1333.12 274.717C1334.06 274.621 1335.01 274.572 1335.98 274.572C1351.34 274.572 1363.8 287.061 1363.8 302.467C1363.8 314.481 1356.22 324.721 1345.6 328.648L1336.17 341.959C1357.83 341.859 1375.36 324.216 1375.36 302.467C1375.36 282.044 1359.9 265.242 1340.08 263.186L1333.12 274.717Z" fill="white"/>
    <path d="M1335.09 262.985C1313.75 263.461 1296.6 280.955 1296.6 302.467C1296.6 322.592 1311.61 339.201 1331.02 341.649L1339.15 330.184C1338.11 330.302 1337.05 330.362 1335.98 330.362C1320.62 330.362 1308.16 317.873 1308.16 302.467C1308.16 290.121 1316.16 279.649 1327.24 275.975L1335.09 262.985Z" fill="white"/>
    <path d="M1345.6 328.648C1356.22 324.721 1363.8 314.481 1363.8 302.467H1375.36C1375.36 324.216 1357.83 341.859 1336.17 341.959L1345.6 328.648Z" fill="url(#paint2_linear_946_67461)"/>
    <path d="M1335.09 262.985C1313.75 263.461 1296.6 280.955 1296.6 302.467C1296.6 302.467 1308.16 302.634 1308.16 302.467C1308.16 290.121 1316.16 279.649 1327.24 275.975L1335.09 262.985Z" fill="url(#paint3_linear_946_67461)"/>
    <path d="M1335.91 334.751L1355.68 306.827L1335.91 318.529L1316.15 306.827L1335.91 334.751Z" fill="white"/>
    <path opacity="0.1" d="M1335.91 334.751L1355.68 306.827L1335.91 318.529V334.751Z" fill="#0074F0"/>
    <path d="M1335.85 314.823L1355.72 303.099L1335.85 270.184L1315.98 303.099L1335.85 314.823Z" fill="url(#paint4_linear_946_67461)"/>
    <path d="M1335.85 314.823L1355.72 303.099L1335.85 270.184L1315.98 303.099L1335.85 314.823Z" fill="white"/>
    <path opacity="0.1" d="M1335.85 314.822L1315.98 303.099L1335.85 270.184L1335.85 314.822Z" fill="#0074F0"/>
    <path opacity="0.1" d="M1335.85 314.823V293.757L1315.98 303.099L1335.85 314.823Z" fill="#0074F0"/>
    <path opacity="0.1" d="M1335.85 314.823V293.757L1355.72 303.099L1335.85 314.823Z" fill="#0074F0"/>
    <path fill-rule="evenodd" clip-rule="evenodd" d="M1097.28 52.5059C1168.38 52.5059 1226.01 110.306 1226.01 181.604C1226.01 252.907 1168.38 310.702 1097.28 310.702C1026.19 310.702 968.553 252.907 968.553 181.604C968.553 110.311 1026.19 52.5059 1097.28 52.5059Z" fill="#0074F0"/>
    <path fill-rule="evenodd" clip-rule="evenodd" d="M1133.57 166.04C1134.51 170.782 1135.01 175.983 1135.01 181.599C1135.01 211.838 1120.87 229.892 1097.17 229.892C1087.29 229.892 1078.96 226.717 1072.67 220.668L1155.14 137.848C1152.93 133.92 1150.42 130.246 1147.58 126.892C1146.38 125.484 1145.13 124.161 1143.85 122.883L1143.86 122.868C1143.69 122.704 1143.51 122.544 1143.35 122.379C1142.97 122.005 1142.6 121.615 1142.21 121.256L1142.19 121.271C1130.22 110.06 1114.82 104.145 1097.17 104.145C1076.78 104.145 1059.39 112.012 1046.87 126.892C1035.11 140.888 1028.63 160.32 1028.63 181.599C1028.63 195.745 1031.5 209.052 1036.87 220.503L1060.81 196.474C1059.97 191.921 1059.55 186.96 1059.55 181.599C1059.55 167.682 1062.37 156.427 1067.94 148.151C1074.46 138.442 1084.57 133.306 1097.17 133.306C1106.98 133.306 1115.15 136.415 1121.36 142.191L1039.05 224.851C1041.32 228.974 1043.93 232.812 1046.87 236.311C1047.46 237.01 1048.07 237.684 1048.68 238.353L1048.7 238.368C1049.4 239.141 1050.12 239.89 1050.86 240.619L1051.13 240.898C1051.37 241.128 1051.59 241.373 1051.83 241.597L1051.86 241.577C1063.84 253.023 1079.35 259.063 1097.17 259.063C1117.58 259.063 1135 251.196 1147.57 236.311C1159.41 222.3 1165.93 202.868 1165.93 181.604C1165.93 167.243 1162.94 153.731 1157.36 142.146L1133.56 166.045L1133.57 166.04Z" fill="white"/>
  </g>
  <defs>
    <linearGradient id="paint0_linear_946_67461" x1="891.326" y1="22.0132" x2="871.933" y2="7.61643" gradientUnits="userSpaceOnUse">
      <stop offset="0.00058093" stop-color="white"/>
      <stop offset="1" stop-color="#1E313F"/>
    </linearGradient>
    <linearGradient id="paint1_linear_946_67461" x1="908.208" y1="14.7386" x2="926.119" y2="28.6629" gradientUnits="userSpaceOnUse">
      <stop offset="0.00058093" stop-color="white"/>
      <stop offset="0.9967" stop-color="#4E5A64"/>
    </linearGradient>
    <linearGradient id="paint2_linear_946_67461" x1="1310.05" y1="351.95" x2="1353.5" y2="323.573" gradientUnits="userSpaceOnUse">
      <stop stop-color="#1A82FF" stop-opacity="0.5"/>
      <stop offset="1" stop-color="white"/>
    </linearGradient>
    <linearGradient id="paint3_linear_946_67461" x1="1357.23" y1="244.806" x2="1315.66" y2="274.761" gradientUnits="userSpaceOnUse">
      <stop stop-color="#1A82FF" stop-opacity="0.5"/>
      <stop offset="1" stop-color="white"/>
    </linearGradient>
    <linearGradient id="paint4_linear_946_67461" x1="1293.57" y1="282.104" x2="1328.44" y2="303.32" gradientUnits="userSpaceOnUse">
      <stop stop-color="#1C313F"/>
      <stop offset="1" stop-color="white"/>
    </linearGradient>
    <clipPath id="clip0_946_67461">
      <rect width="1418" height="821.425" fill="white" transform="translate(-68 -273)"/>
    </clipPath>
  </defs>
</svg>
