<svg viewBox="0 0 385 229" fill="none"
  xmlns="http://www.w3.org/2000/svg">
  <g clip-path="url(#clip0_2757_119017)">
    <path opacity="0.07" d="M468.869 414.551C440.136 400.229 432.191 415.53 418.858 402.326C412.49 396.021 418.945 376.263 405.037 360.904C391.604 346.072 379.01 358.419 359.426 341.327C343.014 327.059 317.473 313.976 300.316 294.38C290.967 283.707 288.765 266.89 282.005 255.891C274.217 243.12 262.436 237.439 256.013 232.005C240.169 218.615 233.227 176.777 219.009 161.686C199.692 141.11 183.559 164.754 161.108 146.913C140.981 130.934 158.223 99.4875 121.767 60.6685C85.1627 21.7006 58.4366 43.0341 28.7176 -6.5535" stroke="url(#paint0_linear_2757_119017)" stroke-miterlimit="10"/>
    <path opacity="0.14" d="M480.961 402.459C453.265 388.384 445.666 402.056 432.327 388.858C425.958 382.553 431.377 363.831 417.49 348.451C404.078 333.598 392.517 345.516 372.825 327.928C356.556 313.508 331.344 300.105 314.224 280.472C304.895 269.779 302.151 253.938 295.095 242.801C287.156 230.13 275.638 224.237 269.2 218.819C253.32 205.464 245.324 164.68 230.969 149.725C211.81 129.622 197.069 151.253 174.668 133.354C155.055 117.72 169.987 87.7234 133.568 48.868C97.0058 9.85742 71.0858 28.8028 41.5142 -19.3501" stroke="url(#paint1_linear_2757_119017)" stroke-miterlimit="10"/>
    <path opacity="0.21" d="M492.966 390.454C466.12 376.813 458.572 389.15 445.231 375.953C438.862 369.649 443.573 351.635 429.734 336.207C416.363 321.313 405.514 333.123 385.686 315.067C369.543 300.513 344.49 286.959 327.442 267.254C318.154 256.52 315.01 241.513 307.741 230.154C299.677 217.558 288.386 211.489 281.917 206.101C265.965 192.819 257.366 152.639 242.88 137.814C223.887 118.183 210.052 138.286 187.634 120.388C168.487 105.147 181.714 75.9973 145.365 37.0705C108.875 -2.01159 83.1477 15.1589 53.9842 -31.8201" stroke="url(#paint2_linear_2757_119017)" stroke-miterlimit="10"/>
    <path opacity="0.29" d="M505.048 378.372C479.252 364.975 472.04 375.682 458.694 362.491C452.325 356.186 456.003 339.205 442.184 323.757C428.84 308.836 419.026 320.224 399.086 301.667C383.097 286.959 358.364 273.085 341.358 253.338C332.09 242.584 328.4 228.564 320.837 217.058C312.626 204.567 301.601 198.274 295.11 192.908C279.116 179.668 269.409 140.587 254.842 125.852C235.948 106.751 223.579 124.777 201.201 106.821C182.568 91.9243 193.479 64.2314 157.167 25.2687C120.712 -13.8492 95.8002 0.915815 66.7855 -44.6214" stroke="url(#paint3_linear_2757_119017)" stroke-miterlimit="10"/>
    <path opacity="0.36" d="M517.137 366.284C492.381 353.13 485.506 362.216 472.16 349.024C465.785 342.726 468.434 326.774 454.634 311.306C441.309 296.367 432.597 307.256 412.489 288.264C396.7 273.347 372.241 259.208 355.268 239.428C346.02 228.654 341.786 215.612 333.926 203.97C325.561 191.58 314.8 185.075 308.301 179.717C292.274 166.51 281.604 128.392 266.799 113.895C247.928 95.4088 237.087 111.285 214.758 93.2636C196.641 78.7105 205.243 52.4674 168.965 13.471C132.544 -25.6807 108.442 -13.3085 79.5727 -57.4087" stroke="url(#paint4_linear_2757_119017)" stroke-miterlimit="10"/>
    <path opacity="0.43" d="M529.142 354.278C505.229 341.575 498.417 349.305 485.069 336.115C478.693 329.818 480.623 314.585 466.878 299.062C453.602 284.074 445.588 294.869 425.354 275.399C409.701 260.338 385.38 246.068 368.499 226.197C359.298 215.376 354.675 203.166 346.573 191.323C338.47 179.479 327.563 172.312 321.022 166.997C304.91 153.875 293.543 116.453 278.707 101.987C260.113 83.8536 250.094 98.2953 227.73 80.2913C210.066 66.1442 216.952 40.7586 180.757 1.67882C144.42 -37.5564 120.502 -26.9502 92.0462 -69.8821" stroke="url(#paint5_linear_2757_119017)" stroke-miterlimit="10"/>
    <path opacity="0.5" d="M541.222 342.198C518.354 329.733 511.893 335.829 498.539 322.645C492.163 316.347 493.057 302.151 479.33 286.61C466.072 271.604 459.108 281.961 438.761 261.992C423.256 246.774 399.266 232.183 382.417 212.279C373.235 201.439 368.07 190.205 359.669 178.227C351.267 166.249 340.763 159.112 334.214 153.804C318.064 140.721 305.626 104.37 290.662 90.0321C272.232 72.3725 263.612 84.7942 241.299 66.7229C224.156 52.922 228.713 28.9974 192.551 -10.115C156.246 -49.3829 133.158 -41.1963 104.844 -82.6802" stroke="url(#paint6_linear_2757_119017)" stroke-miterlimit="10"/>
    <path opacity="0.57" d="M553.308 330.112C531.493 317.888 525.364 322.358 512.011 309.173C505.636 302.875 505.491 289.717 491.78 274.16C478.538 259.138 472.482 269.192 452.17 248.583C436.919 233.112 413.155 218.294 396.334 198.362C387.168 187.505 381.475 177.242 372.762 165.134C364.048 153.025 353.971 145.904 347.403 140.615C331.225 127.56 317.712 92.2835 302.616 78.0779C284.35 60.8836 277.124 71.2908 254.856 53.166C238.239 39.6986 240.473 17.2382 204.346 -21.9096C168.07 -61.2062 145.809 -55.4294 117.639 -95.475" stroke="url(#paint7_linear_2757_119017)" stroke-miterlimit="10"/>
    <path opacity="0.64" d="M565.304 318.116C544.317 306.348 538.283 309.438 524.928 296.257C518.551 289.96 517.661 277.547 504.018 261.922C490.844 246.832 485.599 256.687 465.04 235.713C449.829 220.193 426.301 205.147 409.587 185.109C400.48 174.194 394.357 164.802 385.407 152.488C376.602 140.361 366.738 133.137 360.133 127.885C343.841 114.943 329.767 80.2204 314.517 66.1767C296.389 49.4825 290.159 58.2727 267.844 40.1779C251.67 27.1262 252.148 5.56275 216.125 -33.6893C179.964 -73.0927 157.877 -69.0793 130.121 -107.956" stroke="url(#paint8_linear_2757_119017)" stroke-miterlimit="10"/>
    <path opacity="0.71" d="M577.369 306.051C557.443 294.506 551.766 295.955 538.405 282.779C532.022 276.489 530.09 265.118 516.461 249.479C503.301 234.375 499.06 243.83 478.454 222.299C463.335 206.678 440.206 191.243 423.522 171.174C414.429 160.244 407.775 151.818 398.512 139.383C389.558 127.362 379.952 119.923 373.336 114.682C357.02 101.764 341.843 68.1447 326.462 54.2317C308.507 37.9946 303.69 44.759 281.427 26.5945C265.777 13.8788 263.907 -6.19567 227.908 -45.4725C191.768 -84.9047 170.548 -83.3328 142.914 -120.75" stroke="url(#paint9_linear_2757_119017)" stroke-miterlimit="10"/>
    <path opacity="0.79" d="M589.438 293.982C570.59 282.652 565.25 282.472 551.89 269.294C545.508 263.003 542.526 252.682 528.909 237.031C515.756 221.92 512.604 230.889 491.876 208.877C476.901 193.112 454.119 177.33 437.454 157.242C428.369 146.304 421.206 138.83 411.614 126.282C402.021 113.734 393.154 106.721 386.532 101.486C370.204 88.58 353.954 56.0337 338.4 42.2945C320.676 26.4635 317.197 31.2689 295.004 13.0173C279.883 0.631353 275.67 -17.959 239.685 -57.2494C203.563 -96.6909 183.227 -97.5936 155.706 -133.542" stroke="url(#paint10_linear_2757_119017)" stroke-miterlimit="10"/>
    <path opacity="0.86" d="M601.428 281.992C583.354 271.173 578.186 269.536 564.813 256.371C558.428 250.083 554.66 240.548 541.136 224.804C528.073 209.603 525.536 218.57 504.749 196.004C489.955 180.05 467.249 164.2 450.742 143.954C441.744 132.929 434.081 126.397 424.259 113.637C415.138 101.689 405.952 93.9231 399.265 88.7534C382.772 76.0124 366.036 43.9513 350.286 30.4082C332.651 15.118 330.297 18.1858 308.004 0.0173012C293.301 -11.9274 287.27 -29.5592 251.44 -69.0037C215.465 -108.593 195.263 -111.22 168.186 -146.022" stroke="url(#paint11_linear_2757_119017)" stroke-miterlimit="10"/>
    <path opacity="0.93" d="M613.479 269.941C596.499 259.32 591.676 256.046 578.306 242.878C571.922 236.589 567.096 228.112 553.573 212.367C540.519 197.157 539.092 205.618 518.178 182.575C503.52 166.476 481.189 150.26 464.685 130.011C455.691 118.983 447.514 113.406 437.362 100.533C428.08 88.7047 419.16 80.7149 412.464 75.5543C395.968 62.8165 378.065 31.9142 362.196 18.4976C344.746 3.6605 343.792 4.69986 321.583 -13.5616C307.423 -25.1899 299.014 -41.3034 263.189 -80.7527C227.232 -120.36 207.947 -125.487 180.971 -158.807" stroke="url(#paint12_linear_2757_119017)" stroke-miterlimit="10"/>
    <path d="M625.433 257.987C609.111 247.992 604.61 243.112 591.228 229.957C584.838 223.673 579.119 216.089 565.775 200.165C552.887 184.789 551.904 193.41 531.042 169.711C516.646 153.342 494.259 137.19 478.044 116.652C469.216 105.457 460.243 101.111 449.962 87.933C440.69 76.0515 431.991 67.8837 425.183 62.8352C408.397 50.3876 390.206 19.7725 374.024 6.66989C356.534 -7.49792 357.021 -8.51255 334.593 -26.5714C320.79 -37.6895 310.401 -52.6902 274.857 -92.4212C239.184 -132.312 219.922 -139.043 193.454 -171.29" stroke="url(#paint13_linear_2757_119017)" stroke-miterlimit="10"/>
  </g>
  <defs>
    <linearGradient id="paint0_linear_2757_119017" x1="-97.0733" y1="-130.476" x2="652.067" y2="618.664" gradientUnits="userSpaceOnUse">
      <stop stop-color="#8C66FC"/>
      <stop offset="1" stop-color="#0274F1"/>
    </linearGradient>
    <linearGradient id="paint1_linear_2757_119017" x1="-84.2249" y1="-143.324" x2="664.915" y2="605.815" gradientUnits="userSpaceOnUse">
      <stop stop-color="#8C66FC"/>
      <stop offset="1" stop-color="#0274F1"/>
    </linearGradient>
    <linearGradient id="paint2_linear_2757_119017" x1="-71.7247" y1="-155.825" x2="677.415" y2="593.315" gradientUnits="userSpaceOnUse">
      <stop stop-color="#8C66FC"/>
      <stop offset="1" stop-color="#0274F1"/>
    </linearGradient>
    <linearGradient id="paint3_linear_2757_119017" x1="-58.8733" y1="-168.676" x2="690.267" y2="580.464" gradientUnits="userSpaceOnUse">
      <stop stop-color="#8C66FC"/>
      <stop offset="1" stop-color="#0274F1"/>
    </linearGradient>
    <linearGradient id="paint4_linear_2757_119017" x1="-46.0249" y1="-181.524" x2="703.115" y2="567.616" gradientUnits="userSpaceOnUse">
      <stop stop-color="#8C66FC"/>
      <stop offset="1" stop-color="#0274F1"/>
    </linearGradient>
    <linearGradient id="paint5_linear_2757_119017" x1="-33.5247" y1="-194.025" x2="715.615" y2="555.115" gradientUnits="userSpaceOnUse">
      <stop stop-color="#8C66FC"/>
      <stop offset="1" stop-color="#0274F1"/>
    </linearGradient>
    <linearGradient id="paint6_linear_2757_119017" x1="-20.6763" y1="-206.873" x2="728.464" y2="542.267" gradientUnits="userSpaceOnUse">
      <stop stop-color="#8C66FC"/>
      <stop offset="1" stop-color="#0274F1"/>
    </linearGradient>
    <linearGradient id="paint7_linear_2757_119017" x1="-7.82494" y1="-219.724" x2="741.315" y2="529.416" gradientUnits="userSpaceOnUse">
      <stop stop-color="#8C66FC"/>
      <stop offset="1" stop-color="#0274F1"/>
    </linearGradient>
    <linearGradient id="paint8_linear_2757_119017" x1="4.67525" y1="-232.224" x2="753.815" y2="516.915" gradientUnits="userSpaceOnUse">
      <stop stop-color="#8C66FC"/>
      <stop offset="1" stop-color="#0274F1"/>
    </linearGradient>
    <linearGradient id="paint9_linear_2757_119017" x1="17.5237" y1="-245.073" x2="766.664" y2="504.067" gradientUnits="userSpaceOnUse">
      <stop stop-color="#8C66FC"/>
      <stop offset="1" stop-color="#0274F1"/>
    </linearGradient>
    <linearGradient id="paint10_linear_2757_119017" x1="30.3711" y1="-257.92" x2="779.511" y2="491.219" gradientUnits="userSpaceOnUse">
      <stop stop-color="#8C66FC"/>
      <stop offset="1" stop-color="#0274F1"/>
    </linearGradient>
    <linearGradient id="paint11_linear_2757_119017" x1="42.8752" y1="-270.424" x2="792.015" y2="478.715" gradientUnits="userSpaceOnUse">
      <stop stop-color="#8C66FC"/>
      <stop offset="1" stop-color="#0274F1"/>
    </linearGradient>
    <linearGradient id="paint12_linear_2757_119017" x1="55.7237" y1="-283.273" x2="804.864" y2="465.867" gradientUnits="userSpaceOnUse">
      <stop stop-color="#8C66FC"/>
      <stop offset="1" stop-color="#0274F1"/>
    </linearGradient>
    <linearGradient id="paint13_linear_2757_119017" x1="68.2238" y1="-295.773" x2="817.364" y2="453.367" gradientUnits="userSpaceOnUse">
      <stop stop-color="#8C66FC"/>
      <stop offset="1" stop-color="#0274F1"/>
    </linearGradient>
    <clipPath id="clip0_2757_119017">
      <rect width="609" height="276" fill="white" transform="translate(195.164 -173) rotate(45)"/>
    </clipPath>
  </defs>
</svg>
