<svg viewBox="0 0 88 140" fill="none" xmlns="http://www.w3.org/2000/svg">
  <path
    d="M43.6484 106.497L85.0968 82.6205L43.6484 139.56V106.497ZM43.6484 0L87.2968 70.6493L43.6484 95.8239V0Z"
    fill="#1E313F" />
  <mask id="mask0_218_12695" style="mask-type:luminance" maskUnits="userSpaceOnUse" x="0" y="0"
    width="44" height="140">
    <path
      d="M43.6484 139.56L2.20002 82.6205L43.6484 106.497V139.56ZM43.6484 95.8239L0 70.6493L43.6484 0V95.8239Z"
      fill="white" />
  </mask>
  <g mask="url(#mask0_218_12695)">
    <path
      d="M3.47615 69.4183C4.80054 69.4183 5.87417 68.3444 5.87417 67.0197C5.87417 65.695 4.80054 64.6211 3.47615 64.6211C2.15176 64.6211 1.07812 65.695 1.07812 67.0197C1.07812 68.3444 2.15176 69.4183 3.47615 69.4183Z"
      fill="#1E313F" />
    <path
      d="M3.47615 63.5199C4.80054 63.5199 5.87417 62.446 5.87417 61.1213C5.87417 59.7965 4.80054 58.7227 3.47615 58.7227C2.15176 58.7227 1.07812 59.7965 1.07812 61.1213C1.07812 62.446 2.15176 63.5199 3.47615 63.5199Z"
      fill="#1E313F" />
    <path
      d="M3.47615 57.6117C4.80054 57.6117 5.87417 56.5378 5.87417 55.2131C5.87417 53.8884 4.80054 52.8145 3.47615 52.8145C2.15176 52.8145 1.07812 53.8884 1.07812 55.2131C1.07812 56.5378 2.15176 57.6117 3.47615 57.6117Z"
      fill="#1E313F" />
    <path
      d="M3.47615 51.7152C4.80054 51.7152 5.87417 50.6413 5.87417 49.3166C5.87417 47.9919 4.80054 46.918 3.47615 46.918C2.15176 46.918 1.07812 47.9919 1.07812 49.3166C1.07812 50.6413 2.15176 51.7152 3.47615 51.7152Z"
      fill="#1E313F" />
    <path
      d="M3.47615 45.8051C4.80054 45.8051 5.87417 44.7312 5.87417 43.4064C5.87417 42.0817 4.80054 41.0078 3.47615 41.0078C2.15176 41.0078 1.07812 42.0817 1.07812 43.4064C1.07812 44.7312 2.15176 45.8051 3.47615 45.8051Z"
      fill="#1E313F" />
    <path
      d="M3.47615 39.9066C4.80054 39.9066 5.87417 38.8327 5.87417 37.508C5.87417 36.1833 4.80054 35.1094 3.47615 35.1094C2.15176 35.1094 1.07812 36.1833 1.07812 37.508C1.07812 38.8327 2.15176 39.9066 3.47615 39.9066Z"
      fill="#1E313F" />
    <path
      d="M3.47615 34.0101C4.80054 34.0101 5.87417 32.9362 5.87417 31.6115C5.87417 30.2868 4.80054 29.2129 3.47615 29.2129C2.15176 29.2129 1.07812 30.2868 1.07812 31.6115C1.07812 32.9362 2.15176 34.0101 3.47615 34.0101Z"
      fill="#1E313F" />
    <path
      d="M3.47615 28.1019C4.80054 28.1019 5.87417 27.028 5.87417 25.7033C5.87417 24.3786 4.80054 23.3047 3.47615 23.3047C2.15176 23.3047 1.07812 24.3786 1.07812 25.7033C1.07812 27.028 2.15176 28.1019 3.47615 28.1019Z"
      fill="#1E313F" />
    <path
      d="M3.47615 22.2035C4.80054 22.2035 5.87417 21.1296 5.87417 19.8049C5.87417 18.4801 4.80054 17.4062 3.47615 17.4062C2.15176 17.4062 1.07812 18.4801 1.07812 19.8049C1.07812 21.1296 2.15176 22.2035 3.47615 22.2035Z"
      fill="#1E313F" />
    <path
      d="M3.47615 16.3051C4.80054 16.3051 5.87417 15.2312 5.87417 13.9064C5.87417 12.5817 4.80054 11.5078 3.47615 11.5078C2.15176 11.5078 1.07812 12.5817 1.07812 13.9064C1.07812 15.2312 2.15176 16.3051 3.47615 16.3051Z"
      fill="#1E313F" />
    <path
      d="M3.47615 10.3988C4.80054 10.3988 5.87417 9.3249 5.87417 8.00018C5.87417 6.67545 4.80054 5.60156 3.47615 5.60156C2.15176 5.60156 1.07812 6.67545 1.07812 8.00018C1.07812 9.3249 2.15176 10.3988 3.47615 10.3988Z"
      fill="#1E313F" />
    <path
      d="M3.47615 4.50038C4.80054 4.50038 5.87417 3.42647 5.87417 2.10175C5.87417 0.777025 4.80054 -0.296875 3.47615 -0.296875C2.15176 -0.296875 1.07812 0.777025 1.07812 2.10175C1.07812 3.42647 2.15176 4.50038 3.47615 4.50038Z"
      fill="#1E313F" />
    <path
      d="M3.47615 140.231C4.80054 140.231 5.87417 139.157 5.87417 137.832C5.87417 136.507 4.80054 135.434 3.47615 135.434C2.15176 135.434 1.07812 136.507 1.07812 137.832C1.07812 139.157 2.15176 140.231 3.47615 140.231Z"
      fill="#1E313F" />
    <path
      d="M3.47615 134.334C4.80054 134.334 5.87417 133.26 5.87417 131.936C5.87417 130.611 4.80054 129.537 3.47615 129.537C2.15176 129.537 1.07812 130.611 1.07812 131.936C1.07812 133.26 2.15176 134.334 3.47615 134.334Z"
      fill="#1E313F" />
    <path
      d="M3.47615 128.438C4.80054 128.438 5.87417 127.364 5.87417 126.039C5.87417 124.715 4.80054 123.641 3.47615 123.641C2.15176 123.641 1.07812 124.715 1.07812 126.039C1.07812 127.364 2.15176 128.438 3.47615 128.438Z"
      fill="#1E313F" />
    <path
      d="M3.47615 122.528C4.80054 122.528 5.87417 121.454 5.87417 120.129C5.87417 118.804 4.80054 117.73 3.47615 117.73C2.15176 117.73 1.07812 118.804 1.07812 120.129C1.07812 121.454 2.15176 122.528 3.47615 122.528Z"
      fill="#1E313F" />
    <path
      d="M3.47615 116.629C4.80054 116.629 5.87417 115.555 5.87417 114.231C5.87417 112.906 4.80054 111.832 3.47615 111.832C2.15176 111.832 1.07812 112.906 1.07812 114.231C1.07812 115.555 2.15176 116.629 3.47615 116.629Z"
      fill="#1E313F" />
    <path
      d="M3.47615 110.721C4.80054 110.721 5.87417 109.647 5.87417 108.322C5.87417 106.998 4.80054 105.924 3.47615 105.924C2.15176 105.924 1.07812 106.998 1.07812 108.322C1.07812 109.647 2.15176 110.721 3.47615 110.721Z"
      fill="#1E313F" />
    <path
      d="M3.47615 104.825C4.80054 104.825 5.87417 103.751 5.87417 102.426C5.87417 101.101 4.80054 100.027 3.47615 100.027C2.15176 100.027 1.07812 101.101 1.07812 102.426C1.07812 103.751 2.15176 104.825 3.47615 104.825Z"
      fill="#1E313F" />
    <path
      d="M3.47615 98.9262C4.80054 98.9262 5.87417 97.8523 5.87417 96.5275C5.87417 95.2028 4.80054 94.1289 3.47615 94.1289C2.15176 94.1289 1.07812 95.2028 1.07812 96.5275C1.07812 97.8523 2.15176 98.9262 3.47615 98.9262Z"
      fill="#1E313F" />
    <path
      d="M3.47615 93.0179C4.80054 93.0179 5.87417 91.944 5.87417 90.6193C5.87417 89.2946 4.80054 88.2207 3.47615 88.2207C2.15176 88.2207 1.07812 89.2946 1.07812 90.6193C1.07812 91.944 2.15176 93.0179 3.47615 93.0179Z"
      fill="#1E313F" />
    <path
      d="M3.47615 87.1215C4.80054 87.1215 5.87417 86.0476 5.87417 84.7228C5.87417 83.3981 4.80054 82.3242 3.47615 82.3242C2.15176 82.3242 1.07812 83.3981 1.07812 84.7228C1.07812 86.0476 2.15176 87.1215 3.47615 87.1215Z"
      fill="#1E313F" />
    <path
      d="M3.47615 81.223C4.80054 81.223 5.87417 80.1491 5.87417 78.8244C5.87417 77.4997 4.80054 76.4258 3.47615 76.4258C2.15176 76.4258 1.07812 77.4997 1.07812 78.8244C1.07812 80.1491 2.15176 81.223 3.47615 81.223Z"
      fill="#1E313F" />
    <path
      d="M3.47615 75.3148C4.80054 75.3148 5.87417 74.2409 5.87417 72.9162C5.87417 71.5915 4.80054 70.5176 3.47615 70.5176C2.15176 70.5176 1.07812 71.5915 1.07812 72.9162C1.07812 74.2409 2.15176 75.3148 3.47615 75.3148Z"
      fill="#1E313F" />
    <path
      d="M35.441 69.4183C36.7654 69.4183 37.839 68.3444 37.839 67.0197C37.839 65.695 36.7654 64.6211 35.441 64.6211C34.1166 64.6211 33.043 65.695 33.043 67.0197C33.043 68.3444 34.1166 69.4183 35.441 69.4183Z"
      fill="#1E313F" />
    <path
      d="M35.441 63.5199C36.7654 63.5199 37.839 62.446 37.839 61.1213C37.839 59.7965 36.7654 58.7227 35.441 58.7227C34.1166 58.7227 33.043 59.7965 33.043 61.1213C33.043 62.446 34.1166 63.5199 35.441 63.5199Z"
      fill="#1E313F" />
    <path
      d="M35.441 57.6117C36.7654 57.6117 37.839 56.5378 37.839 55.2131C37.839 53.8884 36.7654 52.8145 35.441 52.8145C34.1166 52.8145 33.043 53.8884 33.043 55.2131C33.043 56.5378 34.1166 57.6117 35.441 57.6117Z"
      fill="#1E313F" />
    <path
      d="M35.441 51.7152C36.7654 51.7152 37.839 50.6413 37.839 49.3166C37.839 47.9919 36.7654 46.918 35.441 46.918C34.1166 46.918 33.043 47.9919 33.043 49.3166C33.043 50.6413 34.1166 51.7152 35.441 51.7152Z"
      fill="#1E313F" />
    <path
      d="M35.441 45.8051C36.7654 45.8051 37.839 44.7312 37.839 43.4064C37.839 42.0817 36.7654 41.0078 35.441 41.0078C34.1166 41.0078 33.043 42.0817 33.043 43.4064C33.043 44.7312 34.1166 45.8051 35.441 45.8051Z"
      fill="#1E313F" />
    <path
      d="M35.441 39.9066C36.7654 39.9066 37.839 38.8327 37.839 37.508C37.839 36.1833 36.7654 35.1094 35.441 35.1094C34.1166 35.1094 33.043 36.1833 33.043 37.508C33.043 38.8327 34.1166 39.9066 35.441 39.9066Z"
      fill="#1E313F" />
    <path
      d="M35.441 34.0101C36.7654 34.0101 37.839 32.9362 37.839 31.6115C37.839 30.2868 36.7654 29.2129 35.441 29.2129C34.1166 29.2129 33.043 30.2868 33.043 31.6115C33.043 32.9362 34.1166 34.0101 35.441 34.0101Z"
      fill="#1E313F" />
    <path
      d="M35.441 28.1019C36.7654 28.1019 37.839 27.028 37.839 25.7033C37.839 24.3786 36.7654 23.3047 35.441 23.3047C34.1166 23.3047 33.043 24.3786 33.043 25.7033C33.043 27.028 34.1166 28.1019 35.441 28.1019Z"
      fill="#1E313F" />
    <path
      d="M35.441 22.2035C36.7654 22.2035 37.839 21.1296 37.839 19.8049C37.839 18.4801 36.7654 17.4062 35.441 17.4062C34.1166 17.4062 33.043 18.4801 33.043 19.8049C33.043 21.1296 34.1166 22.2035 35.441 22.2035Z"
      fill="#1E313F" />
    <path
      d="M35.441 16.3051C36.7654 16.3051 37.839 15.2312 37.839 13.9064C37.839 12.5817 36.7654 11.5078 35.441 11.5078C34.1166 11.5078 33.043 12.5817 33.043 13.9064C33.043 15.2312 34.1166 16.3051 35.441 16.3051Z"
      fill="#1E313F" />
    <path
      d="M35.441 10.3988C36.7654 10.3988 37.839 9.3249 37.839 8.00018C37.839 6.67545 36.7654 5.60156 35.441 5.60156C34.1166 5.60156 33.043 6.67545 33.043 8.00018C33.043 9.3249 34.1166 10.3988 35.441 10.3988Z"
      fill="#1E313F" />
    <path
      d="M35.441 4.50038C36.7654 4.50038 37.839 3.42647 37.839 2.10175C37.839 0.777025 36.7654 -0.296875 35.441 -0.296875C34.1166 -0.296875 33.043 0.777025 33.043 2.10175C33.043 3.42647 34.1166 4.50038 35.441 4.50038Z"
      fill="#1E313F" />
    <path
      d="M35.441 140.231C36.7654 140.231 37.839 139.157 37.839 137.832C37.839 136.507 36.7654 135.434 35.441 135.434C34.1166 135.434 33.043 136.507 33.043 137.832C33.043 139.157 34.1166 140.231 35.441 140.231Z"
      fill="#1E313F" />
    <path
      d="M35.441 134.334C36.7654 134.334 37.839 133.26 37.839 131.936C37.839 130.611 36.7654 129.537 35.441 129.537C34.1166 129.537 33.043 130.611 33.043 131.936C33.043 133.26 34.1166 134.334 35.441 134.334Z"
      fill="#1E313F" />
    <path
      d="M35.441 128.438C36.7654 128.438 37.839 127.364 37.839 126.039C37.839 124.715 36.7654 123.641 35.441 123.641C34.1166 123.641 33.043 124.715 33.043 126.039C33.043 127.364 34.1166 128.438 35.441 128.438Z"
      fill="#1E313F" />
    <path
      d="M35.441 122.528C36.7654 122.528 37.839 121.454 37.839 120.129C37.839 118.804 36.7654 117.73 35.441 117.73C34.1166 117.73 33.043 118.804 33.043 120.129C33.043 121.454 34.1166 122.528 35.441 122.528Z"
      fill="#1E313F" />
    <path
      d="M35.441 116.629C36.7654 116.629 37.839 115.555 37.839 114.231C37.839 112.906 36.7654 111.832 35.441 111.832C34.1166 111.832 33.043 112.906 33.043 114.231C33.043 115.555 34.1166 116.629 35.441 116.629Z"
      fill="#1E313F" />
    <path
      d="M35.441 110.721C36.7654 110.721 37.839 109.647 37.839 108.322C37.839 106.998 36.7654 105.924 35.441 105.924C34.1166 105.924 33.043 106.998 33.043 108.322C33.043 109.647 34.1166 110.721 35.441 110.721Z"
      fill="#1E313F" />
    <path
      d="M35.441 104.825C36.7654 104.825 37.839 103.751 37.839 102.426C37.839 101.101 36.7654 100.027 35.441 100.027C34.1166 100.027 33.043 101.101 33.043 102.426C33.043 103.751 34.1166 104.825 35.441 104.825Z"
      fill="#1E313F" />
    <path
      d="M35.441 98.9262C36.7654 98.9262 37.839 97.8523 37.839 96.5275C37.839 95.2028 36.7654 94.1289 35.441 94.1289C34.1166 94.1289 33.043 95.2028 33.043 96.5275C33.043 97.8523 34.1166 98.9262 35.441 98.9262Z"
      fill="#1E313F" />
    <path
      d="M35.441 93.0179C36.7654 93.0179 37.839 91.944 37.839 90.6193C37.839 89.2946 36.7654 88.2207 35.441 88.2207C34.1166 88.2207 33.043 89.2946 33.043 90.6193C33.043 91.944 34.1166 93.0179 35.441 93.0179Z"
      fill="#1E313F" />
    <path
      d="M35.441 87.1215C36.7654 87.1215 37.839 86.0476 37.839 84.7228C37.839 83.3981 36.7654 82.3242 35.441 82.3242C34.1166 82.3242 33.043 83.3981 33.043 84.7228C33.043 86.0476 34.1166 87.1215 35.441 87.1215Z"
      fill="#1E313F" />
    <path
      d="M35.441 81.223C36.7654 81.223 37.839 80.1491 37.839 78.8244C37.839 77.4997 36.7654 76.4258 35.441 76.4258C34.1166 76.4258 33.043 77.4997 33.043 78.8244C33.043 80.1491 34.1166 81.223 35.441 81.223Z"
      fill="#1E313F" />
    <path
      d="M35.441 75.3148C36.7654 75.3148 37.839 74.2409 37.839 72.9162C37.839 71.5915 36.7654 70.5176 35.441 70.5176C34.1166 70.5176 33.043 71.5915 33.043 72.9162C33.043 74.2409 34.1166 75.3148 35.441 75.3148Z"
      fill="#1E313F" />
    <path
      d="M41.8433 69.4183C43.1677 69.4183 44.2414 68.3444 44.2414 67.0197C44.2414 65.695 43.1677 64.6211 41.8433 64.6211C40.5189 64.6211 39.4453 65.695 39.4453 67.0197C39.4453 68.3444 40.5189 69.4183 41.8433 69.4183Z"
      fill="#1E313F" />
    <path
      d="M41.8433 63.5199C43.1677 63.5199 44.2414 62.446 44.2414 61.1213C44.2414 59.7965 43.1677 58.7227 41.8433 58.7227C40.5189 58.7227 39.4453 59.7965 39.4453 61.1213C39.4453 62.446 40.5189 63.5199 41.8433 63.5199Z"
      fill="#1E313F" />
    <path
      d="M41.8433 57.6117C43.1677 57.6117 44.2414 56.5378 44.2414 55.2131C44.2414 53.8884 43.1677 52.8145 41.8433 52.8145C40.5189 52.8145 39.4453 53.8884 39.4453 55.2131C39.4453 56.5378 40.5189 57.6117 41.8433 57.6117Z"
      fill="#1E313F" />
    <path
      d="M41.8433 51.7152C43.1677 51.7152 44.2414 50.6413 44.2414 49.3166C44.2414 47.9919 43.1677 46.918 41.8433 46.918C40.5189 46.918 39.4453 47.9919 39.4453 49.3166C39.4453 50.6413 40.5189 51.7152 41.8433 51.7152Z"
      fill="#1E313F" />
    <path
      d="M41.8433 45.8051C43.1677 45.8051 44.2414 44.7312 44.2414 43.4064C44.2414 42.0817 43.1677 41.0078 41.8433 41.0078C40.5189 41.0078 39.4453 42.0817 39.4453 43.4064C39.4453 44.7312 40.5189 45.8051 41.8433 45.8051Z"
      fill="#1E313F" />
    <path
      d="M41.8433 39.9066C43.1677 39.9066 44.2414 38.8327 44.2414 37.508C44.2414 36.1833 43.1677 35.1094 41.8433 35.1094C40.5189 35.1094 39.4453 36.1833 39.4453 37.508C39.4453 38.8327 40.5189 39.9066 41.8433 39.9066Z"
      fill="#1E313F" />
    <path
      d="M41.8433 34.0101C43.1677 34.0101 44.2414 32.9362 44.2414 31.6115C44.2414 30.2868 43.1677 29.2129 41.8433 29.2129C40.5189 29.2129 39.4453 30.2868 39.4453 31.6115C39.4453 32.9362 40.5189 34.0101 41.8433 34.0101Z"
      fill="#1E313F" />
    <path
      d="M41.8433 28.1019C43.1677 28.1019 44.2414 27.028 44.2414 25.7033C44.2414 24.3786 43.1677 23.3047 41.8433 23.3047C40.5189 23.3047 39.4453 24.3786 39.4453 25.7033C39.4453 27.028 40.5189 28.1019 41.8433 28.1019Z"
      fill="#1E313F" />
    <path
      d="M41.8433 22.2035C43.1677 22.2035 44.2414 21.1296 44.2414 19.8049C44.2414 18.4801 43.1677 17.4062 41.8433 17.4062C40.5189 17.4062 39.4453 18.4801 39.4453 19.8049C39.4453 21.1296 40.5189 22.2035 41.8433 22.2035Z"
      fill="#1E313F" />
    <path
      d="M41.8433 16.3051C43.1677 16.3051 44.2414 15.2312 44.2414 13.9064C44.2414 12.5817 43.1677 11.5078 41.8433 11.5078C40.5189 11.5078 39.4453 12.5817 39.4453 13.9064C39.4453 15.2312 40.5189 16.3051 41.8433 16.3051Z"
      fill="#1E313F" />
    <path
      d="M41.8433 10.3988C43.1677 10.3988 44.2414 9.3249 44.2414 8.00018C44.2414 6.67545 43.1677 5.60156 41.8433 5.60156C40.5189 5.60156 39.4453 6.67545 39.4453 8.00018C39.4453 9.3249 40.5189 10.3988 41.8433 10.3988Z"
      fill="#1E313F" />
    <path
      d="M41.8433 4.50038C43.1677 4.50038 44.2414 3.42647 44.2414 2.10175C44.2414 0.777025 43.1677 -0.296875 41.8433 -0.296875C40.5189 -0.296875 39.4453 0.777025 39.4453 2.10175C39.4453 3.42647 40.5189 4.50038 41.8433 4.50038Z"
      fill="#1E313F" />
    <path
      d="M41.8433 140.231C43.1677 140.231 44.2414 139.157 44.2414 137.832C44.2414 136.507 43.1677 135.434 41.8433 135.434C40.5189 135.434 39.4453 136.507 39.4453 137.832C39.4453 139.157 40.5189 140.231 41.8433 140.231Z"
      fill="#1E313F" />
    <path
      d="M41.8433 134.334C43.1677 134.334 44.2414 133.26 44.2414 131.936C44.2414 130.611 43.1677 129.537 41.8433 129.537C40.5189 129.537 39.4453 130.611 39.4453 131.936C39.4453 133.26 40.5189 134.334 41.8433 134.334Z"
      fill="#1E313F" />
    <path
      d="M41.8433 128.438C43.1677 128.438 44.2414 127.364 44.2414 126.039C44.2414 124.715 43.1677 123.641 41.8433 123.641C40.5189 123.641 39.4453 124.715 39.4453 126.039C39.4453 127.364 40.5189 128.438 41.8433 128.438Z"
      fill="#1E313F" />
    <path
      d="M41.8433 122.528C43.1677 122.528 44.2414 121.454 44.2414 120.129C44.2414 118.804 43.1677 117.73 41.8433 117.73C40.5189 117.73 39.4453 118.804 39.4453 120.129C39.4453 121.454 40.5189 122.528 41.8433 122.528Z"
      fill="#1E313F" />
    <path
      d="M41.8433 116.629C43.1677 116.629 44.2414 115.555 44.2414 114.231C44.2414 112.906 43.1677 111.832 41.8433 111.832C40.5189 111.832 39.4453 112.906 39.4453 114.231C39.4453 115.555 40.5189 116.629 41.8433 116.629Z"
      fill="#1E313F" />
    <path
      d="M41.8433 110.721C43.1677 110.721 44.2414 109.647 44.2414 108.322C44.2414 106.998 43.1677 105.924 41.8433 105.924C40.5189 105.924 39.4453 106.998 39.4453 108.322C39.4453 109.647 40.5189 110.721 41.8433 110.721Z"
      fill="#1E313F" />
    <path
      d="M41.8433 104.825C43.1677 104.825 44.2414 103.751 44.2414 102.426C44.2414 101.101 43.1677 100.027 41.8433 100.027C40.5189 100.027 39.4453 101.101 39.4453 102.426C39.4453 103.751 40.5189 104.825 41.8433 104.825Z"
      fill="#1E313F" />
    <path
      d="M41.8433 98.9262C43.1677 98.9262 44.2414 97.8523 44.2414 96.5275C44.2414 95.2028 43.1677 94.1289 41.8433 94.1289C40.5189 94.1289 39.4453 95.2028 39.4453 96.5275C39.4453 97.8523 40.5189 98.9262 41.8433 98.9262Z"
      fill="#1E313F" />
    <path
      d="M41.8433 93.0179C43.1677 93.0179 44.2414 91.944 44.2414 90.6193C44.2414 89.2946 43.1677 88.2207 41.8433 88.2207C40.5189 88.2207 39.4453 89.2946 39.4453 90.6193C39.4453 91.944 40.5189 93.0179 41.8433 93.0179Z"
      fill="#1E313F" />
    <path
      d="M41.8433 87.1215C43.1677 87.1215 44.2414 86.0476 44.2414 84.7228C44.2414 83.3981 43.1677 82.3242 41.8433 82.3242C40.5189 82.3242 39.4453 83.3981 39.4453 84.7228C39.4453 86.0476 40.5189 87.1215 41.8433 87.1215Z"
      fill="#1E313F" />
    <path
      d="M41.8433 81.223C43.1677 81.223 44.2414 80.1491 44.2414 78.8244C44.2414 77.4997 43.1677 76.4258 41.8433 76.4258C40.5189 76.4258 39.4453 77.4997 39.4453 78.8244C39.4453 80.1491 40.5189 81.223 41.8433 81.223Z"
      fill="#1E313F" />
    <path
      d="M41.8433 75.3148C43.1677 75.3148 44.2414 74.2409 44.2414 72.9162C44.2414 71.5915 43.1677 70.5176 41.8433 70.5176C40.5189 70.5176 39.4453 71.5915 39.4453 72.9162C39.4453 74.2409 40.5189 75.3148 41.8433 75.3148Z"
      fill="#1E313F" />
    <path
      d="M9.87849 69.4183C11.2029 69.4183 12.2765 68.3444 12.2765 67.0197C12.2765 65.695 11.2029 64.6211 9.87849 64.6211C8.5541 64.6211 7.48047 65.695 7.48047 67.0197C7.48047 68.3444 8.5541 69.4183 9.87849 69.4183Z"
      fill="#1E313F" />
    <path
      d="M9.87849 63.5199C11.2029 63.5199 12.2765 62.446 12.2765 61.1213C12.2765 59.7965 11.2029 58.7227 9.87849 58.7227C8.5541 58.7227 7.48047 59.7965 7.48047 61.1213C7.48047 62.446 8.5541 63.5199 9.87849 63.5199Z"
      fill="#1E313F" />
    <path
      d="M9.87849 57.6117C11.2029 57.6117 12.2765 56.5378 12.2765 55.2131C12.2765 53.8884 11.2029 52.8145 9.87849 52.8145C8.5541 52.8145 7.48047 53.8884 7.48047 55.2131C7.48047 56.5378 8.5541 57.6117 9.87849 57.6117Z"
      fill="#1E313F" />
    <path
      d="M9.87849 51.7152C11.2029 51.7152 12.2765 50.6413 12.2765 49.3166C12.2765 47.9919 11.2029 46.918 9.87849 46.918C8.5541 46.918 7.48047 47.9919 7.48047 49.3166C7.48047 50.6413 8.5541 51.7152 9.87849 51.7152Z"
      fill="#1E313F" />
    <path
      d="M9.87849 45.8051C11.2029 45.8051 12.2765 44.7312 12.2765 43.4064C12.2765 42.0817 11.2029 41.0078 9.87849 41.0078C8.5541 41.0078 7.48047 42.0817 7.48047 43.4064C7.48047 44.7312 8.5541 45.8051 9.87849 45.8051Z"
      fill="#1E313F" />
    <path
      d="M9.87849 39.9066C11.2029 39.9066 12.2765 38.8327 12.2765 37.508C12.2765 36.1833 11.2029 35.1094 9.87849 35.1094C8.5541 35.1094 7.48047 36.1833 7.48047 37.508C7.48047 38.8327 8.5541 39.9066 9.87849 39.9066Z"
      fill="#1E313F" />
    <path
      d="M9.87849 34.0101C11.2029 34.0101 12.2765 32.9362 12.2765 31.6115C12.2765 30.2868 11.2029 29.2129 9.87849 29.2129C8.5541 29.2129 7.48047 30.2868 7.48047 31.6115C7.48047 32.9362 8.5541 34.0101 9.87849 34.0101Z"
      fill="#1E313F" />
    <path
      d="M9.87849 28.1019C11.2029 28.1019 12.2765 27.028 12.2765 25.7033C12.2765 24.3786 11.2029 23.3047 9.87849 23.3047C8.5541 23.3047 7.48047 24.3786 7.48047 25.7033C7.48047 27.028 8.5541 28.1019 9.87849 28.1019Z"
      fill="#1E313F" />
    <path
      d="M9.87849 22.2035C11.2029 22.2035 12.2765 21.1296 12.2765 19.8049C12.2765 18.4801 11.2029 17.4062 9.87849 17.4062C8.5541 17.4062 7.48047 18.4801 7.48047 19.8049C7.48047 21.1296 8.5541 22.2035 9.87849 22.2035Z"
      fill="#1E313F" />
    <path
      d="M9.87849 16.3051C11.2029 16.3051 12.2765 15.2312 12.2765 13.9064C12.2765 12.5817 11.2029 11.5078 9.87849 11.5078C8.5541 11.5078 7.48047 12.5817 7.48047 13.9064C7.48047 15.2312 8.5541 16.3051 9.87849 16.3051Z"
      fill="#1E313F" />
    <path
      d="M9.87849 10.3988C11.2029 10.3988 12.2765 9.3249 12.2765 8.00018C12.2765 6.67545 11.2029 5.60156 9.87849 5.60156C8.5541 5.60156 7.48047 6.67545 7.48047 8.00018C7.48047 9.3249 8.5541 10.3988 9.87849 10.3988Z"
      fill="#1E313F" />
    <path
      d="M9.87849 4.50038C11.2029 4.50038 12.2765 3.42647 12.2765 2.10175C12.2765 0.777025 11.2029 -0.296875 9.87849 -0.296875C8.5541 -0.296875 7.48047 0.777025 7.48047 2.10175C7.48047 3.42647 8.5541 4.50038 9.87849 4.50038Z"
      fill="#1E313F" />
    <path
      d="M9.87849 140.231C11.2029 140.231 12.2765 139.157 12.2765 137.832C12.2765 136.507 11.2029 135.434 9.87849 135.434C8.5541 135.434 7.48047 136.507 7.48047 137.832C7.48047 139.157 8.5541 140.231 9.87849 140.231Z"
      fill="#1E313F" />
    <path
      d="M9.87849 134.334C11.2029 134.334 12.2765 133.26 12.2765 131.936C12.2765 130.611 11.2029 129.537 9.87849 129.537C8.5541 129.537 7.48047 130.611 7.48047 131.936C7.48047 133.26 8.5541 134.334 9.87849 134.334Z"
      fill="#1E313F" />
    <path
      d="M9.87849 128.438C11.2029 128.438 12.2765 127.364 12.2765 126.039C12.2765 124.715 11.2029 123.641 9.87849 123.641C8.5541 123.641 7.48047 124.715 7.48047 126.039C7.48047 127.364 8.5541 128.438 9.87849 128.438Z"
      fill="#1E313F" />
    <path
      d="M9.87849 122.528C11.2029 122.528 12.2765 121.454 12.2765 120.129C12.2765 118.804 11.2029 117.73 9.87849 117.73C8.5541 117.73 7.48047 118.804 7.48047 120.129C7.48047 121.454 8.5541 122.528 9.87849 122.528Z"
      fill="#1E313F" />
    <path
      d="M9.87849 116.629C11.2029 116.629 12.2765 115.555 12.2765 114.231C12.2765 112.906 11.2029 111.832 9.87849 111.832C8.5541 111.832 7.48047 112.906 7.48047 114.231C7.48047 115.555 8.5541 116.629 9.87849 116.629Z"
      fill="#1E313F" />
    <path
      d="M9.87849 110.721C11.2029 110.721 12.2765 109.647 12.2765 108.322C12.2765 106.998 11.2029 105.924 9.87849 105.924C8.5541 105.924 7.48047 106.998 7.48047 108.322C7.48047 109.647 8.5541 110.721 9.87849 110.721Z"
      fill="#1E313F" />
    <path
      d="M9.87849 104.825C11.2029 104.825 12.2765 103.751 12.2765 102.426C12.2765 101.101 11.2029 100.027 9.87849 100.027C8.5541 100.027 7.48047 101.101 7.48047 102.426C7.48047 103.751 8.5541 104.825 9.87849 104.825Z"
      fill="#1E313F" />
    <path
      d="M9.87849 98.9262C11.2029 98.9262 12.2765 97.8523 12.2765 96.5275C12.2765 95.2028 11.2029 94.1289 9.87849 94.1289C8.5541 94.1289 7.48047 95.2028 7.48047 96.5275C7.48047 97.8523 8.5541 98.9262 9.87849 98.9262Z"
      fill="#1E313F" />
    <path
      d="M9.87849 93.0179C11.2029 93.0179 12.2765 91.944 12.2765 90.6193C12.2765 89.2946 11.2029 88.2207 9.87849 88.2207C8.5541 88.2207 7.48047 89.2946 7.48047 90.6193C7.48047 91.944 8.5541 93.0179 9.87849 93.0179Z"
      fill="#1E313F" />
    <path
      d="M9.87849 87.1215C11.2029 87.1215 12.2765 86.0476 12.2765 84.7228C12.2765 83.3981 11.2029 82.3242 9.87849 82.3242C8.5541 82.3242 7.48047 83.3981 7.48047 84.7228C7.48047 86.0476 8.5541 87.1215 9.87849 87.1215Z"
      fill="#1E313F" />
    <path
      d="M9.87849 81.223C11.2029 81.223 12.2765 80.1491 12.2765 78.8244C12.2765 77.4997 11.2029 76.4258 9.87849 76.4258C8.5541 76.4258 7.48047 77.4997 7.48047 78.8244C7.48047 80.1491 8.5541 81.223 9.87849 81.223Z"
      fill="#1E313F" />
    <path
      d="M9.87849 75.3148C11.2029 75.3148 12.2765 74.2409 12.2765 72.9162C12.2765 71.5915 11.2029 70.5176 9.87849 70.5176C8.5541 70.5176 7.48047 71.5915 7.48047 72.9162C7.48047 74.2409 8.5541 75.3148 9.87849 75.3148Z"
      fill="#1E313F" />
    <path
      d="M16.2691 69.4183C17.5935 69.4183 18.6671 68.3444 18.6671 67.0197C18.6671 65.695 17.5935 64.6211 16.2691 64.6211C14.9447 64.6211 13.8711 65.695 13.8711 67.0197C13.8711 68.3444 14.9447 69.4183 16.2691 69.4183Z"
      fill="#1E313F" />
    <path
      d="M16.2691 63.5199C17.5935 63.5199 18.6671 62.446 18.6671 61.1213C18.6671 59.7965 17.5935 58.7227 16.2691 58.7227C14.9447 58.7227 13.8711 59.7965 13.8711 61.1213C13.8711 62.446 14.9447 63.5199 16.2691 63.5199Z"
      fill="#1E313F" />
    <path
      d="M16.2691 57.6117C17.5935 57.6117 18.6671 56.5378 18.6671 55.2131C18.6671 53.8884 17.5935 52.8145 16.2691 52.8145C14.9447 52.8145 13.8711 53.8884 13.8711 55.2131C13.8711 56.5378 14.9447 57.6117 16.2691 57.6117Z"
      fill="#1E313F" />
    <path
      d="M16.2691 51.7152C17.5935 51.7152 18.6671 50.6413 18.6671 49.3166C18.6671 47.9919 17.5935 46.918 16.2691 46.918C14.9447 46.918 13.8711 47.9919 13.8711 49.3166C13.8711 50.6413 14.9447 51.7152 16.2691 51.7152Z"
      fill="#1E313F" />
    <path
      d="M16.2691 45.8051C17.5935 45.8051 18.6671 44.7312 18.6671 43.4064C18.6671 42.0817 17.5935 41.0078 16.2691 41.0078C14.9447 41.0078 13.8711 42.0817 13.8711 43.4064C13.8711 44.7312 14.9447 45.8051 16.2691 45.8051Z"
      fill="#1E313F" />
    <path
      d="M16.2691 39.9066C17.5935 39.9066 18.6671 38.8327 18.6671 37.508C18.6671 36.1833 17.5935 35.1094 16.2691 35.1094C14.9447 35.1094 13.8711 36.1833 13.8711 37.508C13.8711 38.8327 14.9447 39.9066 16.2691 39.9066Z"
      fill="#1E313F" />
    <path
      d="M16.2691 34.0101C17.5935 34.0101 18.6671 32.9362 18.6671 31.6115C18.6671 30.2868 17.5935 29.2129 16.2691 29.2129C14.9447 29.2129 13.8711 30.2868 13.8711 31.6115C13.8711 32.9362 14.9447 34.0101 16.2691 34.0101Z"
      fill="#1E313F" />
    <path
      d="M16.2691 28.1019C17.5935 28.1019 18.6671 27.028 18.6671 25.7033C18.6671 24.3786 17.5935 23.3047 16.2691 23.3047C14.9447 23.3047 13.8711 24.3786 13.8711 25.7033C13.8711 27.028 14.9447 28.1019 16.2691 28.1019Z"
      fill="#1E313F" />
    <path
      d="M16.2691 22.2035C17.5935 22.2035 18.6671 21.1296 18.6671 19.8049C18.6671 18.4801 17.5935 17.4062 16.2691 17.4062C14.9447 17.4062 13.8711 18.4801 13.8711 19.8049C13.8711 21.1296 14.9447 22.2035 16.2691 22.2035Z"
      fill="#1E313F" />
    <path
      d="M16.2691 16.3051C17.5935 16.3051 18.6671 15.2312 18.6671 13.9064C18.6671 12.5817 17.5935 11.5078 16.2691 11.5078C14.9447 11.5078 13.8711 12.5817 13.8711 13.9064C13.8711 15.2312 14.9447 16.3051 16.2691 16.3051Z"
      fill="#1E313F" />
    <path
      d="M16.2691 10.3988C17.5935 10.3988 18.6671 9.3249 18.6671 8.00018C18.6671 6.67545 17.5935 5.60156 16.2691 5.60156C14.9447 5.60156 13.8711 6.67545 13.8711 8.00018C13.8711 9.3249 14.9447 10.3988 16.2691 10.3988Z"
      fill="#1E313F" />
    <path
      d="M16.2691 4.50038C17.5935 4.50038 18.6671 3.42647 18.6671 2.10175C18.6671 0.777025 17.5935 -0.296875 16.2691 -0.296875C14.9447 -0.296875 13.8711 0.777025 13.8711 2.10175C13.8711 3.42647 14.9447 4.50038 16.2691 4.50038Z"
      fill="#1E313F" />
    <path
      d="M16.2691 140.231C17.5935 140.231 18.6671 139.157 18.6671 137.832C18.6671 136.507 17.5935 135.434 16.2691 135.434C14.9447 135.434 13.8711 136.507 13.8711 137.832C13.8711 139.157 14.9447 140.231 16.2691 140.231Z"
      fill="#1E313F" />
    <path
      d="M16.2691 134.334C17.5935 134.334 18.6671 133.26 18.6671 131.936C18.6671 130.611 17.5935 129.537 16.2691 129.537C14.9447 129.537 13.8711 130.611 13.8711 131.936C13.8711 133.26 14.9447 134.334 16.2691 134.334Z"
      fill="#1E313F" />
    <path
      d="M16.2691 128.438C17.5935 128.438 18.6671 127.364 18.6671 126.039C18.6671 124.715 17.5935 123.641 16.2691 123.641C14.9447 123.641 13.8711 124.715 13.8711 126.039C13.8711 127.364 14.9447 128.438 16.2691 128.438Z"
      fill="#1E313F" />
    <path
      d="M16.2691 122.528C17.5935 122.528 18.6671 121.454 18.6671 120.129C18.6671 118.804 17.5935 117.73 16.2691 117.73C14.9447 117.73 13.8711 118.804 13.8711 120.129C13.8711 121.454 14.9447 122.528 16.2691 122.528Z"
      fill="#1E313F" />
    <path
      d="M16.2691 116.629C17.5935 116.629 18.6671 115.555 18.6671 114.231C18.6671 112.906 17.5935 111.832 16.2691 111.832C14.9447 111.832 13.8711 112.906 13.8711 114.231C13.8711 115.555 14.9447 116.629 16.2691 116.629Z"
      fill="#1E313F" />
    <path
      d="M16.2691 110.721C17.5935 110.721 18.6671 109.647 18.6671 108.322C18.6671 106.998 17.5935 105.924 16.2691 105.924C14.9447 105.924 13.8711 106.998 13.8711 108.322C13.8711 109.647 14.9447 110.721 16.2691 110.721Z"
      fill="#1E313F" />
    <path
      d="M16.2691 104.825C17.5935 104.825 18.6671 103.751 18.6671 102.426C18.6671 101.101 17.5935 100.027 16.2691 100.027C14.9447 100.027 13.8711 101.101 13.8711 102.426C13.8711 103.751 14.9447 104.825 16.2691 104.825Z"
      fill="#1E313F" />
    <path
      d="M16.2691 98.9262C17.5935 98.9262 18.6671 97.8523 18.6671 96.5275C18.6671 95.2028 17.5935 94.1289 16.2691 94.1289C14.9447 94.1289 13.8711 95.2028 13.8711 96.5275C13.8711 97.8523 14.9447 98.9262 16.2691 98.9262Z"
      fill="#1E313F" />
    <path
      d="M16.2691 93.0179C17.5935 93.0179 18.6671 91.944 18.6671 90.6193C18.6671 89.2946 17.5935 88.2207 16.2691 88.2207C14.9447 88.2207 13.8711 89.2946 13.8711 90.6193C13.8711 91.944 14.9447 93.0179 16.2691 93.0179Z"
      fill="#1E313F" />
    <path
      d="M16.2691 87.1215C17.5935 87.1215 18.6671 86.0476 18.6671 84.7228C18.6671 83.3981 17.5935 82.3242 16.2691 82.3242C14.9447 82.3242 13.8711 83.3981 13.8711 84.7228C13.8711 86.0476 14.9447 87.1215 16.2691 87.1215Z"
      fill="#1E313F" />
    <path
      d="M16.2691 81.223C17.5935 81.223 18.6671 80.1491 18.6671 78.8244C18.6671 77.4997 17.5935 76.4258 16.2691 76.4258C14.9447 76.4258 13.8711 77.4997 13.8711 78.8244C13.8711 80.1491 14.9447 81.223 16.2691 81.223Z"
      fill="#1E313F" />
    <path
      d="M16.2691 75.3148C17.5935 75.3148 18.6671 74.2409 18.6671 72.9162C18.6671 71.5915 17.5935 70.5176 16.2691 70.5176C14.9447 70.5176 13.8711 71.5915 13.8711 72.9162C13.8711 74.2409 14.9447 75.3148 16.2691 75.3148Z"
      fill="#1E313F" />
    <path
      d="M22.6597 69.4183C23.9841 69.4183 25.0578 68.3444 25.0578 67.0197C25.0578 65.695 23.9841 64.6211 22.6597 64.6211C21.3353 64.6211 20.2617 65.695 20.2617 67.0197C20.2617 68.3444 21.3353 69.4183 22.6597 69.4183Z"
      fill="#1E313F" />
    <path
      d="M22.6597 63.5199C23.9841 63.5199 25.0578 62.446 25.0578 61.1213C25.0578 59.7965 23.9841 58.7227 22.6597 58.7227C21.3353 58.7227 20.2617 59.7965 20.2617 61.1213C20.2617 62.446 21.3353 63.5199 22.6597 63.5199Z"
      fill="#1E313F" />
    <path
      d="M22.6597 57.6117C23.9841 57.6117 25.0578 56.5378 25.0578 55.2131C25.0578 53.8884 23.9841 52.8145 22.6597 52.8145C21.3353 52.8145 20.2617 53.8884 20.2617 55.2131C20.2617 56.5378 21.3353 57.6117 22.6597 57.6117Z"
      fill="#1E313F" />
    <path
      d="M22.6597 51.7152C23.9841 51.7152 25.0578 50.6413 25.0578 49.3166C25.0578 47.9919 23.9841 46.918 22.6597 46.918C21.3353 46.918 20.2617 47.9919 20.2617 49.3166C20.2617 50.6413 21.3353 51.7152 22.6597 51.7152Z"
      fill="#1E313F" />
    <path
      d="M22.6597 45.8051C23.9841 45.8051 25.0578 44.7312 25.0578 43.4064C25.0578 42.0817 23.9841 41.0078 22.6597 41.0078C21.3353 41.0078 20.2617 42.0817 20.2617 43.4064C20.2617 44.7312 21.3353 45.8051 22.6597 45.8051Z"
      fill="#1E313F" />
    <path
      d="M22.6597 39.9066C23.9841 39.9066 25.0578 38.8327 25.0578 37.508C25.0578 36.1833 23.9841 35.1094 22.6597 35.1094C21.3353 35.1094 20.2617 36.1833 20.2617 37.508C20.2617 38.8327 21.3353 39.9066 22.6597 39.9066Z"
      fill="#1E313F" />
    <path
      d="M22.6597 34.0101C23.9841 34.0101 25.0578 32.9362 25.0578 31.6115C25.0578 30.2868 23.9841 29.2129 22.6597 29.2129C21.3353 29.2129 20.2617 30.2868 20.2617 31.6115C20.2617 32.9362 21.3353 34.0101 22.6597 34.0101Z"
      fill="#1E313F" />
    <path
      d="M22.6597 28.1019C23.9841 28.1019 25.0578 27.028 25.0578 25.7033C25.0578 24.3786 23.9841 23.3047 22.6597 23.3047C21.3353 23.3047 20.2617 24.3786 20.2617 25.7033C20.2617 27.028 21.3353 28.1019 22.6597 28.1019Z"
      fill="#1E313F" />
    <path
      d="M22.6597 22.2035C23.9841 22.2035 25.0578 21.1296 25.0578 19.8049C25.0578 18.4801 23.9841 17.4062 22.6597 17.4062C21.3353 17.4062 20.2617 18.4801 20.2617 19.8049C20.2617 21.1296 21.3353 22.2035 22.6597 22.2035Z"
      fill="#1E313F" />
    <path
      d="M22.6597 16.3051C23.9841 16.3051 25.0578 15.2312 25.0578 13.9064C25.0578 12.5817 23.9841 11.5078 22.6597 11.5078C21.3353 11.5078 20.2617 12.5817 20.2617 13.9064C20.2617 15.2312 21.3353 16.3051 22.6597 16.3051Z"
      fill="#1E313F" />
    <path
      d="M22.6597 10.3988C23.9841 10.3988 25.0578 9.3249 25.0578 8.00018C25.0578 6.67545 23.9841 5.60156 22.6597 5.60156C21.3353 5.60156 20.2617 6.67545 20.2617 8.00018C20.2617 9.3249 21.3353 10.3988 22.6597 10.3988Z"
      fill="#1E313F" />
    <path
      d="M22.6597 4.50038C23.9841 4.50038 25.0578 3.42647 25.0578 2.10175C25.0578 0.777025 23.9841 -0.296875 22.6597 -0.296875C21.3353 -0.296875 20.2617 0.777025 20.2617 2.10175C20.2617 3.42647 21.3353 4.50038 22.6597 4.50038Z"
      fill="#1E313F" />
    <path
      d="M22.6597 140.231C23.9841 140.231 25.0578 139.157 25.0578 137.832C25.0578 136.507 23.9841 135.434 22.6597 135.434C21.3353 135.434 20.2617 136.507 20.2617 137.832C20.2617 139.157 21.3353 140.231 22.6597 140.231Z"
      fill="#1E313F" />
    <path
      d="M22.6597 134.334C23.9841 134.334 25.0578 133.26 25.0578 131.936C25.0578 130.611 23.9841 129.537 22.6597 129.537C21.3353 129.537 20.2617 130.611 20.2617 131.936C20.2617 133.26 21.3353 134.334 22.6597 134.334Z"
      fill="#1E313F" />
    <path
      d="M22.6597 128.438C23.9841 128.438 25.0578 127.364 25.0578 126.039C25.0578 124.715 23.9841 123.641 22.6597 123.641C21.3353 123.641 20.2617 124.715 20.2617 126.039C20.2617 127.364 21.3353 128.438 22.6597 128.438Z"
      fill="#1E313F" />
    <path
      d="M22.6597 122.528C23.9841 122.528 25.0578 121.454 25.0578 120.129C25.0578 118.804 23.9841 117.73 22.6597 117.73C21.3353 117.73 20.2617 118.804 20.2617 120.129C20.2617 121.454 21.3353 122.528 22.6597 122.528Z"
      fill="#1E313F" />
    <path
      d="M22.6597 116.629C23.9841 116.629 25.0578 115.555 25.0578 114.231C25.0578 112.906 23.9841 111.832 22.6597 111.832C21.3353 111.832 20.2617 112.906 20.2617 114.231C20.2617 115.555 21.3353 116.629 22.6597 116.629Z"
      fill="#1E313F" />
    <path
      d="M22.6597 110.721C23.9841 110.721 25.0578 109.647 25.0578 108.322C25.0578 106.998 23.9841 105.924 22.6597 105.924C21.3353 105.924 20.2617 106.998 20.2617 108.322C20.2617 109.647 21.3353 110.721 22.6597 110.721Z"
      fill="#1E313F" />
    <path
      d="M22.6597 104.825C23.9841 104.825 25.0578 103.751 25.0578 102.426C25.0578 101.101 23.9841 100.027 22.6597 100.027C21.3353 100.027 20.2617 101.101 20.2617 102.426C20.2617 103.751 21.3353 104.825 22.6597 104.825Z"
      fill="#1E313F" />
    <path
      d="M22.6597 98.9262C23.9841 98.9262 25.0578 97.8523 25.0578 96.5275C25.0578 95.2028 23.9841 94.1289 22.6597 94.1289C21.3353 94.1289 20.2617 95.2028 20.2617 96.5275C20.2617 97.8523 21.3353 98.9262 22.6597 98.9262Z"
      fill="#1E313F" />
    <path
      d="M22.6597 93.0179C23.9841 93.0179 25.0578 91.944 25.0578 90.6193C25.0578 89.2946 23.9841 88.2207 22.6597 88.2207C21.3353 88.2207 20.2617 89.2946 20.2617 90.6193C20.2617 91.944 21.3353 93.0179 22.6597 93.0179Z"
      fill="#1E313F" />
    <path
      d="M22.6597 87.1215C23.9841 87.1215 25.0578 86.0476 25.0578 84.7228C25.0578 83.3981 23.9841 82.3242 22.6597 82.3242C21.3353 82.3242 20.2617 83.3981 20.2617 84.7228C20.2617 86.0476 21.3353 87.1215 22.6597 87.1215Z"
      fill="#1E313F" />
    <path
      d="M22.6597 81.223C23.9841 81.223 25.0578 80.1491 25.0578 78.8244C25.0578 77.4997 23.9841 76.4258 22.6597 76.4258C21.3353 76.4258 20.2617 77.4997 20.2617 78.8244C20.2617 80.1491 21.3353 81.223 22.6597 81.223Z"
      fill="#1E313F" />
    <path
      d="M22.6597 75.3148C23.9841 75.3148 25.0578 74.2409 25.0578 72.9162C25.0578 71.5915 23.9841 70.5176 22.6597 70.5176C21.3353 70.5176 20.2617 71.5915 20.2617 72.9162C20.2617 74.2409 21.3353 75.3148 22.6597 75.3148Z"
      fill="#1E313F" />
    <path
      d="M29.0504 69.4183C30.3748 69.4183 31.4484 68.3444 31.4484 67.0197C31.4484 65.695 30.3748 64.6211 29.0504 64.6211C27.726 64.6211 26.6523 65.695 26.6523 67.0197C26.6523 68.3444 27.726 69.4183 29.0504 69.4183Z"
      fill="#1E313F" />
    <path
      d="M29.0504 63.5199C30.3748 63.5199 31.4484 62.446 31.4484 61.1213C31.4484 59.7965 30.3748 58.7227 29.0504 58.7227C27.726 58.7227 26.6523 59.7965 26.6523 61.1213C26.6523 62.446 27.726 63.5199 29.0504 63.5199Z"
      fill="#1E313F" />
    <path
      d="M29.0504 57.6117C30.3748 57.6117 31.4484 56.5378 31.4484 55.2131C31.4484 53.8884 30.3748 52.8145 29.0504 52.8145C27.726 52.8145 26.6523 53.8884 26.6523 55.2131C26.6523 56.5378 27.726 57.6117 29.0504 57.6117Z"
      fill="#1E313F" />
    <path
      d="M29.0504 51.7152C30.3748 51.7152 31.4484 50.6413 31.4484 49.3166C31.4484 47.9919 30.3748 46.918 29.0504 46.918C27.726 46.918 26.6523 47.9919 26.6523 49.3166C26.6523 50.6413 27.726 51.7152 29.0504 51.7152Z"
      fill="#1E313F" />
    <path
      d="M29.0504 45.8051C30.3748 45.8051 31.4484 44.7312 31.4484 43.4064C31.4484 42.0817 30.3748 41.0078 29.0504 41.0078C27.726 41.0078 26.6523 42.0817 26.6523 43.4064C26.6523 44.7312 27.726 45.8051 29.0504 45.8051Z"
      fill="#1E313F" />
    <path
      d="M29.0504 39.9066C30.3748 39.9066 31.4484 38.8327 31.4484 37.508C31.4484 36.1833 30.3748 35.1094 29.0504 35.1094C27.726 35.1094 26.6523 36.1833 26.6523 37.508C26.6523 38.8327 27.726 39.9066 29.0504 39.9066Z"
      fill="#1E313F" />
    <path
      d="M29.0504 34.0101C30.3748 34.0101 31.4484 32.9362 31.4484 31.6115C31.4484 30.2868 30.3748 29.2129 29.0504 29.2129C27.726 29.2129 26.6523 30.2868 26.6523 31.6115C26.6523 32.9362 27.726 34.0101 29.0504 34.0101Z"
      fill="#1E313F" />
    <path
      d="M29.0504 28.1019C30.3748 28.1019 31.4484 27.028 31.4484 25.7033C31.4484 24.3786 30.3748 23.3047 29.0504 23.3047C27.726 23.3047 26.6523 24.3786 26.6523 25.7033C26.6523 27.028 27.726 28.1019 29.0504 28.1019Z"
      fill="#1E313F" />
    <path
      d="M29.0504 22.2035C30.3748 22.2035 31.4484 21.1296 31.4484 19.8049C31.4484 18.4801 30.3748 17.4062 29.0504 17.4062C27.726 17.4062 26.6523 18.4801 26.6523 19.8049C26.6523 21.1296 27.726 22.2035 29.0504 22.2035Z"
      fill="#1E313F" />
    <path
      d="M29.0504 16.3051C30.3748 16.3051 31.4484 15.2312 31.4484 13.9064C31.4484 12.5817 30.3748 11.5078 29.0504 11.5078C27.726 11.5078 26.6523 12.5817 26.6523 13.9064C26.6523 15.2312 27.726 16.3051 29.0504 16.3051Z"
      fill="#1E313F" />
    <path
      d="M29.0504 10.3988C30.3748 10.3988 31.4484 9.3249 31.4484 8.00018C31.4484 6.67545 30.3748 5.60156 29.0504 5.60156C27.726 5.60156 26.6523 6.67545 26.6523 8.00018C26.6523 9.3249 27.726 10.3988 29.0504 10.3988Z"
      fill="#1E313F" />
    <path
      d="M29.0504 4.50038C30.3748 4.50038 31.4484 3.42647 31.4484 2.10175C31.4484 0.777025 30.3748 -0.296875 29.0504 -0.296875C27.726 -0.296875 26.6523 0.777025 26.6523 2.10175C26.6523 3.42647 27.726 4.50038 29.0504 4.50038Z"
      fill="#1E313F" />
    <path
      d="M29.0504 140.231C30.3748 140.231 31.4484 139.157 31.4484 137.832C31.4484 136.507 30.3748 135.434 29.0504 135.434C27.726 135.434 26.6523 136.507 26.6523 137.832C26.6523 139.157 27.726 140.231 29.0504 140.231Z"
      fill="#1E313F" />
    <path
      d="M29.0504 134.334C30.3748 134.334 31.4484 133.26 31.4484 131.936C31.4484 130.611 30.3748 129.537 29.0504 129.537C27.726 129.537 26.6523 130.611 26.6523 131.936C26.6523 133.26 27.726 134.334 29.0504 134.334Z"
      fill="#1E313F" />
    <path
      d="M29.0504 128.438C30.3748 128.438 31.4484 127.364 31.4484 126.039C31.4484 124.715 30.3748 123.641 29.0504 123.641C27.726 123.641 26.6523 124.715 26.6523 126.039C26.6523 127.364 27.726 128.438 29.0504 128.438Z"
      fill="#1E313F" />
    <path
      d="M29.0504 122.528C30.3748 122.528 31.4484 121.454 31.4484 120.129C31.4484 118.804 30.3748 117.73 29.0504 117.73C27.726 117.73 26.6523 118.804 26.6523 120.129C26.6523 121.454 27.726 122.528 29.0504 122.528Z"
      fill="#1E313F" />
    <path
      d="M29.0504 116.629C30.3748 116.629 31.4484 115.555 31.4484 114.231C31.4484 112.906 30.3748 111.832 29.0504 111.832C27.726 111.832 26.6523 112.906 26.6523 114.231C26.6523 115.555 27.726 116.629 29.0504 116.629Z"
      fill="#1E313F" />
    <path
      d="M29.0504 110.721C30.3748 110.721 31.4484 109.647 31.4484 108.322C31.4484 106.998 30.3748 105.924 29.0504 105.924C27.726 105.924 26.6523 106.998 26.6523 108.322C26.6523 109.647 27.726 110.721 29.0504 110.721Z"
      fill="#1E313F" />
    <path
      d="M29.0504 104.825C30.3748 104.825 31.4484 103.751 31.4484 102.426C31.4484 101.101 30.3748 100.027 29.0504 100.027C27.726 100.027 26.6523 101.101 26.6523 102.426C26.6523 103.751 27.726 104.825 29.0504 104.825Z"
      fill="#1E313F" />
    <path
      d="M29.0504 98.9262C30.3748 98.9262 31.4484 97.8523 31.4484 96.5275C31.4484 95.2028 30.3748 94.1289 29.0504 94.1289C27.726 94.1289 26.6523 95.2028 26.6523 96.5275C26.6523 97.8523 27.726 98.9262 29.0504 98.9262Z"
      fill="#1E313F" />
    <path
      d="M29.0504 93.0179C30.3748 93.0179 31.4484 91.944 31.4484 90.6193C31.4484 89.2946 30.3748 88.2207 29.0504 88.2207C27.726 88.2207 26.6523 89.2946 26.6523 90.6193C26.6523 91.944 27.726 93.0179 29.0504 93.0179Z"
      fill="#1E313F" />
    <path
      d="M29.0504 87.1215C30.3748 87.1215 31.4484 86.0476 31.4484 84.7228C31.4484 83.3981 30.3748 82.3242 29.0504 82.3242C27.726 82.3242 26.6523 83.3981 26.6523 84.7228C26.6523 86.0476 27.726 87.1215 29.0504 87.1215Z"
      fill="#1E313F" />
    <path
      d="M29.0504 81.223C30.3748 81.223 31.4484 80.1491 31.4484 78.8244C31.4484 77.4997 30.3748 76.4258 29.0504 76.4258C27.726 76.4258 26.6523 77.4997 26.6523 78.8244C26.6523 80.1491 27.726 81.223 29.0504 81.223Z"
      fill="#1E313F" />
    <path
      d="M29.0504 75.3148C30.3748 75.3148 31.4484 74.2409 31.4484 72.9162C31.4484 71.5915 30.3748 70.5176 29.0504 70.5176C27.726 70.5176 26.6523 71.5915 26.6523 72.9162C26.6523 74.2409 27.726 75.3148 29.0504 75.3148Z"
      fill="#1E313F" />
  </g>
</svg>