<svg viewBox="0 0 133 133" fill="none" xmlns="http://www.w3.org/2000/svg">
  <path
    d="M19.4629 19.4668C45.4121 -6.48893 87.4655 -6.48893 113.415 19.4668C139.364 45.4226 139.364 87.4865 113.415 113.442"
    fill="#1E313F" />
  <mask id="mask0_218_12113" style="mask-type:luminance" maskUnits="userSpaceOnUse" x="0" y="19"
    width="114" height="114">
    <path
      d="M113.414 113.442C87.4645 139.398 45.4111 139.398 19.4619 113.442C-6.4873 87.4865 -6.4873 45.4225 19.4619 19.4668L113.414 113.442Z"
      fill="white" />
  </mask>
  <g mask="url(#mask0_218_12113)">
    <path
      d="M113.611 68.8051C114.935 68.8051 116.009 67.7312 116.009 66.4064C116.009 65.0817 114.935 64.0078 113.611 64.0078C112.287 64.0078 111.213 65.0817 111.213 66.4064C111.213 67.7312 112.287 68.8051 113.611 68.8051Z"
      fill="#1E313F" />
    <path
      d="M113.611 62.9066C114.935 62.9066 116.009 61.8327 116.009 60.508C116.009 59.1833 114.935 58.1094 113.611 58.1094C112.287 58.1094 111.213 59.1833 111.213 60.508C111.213 61.8327 112.287 62.9066 113.611 62.9066Z"
      fill="#1E313F" />
    <path
      d="M113.611 56.9984C114.935 56.9984 116.009 55.9245 116.009 54.5998C116.009 53.2751 114.935 52.2012 113.611 52.2012C112.287 52.2012 111.213 53.2751 111.213 54.5998C111.213 55.9245 112.287 56.9984 113.611 56.9984Z"
      fill="#1E313F" />
    <path
      d="M113.611 51.1019C114.935 51.1019 116.009 50.028 116.009 48.7033C116.009 47.3786 114.935 46.3047 113.611 46.3047C112.287 46.3047 111.213 47.3786 111.213 48.7033C111.213 50.028 112.287 51.1019 113.611 51.1019Z"
      fill="#1E313F" />
    <path
      d="M113.611 45.2035C114.935 45.2035 116.009 44.1296 116.009 42.8049C116.009 41.4802 114.935 40.4062 113.611 40.4062C112.287 40.4062 111.213 41.4802 111.213 42.8049C111.213 44.1296 112.287 45.2035 113.611 45.2035Z"
      fill="#1E313F" />
    <path
      d="M113.611 39.2933C114.935 39.2933 116.009 38.2194 116.009 36.8947C116.009 35.57 114.935 34.4961 113.611 34.4961C112.287 34.4961 111.213 35.57 111.213 36.8947C111.213 38.2194 112.287 39.2933 113.611 39.2933Z"
      fill="#1E313F" />
    <path
      d="M113.611 33.3969C114.935 33.3969 116.009 32.323 116.009 30.9982C116.009 29.6735 114.935 28.5996 113.611 28.5996C112.287 28.5996 111.213 29.6735 111.213 30.9982C111.213 32.323 112.287 33.3969 113.611 33.3969Z"
      fill="#1E313F" />
    <path
      d="M113.611 27.4886C114.935 27.4886 116.009 26.4147 116.009 25.09C116.009 23.7653 114.935 22.6914 113.611 22.6914C112.287 22.6914 111.213 23.7653 111.213 25.09C111.213 26.4147 112.287 27.4886 113.611 27.4886Z"
      fill="#1E313F" />
    <path
      d="M111.213 19.1916C111.213 17.8712 112.291 16.793 113.611 16.793C114.931 16.793 116.009 17.8712 116.009 19.1916C116.009 20.5119 114.931 21.5902 113.611 21.5902C112.291 21.5902 111.213 20.5119 111.213 19.1916Z"
      fill="#1E313F" />
    <path
      d="M113.611 133.721C114.935 133.721 116.009 132.647 116.009 131.322C116.009 129.998 114.935 128.924 113.611 128.924C112.287 128.924 111.213 129.998 111.213 131.322C111.213 132.647 112.287 133.721 113.611 133.721Z"
      fill="#1E313F" />
    <path
      d="M113.611 127.825C114.935 127.825 116.009 126.751 116.009 125.426C116.009 124.101 114.935 123.027 113.611 123.027C112.287 123.027 111.213 124.101 111.213 125.426C111.213 126.751 112.287 127.825 113.611 127.825Z"
      fill="#1E313F" />
    <path
      d="M113.611 121.914C114.935 121.914 116.009 120.841 116.009 119.516C116.009 118.191 114.935 117.117 113.611 117.117C112.287 117.117 111.213 118.191 111.213 119.516C111.213 120.841 112.287 121.914 113.611 121.914Z"
      fill="#1E313F" />
    <path
      d="M113.611 116.016C114.935 116.016 116.009 114.942 116.009 113.617C116.009 112.293 114.935 111.219 113.611 111.219C112.287 111.219 111.213 112.293 111.213 113.617C111.213 114.942 112.287 116.016 113.611 116.016Z"
      fill="#1E313F" />
    <path
      d="M111.213 107.721C111.213 106.401 112.291 105.322 113.611 105.322C114.931 105.322 116.009 106.401 116.009 107.721C116.009 109.041 114.931 110.12 113.611 110.12C112.291 110.12 111.213 109.041 111.213 107.721Z"
      fill="#1E313F" />
    <path
      d="M113.611 104.211C114.935 104.211 116.009 103.137 116.009 101.813C116.009 100.488 114.935 99.4141 113.611 99.4141C112.287 99.4141 111.213 100.488 111.213 101.813C111.213 103.137 112.287 104.211 113.611 104.211Z"
      fill="#1E313F" />
    <path
      d="M111.213 95.9143C111.213 94.5939 112.291 93.5156 113.611 93.5156C114.931 93.5156 116.009 94.5939 116.009 95.9143C116.009 97.2346 114.931 98.3129 113.611 98.3129C112.291 98.3129 111.213 97.2346 111.213 95.9143Z"
      fill="#1E313F" />
    <path
      d="M113.611 92.4047C114.935 92.4047 116.009 91.3308 116.009 90.006C116.009 88.6813 114.935 87.6074 113.611 87.6074C112.287 87.6074 111.213 88.6813 111.213 90.006C111.213 91.3308 112.287 92.4047 113.611 92.4047Z"
      fill="#1E313F" />
    <path
      d="M111.213 84.1096C111.213 82.7892 112.291 81.7109 113.611 81.7109C114.931 81.7109 116.009 82.7892 116.009 84.1096C116.009 85.4299 114.931 86.5082 113.611 86.5082C112.291 86.5082 111.213 85.4299 111.213 84.1096Z"
      fill="#1E313F" />
    <path
      d="M111.213 78.2111C111.213 76.8908 112.291 75.8125 113.611 75.8125C114.931 75.8125 116.009 76.8908 116.009 78.2111C116.009 79.5315 114.931 80.6097 113.611 80.6097C112.291 80.6097 111.213 79.5315 111.213 78.2111Z"
      fill="#1E313F" />
    <path
      d="M113.611 74.7015C114.935 74.7015 116.009 73.6276 116.009 72.3029C116.009 70.9782 114.935 69.9043 113.611 69.9043C112.287 69.9043 111.213 70.9782 111.213 72.3029C111.213 73.6276 112.287 74.7015 113.611 74.7015Z"
      fill="#1E313F" />
    <path
      d="M88.0347 68.8051C89.3591 68.8051 90.4327 67.7312 90.4327 66.4064C90.4327 65.0817 89.3591 64.0078 88.0347 64.0078C86.7103 64.0078 85.6367 65.0817 85.6367 66.4064C85.6367 67.7312 86.7103 68.8051 88.0347 68.8051Z"
      fill="#1E313F" />
    <path
      d="M88.0347 62.9066C89.3591 62.9066 90.4327 61.8327 90.4327 60.508C90.4327 59.1833 89.3591 58.1094 88.0347 58.1094C86.7103 58.1094 85.6367 59.1833 85.6367 60.508C85.6367 61.8327 86.7103 62.9066 88.0347 62.9066Z"
      fill="#1E313F" />
    <path
      d="M85.6367 54.5998C85.6367 53.2795 86.7147 52.2012 88.0347 52.2012C89.3547 52.2012 90.4327 53.2795 90.4327 54.5998C90.4327 55.9201 89.3547 56.9984 88.0347 56.9984C86.7147 56.9984 85.6367 55.9201 85.6367 54.5998Z"
      fill="#1E313F" />
    <path
      d="M85.6367 48.7033C85.6367 47.383 86.7147 46.3047 88.0347 46.3047C89.3547 46.3047 90.4327 47.383 90.4327 48.7033C90.4327 50.0237 89.3547 51.1019 88.0347 51.1019C86.7147 51.1019 85.6367 50.0237 85.6367 48.7033Z"
      fill="#1E313F" />
    <path
      d="M85.6367 42.8049C85.6367 41.4845 86.7147 40.4062 88.0347 40.4062C89.3547 40.4062 90.4327 41.4845 90.4327 42.8049C90.4327 44.1252 89.3547 45.2035 88.0347 45.2035C86.7147 45.2035 85.6367 44.1252 85.6367 42.8049Z"
      fill="#1E313F" />
    <path
      d="M88.0347 39.2933C89.3591 39.2933 90.4327 38.2194 90.4327 36.8947C90.4327 35.57 89.3591 34.4961 88.0347 34.4961C86.7103 34.4961 85.6367 35.57 85.6367 36.8947C85.6367 38.2194 86.7103 39.2933 88.0347 39.2933Z"
      fill="#1E313F" />
    <path
      d="M88.0347 33.3969C89.3591 33.3969 90.4327 32.323 90.4327 30.9982C90.4327 29.6735 89.3591 28.5996 88.0347 28.5996C86.7103 28.5996 85.6367 29.6735 85.6367 30.9982C85.6367 32.323 86.7103 33.3969 88.0347 33.3969Z"
      fill="#1E313F" />
    <path
      d="M88.0347 27.4886C89.3591 27.4886 90.4327 26.4147 90.4327 25.09C90.4327 23.7653 89.3591 22.6914 88.0347 22.6914C86.7103 22.6914 85.6367 23.7653 85.6367 25.09C85.6367 26.4147 86.7103 27.4886 88.0347 27.4886Z"
      fill="#1E313F" />
    <path
      d="M88.0347 21.5902C89.3591 21.5902 90.4327 20.5163 90.4327 19.1916C90.4327 17.8669 89.3591 16.793 88.0347 16.793C86.7103 16.793 85.6367 17.8669 85.6367 19.1916C85.6367 20.5163 86.7103 21.5902 88.0347 21.5902Z"
      fill="#1E313F" />
    <path
      d="M88.0347 133.721C89.3591 133.721 90.4327 132.647 90.4327 131.322C90.4327 129.998 89.3591 128.924 88.0347 128.924C86.7103 128.924 85.6367 129.998 85.6367 131.322C85.6367 132.647 86.7103 133.721 88.0347 133.721Z"
      fill="#1E313F" />
    <path
      d="M88.0347 127.825C89.3591 127.825 90.4327 126.751 90.4327 125.426C90.4327 124.101 89.3591 123.027 88.0347 123.027C86.7103 123.027 85.6367 124.101 85.6367 125.426C85.6367 126.751 86.7103 127.825 88.0347 127.825Z"
      fill="#1E313F" />
    <path
      d="M88.0347 121.914C89.3591 121.914 90.4327 120.841 90.4327 119.516C90.4327 118.191 89.3591 117.117 88.0347 117.117C86.7103 117.117 85.6367 118.191 85.6367 119.516C85.6367 120.841 86.7103 121.914 88.0347 121.914Z"
      fill="#1E313F" />
    <path
      d="M88.0347 116.016C89.3591 116.016 90.4327 114.942 90.4327 113.617C90.4327 112.293 89.3591 111.219 88.0347 111.219C86.7103 111.219 85.6367 112.293 85.6367 113.617C85.6367 114.942 86.7103 116.016 88.0347 116.016Z"
      fill="#1E313F" />
    <path
      d="M88.0347 110.12C89.3591 110.12 90.4327 109.046 90.4327 107.721C90.4327 106.396 89.3591 105.322 88.0347 105.322C86.7103 105.322 85.6367 106.396 85.6367 107.721C85.6367 109.046 86.7103 110.12 88.0347 110.12Z"
      fill="#1E313F" />
    <path
      d="M88.0347 104.211C89.3591 104.211 90.4327 103.137 90.4327 101.813C90.4327 100.488 89.3591 99.4141 88.0347 99.4141C86.7103 99.4141 85.6367 100.488 85.6367 101.813C85.6367 103.137 86.7103 104.211 88.0347 104.211Z"
      fill="#1E313F" />
    <path
      d="M88.0347 98.3129C89.3591 98.3129 90.4327 97.239 90.4327 95.9143C90.4327 94.5895 89.3591 93.5156 88.0347 93.5156C86.7103 93.5156 85.6367 94.5895 85.6367 95.9143C85.6367 97.239 86.7103 98.3129 88.0347 98.3129Z"
      fill="#1E313F" />
    <path
      d="M88.0347 92.4047C89.3591 92.4047 90.4327 91.3308 90.4327 90.006C90.4327 88.6813 89.3591 87.6074 88.0347 87.6074C86.7103 87.6074 85.6367 88.6813 85.6367 90.006C85.6367 91.3308 86.7103 92.4047 88.0347 92.4047Z"
      fill="#1E313F" />
    <path
      d="M88.0347 86.5082C89.3591 86.5082 90.4327 85.4343 90.4327 84.1096C90.4327 82.7848 89.3591 81.7109 88.0347 81.7109C86.7103 81.7109 85.6367 82.7848 85.6367 84.1096C85.6367 85.4343 86.7103 86.5082 88.0347 86.5082Z"
      fill="#1E313F" />
    <path
      d="M88.0347 80.6097C89.3591 80.6097 90.4327 79.5358 90.4327 78.2111C90.4327 76.8864 89.3591 75.8125 88.0347 75.8125C86.7103 75.8125 85.6367 76.8864 85.6367 78.2111C85.6367 79.5358 86.7103 80.6097 88.0347 80.6097Z"
      fill="#1E313F" />
    <path
      d="M88.0347 74.7015C89.3591 74.7015 90.4327 73.6276 90.4327 72.3029C90.4327 70.9782 89.3591 69.9043 88.0347 69.9043C86.7103 69.9043 85.6367 70.9782 85.6367 72.3029C85.6367 73.6276 86.7103 74.7015 88.0347 74.7015Z"
      fill="#1E313F" />
    <path
      d="M92.0273 66.4064C92.0273 65.0861 93.1053 64.0078 94.4254 64.0078C95.7454 64.0078 96.8234 65.0861 96.8234 66.4064C96.8234 67.7268 95.7454 68.8051 94.4254 68.8051C93.1053 68.8051 92.0273 67.7268 92.0273 66.4064Z"
      fill="#1E313F" />
    <path
      d="M94.4254 62.9066C95.7497 62.9066 96.8234 61.8327 96.8234 60.508C96.8234 59.1833 95.7497 58.1094 94.4254 58.1094C93.101 58.1094 92.0273 59.1833 92.0273 60.508C92.0273 61.8327 93.101 62.9066 94.4254 62.9066Z"
      fill="#1E313F" />
    <path
      d="M94.4254 56.9984C95.7497 56.9984 96.8234 55.9245 96.8234 54.5998C96.8234 53.2751 95.7497 52.2012 94.4254 52.2012C93.101 52.2012 92.0273 53.2751 92.0273 54.5998C92.0273 55.9245 93.101 56.9984 94.4254 56.9984Z"
      fill="#1E313F" />
    <path
      d="M94.4254 51.1019C95.7497 51.1019 96.8234 50.028 96.8234 48.7033C96.8234 47.3786 95.7497 46.3047 94.4254 46.3047C93.101 46.3047 92.0273 47.3786 92.0273 48.7033C92.0273 50.028 93.101 51.1019 94.4254 51.1019Z"
      fill="#1E313F" />
    <path
      d="M94.4254 45.2035C95.7497 45.2035 96.8234 44.1296 96.8234 42.8049C96.8234 41.4802 95.7497 40.4062 94.4254 40.4062C93.101 40.4062 92.0273 41.4802 92.0273 42.8049C92.0273 44.1296 93.101 45.2035 94.4254 45.2035Z"
      fill="#1E313F" />
    <path
      d="M92.0273 36.8947C92.0273 35.5744 93.1053 34.4961 94.4254 34.4961C95.7454 34.4961 96.8234 35.5744 96.8234 36.8947C96.8234 38.2151 95.7454 39.2933 94.4254 39.2933C93.1053 39.2933 92.0273 38.2151 92.0273 36.8947Z"
      fill="#1E313F" />
    <path
      d="M92.0273 30.9982C92.0273 29.6779 93.1053 28.5996 94.4254 28.5996C95.7454 28.5996 96.8234 29.6779 96.8234 30.9982C96.8234 32.3186 95.7454 33.3969 94.4254 33.3969C93.1053 33.3969 92.0273 32.3186 92.0273 30.9982Z"
      fill="#1E313F" />
    <path
      d="M92.0273 25.09C92.0273 23.7697 93.1053 22.6914 94.4254 22.6914C95.7454 22.6914 96.8234 23.7697 96.8234 25.09C96.8234 26.4104 95.7454 27.4886 94.4254 27.4886C93.1053 27.4886 92.0273 26.4104 92.0273 25.09Z"
      fill="#1E313F" />
    <path
      d="M92.0273 19.1916C92.0273 17.8712 93.1053 16.793 94.4254 16.793C95.7454 16.793 96.8234 17.8712 96.8234 19.1916C96.8234 20.5119 95.7454 21.5902 94.4254 21.5902C93.1053 21.5902 92.0273 20.5119 92.0273 19.1916Z"
      fill="#1E313F" />
    <path
      d="M92.0273 131.322C92.0273 130.002 93.1053 128.924 94.4254 128.924C95.7454 128.924 96.8234 130.002 96.8234 131.322C96.8234 132.643 95.7454 133.721 94.4254 133.721C93.1053 133.721 92.0273 132.643 92.0273 131.322Z"
      fill="#1E313F" />
    <path
      d="M94.4254 127.825C95.7497 127.825 96.8234 126.751 96.8234 125.426C96.8234 124.101 95.7497 123.027 94.4254 123.027C93.101 123.027 92.0273 124.101 92.0273 125.426C92.0273 126.751 93.101 127.825 94.4254 127.825Z"
      fill="#1E313F" />
    <path
      d="M94.4254 121.914C95.7497 121.914 96.8234 120.841 96.8234 119.516C96.8234 118.191 95.7497 117.117 94.4254 117.117C93.101 117.117 92.0273 118.191 92.0273 119.516C92.0273 120.841 93.101 121.914 94.4254 121.914Z"
      fill="#1E313F" />
    <path
      d="M94.4254 116.016C95.7497 116.016 96.8234 114.942 96.8234 113.617C96.8234 112.293 95.7497 111.219 94.4254 111.219C93.101 111.219 92.0273 112.293 92.0273 113.617C92.0273 114.942 93.101 116.016 94.4254 116.016Z"
      fill="#1E313F" />
    <path
      d="M94.4254 110.12C95.7497 110.12 96.8234 109.046 96.8234 107.721C96.8234 106.396 95.7497 105.322 94.4254 105.322C93.101 105.322 92.0273 106.396 92.0273 107.721C92.0273 109.046 93.101 110.12 94.4254 110.12Z"
      fill="#1E313F" />
    <path
      d="M94.4254 104.211C95.7497 104.211 96.8234 103.137 96.8234 101.813C96.8234 100.488 95.7497 99.4141 94.4254 99.4141C93.101 99.4141 92.0273 100.488 92.0273 101.813C92.0273 103.137 93.101 104.211 94.4254 104.211Z"
      fill="#1E313F" />
    <path
      d="M92.0273 95.9143C92.0273 94.5939 93.1053 93.5156 94.4254 93.5156C95.7454 93.5156 96.8234 94.5939 96.8234 95.9143C96.8234 97.2346 95.7454 98.3129 94.4254 98.3129C93.1053 98.3129 92.0273 97.2346 92.0273 95.9143Z"
      fill="#1E313F" />
    <path
      d="M92.0273 90.006C92.0273 88.6857 93.1053 87.6074 94.4254 87.6074C95.7454 87.6074 96.8234 88.6857 96.8234 90.006C96.8234 91.3264 95.7454 92.4047 94.4254 92.4047C93.1053 92.4047 92.0273 91.3264 92.0273 90.006Z"
      fill="#1E313F" />
    <path
      d="M92.0273 84.1096C92.0273 82.7892 93.1053 81.7109 94.4254 81.7109C95.7454 81.7109 96.8234 82.7892 96.8234 84.1096C96.8234 85.4299 95.7454 86.5082 94.4254 86.5082C93.1053 86.5082 92.0273 85.4299 92.0273 84.1096Z"
      fill="#1E313F" />
    <path
      d="M92.0273 78.2111C92.0273 76.8908 93.1053 75.8125 94.4254 75.8125C95.7454 75.8125 96.8234 76.8908 96.8234 78.2111C96.8234 79.5315 95.7454 80.6097 94.4254 80.6097C93.1053 80.6097 92.0273 79.5315 92.0273 78.2111Z"
      fill="#1E313F" />
    <path
      d="M92.0273 72.3029C92.0273 70.9826 93.1053 69.9043 94.4254 69.9043C95.7454 69.9043 96.8234 70.9826 96.8234 72.3029C96.8234 73.6233 95.7454 74.7015 94.4254 74.7015C93.1053 74.7015 92.0273 73.6233 92.0273 72.3029Z"
      fill="#1E313F" />
    <path
      d="M100.818 68.8051C102.142 68.8051 103.216 67.7312 103.216 66.4064C103.216 65.0817 102.142 64.0078 100.818 64.0078C99.4935 64.0078 98.4199 65.0817 98.4199 66.4064C98.4199 67.7312 99.4935 68.8051 100.818 68.8051Z"
      fill="#1E313F" />
    <path
      d="M100.818 62.9066C102.142 62.9066 103.216 61.8327 103.216 60.508C103.216 59.1833 102.142 58.1094 100.818 58.1094C99.4935 58.1094 98.4199 59.1833 98.4199 60.508C98.4199 61.8327 99.4935 62.9066 100.818 62.9066Z"
      fill="#1E313F" />
    <path
      d="M98.4199 54.5998C98.4199 53.2795 99.4979 52.2012 100.818 52.2012C102.138 52.2012 103.216 53.2795 103.216 54.5998C103.216 55.9201 102.138 56.9984 100.818 56.9984C99.4979 56.9984 98.4199 55.9201 98.4199 54.5998Z"
      fill="#1E313F" />
    <path
      d="M100.818 51.1019C102.142 51.1019 103.216 50.028 103.216 48.7033C103.216 47.3786 102.142 46.3047 100.818 46.3047C99.4935 46.3047 98.4199 47.3786 98.4199 48.7033C98.4199 50.028 99.4935 51.1019 100.818 51.1019Z"
      fill="#1E313F" />
    <path
      d="M100.818 45.2035C102.142 45.2035 103.216 44.1296 103.216 42.8049C103.216 41.4802 102.142 40.4062 100.818 40.4062C99.4935 40.4062 98.4199 41.4802 98.4199 42.8049C98.4199 44.1296 99.4935 45.2035 100.818 45.2035Z"
      fill="#1E313F" />
    <path
      d="M100.818 39.2933C102.142 39.2933 103.216 38.2194 103.216 36.8947C103.216 35.57 102.142 34.4961 100.818 34.4961C99.4935 34.4961 98.4199 35.57 98.4199 36.8947C98.4199 38.2194 99.4935 39.2933 100.818 39.2933Z"
      fill="#1E313F" />
    <path
      d="M100.818 33.3969C102.142 33.3969 103.216 32.323 103.216 30.9982C103.216 29.6735 102.142 28.5996 100.818 28.5996C99.4935 28.5996 98.4199 29.6735 98.4199 30.9982C98.4199 32.323 99.4935 33.3969 100.818 33.3969Z"
      fill="#1E313F" />
    <path
      d="M100.818 27.4886C102.142 27.4886 103.216 26.4147 103.216 25.09C103.216 23.7653 102.142 22.6914 100.818 22.6914C99.4935 22.6914 98.4199 23.7653 98.4199 25.09C98.4199 26.4147 99.4935 27.4886 100.818 27.4886Z"
      fill="#1E313F" />
    <path
      d="M100.818 21.5902C102.142 21.5902 103.216 20.5163 103.216 19.1916C103.216 17.8669 102.142 16.793 100.818 16.793C99.4935 16.793 98.4199 17.8669 98.4199 19.1916C98.4199 20.5163 99.4935 21.5902 100.818 21.5902Z"
      fill="#1E313F" />
    <path
      d="M100.818 133.721C102.142 133.721 103.216 132.647 103.216 131.322C103.216 129.998 102.142 128.924 100.818 128.924C99.4935 128.924 98.4199 129.998 98.4199 131.322C98.4199 132.647 99.4935 133.721 100.818 133.721Z"
      fill="#1E313F" />
    <path
      d="M100.818 127.825C102.142 127.825 103.216 126.751 103.216 125.426C103.216 124.101 102.142 123.027 100.818 123.027C99.4935 123.027 98.4199 124.101 98.4199 125.426C98.4199 126.751 99.4935 127.825 100.818 127.825Z"
      fill="#1E313F" />
    <path
      d="M100.818 121.914C102.142 121.914 103.216 120.841 103.216 119.516C103.216 118.191 102.142 117.117 100.818 117.117C99.4935 117.117 98.4199 118.191 98.4199 119.516C98.4199 120.841 99.4935 121.914 100.818 121.914Z"
      fill="#1E313F" />
    <path
      d="M100.818 116.016C102.142 116.016 103.216 114.942 103.216 113.617C103.216 112.293 102.142 111.219 100.818 111.219C99.4935 111.219 98.4199 112.293 98.4199 113.617C98.4199 114.942 99.4935 116.016 100.818 116.016Z"
      fill="#1E313F" />
    <path
      d="M100.818 110.12C102.142 110.12 103.216 109.046 103.216 107.721C103.216 106.396 102.142 105.322 100.818 105.322C99.4935 105.322 98.4199 106.396 98.4199 107.721C98.4199 109.046 99.4935 110.12 100.818 110.12Z"
      fill="#1E313F" />
    <path
      d="M100.818 104.211C102.142 104.211 103.216 103.137 103.216 101.813C103.216 100.488 102.142 99.4141 100.818 99.4141C99.4935 99.4141 98.4199 100.488 98.4199 101.813C98.4199 103.137 99.4935 104.211 100.818 104.211Z"
      fill="#1E313F" />
    <path
      d="M100.818 98.3129C102.142 98.3129 103.216 97.239 103.216 95.9143C103.216 94.5895 102.142 93.5156 100.818 93.5156C99.4935 93.5156 98.4199 94.5895 98.4199 95.9143C98.4199 97.239 99.4935 98.3129 100.818 98.3129Z"
      fill="#1E313F" />
    <path
      d="M100.818 92.4047C102.142 92.4047 103.216 91.3308 103.216 90.006C103.216 88.6813 102.142 87.6074 100.818 87.6074C99.4935 87.6074 98.4199 88.6813 98.4199 90.006C98.4199 91.3308 99.4935 92.4047 100.818 92.4047Z"
      fill="#1E313F" />
    <path
      d="M100.818 86.5082C102.142 86.5082 103.216 85.4343 103.216 84.1096C103.216 82.7848 102.142 81.7109 100.818 81.7109C99.4935 81.7109 98.4199 82.7848 98.4199 84.1096C98.4199 85.4343 99.4935 86.5082 100.818 86.5082Z"
      fill="#1E313F" />
    <path
      d="M100.818 80.6097C102.142 80.6097 103.216 79.5358 103.216 78.2111C103.216 76.8864 102.142 75.8125 100.818 75.8125C99.4935 75.8125 98.4199 76.8864 98.4199 78.2111C98.4199 79.5358 99.4935 80.6097 100.818 80.6097Z"
      fill="#1E313F" />
    <path
      d="M100.818 74.7015C102.142 74.7015 103.216 73.6276 103.216 72.3029C103.216 70.9782 102.142 69.9043 100.818 69.9043C99.4935 69.9043 98.4199 70.9782 98.4199 72.3029C98.4199 73.6276 99.4935 74.7015 100.818 74.7015Z"
      fill="#1E313F" />
    <path
      d="M104.811 66.4064C104.811 65.0861 105.889 64.0078 107.209 64.0078C108.529 64.0078 109.607 65.0861 109.607 66.4064C109.607 67.7268 108.529 68.8051 107.209 68.8051C105.889 68.8051 104.811 67.7268 104.811 66.4064Z"
      fill="#1E313F" />
    <path
      d="M107.209 62.9066C108.533 62.9066 109.607 61.8327 109.607 60.508C109.607 59.1833 108.533 58.1094 107.209 58.1094C105.884 58.1094 104.811 59.1833 104.811 60.508C104.811 61.8327 105.884 62.9066 107.209 62.9066Z"
      fill="#1E313F" />
    <path
      d="M107.209 56.9984C108.533 56.9984 109.607 55.9245 109.607 54.5998C109.607 53.2751 108.533 52.2012 107.209 52.2012C105.884 52.2012 104.811 53.2751 104.811 54.5998C104.811 55.9245 105.884 56.9984 107.209 56.9984Z"
      fill="#1E313F" />
    <path
      d="M107.209 51.1019C108.533 51.1019 109.607 50.028 109.607 48.7033C109.607 47.3786 108.533 46.3047 107.209 46.3047C105.884 46.3047 104.811 47.3786 104.811 48.7033C104.811 50.028 105.884 51.1019 107.209 51.1019Z"
      fill="#1E313F" />
    <path
      d="M107.209 45.2035C108.533 45.2035 109.607 44.1296 109.607 42.8049C109.607 41.4802 108.533 40.4062 107.209 40.4062C105.884 40.4062 104.811 41.4802 104.811 42.8049C104.811 44.1296 105.884 45.2035 107.209 45.2035Z"
      fill="#1E313F" />
    <path
      d="M107.209 39.2933C108.533 39.2933 109.607 38.2194 109.607 36.8947C109.607 35.57 108.533 34.4961 107.209 34.4961C105.884 34.4961 104.811 35.57 104.811 36.8947C104.811 38.2194 105.884 39.2933 107.209 39.2933Z"
      fill="#1E313F" />
    <path
      d="M107.209 33.3969C108.533 33.3969 109.607 32.323 109.607 30.9982C109.607 29.6735 108.533 28.5996 107.209 28.5996C105.884 28.5996 104.811 29.6735 104.811 30.9982C104.811 32.323 105.884 33.3969 107.209 33.3969Z"
      fill="#1E313F" />
    <path
      d="M107.209 27.4886C108.533 27.4886 109.607 26.4147 109.607 25.09C109.607 23.7653 108.533 22.6914 107.209 22.6914C105.884 22.6914 104.811 23.7653 104.811 25.09C104.811 26.4147 105.884 27.4886 107.209 27.4886Z"
      fill="#1E313F" />
    <path
      d="M107.209 21.5902C108.533 21.5902 109.607 20.5163 109.607 19.1916C109.607 17.8669 108.533 16.793 107.209 16.793C105.884 16.793 104.811 17.8669 104.811 19.1916C104.811 20.5163 105.884 21.5902 107.209 21.5902Z"
      fill="#1E313F" />
    <path
      d="M104.811 131.322C104.811 130.002 105.889 128.924 107.209 128.924C108.529 128.924 109.607 130.002 109.607 131.322C109.607 132.643 108.529 133.721 107.209 133.721C105.889 133.721 104.811 132.643 104.811 131.322Z"
      fill="#1E313F" />
    <path
      d="M107.209 127.825C108.533 127.825 109.607 126.751 109.607 125.426C109.607 124.101 108.533 123.027 107.209 123.027C105.884 123.027 104.811 124.101 104.811 125.426C104.811 126.751 105.884 127.825 107.209 127.825Z"
      fill="#1E313F" />
    <path
      d="M107.209 121.914C108.533 121.914 109.607 120.841 109.607 119.516C109.607 118.191 108.533 117.117 107.209 117.117C105.884 117.117 104.811 118.191 104.811 119.516C104.811 120.841 105.884 121.914 107.209 121.914Z"
      fill="#1E313F" />
    <path
      d="M107.209 116.016C108.533 116.016 109.607 114.942 109.607 113.617C109.607 112.293 108.533 111.219 107.209 111.219C105.884 111.219 104.811 112.293 104.811 113.617C104.811 114.942 105.884 116.016 107.209 116.016Z"
      fill="#1E313F" />
    <path
      d="M107.209 110.12C108.533 110.12 109.607 109.046 109.607 107.721C109.607 106.396 108.533 105.322 107.209 105.322C105.884 105.322 104.811 106.396 104.811 107.721C104.811 109.046 105.884 110.12 107.209 110.12Z"
      fill="#1E313F" />
    <path
      d="M107.209 104.211C108.533 104.211 109.607 103.137 109.607 101.813C109.607 100.488 108.533 99.4141 107.209 99.4141C105.884 99.4141 104.811 100.488 104.811 101.813C104.811 103.137 105.884 104.211 107.209 104.211Z"
      fill="#1E313F" />
    <path
      d="M107.209 98.3129C108.533 98.3129 109.607 97.239 109.607 95.9143C109.607 94.5895 108.533 93.5156 107.209 93.5156C105.884 93.5156 104.811 94.5895 104.811 95.9143C104.811 97.239 105.884 98.3129 107.209 98.3129Z"
      fill="#1E313F" />
    <path
      d="M107.209 92.4047C108.533 92.4047 109.607 91.3308 109.607 90.006C109.607 88.6813 108.533 87.6074 107.209 87.6074C105.884 87.6074 104.811 88.6813 104.811 90.006C104.811 91.3308 105.884 92.4047 107.209 92.4047Z"
      fill="#1E313F" />
    <path
      d="M107.209 86.5082C108.533 86.5082 109.607 85.4343 109.607 84.1096C109.607 82.7848 108.533 81.7109 107.209 81.7109C105.884 81.7109 104.811 82.7848 104.811 84.1096C104.811 85.4343 105.884 86.5082 107.209 86.5082Z"
      fill="#1E313F" />
    <path
      d="M107.209 80.6097C108.533 80.6097 109.607 79.5358 109.607 78.2111C109.607 76.8864 108.533 75.8125 107.209 75.8125C105.884 75.8125 104.811 76.8864 104.811 78.2111C104.811 79.5358 105.884 80.6097 107.209 80.6097Z"
      fill="#1E313F" />
    <path
      d="M104.811 72.3029C104.811 70.9826 105.889 69.9043 107.209 69.9043C108.529 69.9043 109.607 70.9826 109.607 72.3029C109.607 73.6233 108.529 74.7015 107.209 74.7015C105.889 74.7015 104.811 73.6233 104.811 72.3029Z"
      fill="#1E313F" />
    <path
      d="M8.91211 66.4064C8.91211 65.0861 9.99011 64.0078 11.3101 64.0078C12.6301 64.0078 13.7081 65.0861 13.7081 66.4064C13.7081 67.7268 12.6301 68.8051 11.3101 68.8051C9.99011 68.8051 8.91211 67.7268 8.91211 66.4064Z"
      fill="#1E313F" />
    <path
      d="M11.3101 62.9066C12.6345 62.9066 13.7081 61.8327 13.7081 60.508C13.7081 59.1833 12.6345 58.1094 11.3101 58.1094C9.98573 58.1094 8.91211 59.1833 8.91211 60.508C8.91211 61.8327 9.98573 62.9066 11.3101 62.9066Z"
      fill="#1E313F" />
    <path
      d="M11.3101 56.9984C12.6345 56.9984 13.7081 55.9245 13.7081 54.5998C13.7081 53.2751 12.6345 52.2012 11.3101 52.2012C9.98573 52.2012 8.91211 53.2751 8.91211 54.5998C8.91211 55.9245 9.98573 56.9984 11.3101 56.9984Z"
      fill="#1E313F" />
    <path
      d="M11.3101 51.1019C12.6345 51.1019 13.7081 50.028 13.7081 48.7033C13.7081 47.3786 12.6345 46.3047 11.3101 46.3047C9.98573 46.3047 8.91211 47.3786 8.91211 48.7033C8.91211 50.028 9.98573 51.1019 11.3101 51.1019Z"
      fill="#1E313F" />
    <path
      d="M11.3101 45.2035C12.6345 45.2035 13.7081 44.1296 13.7081 42.8049C13.7081 41.4802 12.6345 40.4062 11.3101 40.4062C9.98573 40.4062 8.91211 41.4802 8.91211 42.8049C8.91211 44.1296 9.98573 45.2035 11.3101 45.2035Z"
      fill="#1E313F" />
    <path
      d="M11.3101 39.2933C12.6345 39.2933 13.7081 38.2194 13.7081 36.8947C13.7081 35.57 12.6345 34.4961 11.3101 34.4961C9.98573 34.4961 8.91211 35.57 8.91211 36.8947C8.91211 38.2194 9.98573 39.2933 11.3101 39.2933Z"
      fill="#1E313F" />
    <path
      d="M11.3101 33.3969C12.6345 33.3969 13.7081 32.323 13.7081 30.9982C13.7081 29.6735 12.6345 28.5996 11.3101 28.5996C9.98573 28.5996 8.91211 29.6735 8.91211 30.9982C8.91211 32.323 9.98573 33.3969 11.3101 33.3969Z"
      fill="#1E313F" />
    <path
      d="M11.3101 27.4886C12.6345 27.4886 13.7081 26.4147 13.7081 25.09C13.7081 23.7653 12.6345 22.6914 11.3101 22.6914C9.98573 22.6914 8.91211 23.7653 8.91211 25.09C8.91211 26.4147 9.98573 27.4886 11.3101 27.4886Z"
      fill="#1E313F" />
    <path
      d="M11.3101 21.5902C12.6345 21.5902 13.7081 20.5163 13.7081 19.1916C13.7081 17.8669 12.6345 16.793 11.3101 16.793C9.98573 16.793 8.91211 17.8669 8.91211 19.1916C8.91211 20.5163 9.98573 21.5902 11.3101 21.5902Z"
      fill="#1E313F" />
    <path
      d="M8.91211 131.322C8.91211 130.002 9.99011 128.924 11.3101 128.924C12.6301 128.924 13.7081 130.002 13.7081 131.322C13.7081 132.643 12.6301 133.721 11.3101 133.721C9.99011 133.721 8.91211 132.643 8.91211 131.322Z"
      fill="#1E313F" />
    <path
      d="M11.3101 127.825C12.6345 127.825 13.7081 126.751 13.7081 125.426C13.7081 124.101 12.6345 123.027 11.3101 123.027C9.98573 123.027 8.91211 124.101 8.91211 125.426C8.91211 126.751 9.98573 127.825 11.3101 127.825Z"
      fill="#1E313F" />
    <path
      d="M11.3101 121.914C12.6345 121.914 13.7081 120.841 13.7081 119.516C13.7081 118.191 12.6345 117.117 11.3101 117.117C9.98573 117.117 8.91211 118.191 8.91211 119.516C8.91211 120.841 9.98573 121.914 11.3101 121.914Z"
      fill="#1E313F" />
    <path
      d="M11.3101 116.016C12.6345 116.016 13.7081 114.942 13.7081 113.617C13.7081 112.293 12.6345 111.219 11.3101 111.219C9.98573 111.219 8.91211 112.293 8.91211 113.617C8.91211 114.942 9.98573 116.016 11.3101 116.016Z"
      fill="#1E313F" />
    <path
      d="M11.3101 110.12C12.6345 110.12 13.7081 109.046 13.7081 107.721C13.7081 106.396 12.6345 105.322 11.3101 105.322C9.98573 105.322 8.91211 106.396 8.91211 107.721C8.91211 109.046 9.98573 110.12 11.3101 110.12Z"
      fill="#1E313F" />
    <path
      d="M11.3101 104.211C12.6345 104.211 13.7081 103.137 13.7081 101.813C13.7081 100.488 12.6345 99.4141 11.3101 99.4141C9.98573 99.4141 8.91211 100.488 8.91211 101.813C8.91211 103.137 9.98573 104.211 11.3101 104.211Z"
      fill="#1E313F" />
    <path
      d="M11.3101 98.3129C12.6345 98.3129 13.7081 97.239 13.7081 95.9143C13.7081 94.5895 12.6345 93.5156 11.3101 93.5156C9.98573 93.5156 8.91211 94.5895 8.91211 95.9143C8.91211 97.239 9.98573 98.3129 11.3101 98.3129Z"
      fill="#1E313F" />
    <path
      d="M11.3101 92.4047C12.6345 92.4047 13.7081 91.3308 13.7081 90.006C13.7081 88.6813 12.6345 87.6074 11.3101 87.6074C9.98573 87.6074 8.91211 88.6813 8.91211 90.006C8.91211 91.3308 9.98573 92.4047 11.3101 92.4047Z"
      fill="#1E313F" />
    <path
      d="M11.3101 86.5082C12.6345 86.5082 13.7081 85.4343 13.7081 84.1096C13.7081 82.7848 12.6345 81.7109 11.3101 81.7109C9.98573 81.7109 8.91211 82.7848 8.91211 84.1096C8.91211 85.4343 9.98573 86.5082 11.3101 86.5082Z"
      fill="#1E313F" />
    <path
      d="M11.3101 80.6097C12.6345 80.6097 13.7081 79.5358 13.7081 78.2111C13.7081 76.8864 12.6345 75.8125 11.3101 75.8125C9.98573 75.8125 8.91211 76.8864 8.91211 78.2111C8.91211 79.5358 9.98573 80.6097 11.3101 80.6097Z"
      fill="#1E313F" />
    <path
      d="M8.91211 72.3029C8.91211 70.9826 9.99011 69.9043 11.3101 69.9043C12.6301 69.9043 13.7081 70.9826 13.7081 72.3029C13.7081 73.6233 12.6301 74.7015 11.3101 74.7015C9.99011 74.7015 8.91211 73.6233 8.91211 72.3029Z"
      fill="#1E313F" />
    <path
      d="M15.3145 66.4064C15.3145 65.0861 16.3925 64.0078 17.7125 64.0078C19.0325 64.0078 20.1105 65.0861 20.1105 66.4064C20.1105 67.7268 19.0325 68.8051 17.7125 68.8051C16.3925 68.8051 15.3145 67.7268 15.3145 66.4064Z"
      fill="#1E313F" />
    <path
      d="M17.7125 62.9066C19.0369 62.9066 20.1105 61.8327 20.1105 60.508C20.1105 59.1833 19.0369 58.1094 17.7125 58.1094C16.3881 58.1094 15.3145 59.1833 15.3145 60.508C15.3145 61.8327 16.3881 62.9066 17.7125 62.9066Z"
      fill="#1E313F" />
    <path
      d="M17.7125 56.9984C19.0369 56.9984 20.1105 55.9245 20.1105 54.5998C20.1105 53.2751 19.0369 52.2012 17.7125 52.2012C16.3881 52.2012 15.3145 53.2751 15.3145 54.5998C15.3145 55.9245 16.3881 56.9984 17.7125 56.9984Z"
      fill="#1E313F" />
    <path
      d="M17.7125 51.1019C19.0369 51.1019 20.1105 50.028 20.1105 48.7033C20.1105 47.3786 19.0369 46.3047 17.7125 46.3047C16.3881 46.3047 15.3145 47.3786 15.3145 48.7033C15.3145 50.028 16.3881 51.1019 17.7125 51.1019Z"
      fill="#1E313F" />
    <path
      d="M17.7125 45.2035C19.0369 45.2035 20.1105 44.1296 20.1105 42.8049C20.1105 41.4802 19.0369 40.4062 17.7125 40.4062C16.3881 40.4062 15.3145 41.4802 15.3145 42.8049C15.3145 44.1296 16.3881 45.2035 17.7125 45.2035Z"
      fill="#1E313F" />
    <path
      d="M17.7125 39.2933C19.0369 39.2933 20.1105 38.2194 20.1105 36.8947C20.1105 35.57 19.0369 34.4961 17.7125 34.4961C16.3881 34.4961 15.3145 35.57 15.3145 36.8947C15.3145 38.2194 16.3881 39.2933 17.7125 39.2933Z"
      fill="#1E313F" />
    <path
      d="M17.7125 33.3969C19.0369 33.3969 20.1105 32.323 20.1105 30.9982C20.1105 29.6735 19.0369 28.5996 17.7125 28.5996C16.3881 28.5996 15.3145 29.6735 15.3145 30.9982C15.3145 32.323 16.3881 33.3969 17.7125 33.3969Z"
      fill="#1E313F" />
    <path
      d="M17.7125 27.4886C19.0369 27.4886 20.1105 26.4147 20.1105 25.09C20.1105 23.7653 19.0369 22.6914 17.7125 22.6914C16.3881 22.6914 15.3145 23.7653 15.3145 25.09C15.3145 26.4147 16.3881 27.4886 17.7125 27.4886Z"
      fill="#1E313F" />
    <path
      d="M17.7125 21.5902C19.0369 21.5902 20.1105 20.5163 20.1105 19.1916C20.1105 17.8669 19.0369 16.793 17.7125 16.793C16.3881 16.793 15.3145 17.8669 15.3145 19.1916C15.3145 20.5163 16.3881 21.5902 17.7125 21.5902Z"
      fill="#1E313F" />
    <path
      d="M17.7125 133.721C19.0369 133.721 20.1105 132.647 20.1105 131.322C20.1105 129.998 19.0369 128.924 17.7125 128.924C16.3881 128.924 15.3145 129.998 15.3145 131.322C15.3145 132.647 16.3881 133.721 17.7125 133.721Z"
      fill="#1E313F" />
    <path
      d="M17.7125 127.825C19.0369 127.825 20.1105 126.751 20.1105 125.426C20.1105 124.101 19.0369 123.027 17.7125 123.027C16.3881 123.027 15.3145 124.101 15.3145 125.426C15.3145 126.751 16.3881 127.825 17.7125 127.825Z"
      fill="#1E313F" />
    <path
      d="M17.7125 121.914C19.0369 121.914 20.1105 120.841 20.1105 119.516C20.1105 118.191 19.0369 117.117 17.7125 117.117C16.3881 117.117 15.3145 118.191 15.3145 119.516C15.3145 120.841 16.3881 121.914 17.7125 121.914Z"
      fill="#1E313F" />
    <path
      d="M17.7125 116.016C19.0369 116.016 20.1105 114.942 20.1105 113.617C20.1105 112.293 19.0369 111.219 17.7125 111.219C16.3881 111.219 15.3145 112.293 15.3145 113.617C15.3145 114.942 16.3881 116.016 17.7125 116.016Z"
      fill="#1E313F" />
    <path
      d="M17.7125 110.12C19.0369 110.12 20.1105 109.046 20.1105 107.721C20.1105 106.396 19.0369 105.322 17.7125 105.322C16.3881 105.322 15.3145 106.396 15.3145 107.721C15.3145 109.046 16.3881 110.12 17.7125 110.12Z"
      fill="#1E313F" />
    <path
      d="M17.7125 104.211C19.0369 104.211 20.1105 103.137 20.1105 101.813C20.1105 100.488 19.0369 99.4141 17.7125 99.4141C16.3881 99.4141 15.3145 100.488 15.3145 101.813C15.3145 103.137 16.3881 104.211 17.7125 104.211Z"
      fill="#1E313F" />
    <path
      d="M17.7125 98.3129C19.0369 98.3129 20.1105 97.239 20.1105 95.9143C20.1105 94.5895 19.0369 93.5156 17.7125 93.5156C16.3881 93.5156 15.3145 94.5895 15.3145 95.9143C15.3145 97.239 16.3881 98.3129 17.7125 98.3129Z"
      fill="#1E313F" />
    <path
      d="M17.7125 92.4047C19.0369 92.4047 20.1105 91.3308 20.1105 90.006C20.1105 88.6813 19.0369 87.6074 17.7125 87.6074C16.3881 87.6074 15.3145 88.6813 15.3145 90.006C15.3145 91.3308 16.3881 92.4047 17.7125 92.4047Z"
      fill="#1E313F" />
    <path
      d="M17.7125 86.5082C19.0369 86.5082 20.1105 85.4343 20.1105 84.1096C20.1105 82.7848 19.0369 81.7109 17.7125 81.7109C16.3881 81.7109 15.3145 82.7848 15.3145 84.1096C15.3145 85.4343 16.3881 86.5082 17.7125 86.5082Z"
      fill="#1E313F" />
    <path
      d="M17.7125 80.6097C19.0369 80.6097 20.1105 79.5358 20.1105 78.2111C20.1105 76.8864 19.0369 75.8125 17.7125 75.8125C16.3881 75.8125 15.3145 76.8864 15.3145 78.2111C15.3145 79.5358 16.3881 80.6097 17.7125 80.6097Z"
      fill="#1E313F" />
    <path
      d="M15.3145 72.3029C15.3145 70.9826 16.3925 69.9043 17.7125 69.9043C19.0325 69.9043 20.1105 70.9826 20.1105 72.3029C20.1105 73.6233 19.0325 74.7015 17.7125 74.7015C16.3925 74.7015 15.3145 73.6233 15.3145 72.3029Z"
      fill="#1E313F" />
    <path
      d="M24.1031 68.8051C25.4275 68.8051 26.5011 67.7312 26.5011 66.4064C26.5011 65.0817 25.4275 64.0078 24.1031 64.0078C22.7787 64.0078 21.7051 65.0817 21.7051 66.4064C21.7051 67.7312 22.7787 68.8051 24.1031 68.8051Z"
      fill="#1E313F" />
    <path
      d="M24.1031 62.9066C25.4275 62.9066 26.5011 61.8327 26.5011 60.508C26.5011 59.1833 25.4275 58.1094 24.1031 58.1094C22.7787 58.1094 21.7051 59.1833 21.7051 60.508C21.7051 61.8327 22.7787 62.9066 24.1031 62.9066Z"
      fill="#1E313F" />
    <path
      d="M21.7051 54.5998C21.7051 53.2795 22.7831 52.2012 24.1031 52.2012C25.4231 52.2012 26.5011 53.2795 26.5011 54.5998C26.5011 55.9201 25.4231 56.9984 24.1031 56.9984C22.7831 56.9984 21.7051 55.9201 21.7051 54.5998Z"
      fill="#1E313F" />
    <path
      d="M21.7051 48.7033C21.7051 47.383 22.7831 46.3047 24.1031 46.3047C25.4231 46.3047 26.5011 47.383 26.5011 48.7033C26.5011 50.0237 25.4231 51.1019 24.1031 51.1019C22.7831 51.1019 21.7051 50.0237 21.7051 48.7033Z"
      fill="#1E313F" />
    <path
      d="M24.1031 45.2035C25.4275 45.2035 26.5011 44.1296 26.5011 42.8049C26.5011 41.4802 25.4275 40.4062 24.1031 40.4062C22.7787 40.4062 21.7051 41.4802 21.7051 42.8049C21.7051 44.1296 22.7787 45.2035 24.1031 45.2035Z"
      fill="#1E313F" />
    <path
      d="M24.1031 39.2933C25.4275 39.2933 26.5011 38.2194 26.5011 36.8947C26.5011 35.57 25.4275 34.4961 24.1031 34.4961C22.7787 34.4961 21.7051 35.57 21.7051 36.8947C21.7051 38.2194 22.7787 39.2933 24.1031 39.2933Z"
      fill="#1E313F" />
    <path
      d="M24.1031 33.3969C25.4275 33.3969 26.5011 32.323 26.5011 30.9982C26.5011 29.6735 25.4275 28.5996 24.1031 28.5996C22.7787 28.5996 21.7051 29.6735 21.7051 30.9982C21.7051 32.323 22.7787 33.3969 24.1031 33.3969Z"
      fill="#1E313F" />
    <path
      d="M24.1031 27.4886C25.4275 27.4886 26.5011 26.4147 26.5011 25.09C26.5011 23.7653 25.4275 22.6914 24.1031 22.6914C22.7787 22.6914 21.7051 23.7653 21.7051 25.09C21.7051 26.4147 22.7787 27.4886 24.1031 27.4886Z"
      fill="#1E313F" />
    <path
      d="M24.1031 21.5902C25.4275 21.5902 26.5011 20.5163 26.5011 19.1916C26.5011 17.8669 25.4275 16.793 24.1031 16.793C22.7787 16.793 21.7051 17.8669 21.7051 19.1916C21.7051 20.5163 22.7787 21.5902 24.1031 21.5902Z"
      fill="#1E313F" />
    <path
      d="M21.7051 131.322C21.7051 130.002 22.7831 128.924 24.1031 128.924C25.4231 128.924 26.5011 130.002 26.5011 131.322C26.5011 132.643 25.4231 133.721 24.1031 133.721C22.7831 133.721 21.7051 132.643 21.7051 131.322Z"
      fill="#1E313F" />
    <path
      d="M21.7051 125.426C21.7051 124.106 22.7831 123.027 24.1031 123.027C25.4231 123.027 26.5011 124.106 26.5011 125.426C26.5011 126.746 25.4231 127.825 24.1031 127.825C22.7831 127.825 21.7051 126.746 21.7051 125.426Z"
      fill="#1E313F" />
    <path
      d="M21.7051 119.516C21.7051 118.195 22.7831 117.117 24.1031 117.117C25.4231 117.117 26.5011 118.195 26.5011 119.516C26.5011 120.836 25.4231 121.914 24.1031 121.914C22.7831 121.914 21.7051 120.836 21.7051 119.516Z"
      fill="#1E313F" />
    <path
      d="M24.1031 116.016C25.4275 116.016 26.5011 114.942 26.5011 113.617C26.5011 112.293 25.4275 111.219 24.1031 111.219C22.7787 111.219 21.7051 112.293 21.7051 113.617C21.7051 114.942 22.7787 116.016 24.1031 116.016Z"
      fill="#1E313F" />
    <path
      d="M24.1031 110.12C25.4275 110.12 26.5011 109.046 26.5011 107.721C26.5011 106.396 25.4275 105.322 24.1031 105.322C22.7787 105.322 21.7051 106.396 21.7051 107.721C21.7051 109.046 22.7787 110.12 24.1031 110.12Z"
      fill="#1E313F" />
    <path
      d="M24.1031 104.211C25.4275 104.211 26.5011 103.137 26.5011 101.813C26.5011 100.488 25.4275 99.4141 24.1031 99.4141C22.7787 99.4141 21.7051 100.488 21.7051 101.813C21.7051 103.137 22.7787 104.211 24.1031 104.211Z"
      fill="#1E313F" />
    <path
      d="M21.7051 95.9143C21.7051 94.5939 22.7831 93.5156 24.1031 93.5156C25.4231 93.5156 26.5011 94.5939 26.5011 95.9143C26.5011 97.2346 25.4231 98.3129 24.1031 98.3129C22.7831 98.3129 21.7051 97.2346 21.7051 95.9143Z"
      fill="#1E313F" />
    <path
      d="M21.7051 90.006C21.7051 88.6857 22.7831 87.6074 24.1031 87.6074C25.4231 87.6074 26.5011 88.6857 26.5011 90.006C26.5011 91.3264 25.4231 92.4047 24.1031 92.4047C22.7831 92.4047 21.7051 91.3264 21.7051 90.006Z"
      fill="#1E313F" />
    <path
      d="M21.7051 84.1096C21.7051 82.7892 22.7831 81.7109 24.1031 81.7109C25.4231 81.7109 26.5011 82.7892 26.5011 84.1096C26.5011 85.4299 25.4231 86.5082 24.1031 86.5082C22.7831 86.5082 21.7051 85.4299 21.7051 84.1096Z"
      fill="#1E313F" />
    <path
      d="M24.1031 80.6097C25.4275 80.6097 26.5011 79.5358 26.5011 78.2111C26.5011 76.8864 25.4275 75.8125 24.1031 75.8125C22.7787 75.8125 21.7051 76.8864 21.7051 78.2111C21.7051 79.5358 22.7787 80.6097 24.1031 80.6097Z"
      fill="#1E313F" />
    <path
      d="M24.1031 74.7015C25.4275 74.7015 26.5011 73.6276 26.5011 72.3029C26.5011 70.9782 25.4275 69.9043 24.1031 69.9043C22.7787 69.9043 21.7051 70.9782 21.7051 72.3029C21.7051 73.6276 22.7787 74.7015 24.1031 74.7015Z"
      fill="#1E313F" />
    <path
      d="M28.0957 66.4064C28.0957 65.0861 29.1737 64.0078 30.4937 64.0078C31.8138 64.0078 32.8918 65.0861 32.8918 66.4064C32.8918 67.7268 31.8138 68.8051 30.4937 68.8051C29.1737 68.8051 28.0957 67.7268 28.0957 66.4064Z"
      fill="#1E313F" />
    <path
      d="M28.0957 60.508C28.0957 59.1876 29.1737 58.1094 30.4937 58.1094C31.8138 58.1094 32.8918 59.1876 32.8918 60.508C32.8918 61.8283 31.8138 62.9066 30.4937 62.9066C29.1737 62.9066 28.0957 61.8283 28.0957 60.508Z"
      fill="#1E313F" />
    <path
      d="M28.0957 54.5998C28.0957 53.2795 29.1737 52.2012 30.4937 52.2012C31.8138 52.2012 32.8918 53.2795 32.8918 54.5998C32.8918 55.9201 31.8138 56.9984 30.4937 56.9984C29.1737 56.9984 28.0957 55.9201 28.0957 54.5998Z"
      fill="#1E313F" />
    <path
      d="M30.4937 51.1019C31.8181 51.1019 32.8918 50.028 32.8918 48.7033C32.8918 47.3786 31.8181 46.3047 30.4937 46.3047C29.1694 46.3047 28.0957 47.3786 28.0957 48.7033C28.0957 50.028 29.1694 51.1019 30.4937 51.1019Z"
      fill="#1E313F" />
    <path
      d="M30.4937 45.2035C31.8181 45.2035 32.8918 44.1296 32.8918 42.8049C32.8918 41.4802 31.8181 40.4062 30.4937 40.4062C29.1694 40.4062 28.0957 41.4802 28.0957 42.8049C28.0957 44.1296 29.1694 45.2035 30.4937 45.2035Z"
      fill="#1E313F" />
    <path
      d="M30.4937 39.2933C31.8181 39.2933 32.8918 38.2194 32.8918 36.8947C32.8918 35.57 31.8181 34.4961 30.4937 34.4961C29.1694 34.4961 28.0957 35.57 28.0957 36.8947C28.0957 38.2194 29.1694 39.2933 30.4937 39.2933Z"
      fill="#1E313F" />
    <path
      d="M30.4937 33.3969C31.8181 33.3969 32.8918 32.323 32.8918 30.9982C32.8918 29.6735 31.8181 28.5996 30.4937 28.5996C29.1694 28.5996 28.0957 29.6735 28.0957 30.9982C28.0957 32.323 29.1694 33.3969 30.4937 33.3969Z"
      fill="#1E313F" />
    <path
      d="M30.4937 27.4886C31.8181 27.4886 32.8918 26.4147 32.8918 25.09C32.8918 23.7653 31.8181 22.6914 30.4937 22.6914C29.1694 22.6914 28.0957 23.7653 28.0957 25.09C28.0957 26.4147 29.1694 27.4886 30.4937 27.4886Z"
      fill="#1E313F" />
    <path
      d="M30.4937 21.5902C31.8181 21.5902 32.8918 20.5163 32.8918 19.1916C32.8918 17.8669 31.8181 16.793 30.4937 16.793C29.1694 16.793 28.0957 17.8669 28.0957 19.1916C28.0957 20.5163 29.1694 21.5902 30.4937 21.5902Z"
      fill="#1E313F" />
    <path
      d="M28.0957 131.322C28.0957 130.002 29.1737 128.924 30.4937 128.924C31.8138 128.924 32.8918 130.002 32.8918 131.322C32.8918 132.643 31.8138 133.721 30.4937 133.721C29.1737 133.721 28.0957 132.643 28.0957 131.322Z"
      fill="#1E313F" />
    <path
      d="M30.4937 127.825C31.8181 127.825 32.8918 126.751 32.8918 125.426C32.8918 124.101 31.8181 123.027 30.4937 123.027C29.1694 123.027 28.0957 124.101 28.0957 125.426C28.0957 126.751 29.1694 127.825 30.4937 127.825Z"
      fill="#1E313F" />
    <path
      d="M30.4937 121.914C31.8181 121.914 32.8918 120.841 32.8918 119.516C32.8918 118.191 31.8181 117.117 30.4937 117.117C29.1694 117.117 28.0957 118.191 28.0957 119.516C28.0957 120.841 29.1694 121.914 30.4937 121.914Z"
      fill="#1E313F" />
    <path
      d="M30.4937 116.016C31.8181 116.016 32.8918 114.942 32.8918 113.617C32.8918 112.293 31.8181 111.219 30.4937 111.219C29.1694 111.219 28.0957 112.293 28.0957 113.617C28.0957 114.942 29.1694 116.016 30.4937 116.016Z"
      fill="#1E313F" />
    <path
      d="M30.4937 110.12C31.8181 110.12 32.8918 109.046 32.8918 107.721C32.8918 106.396 31.8181 105.322 30.4937 105.322C29.1694 105.322 28.0957 106.396 28.0957 107.721C28.0957 109.046 29.1694 110.12 30.4937 110.12Z"
      fill="#1E313F" />
    <path
      d="M30.4937 104.211C31.8181 104.211 32.8918 103.137 32.8918 101.813C32.8918 100.488 31.8181 99.4141 30.4937 99.4141C29.1694 99.4141 28.0957 100.488 28.0957 101.813C28.0957 103.137 29.1694 104.211 30.4937 104.211Z"
      fill="#1E313F" />
    <path
      d="M30.4937 98.3129C31.8181 98.3129 32.8918 97.239 32.8918 95.9143C32.8918 94.5895 31.8181 93.5156 30.4937 93.5156C29.1694 93.5156 28.0957 94.5895 28.0957 95.9143C28.0957 97.239 29.1694 98.3129 30.4937 98.3129Z"
      fill="#1E313F" />
    <path
      d="M30.4937 92.4047C31.8181 92.4047 32.8918 91.3308 32.8918 90.006C32.8918 88.6813 31.8181 87.6074 30.4937 87.6074C29.1694 87.6074 28.0957 88.6813 28.0957 90.006C28.0957 91.3308 29.1694 92.4047 30.4937 92.4047Z"
      fill="#1E313F" />
    <path
      d="M30.4937 86.5082C31.8181 86.5082 32.8918 85.4343 32.8918 84.1096C32.8918 82.7848 31.8181 81.7109 30.4937 81.7109C29.1694 81.7109 28.0957 82.7848 28.0957 84.1096C28.0957 85.4343 29.1694 86.5082 30.4937 86.5082Z"
      fill="#1E313F" />
    <path
      d="M28.0957 78.2111C28.0957 76.8908 29.1737 75.8125 30.4937 75.8125C31.8138 75.8125 32.8918 76.8908 32.8918 78.2111C32.8918 79.5315 31.8138 80.6097 30.4937 80.6097C29.1737 80.6097 28.0957 79.5315 28.0957 78.2111Z"
      fill="#1E313F" />
    <path
      d="M28.0957 72.3029C28.0957 70.9826 29.1737 69.9043 30.4937 69.9043C31.8138 69.9043 32.8918 70.9826 32.8918 72.3029C32.8918 73.6233 31.8138 74.7015 30.4937 74.7015C29.1737 74.7015 28.0957 73.6233 28.0957 72.3029Z"
      fill="#1E313F" />
    <path
      d="M2.52148 66.4064C2.52148 65.0861 3.59952 64.0078 4.91953 64.0078C6.23954 64.0078 7.31754 65.0861 7.31754 66.4064C7.31754 67.7268 6.23954 68.8051 4.91953 68.8051C3.59952 68.8051 2.52148 67.7268 2.52148 66.4064Z"
      fill="#1E313F" />
    <path
      d="M4.91953 62.9066C6.24392 62.9066 7.31754 61.8327 7.31754 60.508C7.31754 59.1833 6.24392 58.1094 4.91953 58.1094C3.59514 58.1094 2.52148 59.1833 2.52148 60.508C2.52148 61.8327 3.59514 62.9066 4.91953 62.9066Z"
      fill="#1E313F" />
    <path
      d="M4.91953 56.9984C6.24392 56.9984 7.31754 55.9245 7.31754 54.5998C7.31754 53.2751 6.24392 52.2012 4.91953 52.2012C3.59514 52.2012 2.52148 53.2751 2.52148 54.5998C2.52148 55.9245 3.59514 56.9984 4.91953 56.9984Z"
      fill="#1E313F" />
    <path
      d="M4.91953 51.1019C6.24392 51.1019 7.31754 50.028 7.31754 48.7033C7.31754 47.3786 6.24392 46.3047 4.91953 46.3047C3.59514 46.3047 2.52148 47.3786 2.52148 48.7033C2.52148 50.028 3.59514 51.1019 4.91953 51.1019Z"
      fill="#1E313F" />
    <path
      d="M4.91953 45.2035C6.24392 45.2035 7.31754 44.1296 7.31754 42.8049C7.31754 41.4802 6.24392 40.4062 4.91953 40.4062C3.59514 40.4062 2.52148 41.4802 2.52148 42.8049C2.52148 44.1296 3.59514 45.2035 4.91953 45.2035Z"
      fill="#1E313F" />
    <path
      d="M4.91953 39.2933C6.24392 39.2933 7.31754 38.2194 7.31754 36.8947C7.31754 35.57 6.24392 34.4961 4.91953 34.4961C3.59514 34.4961 2.52148 35.57 2.52148 36.8947C2.52148 38.2194 3.59514 39.2933 4.91953 39.2933Z"
      fill="#1E313F" />
    <path
      d="M4.91953 33.3969C6.24392 33.3969 7.31754 32.323 7.31754 30.9982C7.31754 29.6735 6.24392 28.5996 4.91953 28.5996C3.59514 28.5996 2.52148 29.6735 2.52148 30.9982C2.52148 32.323 3.59514 33.3969 4.91953 33.3969Z"
      fill="#1E313F" />
    <path
      d="M4.91953 27.4886C6.24392 27.4886 7.31754 26.4147 7.31754 25.09C7.31754 23.7653 6.24392 22.6914 4.91953 22.6914C3.59514 22.6914 2.52148 23.7653 2.52148 25.09C2.52148 26.4147 3.59514 27.4886 4.91953 27.4886Z"
      fill="#1E313F" />
    <path
      d="M4.91953 21.5902C6.24392 21.5902 7.31754 20.5163 7.31754 19.1916C7.31754 17.8669 6.24392 16.793 4.91953 16.793C3.59514 16.793 2.52148 17.8669 2.52148 19.1916C2.52148 20.5163 3.59514 21.5902 4.91953 21.5902Z"
      fill="#1E313F" />
    <path
      d="M4.91953 133.721C6.24392 133.721 7.31754 132.647 7.31754 131.322C7.31754 129.998 6.24392 128.924 4.91953 128.924C3.59514 128.924 2.52148 129.998 2.52148 131.322C2.52148 132.647 3.59514 133.721 4.91953 133.721Z"
      fill="#1E313F" />
    <path
      d="M4.91953 127.825C6.24392 127.825 7.31754 126.751 7.31754 125.426C7.31754 124.101 6.24392 123.027 4.91953 123.027C3.59514 123.027 2.52148 124.101 2.52148 125.426C2.52148 126.751 3.59514 127.825 4.91953 127.825Z"
      fill="#1E313F" />
    <path
      d="M4.91953 121.914C6.24392 121.914 7.31754 120.841 7.31754 119.516C7.31754 118.191 6.24392 117.117 4.91953 117.117C3.59514 117.117 2.52148 118.191 2.52148 119.516C2.52148 120.841 3.59514 121.914 4.91953 121.914Z"
      fill="#1E313F" />
    <path
      d="M4.91953 116.016C6.24392 116.016 7.31754 114.942 7.31754 113.617C7.31754 112.293 6.24392 111.219 4.91953 111.219C3.59514 111.219 2.52148 112.293 2.52148 113.617C2.52148 114.942 3.59514 116.016 4.91953 116.016Z"
      fill="#1E313F" />
    <path
      d="M4.91953 110.12C6.24392 110.12 7.31754 109.046 7.31754 107.721C7.31754 106.396 6.24392 105.322 4.91953 105.322C3.59514 105.322 2.52148 106.396 2.52148 107.721C2.52148 109.046 3.59514 110.12 4.91953 110.12Z"
      fill="#1E313F" />
    <path
      d="M4.91953 104.211C6.24392 104.211 7.31754 103.137 7.31754 101.813C7.31754 100.488 6.24392 99.4141 4.91953 99.4141C3.59514 99.4141 2.52148 100.488 2.52148 101.813C2.52148 103.137 3.59514 104.211 4.91953 104.211Z"
      fill="#1E313F" />
    <path
      d="M4.91953 98.3129C6.24392 98.3129 7.31754 97.239 7.31754 95.9143C7.31754 94.5895 6.24392 93.5156 4.91953 93.5156C3.59514 93.5156 2.52148 94.5895 2.52148 95.9143C2.52148 97.239 3.59514 98.3129 4.91953 98.3129Z"
      fill="#1E313F" />
    <path
      d="M4.91953 92.4047C6.24392 92.4047 7.31754 91.3308 7.31754 90.006C7.31754 88.6813 6.24392 87.6074 4.91953 87.6074C3.59514 87.6074 2.52148 88.6813 2.52148 90.006C2.52148 91.3308 3.59514 92.4047 4.91953 92.4047Z"
      fill="#1E313F" />
    <path
      d="M4.91953 86.5082C6.24392 86.5082 7.31754 85.4343 7.31754 84.1096C7.31754 82.7848 6.24392 81.7109 4.91953 81.7109C3.59514 81.7109 2.52148 82.7848 2.52148 84.1096C2.52148 85.4343 3.59514 86.5082 4.91953 86.5082Z"
      fill="#1E313F" />
    <path
      d="M4.91953 80.6097C6.24392 80.6097 7.31754 79.5358 7.31754 78.2111C7.31754 76.8864 6.24392 75.8125 4.91953 75.8125C3.59514 75.8125 2.52148 76.8864 2.52148 78.2111C2.52148 79.5358 3.59514 80.6097 4.91953 80.6097Z"
      fill="#1E313F" />
    <path
      d="M2.52148 72.3029C2.52148 70.9826 3.59952 69.9043 4.91953 69.9043C6.23954 69.9043 7.31754 70.9826 7.31754 72.3029C7.31754 73.6233 6.23954 74.7015 4.91953 74.7015C3.59952 74.7015 2.52148 73.6233 2.52148 72.3029Z"
      fill="#1E313F" />
    <path
      d="M-3.87109 66.4064C-3.87109 65.0861 -2.79306 64.0078 -1.47305 64.0078C-0.153037 64.0078 0.924964 65.0861 0.924964 66.4064C0.924964 67.7268 -0.153037 68.8051 -1.47305 68.8051C-2.79306 68.8051 -3.87109 67.7268 -3.87109 66.4064Z"
      fill="#1E313F" />
    <path
      d="M-1.47305 62.9066C-0.148658 62.9066 0.924964 61.8327 0.924964 60.508C0.924964 59.1833 -0.148658 58.1094 -1.47305 58.1094C-2.79744 58.1094 -3.87109 59.1833 -3.87109 60.508C-3.87109 61.8327 -2.79744 62.9066 -1.47305 62.9066Z"
      fill="#1E313F" />
    <path
      d="M-1.47305 56.9984C-0.148658 56.9984 0.924964 55.9245 0.924964 54.5998C0.924964 53.2751 -0.148658 52.2012 -1.47305 52.2012C-2.79744 52.2012 -3.87109 53.2751 -3.87109 54.5998C-3.87109 55.9245 -2.79744 56.9984 -1.47305 56.9984Z"
      fill="#1E313F" />
    <path
      d="M-1.47305 51.1019C-0.148658 51.1019 0.924964 50.028 0.924964 48.7033C0.924964 47.3786 -0.148658 46.3047 -1.47305 46.3047C-2.79744 46.3047 -3.87109 47.3786 -3.87109 48.7033C-3.87109 50.028 -2.79744 51.1019 -1.47305 51.1019Z"
      fill="#1E313F" />
    <path
      d="M-1.47305 45.2035C-0.148658 45.2035 0.924964 44.1296 0.924964 42.8049C0.924964 41.4802 -0.148658 40.4062 -1.47305 40.4062C-2.79744 40.4062 -3.87109 41.4802 -3.87109 42.8049C-3.87109 44.1296 -2.79744 45.2035 -1.47305 45.2035Z"
      fill="#1E313F" />
    <path
      d="M-1.47305 39.2933C-0.148658 39.2933 0.924964 38.2194 0.924964 36.8947C0.924964 35.57 -0.148658 34.4961 -1.47305 34.4961C-2.79744 34.4961 -3.87109 35.57 -3.87109 36.8947C-3.87109 38.2194 -2.79744 39.2933 -1.47305 39.2933Z"
      fill="#1E313F" />
    <path
      d="M-1.47305 33.3969C-0.148658 33.3969 0.924964 32.323 0.924964 30.9982C0.924964 29.6735 -0.148658 28.5996 -1.47305 28.5996C-2.79744 28.5996 -3.87109 29.6735 -3.87109 30.9982C-3.87109 32.323 -2.79744 33.3969 -1.47305 33.3969Z"
      fill="#1E313F" />
    <path
      d="M-1.47305 27.4886C-0.148658 27.4886 0.924964 26.4147 0.924964 25.09C0.924964 23.7653 -0.148658 22.6914 -1.47305 22.6914C-2.79744 22.6914 -3.87109 23.7653 -3.87109 25.09C-3.87109 26.4147 -2.79744 27.4886 -1.47305 27.4886Z"
      fill="#1E313F" />
    <path
      d="M-1.47305 21.5902C-0.148658 21.5902 0.924964 20.5163 0.924964 19.1916C0.924964 17.8669 -0.148658 16.793 -1.47305 16.793C-2.79744 16.793 -3.87109 17.8669 -3.87109 19.1916C-3.87109 20.5163 -2.79744 21.5902 -1.47305 21.5902Z"
      fill="#1E313F" />
    <path
      d="M-1.47305 133.721C-0.148658 133.721 0.924964 132.647 0.924964 131.322C0.924964 129.998 -0.148658 128.924 -1.47305 128.924C-2.79744 128.924 -3.87109 129.998 -3.87109 131.322C-3.87109 132.647 -2.79744 133.721 -1.47305 133.721Z"
      fill="#1E313F" />
    <path
      d="M-1.47305 127.825C-0.148658 127.825 0.924964 126.751 0.924964 125.426C0.924964 124.101 -0.148658 123.027 -1.47305 123.027C-2.79744 123.027 -3.87109 124.101 -3.87109 125.426C-3.87109 126.751 -2.79744 127.825 -1.47305 127.825Z"
      fill="#1E313F" />
    <path
      d="M-1.47305 121.914C-0.148658 121.914 0.924964 120.841 0.924964 119.516C0.924964 118.191 -0.148658 117.117 -1.47305 117.117C-2.79744 117.117 -3.87109 118.191 -3.87109 119.516C-3.87109 120.841 -2.79744 121.914 -1.47305 121.914Z"
      fill="#1E313F" />
    <path
      d="M-1.47305 116.016C-0.148658 116.016 0.924964 114.942 0.924964 113.617C0.924964 112.293 -0.148658 111.219 -1.47305 111.219C-2.79744 111.219 -3.87109 112.293 -3.87109 113.617C-3.87109 114.942 -2.79744 116.016 -1.47305 116.016Z"
      fill="#1E313F" />
    <path
      d="M-1.47305 110.12C-0.148658 110.12 0.924964 109.046 0.924964 107.721C0.924964 106.396 -0.148658 105.322 -1.47305 105.322C-2.79744 105.322 -3.87109 106.396 -3.87109 107.721C-3.87109 109.046 -2.79744 110.12 -1.47305 110.12Z"
      fill="#1E313F" />
    <path
      d="M-1.47305 104.211C-0.148658 104.211 0.924964 103.137 0.924964 101.813C0.924964 100.488 -0.148658 99.4141 -1.47305 99.4141C-2.79744 99.4141 -3.87109 100.488 -3.87109 101.813C-3.87109 103.137 -2.79744 104.211 -1.47305 104.211Z"
      fill="#1E313F" />
    <path
      d="M-1.47305 98.3129C-0.148658 98.3129 0.924964 97.239 0.924964 95.9143C0.924964 94.5895 -0.148658 93.5156 -1.47305 93.5156C-2.79744 93.5156 -3.87109 94.5895 -3.87109 95.9143C-3.87109 97.239 -2.79744 98.3129 -1.47305 98.3129Z"
      fill="#1E313F" />
    <path
      d="M-1.47305 92.4047C-0.148658 92.4047 0.924964 91.3308 0.924964 90.006C0.924964 88.6813 -0.148658 87.6074 -1.47305 87.6074C-2.79744 87.6074 -3.87109 88.6813 -3.87109 90.006C-3.87109 91.3308 -2.79744 92.4047 -1.47305 92.4047Z"
      fill="#1E313F" />
    <path
      d="M-1.47305 86.5082C-0.148658 86.5082 0.924964 85.4343 0.924964 84.1096C0.924964 82.7848 -0.148658 81.7109 -1.47305 81.7109C-2.79744 81.7109 -3.87109 82.7848 -3.87109 84.1096C-3.87109 85.4343 -2.79744 86.5082 -1.47305 86.5082Z"
      fill="#1E313F" />
    <path
      d="M-1.47305 80.6097C-0.148658 80.6097 0.924964 79.5358 0.924964 78.2111C0.924964 76.8864 -0.148658 75.8125 -1.47305 75.8125C-2.79744 75.8125 -3.87109 76.8864 -3.87109 78.2111C-3.87109 79.5358 -2.79744 80.6097 -1.47305 80.6097Z"
      fill="#1E313F" />
    <path
      d="M-3.87109 72.3029C-3.87109 70.9826 -2.79306 69.9043 -1.47305 69.9043C-0.153037 69.9043 0.924964 70.9826 0.924964 72.3029C0.924964 73.6233 -0.153037 74.7015 -1.47305 74.7015C-2.79306 74.7015 -3.87109 73.6233 -3.87109 72.3029Z"
      fill="#1E313F" />
    <path
      d="M60.0605 66.4064C60.0605 65.0861 61.1385 64.0078 62.4586 64.0078C63.7786 64.0078 64.8566 65.0861 64.8566 66.4064C64.8566 67.7268 63.7786 68.8051 62.4586 68.8051C61.1385 68.8051 60.0605 67.7268 60.0605 66.4064Z"
      fill="#1E313F" />
    <path
      d="M62.4586 62.9066C63.7829 62.9066 64.8566 61.8327 64.8566 60.508C64.8566 59.1833 63.7829 58.1094 62.4586 58.1094C61.1342 58.1094 60.0605 59.1833 60.0605 60.508C60.0605 61.8327 61.1342 62.9066 62.4586 62.9066Z"
      fill="#1E313F" />
    <path
      d="M62.4586 56.9984C63.7829 56.9984 64.8566 55.9245 64.8566 54.5998C64.8566 53.2751 63.7829 52.2012 62.4586 52.2012C61.1342 52.2012 60.0605 53.2751 60.0605 54.5998C60.0605 55.9245 61.1342 56.9984 62.4586 56.9984Z"
      fill="#1E313F" />
    <path
      d="M62.4586 51.1019C63.7829 51.1019 64.8566 50.028 64.8566 48.7033C64.8566 47.3786 63.7829 46.3047 62.4586 46.3047C61.1342 46.3047 60.0605 47.3786 60.0605 48.7033C60.0605 50.028 61.1342 51.1019 62.4586 51.1019Z"
      fill="#1E313F" />
    <path
      d="M62.4586 45.2035C63.7829 45.2035 64.8566 44.1296 64.8566 42.8049C64.8566 41.4802 63.7829 40.4062 62.4586 40.4062C61.1342 40.4062 60.0605 41.4802 60.0605 42.8049C60.0605 44.1296 61.1342 45.2035 62.4586 45.2035Z"
      fill="#1E313F" />
    <path
      d="M62.4586 39.2933C63.7829 39.2933 64.8566 38.2194 64.8566 36.8947C64.8566 35.57 63.7829 34.4961 62.4586 34.4961C61.1342 34.4961 60.0605 35.57 60.0605 36.8947C60.0605 38.2194 61.1342 39.2933 62.4586 39.2933Z"
      fill="#1E313F" />
    <path
      d="M62.4586 33.3969C63.7829 33.3969 64.8566 32.323 64.8566 30.9982C64.8566 29.6735 63.7829 28.5996 62.4586 28.5996C61.1342 28.5996 60.0605 29.6735 60.0605 30.9982C60.0605 32.323 61.1342 33.3969 62.4586 33.3969Z"
      fill="#1E313F" />
    <path
      d="M62.4586 27.4886C63.7829 27.4886 64.8566 26.4147 64.8566 25.09C64.8566 23.7653 63.7829 22.6914 62.4586 22.6914C61.1342 22.6914 60.0605 23.7653 60.0605 25.09C60.0605 26.4147 61.1342 27.4886 62.4586 27.4886Z"
      fill="#1E313F" />
    <path
      d="M62.4586 21.5902C63.7829 21.5902 64.8566 20.5163 64.8566 19.1916C64.8566 17.8669 63.7829 16.793 62.4586 16.793C61.1342 16.793 60.0605 17.8669 60.0605 19.1916C60.0605 20.5163 61.1342 21.5902 62.4586 21.5902Z"
      fill="#1E313F" />
    <path
      d="M60.0605 131.322C60.0605 130.002 61.1385 128.924 62.4586 128.924C63.7786 128.924 64.8566 130.002 64.8566 131.322C64.8566 132.643 63.7786 133.721 62.4586 133.721C61.1385 133.721 60.0605 132.643 60.0605 131.322Z"
      fill="#1E313F" />
    <path
      d="M62.4586 127.825C63.7829 127.825 64.8566 126.751 64.8566 125.426C64.8566 124.101 63.7829 123.027 62.4586 123.027C61.1342 123.027 60.0605 124.101 60.0605 125.426C60.0605 126.751 61.1342 127.825 62.4586 127.825Z"
      fill="#1E313F" />
    <path
      d="M62.4586 121.914C63.7829 121.914 64.8566 120.841 64.8566 119.516C64.8566 118.191 63.7829 117.117 62.4586 117.117C61.1342 117.117 60.0605 118.191 60.0605 119.516C60.0605 120.841 61.1342 121.914 62.4586 121.914Z"
      fill="#1E313F" />
    <path
      d="M62.4586 116.016C63.7829 116.016 64.8566 114.942 64.8566 113.617C64.8566 112.293 63.7829 111.219 62.4586 111.219C61.1342 111.219 60.0605 112.293 60.0605 113.617C60.0605 114.942 61.1342 116.016 62.4586 116.016Z"
      fill="#1E313F" />
    <path
      d="M62.4586 110.12C63.7829 110.12 64.8566 109.046 64.8566 107.721C64.8566 106.396 63.7829 105.322 62.4586 105.322C61.1342 105.322 60.0605 106.396 60.0605 107.721C60.0605 109.046 61.1342 110.12 62.4586 110.12Z"
      fill="#1E313F" />
    <path
      d="M62.4586 104.211C63.7829 104.211 64.8566 103.137 64.8566 101.813C64.8566 100.488 63.7829 99.4141 62.4586 99.4141C61.1342 99.4141 60.0605 100.488 60.0605 101.813C60.0605 103.137 61.1342 104.211 62.4586 104.211Z"
      fill="#1E313F" />
    <path
      d="M62.4586 98.3129C63.7829 98.3129 64.8566 97.239 64.8566 95.9143C64.8566 94.5895 63.7829 93.5156 62.4586 93.5156C61.1342 93.5156 60.0605 94.5895 60.0605 95.9143C60.0605 97.239 61.1342 98.3129 62.4586 98.3129Z"
      fill="#1E313F" />
    <path
      d="M62.4586 92.4047C63.7829 92.4047 64.8566 91.3308 64.8566 90.006C64.8566 88.6813 63.7829 87.6074 62.4586 87.6074C61.1342 87.6074 60.0605 88.6813 60.0605 90.006C60.0605 91.3308 61.1342 92.4047 62.4586 92.4047Z"
      fill="#1E313F" />
    <path
      d="M62.4586 86.5082C63.7829 86.5082 64.8566 85.4343 64.8566 84.1096C64.8566 82.7848 63.7829 81.7109 62.4586 81.7109C61.1342 81.7109 60.0605 82.7848 60.0605 84.1096C60.0605 85.4343 61.1342 86.5082 62.4586 86.5082Z"
      fill="#1E313F" />
    <path
      d="M62.4586 80.6097C63.7829 80.6097 64.8566 79.5358 64.8566 78.2111C64.8566 76.8864 63.7829 75.8125 62.4586 75.8125C61.1342 75.8125 60.0605 76.8864 60.0605 78.2111C60.0605 79.5358 61.1342 80.6097 62.4586 80.6097Z"
      fill="#1E313F" />
    <path
      d="M60.0605 72.3029C60.0605 70.9826 61.1385 69.9043 62.4586 69.9043C63.7786 69.9043 64.8566 70.9826 64.8566 72.3029C64.8566 73.6233 63.7786 74.7015 62.4586 74.7015C61.1385 74.7015 60.0605 73.6233 60.0605 72.3029Z"
      fill="#1E313F" />
    <path
      d="M68.8511 68.8051C70.1755 68.8051 71.2491 67.7312 71.2491 66.4064C71.2491 65.0817 70.1755 64.0078 68.8511 64.0078C67.5267 64.0078 66.4531 65.0817 66.4531 66.4064C66.4531 67.7312 67.5267 68.8051 68.8511 68.8051Z"
      fill="#1E313F" />
    <path
      d="M68.8511 62.9066C70.1755 62.9066 71.2491 61.8327 71.2491 60.508C71.2491 59.1833 70.1755 58.1094 68.8511 58.1094C67.5267 58.1094 66.4531 59.1833 66.4531 60.508C66.4531 61.8327 67.5267 62.9066 68.8511 62.9066Z"
      fill="#1E313F" />
    <path
      d="M68.8511 56.9984C70.1755 56.9984 71.2491 55.9245 71.2491 54.5998C71.2491 53.2751 70.1755 52.2012 68.8511 52.2012C67.5267 52.2012 66.4531 53.2751 66.4531 54.5998C66.4531 55.9245 67.5267 56.9984 68.8511 56.9984Z"
      fill="#1E313F" />
    <path
      d="M68.8511 51.1019C70.1755 51.1019 71.2491 50.028 71.2491 48.7033C71.2491 47.3786 70.1755 46.3047 68.8511 46.3047C67.5267 46.3047 66.4531 47.3786 66.4531 48.7033C66.4531 50.028 67.5267 51.1019 68.8511 51.1019Z"
      fill="#1E313F" />
    <path
      d="M68.8511 45.2035C70.1755 45.2035 71.2491 44.1296 71.2491 42.8049C71.2491 41.4802 70.1755 40.4062 68.8511 40.4062C67.5267 40.4062 66.4531 41.4802 66.4531 42.8049C66.4531 44.1296 67.5267 45.2035 68.8511 45.2035Z"
      fill="#1E313F" />
    <path
      d="M68.8511 39.2933C70.1755 39.2933 71.2491 38.2194 71.2491 36.8947C71.2491 35.57 70.1755 34.4961 68.8511 34.4961C67.5267 34.4961 66.4531 35.57 66.4531 36.8947C66.4531 38.2194 67.5267 39.2933 68.8511 39.2933Z"
      fill="#1E313F" />
    <path
      d="M68.8511 33.3969C70.1755 33.3969 71.2491 32.323 71.2491 30.9982C71.2491 29.6735 70.1755 28.5996 68.8511 28.5996C67.5267 28.5996 66.4531 29.6735 66.4531 30.9982C66.4531 32.323 67.5267 33.3969 68.8511 33.3969Z"
      fill="#1E313F" />
    <path
      d="M66.4531 25.09C66.4531 23.7697 67.5311 22.6914 68.8511 22.6914C70.1711 22.6914 71.2491 23.7697 71.2491 25.09C71.2491 26.4104 70.1711 27.4886 68.8511 27.4886C67.5311 27.4886 66.4531 26.4104 66.4531 25.09Z"
      fill="#1E313F" />
    <path
      d="M68.8511 21.5902C70.1755 21.5902 71.2491 20.5163 71.2491 19.1916C71.2491 17.8669 70.1755 16.793 68.8511 16.793C67.5267 16.793 66.4531 17.8669 66.4531 19.1916C66.4531 20.5163 67.5267 21.5902 68.8511 21.5902Z"
      fill="#1E313F" />
    <path
      d="M68.8511 133.721C70.1755 133.721 71.2491 132.647 71.2491 131.322C71.2491 129.998 70.1755 128.924 68.8511 128.924C67.5267 128.924 66.4531 129.998 66.4531 131.322C66.4531 132.647 67.5267 133.721 68.8511 133.721Z"
      fill="#1E313F" />
    <path
      d="M68.8511 127.825C70.1755 127.825 71.2491 126.751 71.2491 125.426C71.2491 124.101 70.1755 123.027 68.8511 123.027C67.5267 123.027 66.4531 124.101 66.4531 125.426C66.4531 126.751 67.5267 127.825 68.8511 127.825Z"
      fill="#1E313F" />
    <path
      d="M68.8511 121.914C70.1755 121.914 71.2491 120.841 71.2491 119.516C71.2491 118.191 70.1755 117.117 68.8511 117.117C67.5267 117.117 66.4531 118.191 66.4531 119.516C66.4531 120.841 67.5267 121.914 68.8511 121.914Z"
      fill="#1E313F" />
    <path
      d="M66.4531 113.617C66.4531 112.297 67.5311 111.219 68.8511 111.219C70.1711 111.219 71.2491 112.297 71.2491 113.617C71.2491 114.938 70.1711 116.016 68.8511 116.016C67.5311 116.016 66.4531 114.938 66.4531 113.617Z"
      fill="#1E313F" />
    <path
      d="M66.4531 107.721C66.4531 106.401 67.5311 105.322 68.8511 105.322C70.1711 105.322 71.2491 106.401 71.2491 107.721C71.2491 109.041 70.1711 110.12 68.8511 110.12C67.5311 110.12 66.4531 109.041 66.4531 107.721Z"
      fill="#1E313F" />
    <path
      d="M66.4531 101.813C66.4531 100.492 67.5311 99.4141 68.8511 99.4141C70.1711 99.4141 71.2491 100.492 71.2491 101.813C71.2491 103.133 70.1711 104.211 68.8511 104.211C67.5311 104.211 66.4531 103.133 66.4531 101.813Z"
      fill="#1E313F" />
    <path
      d="M66.4531 95.9143C66.4531 94.5939 67.5311 93.5156 68.8511 93.5156C70.1711 93.5156 71.2491 94.5939 71.2491 95.9143C71.2491 97.2346 70.1711 98.3129 68.8511 98.3129C67.5311 98.3129 66.4531 97.2346 66.4531 95.9143Z"
      fill="#1E313F" />
    <path
      d="M66.4531 90.006C66.4531 88.6857 67.5311 87.6074 68.8511 87.6074C70.1711 87.6074 71.2491 88.6857 71.2491 90.006C71.2491 91.3264 70.1711 92.4047 68.8511 92.4047C67.5311 92.4047 66.4531 91.3264 66.4531 90.006Z"
      fill="#1E313F" />
    <path
      d="M66.4531 84.1096C66.4531 82.7892 67.5311 81.7109 68.8511 81.7109C70.1711 81.7109 71.2491 82.7892 71.2491 84.1096C71.2491 85.4299 70.1711 86.5082 68.8511 86.5082C67.5311 86.5082 66.4531 85.4299 66.4531 84.1096Z"
      fill="#1E313F" />
    <path
      d="M66.4531 78.2111C66.4531 76.8908 67.5311 75.8125 68.8511 75.8125C70.1711 75.8125 71.2491 76.8908 71.2491 78.2111C71.2491 79.5315 70.1711 80.6097 68.8511 80.6097C67.5311 80.6097 66.4531 79.5315 66.4531 78.2111Z"
      fill="#1E313F" />
    <path
      d="M68.8511 74.7015C70.1755 74.7015 71.2491 73.6276 71.2491 72.3029C71.2491 70.9782 70.1755 69.9043 68.8511 69.9043C67.5267 69.9043 66.4531 70.9782 66.4531 72.3029C66.4531 73.6276 67.5267 74.7015 68.8511 74.7015Z"
      fill="#1E313F" />
    <path
      d="M72.8438 66.4064C72.8438 65.0861 73.9218 64.0078 75.2418 64.0078C76.5618 64.0078 77.6398 65.0861 77.6398 66.4064C77.6398 67.7268 76.5618 68.8051 75.2418 68.8051C73.9218 68.8051 72.8438 67.7268 72.8438 66.4064Z"
      fill="#1E313F" />
    <path
      d="M72.8438 60.508C72.8438 59.1876 73.9218 58.1094 75.2418 58.1094C76.5618 58.1094 77.6398 59.1876 77.6398 60.508C77.6398 61.8283 76.5618 62.9066 75.2418 62.9066C73.9218 62.9066 72.8438 61.8283 72.8438 60.508Z"
      fill="#1E313F" />
    <path
      d="M72.8438 54.5998C72.8438 53.2795 73.9218 52.2012 75.2418 52.2012C76.5618 52.2012 77.6398 53.2795 77.6398 54.5998C77.6398 55.9201 76.5618 56.9984 75.2418 56.9984C73.9218 56.9984 72.8438 55.9201 72.8438 54.5998Z"
      fill="#1E313F" />
    <path
      d="M72.8438 48.7033C72.8438 47.383 73.9218 46.3047 75.2418 46.3047C76.5618 46.3047 77.6398 47.383 77.6398 48.7033C77.6398 50.0237 76.5618 51.1019 75.2418 51.1019C73.9218 51.1019 72.8438 50.0237 72.8438 48.7033Z"
      fill="#1E313F" />
    <path
      d="M75.2418 45.2035C76.5662 45.2035 77.6398 44.1296 77.6398 42.8049C77.6398 41.4802 76.5662 40.4062 75.2418 40.4062C73.9174 40.4062 72.8438 41.4802 72.8438 42.8049C72.8438 44.1296 73.9174 45.2035 75.2418 45.2035Z"
      fill="#1E313F" />
    <path
      d="M75.2418 39.2933C76.5662 39.2933 77.6398 38.2194 77.6398 36.8947C77.6398 35.57 76.5662 34.4961 75.2418 34.4961C73.9174 34.4961 72.8438 35.57 72.8438 36.8947C72.8438 38.2194 73.9174 39.2933 75.2418 39.2933Z"
      fill="#1E313F" />
    <path
      d="M75.2418 33.3969C76.5662 33.3969 77.6398 32.323 77.6398 30.9982C77.6398 29.6735 76.5662 28.5996 75.2418 28.5996C73.9174 28.5996 72.8438 29.6735 72.8438 30.9982C72.8438 32.323 73.9174 33.3969 75.2418 33.3969Z"
      fill="#1E313F" />
    <path
      d="M75.2418 27.4886C76.5662 27.4886 77.6398 26.4147 77.6398 25.09C77.6398 23.7653 76.5662 22.6914 75.2418 22.6914C73.9174 22.6914 72.8438 23.7653 72.8438 25.09C72.8438 26.4147 73.9174 27.4886 75.2418 27.4886Z"
      fill="#1E313F" />
    <path
      d="M75.2418 21.5902C76.5662 21.5902 77.6398 20.5163 77.6398 19.1916C77.6398 17.8669 76.5662 16.793 75.2418 16.793C73.9174 16.793 72.8438 17.8669 72.8438 19.1916C72.8438 20.5163 73.9174 21.5902 75.2418 21.5902Z"
      fill="#1E313F" />
    <path
      d="M72.8438 131.322C72.8438 130.002 73.9218 128.924 75.2418 128.924C76.5618 128.924 77.6398 130.002 77.6398 131.322C77.6398 132.643 76.5618 133.721 75.2418 133.721C73.9218 133.721 72.8438 132.643 72.8438 131.322Z"
      fill="#1E313F" />
    <path
      d="M72.8438 125.426C72.8438 124.106 73.9218 123.027 75.2418 123.027C76.5618 123.027 77.6398 124.106 77.6398 125.426C77.6398 126.746 76.5618 127.825 75.2418 127.825C73.9218 127.825 72.8438 126.746 72.8438 125.426Z"
      fill="#1E313F" />
    <path
      d="M75.2418 121.914C76.5662 121.914 77.6398 120.841 77.6398 119.516C77.6398 118.191 76.5662 117.117 75.2418 117.117C73.9174 117.117 72.8438 118.191 72.8438 119.516C72.8438 120.841 73.9174 121.914 75.2418 121.914Z"
      fill="#1E313F" />
    <path
      d="M75.2418 116.016C76.5662 116.016 77.6398 114.942 77.6398 113.617C77.6398 112.293 76.5662 111.219 75.2418 111.219C73.9174 111.219 72.8438 112.293 72.8438 113.617C72.8438 114.942 73.9174 116.016 75.2418 116.016Z"
      fill="#1E313F" />
    <path
      d="M75.2418 110.12C76.5662 110.12 77.6398 109.046 77.6398 107.721C77.6398 106.396 76.5662 105.322 75.2418 105.322C73.9174 105.322 72.8438 106.396 72.8438 107.721C72.8438 109.046 73.9174 110.12 75.2418 110.12Z"
      fill="#1E313F" />
    <path
      d="M75.2418 104.211C76.5662 104.211 77.6398 103.137 77.6398 101.813C77.6398 100.488 76.5662 99.4141 75.2418 99.4141C73.9174 99.4141 72.8438 100.488 72.8438 101.813C72.8438 103.137 73.9174 104.211 75.2418 104.211Z"
      fill="#1E313F" />
    <path
      d="M75.2418 98.3129C76.5662 98.3129 77.6398 97.239 77.6398 95.9143C77.6398 94.5895 76.5662 93.5156 75.2418 93.5156C73.9174 93.5156 72.8438 94.5895 72.8438 95.9143C72.8438 97.239 73.9174 98.3129 75.2418 98.3129Z"
      fill="#1E313F" />
    <path
      d="M75.2418 92.4047C76.5662 92.4047 77.6398 91.3308 77.6398 90.006C77.6398 88.6813 76.5662 87.6074 75.2418 87.6074C73.9174 87.6074 72.8438 88.6813 72.8438 90.006C72.8438 91.3308 73.9174 92.4047 75.2418 92.4047Z"
      fill="#1E313F" />
    <path
      d="M75.2418 86.5082C76.5662 86.5082 77.6398 85.4343 77.6398 84.1096C77.6398 82.7848 76.5662 81.7109 75.2418 81.7109C73.9174 81.7109 72.8438 82.7848 72.8438 84.1096C72.8438 85.4343 73.9174 86.5082 75.2418 86.5082Z"
      fill="#1E313F" />
    <path
      d="M72.8438 78.2111C72.8438 76.8908 73.9218 75.8125 75.2418 75.8125C76.5618 75.8125 77.6398 76.8908 77.6398 78.2111C77.6398 79.5315 76.5618 80.6097 75.2418 80.6097C73.9218 80.6097 72.8438 79.5315 72.8438 78.2111Z"
      fill="#1E313F" />
    <path
      d="M75.2418 74.7015C76.5662 74.7015 77.6398 73.6276 77.6398 72.3029C77.6398 70.9782 76.5662 69.9043 75.2418 69.9043C73.9174 69.9043 72.8438 70.9782 72.8438 72.3029C72.8438 73.6276 73.9174 74.7015 75.2418 74.7015Z"
      fill="#1E313F" />
    <path
      d="M81.6441 68.8051C82.9685 68.8051 84.0422 67.7312 84.0422 66.4064C84.0422 65.0817 82.9685 64.0078 81.6441 64.0078C80.3197 64.0078 79.2461 65.0817 79.2461 66.4064C79.2461 67.7312 80.3197 68.8051 81.6441 68.8051Z"
      fill="#1E313F" />
    <path
      d="M81.6441 62.9066C82.9685 62.9066 84.0422 61.8327 84.0422 60.508C84.0422 59.1833 82.9685 58.1094 81.6441 58.1094C80.3197 58.1094 79.2461 59.1833 79.2461 60.508C79.2461 61.8327 80.3197 62.9066 81.6441 62.9066Z"
      fill="#1E313F" />
    <path
      d="M81.6441 56.9984C82.9685 56.9984 84.0422 55.9245 84.0422 54.5998C84.0422 53.2751 82.9685 52.2012 81.6441 52.2012C80.3197 52.2012 79.2461 53.2751 79.2461 54.5998C79.2461 55.9245 80.3197 56.9984 81.6441 56.9984Z"
      fill="#1E313F" />
    <path
      d="M81.6441 51.1019C82.9685 51.1019 84.0422 50.028 84.0422 48.7033C84.0422 47.3786 82.9685 46.3047 81.6441 46.3047C80.3197 46.3047 79.2461 47.3786 79.2461 48.7033C79.2461 50.028 80.3197 51.1019 81.6441 51.1019Z"
      fill="#1E313F" />
    <path
      d="M81.6441 45.2035C82.9685 45.2035 84.0422 44.1296 84.0422 42.8049C84.0422 41.4802 82.9685 40.4062 81.6441 40.4062C80.3197 40.4062 79.2461 41.4802 79.2461 42.8049C79.2461 44.1296 80.3197 45.2035 81.6441 45.2035Z"
      fill="#1E313F" />
    <path
      d="M81.6441 39.2933C82.9685 39.2933 84.0422 38.2194 84.0422 36.8947C84.0422 35.57 82.9685 34.4961 81.6441 34.4961C80.3197 34.4961 79.2461 35.57 79.2461 36.8947C79.2461 38.2194 80.3197 39.2933 81.6441 39.2933Z"
      fill="#1E313F" />
    <path
      d="M81.6441 33.3969C82.9685 33.3969 84.0422 32.323 84.0422 30.9982C84.0422 29.6735 82.9685 28.5996 81.6441 28.5996C80.3197 28.5996 79.2461 29.6735 79.2461 30.9982C79.2461 32.323 80.3197 33.3969 81.6441 33.3969Z"
      fill="#1E313F" />
    <path
      d="M79.2461 25.09C79.2461 23.7697 80.3241 22.6914 81.6441 22.6914C82.9642 22.6914 84.0422 23.7697 84.0422 25.09C84.0422 26.4104 82.9642 27.4886 81.6441 27.4886C80.3241 27.4886 79.2461 26.4104 79.2461 25.09Z"
      fill="#1E313F" />
    <path
      d="M81.6441 21.5902C82.9685 21.5902 84.0422 20.5163 84.0422 19.1916C84.0422 17.8669 82.9685 16.793 81.6441 16.793C80.3197 16.793 79.2461 17.8669 79.2461 19.1916C79.2461 20.5163 80.3197 21.5902 81.6441 21.5902Z"
      fill="#1E313F" />
    <path
      d="M81.6441 133.721C82.9685 133.721 84.0422 132.647 84.0422 131.322C84.0422 129.998 82.9685 128.924 81.6441 128.924C80.3197 128.924 79.2461 129.998 79.2461 131.322C79.2461 132.647 80.3197 133.721 81.6441 133.721Z"
      fill="#1E313F" />
    <path
      d="M81.6441 127.825C82.9685 127.825 84.0422 126.751 84.0422 125.426C84.0422 124.101 82.9685 123.027 81.6441 123.027C80.3197 123.027 79.2461 124.101 79.2461 125.426C79.2461 126.751 80.3197 127.825 81.6441 127.825Z"
      fill="#1E313F" />
    <path
      d="M81.6441 121.914C82.9685 121.914 84.0422 120.841 84.0422 119.516C84.0422 118.191 82.9685 117.117 81.6441 117.117C80.3197 117.117 79.2461 118.191 79.2461 119.516C79.2461 120.841 80.3197 121.914 81.6441 121.914Z"
      fill="#1E313F" />
    <path
      d="M81.6441 116.016C82.9685 116.016 84.0422 114.942 84.0422 113.617C84.0422 112.293 82.9685 111.219 81.6441 111.219C80.3197 111.219 79.2461 112.293 79.2461 113.617C79.2461 114.942 80.3197 116.016 81.6441 116.016Z"
      fill="#1E313F" />
    <path
      d="M81.6441 110.12C82.9685 110.12 84.0422 109.046 84.0422 107.721C84.0422 106.396 82.9685 105.322 81.6441 105.322C80.3197 105.322 79.2461 106.396 79.2461 107.721C79.2461 109.046 80.3197 110.12 81.6441 110.12Z"
      fill="#1E313F" />
    <path
      d="M79.2461 101.813C79.2461 100.492 80.3241 99.4141 81.6441 99.4141C82.9642 99.4141 84.0422 100.492 84.0422 101.813C84.0422 103.133 82.9642 104.211 81.6441 104.211C80.3241 104.211 79.2461 103.133 79.2461 101.813Z"
      fill="#1E313F" />
    <path
      d="M79.2461 95.9143C79.2461 94.5939 80.3241 93.5156 81.6441 93.5156C82.9642 93.5156 84.0422 94.5939 84.0422 95.9143C84.0422 97.2346 82.9642 98.3129 81.6441 98.3129C80.3241 98.3129 79.2461 97.2346 79.2461 95.9143Z"
      fill="#1E313F" />
    <path
      d="M79.2461 90.006C79.2461 88.6857 80.3241 87.6074 81.6441 87.6074C82.9642 87.6074 84.0422 88.6857 84.0422 90.006C84.0422 91.3264 82.9642 92.4047 81.6441 92.4047C80.3241 92.4047 79.2461 91.3264 79.2461 90.006Z"
      fill="#1E313F" />
    <path
      d="M79.2461 84.1096C79.2461 82.7892 80.3241 81.7109 81.6441 81.7109C82.9642 81.7109 84.0422 82.7892 84.0422 84.1096C84.0422 85.4299 82.9642 86.5082 81.6441 86.5082C80.3241 86.5082 79.2461 85.4299 79.2461 84.1096Z"
      fill="#1E313F" />
    <path
      d="M79.2461 78.2111C79.2461 76.8908 80.3241 75.8125 81.6441 75.8125C82.9642 75.8125 84.0422 76.8908 84.0422 78.2111C84.0422 79.5315 82.9642 80.6097 81.6441 80.6097C80.3241 80.6097 79.2461 79.5315 79.2461 78.2111Z"
      fill="#1E313F" />
    <path
      d="M81.6441 74.7015C82.9685 74.7015 84.0422 73.6276 84.0422 72.3029C84.0422 70.9782 82.9685 69.9043 81.6441 69.9043C80.3197 69.9043 79.2461 70.9782 79.2461 72.3029C79.2461 73.6276 80.3197 74.7015 81.6441 74.7015Z"
      fill="#1E313F" />
    <path
      d="M36.8843 68.8051C38.2087 68.8051 39.2824 67.7312 39.2824 66.4064C39.2824 65.0817 38.2087 64.0078 36.8843 64.0078C35.56 64.0078 34.4863 65.0817 34.4863 66.4064C34.4863 67.7312 35.56 68.8051 36.8843 68.8051Z"
      fill="#1E313F" />
    <path
      d="M36.8843 62.9066C38.2087 62.9066 39.2824 61.8327 39.2824 60.508C39.2824 59.1833 38.2087 58.1094 36.8843 58.1094C35.56 58.1094 34.4863 59.1833 34.4863 60.508C34.4863 61.8327 35.56 62.9066 36.8843 62.9066Z"
      fill="#1E313F" />
    <path
      d="M36.8843 56.9984C38.2087 56.9984 39.2824 55.9245 39.2824 54.5998C39.2824 53.2751 38.2087 52.2012 36.8843 52.2012C35.56 52.2012 34.4863 53.2751 34.4863 54.5998C34.4863 55.9245 35.56 56.9984 36.8843 56.9984Z"
      fill="#1E313F" />
    <path
      d="M36.8843 51.1019C38.2087 51.1019 39.2824 50.028 39.2824 48.7033C39.2824 47.3786 38.2087 46.3047 36.8843 46.3047C35.56 46.3047 34.4863 47.3786 34.4863 48.7033C34.4863 50.028 35.56 51.1019 36.8843 51.1019Z"
      fill="#1E313F" />
    <path
      d="M36.8843 45.2035C38.2087 45.2035 39.2824 44.1296 39.2824 42.8049C39.2824 41.4802 38.2087 40.4062 36.8843 40.4062C35.56 40.4062 34.4863 41.4802 34.4863 42.8049C34.4863 44.1296 35.56 45.2035 36.8843 45.2035Z"
      fill="#1E313F" />
    <path
      d="M36.8843 39.2933C38.2087 39.2933 39.2824 38.2194 39.2824 36.8947C39.2824 35.57 38.2087 34.4961 36.8843 34.4961C35.56 34.4961 34.4863 35.57 34.4863 36.8947C34.4863 38.2194 35.56 39.2933 36.8843 39.2933Z"
      fill="#1E313F" />
    <path
      d="M34.4863 30.9982C34.4863 29.6779 35.5643 28.5996 36.8843 28.5996C38.2044 28.5996 39.2824 29.6779 39.2824 30.9982C39.2824 32.3186 38.2044 33.3969 36.8843 33.3969C35.5643 33.3969 34.4863 32.3186 34.4863 30.9982Z"
      fill="#1E313F" />
    <path
      d="M34.4863 25.09C34.4863 23.7697 35.5643 22.6914 36.8843 22.6914C38.2044 22.6914 39.2824 23.7697 39.2824 25.09C39.2824 26.4104 38.2044 27.4886 36.8843 27.4886C35.5643 27.4886 34.4863 26.4104 34.4863 25.09Z"
      fill="#1E313F" />
    <path
      d="M34.4863 19.1916C34.4863 17.8712 35.5643 16.793 36.8843 16.793C38.2044 16.793 39.2824 17.8712 39.2824 19.1916C39.2824 20.5119 38.2044 21.5902 36.8843 21.5902C35.5643 21.5902 34.4863 20.5119 34.4863 19.1916Z"
      fill="#1E313F" />
    <path
      d="M36.8843 133.721C38.2087 133.721 39.2824 132.647 39.2824 131.322C39.2824 129.998 38.2087 128.924 36.8843 128.924C35.56 128.924 34.4863 129.998 34.4863 131.322C34.4863 132.647 35.56 133.721 36.8843 133.721Z"
      fill="#1E313F" />
    <path
      d="M36.8843 127.825C38.2087 127.825 39.2824 126.751 39.2824 125.426C39.2824 124.101 38.2087 123.027 36.8843 123.027C35.56 123.027 34.4863 124.101 34.4863 125.426C34.4863 126.751 35.56 127.825 36.8843 127.825Z"
      fill="#1E313F" />
    <path
      d="M36.8843 121.914C38.2087 121.914 39.2824 120.841 39.2824 119.516C39.2824 118.191 38.2087 117.117 36.8843 117.117C35.56 117.117 34.4863 118.191 34.4863 119.516C34.4863 120.841 35.56 121.914 36.8843 121.914Z"
      fill="#1E313F" />
    <path
      d="M36.8843 116.016C38.2087 116.016 39.2824 114.942 39.2824 113.617C39.2824 112.293 38.2087 111.219 36.8843 111.219C35.56 111.219 34.4863 112.293 34.4863 113.617C34.4863 114.942 35.56 116.016 36.8843 116.016Z"
      fill="#1E313F" />
    <path
      d="M36.8843 110.12C38.2087 110.12 39.2824 109.046 39.2824 107.721C39.2824 106.396 38.2087 105.322 36.8843 105.322C35.56 105.322 34.4863 106.396 34.4863 107.721C34.4863 109.046 35.56 110.12 36.8843 110.12Z"
      fill="#1E313F" />
    <path
      d="M36.8843 104.211C38.2087 104.211 39.2824 103.137 39.2824 101.813C39.2824 100.488 38.2087 99.4141 36.8843 99.4141C35.56 99.4141 34.4863 100.488 34.4863 101.813C34.4863 103.137 35.56 104.211 36.8843 104.211Z"
      fill="#1E313F" />
    <path
      d="M36.8843 98.3129C38.2087 98.3129 39.2824 97.239 39.2824 95.9143C39.2824 94.5895 38.2087 93.5156 36.8843 93.5156C35.56 93.5156 34.4863 94.5895 34.4863 95.9143C34.4863 97.239 35.56 98.3129 36.8843 98.3129Z"
      fill="#1E313F" />
    <path
      d="M36.8843 92.4047C38.2087 92.4047 39.2824 91.3308 39.2824 90.006C39.2824 88.6813 38.2087 87.6074 36.8843 87.6074C35.56 87.6074 34.4863 88.6813 34.4863 90.006C34.4863 91.3308 35.56 92.4047 36.8843 92.4047Z"
      fill="#1E313F" />
    <path
      d="M34.4863 84.1096C34.4863 82.7892 35.5643 81.7109 36.8843 81.7109C38.2044 81.7109 39.2824 82.7892 39.2824 84.1096C39.2824 85.4299 38.2044 86.5082 36.8843 86.5082C35.5643 86.5082 34.4863 85.4299 34.4863 84.1096Z"
      fill="#1E313F" />
    <path
      d="M34.4863 78.2111C34.4863 76.8908 35.5643 75.8125 36.8843 75.8125C38.2044 75.8125 39.2824 76.8908 39.2824 78.2111C39.2824 79.5315 38.2044 80.6097 36.8843 80.6097C35.5643 80.6097 34.4863 79.5315 34.4863 78.2111Z"
      fill="#1E313F" />
    <path
      d="M36.8843 74.7015C38.2087 74.7015 39.2824 73.6276 39.2824 72.3029C39.2824 70.9782 38.2087 69.9043 36.8843 69.9043C35.56 69.9043 34.4863 70.9782 34.4863 72.3029C34.4863 73.6276 35.56 74.7015 36.8843 74.7015Z"
      fill="#1E313F" />
    <path
      d="M43.275 68.8051C44.5994 68.8051 45.673 67.7312 45.673 66.4064C45.673 65.0817 44.5994 64.0078 43.275 64.0078C41.9506 64.0078 40.877 65.0817 40.877 66.4064C40.877 67.7312 41.9506 68.8051 43.275 68.8051Z"
      fill="#1E313F" />
    <path
      d="M40.877 60.508C40.877 59.1876 41.955 58.1094 43.275 58.1094C44.595 58.1094 45.673 59.1876 45.673 60.508C45.673 61.8283 44.595 62.9066 43.275 62.9066C41.955 62.9066 40.877 61.8283 40.877 60.508Z"
      fill="#1E313F" />
    <path
      d="M40.877 54.5998C40.877 53.2795 41.955 52.2012 43.275 52.2012C44.595 52.2012 45.673 53.2795 45.673 54.5998C45.673 55.9201 44.595 56.9984 43.275 56.9984C41.955 56.9984 40.877 55.9201 40.877 54.5998Z"
      fill="#1E313F" />
    <path
      d="M40.877 48.7033C40.877 47.383 41.955 46.3047 43.275 46.3047C44.595 46.3047 45.673 47.383 45.673 48.7033C45.673 50.0237 44.595 51.1019 43.275 51.1019C41.955 51.1019 40.877 50.0237 40.877 48.7033Z"
      fill="#1E313F" />
    <path
      d="M40.877 42.8049C40.877 41.4845 41.955 40.4062 43.275 40.4062C44.595 40.4062 45.673 41.4845 45.673 42.8049C45.673 44.1252 44.595 45.2035 43.275 45.2035C41.955 45.2035 40.877 44.1252 40.877 42.8049Z"
      fill="#1E313F" />
    <path
      d="M43.275 39.2933C44.5994 39.2933 45.673 38.2194 45.673 36.8947C45.673 35.57 44.5994 34.4961 43.275 34.4961C41.9506 34.4961 40.877 35.57 40.877 36.8947C40.877 38.2194 41.9506 39.2933 43.275 39.2933Z"
      fill="#1E313F" />
    <path
      d="M43.275 33.3969C44.5994 33.3969 45.673 32.323 45.673 30.9982C45.673 29.6735 44.5994 28.5996 43.275 28.5996C41.9506 28.5996 40.877 29.6735 40.877 30.9982C40.877 32.323 41.9506 33.3969 43.275 33.3969Z"
      fill="#1E313F" />
    <path
      d="M43.275 27.4886C44.5994 27.4886 45.673 26.4147 45.673 25.09C45.673 23.7653 44.5994 22.6914 43.275 22.6914C41.9506 22.6914 40.877 23.7653 40.877 25.09C40.877 26.4147 41.9506 27.4886 43.275 27.4886Z"
      fill="#1E313F" />
    <path
      d="M43.275 21.5902C44.5994 21.5902 45.673 20.5163 45.673 19.1916C45.673 17.8669 44.5994 16.793 43.275 16.793C41.9506 16.793 40.877 17.8669 40.877 19.1916C40.877 20.5163 41.9506 21.5902 43.275 21.5902Z"
      fill="#1E313F" />
    <path
      d="M40.877 131.322C40.877 130.002 41.955 128.924 43.275 128.924C44.595 128.924 45.673 130.002 45.673 131.322C45.673 132.643 44.595 133.721 43.275 133.721C41.955 133.721 40.877 132.643 40.877 131.322Z"
      fill="#1E313F" />
    <path
      d="M43.275 127.825C44.5994 127.825 45.673 126.751 45.673 125.426C45.673 124.101 44.5994 123.027 43.275 123.027C41.9506 123.027 40.877 124.101 40.877 125.426C40.877 126.751 41.9506 127.825 43.275 127.825Z"
      fill="#1E313F" />
    <path
      d="M43.275 121.914C44.5994 121.914 45.673 120.841 45.673 119.516C45.673 118.191 44.5994 117.117 43.275 117.117C41.9506 117.117 40.877 118.191 40.877 119.516C40.877 120.841 41.9506 121.914 43.275 121.914Z"
      fill="#1E313F" />
    <path
      d="M43.275 116.016C44.5994 116.016 45.673 114.942 45.673 113.617C45.673 112.293 44.5994 111.219 43.275 111.219C41.9506 111.219 40.877 112.293 40.877 113.617C40.877 114.942 41.9506 116.016 43.275 116.016Z"
      fill="#1E313F" />
    <path
      d="M43.275 110.12C44.5994 110.12 45.673 109.046 45.673 107.721C45.673 106.396 44.5994 105.322 43.275 105.322C41.9506 105.322 40.877 106.396 40.877 107.721C40.877 109.046 41.9506 110.12 43.275 110.12Z"
      fill="#1E313F" />
    <path
      d="M43.275 104.211C44.5994 104.211 45.673 103.137 45.673 101.813C45.673 100.488 44.5994 99.4141 43.275 99.4141C41.9506 99.4141 40.877 100.488 40.877 101.813C40.877 103.137 41.9506 104.211 43.275 104.211Z"
      fill="#1E313F" />
    <path
      d="M43.275 98.3129C44.5994 98.3129 45.673 97.239 45.673 95.9143C45.673 94.5895 44.5994 93.5156 43.275 93.5156C41.9506 93.5156 40.877 94.5895 40.877 95.9143C40.877 97.239 41.9506 98.3129 43.275 98.3129Z"
      fill="#1E313F" />
    <path
      d="M43.275 92.4047C44.5994 92.4047 45.673 91.3308 45.673 90.006C45.673 88.6813 44.5994 87.6074 43.275 87.6074C41.9506 87.6074 40.877 88.6813 40.877 90.006C40.877 91.3308 41.9506 92.4047 43.275 92.4047Z"
      fill="#1E313F" />
    <path
      d="M43.275 86.5082C44.5994 86.5082 45.673 85.4343 45.673 84.1096C45.673 82.7848 44.5994 81.7109 43.275 81.7109C41.9506 81.7109 40.877 82.7848 40.877 84.1096C40.877 85.4343 41.9506 86.5082 43.275 86.5082Z"
      fill="#1E313F" />
    <path
      d="M43.275 80.6097C44.5994 80.6097 45.673 79.5358 45.673 78.2111C45.673 76.8864 44.5994 75.8125 43.275 75.8125C41.9506 75.8125 40.877 76.8864 40.877 78.2111C40.877 79.5358 41.9506 80.6097 43.275 80.6097Z"
      fill="#1E313F" />
    <path
      d="M40.877 72.3029C40.877 70.9826 41.955 69.9043 43.275 69.9043C44.595 69.9043 45.673 70.9826 45.673 72.3029C45.673 73.6233 44.595 74.7015 43.275 74.7015C41.955 74.7015 40.877 73.6233 40.877 72.3029Z"
      fill="#1E313F" />
    <path
      d="M47.2793 66.4064C47.2793 65.0861 48.3573 64.0078 49.6773 64.0078C50.9974 64.0078 52.0754 65.0861 52.0754 66.4064C52.0754 67.7268 50.9974 68.8051 49.6773 68.8051C48.3573 68.8051 47.2793 67.7268 47.2793 66.4064Z"
      fill="#1E313F" />
    <path
      d="M49.6773 62.9066C51.0017 62.9066 52.0754 61.8327 52.0754 60.508C52.0754 59.1833 51.0017 58.1094 49.6773 58.1094C48.353 58.1094 47.2793 59.1833 47.2793 60.508C47.2793 61.8327 48.353 62.9066 49.6773 62.9066Z"
      fill="#1E313F" />
    <path
      d="M49.6773 56.9984C51.0017 56.9984 52.0754 55.9245 52.0754 54.5998C52.0754 53.2751 51.0017 52.2012 49.6773 52.2012C48.353 52.2012 47.2793 53.2751 47.2793 54.5998C47.2793 55.9245 48.353 56.9984 49.6773 56.9984Z"
      fill="#1E313F" />
    <path
      d="M49.6773 51.1019C51.0017 51.1019 52.0754 50.028 52.0754 48.7033C52.0754 47.3786 51.0017 46.3047 49.6773 46.3047C48.353 46.3047 47.2793 47.3786 47.2793 48.7033C47.2793 50.028 48.353 51.1019 49.6773 51.1019Z"
      fill="#1E313F" />
    <path
      d="M49.6773 45.2035C51.0017 45.2035 52.0754 44.1296 52.0754 42.8049C52.0754 41.4802 51.0017 40.4062 49.6773 40.4062C48.353 40.4062 47.2793 41.4802 47.2793 42.8049C47.2793 44.1296 48.353 45.2035 49.6773 45.2035Z"
      fill="#1E313F" />
    <path
      d="M47.2793 36.8947C47.2793 35.5744 48.3573 34.4961 49.6773 34.4961C50.9974 34.4961 52.0754 35.5744 52.0754 36.8947C52.0754 38.2151 50.9974 39.2933 49.6773 39.2933C48.3573 39.2933 47.2793 38.2151 47.2793 36.8947Z"
      fill="#1E313F" />
    <path
      d="M47.2793 30.9982C47.2793 29.6779 48.3573 28.5996 49.6773 28.5996C50.9974 28.5996 52.0754 29.6779 52.0754 30.9982C52.0754 32.3186 50.9974 33.3969 49.6773 33.3969C48.3573 33.3969 47.2793 32.3186 47.2793 30.9982Z"
      fill="#1E313F" />
    <path
      d="M47.2793 25.09C47.2793 23.7697 48.3573 22.6914 49.6773 22.6914C50.9974 22.6914 52.0754 23.7697 52.0754 25.09C52.0754 26.4104 50.9974 27.4886 49.6773 27.4886C48.3573 27.4886 47.2793 26.4104 47.2793 25.09Z"
      fill="#1E313F" />
    <path
      d="M47.2793 19.1916C47.2793 17.8712 48.3573 16.793 49.6773 16.793C50.9974 16.793 52.0754 17.8712 52.0754 19.1916C52.0754 20.5119 50.9974 21.5902 49.6773 21.5902C48.3573 21.5902 47.2793 20.5119 47.2793 19.1916Z"
      fill="#1E313F" />
    <path
      d="M47.2793 131.322C47.2793 130.002 48.3573 128.924 49.6773 128.924C50.9974 128.924 52.0754 130.002 52.0754 131.322C52.0754 132.643 50.9974 133.721 49.6773 133.721C48.3573 133.721 47.2793 132.643 47.2793 131.322Z"
      fill="#1E313F" />
    <path
      d="M49.6773 127.825C51.0017 127.825 52.0754 126.751 52.0754 125.426C52.0754 124.101 51.0017 123.027 49.6773 123.027C48.353 123.027 47.2793 124.101 47.2793 125.426C47.2793 126.751 48.353 127.825 49.6773 127.825Z"
      fill="#1E313F" />
    <path
      d="M49.6773 121.914C51.0017 121.914 52.0754 120.841 52.0754 119.516C52.0754 118.191 51.0017 117.117 49.6773 117.117C48.353 117.117 47.2793 118.191 47.2793 119.516C47.2793 120.841 48.353 121.914 49.6773 121.914Z"
      fill="#1E313F" />
    <path
      d="M49.6773 116.016C51.0017 116.016 52.0754 114.942 52.0754 113.617C52.0754 112.293 51.0017 111.219 49.6773 111.219C48.353 111.219 47.2793 112.293 47.2793 113.617C47.2793 114.942 48.353 116.016 49.6773 116.016Z"
      fill="#1E313F" />
    <path
      d="M49.6773 110.12C51.0017 110.12 52.0754 109.046 52.0754 107.721C52.0754 106.396 51.0017 105.322 49.6773 105.322C48.353 105.322 47.2793 106.396 47.2793 107.721C47.2793 109.046 48.353 110.12 49.6773 110.12Z"
      fill="#1E313F" />
    <path
      d="M49.6773 104.211C51.0017 104.211 52.0754 103.137 52.0754 101.813C52.0754 100.488 51.0017 99.4141 49.6773 99.4141C48.353 99.4141 47.2793 100.488 47.2793 101.813C47.2793 103.137 48.353 104.211 49.6773 104.211Z"
      fill="#1E313F" />
    <path
      d="M49.6773 98.3129C51.0017 98.3129 52.0754 97.239 52.0754 95.9143C52.0754 94.5895 51.0017 93.5156 49.6773 93.5156C48.353 93.5156 47.2793 94.5895 47.2793 95.9143C47.2793 97.239 48.353 98.3129 49.6773 98.3129Z"
      fill="#1E313F" />
    <path
      d="M47.2793 90.006C47.2793 88.6857 48.3573 87.6074 49.6773 87.6074C50.9974 87.6074 52.0754 88.6857 52.0754 90.006C52.0754 91.3264 50.9974 92.4047 49.6773 92.4047C48.3573 92.4047 47.2793 91.3264 47.2793 90.006Z"
      fill="#1E313F" />
    <path
      d="M49.6773 86.5082C51.0017 86.5082 52.0754 85.4343 52.0754 84.1096C52.0754 82.7848 51.0017 81.7109 49.6773 81.7109C48.353 81.7109 47.2793 82.7848 47.2793 84.1096C47.2793 85.4343 48.353 86.5082 49.6773 86.5082Z"
      fill="#1E313F" />
    <path
      d="M49.6773 80.6097C51.0017 80.6097 52.0754 79.5358 52.0754 78.2111C52.0754 76.8864 51.0017 75.8125 49.6773 75.8125C48.353 75.8125 47.2793 76.8864 47.2793 78.2111C47.2793 79.5358 48.353 80.6097 49.6773 80.6097Z"
      fill="#1E313F" />
    <path
      d="M47.2793 72.3029C47.2793 70.9826 48.3573 69.9043 49.6773 69.9043C50.9974 69.9043 52.0754 70.9826 52.0754 72.3029C52.0754 73.6233 50.9974 74.7015 49.6773 74.7015C48.3573 74.7015 47.2793 73.6233 47.2793 72.3029Z"
      fill="#1E313F" />
    <path
      d="M53.6699 66.4064C53.6699 65.0861 54.748 64.0078 56.068 64.0078C57.388 64.0078 58.466 65.0861 58.466 66.4064C58.466 67.7268 57.388 68.8051 56.068 68.8051C54.748 68.8051 53.6699 67.7268 53.6699 66.4064Z"
      fill="#1E313F" />
    <path
      d="M53.6699 60.508C53.6699 59.1876 54.748 58.1094 56.068 58.1094C57.388 58.1094 58.466 59.1876 58.466 60.508C58.466 61.8283 57.388 62.9066 56.068 62.9066C54.748 62.9066 53.6699 61.8283 53.6699 60.508Z"
      fill="#1E313F" />
    <path
      d="M53.6699 54.5998C53.6699 53.2795 54.748 52.2012 56.068 52.2012C57.388 52.2012 58.466 53.2795 58.466 54.5998C58.466 55.9201 57.388 56.9984 56.068 56.9984C54.748 56.9984 53.6699 55.9201 53.6699 54.5998Z"
      fill="#1E313F" />
    <path
      d="M53.6699 48.7033C53.6699 47.383 54.748 46.3047 56.068 46.3047C57.388 46.3047 58.466 47.383 58.466 48.7033C58.466 50.0237 57.388 51.1019 56.068 51.1019C54.748 51.1019 53.6699 50.0237 53.6699 48.7033Z"
      fill="#1E313F" />
    <path
      d="M56.068 45.2035C57.3924 45.2035 58.466 44.1296 58.466 42.8049C58.466 41.4802 57.3924 40.4062 56.068 40.4062C54.7436 40.4062 53.6699 41.4802 53.6699 42.8049C53.6699 44.1296 54.7436 45.2035 56.068 45.2035Z"
      fill="#1E313F" />
    <path
      d="M56.068 39.2933C57.3924 39.2933 58.466 38.2194 58.466 36.8947C58.466 35.57 57.3924 34.4961 56.068 34.4961C54.7436 34.4961 53.6699 35.57 53.6699 36.8947C53.6699 38.2194 54.7436 39.2933 56.068 39.2933Z"
      fill="#1E313F" />
    <path
      d="M56.068 33.3969C57.3924 33.3969 58.466 32.323 58.466 30.9982C58.466 29.6735 57.3924 28.5996 56.068 28.5996C54.7436 28.5996 53.6699 29.6735 53.6699 30.9982C53.6699 32.323 54.7436 33.3969 56.068 33.3969Z"
      fill="#1E313F" />
    <path
      d="M56.068 27.4886C57.3924 27.4886 58.466 26.4147 58.466 25.09C58.466 23.7653 57.3924 22.6914 56.068 22.6914C54.7436 22.6914 53.6699 23.7653 53.6699 25.09C53.6699 26.4147 54.7436 27.4886 56.068 27.4886Z"
      fill="#1E313F" />
    <path
      d="M56.068 21.5902C57.3924 21.5902 58.466 20.5163 58.466 19.1916C58.466 17.8669 57.3924 16.793 56.068 16.793C54.7436 16.793 53.6699 17.8669 53.6699 19.1916C53.6699 20.5163 54.7436 21.5902 56.068 21.5902Z"
      fill="#1E313F" />
    <path
      d="M56.068 133.721C57.3924 133.721 58.466 132.647 58.466 131.322C58.466 129.998 57.3924 128.924 56.068 128.924C54.7436 128.924 53.6699 129.998 53.6699 131.322C53.6699 132.647 54.7436 133.721 56.068 133.721Z"
      fill="#1E313F" />
    <path
      d="M53.6699 125.426C53.6699 124.106 54.748 123.027 56.068 123.027C57.388 123.027 58.466 124.106 58.466 125.426C58.466 126.746 57.388 127.825 56.068 127.825C54.748 127.825 53.6699 126.746 53.6699 125.426Z"
      fill="#1E313F" />
    <path
      d="M56.068 121.914C57.3924 121.914 58.466 120.841 58.466 119.516C58.466 118.191 57.3924 117.117 56.068 117.117C54.7436 117.117 53.6699 118.191 53.6699 119.516C53.6699 120.841 54.7436 121.914 56.068 121.914Z"
      fill="#1E313F" />
    <path
      d="M56.068 116.016C57.3924 116.016 58.466 114.942 58.466 113.617C58.466 112.293 57.3924 111.219 56.068 111.219C54.7436 111.219 53.6699 112.293 53.6699 113.617C53.6699 114.942 54.7436 116.016 56.068 116.016Z"
      fill="#1E313F" />
    <path
      d="M56.068 110.12C57.3924 110.12 58.466 109.046 58.466 107.721C58.466 106.396 57.3924 105.322 56.068 105.322C54.7436 105.322 53.6699 106.396 53.6699 107.721C53.6699 109.046 54.7436 110.12 56.068 110.12Z"
      fill="#1E313F" />
    <path
      d="M56.068 104.211C57.3924 104.211 58.466 103.137 58.466 101.813C58.466 100.488 57.3924 99.4141 56.068 99.4141C54.7436 99.4141 53.6699 100.488 53.6699 101.813C53.6699 103.137 54.7436 104.211 56.068 104.211Z"
      fill="#1E313F" />
    <path
      d="M56.068 98.3129C57.3924 98.3129 58.466 97.239 58.466 95.9143C58.466 94.5895 57.3924 93.5156 56.068 93.5156C54.7436 93.5156 53.6699 94.5895 53.6699 95.9143C53.6699 97.239 54.7436 98.3129 56.068 98.3129Z"
      fill="#1E313F" />
    <path
      d="M56.068 92.4047C57.3924 92.4047 58.466 91.3308 58.466 90.006C58.466 88.6813 57.3924 87.6074 56.068 87.6074C54.7436 87.6074 53.6699 88.6813 53.6699 90.006C53.6699 91.3308 54.7436 92.4047 56.068 92.4047Z"
      fill="#1E313F" />
    <path
      d="M56.068 86.5082C57.3924 86.5082 58.466 85.4343 58.466 84.1096C58.466 82.7848 57.3924 81.7109 56.068 81.7109C54.7436 81.7109 53.6699 82.7848 53.6699 84.1096C53.6699 85.4343 54.7436 86.5082 56.068 86.5082Z"
      fill="#1E313F" />
    <path
      d="M56.068 80.6097C57.3924 80.6097 58.466 79.5358 58.466 78.2111C58.466 76.8864 57.3924 75.8125 56.068 75.8125C54.7436 75.8125 53.6699 76.8864 53.6699 78.2111C53.6699 79.5358 54.7436 80.6097 56.068 80.6097Z"
      fill="#1E313F" />
    <path
      d="M53.6699 72.3029C53.6699 70.9826 54.748 69.9043 56.068 69.9043C57.388 69.9043 58.466 70.9826 58.466 72.3029C58.466 73.6233 57.388 74.7015 56.068 74.7015C54.748 74.7015 53.6699 73.6233 53.6699 72.3029Z"
      fill="#1E313F" />
  </g>
</svg>