<svg viewBox="0 0 288 568" fill="none" xmlns="http://www.w3.org/2000/svg">
  <mask id="mask0_218_13278" style="mask-type:luminance" maskUnits="userSpaceOnUse" x="0" y="0"
    width="288" height="568">
    <path d="M288 0H0V568H288V0Z" fill="white" />
  </mask>
  <g mask="url(#mask0_218_13278)">
    <path
      d="M211.402 325.419L193.861 310.304L197.554 294.111L220.238 205.958L288.465 95.5117L320.084 112.705L288.465 159.931L209.094 288.406L300.741 286.284L334.822 310.282L349.714 325.419L378.618 349.549L286.707 475.825L257.264 455.521L288.476 413.704V381.341L217.347 360.839L204.654 348.768L211.402 325.419Z"
      fill="#1E313F" />
    <path
      d="M288.478 565C443.772 565 569.663 439.077 569.663 283.744C569.663 128.411 443.772 2.48828 288.478 2.48828C133.184 2.48828 7.29297 128.411 7.29297 283.744C7.29297 439.077 133.184 565 288.478 565Z"
      fill="#1A82FF" />
    <path opacity="0.2"
      d="M464.225 458.368C560.642 361.278 560.114 204.386 463.049 107.945C365.983 11.5031 209.13 12.0308 112.713 109.121L464.214 458.368H464.225Z"
      fill="white" />
    <path
      d="M301.9 395.575C297.493 396.114 293.02 396.422 288.47 396.422C227.243 396.422 177.435 346.601 177.435 285.359C177.435 236.375 209.318 194.722 253.411 180.002L285.92 127.291C199.932 128.665 130.408 199.031 130.408 285.359C130.408 365.641 190.547 432.138 268.127 442.152L301.9 395.575Z"
      fill="white" />
    <path
      d="M177.435 285.359C177.435 236.375 209.318 194.722 253.411 180.002L285.92 127.291C199.932 128.665 130.408 199.031 130.408 285.359H177.435Z"
      fill="url(#paint0_linear_218_13278)" />
    <path
      d="M307.758 128.426L279.217 174.706C282.272 174.453 285.36 174.289 288.482 174.289C349.708 174.289 399.516 224.109 399.516 285.351C399.516 332.071 370.513 372.119 329.574 388.498L289.734 443.441C376.316 442.76 446.543 372.119 446.543 285.351C446.543 204.695 385.855 137.968 307.758 128.426Z"
      fill="white" />
    <path
      d="M213.162 310.171L288.478 353.582L363.838 310.171L288.478 413.703L213.162 310.171ZM209.096 288.405L288.467 159.93L367.839 288.405L288.467 334.18L209.096 288.405Z"
      fill="white" />
    <path opacity="0.1" d="M288.687 158.156L209.326 289.874L288.687 336.803V253.795V158.156Z"
      fill="#1A82FF" />
    <path opacity="0.1"
      d="M288.687 351.83L287.709 353.017V413.94L288.687 416.787L368.092 304.934L288.687 351.83Z"
      fill="#1A82FF" />
    <path opacity="0.1" d="M209.326 289.874L288.687 336.803V253.795L209.326 289.874Z" fill="#1A82FF" />
  </g>
  <defs>
    <linearGradient id="paint0_linear_218_13278" x1="388.173" y1="49.2407" x2="159.583" y2="243.991"
      gradientUnits="userSpaceOnUse">
      <stop stop-color="#1A82FF" stop-opacity="0.5" />
      <stop offset="1" stop-color="white" />
    </linearGradient>
  </defs>
</svg>