<svg width="550" height="76" viewBox="0 0 550 76" fill="none" xmlns="http://www.w3.org/2000/svg">
<path d="M113.58 73.9278L99.2649 49.3126C98.9368 49.3126 98.7317 49.3126 98.4445 49.3126H87.5336V73.9278H73.2592V1.80813H98.4445C116.124 1.80813 126.706 11.383 126.706 25.8891C126.706 35.7927 121.866 42.9841 113.129 46.6004L129.578 73.8867H113.58V73.9278ZM87.5746 36.5324H100.331C108.248 36.5324 111.94 31.3957 111.94 25.9302C111.94 20.2592 108.125 15.2047 100.331 15.2047H87.5746V36.5324ZM136.141 73.9278V1.80813H150.415V73.8867H136.141V73.9278ZM216.619 66.4076C212.722 70.8457 204.19 75.366 194.838 75.366C174.165 75.366 157.511 59.6271 157.511 37.8885C157.511 16.1499 174.165 0.410938 194.838 0.410938C209.113 0.53422 221.049 7.93111 227.53 19.4785L212.927 23.3002C209.031 17.958 201.934 14.5472 194.838 14.5472C181.384 14.5472 172.442 24.2453 172.442 37.9296C172.442 52.2302 182.328 61.3941 195.659 61.3941C208.005 61.3941 214.486 54.6137 216.742 49.0249V45.9429H196.807V34.2722H228.966V73.9278H216.619C216.619 67.9692 216.742 66.5309 216.742 66.4076H216.619ZM239.015 73.9278V1.80813H253.29V73.8867H239.015V73.9278ZM327 1.80813V73.8867H313.546L293.078 46.0662C286.597 37.1899 278.68 25.8891 278.598 25.8891H278.475C278.393 25.8891 278.598 36.2858 278.598 50.5865V73.8456H264.324V1.80813H277.778L298.656 29.9163C303.578 36.4091 312.643 49.2715 312.726 49.2715H312.849C312.972 49.2715 312.726 37.5186 312.726 25.396V1.80813H327ZM63.0455 18.5744L51.3963 30.245C51.8475 32.5463 52.0936 35.0941 52.0936 37.8474C52.0936 52.6001 45.1614 61.4352 33.5532 61.4352C28.713 61.4352 24.6522 59.8737 21.5758 56.9149L61.938 16.4786C60.8715 14.5472 59.641 12.7802 58.2464 11.1364C57.6721 10.4378 57.0568 9.82142 56.4415 9.16392C56.3595 9.08173 56.2775 8.99954 56.1954 8.91736C55.9903 8.75298 55.8263 8.54751 55.6212 8.38314C49.7145 2.87657 42.2081 0 33.5532 0C23.5857 0 15.0538 3.82172 8.94205 11.0953C3.15843 17.958 0 27.4507 0 37.8474C0 44.7512 1.39463 51.244 4.01982 56.8327L15.7511 45.0799C15.3409 42.8608 15.1359 40.4363 15.1359 37.8063C15.1359 31.0258 16.5305 25.5193 19.2377 21.451C22.4372 16.7252 27.4004 14.2185 33.5532 14.2185C38.3524 14.2185 42.3722 15.7389 45.4075 18.5744L5.12732 58.9285C6.23482 60.9421 7.5064 62.8324 8.94205 64.5173C9.22918 64.846 9.51631 65.1748 9.84446 65.5035C10.1726 65.8734 10.5418 66.2432 10.9109 66.6131C10.952 66.6542 10.993 66.6953 11.034 66.7363C11.157 66.8596 11.2391 66.9829 11.3621 67.0651C17.2278 72.6539 24.8162 75.6126 33.5532 75.6126C43.5617 75.6126 52.0936 71.7909 58.2464 64.5173C64.03 57.6546 67.2294 48.203 67.2294 37.8063C67.2294 30.8204 65.7528 24.2043 63.0455 18.5744Z" fill="#0074F0"/>
<path d="M380.822 2.25311H352V74.3553H380.629C400.775 74.3553 416.005 61.0531 416.005 38.3042C416.005 15.5554 400.968 2.25311 380.822 2.25311ZM380.822 12.0852C394.895 12.0852 404.534 21.0498 404.534 38.3042C404.534 55.5586 394.702 64.5232 380.725 64.5232H363.374V12.0852H380.822Z" fill="white"/>
<path d="M472.063 48.4255C472.063 33.3882 463.098 24.038 448.928 24.038C434.566 24.038 424.251 33.581 424.251 49.6786C424.251 65.6799 434.662 75.3193 449.217 75.3193C460.688 75.3193 469.653 68.2826 471.581 59.5108L460.688 58.9324C459.339 63.3665 455.194 65.9691 448.928 65.9691C441.409 65.9691 436.301 61.2458 435.722 53.7272H472.063V48.4255ZM448.832 33.2918C456.832 33.2918 460.881 38.1114 461.17 45.2445H435.819C436.301 37.5331 441.602 33.2918 448.832 33.2918Z" fill="white"/>
<path d="M527.599 2.25311H482.294V74.3553H493.765V42.6419H521.719V32.5206H493.765V12.3744H527.599V2.25311Z" fill="white"/>
<path d="M542.224 1C538.561 1 535.477 3.9882 535.477 7.74753C535.477 11.5069 538.465 14.4951 542.224 14.4951C545.984 14.4951 549.068 11.5069 549.068 7.74753C549.068 3.9882 545.984 1 542.224 1ZM547.622 24.9056H536.826V74.3553H547.622V24.9056Z" fill="white"/>
</svg>
