<svg width="28" height="28" viewBox="0 0 28 28" fill="none"
  xmlns="http://www.w3.org/2000/svg">
  <mask id="mask0_395_16279" style="mask-type:luminance" maskUnits="userSpaceOnUse" x="0" y="0" width="28" height="28">
    <path fill-rule="evenodd" clip-rule="evenodd" d="M0 0H28V28H0V0Z" fill="white"/>
  </mask>
  <g mask="url(#mask0_395_16279)">
    <path fill-rule="evenodd" clip-rule="evenodd" d="M13.9531 8.01772e-05C21.685 -0.0258087 27.974 6.22114 27.9999 13.9531C28.0258 21.685 21.7789 27.974 14.0469 27.9999C6.31497 28.0258 0.0260034 21.7789 8.01772e-05 14.0469C-0.0258087 6.31497 6.22114 0.025969 13.9531 8.01772e-05Z" fill="#030C17"/>
  </g>
  <path opacity="0.1" fill-rule="evenodd" clip-rule="evenodd" d="M22.7499 22.6889C27.5495 17.855 27.5254 10.0471 22.6915 5.24748C17.8575 0.447903 10.0496 0.471969 5.25 5.30593L22.7499 22.6889Z" fill="white"/>
  <path fill-rule="evenodd" clip-rule="evenodd" d="M21.5672 9.82957L19.9753 8.22398L19.1089 9.10413C19.1055 9.10069 19.1021 9.09725 19.0986 9.09381L18.3938 9.8055L14.0584 14.1994L11.3148 11.418C10.7475 12.0093 10.3727 12.7863 10.2902 13.6459L14.0584 17.4656L18.3217 13.1439C18.3766 13.4189 18.4041 13.7043 18.4041 13.9965C18.4041 16.4238 16.4272 18.4007 13.9999 18.4007C11.5726 18.4007 9.59574 16.4238 9.59574 13.9965C9.59574 11.5692 11.5726 9.59234 13.9999 9.59234C14.997 9.59234 15.9184 9.92583 16.6576 10.4862L18.5451 8.57122C17.3143 7.5398 15.7293 6.91406 13.9999 6.91406C10.0977 6.91406 6.9209 10.0909 6.9209 13.9931C6.9209 17.8988 10.0977 21.0721 13.9999 21.0721C17.9022 21.0721 21.079 17.8953 21.079 13.9931C21.079 12.9204 20.8383 11.9062 20.412 10.9951L21.5672 9.82957Z" fill="white"/>
  <mask id="mask1_395_16279" style="mask-type:luminance" maskUnits="userSpaceOnUse" x="10" y="11" width="5" height="7">
    <path fill-rule="evenodd" clip-rule="evenodd" d="M10.2939 13.642L14.0587 17.4617H14.0621V14.1955L11.3185 11.4141C10.7512 12.0054 10.3765 12.779 10.2939 13.642Z" fill="white"/>
  </mask>
  <g mask="url(#mask1_395_16279)">
    <path fill-rule="evenodd" clip-rule="evenodd" d="M10.2939 13.642L14.0587 17.4617H14.0621V14.1955L11.3185 11.4141C10.7512 12.0054 10.3765 12.779 10.2939 13.642Z" fill="url(#paint0_linear_395_16279)"/>
  </g>
  <defs>
    <linearGradient id="paint0_linear_395_16279" x1="8.40754" y1="14.149" x2="12.354" y2="15.5232" gradientUnits="userSpaceOnUse">
      <stop stop-color="#1C313F"/>
      <stop offset="1" stop-color="white"/>
    </linearGradient>
  </defs>
</svg>
