<svg width="28" height="28" viewBox="0 0 28 28" fill="none"
  xmlns="http://www.w3.org/2000/svg">
  <g id="Group 4072">
    <path id="Vector" d="M15.0322 8.35885e-05C7.89256 0.0223057 2.12433 5.82863 2.14655 12.9683C2.14972 14.3111 2.35925 15.6032 2.74337 16.8191C3.56242 16.4286 4.47987 16.2064 5.44812 16.2064C8.91478 16.2064 11.7338 19.0254 11.7338 22.4921C11.7338 23.473 11.5084 24.4032 11.1052 25.2317C12.3687 25.6381 13.7179 25.8571 15.1179 25.8508C22.2576 25.8254 28.0258 20.0191 28.0004 12.8794C27.975 5.73975 22.1687 -0.0253132 15.0322 8.35885e-05Z" fill="#030C17"/>
    <path id="Vector_2" opacity="0.2" d="M23.1528 20.9525C27.5845 16.4891 27.5623 9.27957 23.0988 4.84784C18.6354 0.416112 11.4259 0.438334 6.99414 4.90181L23.1528 20.9525Z" fill="white"/>
    <path id="Vector_3" d="M22.0609 9.07487L20.591 7.59233L19.791 8.40503C19.7879 8.40185 19.7847 8.39868 19.7815 8.3955L19.1307 9.05264L15.1276 13.1098L12.5942 10.5415C12.0704 11.0876 11.7244 11.805 11.6482 12.5987L15.1276 16.1256L19.0641 12.1352C19.1149 12.3891 19.1402 12.6526 19.1402 12.9225C19.1402 15.1637 17.3149 16.9891 15.0736 16.9891C12.8323 16.9891 11.0069 15.1637 11.0069 12.9225C11.0069 10.6812 12.8323 8.85582 15.0736 8.85582C15.9942 8.85582 16.845 9.16376 17.5276 9.68121L19.2704 7.91297C18.1339 6.96059 16.6704 6.38281 15.0736 6.38281C11.4704 6.38281 8.53711 9.31614 8.53711 12.9193C8.53711 16.5256 11.4704 19.4558 15.0736 19.4558C18.6768 19.4558 21.6101 16.5225 21.6101 12.9193C21.6101 11.9288 21.3879 10.9923 20.9942 10.1511L22.0609 9.07487Z" fill="white"/>
    <path id="Vector_4" d="M15.1266 16.1232L11.6504 12.5962C11.7266 11.7994 12.0726 11.0851 12.5964 10.5391L15.1297 13.1073V16.1232H15.1266Z" fill="url(#paint0_linear_395_16379)"/>
    <path id="Vector_5" d="M5.4476 17.0469C2.44444 17.0469 0 19.4913 0 22.4945C0 25.4976 2.44444 27.9421 5.4476 27.9421C8.45076 27.9421 10.8952 25.4976 10.8952 22.4945C10.8952 19.4913 8.45394 17.0469 5.4476 17.0469Z" fill="#00C483"/>
    <g id="Group">
      <path id="Vector_6" d="M2.8834 20.5781L3.75641 23.4892L4.62307 20.5781H6.03259L4.6072 24.8099H2.89292L1.4707 20.5781H2.8834Z" fill="white"/>
      <path id="Vector_7" d="M7.65462 21.6289V22.1559H8.97207V23.1527H7.65779V23.7495H9.15302V24.8099H6.33398V20.5781H9.15302V21.6289H7.65462Z" fill="white"/>
    </g>
  </g>
  <defs>
    <linearGradient id="paint0_linear_395_16379" x1="10.7778" y1="10.5668" x2="13.8912" y2="13.3592" gradientUnits="userSpaceOnUse">
      <stop stop-color="#1D313F"/>
      <stop offset="1" stop-color="white"/>
    </linearGradient>
  </defs>
</svg>
