<svg viewBox="0 0 12 12" fill="none"
  xmlns="http://www.w3.org/2000/svg">
  <path fill-rule="evenodd" clip-rule="evenodd" d="M4.40911 0.75C4.63737 0.75 4.84002 0.894601 4.9122 1.10898L7.59093 9.0648L8.67875 5.83398C8.75093 5.6196 8.95358 5.475 9.18184 5.475H11.3031C11.5959 5.475 11.8334 5.71005 11.8334 6C11.8334 6.28995 11.5959 6.525 11.3031 6.525H9.56406L8.09402 10.891C8.02184 11.1054 7.81919 11.25 7.59093 11.25C7.36267 11.25 7.16002 11.1054 7.08784 10.891L4.40911 2.9352L3.32129 6.16602C3.24911 6.3804 3.04646 6.525 2.8182 6.525H0.69699C0.404112 6.525 0.166687 6.28995 0.166687 6C0.166687 5.71005 0.404112 5.475 0.69699 5.475H2.43598L3.90602 1.10898C3.9782 0.894601 4.18085 0.75 4.40911 0.75Z" fill="currentColor"/>
</svg>
