<svg fill="none"
  xmlns="http://www.w3.org/2000/svg" viewBox="10.67 10.66 10.67 10.67">
  <path d="M20.3527 10.6641H14.8329C14.2788 10.6641 13.8525 11.1112 13.8525 11.6435C13.8525 12.1758 14.3001 12.623 14.8329 12.623H17.9658L10.9542 19.6489C10.5706 20.032 10.5706 20.6495 10.9542 21.0327C11.1459 21.2243 11.4018 21.3307 11.6574 21.3307C11.9131 21.3307 12.169 21.2242 12.3607 21.0327L19.3723 14.0281V17.1578C19.3723 17.7113 19.82 18.1372 20.3528 18.1372C20.9068 18.1372 21.3332 17.69 21.3332 17.1578L21.333 11.6435C21.333 11.09 20.9068 10.6642 20.3528 10.6642L20.3527 10.6641Z" fill="url(#paint0_linear_1120_45816)"></path>
  <defs>
    <linearGradient id="paint0_linear_1120_45816" x1="7.5738" y1="15.9974" x2="26.13" y2="15.9974" gradientUnits="userSpaceOnUse">
      <stop stop-color="#8C66FC"></stop>
      <stop offset="1" stop-color="#0274F1"></stop>
    </linearGradient>
  </defs>
</svg>