<svg viewBox="0 0 16 16" fill="none"
  xmlns="http://www.w3.org/2000/svg">
  <g clip-path="url(#clip0_4776_91781)">
    <path d="M8 1.5C4.40937 1.5 1.5 4.40938 1.5 8C1.5 8.41563 1.16562 8.75 0.75 8.75C0.334375 8.75 -3.31524e-07 8.41563 -3.49691e-07 8C-5.42841e-07 3.58125 3.58125 -1.56541e-07 8 -3.49691e-07C12.4187 -5.42841e-07 16 3.58125 16 8C16 8.41562 15.6656 8.75 15.25 8.75C14.8344 8.75 14.5 8.41562 14.5 8C14.5 4.40937 11.5906 1.5 8 1.5ZM4.2 12.2594C3.91875 11.9563 3.93437 11.4812 4.24062 11.2C4.54687 10.9187 5.01875 10.9344 5.3 11.2406L7.25 13.3406L7.25 5.75C7.25 5.33438 7.58437 5 8 5C8.41562 5 8.75 5.33437 8.75 5.75L8.75 13.3406L10.7 11.2406C10.9812 10.9375 11.4562 10.9187 11.7594 11.2C12.0625 11.4812 12.0813 11.9562 11.8 12.2594L8.55 15.7594C8.40625 15.9125 8.20938 16 8 16C7.79063 16 7.59375 15.9125 7.45 15.7594L4.2 12.2594Z" fill="currentColor"/>
  </g>
  <defs>
    <clipPath id="clip0_4776_91781">
      <rect width="16" height="16" fill="white"/>
    </clipPath>
  </defs>
</svg>
