<svg viewBox="0 0 14 14" fill="none"
  xmlns="http://www.w3.org/2000/svg">
  <g clip-path="url(#clip0_3350_738)">
    <path fill-rule="evenodd" clip-rule="evenodd" d="M2.89807 3.72294C2.17962 4.62108 1.75001 5.76033 1.75001 6.99992C1.75001 9.89941 4.10052 12.2499 7.00001 12.2499C8.2396 12.2499 9.37885 11.8203 10.277 11.1019L2.89807 3.72294ZM3.72303 2.89798L11.102 10.2769C11.8204 9.37876 12.25 8.23951 12.25 6.99992C12.25 4.10042 9.89951 1.74992 7.00001 1.74992C5.76042 1.74992 4.62117 2.17953 3.72303 2.89798ZM0.583344 6.99992C0.583344 3.45609 3.45618 0.583252 7.00001 0.583252C10.5438 0.583252 13.4167 3.45609 13.4167 6.99992C13.4167 10.5437 10.5438 13.4166 7.00001 13.4166C3.45618 13.4166 0.583344 10.5437 0.583344 6.99992Z" fill="currentColor"/>
  </g>
  <defs>
    <clipPath id="clip0_3350_738">
      <rect width="14" height="14" fill="white"/>
    </clipPath>
  </defs>
</svg>
