<svg viewBox="0 0 20 20" fill="none"
  xmlns="http://www.w3.org/2000/svg">
  <rect width="20" height="20" rx="4" fill="url(#paint0_linear_4283_79222)"/>
  <path d="M8.08714 12.0669L6.01611 9.99536C5.9609 9.94001 5.89532 9.89609 5.82312 9.86613C5.75091 9.83617 5.67351 9.82075 5.59534 9.82075C5.51718 9.82075 5.43977 9.83617 5.36757 9.86613C5.29537 9.89609 5.22979 9.94001 5.17457 9.99536C4.94181 10.2282 4.94181 10.6043 5.17457 10.8371L7.66935 13.3325C7.90212 13.5654 8.27813 13.5654 8.51089 13.3325L14.8254 7.01637C15.0582 6.78354 15.0582 6.40744 14.8254 6.17461C14.7702 6.11926 14.7046 6.07535 14.6324 6.04539C14.5602 6.01542 14.4828 6 14.4047 6C14.3265 6 14.2491 6.01542 14.1769 6.04539C14.1047 6.07535 14.0391 6.11926 13.9839 6.17461L8.08714 12.0669Z" fill="white"/>
  <defs>
    <linearGradient id="paint0_linear_4283_79222" x1="-5.79882" y1="10" x2="28.9941" y2="10" gradientUnits="userSpaceOnUse">
      <stop stop-color="#8C66FC"/>
      <stop offset="1" stop-color="#0274F1"/>
    </linearGradient>
  </defs>
</svg>
