<svg viewBox="0 0 101 100" fill="none"
  xmlns="http://www.w3.org/2000/svg">
  <path d="M43.5 73L78.75 37.75L71.75 30.75L43.5 59L29.25 44.75L22.25 51.75L43.5 73ZM50.5 100C43.5833 100 37.0833 98.6875 31 96.0625C24.9167 93.4375 19.625 89.875 15.125 85.375C10.625 80.875 7.0625 75.5833 4.4375 69.5C1.8125 63.4167 0.5 56.9167 0.5 50C0.5 43.0833 1.8125 36.5833 4.4375 30.5C7.0625 24.4167 10.625 19.125 15.125 14.625C19.625 10.125 24.9167 6.5625 31 3.9375C37.0833 1.3125 43.5833 0 50.5 0C57.4167 0 63.9167 1.3125 70 3.9375C76.0833 6.5625 81.375 10.125 85.875 14.625C90.375 19.125 93.9375 24.4167 96.5625 30.5C99.1875 36.5833 100.5 43.0833 100.5 50C100.5 56.9167 99.1875 63.4167 96.5625 69.5C93.9375 75.5833 90.375 80.875 85.875 85.375C81.375 89.875 76.0833 93.4375 70 96.0625C63.9167 98.6875 57.4167 100 50.5 100ZM50.5 90C61.6667 90 71.125 86.125 78.875 78.375C86.625 70.625 90.5 61.1667 90.5 50C90.5 38.8333 86.625 29.375 78.875 21.625C71.125 13.875 61.6667 10 50.5 10C39.3333 10 29.875 13.875 22.125 21.625C14.375 29.375 10.5 38.8333 10.5 50C10.5 61.1667 14.375 70.625 22.125 78.375C29.875 86.125 39.3333 90 50.5 90Z" fill="url(#paint0_linear_2023_46459)"/>
  <defs>
    <linearGradient id="paint0_linear_2023_46459" x1="-28.4941" y1="50" x2="145.47" y2="50" gradientUnits="userSpaceOnUse">
      <stop stop-color="#8C66FC"/>
      <stop offset="1" stop-color="#0274F1"/>
    </linearGradient>
  </defs>
</svg>
