<svg viewBox="0 0 16 16" fill="none"
  xmlns="http://www.w3.org/2000/svg">
  <g clip-path="url(#clip0_4776_88572)">
    <path d="M5 2.5C5 2.575 5.04063 2.7125 5.25938 2.9C5.30312 2.9375 5.35 2.975 5.40312 3.0125C4.92188 3.03125 4.45312 3.07188 4 3.13438V2.5C4 2.02187 4.26875 1.63437 4.60625 1.34375C4.94687 1.05 5.40938 0.809375 5.94063 0.61875C7.00313 0.228125 8.4375 0 10 0C11.5625 0 12.9969 0.228125 14.0594 0.615625C14.5875 0.809375 15.0531 1.05 15.3938 1.34063C15.7312 1.63438 16 2.02187 16 2.5V5.75V9.30937C16 9.79062 15.7437 10.1906 15.4031 10.4969C15.0625 10.8031 14.6 11.0562 14.0688 11.2594C13.7438 11.3812 13.3875 11.4906 13.0031 11.5813V10.55C13.2594 10.4812 13.4969 10.4062 13.7156 10.325C14.1812 10.1469 14.5219 9.95 14.7375 9.75625C14.9531 9.5625 15.0031 9.40938 15.0031 9.3125V7.24062C14.7312 7.41563 14.4156 7.56875 14.0688 7.7C13.7438 7.82187 13.3875 7.93125 13.0031 8.02188V6.99062C13.2594 6.92188 13.4969 6.84688 13.7156 6.76562C14.1812 6.5875 14.5219 6.39062 14.7375 6.19688C14.9531 6.00313 15.0031 5.85 15.0031 5.75313V3.94062C14.7281 4.10938 14.4094 4.25625 14.0625 4.38125C13.5219 4.57812 12.8875 4.73438 12.1875 4.8375C12.1281 4.77813 12.0687 4.71875 12.0094 4.66563C11.6937 4.38125 11.3313 4.15313 10.9531 3.9625C12.0406 3.89062 12.9969 3.7 13.7188 3.4375C14.1844 3.26875 14.525 3.07812 14.7437 2.89375C14.9625 2.70625 15.0031 2.56875 15.0031 2.49375C15.0031 2.41875 14.9625 2.28125 14.7437 2.09375C14.5281 1.90937 14.1875 1.71875 13.7188 1.55C12.7906 1.21875 11.475 1 10 1C8.525 1 7.20937 1.21875 6.28125 1.55625C5.81563 1.725 5.475 1.91562 5.25625 2.1C5.0375 2.2875 4.99687 2.425 4.99687 2.5H5ZM1 6.5C1 6.575 1.04062 6.7125 1.25937 6.9C1.475 7.08437 1.81562 7.275 2.28437 7.44375C3.20937 7.78125 4.525 8 6 8C7.475 8 8.79062 7.78125 9.71875 7.44375C10.1844 7.275 10.525 7.08437 10.7437 6.9C10.9625 6.7125 11.0031 6.575 11.0031 6.5C11.0031 6.425 10.9625 6.2875 10.7437 6.1C10.5281 5.91563 10.1875 5.725 9.71875 5.55625C8.79062 5.21875 7.475 5 6 5C4.525 5 3.20937 5.21875 2.28125 5.55625C1.81562 5.725 1.475 5.91563 1.25625 6.1C1.0375 6.2875 0.996875 6.425 0.996875 6.5H1ZM0 6.5C0 6.02187 0.26875 5.63438 0.60625 5.34375C0.946875 5.05 1.40937 4.80938 1.94062 4.61875C3.00312 4.22813 4.4375 4 6 4C7.5625 4 8.99687 4.22813 10.0594 4.61562C10.5875 4.80937 11.0531 5.05 11.3938 5.34062C11.7344 5.63125 12 6.02187 12 6.49687V9.74687V13.3062C12 13.7875 11.7437 14.1875 11.4031 14.4937C11.0625 14.8 10.6 15.0531 10.0688 15.2563C9.00313 15.6656 7.5625 15.9062 6 15.9062C4.4375 15.9062 2.99688 15.6656 1.93438 15.2594C1.40313 15.0562 0.940625 14.8031 0.6 14.4969C0.259375 14.1906 0 13.7906 0 13.3094V9.75V6.5ZM11 7.94063C10.725 8.10938 10.4062 8.25625 10.0594 8.38125C8.99687 8.77188 7.5625 9 6 9C4.4375 9 3.00312 8.77187 1.94062 8.38437C1.59375 8.25937 1.275 8.1125 1 7.94375V9.75C1 9.84688 1.05 10 1.26562 10.1938C1.48125 10.3875 1.82187 10.5875 2.2875 10.7625C3.21562 11.1156 4.525 11.3438 6 11.3438C7.475 11.3438 8.78437 11.1156 9.7125 10.7625C10.1781 10.5844 10.5188 10.3875 10.7344 10.1938C10.95 10 11 9.84688 11 9.75V7.94063ZM1 13.3094C1 13.4062 1.05 13.5594 1.26562 13.7531C1.48125 13.9469 1.82187 14.1469 2.2875 14.3219C3.21562 14.675 4.525 14.9062 6 14.9062C7.475 14.9062 8.78437 14.6781 9.7125 14.325C10.1781 14.1469 10.5188 13.95 10.7344 13.7563C10.95 13.5625 11 13.4094 11 13.3125V11.2406C10.7281 11.4156 10.4125 11.5687 10.0656 11.7C9.00313 12.1062 7.5625 12.3438 6 12.3438C4.4375 12.3438 2.99688 12.1031 1.93438 11.6969C1.59063 11.5656 1.275 11.4125 1 11.2375V13.3062V13.3094Z" fill="currentColor"/>
  </g>
  <defs>
    <clipPath id="clip0_4776_88572">
      <rect width="16" height="16" fill="white"/>
    </clipPath>
  </defs>
</svg>
