<svg viewBox="0 0 14 14" fill="none"
  xmlns="http://www.w3.org/2000/svg">
  <path fill-rule="evenodd" clip-rule="evenodd" d="M7.00001 0.583252C7.32218 0.583252 7.58334 0.844419 7.58334 1.16659V3.49992C7.58334 3.82208 7.32218 4.08325 7.00001 4.08325C6.67784 4.08325 6.41668 3.82208 6.41668 3.49992V1.16659C6.41668 0.844419 6.67784 0.583252 7.00001 0.583252ZM2.46336 2.46327C2.69117 2.23547 3.06052 2.23547 3.28832 2.46327L4.93916 4.11411C5.16696 4.34191 5.16696 4.71126 4.93916 4.93906C4.71135 5.16687 4.342 5.16687 4.1142 4.93906L2.46336 3.28823C2.23556 3.06043 2.23556 2.69108 2.46336 2.46327ZM11.5367 2.46327C11.7645 2.69108 11.7645 3.06043 11.5367 3.28823L9.88582 4.93906C9.65802 5.16687 9.28867 5.16687 9.06087 4.93906C8.83306 4.71126 8.83306 4.34191 9.06087 4.11411L10.7117 2.46327C10.9395 2.23547 11.3089 2.23547 11.5367 2.46327ZM0.583344 6.99992C0.583344 6.67775 0.844511 6.41659 1.16668 6.41659H3.50001C3.82218 6.41659 4.08334 6.67775 4.08334 6.99992C4.08334 7.32209 3.82218 7.58325 3.50001 7.58325H1.16668C0.844511 7.58325 0.583344 7.32209 0.583344 6.99992ZM9.91668 6.99992C9.91668 6.67775 10.1778 6.41659 10.5 6.41659H12.8333C13.1555 6.41659 13.4167 6.67775 13.4167 6.99992C13.4167 7.32209 13.1555 7.58325 12.8333 7.58325H10.5C10.1778 7.58325 9.91668 7.32209 9.91668 6.99992ZM4.93916 9.06077C5.16696 9.28858 5.16696 9.65793 4.93916 9.88573L3.28832 11.5366C3.06052 11.7644 2.69117 11.7644 2.46336 11.5366C2.23556 11.3088 2.23556 10.9394 2.46336 10.7116L4.1142 9.06077C4.342 8.83297 4.71135 8.83297 4.93916 9.06077ZM9.06087 9.06077C9.28867 8.83297 9.65802 8.83297 9.88582 9.06077L11.5367 10.7116C11.7645 10.9394 11.7645 11.3088 11.5367 11.5366C11.3089 11.7644 10.9395 11.7644 10.7117 11.5366L9.06087 9.88573C8.83306 9.65793 8.83306 9.28858 9.06087 9.06077ZM7.00001 9.91659C7.32218 9.91659 7.58334 10.1778 7.58334 10.4999V12.8333C7.58334 13.1554 7.32218 13.4166 7.00001 13.4166C6.67784 13.4166 6.41668 13.1554 6.41668 12.8333V10.4999C6.41668 10.1778 6.67784 9.91659 7.00001 9.91659Z" fill="currentColor"/>
</svg>
