<svg viewBox="0 0 16 16" fill="none"
  xmlns="http://www.w3.org/2000/svg">
  <g id="Transaction Icon / Pending">
    <path id="Vector 32" d="M12.7578 5.82715L14.1786 6.67198L14.9989 5.20869" stroke="#66FE90" stroke-linecap="round" stroke-linejoin="round"/>
    <path id="Vector 33" d="M3.10156 10.9912L1.55969 10.4139L0.999129 12.0019" stroke="#66FE90" stroke-linecap="round" stroke-linejoin="round"/>
    <path id="Subtract" fill-rule="evenodd" clip-rule="evenodd" d="M13.6498 6.55156C13.0158 3.78526 10.6053 1.74121 7.75025 1.74121C4.89522 1.74121 2.48474 3.78526 1.85066 6.55156H0.828629C1.48076 3.24538 4.32162 0.741211 7.75025 0.741211C11.1789 0.741211 14.0197 3.24538 14.6719 6.55156H13.6498ZM13.3459 10.4136H14.4124C13.446 13.2298 10.8362 15.2585 7.75025 15.2585C4.66427 15.2585 2.05445 13.2298 1.08813 10.4136H2.15464C3.07166 12.677 5.23898 14.2585 7.75025 14.2585C10.2615 14.2585 12.4288 12.677 13.3459 10.4136Z" fill="#66FE90"/>
  </g>
</svg>
