<svg viewBox="0 0 20 20" fill="none"
  xmlns="http://www.w3.org/2000/svg">
  <path d="M13.3327 9.17188C13.5688 9.17188 13.7667 9.09202 13.9264 8.93229C14.0862 8.77257 14.166 8.57465 14.166 8.33854C14.166 8.10243 14.0862 7.90451 13.9264 7.74479C13.7667 7.58507 13.5688 7.50521 13.3327 7.50521C13.0966 7.50521 12.8987 7.58507 12.7389 7.74479C12.5792 7.90451 12.4993 8.10243 12.4993 8.33854C12.4993 8.57465 12.5792 8.77257 12.7389 8.93229C12.8987 9.09202 13.0966 9.17188 13.3327 9.17188ZM6.66601 7.50521H10.8327V5.83854H6.66601V7.50521ZM3.74935 17.5052C3.27713 15.9219 2.81185 14.342 2.35352 12.7656C1.89518 11.1892 1.66602 9.57465 1.66602 7.92188C1.66602 6.6441 2.11046 5.56076 2.99935 4.67188C3.88824 3.78299 4.97157 3.33854 6.24935 3.33854H10.416C10.8188 2.81076 11.3084 2.40104 11.8848 2.10938C12.4612 1.81771 13.0827 1.67188 13.7493 1.67188C14.0966 1.67188 14.3917 1.7934 14.6348 2.03646C14.8778 2.27951 14.9993 2.57465 14.9993 2.92188C14.9993 3.00521 14.9889 3.08854 14.9681 3.17188C14.9473 3.25521 14.923 3.3316 14.8952 3.40104C14.8396 3.55382 14.7875 3.71007 14.7389 3.86979C14.6903 4.02951 14.6521 4.19271 14.6243 4.35938L16.5202 6.25521H18.3327V12.0677L15.9785 12.8385L14.5827 17.5052H9.99935V15.8385H8.33268V17.5052H3.74935ZM4.99935 15.8385H6.66601V14.1719H11.666V15.8385H13.3327L14.6243 11.5469L16.666 10.8594V7.92188H15.8327L12.916 5.00521C12.916 4.72743 12.9334 4.46007 12.9681 4.20313C13.0028 3.94618 13.0549 3.68576 13.1243 3.42188C12.7216 3.53299 12.3674 3.72396 12.0618 3.99479C11.7563 4.26563 11.5341 4.60243 11.3952 5.00521H6.24935C5.44379 5.00521 4.75629 5.28993 4.18685 5.85938C3.6174 6.42882 3.33268 7.11632 3.33268 7.92188C3.33268 9.28299 3.52018 10.6128 3.89518 11.9115C4.27018 13.2101 4.63824 14.5191 4.99935 15.8385Z" fill="currentColor"/>
</svg>
