<svg viewBox="0 0 33 32" fill="none"
  xmlns="http://www.w3.org/2000/svg">
  <path d="M12.4387 22.481C11.3832 25.2132 8.34984 26.9347 5.14984 27.1013C5.30539 24.0248 7.0165 20.8705 9.82762 19.8154L10.3943 20.3929C8.69428 22.0811 8.10539 23.4583 8.0165 24.2358C8.79428 24.1469 10.2498 23.5583 11.8832 21.9034L12.4498 22.481H12.4387ZM11.1721 9.88621C9.19428 9.8751 6.66095 10.8969 4.76095 12.785C4.03873 13.5069 3.40539 14.351 2.9165 15.2951C4.62762 14.0067 6.50539 13.6513 8.63873 14.8397C9.27206 13.1848 10.1054 11.4966 11.1721 9.88621ZM16.9498 29.3226C17.8943 28.8339 18.7387 28.2008 19.4609 27.4789C21.361 25.5797 22.3721 23.0363 22.3498 21.0593C20.6054 22.2033 18.8832 23.0252 17.3832 23.6138C18.5832 25.7463 18.2276 27.6233 16.9387 29.3337L16.9498 29.3226ZM29.5276 2.71142C29.0498 2.6781 28.5832 2.66699 28.1276 2.66699C17.7498 2.66699 12.0498 10.9191 10.2276 17.1165L15.1498 22.0367C21.5721 19.982 29.5832 14.5065 29.5832 4.27743V4.21079C29.5832 3.72211 29.561 3.23342 29.5276 2.72252V2.71142ZM22.9165 11.5522C21.6943 11.5522 20.6943 10.5637 20.6943 9.33088C20.6943 8.09806 21.6943 7.10959 22.9165 7.10959C24.1387 7.10959 25.1387 8.09806 25.1387 9.33088C25.1387 10.5637 24.1387 11.5522 22.9165 11.5522Z" fill="url(#paint0_linear_2921_32096)"/>
  <defs>
    <linearGradient id="paint0_linear_2921_32096" x1="0.856702" y1="-61.872" x2="46.3912" y2="-56.4422" gradientUnits="userSpaceOnUse">
      <stop stop-color="#DE66DC"/>
      <stop offset="1" stop-color="#0074F0"/>
    </linearGradient>
  </defs>
</svg>
