<svg viewBox="0 0 44 44" fill="none"
  xmlns="http://www.w3.org/2000/svg">
  <g clip-path="url(#clip0_1847_17224)">
    <path d="M22 0C34.1489 0 44 9.85111 44 22C44 34.1489 34.1489 44 22 44C9.85111 44 0 34.1489 0 22C0 9.85111 9.85111 0 22 0Z" fill="#0A2845"/>
    <path d="M30.0423 25.3733C30.9712 23.6133 31.5578 21.78 31.7778 19.9466C31.9978 18.1622 31.8512 16.4266 31.3867 14.9355C30.8001 13.1266 29.7734 11.7333 28.3556 10.8289C27.3534 12.32 25.0312 16.2555 23.369 22.1955C21.7067 28.0622 19.1645 31.24 17.6245 32.7066C18.2112 32.8778 18.8467 32.9511 19.5067 32.9511C21.4378 32.9511 23.4667 32.2422 25.349 30.8733C27.2556 29.5044 28.869 27.6222 30.0423 25.3733Z" fill="#E8C787"/>
    <path d="M15.9623 32.0223C16.3778 31.6801 17.0378 31.0445 17.7712 30.0912C18.9445 28.5756 20.6067 25.9112 21.7801 21.7556C23.4667 15.7912 25.7401 11.8556 26.8645 10.1201C26.1556 9.87564 25.3978 9.75342 24.6156 9.75342C22.6845 9.75342 20.6556 10.4623 18.7734 11.8312C16.8667 13.2001 15.2534 15.0823 14.0801 17.3312C13.1512 19.0912 12.5645 20.9245 12.3445 22.7579C12.1245 24.5423 12.2712 26.2779 12.7356 27.769C13.3467 29.6512 14.4467 31.1179 15.9623 31.9979V32.0223Z" fill="#E8C787"/>
  </g>
  <defs>
    <clipPath id="clip0_1847_17224">
      <rect width="44" height="44" fill="white"/>
    </clipPath>
  </defs>
</svg>
