<svg viewBox="0 0 16 16"
  xmlns="http://www.w3.org/2000/svg">
  <g>
    <circle id="Ellipse 87" cx="8" cy="8" r="8" fill="#1E1F25"/>
    <path id="Arrow 1" d="M4.5 8.5C4.22386 8.5 4 8.27614 4 8C4 7.72386 4.22386 7.5 4.5 7.5V8.5ZM11.8536 7.64645C12.0488 7.84171 12.0488 8.15829 11.8536 8.35355L8.67157 11.5355C8.47631 11.7308 8.15973 11.7308 7.96447 11.5355C7.7692 11.3403 7.7692 11.0237 7.96447 10.8284L10.7929 8L7.96447 5.17157C7.7692 4.97631 7.7692 4.65973 7.96447 4.46447C8.15973 4.2692 8.47631 4.2692 8.67157 4.46447L11.8536 7.64645ZM4.5 7.5L11.5 7.5V8.5H4.5V7.5Z" fill="white"/>
  </g>
</svg>
