<svg viewBox="0 0 14 14" fill="none"
  xmlns="http://www.w3.org/2000/svg">
  <path fill-rule="evenodd" clip-rule="evenodd" d="M9.13676 2.20125C8.10265 1.74048 6.9473 1.62633 5.84301 1.87583C4.73872 2.12533 3.74467 2.72511 3.00911 3.58571C2.27354 4.44632 1.83588 5.52165 1.76139 6.65132C1.6869 7.78098 1.97958 8.90447 2.59577 9.85421C3.21195 10.804 4.11864 11.5291 5.18061 11.9214C6.24257 12.3137 7.40291 12.3523 8.48857 12.0313C9.57424 11.7103 10.527 11.047 11.2049 10.1402C11.8828 9.23345 12.2494 8.13187 12.25 6.99975V6.46342C12.25 6.14125 12.5112 5.88008 12.8333 5.88008C13.1555 5.88008 13.4167 6.14125 13.4167 6.46342V7.00008C13.4159 8.38379 12.9678 9.7305 12.1393 10.8388C11.3108 11.947 10.1463 12.7578 8.81936 13.1501C7.49244 13.5424 6.07425 13.4953 4.7763 13.0158C3.47834 12.5362 2.37016 11.65 1.61704 10.4892C0.863923 9.32841 0.50621 7.95526 0.597253 6.57455C0.688296 5.19385 1.22322 3.87956 2.12224 2.82771C3.02126 1.77585 4.23621 1.04279 5.5859 0.737845C6.93558 0.432901 8.34768 0.572417 9.6116 1.13558C9.90587 1.26671 10.0381 1.61156 9.90701 1.90583C9.77589 2.20011 9.43104 2.33237 9.13676 2.20125ZM13.2456 1.92073C13.4735 2.14842 13.4737 2.51777 13.246 2.74569L7.4127 8.58486C7.30332 8.69434 7.15492 8.75588 7.00016 8.75592C6.8454 8.75596 6.69697 8.6945 6.58753 8.58506L4.83753 6.83506C4.60973 6.60726 4.60973 6.23791 4.83753 6.01011C5.06534 5.7823 5.43469 5.7823 5.66249 6.01011L6.99981 7.34742L12.4207 1.92114C12.6484 1.69323 13.0177 1.69304 13.2456 1.92073Z" fill="currentColor"/>
</svg>
