<svg viewBox="0 0 20 20" fill="none"
  xmlns="http://www.w3.org/2000/svg">
  <path d="M2.5 1.25C1.12109 1.25 0 2.37109 0 3.75V16.25C0 17.6289 1.12109 18.75 2.5 18.75H17.5C18.8789 18.75 20 17.6289 20 16.25V7.5C20 6.12109 18.8789 5 17.5 5H3.125C2.78125 5 2.5 4.71875 2.5 4.375C2.5 4.03125 2.78125 3.75 3.125 3.75H17.5C18.1914 3.75 18.75 3.19141 18.75 2.5C18.75 1.80859 18.1914 1.25 17.5 1.25H2.5ZM16.25 10.625C16.5815 10.625 16.8995 10.7567 17.1339 10.9911C17.3683 11.2255 17.5 11.5435 17.5 11.875C17.5 12.2065 17.3683 12.5245 17.1339 12.7589C16.8995 12.9933 16.5815 13.125 16.25 13.125C15.9185 13.125 15.6005 12.9933 15.3661 12.7589C15.1317 12.5245 15 12.2065 15 11.875C15 11.5435 15.1317 11.2255 15.3661 10.9911C15.6005 10.7567 15.9185 10.625 16.25 10.625Z" fill="currentColor"/>
</svg>
