<svg viewBox="0 0 74 74" fill="none"
  xmlns="http://www.w3.org/2000/svg">
  <mask id="mask0_1803_14238" style="mask-type:alpha" maskUnits="userSpaceOnUse" x="0" y="0" width="74" height="74">
    <rect width="74" height="74" fill="#D9D9D9"/>
  </mask>
  <g mask="url(#mask0_1803_14238)">
    <path d="M3.08398 64.7496L37.0007 6.16626L70.9173 64.7496H3.08398ZM13.7215 58.5829H60.2798L37.0007 18.4996L13.7215 58.5829ZM37.0007 55.4996C37.8743 55.4996 38.6066 55.2041 39.1975 54.6131C39.7885 54.0222 40.084 53.2899 40.084 52.4163C40.084 51.5426 39.7885 50.8104 39.1975 50.2194C38.6066 49.6284 37.8743 49.3329 37.0007 49.3329C36.127 49.3329 35.3948 49.6284 34.8038 50.2194C34.2128 50.8104 33.9173 51.5426 33.9173 52.4163C33.9173 53.2899 34.2128 54.0222 34.8038 54.6131C35.3948 55.2041 36.127 55.4996 37.0007 55.4996ZM33.9173 46.2496H40.084V30.8329H33.9173V46.2496Z" fill="currentColor"/>
  </g>
</svg>
