<svg viewBox="0 0 32 32" fill="none"
  xmlns="http://www.w3.org/2000/svg">
  <g id="Txn Icon / Yield">
    <g clip-path="url(#clip0_2434_12077)">
      <circle id="Ellipse 86" cx="16" cy="16" r="16" fill="#0074F0"/>
      <g id="Group 4068">
        <path id="Vector" d="M9.59752 21.2727L21.2623 9.60798C21.5746 9.29566 22.1403 9.35459 22.3937 9.60798C22.706 9.9203 22.706 10.4268 22.3937 10.7394L10.729 22.4042C10.4166 22.7165 9.8509 22.6576 9.59752 22.4042C9.2852 22.0918 9.2852 21.5854 9.59752 21.2727Z" fill="#FAFBFB"/>
        <path id="Vector_2" d="M20.2399 17.9045C19.6034 17.9045 18.9929 18.1574 18.543 18.6077C18.0927 19.0577 17.8398 19.6681 17.8398 20.3046C17.8398 20.9413 18.0927 21.5517 18.543 22.0017C18.993 22.4517 19.6034 22.7046 20.2399 22.7046C20.8766 22.7046 21.487 22.4517 21.937 22.0017C22.387 21.5517 22.6399 20.9412 22.6399 20.3046C22.6399 19.6681 22.387 19.0576 21.937 18.6077C21.487 18.1574 20.8765 17.9045 20.2399 17.9045Z" fill="#FAFBFB"/>
        <path id="Vector_3" d="M10.0313 10.0794C10.4812 9.62908 11.0917 9.37622 11.7281 9.37622C12.3648 9.37622 12.9753 9.62909 13.4253 10.0794C13.8753 10.5293 14.1282 11.1398 14.1282 11.7762C14.1282 12.4129 13.8753 13.0234 13.4253 13.4734C12.9753 13.9234 12.3648 14.1762 11.7281 14.1762C11.0917 14.1762 10.4813 13.9234 10.0313 13.4734C9.58098 13.0234 9.32812 12.4129 9.32812 11.7762C9.32812 11.1398 9.58099 10.5294 10.0313 10.0794Z" fill="#FAFBFB"/>
      </g>
    </g>
  </g>
  <defs>
    <clipPath id="clip0_2434_12077">
      <rect width="32" height="32" rx="16" fill="white"/>
    </clipPath>
  </defs>
</svg>
