<svg fill="none"
  xmlns="http://www.w3.org/2000/svg" viewBox="6.66 5.05 74.68 71.61">
  <path d="M39.8011 8.3369C41.7711 5.28966 46.2289 5.28966 48.1989 8.3369L56.9541 21.8795C57.8986 23.3406 59.3534 24.3975 61.0348 24.8443L76.6201 28.9861C80.1269 29.918 81.5045 34.1577 79.2152 36.9729L69.0409 49.4845C67.9432 50.8343 67.3876 52.5444 67.4822 54.2816L68.3593 70.384C68.5566 74.0072 64.9501 76.6275 61.5652 75.3201L46.522 69.5101C44.8991 68.8833 43.1009 68.8833 41.478 69.5101L26.4348 75.3201C23.0499 76.6275 19.4434 74.0072 19.6407 70.384L20.5178 54.2816C20.6124 52.5444 20.0568 50.8343 18.9591 49.4845L8.78484 36.9729C6.4955 34.1577 7.87306 29.918 11.3799 28.9861L26.9652 24.8443C28.6466 24.3975 30.1014 23.3406 31.0459 21.8795L39.8011 8.3369Z" fill="#E8C787" stroke="#141214" stroke-width="2"></path>
  <mask id="mask0_2016_17145" style="mask-type:alpha" maskUnits="userSpaceOnUse" x="26" y="27" width="36" height="36">
    <rect x="26" y="27" width="36" height="36" fill="#D9D9D9"></rect>
  </mask>
  <g mask="url(#mask0_2016_17145)">
    <path d="M44 52.5C43.175 52.5 42.4688 52.2063 41.8813 51.6188C41.2938 51.0312 41 50.325 41 49.5C41 48.675 41.2938 47.9688 41.8813 47.3813C42.4688 46.7938 43.175 46.5 44 46.5C44.825 46.5 45.5312 46.7938 46.1188 47.3813C46.7063 47.9688 47 48.675 47 49.5C47 50.325 46.7063 51.0312 46.1188 51.6188C45.5312 52.2063 44.825 52.5 44 52.5ZM39.5 63V57.6C37.375 56.875 35.8438 55.6437 34.9062 53.9062C33.9688 52.1688 33.5 50.2 33.5 48H36.5C36.5 50.525 37.1375 52.4063 38.4125 53.6438C39.6875 54.8813 41.55 55.5 44 55.5C46.45 55.5 48.3125 54.8813 49.5875 53.6438C50.8625 52.4063 51.5 50.525 51.5 48H54.5C54.5 50.2 54.0312 52.1688 53.0938 53.9062C52.1562 55.6437 50.625 56.875 48.5 57.6V63H39.5ZM33.5 46.5L30.5 39.45C30.375 39.525 30.1625 39.6562 29.8625 39.8438C29.5625 40.0312 29.275 40.125 29 40.125C28.575 40.125 28.2188 39.9813 27.9312 39.6938C27.6437 39.4063 27.5 39.05 27.5 38.625V33.375C27.5 31.6 29.1125 30.0938 32.3375 28.8563C35.5625 27.6188 39.45 27 44 27C48.55 27 52.4375 27.6188 55.6625 28.8563C58.8875 30.0938 60.5 31.6 60.5 33.375V38.625C60.5 39.05 60.3563 39.4063 60.0687 39.6938C59.7812 39.9813 59.425 40.125 59 40.125C58.725 40.125 58.4375 40.0312 58.1375 39.8438C57.8375 39.6562 57.625 39.525 57.5 39.45L54.5 46.5H51.5L49.25 37.0875C48.425 36.9625 47.575 36.875 46.7 36.825C45.825 36.775 44.925 36.75 44 36.75C43.075 36.75 42.175 36.775 41.3 36.825C40.425 36.875 39.575 36.9625 38.75 37.0875L36.5 46.5H33.5ZM34.8125 43.875L36.35 37.4625C35.65 37.6125 34.9875 37.775 34.3625 37.95C33.7375 38.125 33.1375 38.325 32.5625 38.55L34.8125 43.875ZM53.1875 43.8375L55.4375 38.55C54.8625 38.325 54.2625 38.125 53.6375 37.95C53.0125 37.775 52.35 37.6125 51.65 37.4625L53.1875 43.8375ZM30.5 36.1125C32.275 35.3625 34.3187 34.7812 36.6313 34.3687C38.9438 33.9562 41.4 33.75 44 33.75C46.6 33.75 49.0562 33.9562 51.3688 34.3687C53.6813 34.7812 55.725 35.3625 57.5 36.1125V33.45C57.375 33.2 56.9938 32.8813 56.3563 32.4938C55.7188 32.1063 54.8312 31.725 53.6937 31.35C52.5562 30.975 51.1813 30.6562 49.5688 30.3938C47.9563 30.1313 46.1 30 44 30C41.9 30 40.0437 30.1313 38.4312 30.3938C36.8187 30.6562 35.4437 30.975 34.3062 31.35C33.1687 31.725 32.2812 32.1063 31.6438 32.4938C31.0063 32.8813 30.625 33.2 30.5 33.45V36.1125Z" fill="#1C1B1F"></path>
  </g>
</svg>
