<svg viewBox="0 0 36 36" fill="none"
  xmlns="http://www.w3.org/2000/svg">
  <mask id="mask0_1828_16344" style="mask-type:alpha" maskUnits="userSpaceOnUse" x="0" y="0" width="36" height="36">
    <rect width="36" height="36" fill="#D9D9D9"/>
  </mask>
  <g mask="url(#mask0_1828_16344)">
    <path d="M18 25.5C17.175 25.5 16.4688 25.2063 15.8813 24.6188C15.2938 24.0312 15 23.325 15 22.5C15 21.675 15.2938 20.9688 15.8813 20.3813C16.4688 19.7938 17.175 19.5 18 19.5C18.825 19.5 19.5312 19.7938 20.1188 20.3813C20.7063 20.9688 21 21.675 21 22.5C21 23.325 20.7063 24.0312 20.1188 24.6188C19.5312 25.2063 18.825 25.5 18 25.5ZM13.5 36V30.6C11.375 29.875 9.84375 28.6437 8.90625 26.9062C7.96875 25.1688 7.5 23.2 7.5 21H10.5C10.5 23.525 11.1375 25.4063 12.4125 26.6438C13.6875 27.8813 15.55 28.5 18 28.5C20.45 28.5 22.3125 27.8813 23.5875 26.6438C24.8625 25.4063 25.5 23.525 25.5 21H28.5C28.5 23.2 28.0312 25.1688 27.0938 26.9062C26.1562 28.6437 24.625 29.875 22.5 30.6V36H13.5ZM7.5 19.5L4.5 12.45C4.375 12.525 4.1625 12.6562 3.8625 12.8438C3.5625 13.0312 3.275 13.125 3 13.125C2.575 13.125 2.21875 12.9813 1.93125 12.6938C1.64375 12.4063 1.5 12.05 1.5 11.625V6.375C1.5 4.6 3.1125 3.09375 6.3375 1.85625C9.5625 0.61875 13.45 0 18 0C22.55 0 26.4375 0.61875 29.6625 1.85625C32.8875 3.09375 34.5 4.6 34.5 6.375V11.625C34.5 12.05 34.3563 12.4063 34.0687 12.6938C33.7812 12.9813 33.425 13.125 33 13.125C32.725 13.125 32.4375 13.0312 32.1375 12.8438C31.8375 12.6562 31.625 12.525 31.5 12.45L28.5 19.5H25.5L23.25 10.0875C22.425 9.9625 21.575 9.875 20.7 9.825C19.825 9.775 18.925 9.75 18 9.75C17.075 9.75 16.175 9.775 15.3 9.825C14.425 9.875 13.575 9.9625 12.75 10.0875L10.5 19.5H7.5ZM8.8125 16.875L10.35 10.4625C9.65 10.6125 8.9875 10.775 8.3625 10.95C7.7375 11.125 7.1375 11.325 6.5625 11.55L8.8125 16.875ZM27.1875 16.8375L29.4375 11.55C28.8625 11.325 28.2625 11.125 27.6375 10.95C27.0125 10.775 26.35 10.6125 25.65 10.4625L27.1875 16.8375ZM4.5 9.1125C6.275 8.3625 8.31875 7.78125 10.6313 7.36875C12.9438 6.95625 15.4 6.75 18 6.75C20.6 6.75 23.0562 6.95625 25.3688 7.36875C27.6813 7.78125 29.725 8.3625 31.5 9.1125V6.45C31.375 6.2 30.9938 5.88125 30.3563 5.49375C29.7188 5.10625 28.8312 4.725 27.6937 4.35C26.5562 3.975 25.1813 3.65625 23.5688 3.39375C21.9563 3.13125 20.1 3 18 3C15.9 3 14.0437 3.13125 12.4312 3.39375C10.8187 3.65625 9.44375 3.975 8.30625 4.35C7.16875 4.725 6.28125 5.10625 5.64375 5.49375C5.00625 5.88125 4.625 6.2 4.5 6.45V9.1125Z" fill="currentColor"/>
  </g>
</svg>
