<svg viewBox="0 0 681 575" fill="none"
  xmlns="http://www.w3.org/2000/svg">
  <g clip-path="url(#clip0_186_34227)">
    <path d="M224.329 503.137L229.365 503.89C230.493 504.059 231.532 503.279 231.699 502.163C231.866 501.047 231.088 499.995 229.973 499.828L224.936 499.075C223.809 498.906 222.77 499.686 222.603 500.802C222.436 501.918 223.214 502.97 224.329 503.137ZM238.173 505.208L243.21 505.961C244.337 506.13 245.376 505.349 245.543 504.233C245.71 503.117 244.932 502.065 243.817 501.899L238.781 501.145C237.653 500.977 236.614 501.757 236.447 502.873C236.28 503.989 237.058 505.041 238.173 505.208ZM252.018 507.278L257.054 508.032C258.182 508.2 259.221 507.42 259.388 506.304C259.555 505.188 258.777 504.136 257.662 503.969L252.625 503.216C251.498 503.047 250.459 503.828 250.292 504.944C250.125 506.06 250.902 507.112 252.018 507.278ZM265.862 509.349L270.899 510.103C272.026 510.271 273.065 509.491 273.232 508.375C273.399 507.259 272.621 506.207 271.506 506.04L266.47 505.287C265.342 505.118 264.303 505.898 264.136 507.014C263.969 508.13 264.747 509.182 265.862 509.349ZM279.706 511.42L284.743 512.173C285.871 512.342 286.91 511.562 287.076 510.446C287.243 509.33 286.466 508.278 285.351 508.111L280.314 507.357C279.186 507.189 278.147 507.969 277.981 509.085C277.814 510.201 278.591 511.253 279.706 511.42ZM293.551 513.491L298.587 514.244C299.715 514.413 300.754 513.632 300.921 512.516C301.088 511.4 300.31 510.348 299.195 510.181L294.158 509.428C293.031 509.26 291.992 510.04 291.825 511.156C291.658 512.272 292.436 513.324 293.551 513.491ZM307.395 515.561L312.432 516.315C313.559 516.483 314.598 515.703 314.765 514.587C314.932 513.471 314.155 512.419 313.039 512.252L308.003 511.499C306.875 511.33 305.836 512.111 305.669 513.227C305.502 514.342 306.28 515.395 307.395 515.561ZM321.24 517.632L326.276 518.385C327.404 518.554 328.443 517.774 328.61 516.658C328.777 515.542 327.999 514.49 326.884 514.323L321.847 513.57C320.72 513.401 319.681 514.181 319.514 515.297C319.347 516.413 320.125 517.465 321.24 517.632ZM335.084 519.703L340.121 520.456C341.248 520.625 342.287 519.844 342.454 518.729C342.621 517.613 341.843 516.56 340.728 516.394L335.692 515.64C334.564 515.472 333.525 516.252 333.358 517.368C333.191 518.484 333.969 519.536 335.084 519.703ZM348.929 521.774L353.965 522.527C355.093 522.696 356.132 521.915 356.299 520.799C356.466 519.683 355.688 518.631 354.573 518.464L349.536 517.711C348.409 517.542 347.37 518.323 347.203 519.439C347.036 520.555 347.813 521.607 348.929 521.774ZM362.773 523.844L367.81 524.598C368.937 524.766 369.976 523.986 370.143 522.87C370.31 521.754 369.532 520.702 368.417 520.535L363.381 519.782C362.253 519.613 361.214 520.394 361.047 521.509C360.88 522.625 361.658 523.678 362.773 523.844ZM376.617 525.915L381.654 526.668C382.782 526.837 383.821 526.057 383.988 524.941C384.154 523.825 383.377 522.773 382.262 522.606L377.225 521.853C376.097 521.684 375.058 522.464 374.892 523.58C374.725 524.696 375.502 525.748 376.617 525.915ZM390.462 527.986L395.498 528.739C396.626 528.908 397.665 528.127 397.832 527.011C397.999 525.895 397.221 524.843 396.106 524.677L391.069 523.923C389.942 523.755 388.903 524.535 388.736 525.651C388.569 526.767 389.347 527.819 390.462 527.986ZM404.306 530.056L409.343 530.81C410.47 530.978 411.509 530.198 411.676 529.082C411.843 527.966 411.066 526.914 409.95 526.747L404.914 525.994C403.786 525.825 402.747 526.606 402.58 527.722C402.413 528.838 403.191 529.89 404.306 530.056ZM418.151 532.127L423.187 532.881C424.315 533.049 425.354 532.269 425.521 531.153C425.688 530.037 424.91 528.985 423.795 528.818L418.758 528.065C417.631 527.896 416.592 528.676 416.425 529.792C416.258 530.908 417.036 531.96 418.151 532.127ZM431.995 534.198L437.032 534.951C438.159 535.12 439.198 534.34 439.365 533.224C439.532 532.108 438.754 531.056 437.639 530.889L432.603 530.135C431.475 529.967 430.436 530.747 430.269 531.863C430.102 532.979 430.88 534.031 431.995 534.198ZM445.84 536.269L450.876 537.022C452.004 537.191 453.043 536.41 453.21 535.294C453.377 534.178 452.599 533.126 451.484 532.959L446.447 532.206C445.32 532.038 444.281 532.818 444.114 533.934C443.947 535.05 444.724 536.102 445.84 536.269ZM459.684 538.339L464.721 539.093C465.848 539.261 466.887 538.481 467.054 537.365C467.221 536.249 466.443 535.197 465.328 535.03L460.292 534.277C459.164 534.108 458.125 534.889 457.958 536.005C457.791 537.121 458.569 538.173 459.684 538.339ZM473.528 540.41L478.565 541.163C479.693 541.332 480.732 540.552 480.898 539.436C481.065 538.32 480.288 537.268 479.173 537.101L474.136 536.348C473.008 536.179 471.969 536.959 471.802 538.075C471.636 539.191 472.413 540.243 473.528 540.41ZM487.373 542.481L492.409 543.234C493.537 543.403 494.576 542.622 494.743 541.507C494.91 540.391 494.132 539.338 493.017 539.172L487.98 538.418C486.853 538.25 485.814 539.03 485.647 540.146C485.48 541.262 486.258 542.314 487.373 542.481ZM501.217 544.552L506.254 545.305C507.381 545.474 508.42 544.693 508.587 543.577C508.754 542.461 507.977 541.409 506.861 541.242L501.825 540.489C500.697 540.32 499.658 541.101 499.491 542.217C499.324 543.333 500.102 544.385 501.217 544.552ZM515.062 546.622L520.098 547.376C521.226 547.544 522.265 546.764 522.432 545.648C522.599 544.532 521.821 543.48 520.706 543.313L515.669 542.56C514.542 542.391 513.503 543.172 513.336 544.287C513.169 545.403 513.947 546.456 515.062 546.622ZM528.906 548.693L533.943 549.446C535.07 549.615 536.109 548.835 536.276 547.719C536.443 546.603 535.665 545.551 534.55 545.384L529.514 544.631C528.386 544.462 527.347 545.242 527.18 546.358C527.013 547.474 527.791 548.526 528.906 548.693ZM542.75 550.764L547.787 551.517C548.915 551.686 549.954 550.905 550.121 549.789C550.288 548.673 549.51 547.621 548.395 547.455L543.358 546.701C542.231 546.533 541.192 547.313 541.025 548.429C540.858 549.545 541.635 550.597 542.75 550.764ZM556.595 552.835L561.632 553.588C562.759 553.756 563.798 552.976 563.965 551.86C564.132 550.744 563.354 549.692 562.239 549.525L557.203 548.772C556.075 548.603 555.036 549.384 554.869 550.5C554.702 551.616 555.48 552.668 556.595 552.835ZM570.439 554.905L575.476 555.659C576.604 555.827 577.643 555.047 577.809 553.931C577.976 552.815 577.199 551.763 576.084 551.596L571.047 550.843C569.919 550.674 568.88 551.454 568.713 552.57C568.547 553.686 569.324 554.738 570.439 554.905ZM584.284 556.976L589.32 557.729C590.448 557.898 591.487 557.118 591.654 556.002C591.821 554.886 591.043 553.834 589.928 553.667L584.891 552.913C583.764 552.745 582.725 553.525 582.558 554.641C582.391 555.757 583.169 556.809 584.284 556.976ZM598.128 559.047L603.165 559.8C604.292 559.969 605.331 559.188 605.498 558.072C605.665 556.956 604.887 555.904 603.772 555.738L598.736 554.984C597.608 554.816 596.569 555.596 596.402 556.712C596.235 557.828 597.013 558.88 598.128 559.047ZM611.973 561.117L617.009 561.871C618.137 562.039 619.176 561.259 619.343 560.143C619.51 559.027 618.732 557.975 617.617 557.808L612.58 557.055C611.453 556.886 610.414 557.667 610.247 558.783C610.08 559.899 610.858 560.951 611.973 561.117ZM625.817 563.188L630.854 563.941C631.981 564.11 633.02 563.33 633.187 562.214C633.354 561.098 632.576 560.046 631.461 559.879L626.425 559.126C625.297 558.957 624.258 559.737 624.091 560.853C623.924 561.969 624.702 563.021 625.817 563.188ZM639.661 565.259L644.698 566.012C645.826 566.181 646.865 565.4 647.032 564.285C647.198 563.169 646.421 562.116 645.306 561.95L640.269 561.196C639.141 561.028 638.102 561.808 637.936 562.924C637.769 564.04 638.546 565.092 639.661 565.259ZM653.506 567.33L658.542 568.083C659.67 568.252 660.709 567.471 660.876 566.355C661.043 565.239 660.265 564.187 659.15 564.02L654.114 563.267C652.986 563.098 651.947 563.879 651.78 564.995C651.613 566.111 652.391 567.163 653.506 567.33ZM667.35 569.4L672.387 570.154C673.515 570.322 674.553 569.542 674.72 568.426C674.887 567.31 674.11 566.258 672.995 566.091L667.958 565.338C666.83 565.169 665.791 565.95 665.624 567.065C665.458 568.181 666.235 569.234 667.35 569.4ZM681.195 571.471L686.231 572.224C687.359 572.393 688.398 571.613 688.565 570.497C688.732 569.381 687.954 568.329 686.839 568.162L681.802 567.409C680.675 567.24 679.636 568.02 679.469 569.136C679.302 570.252 680.08 571.304 681.195 571.471Z" fill="#D0E0F5"/>
    <path d="M213.015 501.445L215.521 501.82C216.648 501.988 217.687 501.208 217.854 500.092C218.021 498.976 217.244 497.924 216.129 497.757L213.623 497.382C212.495 497.214 211.456 497.994 211.289 499.11C211.122 500.226 211.9 501.278 213.015 501.445Z" fill="#D0E0F5"/>
    <path d="M65.6866 134.894C66.5636 135.025 67.4166 134.46 67.6374 133.583C67.8677 132.643 67.2898 131.711 66.3508 131.48C65.5602 131.285 64.8973 130.75 64.4737 130.328C63.4379 129.288 62.6801 127.932 62.017 126.628C61.582 125.768 60.5308 125.431 59.6715 125.866C58.8122 126.302 58.4755 127.354 58.9105 128.214C59.662 129.698 60.6253 131.393 62.0064 132.779C63.0653 133.835 64.277 134.554 65.5381 134.858C65.5882 134.866 65.6383 134.873 65.6884 134.881L65.6866 134.894Z" fill="#D0E0F5"/>
    <path d="M621.88 562.279L649.381 566.392C650.401 566.506 651.558 566.654 652.771 566.425C653.51 566.279 654.219 565.988 654.833 565.567C655.875 564.851 656.622 563.886 657.197 563.036C657.988 561.86 658.732 560.484 659.441 559.167C660.27 557.65 661.119 556.085 661.974 554.905C662.473 554.224 662.924 553.778 663.372 553.525C663.863 553.239 664.47 553.202 664.891 553.214C665.594 553.229 666.605 553.406 667.491 553.564C667.952 553.646 668.401 553.726 668.777 553.782C670.03 553.969 671.609 554.206 673.194 553.802C674.461 553.466 675.577 552.684 676.317 551.59C677.449 549.926 677.753 547.984 677.916 546.124C678.174 542.509 677.771 538.27 677.409 534.524C677.29 533.352 677.192 532.21 677.099 531.119C676.687 525.904 676.777 520.854 677.356 516.121C677.779 512.607 678.476 508.635 679.533 503.627C682.63 489.771 686.588 473.929 689.847 462.328C691.356 457.118 692.666 453.161 693.963 449.881C695.269 446.461 697.335 442.155 699.004 438.7L699.451 437.767C700.153 436.244 700.923 434.437 701.368 432.49C701.755 430.843 701.89 429.082 701.786 427.297C701.708 425.85 701.46 424.249 701.028 422.428C700.308 419.192 697.662 411.618 695.55 405.533C694.716 403.14 693.99 401.057 693.55 399.722C690.735 390.879 688.833 383.813 687.574 377.497C686.802 373.497 686.185 369.226 686.983 365.179C687.347 363.259 688.045 361.249 689.124 359C689.72 357.756 690.534 356.25 691.401 354.738C692.914 352.157 695.334 348.315 697.67 344.6C699.636 341.472 701.501 338.507 702.799 336.343C705.073 332.529 707.659 328.083 709.665 323.666C710.774 321.217 711.846 318.416 712.834 315.321L713.483 313.213C714.558 309.707 715.891 305.33 717.096 302.498C718.061 300.155 719.117 297.724 720.203 295.258C722.565 289.83 725.019 284.211 726.748 278.906C728.53 273.583 729.804 267.979 730.532 262.255C731.207 256.972 731.508 251.274 731.437 244.816C731.366 238.267 730.865 232.193 729.934 226.772C726.685 207.391 716.956 189.104 700.992 172.436C700.326 171.747 699.228 171.723 698.527 172.388C697.838 173.054 697.814 174.153 698.478 174.854C713.945 191 723.369 208.664 726.503 227.362C727.41 232.599 727.901 238.48 727.961 244.847C728.019 251.137 727.74 256.685 727.077 261.803C726.383 267.301 725.155 272.681 723.442 277.796C721.761 282.954 719.345 288.49 717.007 293.844C715.917 296.335 714.86 298.779 713.88 301.132C712.628 304.111 711.254 308.585 710.155 312.164L709.511 314.247C708.57 317.195 707.554 319.876 706.491 322.191C704.56 326.453 702.028 330.792 699.804 334.523C698.525 336.652 696.676 339.593 694.712 342.709C692.359 346.447 689.924 350.313 688.376 352.953C687.722 354.073 686.777 355.765 685.959 357.463C684.749 359.986 683.958 362.278 683.539 364.484C682.63 369.104 683.288 373.779 684.135 378.136C685.425 384.585 687.361 391.771 690.217 400.762C690.667 402.124 691.404 404.221 692.246 406.641C694.227 412.322 696.945 420.099 697.626 423.162C698.02 424.811 698.235 426.202 698.304 427.456C698.392 428.918 698.27 430.335 697.967 431.674C697.595 433.311 696.908 434.9 696.297 436.244L695.869 437.142C694.177 440.658 692.061 445.046 690.711 448.587C689.39 451.94 688.04 455.994 686.487 461.326C683.204 473 679.237 488.905 676.114 502.846C675.026 507.978 674.329 512.04 673.891 515.654C673.277 520.613 673.192 525.894 673.618 531.355C673.709 532.458 673.816 533.628 673.931 534.824C674.288 538.608 674.665 542.51 674.428 545.808C674.295 547.377 674.068 548.638 673.428 549.581C673.151 549.975 672.75 550.261 672.295 550.386C671.402 550.624 670.326 550.45 669.274 550.293C668.923 550.24 668.509 550.178 668.087 550.089C667.063 549.911 665.916 549.701 664.972 549.675C663.711 549.627 662.57 549.892 661.617 550.442C660.47 551.091 659.667 552.086 659.154 552.779C658.152 554.167 657.238 555.825 656.369 557.438C655.66 558.755 654.989 559.988 654.297 561.013C653.905 561.582 653.424 562.228 652.853 562.617C652.639 562.765 652.366 562.878 652.09 562.926C651.432 563.045 650.651 562.954 649.81 562.841L649.659 562.819L622.409 558.743L621.72 558.64C621.419 558.595 621.072 558.517 620.739 558.429C620.198 558.284 619.801 558.109 619.525 557.901C619.352 557.773 619.222 557.612 619.146 557.434C619.047 557.24 618.983 556.987 618.929 556.659C618.846 556.018 618.867 555.278 618.994 554.258C619.2 552.622 619.613 550.89 620.245 548.972C620.613 547.886 621.105 546.652 621.942 545.854C622.391 545.421 622.972 545.046 623.718 544.684C624.848 544.148 626.451 543.708 627.867 543.317C628.361 543.186 628.829 543.051 629.271 542.925C631.468 542.279 633.31 541.529 634.89 540.638C637.144 539.359 639.307 537.657 641.534 535.44C643.497 533.451 645.049 531.555 646.273 529.623C647.479 527.727 648.524 525.537 649.478 522.924C651.117 518.388 652.221 513.579 653.21 509.022C655.141 499.709 656.467 491.614 657.247 484.257C657.678 479.835 657.791 476.249 657.568 472.947C657.37 469.815 656.852 466.687 656.025 463.653C655.134 460.187 652.977 454.57 651.244 450.055C650.682 448.586 650.167 447.24 649.755 446.14C648.426 442.519 647.165 438.536 646.11 434.622C644.368 428.118 643.11 421.88 642.377 416.078C642.125 414.079 641.932 411.858 641.747 409.497C641.467 406.059 641.165 402.514 640.628 399.511C640.182 397.008 639.558 394.672 638.761 392.553C637.7 389.715 636.237 386.817 634.169 383.431C632.124 380.061 629.594 376.593 627.188 373.323L625.519 371.125C621.182 365.439 614.628 356.844 611.282 351.985C606.435 344.991 600.923 336.629 596.712 327.615C589.203 311.532 585.583 294.031 583.266 280.571C583.101 279.623 582.209 278.99 581.25 279.154C580.302 279.32 579.668 280.225 579.833 281.172C582.182 294.843 585.872 312.649 593.556 329.105C597.875 338.34 603.492 346.858 608.409 353.978C611.798 358.895 618.384 367.533 622.742 373.248L624.403 375.419C626.757 378.605 629.232 382.013 631.206 385.257C633.163 388.446 634.524 391.162 635.515 393.785C636.228 395.699 636.807 397.824 637.218 400.129C637.727 402.974 638.016 406.44 638.296 409.789C638.501 412.191 638.686 414.462 638.941 416.526C639.692 422.471 640.976 428.867 642.759 435.531C643.838 439.538 645.137 443.616 646.5 447.345C646.91 448.458 647.437 449.819 647.997 451.3C649.691 455.732 651.811 461.254 652.663 464.548C653.433 467.368 653.91 470.259 654.091 473.158C654.29 476.277 654.191 479.685 653.779 483.892C653.005 491.122 651.708 499.106 649.796 508.294C648.84 512.714 647.768 517.4 646.198 521.728C645.332 524.099 644.397 526.061 643.326 527.747C642.236 529.468 640.841 531.17 639.061 532.967C637.071 534.964 635.13 536.469 633.169 537.585C631.826 538.346 630.229 539.004 628.286 539.573C627.872 539.69 627.418 539.815 626.949 539.95C625.386 540.382 623.623 540.862 622.23 541.526C621.143 542.03 620.247 542.626 619.527 543.326C618.153 544.633 617.448 546.348 616.942 547.849C616.236 550 615.779 551.944 615.524 553.816C615.416 554.71 615.319 555.875 615.468 557.102C615.566 557.822 615.743 558.438 616.008 558.978C616.322 559.614 616.799 560.198 617.373 560.643C618.027 561.151 618.841 561.529 619.852 561.796C620.27 561.91 620.719 561.99 621.156 562.068L621.883 562.177L621.88 562.279Z" fill="#D0E0F5"/>
    <path d="M660.437 555.419C661.214 555.535 661.994 555.113 662.298 554.364C662.662 553.47 662.237 552.458 661.358 552.083C651.465 548.001 643.28 542.867 637.023 536.829C636.328 536.161 635.225 536.175 634.557 536.87C633.889 537.565 633.904 538.67 634.598 539.337C641.167 545.691 649.727 551.061 660.016 555.318C660.149 555.376 660.285 555.409 660.422 555.43L660.437 555.419Z" fill="#D0E0F5"/>
    <path d="M579.713 418.14C579.839 418.159 579.964 418.178 580.104 418.186C581.423 418.268 582.779 417.855 584.127 416.98C585.264 416.227 586.15 415.27 586.802 414.509C587.56 413.635 588.597 412.188 589.423 411.029L590.054 410.149C590.877 409.016 591.91 407.761 593.239 407.011C593.815 406.674 594.474 406.375 595.327 406.067C596.876 405.478 600.859 404.369 603.761 403.547C605.018 403.196 606.115 402.886 606.838 402.674C611.759 401.205 615.617 399.731 618.986 398.017C624.027 395.489 629.185 392.005 634.748 387.35C635.482 386.729 635.582 385.629 634.962 384.895C634.341 384.162 633.242 384.061 632.509 384.682C627.163 389.164 622.232 392.503 617.426 394.912C614.239 396.525 610.569 397.937 605.852 399.334C605.155 399.538 604.058 399.848 602.829 400.19C599.7 401.068 595.796 402.163 594.113 402.796C593.082 403.18 592.257 403.557 591.514 403.984C589.612 405.058 588.282 406.667 587.237 408.087L586.59 408.99C585.798 410.09 584.81 411.467 584.156 412.241C583.658 412.833 582.987 413.553 582.218 414.067C581.736 414.379 581.003 414.744 580.317 414.705C580.139 414.692 579.957 414.626 579.856 414.534C579.494 414.21 579.244 413.57 579.114 412.641C579.032 411.988 579.03 411.231 579.125 410.258C579.198 409.423 579.342 408.547 579.481 407.619C579.715 406.052 579.968 404.449 579.96 402.871C579.952 401.216 579.567 399.595 578.856 398.181C578.373 397.211 577.697 396.251 576.836 395.328C576.064 394.494 575.328 393.846 574.572 393.335C572.76 392.09 570.918 391.815 569.385 392.559C568.251 393.121 567.517 394.088 566.94 394.95C565.929 396.568 565.192 398.329 564.473 400.055C563.936 401.333 563.433 402.553 562.847 403.644C562.497 404.271 562.042 405.088 561.503 405.353C561.143 405.53 560.529 405.438 559.677 405.055C559.039 404.78 558.636 404.476 558.477 404.17C558.337 403.906 558.272 403.575 558.258 403.15C558.227 402.248 558.38 401.22 558.516 400.317C558.611 399.678 558.736 399.017 558.849 398.342C559.268 395.969 559.732 393.295 559.611 390.854C559.553 389.781 559.384 388.859 559.099 388.021C558.806 387.157 558.353 386.333 557.749 385.576C556.532 384.035 554.933 382.988 553.551 382.128C553.022 381.805 552.492 381.495 551.962 381.185C549.806 379.927 547.569 378.618 545.879 376.981C543.805 375.004 541.948 372.432 540.215 369.121C538.205 365.257 536.604 360.89 535.318 355.788C535.086 354.856 534.133 354.29 533.201 354.523C532.27 354.755 531.704 355.709 531.937 356.641C533.298 362.011 534.993 366.61 537.119 370.722C539.031 374.38 541.101 377.24 543.455 379.49C545.434 381.414 547.849 382.826 550.194 384.19C550.713 384.485 551.218 384.791 551.723 385.098C552.849 385.792 554.144 386.639 555.006 387.73C555.363 388.168 555.625 388.643 555.793 389.142C555.971 389.669 556.083 390.288 556.127 391.025C556.231 393.066 555.814 395.427 555.419 397.726C555.301 398.426 555.173 399.112 555.074 399.777C554.914 400.843 554.736 402.034 554.769 403.269C554.804 404.236 555.001 405.06 555.381 405.771C555.917 406.813 556.892 407.663 558.289 408.257C558.962 408.55 561.05 409.49 563.071 408.485C564.579 407.736 565.386 406.28 565.914 405.321C566.589 404.063 567.15 402.711 567.703 401.409C568.4 399.745 569.057 398.177 569.885 396.839C570.186 396.371 570.54 395.886 570.927 395.7C571.259 395.532 571.908 395.731 572.616 396.222C573.164 396.586 573.705 397.077 574.278 397.701C574.906 398.385 575.405 399.075 575.737 399.765C576.213 400.695 576.46 401.783 576.472 402.901C576.483 404.197 576.249 405.675 576.035 407.104C575.895 408.044 575.75 409.01 575.647 409.956C575.526 411.194 575.53 412.195 575.658 413.137C575.902 414.929 576.512 416.251 577.529 417.16C578.127 417.698 578.893 418.056 579.72 418.18L579.713 418.14Z" fill="#D0E0F5"/>
    <path d="M459.857 396.906C460.17 396.953 460.484 396.999 460.799 397.034C465.87 397.638 470.968 397.042 474.847 396.456C478.414 395.9 482.408 395.061 487.397 393.821C491.771 392.757 508.881 387.804 520.196 384.523C524.52 383.272 528.069 382.239 529.875 381.727C533.911 380.523 539.209 378.842 543.068 377.535C543.986 377.223 544.467 376.231 544.154 375.325C543.843 374.407 542.852 373.926 541.947 374.239C538.128 375.539 532.883 377.203 528.901 378.39C527.108 378.903 523.548 379.922 519.222 381.185C507.922 384.456 490.863 389.404 486.556 390.452C481.659 391.68 477.771 392.496 474.309 393.03C470.652 393.585 465.854 394.149 461.198 393.594C458.493 393.266 455.869 392.566 453.415 391.507C448.575 389.437 444.408 385.955 440.62 382.504L438.955 380.96C435.75 377.981 432.13 374.607 428.964 372.223C425.371 369.442 421.206 366.627 415.472 363.09C414.651 362.583 413.574 362.845 413.081 363.656C412.589 364.467 412.836 365.555 413.646 366.048C419.275 369.518 423.347 372.267 426.86 374.985C429.887 377.271 433.452 380.586 436.589 383.504L438.277 385.064C442.289 388.727 446.731 392.43 452.053 394.7C454.52 395.761 457.136 396.512 459.843 396.916L459.857 396.906Z" fill="#D0E0F5"/>
    <path d="M278.031 495.645C278.808 495.761 279.588 495.34 279.895 494.578C280.259 493.684 279.834 492.672 278.94 492.307C270.012 488.626 261.948 483.882 254.994 478.214C254.253 477.603 253.147 477.72 252.549 478.463C251.939 479.205 252.055 480.312 252.798 480.911C260.013 486.797 268.37 491.726 277.613 495.531C277.745 495.59 277.881 495.623 278.019 495.643L278.031 495.645Z" fill="#D0E0F5"/>
    <path d="M246.94 506.199C249.421 506.57 252.591 507.044 256.688 507.657C260.246 508.189 263.318 508.635 263.692 508.704C265.324 508.923 267.118 509.088 268.882 508.429C270.021 508.01 271.12 507.251 272.142 506.161C273.409 504.799 274.428 503.208 275.259 501.935C275.691 501.269 276.168 500.481 276.677 499.647C277.934 497.579 279.362 495.229 280.55 493.881C281.104 493.259 281.63 492.825 282.133 492.541C282.596 492.277 283.141 492.141 283.732 492.127C284.351 492.104 285.008 492.164 285.703 492.229C287.319 492.381 289.153 492.54 290.946 491.77C292.042 491.293 293.058 490.496 293.903 489.469C294.732 488.465 295.33 487.298 295.648 486.115C296.294 483.673 295.734 481.256 295.174 479.429L295.06 479.079C294.393 477.031 293.71 474.916 293.455 472.942C293.196 471.16 293.161 469.168 293.347 466.811C293.626 463.405 294.266 459.898 294.866 456.911C295.904 451.772 297.429 445.514 299.166 439.3C300.888 433.353 302.846 426.595 306.025 420.584C307.328 418.126 308.994 415.721 311.006 413.407L314.077 409.918C315.75 407.976 316.985 406.315 317.974 404.668C319.013 402.952 319.881 401.082 320.555 399.145C322.078 394.617 322.665 389.923 323.214 384.711C323.438 382.526 323.616 380.31 323.798 377.978C324.326 371.199 324.861 364.19 326.851 358.168C327.89 354.99 329.531 351.723 331.857 348.161C334.108 344.678 337.158 340.724 339.846 337.229C340.545 336.321 341.214 335.447 341.866 334.596C344.39 331.256 346.468 327.81 348.052 324.33C350.295 319.435 352.024 313.784 353.311 307.067C355.751 294.177 356.062 280.879 356.069 270.727C356.072 269.766 355.28 268.981 354.332 268.98C353.372 268.978 352.589 269.758 352.586 270.719C352.589 280.718 352.273 293.798 349.888 306.401C348.645 312.83 347.005 318.225 344.876 322.868C343.403 326.121 341.448 329.341 339.084 332.475C338.446 333.315 337.765 334.187 337.078 335.097C334.343 338.649 331.256 342.674 328.926 346.261C326.436 350.068 324.663 353.61 323.529 357.081C321.415 363.508 320.847 370.73 320.315 377.714C320.135 380.033 319.963 382.212 319.744 384.358C319.213 389.368 318.658 393.849 317.25 398.035C316.664 399.729 315.906 401.372 314.987 402.888C314.099 404.371 312.977 405.882 311.456 407.655L308.398 411.145C306.215 413.665 304.388 416.289 302.96 418.985C299.619 425.305 297.51 432.553 295.82 438.376C294.056 444.689 292.519 451.022 291.454 456.26C290.838 459.347 290.166 462.99 289.873 466.574C289.66 469.195 289.708 471.446 290.008 473.465C290.312 475.715 291.07 478.098 291.744 480.185L291.849 480.509C292.261 481.865 292.697 483.661 292.28 485.252C292.096 485.968 291.722 486.669 291.22 487.286C290.719 487.89 290.152 488.344 289.563 488.602C288.591 489.02 287.339 488.91 286.025 488.791C285.253 488.726 284.458 488.646 283.648 488.666C282.505 488.687 281.397 488.983 280.448 489.508C279.61 489.972 278.778 490.655 277.947 491.582C276.545 493.167 275.032 495.658 273.691 497.855C273.199 498.666 272.739 499.43 272.324 500.06C271.372 501.546 270.563 502.758 269.587 503.804C268.946 504.49 268.3 504.958 267.664 505.183C266.647 505.557 265.41 505.436 264.216 505.283C263.89 505.234 261.447 504.869 257.187 504.232C250.798 503.276 240.117 501.717 239.076 501.484L239.014 501.475C238.583 501.359 238.291 501.251 238.081 501.117C237.533 500.754 237.314 499.734 237.184 498.894C237.035 497.743 237.04 496.514 237.229 495.247C237.436 493.868 237.843 492.685 238.446 491.737C239.621 489.875 241.556 488.587 244.081 487.209L249.417 484.417C251.091 483.501 253.024 482.393 254.837 481.062C256.605 479.775 258.262 478.293 259.772 476.672C262.734 473.488 265.263 469.597 267.524 464.756C269.278 460.993 270.914 456.649 272.536 451.456C274.5 445.007 275.877 439.483 276.741 434.561C277.291 431.311 277.828 427.468 277.592 423.562C277.43 420.704 276.82 417.844 275.766 415.046C275.201 413.513 274.47 411.891 273.769 410.324C272.798 408.167 271.799 405.94 271.193 403.914C269.849 399.624 270.048 395.039 270.429 391.122C270.802 387.345 271.532 382.89 272.253 378.588C272.639 376.262 273.016 373.998 273.313 371.927C273.52 370.458 273.713 368.91 273.791 367.448C273.885 365.616 273.782 363.908 273.461 362.373C272.859 359.463 271.57 356.86 270.063 354.007C269.633 353.199 268.42 351.03 267.094 348.679C265.394 345.655 263.46 342.225 262.958 341.215C262.173 339.7 261.38 337.979 260.672 336.206C259.301 332.784 258.054 328.957 257.124 326.01C253.511 314.368 249.666 299.487 246.56 287.536L246.291 286.509C246.046 285.575 245.104 285.024 244.173 285.256C243.239 285.501 242.688 286.445 242.92 287.377L243.189 288.404C246.289 300.392 250.153 315.327 253.792 327.05C254.738 330.063 256.012 333.958 257.429 337.503C258.174 339.371 259.013 341.214 259.839 342.799C260.373 343.853 262.234 347.17 264.047 350.376C265.352 352.7 266.558 354.829 266.977 355.622C268.354 358.238 269.538 360.594 270.04 363.066C270.304 364.298 270.388 365.708 270.3 367.233C270.227 368.581 270.047 370.041 269.853 371.422C269.549 373.453 269.187 375.707 268.804 378.008C268.087 382.375 267.336 386.877 266.959 390.769C266.551 395.041 266.338 400.06 267.866 404.916C268.52 407.142 269.579 409.48 270.585 411.745C271.297 413.326 271.969 414.824 272.499 416.249C273.423 418.721 273.967 421.25 274.104 423.758C274.315 427.315 273.814 430.919 273.296 433.956C272.454 438.727 271.111 444.115 269.194 450.418C267.636 455.441 266.046 459.651 264.366 463.258C262.26 467.751 259.926 471.363 257.212 474.264C255.853 475.727 254.361 477.055 252.766 478.214C251.111 479.428 249.305 480.452 247.755 481.31L242.433 484.091C239.799 485.517 237.154 487.185 235.492 489.821C234.623 491.178 234.044 492.822 233.763 494.703C233.526 496.283 233.523 497.846 233.723 499.338C233.875 500.373 234.229 502.721 236.141 503.981C236.863 504.461 237.638 504.679 238.156 504.808C238.65 504.933 240.162 505.185 246.903 506.193L246.94 506.199Z" fill="#D0E0F5"/>
    <path d="M431.329 369.603C436.705 370.394 442.449 371.048 448.078 370.493C450.613 370.244 453.318 369.713 456.128 368.915C459.917 367.905 475.224 361.99 486.401 357.662C491.308 355.769 495.551 354.121 497.379 353.459C508.639 349.349 523.415 344.162 537.777 340.542C544.453 338.9 552.359 337.172 560.249 336.827C564.117 336.662 567.978 336.88 571.712 337.439C581.964 339.036 592.078 343.267 601.854 347.357L605.145 348.734C606.039 349.098 607.048 348.685 607.425 347.793C607.789 346.899 607.377 345.888 606.485 345.511L603.205 344.149C593.236 339.979 582.929 335.668 572.251 334.007C568.279 333.413 564.203 333.175 560.102 333.357C551.914 333.721 543.799 335.482 536.936 337.173C522.401 340.832 507.53 346.055 496.19 350.192C494.333 350.875 490.282 352.436 485.156 354.425C474.062 358.714 458.849 364.592 455.22 365.562C452.583 366.321 450.09 366.807 447.763 367.036C442.499 367.543 437.006 366.927 431.868 366.171C418.672 364.133 405.469 360.594 395.43 357.747L372.452 350.631C359.349 346.684 345.268 344.911 331.987 343.438C331.03 343.333 330.17 344.025 330.065 344.983C329.96 345.942 330.662 346.816 331.609 346.906C344.752 348.359 358.645 350.104 371.44 353.966L394.442 361.099C404.605 363.977 417.943 367.549 431.352 369.619L431.329 369.603Z" fill="#D0E0F5"/>
    <path d="M138.893 155.688C140.409 155.915 141.92 156.09 143.418 156.186C153.62 156.917 163.63 154.991 172.393 150.61C176.492 148.557 180.605 145.724 184.593 142.18C185.316 141.544 185.379 140.438 184.744 139.715C184.109 138.992 183.004 138.929 182.282 139.565C178.515 142.911 174.67 145.58 170.836 147.493C162.638 151.6 153.249 153.4 143.668 152.711C140.867 152.51 137.986 152.079 135.111 151.431C130.196 150.375 122.905 147.913 117.04 145.933C115.138 145.29 113.357 144.69 111.805 144.189C106.324 142.472 100.947 140.911 95.314 140.633C92.3429 140.457 89.229 140.722 86.2066 140.975C84.8712 141.083 83.5463 141.205 82.2559 141.269C80.7469 141.338 78.966 141.341 77.2884 140.91C75.8325 140.539 74.3614 139.755 72.9234 138.578C70.6408 136.711 68.8385 134.288 67.362 132.17C66.8136 131.383 65.7293 131.182 64.9426 131.731C64.156 132.28 63.9553 133.365 64.5036 134.153C66.1042 136.469 68.102 139.126 70.7268 141.275C72.5657 142.768 74.4885 143.786 76.4381 144.283C78.5593 144.831 80.7649 144.815 82.4405 144.745C83.7829 144.676 85.1454 144.56 86.5203 144.445C89.4137 144.198 92.4091 143.954 95.1403 144.106C100.377 144.377 105.522 145.864 110.759 147.506C112.285 148.004 114.053 148.601 115.932 149.229C121.87 151.232 129.273 153.724 134.361 154.818C135.873 155.16 137.381 155.436 138.897 155.663L138.893 155.688Z" fill="#D0E0F5"/>
    <path d="M183.269 78.1549C183.444 78.1811 183.623 78.1823 183.806 78.1584C186.47 77.7363 189.183 76.8089 192.121 75.3254C194.977 73.8683 197.475 72.1524 199.541 70.2437C201.081 68.7691 202.917 66.7746 203.532 64.2003C203.818 62.974 203.806 61.6005 203.488 60.13C203.149 58.541 202.525 56.9735 202.023 55.7062C201.295 53.9821 200.579 52.2598 199.852 50.5231C196.433 42.2945 192.903 33.7802 188.351 26.4462C187.034 24.3776 185.875 22.7941 184.69 21.4632C183.615 20.2639 182.655 19.4025 181.641 18.7254C180.502 17.9524 179.315 17.4929 178.155 17.3707C176.168 17.1247 174.069 17.7979 172.072 19.3323C169.814 21.0712 168.179 23.3521 167.002 25.1374C164.89 28.3852 163.225 31.8922 162.027 35.5332C161.05 38.5534 160.414 41.6117 160.141 44.6346C159.944 46.7204 159.936 49.001 160.105 51.8081C160.149 52.5453 160.215 53.3884 160.288 54.271C160.479 56.7609 160.698 59.5755 160.603 61.4969C160.517 63.9581 160.023 66.5762 159.542 69.1066L161.232 69.5389L162.939 69.8583C163.435 67.2276 163.981 64.3481 164.078 61.6449C164.178 59.5191 163.951 56.5879 163.749 53.9939C163.687 53.1258 163.617 52.3077 163.57 51.5956C163.412 48.9697 163.421 46.8558 163.591 44.9456C163.839 42.1753 164.426 39.3659 165.313 36.6015C166.418 33.2414 167.951 30.0097 169.896 27.0316C170.922 25.4801 172.331 23.5116 174.171 22.0819C175.039 21.417 176.358 20.6527 177.716 20.8175C178.347 20.8861 178.999 21.1503 179.673 21.6101C180.429 22.1206 181.197 22.8123 182.065 23.7753C183.117 24.9583 184.17 26.3977 185.372 28.2952C189.77 35.3754 193.243 43.7531 196.604 51.8575C197.329 53.6068 198.055 55.3435 198.764 57.0263C199.219 58.1839 199.758 59.5465 200.036 60.8571C200.237 61.823 200.264 62.6731 200.092 63.391C199.701 65.0631 198.359 66.5031 197.116 67.7017C195.303 69.379 193.076 70.9048 190.511 72.2132C187.908 73.516 185.518 74.3378 183.22 74.7121C182.275 74.8655 181.629 75.756 181.781 76.7145C181.91 77.4773 182.515 78.055 183.242 78.1637L183.269 78.1549Z" fill="#D0E0F5"/>
    <path d="M61.4725 118.79C61.7983 118.839 62.1515 118.789 62.4804 118.646C63.3484 118.238 63.7228 117.191 63.3022 116.321L62.9825 115.632C62.7794 115.191 62.5519 114.657 62.5636 114.236C62.5768 114.148 62.588 114.073 62.6368 114.004C62.8754 113.693 63.2624 113.418 63.8862 113.101C64.7274 112.701 65.6356 112.452 66.4907 112.388C66.9047 112.36 67.27 112.402 67.5343 112.518C67.9077 112.677 68.3156 113.033 68.7128 113.374L68.8946 113.529C69.6195 114.163 70.722 114.072 71.3557 113.346C71.9895 112.621 71.8982 111.517 71.1733 110.883L71.0023 110.742C70.4465 110.262 69.7679 109.661 68.8996 109.3C68.1421 108.969 67.2275 108.832 66.2435 108.903C64.9349 109.002 63.6264 109.357 62.3719 109.952C61.6384 110.316 60.617 110.894 59.8687 111.872C59.3753 112.516 59.0867 113.332 59.0776 114.163C59.0578 115.237 59.4259 116.203 59.8195 117.082L60.1605 117.799C60.4256 118.339 60.9231 118.695 61.4744 118.778L61.4725 118.79Z" fill="#D0E0F5"/>
    <path d="M682.96 518.651C682.96 518.651 683.073 518.668 683.123 518.675C683.185 518.685 683.248 518.694 683.314 518.678C683.352 518.684 683.456 518.674 683.495 518.667C683.533 518.672 683.599 518.657 683.639 518.65C683.676 518.656 683.73 518.638 683.77 518.631C683.849 518.617 683.996 518.575 684.064 518.547C684.105 518.527 684.201 518.49 684.242 518.471C684.269 518.462 684.352 518.423 684.38 518.402C684.436 518.372 684.562 518.301 684.62 518.258C684.648 518.237 684.733 518.185 684.762 518.164C684.776 518.153 684.85 518.087 684.865 518.077C684.881 518.054 684.953 518 684.967 517.99C684.998 517.956 685.072 517.89 685.102 517.856C685.635 517.295 685.943 516.687 686.209 516.112C687.19 513.835 688.195 509.858 689.089 506.364C689.436 504.98 689.753 503.72 690.021 502.786C690.858 499.757 691.605 497.421 692.392 495.41C692.906 494.116 693.483 492.741 694.24 491.533C694.523 491.101 694.763 490.778 695.017 490.534C695.046 490.513 695.062 490.49 695.077 490.479C695.29 490.678 695.518 490.955 695.72 491.229L695.997 491.604C696.328 492.051 696.699 492.568 697.056 492.916C697.236 493.084 697.452 493.27 697.75 493.417C697.787 493.423 697.834 493.455 697.87 493.474C697.93 493.495 698.014 493.534 698.075 493.556C698.198 493.587 698.397 493.629 698.522 493.648C698.56 493.654 698.635 493.665 698.675 493.658C698.725 493.666 698.804 493.652 698.868 493.649C698.906 493.654 698.96 493.637 698.999 493.63C699.051 493.625 699.144 493.6 699.198 493.583C699.277 493.569 699.36 493.53 699.441 493.503C699.468 493.495 699.536 493.466 699.565 493.445C699.606 493.426 699.647 493.406 699.676 493.385C699.759 493.346 699.86 493.271 699.934 493.205C699.962 493.184 700.007 493.14 700.036 493.118C700.079 493.086 700.141 493.018 700.171 492.985C700.188 492.961 700.235 492.904 700.262 492.896C700.292 492.862 700.339 492.805 700.357 492.769C700.39 492.722 700.455 492.63 700.488 492.583C700.488 492.583 700.542 492.476 700.555 492.478C700.573 492.442 700.591 492.406 700.611 492.358C700.613 492.346 700.653 492.249 700.667 492.238C700.904 491.684 700.988 491.12 701.048 490.719C701.29 488.934 701.397 486.079 701.492 483.555C701.541 482.46 701.574 481.465 701.613 480.689C701.771 478.007 702 474.85 702.556 471.818C702.98 469.497 703.667 466.959 704.59 464.302C705.216 462.512 705.976 460.6 706.79 458.581C708.135 455.244 709.511 451.783 710.342 448.626C711.12 445.82 711.582 442.645 711.781 438.663C711.806 438.32 711.83 437.645 711.861 436.842C711.884 436.255 711.918 435.517 711.948 434.804C712.011 434.813 712.069 434.847 712.12 434.855C712.22 434.87 712.358 434.89 712.445 434.904C712.495 434.911 712.572 434.91 712.624 434.905C712.675 434.912 712.753 434.898 712.805 434.893C712.857 434.888 712.936 434.875 712.988 434.869C713.028 434.863 713.109 434.836 713.148 434.829C713.202 434.812 713.268 434.796 713.324 434.766C713.365 434.746 713.421 434.716 713.461 434.709C713.516 434.679 713.601 434.628 713.657 434.598C713.712 434.568 713.786 434.502 713.842 434.472C713.887 434.427 713.974 434.363 714.019 434.318C714.049 434.285 714.111 434.217 714.141 434.183C714.172 434.149 714.237 434.056 714.27 434.01C714.286 433.987 714.32 433.928 714.337 433.905C714.341 433.88 714.402 433.812 714.406 433.787C714.529 433.562 714.611 433.356 714.693 433.15C714.699 433.113 714.761 432.955 714.764 432.93C714.764 432.93 714.814 432.771 714.816 432.758C714.818 432.746 714.869 432.574 714.871 432.562C714.871 432.562 714.909 432.388 714.911 432.375L715.037 431.792C715.325 430.04 715.53 428.238 715.726 426.498C716.048 423.662 716.385 420.725 717.019 418.115C717.459 416.284 718.121 414.344 718.998 412.335C719.387 411.444 719.82 410.522 720.254 409.587C721.023 407.959 721.813 406.269 722.419 404.617C723.043 402.928 723.501 401.24 723.775 399.576C724.366 395.883 724.245 392.071 724.064 388.826C723.857 385.411 723.44 381.862 723.044 378.431C722.347 372.468 721.631 366.298 721.92 360.508C722.188 353.921 723.673 346.733 724.982 340.379C725.696 337.063 726.446 333.675 727.191 330.236C733.485 301.514 740.622 268.956 742.369 240.234C743.186 226.806 742.902 215.944 741.485 206.066C740.125 196.749 737.806 189.044 734.377 182.506C729.418 172.931 721.39 164.257 711.177 157.435C706.434 154.29 701.685 151.696 697.06 149.735C692.762 147.9 687.925 146.497 681.398 145.174C673.514 143.585 661.857 141.88 655.589 140.968C651.931 140.498 647.752 139.924 643.295 139.321C630.766 137.614 616.557 135.668 606.581 134.971C598.748 134.415 587.749 134.731 578.913 134.973C576.804 135.029 574.784 135.086 572.933 135.13C567.685 135.191 562.524 135.099 558.421 134.869C552.772 134.614 537.302 133.134 525.999 132.058C521.553 131.637 517.739 131.271 515.388 131.061C509.096 130.568 502.817 130.155 496.171 129.712C469.652 127.938 442.231 126.118 417.76 119.817C411.212 118.12 403.673 115.774 395.327 112.821C393.15 112.047 390.409 111.022 387.372 109.914C378.109 106.503 366.59 102.242 360.011 100.411C354.001 98.6281 346.907 96.99 340.046 95.4127C334.313 94.0937 328.383 92.7196 323.292 91.3043C319.874 90.3445 315.866 89.0527 311.989 87.6524C309.389 86.7123 305.691 85.3131 301.79 83.8195C297.149 82.0485 292.349 80.2281 289.198 79.1158C284.821 77.5509 279.4 75.8556 272.617 73.9309C269.52 73.0575 265.825 72.069 261.894 71.0323C251.435 68.2501 239.57 65.1039 231.988 62.0983C228.384 60.6747 225.141 59.0615 222.331 57.2952C218.285 54.8055 214.47 51.3635 210.794 48.0191C208.673 46.0995 206.485 44.1185 204.289 42.3543C200.223 39.0541 196.362 36.605 192.486 34.8587C191.611 34.4586 190.578 34.8553 190.178 35.7313C189.778 36.6073 190.174 37.6408 191.049 38.0409C194.648 39.6689 198.263 41.9657 202.101 45.078C204.229 46.7808 206.282 48.639 208.459 50.6182C212.261 54.0584 216.186 57.6195 220.504 60.2651C223.478 62.1329 226.924 63.8406 230.721 65.3443C238.498 68.4175 250.461 71.5913 261.018 74.401C264.924 75.4339 268.619 76.4224 271.679 77.2903C278.387 79.2037 283.747 80.8771 288.051 82.4182C291.179 83.5142 295.954 85.3309 300.572 87.0856C304.498 88.583 308.206 89.9965 310.832 90.9404C314.782 92.3645 318.876 93.6819 322.379 94.6674C327.545 96.0939 333.513 97.4736 339.282 98.8108C346.092 100.381 353.137 102.011 359.073 103.771C365.542 105.572 376.989 109.796 386.189 113.198C389.237 114.32 391.992 115.335 394.18 116.124C402.624 119.104 410.26 121.49 416.908 123.202C441.688 129.575 469.273 131.419 495.956 133.205C502.589 133.646 508.866 134.072 515.121 134.559C517.447 134.766 521.248 135.129 525.694 135.551C537.035 136.632 552.555 138.12 558.268 138.372C562.422 138.608 567.66 138.7 573.012 138.629C574.888 138.589 576.907 138.532 579.031 138.465C587.792 138.211 598.7 137.907 606.368 138.452C616.23 139.145 630.378 141.068 642.842 142.779C647.309 143.396 651.503 143.959 655.135 144.425C661.341 145.328 672.936 147.024 680.731 148.6C687.022 149.874 691.638 151.218 695.72 152.957C700.152 154.838 704.699 157.325 709.267 160.354C718.992 166.847 726.614 175.063 731.305 184.123C734.542 190.312 736.749 197.654 738.054 206.566C739.432 216.194 739.712 226.825 738.906 240.01C737.175 268.454 730.071 300.875 723.796 329.472C723.038 332.909 722.301 336.298 721.571 339.638C720.228 346.128 718.721 353.466 718.439 360.321C718.133 366.39 718.867 372.704 719.58 378.81C719.971 382.189 720.383 385.686 720.59 389.011C720.774 392.064 720.879 395.644 720.339 398.998C720.113 400.426 719.712 401.904 719.158 403.385C718.598 404.904 717.843 406.522 717.111 408.079C716.658 409.049 716.209 409.995 715.816 410.91C714.861 413.101 714.13 415.247 713.636 417.263C712.946 420.083 712.606 423.121 712.268 426.07C712.124 427.292 711.999 428.466 711.843 429.596C711.83 429.594 711.807 429.578 711.797 429.564C711.715 429.513 711.62 429.46 711.536 429.422C711.486 429.414 711.33 429.34 711.28 429.332C711.157 429.301 710.982 429.275 710.842 429.267C710.779 429.258 710.688 429.269 710.623 429.273C710.519 429.283 710.401 429.303 710.308 429.328C710.241 429.344 710.16 429.37 710.105 429.4C710.022 429.439 709.927 429.476 709.842 429.528C709.786 429.558 709.729 429.6 709.671 429.643C709.64 429.677 709.585 429.707 709.554 429.741C709.525 429.762 709.48 429.807 709.451 429.828C709.392 429.883 709.329 429.964 709.282 430.021C709.278 430.046 709.218 430.101 709.202 430.124C709.184 430.16 709.151 430.206 709.133 430.242C709.115 430.278 709.083 430.324 709.063 430.372C709.057 430.41 708.99 430.515 708.986 430.54C708.8 431.013 708.742 431.401 708.701 431.677C708.586 432.442 708.511 434.315 708.411 436.697C708.386 437.463 708.351 438.124 708.34 438.456C708.14 442.195 707.726 445.132 707.008 447.704C706.23 450.677 704.884 454.027 703.592 457.269C702.758 459.337 701.98 461.284 701.329 463.148C700.341 465.987 699.605 468.684 699.154 471.181C698.558 474.399 698.321 477.697 698.161 480.48C698.12 481.269 698.068 482.299 698.03 483.409C697.966 484.95 697.902 486.748 697.793 488.245C697.639 488.081 697.471 487.915 697.302 487.761C696.905 487.42 696.505 487.18 696.09 487.041C696.065 487.038 695.992 487.014 695.969 486.998C695.944 486.994 695.871 486.97 695.845 486.966C695.795 486.959 695.633 486.934 695.582 486.927C695.532 486.919 695.369 486.895 695.319 486.888C695.269 486.88 695.192 486.881 695.128 486.885L694.999 486.891C694.999 486.891 694.843 486.906 694.791 486.911C694.739 486.916 694.62 486.937 694.568 486.942L694.435 486.973C694.435 486.973 694.342 486.998 694.301 487.017C694.261 487.024 694.112 487.079 694.071 487.098C693.554 487.303 693.1 487.594 692.651 488.027C692.188 488.47 691.776 488.998 691.341 489.677C690.418 491.141 689.74 492.758 689.186 494.149C688.355 496.281 687.567 498.727 686.702 501.853C686.43 502.813 686.11 504.098 685.744 505.517C685.019 508.396 684.121 511.915 683.329 514.04C683.292 513.945 683.253 513.862 683.227 513.781C682.636 512.167 682.207 510.411 681.825 508.764C681.175 505.834 680.645 502.781 680.29 499.933C680.176 498.98 679.305 498.299 678.353 498.413C677.4 498.526 676.719 499.399 676.833 500.352C677.198 503.303 677.747 506.488 678.42 509.524C678.822 511.289 679.284 513.166 679.947 514.983C680.131 515.472 680.37 516.097 680.703 516.698C680.883 517.033 681.14 517.456 681.507 517.831C681.528 517.86 681.573 517.905 681.608 517.923C681.632 517.939 681.71 518.015 681.731 518.044C681.765 518.075 681.868 518.154 681.902 518.185C681.936 518.216 682.054 518.285 682.088 518.315C682.123 518.333 682.229 518.4 682.264 518.419C682.313 518.439 682.432 518.495 682.493 518.517C682.518 518.521 682.602 518.559 682.627 518.563C682.702 518.574 682.786 518.612 682.861 518.623C682.899 518.629 682.937 518.635 682.974 518.64L682.96 518.651ZM712.952 432.198L713.16 432.267L712.934 432.233L712.94 432.196L712.952 432.198ZM713.023 432.067L713.206 432.133L713.018 432.105L713.023 432.067Z" fill="#D0E0F5"/>
    <path d="M238.909 341.002C246.201 342.092 253.928 342.415 260.815 342.701C261.782 342.744 262.586 341.992 262.626 341.037C262.669 340.069 261.906 339.262 260.963 339.224C253.605 338.918 245.268 338.569 237.673 337.279C233.804 336.597 228.805 335.504 224.485 332.96C222.224 331.635 220.234 329.953 218.561 327.946C216.831 325.893 215.283 323.316 213.819 320.084C212.288 316.702 210.766 312.41 209.299 308.255C208.209 305.182 207.184 302.273 206.146 299.708C204.66 295.935 202.819 292.147 200.667 288.466C200.105 287.51 199.492 286.47 198.847 285.387C196.686 281.769 194.248 277.687 192.748 274.437C191.271 271.293 190.187 268.183 189.508 265.184C188.219 259.415 188.101 253.18 188.085 247.294C188.098 245.065 188.139 242.738 188.171 240.384C188.337 230.794 188.502 220.871 186.892 211.939C185.765 205.682 183.908 199.686 181.376 194.09C179.451 189.918 177.433 186.54 175.21 183.759C173.613 181.764 171.763 180 169.733 178.504C167.201 176.587 162.938 174.347 159.185 172.376C157.891 171.695 156.703 171.069 155.722 170.525C143.339 163.647 133.116 156.465 124.486 148.56C123.776 147.915 122.668 147.954 122.024 148.666C121.379 149.377 121.421 150.473 122.129 151.13C130.963 159.207 141.394 166.548 154.024 173.565C155.019 174.111 156.242 174.756 157.559 175.453C161.014 177.277 165.326 179.537 167.65 181.295C169.463 182.617 171.074 184.179 172.491 185.929C174.543 188.479 176.405 191.616 178.203 195.526C180.622 200.849 182.391 206.574 183.458 212.541C185.017 221.132 184.853 230.876 184.686 240.299C184.653 242.665 184.61 245.005 184.593 247.258C184.605 253.349 184.728 259.803 186.094 265.917C186.825 269.167 188.001 272.522 189.573 275.885C191.139 279.285 193.639 283.467 195.842 287.155C196.476 288.224 197.091 289.252 197.652 290.207C199.712 293.733 201.476 297.356 202.907 300.979C203.917 303.476 204.935 306.346 206.004 309.391C207.499 313.614 209.037 317.972 210.637 321.493C212.235 325.026 213.95 327.859 215.886 330.161C217.819 332.476 220.116 334.422 222.718 335.952C227.51 338.771 232.914 339.977 237.084 340.703C237.685 340.793 238.297 340.897 238.911 340.989L238.909 341.002Z" fill="#D0E0F5"/>
    <path d="M60.4181 129.183C60.9067 129.256 61.369 129.248 61.7311 129.225C62.4821 129.171 63.2588 129.031 64.1921 128.786C65.7536 128.366 67.2769 127.773 68.76 127.021C70.2018 126.288 71.46 125.412 72.5127 124.454C74.6544 122.467 75.8503 120.21 75.9498 117.918C76.0182 116.261 75.504 114.646 75.0369 113.23C74.9316 112.907 74.8243 112.596 74.7422 112.289C74.24 110.765 73.9449 108.798 73.6913 107.068L73.5576 106.164C73.3901 105.228 73.2107 104.202 72.8464 103.211C72.5348 102.383 72.0986 101.702 71.5466 101.197C70.8949 100.586 70.0072 100.184 68.9441 100.013L68.894 100.005C66.3381 99.6229 64.0301 100.752 62.3015 101.775C60.5115 102.866 58.9064 104.177 57.54 105.691C55.9463 107.439 54.8751 109.292 54.3589 111.202C53.6287 113.772 53.7329 116.671 54.6509 119.783C55.283 121.98 56.3279 124.072 57.332 126.093L57.5088 126.453C57.569 126.565 57.606 126.66 57.6536 126.77C57.8762 127.252 58.1425 127.868 58.6356 128.339C59.0022 128.715 59.5003 128.982 60.0566 129.116C60.1819 129.135 60.2928 129.164 60.4181 129.183ZM68.3407 103.448L68.3657 103.451C68.729 103.506 69.0185 103.626 69.1645 103.763C69.2767 103.87 69.417 104.045 69.5525 104.424C69.8076 105.116 69.9545 105.932 70.0906 106.735L70.2193 107.587C70.5042 109.45 70.8162 111.561 71.3974 113.327C71.4815 113.622 71.5974 113.959 71.7116 114.31C72.0959 115.508 72.5016 116.735 72.45 117.766C72.3741 119.472 71.1404 120.954 70.1291 121.893C69.3125 122.642 68.3116 123.339 67.1467 123.934C65.8972 124.58 64.5932 125.077 63.2847 125.433C62.5775 125.622 61.9981 125.727 61.4801 125.765C61.3511 125.772 61.17 125.783 61.0053 125.771C60.9451 125.66 60.8586 125.467 60.8128 125.345C60.7351 125.179 60.668 125.028 60.5972 124.902L60.4311 124.557C59.4959 122.674 58.5306 120.735 57.9844 118.82C57.2432 116.325 57.1561 114.081 57.7011 112.15C58.074 110.77 58.8823 109.391 60.1078 108.049C61.2575 106.785 62.5871 105.689 64.082 104.772C65.2908 104.055 66.8855 103.243 68.3513 103.462L68.3407 103.448Z" fill="#D0E0F5"/>
    <path d="M68.7393 103.52C69.0025 103.56 69.2749 103.536 69.5443 103.448C71.8085 102.697 73.6825 101.901 75.2796 100.986C78.5007 99.1475 81.4341 96.6635 83.9391 94.4743C84.606 93.869 85.5523 93.0235 86.6213 92.0425C89.4838 89.4325 93.4116 85.8665 95.1426 84.4846C96.7639 83.1503 98.649 81.7658 100.733 80.3341C102.443 79.1798 104.268 78.0297 106.193 76.805C109.293 74.8331 112.504 72.8009 115.303 70.7069C119.426 67.6317 123.287 64.0815 126.183 61.3354L141.414 46.346C148.871 39.2188 155.506 34.5964 165.456 33.6746C166.417 33.5875 167.121 32.7315 167.033 31.7824C166.946 30.8208 166.091 30.116 165.142 30.2049C154.23 31.2263 146.796 36.3958 138.996 43.8436L123.778 58.8348C120.972 61.4918 117.213 64.9548 113.236 67.9108C110.553 69.9195 107.397 71.9216 104.342 73.849C102.474 75.031 100.549 76.2557 98.7962 77.4421C96.6149 78.9234 94.6559 80.3738 92.9625 81.7613C91.1595 83.1966 87.1847 86.8196 84.2808 89.449C83.2137 90.4175 82.2799 91.2649 81.6292 91.847C79.1549 94.0023 76.4865 96.2568 73.5441 97.9446C72.1575 98.7371 70.4882 99.4489 68.4538 100.119C67.5381 100.418 67.0442 101.408 67.3427 102.324C67.5533 102.971 68.1148 103.414 68.7412 103.508L68.7393 103.52Z" fill="#D0E0F5"/>
    <path d="M692.971 406.673C693.122 406.696 693.274 406.705 693.417 406.688C694.412 406.632 695.248 405.924 695.459 404.943L695.666 403.987C697.032 397.679 698.745 389.821 700.692 383.741C702.416 378.127 705.716 369.763 708.361 363.044C709.226 360.853 710.032 358.807 710.721 357.026C714.521 347.21 717.315 338.629 719.271 330.782C723.499 313.813 726.072 296.61 726.92 279.637C726.971 278.529 726.207 277.556 725.124 277.342C724.042 277.129 722.961 277.762 722.612 278.813C721.011 283.521 718.751 288.696 716.582 293.691C715.49 296.194 714.419 298.649 713.455 300.979C712.188 303.969 710.783 308.566 709.655 312.256L709.078 314.143C707.938 317.742 706.606 321.081 705.126 324.038C702.093 330.187 697.879 336.863 693.812 343.331C691.979 346.249 690.236 349.001 688.632 351.671C687.635 353.368 686.358 355.574 685.336 357.78C683.92 360.824 683.065 363.798 682.797 366.617C682.391 370.62 683.002 374.583 683.707 378.264C685.297 386.13 687.684 394.665 691.199 405.164C691.464 405.96 692.161 406.526 692.975 406.648L692.971 406.673ZM721.369 293.805C720.09 305.779 717.946 317.803 714.985 329.718C713.083 337.381 710.339 345.79 706.604 355.436C705.915 357.217 705.111 359.25 704.26 361.43C701.579 368.221 698.24 376.669 696.482 382.431C695.164 386.529 693.966 391.375 692.912 396.024C690.781 389.116 689.212 383.075 688.059 377.428C687.418 374.089 686.865 370.507 687.212 367.072C687.432 364.746 688.162 362.266 689.369 359.678C690.314 357.64 691.509 355.562 692.451 353.973C694.02 351.361 695.749 348.62 697.578 345.728C701.71 339.167 705.991 332.385 709.119 326.033C710.693 322.871 712.107 319.327 713.321 315.496L713.914 313.585C714.962 310.178 716.388 305.52 717.563 302.721C718.526 300.391 719.579 297.972 720.655 295.492C720.892 294.938 721.143 294.373 721.379 293.819L721.369 293.805Z" fill="#D0E0F5"/>
    <path d="M621.811 562.743L649.337 566.86C650.42 566.983 651.639 567.14 652.949 566.862C655.257 566.412 656.719 564.605 657.727 563.09C658.458 561.968 659.164 560.677 659.837 559.431C660.684 557.879 661.551 556.278 662.421 555.088C662.853 554.511 663.228 554.144 663.593 553.93C663.917 553.735 664.378 553.65 664.937 553.682C665.587 553.702 666.548 553.872 667.396 554.024C667.87 554.108 668.295 554.184 668.708 554.246C670.011 554.441 671.64 554.685 673.32 554.244C674.693 553.885 675.897 553.027 676.715 551.841C677.912 550.085 678.227 548.068 678.399 546.145C678.666 542.48 678.253 538.214 677.891 534.468C677.772 533.296 677.674 532.154 677.579 531.076C677.239 526.666 677.244 522.437 677.598 518.528C677.803 516.303 678.103 514.04 678.475 511.814C678.759 512.908 679.08 514.02 679.481 515.105C679.675 515.609 679.923 516.261 680.265 516.889C680.466 517.252 680.745 517.704 681.141 518.135C681.175 518.166 681.23 518.226 681.252 518.254C681.273 518.283 681.364 518.361 681.399 518.379C681.446 518.412 681.547 518.504 681.606 518.538C681.629 518.555 681.699 518.603 681.722 518.62C681.735 518.622 681.758 518.638 681.781 518.654C681.827 518.687 681.874 518.719 681.922 518.739C681.96 518.745 682.004 518.79 682.04 518.808C682.065 518.812 682.134 518.861 682.172 518.866C682.21 518.872 682.268 518.906 682.317 518.927C682.342 518.93 682.426 518.968 682.451 518.972C682.524 518.996 682.622 519.023 682.708 519.049C682.846 519.07 682.971 519.089 683.097 519.107C683.172 519.119 683.261 519.119 683.338 519.118C683.389 519.125 683.505 519.117 683.557 519.112C683.595 519.118 683.661 519.102 683.701 519.095C683.753 519.09 683.831 519.076 683.885 519.059C683.91 519.062 683.991 519.036 684.018 519.027C684.084 519.011 684.178 518.987 684.246 518.959C684.3 518.941 684.41 518.893 684.463 518.876C684.49 518.867 684.561 518.826 684.587 518.817C684.614 518.809 684.685 518.768 684.711 518.759C684.767 518.729 684.852 518.678 684.909 518.635C684.938 518.614 685.037 518.551 685.066 518.53C685.08 518.519 685.167 518.455 685.183 518.432C685.212 518.411 685.257 518.366 685.286 518.345C685.331 518.3 685.434 518.213 685.466 518.167C686.043 517.561 686.372 516.905 686.656 516.294C687.657 513.969 688.676 509.981 689.561 506.46C689.907 505.089 690.224 503.829 690.492 502.895C691.327 499.879 692.072 497.555 692.845 495.555C693.342 494.283 693.916 492.934 694.654 491.762C694.807 491.516 694.951 491.319 695.092 491.148C695.19 491.265 695.275 491.381 695.36 491.496L695.637 491.871C695.978 492.332 696.36 492.863 696.739 493.24C696.953 493.439 697.202 493.656 697.547 493.836C697.582 493.854 697.618 493.872 697.666 493.892C697.75 493.93 697.872 493.974 697.958 494C698.117 494.049 698.34 494.095 698.505 494.107C698.555 494.115 698.643 494.128 698.697 494.11C698.772 494.121 698.863 494.109 698.93 494.094C698.98 494.101 699.034 494.084 699.086 494.079C699.165 494.065 699.258 494.04 699.337 494.026C699.43 494.002 699.551 493.969 699.633 493.93C699.675 493.91 699.743 493.882 699.784 493.863C699.826 493.843 699.881 493.813 699.924 493.781C700.023 493.719 700.151 493.635 700.24 493.559C700.268 493.538 700.328 493.482 700.357 493.461C700.385 493.44 700.431 493.395 700.447 493.372C700.477 493.338 700.598 493.215 700.616 493.179C700.649 493.133 700.71 493.065 700.743 493.019C700.777 492.96 700.857 492.856 700.893 492.785C700.893 492.785 700.96 492.68 700.962 492.667C700.995 492.621 701.015 492.572 701.035 492.524C701.038 492.499 701.091 492.404 701.093 492.392C701.351 491.777 701.44 491.187 701.503 490.761C701.75 488.939 701.859 486.071 701.955 483.547C702.001 482.465 702.037 481.457 702.074 480.694C702.23 478.025 702.455 474.892 703.009 471.873C703.429 469.577 704.113 467.064 705.033 464.42C705.658 462.642 706.418 460.73 707.232 458.711C708.579 455.362 709.969 451.89 710.803 448.708C711.586 445.877 712.051 442.677 712.256 438.657C712.281 438.315 712.305 437.639 712.338 436.823C712.349 436.402 712.376 435.88 712.392 435.344C712.392 435.344 712.405 435.346 712.417 435.348C712.48 435.358 712.57 435.358 712.634 435.355C712.697 435.364 712.788 435.352 712.855 435.337C712.932 435.335 713.013 435.309 713.079 435.293C713.133 435.276 713.224 435.264 713.278 435.246C713.345 435.23 713.427 435.192 713.494 435.176C713.547 435.158 713.618 435.117 713.659 435.098C713.742 435.059 713.839 435.01 713.911 434.956C713.981 434.915 714.069 434.839 714.139 434.798C714.197 434.755 714.3 434.668 714.347 434.611C714.375 434.59 714.408 434.543 714.437 434.522C714.453 434.499 714.5 434.442 714.529 434.421C714.561 434.374 714.625 434.294 714.67 434.249C714.688 434.214 714.72 434.167 714.739 434.131C714.742 434.106 714.806 434.026 714.822 434.003C714.978 433.731 715.076 433.502 715.149 433.27C715.155 433.232 715.219 433.062 715.224 433.025C715.224 433.025 715.274 432.865 715.276 432.853C715.279 432.828 715.305 432.742 715.307 432.729L715.344 432.568L715.503 431.849C715.794 430.072 716.002 428.257 716.198 426.517C716.518 423.694 716.851 420.782 717.481 418.197C717.917 416.391 718.575 414.477 719.434 412.503C719.823 411.612 720.254 410.702 720.688 409.768C721.459 408.127 722.264 406.427 722.872 404.761C723.512 403.05 723.975 401.324 724.253 399.635C724.852 395.892 724.736 392.042 724.544 388.782C724.327 385.353 723.925 381.793 723.516 378.36C722.817 372.41 722.11 366.267 722.393 360.515C722.656 353.965 724.139 346.79 725.444 340.461C726.158 337.145 726.908 333.757 727.653 330.318C733.951 301.57 741.09 269.001 742.842 240.24C743.665 226.775 743.385 215.888 741.959 205.984C740.593 196.614 738.257 188.855 734.809 182.275C729.809 172.631 721.738 163.899 711.454 157.041C706.688 153.88 701.916 151.269 697.266 149.304C692.944 147.453 688.082 146.046 681.517 144.718C673.621 143.127 661.951 141.42 655.683 140.508C652.026 140.038 647.834 139.462 643.389 138.861C630.849 137.152 616.64 135.206 606.651 134.507C598.791 133.96 587.781 134.261 578.93 134.514C576.821 134.571 574.814 134.629 572.951 134.671C567.715 134.734 562.567 134.643 558.476 134.416C552.839 134.163 537.37 132.682 526.079 131.609C521.633 131.187 517.819 130.822 515.468 130.611C509.176 130.119 502.897 129.705 496.239 129.261C469.745 127.49 442.338 125.66 417.916 119.379C411.391 117.698 403.853 115.34 395.531 112.403C393.366 111.631 390.611 110.616 387.576 109.495C378.302 106.07 366.769 101.82 360.179 99.9751C354.157 98.1898 347.062 96.5518 340.189 94.9726C334.456 93.6536 328.526 92.2795 323.447 90.8661C320.042 89.9081 316.047 88.6182 312.181 87.2324C309.593 86.2941 305.895 84.895 301.981 83.3994C297.34 81.6284 292.54 79.808 289.376 78.6939C284.999 77.129 279.553 75.4299 272.76 73.4908C269.662 72.6174 265.955 71.627 262.038 70.5797C251.592 67.7994 239.74 64.655 232.181 61.6657C228.615 60.2477 225.382 58.649 222.596 56.8989C218.585 54.4274 214.781 50.9998 211.114 47.6824C208.993 45.7627 206.793 43.7673 204.585 42.0013C200.747 38.889 197.079 36.5201 193.42 34.7805C191.978 31.8343 190.088 28.1931 187.869 24.8744C186.766 23.2607 185.267 21.2035 183.381 19.5113C182.17 18.4456 181.069 17.7553 179.904 17.3247C178.992 16.996 178.055 16.8429 177.116 16.8692C170.845 17.085 166.016 25.3104 163.79 29.9129C153.424 31.2211 146.193 36.3184 138.631 43.5454L123.4 58.5348C120.609 61.1811 116.865 64.6334 112.903 67.5662C110.235 69.5643 107.081 71.5538 104.051 73.485C102.183 74.667 100.258 75.8917 98.4906 77.0888C96.2949 78.5806 94.3214 80.0417 92.6281 81.4293C90.8232 82.8771 87 86.3433 83.9302 89.1402C82.8631 90.1087 81.9293 90.9561 81.2786 91.5382C78.8331 93.6721 76.1791 95.9159 73.2799 97.5718C72.0461 98.2846 70.5798 98.9242 68.811 99.5313C67.6564 99.3715 66.4087 99.4925 65.1572 99.895C63.6759 100.378 62.2016 101.158 60.5526 102.334C59.0871 103.397 57.8089 104.577 56.7218 105.85C55.2302 107.602 54.2305 109.49 53.7587 111.445C53.12 114.003 53.2567 116.857 54.1553 119.927C54.7962 122.15 55.8411 124.242 56.8327 126.262L57.0395 126.678C57.0997 126.789 57.1367 126.885 57.1862 126.982C57.4069 127.476 57.714 128.163 58.2748 128.696C58.4421 128.862 58.6257 129.005 58.8238 129.137C59.5458 130.475 60.4319 131.916 61.6457 133.135C62.5141 134.009 63.5041 134.67 64.5334 135.067C66.0757 137.259 67.9694 139.67 70.4124 141.664C72.3529 143.249 74.3866 144.297 76.4508 144.798C78.4523 145.289 80.475 145.297 81.8118 145.266C83.3816 145.219 85.0954 145.065 86.7573 144.916C88.4047 144.778 90.1185 144.624 91.5862 144.574C93.8782 144.494 96.0168 144.583 97.9607 144.861C104.011 145.689 110.714 147.974 117.225 150.178C118.907 150.75 120.564 151.319 122.151 151.838C130.936 159.818 141.29 167.071 153.778 174.015C154.784 174.563 155.995 175.206 157.312 175.903C160.756 177.713 165.043 179.969 167.344 181.711C169.122 183.015 170.712 184.547 172.094 186.267C174.112 188.787 175.966 191.897 177.744 195.765C180.144 201.046 181.906 206.733 182.967 212.66C184.506 221.21 184.346 230.928 184.183 240.326C184.147 242.705 184.107 245.032 184.088 247.298C184.093 253.427 184.226 259.907 185.598 266.061C186.348 269.352 187.531 272.747 189.114 276.124C190.702 279.553 193.198 283.76 195.424 287.464C196.06 288.521 196.662 289.547 197.215 290.475C199.266 293.974 201.019 297.582 202.441 301.179C203.451 303.676 204.457 306.544 205.54 309.578C207.033 313.813 208.582 318.186 210.18 321.719C211.797 325.294 213.534 328.156 215.489 330.5C217.455 332.857 219.798 334.836 222.448 336.386C227.311 339.241 232.766 340.455 236.973 341.186C244.367 342.446 252.316 342.828 259.468 343.141C259.767 343.711 260.087 344.31 260.339 344.771C260.781 345.581 261.521 346.884 262.361 348.381C264.285 351.784 266.929 356.461 267.78 358.306C268.365 359.534 268.781 360.519 269.08 361.436C269.389 362.367 269.598 363.282 269.724 364.147C269.844 365.063 269.882 366.094 269.813 367.237C269.668 369.92 268.931 374.335 268.336 377.887C268.123 379.137 267.938 380.289 267.781 381.252L267.661 382.055C266.852 387.203 266.018 392.526 266.209 397.759C266.279 399.603 266.48 401.338 266.835 402.903C267.237 404.758 267.899 406.754 268.844 408.998C269.193 409.832 269.608 410.741 270.02 411.674C270.98 413.817 272.078 416.238 272.635 418.167C273.483 420.973 273.821 424.023 273.644 427.266C273.402 431.537 272.502 435.927 271.745 439.275C270.459 444.787 268.827 450.389 267.029 455.478C264.723 461.902 261.295 470.004 255.231 475.609C253.249 477.466 250.749 479.194 247.559 480.909L242.236 483.702C239.546 485.159 236.843 486.87 235.101 489.609C234.198 491.025 233.597 492.73 233.306 494.673C233.062 496.303 233.054 497.904 233.26 499.435C233.428 500.537 233.797 503.041 235.884 504.417C236.653 504.929 237.475 505.168 238.03 505.315C238.672 505.475 241.149 505.871 256.588 508.154C260.146 508.687 263.216 509.146 263.579 509.2C264.809 509.371 266.146 509.507 267.509 509.301C268.48 509.151 269.44 508.808 270.298 508.295C271.129 507.791 271.922 507.115 272.72 506.234C274.359 504.352 275.972 501.708 277.397 499.371C277.89 498.56 278.363 497.797 278.799 497.106C279.632 495.821 280.497 494.489 281.573 493.547C281.898 493.262 282.225 493.042 282.539 492.91C282.8 492.795 283.094 492.711 283.394 492.679C284.045 492.609 284.84 492.69 285.674 492.763C287.316 492.919 289.175 493.082 291.061 492.287C292.211 491.793 293.295 490.968 294.182 489.921C295.068 488.874 295.713 487.65 296.067 486.396C296.788 483.799 296.207 481.263 295.623 479.343L295.52 479.007C294.863 476.973 294.178 474.871 293.928 472.949C293.666 471.192 293.637 469.239 293.818 466.92C294.093 463.539 294.731 460.045 295.329 457.07C296.365 451.944 297.889 445.698 299.623 439.497C301.341 433.575 303.296 426.842 306.443 420.878C307.728 418.455 309.377 416.074 311.358 413.793L314.429 410.304C316.968 407.376 318.805 404.6 320.045 401.786C322.028 397.352 322.759 392.552 323.335 388.011C323.692 385.115 323.971 381.619 324.246 378.238C324.512 374.919 324.795 371.487 325.132 368.717C325.676 364.312 326.408 360.871 327.455 357.899C328.564 354.681 330.235 351.47 332.841 347.578C345.552 349.005 358.921 350.748 371.276 354.467L394.194 361.561C401.035 363.521 408.297 365.414 413.731 366.676C419.172 370.041 423.149 372.738 426.594 375.394C429.611 377.665 433.152 380.964 436.277 383.88L437.976 385.454C442.022 389.149 446.499 392.87 451.88 395.174C454.67 396.386 457.663 397.193 460.747 397.552C465.869 398.164 471.018 397.563 474.925 396.967C478.517 396.415 482.513 395.564 487.516 394.313C491.916 393.24 509.095 388.259 520.474 384.975C524.732 383.74 528.228 382.724 530.019 382.223C533.597 381.169 538.13 379.719 541.81 378.5C542.535 379.301 543.283 380.041 544.056 380.695C545.112 381.596 546.352 382.474 547.936 383.442C548.487 383.781 549.089 384.127 549.714 384.489C551.104 385.3 552.542 386.13 553.613 387.021C554.456 387.724 555.026 388.45 555.311 389.198C555.549 389.836 555.666 390.597 555.68 391.612C555.699 393.461 555.317 395.673 554.931 397.82C554.819 398.483 554.699 399.118 554.605 399.745C554.442 400.836 554.26 402.052 554.3 403.327C554.336 404.371 554.55 405.249 554.959 406.028C555.532 407.165 556.597 408.094 558.09 408.727C558.8 409.038 561.058 410.043 563.272 408.938C564.906 408.119 565.762 406.593 566.323 405.587C567.016 404.294 567.576 402.942 568.132 401.627C568.825 399.988 569.468 398.43 570.28 397.116C570.414 396.905 570.81 396.311 571.115 396.151C571.186 396.11 571.628 396.151 572.336 396.641C572.848 396.987 573.368 397.45 573.93 398.059C574.526 398.7 574.991 399.359 575.316 400.01C575.762 400.884 575.995 401.893 575.994 402.932C575.998 404.188 575.778 405.655 575.556 407.058C575.415 407.998 575.269 408.976 575.176 409.937C575.051 411.2 575.061 412.253 575.185 413.22C575.448 415.143 576.109 416.55 577.204 417.534C577.971 418.226 578.984 418.647 580.064 418.706C581.486 418.79 582.933 418.365 584.368 417.426C585.561 416.643 586.477 415.652 587.146 414.868C587.908 413.969 588.956 412.523 589.797 411.355L590.427 410.487C591.217 409.4 592.205 408.189 593.464 407.48C594.023 407.167 594.643 406.875 595.484 406.565C597.018 405.986 600.976 404.873 603.864 404.062C605.135 403.701 606.244 403.392 606.967 403.18C611.915 401.702 615.8 400.22 619.196 398.497C623.64 396.277 628.169 393.314 632.971 389.469C634.357 392.112 635.335 394.565 635.971 396.904C636.844 400.06 637.237 403.426 637.499 406.298L637.584 407.272C637.959 411.79 638.423 417.422 639.207 421.77C640.509 429.426 642.43 437.046 644.916 444.404C645.703 446.765 646.772 449.553 647.894 452.502C649.48 456.624 651.109 460.893 652.026 464.183C652.844 467.023 653.364 469.883 653.571 472.695C653.836 475.978 653.747 479.567 653.312 484.015C652.697 489.845 651.639 496.66 650.07 504.835C649.14 509.426 648.026 514.733 646.516 519.52C645.381 523.08 644.186 525.76 642.744 527.955C641.878 529.287 640.766 530.646 639.364 532.141C637.859 533.723 636.311 535.081 634.764 536.17C632.912 537.509 630.707 538.55 628.165 539.273C627.736 539.401 627.282 539.525 626.815 539.648C625.239 540.079 623.45 540.567 622.013 541.263C620.885 541.786 619.945 542.415 619.181 543.159C617.745 544.534 617.006 546.308 616.478 547.87C615.756 550.043 615.293 552.025 615.047 553.924C614.933 554.856 614.83 556.058 614.987 557.325C615.089 558.097 615.284 558.767 615.581 559.35C615.924 560.055 616.455 560.698 617.086 561.19C617.785 561.743 618.647 562.141 619.731 562.432C620.162 562.547 620.636 562.631 621.085 562.711L621.812 562.82L621.811 562.743ZM262.714 504.533C261.524 504.355 259.695 504.081 257.277 503.719C250.925 502.769 240.334 501.211 239.203 500.978C239.178 500.974 239.166 500.972 239.141 500.968C238.77 500.875 238.515 500.785 238.353 500.671C237.91 500.374 237.732 499.168 237.663 498.773C237.52 497.675 237.529 496.497 237.701 495.266C237.896 493.962 238.281 492.841 238.852 491.939C239.976 490.159 241.841 488.912 244.32 487.578L249.642 484.797C253.193 482.893 255.996 480.941 258.258 478.83C265.021 472.586 268.736 463.848 271.217 456.938C273.065 451.689 274.748 445.916 276.071 440.243C276.868 436.708 277.817 432.082 278.08 427.493C278.299 423.719 277.898 420.146 276.9 416.882C276.27 414.673 275.105 412.101 274.076 409.819C273.673 408.913 273.278 408.046 272.937 407.239C272.096 405.241 271.524 403.502 271.172 401.911C270.882 400.599 270.704 399.136 270.644 397.564C270.479 392.757 271.269 387.645 272.048 382.698L272.17 381.883C272.312 380.93 272.506 379.805 272.715 378.58C273.327 374.916 274.097 370.365 274.253 367.44C274.327 366.002 274.287 364.727 274.132 363.538C273.984 362.387 273.702 361.191 273.303 360.004C272.941 358.911 272.46 357.762 271.806 356.395C270.886 354.412 268.302 349.846 266.238 346.179C265.407 344.709 264.676 343.433 264.246 342.625C263.844 341.886 263.234 340.743 262.874 339.984C262.522 339.252 261.799 338.772 260.972 338.738C253.626 338.434 245.299 338.099 237.746 336.79C233.912 336.127 228.966 335.028 224.715 332.533C222.5 331.241 220.557 329.591 218.916 327.628C217.208 325.603 215.691 323.069 214.236 319.865C212.716 316.496 211.191 312.218 209.736 308.077C208.647 304.992 207.622 302.082 206.584 299.517C205.09 295.717 203.238 291.915 201.075 288.22C200.524 287.278 199.911 286.238 199.264 285.167C197.103 281.549 194.665 277.467 193.176 274.232C191.719 271.129 190.643 268.046 189.962 265.06C188.678 259.343 188.569 253.135 188.562 247.275C188.575 245.047 188.614 242.732 188.645 240.378C188.803 230.762 188.97 220.826 187.353 211.854C186.217 205.57 184.355 199.523 181.802 193.898C179.858 189.684 177.831 186.279 175.574 183.467C173.955 181.443 172.084 179.651 170.006 178.135C167.451 176.202 163.163 173.958 159.387 171.97C158.105 171.291 156.905 170.663 155.934 170.133C143.587 163.274 133.399 156.11 124.789 148.246C124.552 148.031 124.281 147.875 123.975 147.778C122.264 147.227 120.486 146.615 118.657 145.996C112.27 143.822 105.056 141.359 98.5651 140.478C96.3688 140.175 93.9758 140.073 91.4527 140.158C89.8703 140.203 88.092 140.36 86.3801 140.501C84.7827 140.647 83.1228 140.783 81.6946 140.826C79.9456 140.872 78.6546 140.769 77.5063 140.482C76.0716 140.139 74.6363 139.373 73.2196 138.225C70.9834 136.391 69.2005 134.009 67.7579 131.922C67.4527 131.479 66.9891 131.153 66.4578 131.022C65.7655 130.855 65.1847 130.37 64.8056 129.993C63.8268 129.001 63.0886 127.685 62.4342 126.408C62.1954 125.949 61.8251 125.599 61.357 125.388C61.3182 125.305 61.2812 125.21 61.2423 125.127C61.1646 124.962 61.0869 124.796 61.018 124.658L60.8324 124.271C59.9167 122.429 58.9726 120.519 58.4315 118.656C57.7517 116.35 57.6384 114.282 58.0857 112.49C58.3935 111.203 59.0809 109.947 60.1229 108.718C60.9789 107.705 62.0028 106.769 63.1658 105.93C64.4278 105.029 65.5138 104.448 66.5517 104.103C67.049 103.947 67.79 103.788 68.4697 103.954C68.8775 104.054 69.3022 104.04 69.6937 103.907C71.9849 103.147 73.8877 102.329 75.5117 101.405C78.7616 99.5454 81.7238 97.0401 84.2432 94.8403C84.9227 94.2368 85.8583 93.3769 86.9398 92.3978C89.8005 89.8003 93.7158 86.2325 95.4449 84.8631C97.0663 83.5289 98.9244 82.1531 101.007 80.734C102.717 79.5796 104.529 78.4277 106.454 77.203C109.566 75.2329 112.78 73.1882 115.591 71.096C119.741 68.0121 123.604 64.4493 126.514 61.6926L141.747 46.6907C149.129 39.6418 155.692 35.0727 165.502 34.1428C166.294 34.0691 166.983 33.5697 167.309 32.8492C169.875 27.1696 173.956 21.3831 177.278 21.2648C177.638 21.2545 178.027 21.3126 178.391 21.4441C179.022 21.6795 179.677 22.0979 180.446 22.777C181.971 24.1459 183.256 25.9149 184.2 27.3124C186.438 30.6725 188.368 34.4735 189.789 37.3909C190.013 37.8603 190.394 38.225 190.875 38.4379C194.438 40.0477 198.017 42.3264 201.821 45.408C203.937 47.1088 205.99 48.9671 208.156 50.9318C211.968 54.3864 215.917 57.9638 220.268 60.6402C223.266 62.5242 226.735 64.2482 230.558 65.7557C238.357 68.8452 250.345 72.0227 260.903 74.8324C264.809 75.8653 268.504 76.8538 271.563 77.7217C278.258 79.6332 283.606 81.3048 287.912 82.8333C291.027 83.9275 295.802 85.7441 300.42 87.4988C304.346 88.9962 308.055 90.4097 310.693 91.3556C314.643 92.7796 318.76 94.1133 322.265 95.0862C327.442 96.5272 333.422 97.9088 339.193 99.2334C345.991 100.801 353.036 102.432 358.949 104.175C365.405 105.974 376.852 110.199 386.042 113.586C389.089 114.708 391.857 115.725 394.033 116.512C402.487 119.507 410.15 121.884 416.796 123.608C441.625 130.001 469.236 131.837 495.932 133.625C502.565 134.065 508.842 134.492 515.084 134.977C517.398 135.182 521.212 135.547 525.645 135.966C536.986 137.047 552.518 138.537 558.244 138.791C562.398 139.028 567.661 139.123 573.013 139.052C574.901 139.014 576.921 138.957 579.044 138.89C587.791 138.647 598.686 138.341 606.331 138.869C616.181 139.56 630.314 141.495 642.78 143.193C647.248 143.81 651.442 144.373 655.074 144.839C661.267 145.74 672.862 147.436 680.632 149.008C686.885 150.277 691.49 151.606 695.524 153.325C699.921 155.188 704.457 157.661 708.987 160.684C718.642 167.128 726.209 175.285 730.872 184.276C734.092 190.411 736.279 197.712 737.567 206.57C738.949 216.173 739.21 226.762 738.419 239.925C736.681 268.329 729.58 300.737 723.319 329.323C722.561 332.761 721.824 336.15 721.094 339.489C719.747 346.005 718.236 353.368 717.948 360.26C717.639 366.354 718.381 372.696 719.091 378.827C719.497 382.361 719.896 385.69 720.093 389.001C720.268 392.027 720.391 395.571 719.856 398.888C719.634 400.29 719.239 401.731 718.702 403.176C718.159 404.672 717.392 406.288 716.661 407.832C716.209 408.803 715.758 409.761 715.365 410.676C714.393 412.89 713.658 415.062 713.161 417.102C712.467 419.947 712.126 422.998 711.785 425.96C711.674 426.956 711.557 427.913 711.443 428.844C711.418 428.84 711.406 428.839 711.381 428.835C711.22 428.798 711.009 428.753 710.842 428.754C710.754 428.741 710.65 428.751 710.571 428.765C710.442 428.771 710.297 428.801 710.177 428.834C710.096 428.861 709.99 428.883 709.922 428.911C709.814 428.947 709.69 429.005 709.591 429.067C709.521 429.108 709.436 429.159 709.379 429.202C709.335 429.234 709.276 429.289 709.233 429.321C709.202 429.355 709.144 429.398 709.114 429.432C709.083 429.465 709.052 429.499 709.022 429.533C708.977 429.578 708.93 429.635 708.897 429.681C708.881 429.704 708.834 429.761 708.818 429.785C708.787 429.819 708.767 429.867 708.736 429.901C708.702 429.96 708.653 430.029 708.631 430.09C708.613 430.126 708.557 430.246 708.537 430.294C708.327 430.839 708.265 431.253 708.22 431.554C708.104 432.331 708.025 434.23 707.933 436.639C707.908 437.404 707.876 438.053 707.862 438.397C707.668 442.098 707.245 445.009 706.545 447.545C705.771 450.493 704.439 453.832 703.139 457.048C702.304 459.115 701.524 461.075 700.872 462.952C699.882 465.803 699.14 468.538 698.673 471.058C698.073 474.301 697.834 477.611 697.67 480.42C697.629 481.208 697.59 482.241 697.538 483.361C697.485 484.571 697.433 485.948 697.362 487.193C696.995 486.907 696.614 486.71 696.225 486.574C696.199 486.571 696.116 486.532 696.078 486.527C696.04 486.521 695.992 486.501 695.955 486.496C695.892 486.486 695.718 486.447 695.643 486.436C695.581 486.427 695.405 486.401 695.33 486.389C695.267 486.38 695.138 486.386 695.074 486.389L694.945 486.396C694.945 486.396 694.724 486.414 694.699 486.41C694.62 486.424 694.502 486.445 694.423 486.459L694.29 486.49C694.29 486.49 694.17 486.523 694.116 486.541C694.062 486.559 693.901 486.611 693.847 486.629C693.275 486.851 692.764 487.185 692.272 487.65C691.778 488.127 691.337 488.676 690.885 489.391C689.943 490.891 689.249 492.53 688.692 493.947C687.857 496.104 687.066 498.562 686.2 501.701C685.928 502.661 685.606 503.959 685.24 505.378C684.645 507.725 683.95 510.492 683.282 512.559C682.873 511.267 682.538 509.909 682.244 508.622C681.602 505.718 681.073 502.665 680.728 499.832C680.594 498.761 679.718 497.937 678.636 497.891C677.554 497.844 676.599 498.573 676.365 499.628C675.131 505.225 673.761 511.724 673.174 518.136C672.795 522.297 672.792 526.77 673.157 531.44C673.248 532.543 673.355 533.713 673.47 534.909C673.83 538.668 674.209 542.557 673.965 545.815C673.832 547.308 673.629 548.496 673.039 549.356C672.827 549.658 672.527 549.869 672.178 549.971C671.378 550.184 670.34 550.016 669.35 549.868C668.972 549.825 668.586 549.754 668.176 549.667C667.177 549.492 666.043 549.284 665.113 549.247C663.702 549.177 662.415 549.472 661.347 550.107C660.183 550.779 659.37 551.76 658.859 552.44C657.796 553.896 656.845 555.625 655.927 557.308C655.258 558.529 654.638 559.679 654.006 560.649C653.492 561.431 652.789 562.364 652.062 562.512C651.454 562.639 650.686 562.549 649.882 562.442L649.707 562.416L622.469 558.342L621.78 558.239C621.492 558.196 621.157 558.12 620.848 558.048C620.367 557.925 620.031 557.772 619.801 557.597C619.687 557.503 619.6 557.4 619.552 557.29C619.473 557.137 619.425 556.938 619.39 556.663C619.313 556.062 619.329 555.359 619.448 554.39C619.648 552.792 620.058 551.084 620.687 549.191C621.032 548.166 621.502 546.993 622.263 546.274C622.681 545.875 623.221 545.52 623.91 545.2C625.013 544.672 626.589 544.242 627.991 543.862C628.484 543.73 628.965 543.597 629.395 543.469C632.407 542.599 635.092 541.347 637.333 539.721C639.094 538.485 640.863 536.929 642.581 535.122C644.166 533.436 645.425 531.868 646.438 530.315C648.098 527.781 649.473 524.756 650.732 520.791C652.299 515.796 653.448 510.34 654.41 505.625C656.013 497.302 657.09 490.361 657.714 484.391C658.177 479.666 658.265 475.82 657.988 472.279C657.76 469.181 657.183 466.018 656.29 462.911C655.322 459.446 653.644 455.08 652.034 450.853C650.918 447.955 649.879 445.223 649.119 442.943C646.717 435.789 644.851 428.396 643.582 420.95C642.833 416.8 642.377 411.284 642.001 406.856L641.92 405.857C641.64 402.764 641.218 399.163 640.254 395.673C639.349 392.307 637.801 388.781 635.551 384.894C635.226 384.332 634.657 383.94 634.021 383.819C633.377 383.671 632.719 383.88 632.219 384.306C626.904 388.754 622 392.084 617.224 394.472C614.063 396.076 610.422 397.467 605.73 398.867C605.019 399.081 603.936 399.381 602.692 399.733C599.564 400.611 595.66 401.707 593.962 402.35C592.904 402.743 592.052 403.129 591.295 403.567C589.322 404.682 587.948 406.335 586.868 407.814L586.221 408.717C585.429 409.817 584.456 411.184 583.806 411.933C583.324 412.501 582.681 413.2 581.97 413.671C581.375 414.056 580.793 414.264 580.361 414.238C580.248 414.221 580.2 414.201 580.19 414.186C579.997 414.016 579.74 413.593 579.597 412.585C579.509 411.969 579.514 411.252 579.603 410.317C579.675 409.494 579.816 408.631 579.955 407.703C580.192 406.123 580.448 404.495 580.446 402.88C580.436 401.148 580.035 399.46 579.296 397.977C578.794 396.966 578.084 395.976 577.204 395.011C576.411 394.149 575.639 393.482 574.862 392.943C572.898 391.598 570.892 391.311 569.193 392.133C567.949 392.742 567.168 393.766 566.555 394.7C565.526 396.354 564.77 398.151 564.051 399.876C563.516 401.142 563.015 402.349 562.446 403.418C562.148 403.95 561.713 404.718 561.31 404.927C561.255 404.957 560.917 405.073 559.885 404.611C559.163 404.298 558.971 404.039 558.922 403.942C558.842 403.789 558.761 403.559 558.75 403.121C558.725 402.259 558.867 401.306 559.006 400.378C559.093 399.801 559.211 399.178 559.32 398.54C559.705 396.303 560.161 393.769 560.128 391.508C560.104 389.953 559.894 388.704 559.473 387.577C558.924 386.111 557.91 384.754 556.464 383.551C555.108 382.425 553.505 381.493 551.949 380.593C551.37 380.263 550.805 379.935 550.278 379.6C548.881 378.75 547.825 378.015 546.953 377.257C546.032 376.478 545.135 375.536 544.269 374.471C543.687 373.743 542.716 373.469 541.839 373.761C538.02 375.062 532.788 376.728 528.821 377.903C527.054 378.408 523.547 379.422 519.276 380.655C507.936 383.933 490.811 388.896 486.49 389.955C481.607 391.173 477.731 391.99 474.282 392.526C470.652 393.072 465.892 393.642 461.3 393.084C458.633 392.762 456.057 392.082 453.653 391.03C448.874 388.982 444.74 385.53 440.986 382.11L439.311 380.552C436.106 377.573 432.475 374.184 429.299 371.786C425.682 368.989 421.507 366.16 415.758 362.633C415.56 362.501 415.329 362.415 415.095 362.355C409.684 361.109 402.349 359.192 395.47 357.227L372.59 350.139C359.439 346.172 345.343 344.41 332.038 342.932C331.232 342.838 330.434 343.205 329.974 343.88C327.934 346.818 325.034 351.307 323.303 356.368C322.162 359.633 321.348 363.357 320.767 368.103C320.416 370.96 320.126 374.442 319.854 377.799C319.585 381.143 319.3 384.587 318.959 387.382C318.42 391.583 317.756 396.021 316.021 399.915C314.97 402.322 313.366 404.735 311.124 407.31L308.053 410.799C305.841 413.34 303.996 415.999 302.562 418.733C299.191 425.087 297.089 432.375 295.396 438.211C293.63 444.536 292.078 450.892 291.025 456.132C290.406 459.244 289.733 462.886 289.449 466.497C289.23 469.157 289.285 471.447 289.58 473.503C289.888 475.806 290.657 478.203 291.34 480.317L291.435 480.626C291.84 481.943 292.26 483.673 291.845 485.162C291.658 485.813 291.319 486.455 290.851 487.013C290.414 487.537 289.893 487.933 289.387 488.153C288.539 488.513 287.427 488.411 286.137 488.295C285.14 488.197 284.091 488.104 282.997 488.222C282.203 488.309 281.469 488.507 280.782 488.814C280.082 489.132 279.387 489.58 278.724 490.16C277.188 491.52 276.108 493.178 275.157 494.652C274.69 495.376 274.212 496.177 273.69 497.009C272.364 499.195 270.853 501.674 269.477 503.25C269.001 503.781 268.545 504.174 268.095 504.44C267.73 504.655 267.324 504.799 266.917 504.867C266.117 504.99 265.21 504.893 264.331 504.775C264.193 504.754 263.654 504.673 262.74 504.537L262.714 504.533ZM712.829 432.423L713.071 432.523L712.815 432.434L712.829 432.423ZM713.011 432.066L713.195 432.119L712.995 432.089L712.998 432.064L713.011 432.066Z" fill="#D0E0F5"/>
  </g>
  <mask id="mask0_186_34227" style="mask-type:alpha" maskUnits="userSpaceOnUse" x="181" y="30" width="192" height="193">
    <rect x="221.549" y="30.9999" width="156.668" height="156.668" transform="rotate(15 221.549 30.9999)" fill="#D9D9D9"/>
  </mask>
  <g mask="url(#mask0_186_34227)">
    <path d="M237.762 187.402L231.188 164.014L209.84 152.888L218.298 130.149L207.581 108.355L227.76 94.8388L231.804 70.9175L255.855 71.9555L273.242 54.9882L292.23 69.8755L316.119 66.477L322.692 89.8645L344.04 100.991L335.582 123.73L346.3 145.524L326.121 159.04L322.076 182.961L298.025 181.923L280.639 198.891L261.65 184.003L237.762 187.402Z" fill="#D0E0F5"/>
  </g>
  <defs>
    <clipPath id="clip0_186_34227">
      <rect width="707.142" height="474.251" fill="white" transform="matrix(-0.988998 -0.147926 -0.147926 0.988998 769.654 105.342)"/>
    </clipPath>
  </defs>
</svg>
