<svg viewBox="0 0 236 234" fill="none"
  xmlns="http://www.w3.org/2000/svg">
  <path d="M98.6092 14.372L97.2801 12.2546L98.6092 14.372L116.67 3.03581C117.483 2.52575 118.515 2.52575 119.328 3.03581L137.389 14.372C138.891 15.3149 140.679 15.6949 142.435 15.4446L163.545 12.4344C164.495 12.299 165.438 12.7191 165.973 13.5156L177.862 31.2177C178.851 32.6901 180.329 33.7644 182.035 34.2499L202.545 40.0862C203.467 40.3488 204.159 41.1164 204.323 42.0616L207.984 63.0688C208.288 64.8161 209.202 66.399 210.563 67.5363L226.926 81.2101C227.662 81.8253 227.981 82.8076 227.747 83.7381L222.547 104.418C222.114 106.138 222.305 107.956 223.086 109.548L232.472 128.695C232.895 129.557 232.787 130.584 232.194 131.339L219.032 148.116C217.938 149.511 217.373 151.249 217.438 153.022L218.225 174.331C218.261 175.29 217.744 176.184 216.896 176.633L198.049 186.606C196.481 187.436 195.258 188.794 194.597 190.44L186.648 210.227C186.291 211.117 185.455 211.724 184.498 211.789L163.223 213.234C161.454 213.354 159.784 214.097 158.511 215.332L143.201 230.175C142.513 230.843 141.502 231.058 140.601 230.728L120.578 223.395C118.913 222.785 117.085 222.785 115.42 223.395L95.3966 230.728C94.4957 231.058 93.4854 230.843 92.7966 230.175L77.4874 215.332C76.2141 214.097 74.5443 213.354 72.7748 213.234L51.5 211.789C50.5428 211.724 49.7072 211.117 49.3496 210.227L41.4013 190.44C40.7402 188.794 39.5172 187.436 37.9495 186.606L19.1017 176.633C18.2537 176.184 17.7372 175.29 17.7726 174.331L18.5597 153.022C18.6252 151.249 18.0603 149.511 16.9656 148.116L3.80361 131.339C3.21139 130.584 3.10343 129.557 3.52576 128.695L12.912 109.548C13.6927 107.956 13.8838 106.138 13.4512 104.418L8.25094 83.7381C8.01695 82.8076 8.33612 81.8253 9.07234 81.2101L25.4348 67.5363C26.7958 66.399 27.7097 64.8161 28.0141 63.0688L31.6747 42.0616C31.8394 41.1164 32.5305 40.3488 33.4533 40.0862L53.9628 34.2499C55.6687 33.7644 57.1474 32.6901 58.1362 31.2177L70.0247 13.5156C70.5597 12.7191 71.5032 12.299 72.453 12.4344L93.5633 15.4446C95.3191 15.6949 97.1069 15.3149 98.6092 14.372Z" fill="none" stroke="#586CF8" stroke-width="5"/>
  <path d="M130.908 118.196V146.112H159.215V174.419H74.8408V61.9788H102.992V146.112H116.904V118.196H130.901H130.908ZM158.908 118.196V89.8882H144.911V61.9723H116.911V76.126H130.908V118.196H158.908ZM172.906 61.5807H158.908V89.8882H172.906V61.5807Z" fill="#586CF8"/>
</svg>
