<svg viewBox="0 0 40 40" fill="none"
  xmlns="http://www.w3.org/2000/svg">
  <mask id="friends" style="mask-type:alpha" maskUnits="userSpaceOnUse" x="0" y="0" width="40" height="40">
    <rect width="40" height="40" fill="#D9D9D9"/>
  </mask>
  <g mask="url(#friends)">
    <path d="M1.66675 33.3333V26.6667C1.66675 25.7222 1.99314 24.9305 2.64591 24.2917C3.29869 23.6528 4.08341 23.3333 5.00008 23.3333H10.4584C11.014 23.3333 11.5417 23.4722 12.0417 23.75C12.5417 24.0278 12.9445 24.4028 13.2501 24.875C14.0556 25.9583 15.0487 26.8055 16.2292 27.4167C17.4098 28.0278 18.6667 28.3333 20.0001 28.3333C21.3612 28.3333 22.632 28.0278 23.8126 27.4167C24.9931 26.8055 25.9723 25.9583 26.7501 24.875C27.1112 24.4028 27.5348 24.0278 28.0209 23.75C28.507 23.4722 29.014 23.3333 29.5417 23.3333H35.0001C35.9445 23.3333 36.7362 23.6528 37.3751 24.2917C38.014 24.9305 38.3334 25.7222 38.3334 26.6667V33.3333H26.6667V29.5417C25.6945 30.2361 24.6459 30.7639 23.5209 31.125C22.3959 31.4861 21.2223 31.6667 20.0001 31.6667C18.8056 31.6667 17.639 31.4792 16.5001 31.1042C15.3612 30.7292 14.3056 30.1944 13.3334 29.5V33.3333H1.66675ZM20.0001 26.6667C18.9445 26.6667 17.9445 26.4236 17.0001 25.9375C16.0556 25.4514 15.264 24.7778 14.6251 23.9167C14.1529 23.2222 13.5626 22.6736 12.8542 22.2708C12.1459 21.868 11.3751 21.6667 10.5417 21.6667C11.1529 20.6389 12.4445 19.8264 14.4167 19.2292C16.389 18.6319 18.2501 18.3333 20.0001 18.3333C21.7501 18.3333 23.6112 18.6319 25.5834 19.2292C27.5556 19.8264 28.8473 20.6389 29.4584 21.6667C28.6529 21.6667 27.889 21.868 27.1667 22.2708C26.4445 22.6736 25.8473 23.2222 25.3751 23.9167C24.764 24.8055 23.9862 25.4861 23.0417 25.9583C22.0973 26.4305 21.0834 26.6667 20.0001 26.6667ZM6.66675 21.6667C5.27786 21.6667 4.0973 21.1805 3.12508 20.2083C2.15286 19.2361 1.66675 18.0555 1.66675 16.6667C1.66675 15.25 2.15286 14.0625 3.12508 13.1042C4.0973 12.1458 5.27786 11.6667 6.66675 11.6667C8.08342 11.6667 9.27092 12.1458 10.2292 13.1042C11.1876 14.0625 11.6667 15.25 11.6667 16.6667C11.6667 18.0555 11.1876 19.2361 10.2292 20.2083C9.27092 21.1805 8.08342 21.6667 6.66675 21.6667ZM33.3334 21.6667C31.9445 21.6667 30.764 21.1805 29.7917 20.2083C28.8195 19.2361 28.3334 18.0555 28.3334 16.6667C28.3334 15.25 28.8195 14.0625 29.7917 13.1042C30.764 12.1458 31.9445 11.6667 33.3334 11.6667C34.7501 11.6667 35.9376 12.1458 36.8959 13.1042C37.8543 14.0625 38.3334 15.25 38.3334 16.6667C38.3334 18.0555 37.8543 19.2361 36.8959 20.2083C35.9376 21.1805 34.7501 21.6667 33.3334 21.6667ZM20.0001 16.6667C18.6112 16.6667 17.4306 16.1805 16.4584 15.2083C15.4862 14.2361 15.0001 13.0555 15.0001 11.6667C15.0001 10.25 15.4862 9.06249 16.4584 8.10416C17.4306 7.14582 18.6112 6.66666 20.0001 6.66666C21.4167 6.66666 22.6042 7.14582 23.5626 8.10416C24.5209 9.06249 25.0001 10.25 25.0001 11.6667C25.0001 13.0555 24.5209 14.2361 23.5626 15.2083C22.6042 16.1805 21.4167 16.6667 20.0001 16.6667Z" fill="currentColor"/>
  </g>
</svg>
