<svg viewBox="0 0 48 48" fill="none"
  xmlns="http://www.w3.org/2000/svg">
  <g clip-path="url(#clip0_171_16737)">
    <path d="M21.6077 1.09191C23.0704 0.173796 24.9296 0.173795 26.3923 1.09191L26.8716 1.39272C27.9732 2.08419 29.2843 2.36287 30.5719 2.17926L31.1321 2.09938C32.8418 1.85559 34.5402 2.61177 35.503 4.04546L35.8185 4.5152C36.5437 5.59497 37.628 6.38279 38.879 6.73879L39.4233 6.89366C41.0843 7.36635 42.3283 8.74796 42.6248 10.4493L42.7219 11.0068C42.9452 12.2881 43.6154 13.4489 44.6134 14.2829L45.0476 14.6458C46.3728 15.7532 46.9473 17.5214 46.5261 19.1962L46.3882 19.745C46.071 21.0064 46.2111 22.3394 46.7836 23.5073L47.0327 24.0154C47.7929 25.566 47.5985 27.415 46.5325 28.7737L46.1833 29.2189C45.3804 30.2423 44.9663 31.517 45.0143 32.8168L45.0351 33.3822C45.0989 35.1081 44.1693 36.7181 42.6428 37.5258L42.1427 37.7905C40.993 38.3988 40.0962 39.3949 39.6114 40.6018L39.4005 41.1269C38.7567 42.7294 37.2527 43.8222 35.5296 43.9392L34.9651 43.9775C33.6674 44.0657 32.4429 44.6108 31.5091 45.5162L31.1029 45.9101C29.863 47.1123 28.0445 47.4988 26.4228 46.9049L25.8915 46.7103C24.6702 46.263 23.3298 46.263 22.1085 46.7103L21.5772 46.9049C19.9555 47.4988 18.137 47.1123 16.8971 45.9101L16.4909 45.5162C15.5571 44.6108 14.3326 44.0657 13.0349 43.9775L12.4704 43.9392C10.7473 43.8222 9.24327 42.7294 8.59954 41.1269L8.38863 40.6018C7.90382 39.3949 7.00696 38.3988 5.85731 37.7905L5.35716 37.5258C3.83068 36.7181 2.90112 35.1081 2.96486 33.3822L2.98574 32.8168C3.03375 31.517 2.61956 30.2423 1.81673 29.2189L1.46747 28.7738C0.401484 27.415 0.20715 25.566 0.967339 24.0153L1.21641 23.5073C1.78894 22.3394 1.92904 21.0064 1.61184 19.745L1.47385 19.1962C1.05268 17.5214 1.62718 15.7532 2.95238 14.6458L3.38657 14.2829C4.38462 13.4489 5.05479 12.2881 5.27807 11.0068L5.37521 10.4493C5.67168 8.74796 6.91568 7.36635 8.57674 6.89366L9.12098 6.73879C10.372 6.38279 11.4563 5.59496 12.1815 4.5152L12.497 4.04546C13.4598 2.61177 15.1582 1.85559 16.8679 2.09938L17.4281 2.17926C18.7157 2.36287 20.0268 2.08419 21.1284 1.39273L21.6077 1.09191Z" stroke="#FF4E4E"/>
    <path fill-rule="evenodd" clip-rule="evenodd" d="M32.6863 36.1011C33.2235 34.8817 32.8389 33.5161 32.4704 32.2078C32.1 30.8926 31.7459 29.6353 32.3608 28.6425C32.6895 28.1119 33.1505 27.5588 33.6551 26.9534L33.6551 26.9534C35.0336 25.2995 36.7368 23.256 36.9523 20.2178C37.0609 18.6774 36.8387 17.682 35.7079 15.9932C31.8939 10.293 19.8835 5.75115 14.9708 9.12035C14.1669 9.67132 13.5951 10.1026 12.6472 10.9681C10.7257 12.7216 10.2906 14.526 10.7414 16.637C10.7642 16.7436 10.7896 16.866 10.8181 17.0035C11.3534 19.5855 12.9888 27.4729 19.4055 35.7632C23.3613 40.4579 24.5694 40.1809 25.5782 39.9495L25.5782 39.9495C25.6664 39.9293 25.7531 39.9094 25.8399 39.8933C26.9201 39.6922 31.6085 38.5475 32.6867 36.1029L32.6863 36.1011ZM30.2711 35.2705C28.3167 36.9187 26.3998 36.0558 23.3899 32.4822C20.3801 28.9086 11.1958 15.7327 16.2098 11.5048C21.2256 7.27649 30.6616 13.3423 33.6016 16.8301C36.541 20.319 33.1185 23.8673 31.1038 25.5654C30.0888 26.4209 30.3811 28.4589 30.6712 30.4815C30.9569 32.4736 31.2405 34.4509 30.2707 35.2688L30.2711 35.2705ZM18.8867 23.6508L24.8709 27.055L30.8222 23.5815L24.8956 31.8174L18.8867 23.6508ZM18.5555 21.928L24.9073 12.3252L31.1306 21.855L24.8619 25.5171L18.5555 21.928ZM29.072 33.7568C30.4628 32.8798 28.8402 28.5114 28.8402 28.5114L28.8399 28.5097L25.8966 32.6419C25.8966 32.6419 27.6812 34.6338 29.072 33.7568ZM23.6346 11.8565C23.6346 11.8565 17.8573 10.8583 16.6088 13.0647C15.1009 15.7303 17.5384 20.7482 17.5384 20.7482L23.6346 11.8565ZM33.3403 18.9589C33.2644 17.199 27.5158 13.5556 27.5158 13.5556L32.2602 21.1689C32.2602 21.1689 33.4163 20.7189 33.3403 18.9589Z" fill="#FF4E4E"/>
  </g>
  <defs>
    <clipPath id="clip0_171_16737">
      <rect width="48" height="48" fill="white"/>
    </clipPath>
  </defs>
</svg>
