<svg viewBox="0 0 236 234" fill="none"
  xmlns="http://www.w3.org/2000/svg">
  <path d="M116.67 3.03581C117.483 2.52575 118.515 2.52575 119.328 3.03581L137.389 14.372C138.891 15.3149 140.679 15.6949 142.435 15.4446L163.545 12.4344C164.495 12.299 165.438 12.7191 165.973 13.5156L177.862 31.2177C178.851 32.6901 180.329 33.7644 182.035 34.2499L202.545 40.0862C203.468 40.3488 204.159 41.1164 204.323 42.0616L207.984 63.0688C208.288 64.8161 209.202 66.399 210.563 67.5363L226.926 81.2101C227.662 81.8253 227.981 82.8076 227.747 83.7381L222.547 104.418C222.114 106.138 222.305 107.956 223.086 109.548L232.472 128.695C232.895 129.557 232.787 130.584 232.194 131.339L219.033 148.116C217.938 149.511 217.373 151.249 217.438 153.022L218.225 174.331C218.261 175.29 217.744 176.184 216.896 176.633L198.049 186.606C196.481 187.436 195.258 188.794 194.597 190.44L186.648 210.227C186.291 211.117 185.455 211.724 184.498 211.789L163.223 213.234C161.454 213.354 159.784 214.097 158.511 215.332L143.201 230.176C142.513 230.843 141.502 231.058 140.601 230.728L120.578 223.395C118.913 222.785 117.085 222.785 115.42 223.395L95.3967 230.728C94.4957 231.058 93.4855 230.843 92.7966 230.176L77.4874 215.332C76.2141 214.097 74.5444 213.354 72.7748 213.234L51.5 211.789C50.5428 211.724 49.7072 211.117 49.3496 210.227L41.4014 190.44C40.7402 188.794 39.5173 187.436 37.9495 186.606L19.1017 176.633C18.2537 176.184 17.7372 175.29 17.7726 174.331L18.5597 153.022C18.6252 151.249 18.0603 149.511 16.9656 148.116L3.80361 131.339C3.21139 130.584 3.10343 129.557 3.52576 128.695L12.912 109.548C13.6927 107.956 13.8838 106.138 13.4512 104.418L8.25094 83.7381C8.01696 82.8076 8.33613 81.8253 9.07235 81.2101L25.4348 67.5363C26.7958 66.399 27.7097 64.8161 28.0141 63.0688L31.6747 42.0616C31.8394 41.1164 32.5305 40.3489 33.4534 40.0862L53.9628 34.2499C55.6687 33.7644 57.1474 32.6901 58.1363 31.2177L70.0248 13.5156C70.5597 12.7191 71.5032 12.299 72.4531 12.4344L93.5633 15.4446C95.3192 15.6949 97.107 15.3149 98.6092 14.372L116.67 3.03581Z" fill="none" stroke="#FF4E4E" stroke-width="5"/>
  <path fill-rule="evenodd" clip-rule="evenodd" d="M159.26 175.48C161.812 169.688 159.985 163.201 158.234 156.987C156.475 150.74 154.793 144.768 157.714 140.052C159.275 137.532 161.465 134.904 163.862 132.029C170.41 124.173 178.5 114.466 179.524 100.034C180.039 92.7175 178.984 87.9895 173.613 79.9676C155.496 52.8916 98.4467 31.318 75.1115 47.3217C71.2926 49.9388 68.5768 51.9876 64.0743 56.0983C54.9471 64.4278 52.8802 72.9983 55.0215 83.0257C55.1299 83.5321 55.2505 84.1135 55.3858 84.7662L55.3858 84.7664L55.3858 84.7665C57.9288 97.0312 65.6967 134.496 96.1762 173.875C114.966 196.175 120.705 194.859 125.496 193.76C125.915 193.664 126.327 193.57 126.74 193.493C131.87 192.538 154.14 187.1 159.262 175.489L159.26 175.48ZM147.788 171.535C138.504 179.364 129.399 175.265 115.102 158.291C100.805 141.316 57.1799 78.7303 80.9966 58.6476C104.822 38.5633 149.643 67.3757 163.608 83.9431C177.57 100.515 161.313 117.37 151.743 125.436C146.922 129.499 148.31 139.18 149.688 148.787C151.045 158.25 152.392 167.642 147.786 171.527L147.788 171.535ZM93.7105 116.341L122.136 132.512L150.404 116.012L122.253 155.133L93.7105 116.341ZM92.1372 108.158L122.309 62.5449L151.869 107.812L122.093 125.206L92.1372 108.158ZM142.091 164.345C148.697 160.179 140.99 139.429 140.99 139.429L140.988 139.421L127.008 159.049C127.008 159.049 135.484 168.511 142.091 164.345ZM116.264 60.3183C116.264 60.3183 88.8216 55.5771 82.8913 66.0571C75.7285 78.7189 87.3067 102.554 87.3067 102.554L116.264 60.3183ZM162.365 94.055C162.005 85.6953 134.699 68.389 134.699 68.389L157.235 104.552C157.235 104.552 162.726 102.415 162.365 94.055Z" fill="#FF4E4E"/>
</svg>
