<svg viewBox="0 0 147 35" fill="none"
  xmlns="http://www.w3.org/2000/svg">
  <path d="M37.3184 8.22009H41.6523C43.1143 8.22009 44.2112 8.61194 44.9429 9.39722C45.6747 10.1825 46.0398 11.3329 46.0398 12.8483V14.6943C46.0398 16.2098 45.6747 17.3601 44.9429 18.1454C44.2112 18.9307 43.1143 19.3225 41.6523 19.3225H40.2612V26.9471H37.3184V8.22009ZM41.6523 16.6472C42.1339 16.6472 42.4958 16.5135 42.735 16.246C42.9758 15.9784 43.097 15.5236 43.097 14.8816V12.6611C43.097 12.019 42.9758 11.5642 42.735 11.2967C42.4943 11.0291 42.1339 10.8954 41.6523 10.8954H40.2612V16.6472H41.6523Z" fill="black"/>
  <path d="M47.6451 8.22009H52.0058C53.5213 8.22009 54.6276 8.5726 55.3232 9.27604C56.0188 9.98106 56.3666 11.0638 56.3666 12.5273V13.6777C56.3666 15.6212 55.7245 16.8518 54.4404 17.3696V17.4231C55.1532 17.6371 55.6568 18.0746 55.9511 18.734C56.2454 19.3933 56.3917 20.2762 56.3917 21.3825V24.6731C56.3917 25.2082 56.4091 25.6409 56.4452 25.9714C56.4814 26.3019 56.5696 26.6276 56.7128 26.9487H53.7165C53.6094 26.645 53.5386 26.3601 53.5024 26.0926C53.4662 25.8251 53.4489 25.3435 53.4489 24.6479V21.2236C53.4489 20.3675 53.3104 19.7695 53.0335 19.4311C52.7565 19.0928 52.2797 18.9228 51.603 18.9228H50.5864V26.9487H47.6436V8.22009H47.6451ZM51.6581 16.246C52.2466 16.246 52.6873 16.0949 52.9831 15.7912C53.2774 15.4874 53.4253 14.9791 53.4253 14.2662V12.8216C53.4253 12.1433 53.3041 11.6539 53.0634 11.3502C52.8226 11.0465 52.4433 10.8954 51.9272 10.8954H50.5895V16.246H51.6596H51.6581Z" fill="black"/>
  <path d="M58.4268 8.22009H61.3696V26.9471H58.4268V8.22009Z" fill="black"/>
  <path d="M63.5625 8.22009H67.7627L69.6354 21.6233H69.6889L71.5616 8.22009H75.7618V26.9471H72.9795V12.7681H72.926L70.7858 26.9471H68.3245L66.1843 12.7681H66.1308V26.9471H63.5625V8.22009Z" fill="black"/>
  <path d="M77.9541 8.22009H85.98V10.8954H80.8969V15.8447H84.9366V18.5199H80.8969V24.2718H85.98V26.9471H77.9541V8.22009Z" fill="black"/>
  <path d="M88.3078 25.9981C87.576 25.1861 87.2109 24.0231 87.2109 22.5077V21.4375H89.9932V22.7217C89.9932 23.935 90.5015 24.5409 91.5181 24.5409C92.017 24.5409 92.3963 24.393 92.6544 24.0987C92.9124 23.8044 93.0415 23.3276 93.0415 22.6682C93.0415 21.8829 92.8637 21.192 92.5064 20.5956C92.1492 19.9976 91.4898 19.28 90.5267 18.4428C89.3134 17.3727 88.4667 16.4049 87.9852 15.5393C87.5036 14.6738 87.2629 13.6981 87.2629 12.6091C87.2629 11.1283 87.6374 9.9826 88.3865 9.17214C89.1356 8.36012 90.223 7.9541 91.6503 7.9541C93.0777 7.9541 94.1242 8.36012 94.8481 9.17214C95.5704 9.98417 95.9308 11.1471 95.9308 12.6626V13.4384H93.1485V12.4753C93.1485 11.8333 93.0242 11.3643 92.774 11.0716C92.5237 10.7773 92.1586 10.6294 91.6771 10.6294C90.6967 10.6294 90.2057 11.2274 90.2057 12.4218C90.2057 13.1001 90.3882 13.7327 90.7533 14.3213C91.1184 14.9098 91.7825 15.6227 92.7472 16.4615C93.9778 17.5316 94.8245 18.5042 95.2887 19.3776C95.753 20.251 95.9843 21.277 95.9843 22.4542C95.9843 23.9885 95.605 25.1656 94.8481 25.9855C94.0896 26.8054 92.988 27.2162 91.5433 27.2162C90.0987 27.2162 89.038 26.8102 88.3062 25.9981H88.3078Z" fill="#FF1D1D"/>
  <path d="M99.9721 10.8954H96.8955V8.22009H105.991V10.8954H102.915V26.9471H99.9721V10.8954Z" fill="#FF1D1D"/>
  <path d="M108.453 8.22009H112.439L115.489 26.9471H112.546L112.011 23.2285V23.282H108.667L108.132 26.9471H105.403L108.453 8.22009ZM111.663 20.7404L110.353 11.4839H110.299L109.015 20.7404H111.663Z" fill="#FF1D1D"/>
  <path d="M116.906 8.22009H119.849V16.1122L123.594 8.22009H126.537L123.033 15.0956L126.591 26.9471H123.514L121.026 18.6002L119.849 20.9812V26.9471H116.906V8.22009Z" fill="#FF1D1D"/>
  <path d="M127.982 8.22009H136.008V10.8954H130.925V15.8447H134.965V18.5199H130.925V24.2718H136.008V26.9471H127.982V8.22009Z" fill="#FF1D1D"/>
  <path d="M137.693 8.22009H142.188C143.65 8.22009 144.747 8.61194 145.478 9.39722C146.21 10.1825 146.575 11.3329 146.575 12.8483V22.3189C146.575 23.8343 146.21 24.9847 145.478 25.77C144.747 26.5552 143.65 26.9471 142.188 26.9471H137.693V8.22009ZM142.134 24.2718C142.616 24.2718 142.986 24.1286 143.244 23.8438C143.502 23.5589 143.631 23.0947 143.631 22.4526V12.7146C143.631 12.0725 143.502 11.6083 143.244 11.3234C142.986 11.0386 142.614 10.8954 142.134 10.8954H140.636V24.2718H142.134Z" fill="#FF1D1D"/>
  <path fill-rule="evenodd" clip-rule="evenodd" d="M24.1149 30.6867C24.7008 29.3566 24.2813 27.867 23.8794 26.44C23.4754 25.0054 23.0891 23.634 23.7599 22.5511C24.1184 21.9723 24.6213 21.369 25.1716 20.7087C26.6752 18.9047 28.5331 16.6757 28.7682 13.3616C28.8865 11.6814 28.6442 10.5957 27.4108 8.75359C23.2506 2.53597 10.15 -2.41809 4.79145 1.25693C3.91449 1.85791 3.29083 2.32839 2.25691 3.27236C0.160974 5.18511 -0.313663 7.1532 0.178071 9.45584C0.202961 9.57215 0.230644 9.70567 0.261728 9.85559C0.845679 12.672 2.62947 21.2753 9.62863 30.3181C13.9435 35.4389 15.2613 35.1368 16.3616 34.8845C16.4578 34.8624 16.5523 34.8407 16.6471 34.8231C17.8253 34.6037 22.9393 33.3551 24.1153 30.6886L24.1149 30.6867ZM21.4804 29.7807C19.3487 31.5785 17.2578 30.6373 13.9747 26.7393C10.6917 22.8413 0.673695 8.46946 6.14288 3.85777C11.6139 -0.754292 21.9065 5.86205 25.1133 9.66651C28.3195 13.4721 24.5864 17.3424 22.3887 19.1947C21.2816 20.1278 21.6004 22.3508 21.9168 24.557C22.2285 26.73 22.5378 28.8867 21.4801 29.7788L21.4804 29.7807ZM9.06265 17.1067L15.5901 20.82L22.0816 17.0312L15.6169 26.0146L9.06265 17.1067ZM8.70137 15.2276L15.6298 4.75318L22.4179 15.148L15.5803 19.1425L8.70137 15.2276ZM20.1727 28.1299C21.6897 27.1733 19.9199 22.4084 19.9199 22.4084L19.9195 22.4066L16.7091 26.9139C16.7091 26.9139 18.6556 29.0866 20.1727 28.1299ZM14.2416 4.24205C14.2416 4.24205 7.93992 3.15329 6.57812 5.55989C4.93327 8.46749 7.59206 13.9409 7.59206 13.9409L14.2416 4.24205ZM24.8285 11.989C24.7457 10.0693 18.4753 6.09514 18.4753 6.09514L23.6503 14.3996C23.6503 14.3996 24.9113 13.9087 24.8285 11.989Z" fill="#FF1D1D"/>
</svg>
