<svg viewBox="0 0 44 44" fill="none"
  xmlns="http://www.w3.org/2000/svg">
  <g clip-path="url(#clip0_2016_17160)">
    <path d="M22 0C34.1489 0 44 9.85111 44 22C44 34.1489 34.1489 44 22 44C9.85111 44 0 34.1489 0 22C0 9.85111 9.85111 0 22 0Z" fill="#E8C787"/>
    <path d="M30.0423 25.3735C30.9712 23.6135 31.5578 21.7802 31.7778 19.9469C31.9978 18.1624 31.8512 16.4269 31.3867 14.9358C30.8001 13.1269 29.7734 11.7335 28.3556 10.8291C27.3534 12.3202 25.0312 16.2558 23.369 22.1958C21.7067 28.0624 19.1645 31.2402 17.6245 32.7069C18.2112 32.878 18.8467 32.9513 19.5067 32.9513C21.4378 32.9513 23.4667 32.2424 25.349 30.8736C27.2556 29.5047 28.869 27.6224 30.0423 25.3735Z" fill="black"/>
    <path d="M15.9623 32.0218C16.3778 31.6796 17.0378 31.044 17.7712 30.0907C18.9445 28.5752 20.6067 25.9107 21.7801 21.7552C23.4667 15.7907 25.7401 11.8552 26.8645 10.1196C26.1556 9.87515 25.3978 9.75293 24.6156 9.75293C22.6845 9.75293 20.6556 10.4618 18.7734 11.8307C16.8667 13.1996 15.2534 15.0818 14.0801 17.3307C13.1512 19.0907 12.5645 20.924 12.3445 22.7574C12.1245 24.5418 12.2712 26.2774 12.7356 27.7685C13.3467 29.6507 14.4467 31.1174 15.9623 31.9974V32.0218Z" fill="black"/>
  </g>
  <defs>
    <clipPath id="clip0_2016_17160">
      <rect width="44" height="44" fill="white"/>
    </clipPath>
  </defs>
</svg>
