<svg viewBox="0 0 93 89" fill="none"
  xmlns="http://www.w3.org/2000/svg">
  <g clip-path="url(#clip0_208_43124)">
    <path d="M67.0013 4.68029C67.9953 4.77307 68.9323 4.84523 69.8694 4.94832C70.3042 4.99471 70.7339 5.1648 71.1688 5.1648C73.7469 5.18542 76.3251 5.25758 78.9033 5.15965C82.1389 5.0411 84.9241 3.60303 87.6058 1.93303C88.5791 1.32482 89.5679 0.73722 90.5567 0.15478C90.7224 0.0568472 90.945 0.0516929 91.1573 -0.00500488C91.9493 1.48975 92.3842 3.05152 92.6379 4.65452C92.8294 5.89672 93.021 7.15953 93.0158 8.40688C93.0055 11.1078 92.4515 13.721 91.3592 16.2106C90.3393 18.5352 88.9829 20.6484 87.2641 22.5195C86.441 23.4163 86.0631 24.3699 86.032 25.6327C85.9906 27.5295 85.6852 29.4263 85.4315 31.3128C84.9397 34.9878 83.837 38.5031 82.4185 41.9152C81.0931 45.1058 79.4779 48.1623 77.3967 50.9302C76.1336 52.6157 74.7358 54.2084 73.3224 55.7701C71.0808 58.2442 68.5285 60.3781 65.6708 62.1048C63.8485 63.2078 61.9382 64.1768 60.0382 65.151C59.096 65.6355 59.0649 65.6097 59.2824 66.8262C59.9864 70.7847 60.9701 74.6762 62.3679 78.4492C63.1548 80.578 64.0245 82.6758 64.7855 84.8148C65.1013 85.7014 65.3188 86.6498 65.4275 87.5879C65.5362 88.5105 64.9978 88.9228 64.0504 88.9847C62.1867 89.1084 60.4938 88.4899 58.8423 87.794C56.3056 86.7271 54.007 85.2426 51.8223 83.5726C49.3891 81.7171 47.2768 79.5522 45.615 77.0008C44.678 75.5576 43.9894 73.9546 43.1456 72.4496C42.9747 72.1403 42.6538 71.8207 42.3276 71.697C38.2999 70.2023 34.2515 68.7539 30.2237 67.2746C28.8984 66.7901 27.5938 66.2489 26.2996 65.6922C25.8181 65.486 25.5644 65.7953 25.3056 66.0273C22.5773 68.4704 19.4141 70.1559 15.9921 71.4135C14.5581 71.9393 13.0982 72.2382 11.5658 72.1712C10.2611 72.1145 9.59849 71.3053 10.0127 70.0683C10.5769 68.3879 11.2034 66.7282 11.8608 65.084C12.7979 62.7336 13.4191 60.3059 13.8851 57.8319C13.9161 57.6618 13.8229 57.404 13.6935 57.2803C12.3423 55.9814 10.9342 54.7444 9.61402 53.4146C7.60534 51.3941 5.89692 49.1365 4.46806 46.6727C3.13239 44.3739 2.01933 41.972 1.27384 39.4154C0.735431 37.5701 0.305738 35.7043 0.23326 33.7662C0.212552 33.1632 0.0210023 32.5653 0.000294209 31.9622C-0.0204139 31.354 0.0210023 30.7355 0.124543 30.1376C0.398925 28.514 0.652599 26.8852 1.0357 25.2925C1.64141 22.7875 2.84248 20.5557 4.35935 18.4785C5.9694 16.2776 8.00914 14.5302 10.3543 13.1901C12.4562 11.9891 14.6823 11.0356 17.0948 10.5253C18.943 10.1336 20.7809 9.77278 22.6756 9.63877C24.6118 9.50475 26.5273 9.48929 28.448 9.78309C29.4058 9.92741 30.3894 9.92741 31.3523 10.0563C34.0392 10.4119 36.664 11.0356 39.2421 11.8706C44.036 13.4324 48.4417 15.7312 52.4124 18.829C54.0432 20.1021 55.6584 21.4113 57.165 22.8236C59.1943 24.7204 60.9235 26.8852 62.4507 29.2098C64.0556 31.653 66.2196 33.3384 69.1394 33.9518C71.0238 34.3487 73.0015 33.6219 74.1663 32.1787C75.5485 30.4726 76.1491 28.4521 76.4028 26.3079C76.4804 25.6636 76.5322 25.0142 76.672 24.3853C76.8066 23.7771 76.4545 23.4627 76.0662 23.138C74.13 21.5298 72.5459 19.6021 71.2672 17.4631C70.3094 15.8549 69.4241 14.1746 68.7459 12.4324C68.1247 10.8243 67.8141 9.09241 67.3947 7.40694C67.2239 6.72141 67.1204 6.02042 67.0065 5.31943C66.9702 5.11841 67.0065 4.90193 67.0065 4.66998L67.0013 4.68029ZM40.8677 62.4192C40.9454 62.3419 41.023 62.2697 41.0955 62.1924C41.0955 61.0482 41.0023 59.8936 41.1162 58.7596C41.2922 57.0123 41.6132 55.2805 41.8617 53.5383C41.9031 53.2445 41.9238 52.9816 41.4786 52.8837C41.023 52.7806 40.5985 52.528 40.174 52.3116C36.5449 50.4457 32.8744 48.652 29.3074 46.6779C26.2012 44.9563 23.1312 43.142 20.1855 41.1679C16.9602 39.003 13.9058 36.6011 10.7633 34.3178C10.1887 33.9002 9.67097 33.3023 8.68734 33.4312C8.66663 34.4775 8.49061 35.5548 8.65627 36.5754C9.00831 38.7299 9.8884 40.7194 11.0688 42.5647C12.2595 44.4357 13.5589 46.2294 15.1431 47.7912C16.9447 49.5643 18.71 51.3889 20.6721 52.9765C23.6437 55.3835 26.926 57.3525 30.4412 58.8833C32.7864 59.9039 35.1937 60.8059 37.6062 61.6667C38.6519 62.0378 39.7805 62.1718 40.8677 62.4141V62.4192ZM47.6703 38.2454C47.8619 35.6579 46.0758 33.1271 42.1412 33.3797C39.8323 33.5291 37.9323 35.3692 37.8754 38.0701C37.8029 41.3019 40.1895 43.3482 43.0213 43.1574C45.5425 42.9874 47.8101 41.3637 47.6703 38.2454Z" fill="currentColor"/>
  </g>
  <defs>
    <clipPath id="clip0_208_43124">
      <rect width="93" height="89" fill="white"/>
    </clipPath>
  </defs>
</svg>
