<svg viewBox="0 0 110 110" fill="none"
  xmlns="http://www.w3.org/2000/svg">
  <path d="M47 4.6188C51.9504 1.76068 58.0496 1.76068 63 4.6188L94.6314 22.8812C99.5818 25.7393 102.631 31.0214 102.631 36.7376V73.2624C102.631 78.9786 99.5818 84.2607 94.6314 87.1188L63 105.381C58.0496 108.239 51.9504 108.239 47 105.381L15.3686 87.1188C10.4182 84.2607 7.3686 78.9786 7.3686 73.2624L7.3686 36.7376C7.3686 31.0214 10.4182 25.7393 15.3686 22.8812L47 4.6188Z" fill="black"/>
  <path fill-rule="evenodd" clip-rule="evenodd" d="M51.1636 22.6002C51.1636 22.277 51.4014 22 51.6824 22H58.296C58.577 22 58.8147 22.277 58.8147 22.6002V38.2518C58.8147 38.852 59.4631 39.0829 59.7441 38.575L67.2655 25.0241C67.4168 24.7471 67.741 24.6548 67.9788 24.8625L73.4037 29.341C73.6198 29.5257 73.6847 29.8951 73.5334 30.1721L67.2007 41.5992C66.9846 41.9916 67.2223 42.5226 67.633 42.5226H82.4813C82.7623 42.5226 83 42.7996 83 43.1228V50.9255C83 51.2487 82.7623 51.5257 82.4813 51.5257H76.5592C72.4095 51.5257 68.7352 48.6401 65.1042 45.7775C63.6561 44.6464 62.208 43.4921 60.7599 42.5687C59.0525 41.4607 57.0857 40.8374 55.0108 40.8374C52.9359 40.8374 50.9691 41.4607 49.2617 42.5687C47.792 43.5152 46.3655 44.6464 44.9174 45.7775C41.2864 48.6401 37.6337 51.5257 33.4624 51.5257H27.5187C27.2377 51.5257 27 51.2487 27 50.9255V43.1228C27 42.7996 27.2377 42.5226 27.5187 42.5226H42.367C42.7777 42.5226 43.0154 41.9916 42.7993 41.5992L36.4666 30.1721C36.3153 29.8951 36.3802 29.5488 36.5963 29.341L42.0212 24.8625C42.259 24.6779 42.5832 24.7471 42.7345 25.0241L50.2343 38.575C50.5152 39.0829 51.1636 38.852 51.1636 38.2518V22.6002ZM44.8742 64.2455C41.2431 61.4061 37.5905 58.4974 33.4191 58.4974H27.5187C27.2377 58.4974 27 58.7744 27 59.0976V66.9003C27 67.2235 27.2377 67.5005 27.5187 67.5005H42.367C42.7777 67.5005 43.0154 68.0315 42.7993 68.4239L36.4666 79.851C36.3153 80.128 36.3802 80.4743 36.5963 80.6821L42.0212 85.1605C42.259 85.3452 42.5832 85.276 42.7345 84.999L50.2343 71.4481C50.5152 70.9402 51.1636 71.171 51.1636 71.7712V87.3998C51.1636 87.723 51.4014 88 51.6824 88H58.296C58.577 88 58.8147 87.723 58.8147 87.3998V71.7482C58.8147 71.148 59.4631 70.9171 59.7441 71.425L67.2655 84.9759C67.4168 85.2529 67.741 85.3452 67.9788 85.1375L73.4037 80.659C73.6198 80.4743 73.6847 80.1049 73.5334 79.8279L67.2007 68.4008C66.9846 68.0084 67.2223 67.4774 67.633 67.4774H82.4813C82.7623 67.4774 83 67.2004 83 66.8772V59.0745C83 58.7513 82.7623 58.4743 82.4813 58.4743H76.5592C72.4095 58.4743 68.7352 61.3599 65.1042 64.2225C63.6561 65.3536 62.208 66.5079 60.7599 67.4313C59.0525 68.5394 57.0857 69.1626 55.0108 69.1626C52.9359 69.1626 50.9691 68.5394 49.2617 67.4313C47.792 66.4848 46.3655 65.3536 44.9174 64.2225L44.8742 64.2455ZM54.9892 66.7156C60.4141 66.7156 64.8232 61.4753 64.8232 55.0115C64.8232 48.5477 60.4141 43.3074 54.9892 43.3074C49.5643 43.3074 45.1552 48.5477 45.1552 55.0115C45.1552 61.4753 49.5643 66.7156 54.9892 66.7156Z" fill="#E8C787"/>
</svg>
