<svg viewBox="0 0 50 50" fill="none"
  xmlns="http://www.w3.org/2000/svg">
  <path d="M21 2.3094C23.4752 0.880338 26.5248 0.880339 29 2.3094L42.6506 10.1906C45.1258 11.6197 46.6506 14.2607 46.6506 17.1188V32.8812C46.6506 35.7393 45.1258 38.3803 42.6506 39.8094L29 47.6906C26.5248 49.1197 23.4752 49.1197 21 47.6906L7.34936 39.8094C4.87416 38.3803 3.34937 35.7393 3.34937 32.8812L3.34937 17.1188C3.34937 14.2607 4.87416 11.6197 7.34936 10.1906L21 2.3094Z" fill="#E8C787"/>
  <path fill-rule="evenodd" clip-rule="evenodd" d="M23.3558 11.2546C23.3558 11.1175 23.4577 11 23.5782 11H26.4126C26.533 11 26.6349 11.1175 26.6349 11.2546V17.8947C26.6349 18.1494 26.9128 18.2473 27.0332 18.0318L30.2567 12.283C30.3215 12.1654 30.4604 12.1263 30.5623 12.2144L32.8873 14.1144C32.9799 14.1927 33.0077 14.3494 32.9429 14.4669L30.2289 19.3148C30.1362 19.4813 30.2381 19.7065 30.4141 19.7065H36.7777C36.8981 19.7065 37 19.8241 37 19.9612V23.2714C37 23.4085 36.8981 23.5261 36.7777 23.5261H34.2397C32.4612 23.5261 30.8865 22.3019 29.3304 21.0874C28.7098 20.6076 28.0892 20.1179 27.4685 19.7261C26.7368 19.256 25.8939 18.9916 25.0046 18.9916C24.1154 18.9916 23.2725 19.256 22.5407 19.7261C21.9108 20.1277 21.2995 20.6076 20.6789 21.0874C19.1227 22.3019 17.5573 23.5261 15.7696 23.5261H13.2223C13.1019 23.5261 13 23.4085 13 23.2714V19.9612C13 19.8241 13.1019 19.7065 13.2223 19.7065H19.5859C19.7619 19.7065 19.8638 19.4813 19.7711 19.3148L17.0571 14.4669C16.9923 14.3494 17.0201 14.2025 17.1127 14.1144L19.4377 12.2144C19.5396 12.1361 19.6785 12.1654 19.7433 12.283L22.9575 18.0318C23.078 18.2473 23.3558 18.1494 23.3558 17.8947V11.2546ZM20.6604 28.9223C19.1042 27.7177 17.5388 26.4837 15.7511 26.4837H13.2223C13.1019 26.4837 13 26.6013 13 26.7384V30.0486C13 30.1857 13.1019 30.3033 13.2223 30.3033H19.5859C19.7619 30.3033 19.8638 30.5285 19.7711 30.695L17.0571 35.5428C16.9923 35.6604 17.0201 35.8073 17.1127 35.8954L19.4377 37.7954C19.5396 37.8737 19.6785 37.8444 19.7433 37.7268L22.9575 31.978C23.078 31.7625 23.3558 31.8604 23.3558 32.1151V38.7454C23.3558 38.8825 23.4577 39 23.5782 39H26.4126C26.533 39 26.6349 38.8825 26.6349 38.7454V32.1053C26.6349 31.8506 26.9128 31.7527 27.0332 31.9682L30.2567 37.717C30.3215 37.8346 30.4604 37.8737 30.5623 37.7856L32.8873 35.8856C32.9799 35.8073 33.0077 35.6506 32.9429 35.5331L30.2289 30.6852C30.1362 30.5187 30.2381 30.2935 30.4141 30.2935H36.7777C36.8981 30.2935 37 30.1759 37 30.0388V26.7286C37 26.5915 36.8981 26.4739 36.7777 26.4739H34.2397C32.4612 26.4739 30.8865 27.6981 29.3304 28.9126C28.7098 29.3924 28.0892 29.8821 27.4685 30.2739C26.7368 30.744 25.8939 31.0084 25.0046 31.0084C24.1154 31.0084 23.2725 30.744 22.5407 30.2739C21.9108 29.8723 21.2995 29.3924 20.6789 28.9126L20.6604 28.9223ZM24.9954 29.9703C27.3203 29.9703 29.21 27.7471 29.21 25.0049C29.21 22.2627 27.3203 20.0395 24.9954 20.0395C22.6704 20.0395 20.7808 22.2627 20.7808 25.0049C20.7808 27.7471 22.6704 29.9703 24.9954 29.9703Z" fill="black"/>
</svg>
