<svg fill="none"
  xmlns="http://www.w3.org/2000/svg" viewBox="0 0 26.57 29.99">
  <path d="M1.0061 9.11596V20.8759C1.0061 21.6243 1.40485 22.3175 2.05511 22.6917L12.2385 28.5686C12.8887 28.9428 13.6862 28.9428 14.3365 28.5686L24.5198 22.6917C25.1701 22.3175 25.5688 21.6243 25.5688 20.8759V9.11596C25.5688 8.36755 25.1701 7.67434 24.5198 7.30013L14.3365 1.42323C13.6862 1.04903 12.8887 1.04903 12.2385 1.42323L2.05511 7.30013C1.41098 7.67434 1.0061 8.36755 1.0061 9.11596Z" fill="#213147"></path>
  <path d="M15.5144 17.2749L14.0605 21.2562C14.0176 21.3666 14.0176 21.4893 14.0605 21.5997L16.5573 28.452L19.4467 26.7834L15.9806 17.2749C15.9009 17.054 15.5942 17.054 15.5144 17.2749Z" fill="#12AAFF"></path>
  <path d="M18.4222 10.5759C18.3424 10.3551 18.0357 10.3551 17.9559 10.5759L16.5021 14.5572C16.4591 14.6677 16.4591 14.7903 16.5021 14.9008L20.5938 26.1209L23.4832 24.4523L18.4222 10.5759Z" fill="#12AAFF"></path>
  <path d="M13.2874 1.85877C13.3611 1.85877 13.4285 1.87717 13.496 1.91398L24.5137 8.27551C24.6425 8.34912 24.7222 8.48408 24.7222 8.63131V21.3544C24.7222 21.5016 24.6425 21.6366 24.5137 21.7102L13.496 28.0778C13.4347 28.1147 13.3611 28.1331 13.2874 28.1331C13.2138 28.1331 13.1463 28.1147 13.0789 28.0778L2.06734 21.7163C1.93852 21.6427 1.85877 21.5077 1.85877 21.3605V8.63131C1.85877 8.48408 1.93852 8.34912 2.06734 8.27551L13.085 1.91398C13.1463 1.87717 13.22 1.85877 13.2874 1.85877ZM13.2874 0C12.8948 0 12.5022 0.104287 12.1525 0.306728L1.13489 6.66826C0.435553 7.07314 0 7.82155 0 8.63131V21.3544C0 22.1641 0.435553 22.9187 1.13489 23.3236L12.1525 29.6851C12.5022 29.8875 12.8948 29.9918 13.2874 29.9918C13.68 29.9918 14.0727 29.8875 14.4223 29.6851L25.44 23.3236C26.1455 22.9187 26.5749 22.1703 26.5749 21.3544V8.63131C26.5749 7.82155 26.1393 7.067 25.44 6.66212L14.4285 0.306728C14.0727 0.104287 13.68 0 13.2874 0Z" fill="#9DCCED"></path>
  <path d="M6.00586 26.1332L7.01806 23.3604L9.05473 25.0535L7.15302 26.7957L6.00586 26.1332Z" fill="#213147"></path>
  <path d="M12.3612 7.72351H9.57C9.36143 7.72351 9.17126 7.85234 9.10378 8.04864L3.11646 24.4647L6.00583 26.1333L12.6005 8.05478C12.6557 7.89528 12.5391 7.72351 12.3612 7.72351Z" fill="white"></path>
  <path d="M17.2504 7.72351H14.4592C14.2506 7.72351 14.0605 7.85234 13.993 8.04864L7.15295 26.7958L10.0423 28.4644L17.4835 8.06091C17.5449 7.89528 17.4222 7.72351 17.2504 7.72351Z" fill="white"></path>
</svg>
