<svg fill="none"
  xmlns="http://www.w3.org/2000/svg" viewBox="6 7 28.34 25.23">
  <path d="M27.2249 22.4803C27.9178 21.2835 29.0359 21.2835 29.7288 22.4803L34.0438 30.0551C34.7367 31.252 34.1698 32.2283 32.7839 32.2283H24.091C22.7209 32.2283 22.154 31.252 22.8312 30.0551L27.2249 22.4803ZM18.8784 7.89764C19.5713 6.70079 20.6737 6.70079 21.3666 7.89764L22.3272 9.62992L24.5949 13.6142C25.1461 14.748 25.1461 16.0866 24.5949 17.2205L16.9886 30.4016C16.2957 31.4724 15.1461 32.1496 13.8705 32.2283H7.55557C6.16975 32.2283 5.60282 31.2677 6.29573 30.0551L18.8784 7.89764Z" fill="currentColor"></path>
</svg>
