<svg fill="none"
  xmlns="http://www.w3.org/2000/svg" viewBox="0 0 23.25 27.34">
  <g clip-path="url(#clip0_3632_14286)">
    <path d="M2.61699 13.6715L2.63141 18.9599L7.125 21.6042V24.7003L0.00160315 20.5224V12.125L2.61699 13.6715ZM2.61699 8.38302V11.4648L0 9.91667V6.83494L2.61699 5.28687L5.2468 6.83494L2.61699 8.38302ZM9.0016 6.83494L11.6186 5.28687L14.2484 6.83494L11.6186 8.38302L9.0016 6.83494Z" fill="currentColor"></path>
    <path d="M4.50806 17.8638V14.7676L7.12504 16.3157V19.3974L4.50806 17.8638ZM9.00165 22.7131L11.6186 24.2612L14.2484 22.7131V25.7949L11.6186 27.343L9.00165 25.7949V22.7131ZM18.0016 6.83494L20.6186 5.28687L23.2484 6.83494V9.91667L20.6186 11.4648V8.38302L18.0016 6.83494ZM20.6186 18.9599L20.6331 13.6715L23.25 12.1234V20.5208L16.1266 24.6987V21.6026L20.6186 18.9599Z" fill="currentColor"></path>
    <path d="M18.742 17.8637L16.125 19.3974V16.3157L18.742 14.7676V17.8637Z" fill="currentColor"></path>
    <path d="M18.742 9.47917L18.7565 12.5753L14.25 15.2195V20.5208L11.6331 22.0545L9.01607 20.5208V15.2195L4.50966 12.5753V9.47917L7.13786 7.93109L11.617 10.5881L16.1234 7.93109L18.7533 9.47917H18.742ZM4.50806 4.19231L11.6186 0L18.742 4.19231L16.125 5.74038L11.6186 3.08333L7.12504 5.74038L4.50806 4.19231Z" fill="currentColor"></path>
  </g>
  <defs>
    <clipPath id="clip0_3632_14286">
      <rect width="23.25" height="27.343" fill="white"></rect>
    </clipPath>
  </defs>
</svg>
