<svg fill="none"
  xmlns="http://www.w3.org/2000/svg" viewBox="0 0 27.11 28">
  <path d="M24.8865 7.00006L23.8561 8.03046C24.6751 9.31846 24.9327 10.9341 24.3713 12.4783C23.4347 15.1005 20.5325 16.4823 17.8865 15.5457C17.5113 15.4057 17.1613 15.2419 16.8561 15.0305L13.5549 18.3317L10.6751 15.4281C9.34087 16.3171 7.63147 16.5747 6.01587 16.0133C3.29987 15.0305 1.89567 12.0569 2.87847 9.36466C3.01847 8.94326 3.22987 8.56806 3.46367 8.21806L2.22327 6.97766L1.98947 7.37526C0.70147 9.48226 6.95539e-05 11.9169 6.95539e-05 14.4215C-0.0237304 21.8891 6.06347 28.0001 13.5311 28.0001H13.5549C21.0225 28.0001 27.0873 21.9367 27.1097 14.4677C27.1097 11.9855 26.4307 9.55086 25.1427 7.42146L24.8865 7.00006Z" fill="currentColor"></path>
  <path d="M4.98669 9.73975C4.63529 10.2073 4.42529 10.7939 4.42529 11.4253C4.42529 12.9471 5.66569 14.1875 7.18749 14.1875C7.82029 14.1875 8.40549 13.9761 8.87309 13.6023L4.98669 9.73975Z" fill="currentColor"></path>
  <path d="M18.5415 13.3672C18.9867 13.671 19.5019 13.8348 20.0871 13.8348C21.6089 13.8348 22.8493 12.5944 22.8493 11.0726C22.8493 10.5112 22.6855 9.97218 22.3817 9.52698L18.5415 13.3672Z" fill="currentColor"></path>
  <path d="M13.6011 16.2708L2.41089 5.033L2.85609 4.5654C5.61829 1.6394 9.38709 0 13.4373 0H13.4611C17.5575 0 21.4915 1.7556 24.2299 4.7992L24.6513 5.2668L13.6011 16.2708ZM4.23789 5.033L13.6025 14.4214L22.8495 5.2206C20.3673 2.7398 16.9961 1.3104 13.4849 1.3104H13.4611C9.97229 1.3104 6.71869 2.6222 4.23789 5.033Z" fill="currentColor"></path>
</svg>
