<svg fill="none"
  xmlns="http://www.w3.org/2000/svg" viewBox="0 0 20.54 10.81">
  <path d="M4.056 10.808C2.864 10.808 1.888 10.528 1.128 9.968C0.376 9.4 0 8.584 0 7.536C0 7.312 0.0240001 7.048 0.0720001 6.728C0.2 6.008 0.384 5.144 0.624 4.128C1.304 1.376 3.064 0 5.896 0C6.664 0 7.36 0.128 7.968 0.392C8.576 0.64 9.056 1.024 9.408 1.536C9.76 2.04 9.936 2.64 9.936 3.336C9.936 3.544 9.912 3.808 9.864 4.128C9.712 5.016 9.536 5.888 9.32 6.728C8.968 8.096 8.368 9.128 7.504 9.808C6.648 10.48 5.496 10.808 4.056 10.808ZM4.272 8.648C4.832 8.648 5.304 8.48 5.696 8.152C6.096 7.824 6.384 7.32 6.552 6.632C6.784 5.688 6.96 4.872 7.08 4.168C7.12 3.96 7.144 3.744 7.144 3.52C7.144 2.608 6.672 2.152 5.72 2.152C5.16 2.152 4.68 2.32 4.28 2.648C3.888 2.976 3.608 3.48 3.44 4.168C3.256 4.84 3.08 5.656 2.896 6.632C2.856 6.832 2.832 7.04 2.832 7.264C2.824 8.192 3.312 8.648 4.272 8.648Z" fill="currentColor"></path>
  <path d="M10.632 10.664C10.52 10.664 10.44 10.632 10.376 10.56C10.328 10.48 10.312 10.392 10.328 10.288L12.4 0.527977C12.416 0.415977 12.472 0.327978 12.568 0.255978C12.656 0.183978 12.752 0.151978 12.856 0.151978H16.848C17.96 0.151978 18.848 0.383978 19.52 0.839978C20.2 1.30398 20.544 1.96798 20.544 2.83998C20.544 3.08798 20.512 3.35198 20.456 3.62398C20.208 4.77598 19.704 5.62398 18.936 6.17598C18.184 6.72798 17.152 6.99998 15.84 6.99998H13.816L13.128 10.288C13.104 10.4 13.056 10.488 12.96 10.56C12.872 10.632 12.776 10.664 12.672 10.664H10.632ZM15.944 4.92798C16.368 4.92798 16.728 4.81598 17.04 4.58398C17.36 4.35198 17.568 4.02398 17.672 3.59198C17.704 3.42398 17.72 3.27198 17.72 3.14398C17.72 2.85598 17.632 2.63198 17.464 2.47998C17.296 2.31998 17 2.23998 16.592 2.23998H14.792L14.224 4.92798H15.944Z" fill="currentColor"></path>
</svg>
