<svg fill="none"
  xmlns="http://www.w3.org/2000/svg" viewBox="0 0 26.52 22.97">
  <g clip-path="url(#clip0_3632_14313)">
    <mask id="mask0_3632_14313" style="mask-type:luminance" maskUnits="userSpaceOnUse" x="0" y="0" width="27" height="23">
      <path d="M26.5177 0H0V22.9707H26.5177V0Z" fill="white"></path>
    </mask>
    <g mask="url(#mask0_3632_14313)">
      <path d="M20.0294 6.99566C19.5438 6.72023 18.9228 6.72023 18.3735 6.99566L14.5046 9.26204L11.8775 10.7021L8.08014 12.9606C7.59452 13.2361 6.97358 13.2361 6.42428 12.9606L3.45487 11.1743C2.96926 10.8989 2.62694 10.348 2.62694 9.7342V6.30316C2.62694 5.7523 2.90557 5.20932 3.45487 4.86306L6.42428 3.14754C6.90989 2.87211 7.53084 2.87211 8.08014 3.14754L11.0495 4.93389C11.5352 5.20932 11.8775 5.76017 11.8775 6.37398V8.64036L14.5046 7.12944V4.80011C14.5046 4.24925 14.2259 3.70627 13.6766 3.36001L8.15178 0.133573C7.66617 -0.141855 7.04522 -0.141855 6.49592 0.133573L0.835743 3.43084C0.286443 3.70627 0.0078125 4.25712 0.0078125 4.80011V11.2451C0.0078125 11.796 0.286443 12.339 0.835743 12.6852L6.43224 15.9117C6.91785 16.1871 7.5388 16.1871 8.0881 15.9117L11.8854 13.7161L14.5125 12.2052L18.3099 10.0096C18.7955 9.7342 19.4164 9.7342 19.9657 10.0096L22.9351 11.7252C23.4207 12.0006 23.7631 12.5514 23.7631 13.1652V16.5963C23.7631 17.1472 23.4844 17.6901 22.9351 18.0364L20.0374 19.7519C19.5518 20.0273 18.9308 20.0273 18.3815 19.7519L15.4041 18.0364C14.9185 17.761 14.5762 17.2101 14.5762 16.5963V14.4007L11.9491 15.9117V18.178C11.9491 18.7289 12.2278 19.2719 12.7771 19.6181L18.3735 22.8446C18.8592 23.12 19.4801 23.12 20.0294 22.8446L25.6259 19.6181C26.1115 19.3427 26.4538 18.7918 26.4538 18.178V11.6622C26.4538 11.1113 26.1752 10.5684 25.6259 10.2221L20.0294 6.99566Z" fill="currentColor"></path>
    </g>
  </g>
  <defs>
    <clipPath id="clip0_3632_14313">
      <rect width="26.5177" height="22.9707" fill="white"></rect>
    </clipPath>
  </defs>
</svg>
