<svg viewBox="0 0 434 202" fill="none"
  xmlns="http://www.w3.org/2000/svg">
  <g opacity="0.3" clip-path="url(#clip0_317_9011)">
    <path opacity="0.07" d="M-23.3324 -92.4675C-1.44247 -72.1031 -11.955 -61.8524 3.84277 -53.9757C11.3864 -50.2125 26.2273 -60.2984 44.07 -52.462C61.3003 -44.8935 54.8776 -31.5 76.1014 -19.3781C93.8391 -9.20563 113.6 8.8123 136.168 18.3228C148.461 23.5074 163.657 21.2973 175.368 24.2592C188.945 27.6466 197.756 36.0426 204.569 40.0594C221.363 49.9711 259.655 45.6867 277.371 53.8442C301.501 64.9093 286.543 83.9429 309.365 98.2602C329.812 111.099 351.111 89.275 396.641 110.161C442.347 131.135 432.905 158.389 485.451 171.112" stroke="white" stroke-miterlimit="10"/>
    <path opacity="0.14" d="M-17.0502 -105.206C4.2562 -85.5895 -5.00968 -75.935 10.7847 -68.0514C18.3283 -64.2882 32.6685 -73.3589 50.5247 -65.5499C67.7686 -58.0089 61.3273 -45.4859 83.0094 -33.3852C100.827 -23.3612 120.731 -5.64754 143.323 3.81495C155.63 8.97215 170.191 7.39581 182.128 10.5539C195.678 14.0729 204.573 22.2207 211.375 26.2581C228.146 36.2177 265.944 32.9348 283.589 41.2364C307.262 52.2809 293.503 69.8166 316.351 84.0954C336.323 96.6063 357.228 76.8729 402.781 97.7109C448.515 118.63 440.774 144.813 492.071 157.688" stroke="white" stroke-miterlimit="10"/>
    <path opacity="0.21" d="M-10.7643 -117.95C9.95853 -99.0823 1.93587 -90.0171 17.7302 -82.1335C25.2739 -78.3703 39.1133 -86.4258 56.9865 -78.6511C74.2439 -71.1375 67.784 -59.485 89.9245 -47.4055C107.825 -37.5367 127.869 -20.1206 150.485 -10.7061C162.805 -5.57633 176.716 -6.48462 188.891 -3.15774C202.393 0.534053 211.393 8.39247 218.186 12.4504C234.932 22.4581 272.237 20.1766 289.81 28.6223C313.018 39.6505 300.462 55.6816 323.34 69.9241C342.84 82.1 363.348 64.4646 408.924 85.2545C454.682 106.125 448.643 131.238 498.695 144.257" stroke="white" stroke-miterlimit="10"/>
    <path opacity="0.29" d="M-4.47853 -130.695C15.6591 -112.585 8.88475 -104.107 24.6757 -96.2162C32.2194 -92.453 45.5616 -99.5002 63.4482 -91.753C80.7226 -84.2736 74.2357 -73.4873 96.8396 -61.4265C114.818 -51.7155 135.008 -34.5943 157.651 -25.2347C169.984 -20.1324 183.252 -20.4025 195.66 -16.8838C209.131 -13.0629 218.223 -5.45705 225.003 -1.37165C241.722 8.69087 278.514 7.4614 296.039 15.9937C318.759 27.0631 307.432 41.5252 330.336 55.7385C349.361 67.5862 369.475 52.0418 415.075 72.7837C460.856 93.6064 456.527 117.643 505.326 130.813" stroke="white" stroke-miterlimit="10"/>
    <path opacity="0.36" d="M1.80358 -143.432C21.3577 -126.07 15.8266 -118.181 31.6175 -110.291C39.1578 -106.521 52.0027 -112.56 69.9029 -104.84C87.1907 -97.3878 80.7191 -87.5406 103.751 -75.4393C121.839 -65.9384 142.142 -49.0598 164.809 -39.7482C177.156 -34.6733 189.786 -34.3029 202.419 -30.5879C215.863 -26.6354 225.04 -19.2778 231.812 -15.1787C248.508 -5.06813 284.857 -5.39901 302.257 3.38711C324.441 14.5844 314.387 27.3977 337.322 41.5748C355.872 53.0943 375.591 39.641 421.215 60.3349C467.02 81.1096 464.393 104.076 511.943 117.397" stroke="white" stroke-miterlimit="10"/>
    <path opacity="0.43" d="M8.0892 -156.177C27.0547 -139.566 22.7719 -132.264 38.5628 -124.373C46.1031 -120.603 58.4473 -125.627 76.3644 -117.941C93.6658 -110.517 87.1756 -101.54 110.666 -89.46C128.837 -80.1144 149.277 -63.5264 171.971 -54.2697C184.332 -49.2222 196.322 -48.2206 209.182 -44.3C222.042 -40.3794 231.864 -33.1133 238.622 -28.9868C255.295 -18.8282 291.092 -18.041 308.478 -9.22748C330.27 1.81887 321.349 13.2553 344.312 27.4032C362.386 38.5944 381.711 27.2322 427.358 47.8781C473.187 68.6047 472.261 90.4997 518.567 103.966" stroke="white" stroke-miterlimit="10"/>
    <path opacity="0.5" d="M14.3752 -168.922C32.7572 -153.059 29.7209 -146.353 45.5085 -138.455C53.0488 -134.685 64.8956 -138.701 82.8263 -131.043C100.141 -123.646 93.6273 -115.542 117.581 -103.48C135.835 -94.2901 156.416 -77.9995 179.133 -68.7908C191.507 -63.7708 202.863 -62.1353 215.948 -58.0185C229.033 -53.9017 238.684 -46.9416 245.436 -42.8013C262.081 -32.5879 297.385 -30.7993 314.703 -21.8485C336.033 -10.8253 328.312 -0.88664 351.305 13.225C368.899 24.0855 387.834 14.8169 433.506 35.4148C479.358 56.0934 480.142 76.913 525.195 90.5283" stroke="white" stroke-miterlimit="10"/>
    <path opacity="0.57" d="M20.6572 -181.659C38.4507 -166.547 36.6627 -160.428 52.4503 -152.531C59.9906 -148.761 71.3367 -151.761 89.2809 -144.13C106.609 -136.761 100.002 -129.376 124.492 -117.494C142.878 -108.571 163.55 -92.4658 186.291 -83.3051C198.679 -78.3126 209.396 -76.0459 222.707 -71.7235C236.019 -67.4011 245.504 -60.77 252.243 -56.6023C268.864 -46.3409 303.674 -43.5508 320.921 -34.456C341.794 -23.4533 335.275 -15.0194 358.287 -0.9326C375.409 9.59282 393.947 2.42209 439.646 22.9651C485.522 43.5957 488.008 63.3443 531.815 77.1046" stroke="white" stroke-miterlimit="10"/>
    <path opacity="0.64" d="M26.9432 -194.405C44.1565 -180.048 43.6084 -174.511 59.396 -166.614C66.9363 -162.844 77.7817 -164.829 95.7428 -157.232C113.088 -149.897 106.525 -143.523 131.408 -131.515C149.819 -122.631 170.689 -106.94 193.453 -97.8271C205.855 -92.862 215.936 -89.9709 229.47 -85.4361C242.797 -80.9783 252.325 -74.5992 259.056 -70.4178C275.651 -60.1015 309.975 -56.3143 327.146 -47.0779C347.558 -36.0983 342.238 -29.1623 365.28 -15.1117C381.927 -4.91445 400.071 -9.9941 445.793 10.5009C491.691 31.0741 495.884 49.7542 538.443 63.6664" stroke="white" stroke-miterlimit="10"/>
    <path opacity="0.71" d="M33.2287 -207.149C49.8584 -193.541 50.5569 -188.6 66.3411 -180.695C73.878 -176.918 84.2295 -177.902 102.204 -170.333C119.563 -163.025 112.948 -157.453 138.322 -145.535C156.789 -136.751 177.827 -121.413 200.618 -112.355C213.033 -107.417 222.483 -103.899 236.24 -99.1611C249.537 -94.581 259.151 -88.4409 265.873 -84.2389C282.444 -73.8745 316.274 -69.0859 333.374 -59.7055C353.332 -48.7533 349.207 -43.3176 372.276 -29.2963C388.447 -19.4273 406.197 -22.4159 451.943 -1.96886C497.87 18.5589 503.759 36.1654 545.07 50.2295" stroke="white" stroke-miterlimit="10"/>
    <path opacity="0.79" d="M39.5109 -219.887C55.552 -207.029 57.4988 -202.675 73.283 -194.771C80.8199 -190.994 90.6707 -190.962 108.662 -183.428C126.035 -176.147 119.401 -171.445 145.234 -159.549C163.778 -150.923 184.958 -135.872 207.777 -126.869C220.205 -121.959 229.019 -117.816 242.999 -112.866C256.978 -107.916 265.968 -102.262 272.679 -98.0398C289.226 -87.6275 322.59 -81.8922 339.592 -72.3129C359.116 -61.4386 356.162 -57.4459 379.262 -43.4607C394.958 -33.92 412.314 -34.8175 458.083 -14.4185C504.029 6.0587 511.628 22.5899 551.691 36.8058" stroke="white" stroke-miterlimit="10"/>
    <path opacity="0.86" d="M45.7969 -232.631C61.2546 -220.522 64.4479 -216.764 80.2287 -208.853C87.7656 -205.076 97.1158 -204.029 115.121 -196.522C132.507 -189.269 125.849 -185.44 152.149 -173.569C170.776 -165.098 192.097 -150.345 214.939 -141.39C227.381 -136.507 235.573 -131.768 249.765 -126.584C263.028 -121.792 272.792 -116.097 279.493 -111.854C296.013 -101.387 328.883 -94.6503 345.817 -84.9338C364.884 -74.0801 363.128 -71.5946 386.255 -57.6387C401.476 -48.4262 418.437 -47.2326 464.231 -26.8816C510.196 -6.44559 519.506 9.01023 558.315 23.3755" stroke="white" stroke-miterlimit="10"/>
    <path opacity="0.93" d="M52.0824 -245.376C66.9515 -234.018 71.3931 -230.846 87.1739 -222.935C94.7108 -219.158 103.564 -217.103 121.582 -209.623C138.985 -202.405 132.306 -199.44 159.064 -187.59C177.774 -179.274 199.235 -164.818 222.101 -155.912C234.556 -151.056 242.108 -145.686 256.528 -140.297C269.761 -135.382 279.615 -129.933 286.303 -125.662C302.799 -115.147 335.18 -107.407 352.035 -97.5416C370.64 -86.711 370.089 -85.7208 393.241 -71.8036C407.99 -62.9262 424.554 -59.6347 470.371 -39.3317C516.367 -18.9574 527.374 -4.56573 564.939 9.94453" stroke="white" stroke-miterlimit="10"/>
  </g>
  <defs>
    <clipPath id="clip0_317_9011">
      <rect width="573" height="231" fill="white" transform="matrix(-0.896853 -0.442329 -0.442329 0.896853 572.537 -5.35938)"/>
    </clipPath>
  </defs>
</svg>
