<svg viewBox="0 0 24 24" fill="none"
    xmlns="http://www.w3.org/2000/svg">
    <path d="M12 24C18.6274 24 24 18.6274 24 12C24 5.37258 18.6274 0 12 0C5.37258 0 0 5.37258 0 12C0 18.6274 5.37258 24 12 24Z" fill="url(#paint0_linear_1465_570)"/>
    <path d="M19.1159 10.0196H17.6919C16.9079 7.84356 14.7999 6.35156 12.0199 6.35156H7.44786V10.0196H5.85986V11.3356H7.44786V12.7156H5.85986V14.0316H7.44786V17.6556H12.0199C14.7679 17.6556 16.8599 16.1756 17.6639 14.0316H19.1159V12.7156H17.9839C18.0119 12.4836 18.0279 12.2436 18.0279 12.0036V11.9716C18.0279 11.7556 18.0159 11.5436 17.9959 11.3356H19.1199V10.0196H19.1159ZM8.72786 7.52356H12.0199C14.0599 7.52356 15.5759 8.52756 16.2759 10.0156H8.72786V7.52356ZM12.0199 16.4716H8.72786V14.0276H16.2679C15.5639 15.4916 14.0519 16.4716 12.0199 16.4716ZM16.7039 12.0316C16.7039 12.2636 16.6879 12.4916 16.6559 12.7116H8.72786V11.3316H16.6599C16.6879 11.5476 16.7039 11.7716 16.7039 11.9996V12.0316Z" fill="white"/>
    <defs>
        <linearGradient id="paint0_linear_1465_570" x1="12" y1="-3.4" x2="12" y2="26.52" gradientUnits="userSpaceOnUse">
            <stop stop-color="#F9A606"/>
            <stop offset="1" stop-color="#FBCC5F"/>
        </linearGradient>
    </defs>
</svg>
