<svg viewBox="0 0 20 20" fill="none"
  xmlns="http://www.w3.org/2000/svg">
  <path d="M10.7353 5.97061e-05C5.63559 0.0159327 1.51542 4.16331 1.5313 9.26307C1.53356 10.2222 1.68322 11.1451 1.9576 12.0136C2.54263 11.7347 3.19796 11.576 3.88956 11.576C6.36575 11.576 8.37934 13.5896 8.37934 16.0658C8.37934 16.7664 8.21835 17.4308 7.93037 18.0227C8.83286 18.3129 9.79657 18.4694 10.7966 18.4648C15.8963 18.4467 20.0165 14.2993 19.9984 9.19957C19.9802 4.09982 15.8328 -0.0180808 10.7353 5.97061e-05Z" fill="#030C17"/>
  <path opacity="0.2" d="M16.538 14.9659C19.7035 11.7777 19.6877 6.62806 16.4995 3.46254C13.3113 0.297013 8.16162 0.312886 4.99609 3.50108L16.538 14.9659Z" fill="white"/>
  <path d="M15.7575 6.48295L14.7076 5.424L14.1362 6.0045C14.1339 6.00223 14.1316 5.99996 14.1294 5.9977L13.6645 6.46708L10.8051 9.36503L8.99561 7.53057C8.62146 7.92059 8.37429 8.43306 8.31987 8.99995L10.8051 11.5192L13.6169 8.66889C13.6532 8.85029 13.6713 9.0385 13.6713 9.23124C13.6713 10.8321 12.3675 12.136 10.7666 12.136C9.16567 12.136 7.86182 10.8321 7.86182 9.23124C7.86182 7.63034 9.16567 6.32649 10.7666 6.32649C11.4242 6.32649 12.0319 6.54645 12.5194 6.91606L13.7643 5.65302C12.9525 4.97276 11.9072 4.56006 10.7666 4.56006C8.19289 4.56006 6.09766 6.65529 6.09766 9.22898C6.09766 11.8049 8.19289 13.8979 10.7666 13.8979C13.3403 13.8979 15.4355 11.8027 15.4355 9.22898C15.4355 8.5215 15.2768 7.85256 14.9956 7.25166L15.7575 6.48295Z" fill="white"/>
  <path d="M10.8033 11.5194L8.32031 9.00014C8.37473 8.43099 8.6219 7.92078 8.99605 7.53076L10.8056 9.36522V11.5194H10.8033Z" fill="url(#paint0_linear_2028_25392)"/>
  <path d="M3.89114 12.1746C1.74603 12.1746 0 13.9206 0 16.0657C0 18.2108 1.74603 19.9568 3.89114 19.9568C6.03626 19.9568 7.78229 18.2108 7.78229 16.0657C7.78229 13.9206 6.03853 12.1746 3.89114 12.1746Z" fill="#00C483"/>
  <path d="M2.05985 14.6985L2.68343 16.7778L3.30247 14.6985H4.30927L3.29114 17.7212H2.06665L1.05078 14.6985H2.05985Z" fill="white"/>
  <path d="M5.46675 15.4491V15.8255H6.40778V16.5375H5.46901V16.9638H6.53704V17.7212H4.52344V14.6985H6.53704V15.4491H5.46675Z" fill="white"/>
  <defs>
    <linearGradient id="paint0_linear_2028_25392" x1="7.69705" y1="7.55054" x2="9.92092" y2="9.54515" gradientUnits="userSpaceOnUse">
      <stop stop-color="#1D313F"/>
      <stop offset="1" stop-color="white"/>
    </linearGradient>
  </defs>
</svg>
