<svg viewBox="0 0 12 12" fill="none"
  xmlns="http://www.w3.org/2000/svg">
  <g clip-path="url(#clip0_3246_78028)">
    <path d="M7.875 0C7.66875 0 7.5 0.16875 7.5 0.375C7.5 0.58125 7.66875 0.75 7.875 0.75H10.7203L4.98516 6.48516C4.83984 6.63047 4.83984 6.86953 4.98516 7.01484C5.13047 7.16016 5.36953 7.16016 5.51484 7.01484L11.25 1.27969V4.125C11.25 4.33125 11.4187 4.5 11.625 4.5C11.8313 4.5 12 4.33125 12 4.125V0.375C12 0.16875 11.8313 0 11.625 0H7.875ZM1.5 0.75C0.672656 0.75 0 1.42266 0 2.25V10.5C0 11.3273 0.672656 12 1.5 12H9.75C10.5773 12 11.25 11.3273 11.25 10.5V7.125C11.25 6.91875 11.0813 6.75 10.875 6.75C10.6687 6.75 10.5 6.91875 10.5 7.125V10.5C10.5 10.9148 10.1648 11.25 9.75 11.25H1.5C1.08516 11.25 0.75 10.9148 0.75 10.5V2.25C0.75 1.83516 1.08516 1.5 1.5 1.5H4.875C5.08125 1.5 5.25 1.33125 5.25 1.125C5.25 0.91875 5.08125 0.75 4.875 0.75H1.5Z" fill="#FAFBFB"/>
  </g>
  <defs>
    <clipPath id="clip0_3246_78028">
      <rect width="12" height="12" fill="white"/>
    </clipPath>
  </defs>
</svg>
