<svg viewBox="0 0 18 16" fill="none"
  xmlns="http://www.w3.org/2000/svg">
  <path d="M5.35312 1.14688C5.15937 0.953125 4.84062 0.953125 4.64687 1.14688L1.64687 4.14687C1.45312 4.34062 1.45312 4.65938 1.64687 4.85313C1.84062 5.04688 2.15937 5.04688 2.35312 4.85313L4.49999 2.70625L4.49999 14.5C4.49999 14.775 4.72499 15 4.99999 15C5.27499 15 5.49999 14.775 5.49999 14.5L5.49999 2.70625L7.64687 4.85313C7.84062 5.04688 8.15937 5.04688 8.35312 4.85313C8.54687 4.65938 8.54687 4.34062 8.35312 4.14687L5.35312 1.14688ZM16.3531 11.8531C16.5469 11.6594 16.5469 11.3406 16.3531 11.1469C16.1594 10.9531 15.8406 10.9531 15.6469 11.1469L13.5 13.2937V1.5C13.5 1.225 13.275 1 13 1C12.725 1 12.5 1.225 12.5 1.5V13.2937L10.3531 11.1469C10.1594 10.9531 9.84062 10.9531 9.64687 11.1469C9.45312 11.3406 9.45312 11.6594 9.64687 11.8531L12.6469 14.8531C12.8406 15.0469 13.1594 15.0469 13.3531 14.8531L16.3531 11.8531Z" fill="#FAFBFB"/>
</svg>
