<svg viewBox="0 0 16 16" fill="none"
  xmlns="http://www.w3.org/2000/svg">
  <path d="M12.3085 6.85313L8.32421 10.8531C8.13123 11.0469 7.81373 11.0469 7.62074 10.8531L3.63647 6.85313C3.44348 6.65938 3.44348 6.34062 3.63647 6.14687C3.82946 5.95312 4.14695 5.95312 4.33994 6.14687L7.47444 9.29375V0.5C7.47444 0.225 7.69856 0 7.97248 0C8.2464 0 8.47051 0.225 8.47051 0.5V9.29375L11.605 6.14687C11.798 5.95312 12.1155 5.95312 12.3085 6.14687C12.5015 6.34062 12.5015 6.65938 12.3085 6.85313ZM1.99607 10.5V13.5C1.99607 14.3281 2.6653 15 3.49017 15H12.4548C13.2797 15 13.9489 14.3281 13.9489 13.5V10.5C13.9489 10.225 14.173 10 14.4469 10C14.7208 10 14.945 10.225 14.945 10.5V13.5C14.945 14.8813 13.8306 16 12.4548 16H3.49017C2.11435 16 1 14.8813 1 13.5V10.5C1 10.225 1.22412 10 1.49803 10C1.77195 10 1.99607 10.225 1.99607 10.5Z" fill="#FAFBFB"/>
</svg>
