<svg viewBox="0 0 16 16" fill="none"
  xmlns="http://www.w3.org/2000/svg">
  <path d="M0 2.575C0 2.25875 0.257143 2 0.571429 2H15.4286C15.7429 2 16 2.25875 16 2.575C16 2.89125 15.7429 3.15 15.4286 3.15H0.571429C0.257143 3.15 0 2.89125 0 2.575ZM2.28571 8.325C2.28571 8.00875 2.54286 7.75 2.85714 7.75H13.1429C13.4571 7.75 13.7143 8.00875 13.7143 8.325C13.7143 8.64125 13.4571 8.9 13.1429 8.9H2.85714C2.54286 8.9 2.28571 8.64125 2.28571 8.325ZM10.2857 14.075C10.2857 14.3912 10.0286 14.65 9.71429 14.65H6.28571C5.97143 14.65 5.71429 14.3912 5.71429 14.075C5.71429 13.7587 5.97143 13.5 6.28571 13.5H9.71429C10.0286 13.5 10.2857 13.7587 10.2857 14.075Z" fill="#FAFBFB"/>
</svg>
