<svg viewBox="0 0 16 16" fill="none"
  xmlns="http://www.w3.org/2000/svg">
  <g clip-path="url(#clip0_1428_94443)">
    <path d="M14.1504 6.9408H8.97502V1.7654C11.7295 1.99273 13.9231 4.18925 14.1504 6.9408ZM8.50265 7.88554H14.6582C14.9062 7.88554 15.1129 7.69364 15.1158 7.44565V7.41317C15.1158 3.76117 12.1547 0.799999 8.50265 0.799999H8.47017C8.22218 0.799999 8.03028 1.00961 8.03028 1.25761V7.41317C8.03028 7.67298 8.24285 7.88554 8.50265 7.88554ZM5.94595 9.96987L10.1353 14.1622C9.23777 14.6759 8.19561 14.9711 7.08554 14.9711C3.69334 14.9711 0.944739 12.2225 0.944739 8.83028C0.944739 5.92816 2.96117 3.49251 5.66843 2.85481V9.30265C5.66843 9.5536 5.76881 9.79274 5.94595 9.96987ZM6.11128 1.81264C2.66003 2.28501 0 5.24913 0 8.83028C0 12.7421 3.17373 15.9158 7.08554 15.9158C8.61484 15.9158 10.0319 15.4316 11.1893 14.608C11.4166 14.4456 11.4313 14.1208 11.2335 13.926L6.61317 9.30265V2.26434C6.61317 1.99273 6.38289 1.77426 6.11128 1.80969V1.81264ZM13.5098 12.9724L10.7848 10.2474H14.9505C14.7055 11.2807 14.2006 12.2136 13.5068 12.9724H13.5098ZM15.9956 9.80454C16.034 9.53293 15.8155 9.30265 15.541 9.30265H9.64224C9.22006 9.30265 9.01045 9.81045 9.30863 10.1086L13.188 13.988C13.3592 14.1592 13.6367 14.174 13.8139 14.0086C14.9741 12.9251 15.7683 11.4549 15.9956 9.8075V9.80454Z" fill="#FAFBFB"/>
  </g>
  <defs>
    <clipPath id="clip0_1428_94443">
      <rect width="16" height="16" fill="white"/>
    </clipPath>
  </defs>
</svg>
