<svg viewBox="0 0 16 16" fill="none"
  xmlns="http://www.w3.org/2000/svg">
  <g clip-path="url(#clip0_1428_94445)">
    <path d="M1 8C1 9.85652 1.7375 11.637 3.05025 12.9497C4.36301 14.2625 6.14348 15 8 15C9.85652 15 11.637 14.2625 12.9497 12.9497C14.2625 11.637 15 9.85652 15 8C15 6.14348 14.2625 4.36301 12.9497 3.05025C11.637 1.7375 9.85652 1 8 1C6.14348 1 4.36301 1.7375 3.05025 3.05025C1.7375 4.36301 1 6.14348 1 8ZM16 8C16 10.1217 15.1571 12.1566 13.6569 13.6569C12.1566 15.1571 10.1217 16 8 16C5.87827 16 3.84344 15.1571 2.34315 13.6569C0.842855 12.1566 0 10.1217 0 8C0 5.87827 0.842855 3.84344 2.34315 2.34315C3.84344 0.842854 5.87827 0 8 0C10.1217 0 12.1566 0.842854 13.6569 2.34315C15.1571 3.84344 16 5.87827 16 8ZM7.14687 11.3531L4.14687 8.35313C3.95312 8.15938 3.95312 7.84063 4.14687 7.64688L7.14687 4.64688C7.34062 4.45312 7.65938 4.45312 7.85313 4.64688C8.04688 4.84063 8.04688 5.15937 7.85313 5.35312L5.70625 7.5H11.5C11.775 7.5 12 7.725 12 8C12 8.275 11.775 8.5 11.5 8.5H5.70625L7.85313 10.6469C8.04688 10.8406 8.04688 11.1594 7.85313 11.3531C7.65938 11.5469 7.34062 11.5469 7.14687 11.3531Z" fill="#FAFBFB"/>
  </g>
  <defs>
    <clipPath id="clip0_1428_94445">
      <rect width="16" height="16" fill="white" transform="matrix(1 0 0 -1 0 16)"/>
    </clipPath>
  </defs>
</svg>
