<svg viewBox="0 0 16 16" fill="none"
  xmlns="http://www.w3.org/2000/svg">
  <g clip-path="url(#clip0_1428_94428)">
    <path d="M6.71875 1.9625L6.87187 1.20312C6.88125 1.15625 6.90313 1.11563 6.93125 1.08438C7.27813 1.02813 7.6375 1 8 1C8.3625 1 8.72188 1.02812 9.06875 1.08125C9.1 1.11562 9.11875 1.15625 9.12813 1.2L9.28125 1.9625C9.37187 2.4125 9.69375 2.75 10.0781 2.90937L10.125 2.92812C10.5094 3.09062 10.9781 3.07812 11.3594 2.825L12.0031 2.39375C12.0406 2.36875 12.0844 2.35313 12.1313 2.35313C12.4156 2.5625 12.6844 2.79062 12.9312 3.0375L12.9563 3.0625C13.2031 3.3125 13.4344 3.57812 13.6406 3.8625C13.6375 3.90625 13.625 3.95 13.6 3.99062L13.1687 4.63438C12.9156 5.01562 12.9031 5.48125 13.0656 5.86875L13.0844 5.91563C13.2438 6.30312 13.5813 6.62188 14.0312 6.7125L14.7906 6.86562C14.8375 6.875 14.8781 6.89688 14.9094 6.925C14.9625 7.27188 14.9906 7.625 14.9906 7.9875V8C14.9906 8.3625 14.9625 8.71562 14.9094 9.0625C14.875 9.09375 14.8344 9.1125 14.7906 9.12187L14.0375 9.28125C13.5875 9.37187 13.25 9.69375 13.0906 10.0781L13.0719 10.125C12.9094 10.5094 12.9219 10.9781 13.175 11.3594L13.6062 12.0031C13.6312 12.0406 13.6469 12.0844 13.6469 12.1313C13.2219 12.7094 12.7125 13.2219 12.1344 13.6438C12.0906 13.6406 12.0469 13.6281 12.0063 13.6031L11.3625 13.1719C10.9812 12.9187 10.5156 12.9062 10.1281 13.0688L10.0813 13.0875C9.69375 13.2469 9.375 13.5844 9.28438 14.0344L9.13125 14.7937C9.12188 14.8406 9.1 14.8813 9.07187 14.9125C8.725 14.9656 8.36563 14.9937 8.00313 14.9937C7.64062 14.9937 7.28125 14.9656 6.93437 14.9125C6.90312 14.8781 6.88438 14.8375 6.875 14.7937L6.71875 14.0375C6.62813 13.5875 6.30625 13.25 5.92188 13.0906L5.875 13.0719C5.49062 12.9094 5.02187 12.9219 4.64062 13.175L3.99688 13.6062C3.95938 13.6312 3.91563 13.6469 3.86875 13.6469C3.29063 13.2219 2.77813 12.7125 2.35625 12.1344C2.35938 12.0906 2.37187 12.0469 2.39687 12.0063L2.82812 11.3625C3.08125 10.9812 3.09375 10.5156 2.93125 10.1281L2.9125 10.0813C2.75312 9.69375 2.41563 9.375 1.96563 9.28438L1.20625 9.13125C1.15937 9.12188 1.11875 9.1 1.0875 9.07187C1.02812 8.72187 1 8.3625 1 8C1 7.6375 1.02812 7.27813 1.08125 6.93125C1.11562 6.9 1.15625 6.88125 1.2 6.87187L1.9625 6.71875C2.4125 6.62813 2.75 6.30625 2.90937 5.92188L2.92812 5.875C3.09062 5.49062 3.07812 5.02187 2.825 4.64062L2.39375 3.99062C2.36875 3.95312 2.35313 3.90937 2.35313 3.8625C2.5625 3.57812 2.79063 3.30938 3.04063 3.05938L3.06562 3.03437C3.31562 2.7875 3.58438 2.55625 3.86875 2.34687C3.9125 2.35 3.95625 2.3625 3.99688 2.3875L4.64062 2.81875C5.02187 3.07187 5.4875 3.08437 5.875 2.92188L5.92188 2.90313C6.30937 2.74375 6.63125 2.40625 6.71875 1.95625V1.9625ZM8 0C7.5375 0 7.08438 0.040625 6.64375 0.115625C6.58125 0.125 6.52187 0.146875 6.46875 0.18125C6.175 0.35625 5.95937 0.653125 5.8875 1.00625L5.73438 1.76562C5.71875 1.84687 5.65312 1.93438 5.5375 1.98125H5.53438L5.48125 2.00312H5.47813C5.3625 2.05 5.25625 2.03437 5.18437 1.99063L4.54688 1.5625C4.24687 1.3625 3.88438 1.30625 3.55625 1.3875C3.49688 1.40313 3.4375 1.42813 3.3875 1.46563C3.01875 1.725 2.675 2.0125 2.35625 2.32812L2.33125 2.35313C2.0125 2.675 1.725 3.01875 1.46563 3.38438C1.42813 3.43438 1.40313 3.49375 1.3875 3.55312C1.30625 3.88437 1.3625 4.24375 1.5625 4.54375L1.99375 5.1875C2.04063 5.25625 2.05625 5.36562 2.00625 5.48125V5.48438L1.98438 5.5375V5.54063C1.9375 5.65625 1.85 5.72188 1.76875 5.7375L1.00937 5.89062C0.653125 5.9625 0.359375 6.17813 0.184375 6.47188C0.153125 6.525 0.13125 6.58437 0.11875 6.64687C0.040625 7.08437 0 7.5375 0 8C0 8.4625 0.040625 8.91562 0.115625 9.35625C0.125 9.41875 0.146875 9.47812 0.18125 9.53125C0.35625 9.825 0.653125 10.0406 1.00625 10.1125L1.76562 10.2656C1.84687 10.2812 1.93438 10.3469 1.98125 10.4625V10.4656L2.00312 10.5188V10.5219C2.05 10.6375 2.03437 10.7438 1.99063 10.8156L1.5625 11.4531C1.3625 11.7531 1.30625 12.1156 1.3875 12.4438C1.40313 12.5031 1.42813 12.5625 1.46563 12.6125C1.99063 13.3562 2.64062 14.0063 3.3875 14.5344C3.4375 14.5719 3.49688 14.5969 3.55625 14.6125C3.8875 14.6938 4.24687 14.6375 4.54688 14.4375L5.19063 14.0063C5.25938 13.9594 5.36875 13.9437 5.48438 13.9937H5.4875L5.54063 14.0156H5.54375C5.65937 14.0625 5.725 14.15 5.74062 14.2312L5.89375 14.9906C5.96563 15.3469 6.18125 15.6406 6.475 15.8156C6.52812 15.8469 6.5875 15.8688 6.65 15.8813C7.09063 15.9563 7.54375 15.9969 8.00625 15.9969C8.46875 15.9969 8.92188 15.9563 9.3625 15.8813C9.425 15.8719 9.48438 15.85 9.5375 15.8156C9.83125 15.6406 10.0469 15.3438 10.1187 14.9906L10.2719 14.2312C10.2875 14.15 10.3531 14.0625 10.4688 14.0156H10.4719L10.525 13.9937H10.5281C10.6438 13.9469 10.75 13.9625 10.8219 14.0063L11.4531 14.4375C11.7531 14.6375 12.1156 14.6938 12.4438 14.6125C12.5031 14.5969 12.5625 14.5719 12.6125 14.5344C13.3562 14.0094 14.0063 13.3594 14.5344 12.6156C14.5719 12.5656 14.5969 12.5062 14.6125 12.4469C14.6938 12.1156 14.6375 11.7563 14.4375 11.4563L14.0063 10.8125C13.9594 10.7437 13.9437 10.6344 13.9937 10.5188V10.5156L14.0156 10.4625V10.4594C14.0625 10.3438 14.15 10.2781 14.2312 10.2625L14.9906 10.1094C15.3469 10.0375 15.6406 9.82187 15.8156 9.52812C15.8469 9.475 15.8688 9.41562 15.8813 9.35312C15.9563 8.91562 15.9969 8.4625 15.9969 8.00313V7.99062C15.9969 7.53125 15.9563 7.08125 15.8813 6.64062C15.8719 6.57812 15.85 6.51875 15.8156 6.46562C15.6406 6.17188 15.3438 5.95625 14.9906 5.88438L14.2312 5.73125C14.15 5.71562 14.0625 5.65 14.0156 5.53438V5.53125L13.9937 5.47813V5.475C13.9469 5.35938 13.9625 5.25313 14.0063 5.18125L14.4375 4.54688C14.6375 4.24687 14.6938 3.88438 14.6125 3.55625C14.5969 3.49688 14.5719 3.4375 14.5344 3.3875C14.275 3.02188 13.9875 2.67812 13.6719 2.35938L13.6438 2.33125C13.3281 2.01562 12.9844 1.72812 12.6156 1.46875C12.5656 1.43125 12.5062 1.40625 12.4469 1.39062C12.1156 1.30938 11.7563 1.36562 11.4563 1.56562L10.8094 1.99063C10.7406 2.0375 10.6313 2.05312 10.5156 2.00312H10.5125L10.4594 1.98125H10.4563C10.3406 1.93438 10.275 1.84687 10.2594 1.76562L10.1062 1.00625C10.0344 0.65 9.81875 0.35625 9.525 0.18125C9.47187 0.15 9.4125 0.128125 9.35 0.115625C8.91563 0.040625 8.4625 0 8 0ZM6 8C6 7.46957 6.21071 6.96086 6.58579 6.58579C6.96086 6.21071 7.46957 6 8 6C8.53043 6 9.03914 6.21071 9.41421 6.58579C9.78929 6.96086 10 7.46957 10 8C10 8.53043 9.78929 9.03914 9.41421 9.41421C9.03914 9.78929 8.53043 10 8 10C7.46957 10 6.96086 9.78929 6.58579 9.41421C6.21071 9.03914 6 8.53043 6 8ZM11 8C11 7.20435 10.6839 6.44129 10.1213 5.87868C9.55871 5.31607 8.79565 5 8 5C7.20435 5 6.44129 5.31607 5.87868 5.87868C5.31607 6.44129 5 7.20435 5 8C5 8.79565 5.31607 9.55871 5.87868 10.1213C6.44129 10.6839 7.20435 11 8 11C8.79565 11 9.55871 10.6839 10.1213 10.1213C10.6839 9.55871 11 8.79565 11 8Z" fill="#FAFBFB"/>
  </g>
  <defs>
    <clipPath id="clip0_1428_94428">
      <rect width="16" height="16" fill="white"/>
    </clipPath>
  </defs>
</svg>
