<svg viewBox="0 0 16 16" fill="none"
  xmlns="http://www.w3.org/2000/svg">
  <g clip-path="url(#clip0_1428_94442)">
    <path d="M2.66667 1.33333C3.02029 1.33333 3.35943 1.47381 3.60948 1.72386C3.85952 1.97391 4 2.31304 4 2.66667C4 3.02029 3.85952 3.35943 3.60948 3.60948C3.35943 3.85952 3.02029 4 2.66667 4C2.31304 4 1.97391 3.85952 1.72386 3.60948C1.47381 3.35943 1.33333 3.02029 1.33333 2.66667C1.33333 2.31304 1.47381 1.97391 1.72386 1.72386C1.97391 1.47381 2.31304 1.33333 2.66667 1.33333ZM2.66667 5.33333C3.37391 5.33333 4.05219 5.05238 4.55229 4.55229C5.05238 4.05219 5.33333 3.37391 5.33333 2.66667C5.33333 1.95942 5.05238 1.28115 4.55229 0.781048C4.05219 0.280951 3.37391 0 2.66667 0C1.95942 0 1.28115 0.280951 0.781049 0.781048C0.280952 1.28115 0 1.95942 0 2.66667C0 3.37391 0.280952 4.05219 0.781049 4.55229C1.28115 5.05238 1.95942 5.33333 2.66667 5.33333ZM13.3333 12C13.687 12 14.0261 12.1405 14.2761 12.3905C14.5262 12.6406 14.6667 12.9797 14.6667 13.3333C14.6667 13.687 14.5262 14.0261 14.2761 14.2761C14.0261 14.5262 13.687 14.6667 13.3333 14.6667C12.9797 14.6667 12.6406 14.5262 12.3905 14.2761C12.1405 14.0261 12 13.687 12 13.3333C12 12.9797 12.1405 12.6406 12.3905 12.3905C12.6406 12.1405 12.9797 12 13.3333 12ZM13.3333 16C14.0406 16 14.7189 15.719 15.219 15.219C15.719 14.7189 16 14.0406 16 13.3333C16 12.6261 15.719 11.9478 15.219 11.4477C14.7189 10.9476 14.0406 10.6667 13.3333 10.6667C12.6261 10.6667 11.9478 10.9476 11.4477 11.4477C10.9476 11.9478 10.6667 12.6261 10.6667 13.3333C10.6667 14.0406 10.9476 14.7189 11.4477 15.219C11.9478 15.719 12.6261 16 13.3333 16ZM15.8042 1.1375C16.0625 0.879167 16.0625 0.454167 15.8042 0.195833C15.5458 -0.0625001 15.1208 -0.0625001 14.8625 0.195833L0.195833 14.8625C-0.0625 15.1208 -0.0625 15.5458 0.195833 15.8042C0.454167 16.0625 0.879167 16.0625 1.1375 15.8042L15.8042 1.1375Z" fill="#FAFBFB"/>
  </g>
  <defs>
    <clipPath id="clip0_1428_94442">
      <rect width="16" height="16" fill="white"/>
    </clipPath>
  </defs>
</svg>
