<svg width="17" height="16" viewBox="0 0 17 16" fill="none" xmlns="http://www.w3.org/2000/svg">
  <g clip-path="url(#clip0_3546_108829)">
    <path opacity="0.4"
          d="M11.0781 3.75645C10.6875 4.14707 10.6875 4.78145 11.0781 5.17207C11.4688 5.5627 12.1031 5.5627 12.4937 5.17207L13.9062 3.75645C14.2969 3.36582 14.2969 2.73145 13.9062 2.34082C13.5156 1.9502 12.8813 1.9502 12.4906 2.34082L11.075 3.75645H11.0781ZM12.25 8.0002C12.25 8.55332 12.6969 9.0002 13.25 9.0002H15.25C15.8031 9.0002 16.25 8.55332 16.25 8.0002C16.25 7.44707 15.8031 7.0002 15.25 7.0002H13.25C12.6969 7.0002 12.25 7.44707 12.25 8.0002ZM8.25 12.0002C7.69688 12.0002 7.25 12.4471 7.25 13.0002V15.0002C7.25 15.5533 7.69688 16.0002 8.25 16.0002C8.80312 16.0002 9.25 15.5533 9.25 15.0002V13.0002C9.25 12.4471 8.80312 12.0002 8.25 12.0002ZM12.4937 10.8283C12.1031 10.4377 11.4688 10.4377 11.0781 10.8283C10.6875 11.2189 10.6875 11.8533 11.0781 12.2439L12.4937 13.6564C12.8844 14.0471 13.5188 14.0471 13.9094 13.6564C14.3 13.2658 14.3 12.6314 13.9094 12.2408L12.4937 10.8252V10.8283ZM2.59375 13.6564C2.98438 14.0471 3.61875 14.0471 4.00938 13.6564L5.425 12.2408C5.81563 11.8502 5.81563 11.2158 5.425 10.8252C5.03438 10.4346 4.4 10.4346 4.00938 10.8252L2.59375 12.2439C2.20312 12.6346 2.20312 13.2689 2.59375 13.6596V13.6564Z"
          fill="#FFD84E"/>
    <path
      d="M8.25 0C7.69688 0 7.25 0.446875 7.25 1V3C7.25 3.55312 7.69688 4 8.25 4C8.80313 4 9.25 3.55312 9.25 3V1C9.25 0.446875 8.80313 0 8.25 0ZM0.25 8C0.25 8.55313 0.696875 9 1.25 9H3.25C3.80312 9 4.25 8.55313 4.25 8C4.25 7.44688 3.80312 7 3.25 7H1.25C0.696875 7 0.25 7.44688 0.25 8ZM4.00625 2.34375C3.61562 1.95312 2.98438 1.95312 2.59375 2.34375C2.20312 2.73438 2.20312 3.36875 2.59375 3.75938L4.00938 5.175C4.4 5.56563 5.03438 5.56563 5.425 5.175C5.81563 4.78438 5.81563 4.15 5.425 3.75938L4.00625 2.34375Z"
      fill="#FFD84E"/>
  </g>
  <defs>
    <clipPath id="clip0_3546_108829">
      <rect width="16" height="16" fill="white" transform="translate(0.25)"/>
    </clipPath>
  </defs>
</svg>
